%TF.GenerationSoftware,KiCad,Pcbnew,9.0.4*%
%TF.CreationDate,2025-11-11T15:23:23+07:00*%
%TF.ProjectId,RIP_ExtensionBoard,5249505f-4578-4746-956e-73696f6e426f,1*%
%TF.SameCoordinates,Original*%
%TF.FileFunction,Drillmap*%
%TF.FilePolarity,Positive*%
%FSLAX45Y45*%
G04 Gerber Fmt 4.5, Leading zero omitted, Abs format (unit mm)*
G04 Created by KiCad (PCBNEW 9.0.4) date 2025-11-11 15:23:23*
%MOMM*%
%LPD*%
G01*
G04 APERTURE LIST*
%ADD10C,0.050000*%
%ADD11C,0.200000*%
%ADD12C,0.100000*%
%ADD13C,0.101600*%
%ADD14C,0.110000*%
%ADD15C,0.120000*%
G04 APERTURE END LIST*
D10*
X5101750Y-4412000D02*
X25101750Y-4412000D01*
X25101750Y-15212000D01*
X5101750Y-15212000D01*
X5101750Y-4412000D01*
D11*
D12*
X11227500Y-14222500D02*
X11277500Y-14272500D01*
X11277500Y-14222500D02*
X11227500Y-14272500D01*
X11235000Y-13965000D02*
X11285000Y-14015000D01*
X11285000Y-13965000D02*
X11235000Y-14015000D01*
X11637500Y-13967500D02*
X11687500Y-14017500D01*
X11687500Y-13967500D02*
X11637500Y-14017500D01*
X11650000Y-14225000D02*
X11700000Y-14275000D01*
X11700000Y-14225000D02*
X11650000Y-14275000D01*
X12117500Y-9075000D02*
X12167500Y-9125000D01*
X12167500Y-9075000D02*
X12117500Y-9125000D01*
X12120000Y-9476870D02*
X12170000Y-9526870D01*
X12170000Y-9476870D02*
X12120000Y-9526870D01*
X12307500Y-13460000D02*
X12357500Y-13510000D01*
X12357500Y-13460000D02*
X12307500Y-13510000D01*
X12330000Y-8812500D02*
X12380000Y-8862500D01*
X12380000Y-8812500D02*
X12330000Y-8862500D01*
X12612500Y-13460000D02*
X12662500Y-13510000D01*
X12662500Y-13460000D02*
X12612500Y-13510000D01*
X13340000Y-10145000D02*
X13390000Y-10195000D01*
X13390000Y-10145000D02*
X13340000Y-10195000D01*
X13400000Y-8827500D02*
X13450000Y-8877500D01*
X13450000Y-8827500D02*
X13400000Y-8877500D01*
X13890000Y-6157500D02*
X13940000Y-6207500D01*
X13940000Y-6157500D02*
X13890000Y-6207500D01*
X14710000Y-6152500D02*
X14760000Y-6202500D01*
X14760000Y-6152500D02*
X14710000Y-6202500D01*
X16975000Y-12192500D02*
X17025000Y-12242500D01*
X17025000Y-12192500D02*
X16975000Y-12242500D01*
X16975000Y-12435000D02*
X17025000Y-12485000D01*
X17025000Y-12435000D02*
X16975000Y-12485000D01*
X17177500Y-9762500D02*
X17227500Y-9812500D01*
X17227500Y-9762500D02*
X17177500Y-9812500D01*
X17177500Y-10025000D02*
X17227500Y-10075000D01*
X17227500Y-10025000D02*
X17177500Y-10075000D01*
X17550000Y-12195000D02*
X17600000Y-12245000D01*
X17600000Y-12195000D02*
X17550000Y-12245000D01*
X17562500Y-12450000D02*
X17612500Y-12500000D01*
X17612500Y-12450000D02*
X17562500Y-12500000D01*
X17750000Y-6307500D02*
X17800000Y-6357500D01*
X17800000Y-6307500D02*
X17750000Y-6357500D01*
X18462500Y-7012500D02*
X18512500Y-7062500D01*
X18512500Y-7012500D02*
X18462500Y-7062500D01*
X18465000Y-11067500D02*
X18515000Y-11117500D01*
X18515000Y-11067500D02*
X18465000Y-11117500D01*
X18672500Y-7012500D02*
X18722500Y-7062500D01*
X18722500Y-7012500D02*
X18672500Y-7062500D01*
X18672500Y-10177500D02*
X18722500Y-10227500D01*
X18722500Y-10177500D02*
X18672500Y-10227500D01*
X19095000Y-10262500D02*
X19145000Y-10312500D01*
X19145000Y-10262500D02*
X19095000Y-10312500D01*
X19095000Y-12785000D02*
X19145000Y-12835000D01*
X19145000Y-12785000D02*
X19095000Y-12835000D01*
X19275000Y-10030000D02*
X19325000Y-10080000D01*
X19325000Y-10030000D02*
X19275000Y-10080000D01*
X19275000Y-12797500D02*
X19325000Y-12847500D01*
X19325000Y-12797500D02*
X19275000Y-12847500D01*
X6241750Y-5587000D02*
G75*
G02*
X6161750Y-5587000I-40000J0D01*
G01*
X6161750Y-5587000D02*
G75*
G02*
X6241750Y-5587000I40000J0D01*
G01*
X6241750Y-5837000D02*
G75*
G02*
X6161750Y-5837000I-40000J0D01*
G01*
X6161750Y-5837000D02*
G75*
G02*
X6241750Y-5837000I40000J0D01*
G01*
X6292500Y-6792500D02*
G75*
G02*
X6212500Y-6792500I-40000J0D01*
G01*
X6212500Y-6792500D02*
G75*
G02*
X6292500Y-6792500I40000J0D01*
G01*
X6866750Y-5587000D02*
G75*
G02*
X6786750Y-5587000I-40000J0D01*
G01*
X6786750Y-5587000D02*
G75*
G02*
X6866750Y-5587000I40000J0D01*
G01*
X6866750Y-5837000D02*
G75*
G02*
X6786750Y-5837000I-40000J0D01*
G01*
X6786750Y-5837000D02*
G75*
G02*
X6866750Y-5837000I40000J0D01*
G01*
X7562500Y-6792500D02*
G75*
G02*
X7482500Y-6792500I-40000J0D01*
G01*
X7482500Y-6792500D02*
G75*
G02*
X7562500Y-6792500I40000J0D01*
G01*
X21973750Y-6862000D02*
G75*
G02*
X21893750Y-6862000I-40000J0D01*
G01*
X21893750Y-6862000D02*
G75*
G02*
X21973750Y-6862000I40000J0D01*
G01*
X21981750Y-6387000D02*
G75*
G02*
X21901750Y-6387000I-40000J0D01*
G01*
X21901750Y-6387000D02*
G75*
G02*
X21981750Y-6387000I40000J0D01*
G01*
X23243750Y-6862000D02*
G75*
G02*
X23163750Y-6862000I-40000J0D01*
G01*
X23163750Y-6862000D02*
G75*
G02*
X23243750Y-6862000I40000J0D01*
G01*
X23251750Y-6387000D02*
G75*
G02*
X23171750Y-6387000I-40000J0D01*
G01*
X23171750Y-6387000D02*
G75*
G02*
X23251750Y-6387000I40000J0D01*
G01*
X5633500Y-6747500D02*
X5633500Y-6837500D01*
X5588500Y-6792500D02*
X5678500Y-6792500D01*
X5887500Y-6747500D02*
X5887500Y-6837500D01*
X5842500Y-6792500D02*
X5932500Y-6792500D01*
X5750106Y-10727356D02*
X5750106Y-10656644D01*
X5679394Y-10656644D01*
X5679394Y-10727356D01*
X5750106Y-10727356D01*
X5750106Y-10981356D02*
X5750106Y-10910644D01*
X5679394Y-10910644D01*
X5679394Y-10981356D01*
X5750106Y-10981356D01*
X5750106Y-11235356D02*
X5750106Y-11164644D01*
X5679394Y-11164644D01*
X5679394Y-11235356D01*
X5750106Y-11235356D01*
X5750106Y-11489356D02*
X5750106Y-11418644D01*
X5679394Y-11418644D01*
X5679394Y-11489356D01*
X5750106Y-11489356D01*
X5750106Y-11743356D02*
X5750106Y-11672644D01*
X5679394Y-11672644D01*
X5679394Y-11743356D01*
X5750106Y-11743356D01*
X5750106Y-11997356D02*
X5750106Y-11926644D01*
X5679394Y-11926644D01*
X5679394Y-11997356D01*
X5750106Y-11997356D01*
X5750106Y-12251356D02*
X5750106Y-12180644D01*
X5679394Y-12180644D01*
X5679394Y-12251356D01*
X5750106Y-12251356D01*
X5750106Y-12505356D02*
X5750106Y-12434644D01*
X5679394Y-12434644D01*
X5679394Y-12505356D01*
X5750106Y-12505356D01*
X5750106Y-13013356D02*
X5750106Y-12942644D01*
X5679394Y-12942644D01*
X5679394Y-13013356D01*
X5750106Y-13013356D01*
X5750106Y-13267356D02*
X5750106Y-13196644D01*
X5679394Y-13196644D01*
X5679394Y-13267356D01*
X5750106Y-13267356D01*
X5750106Y-13521356D02*
X5750106Y-13450644D01*
X5679394Y-13450644D01*
X5679394Y-13521356D01*
X5750106Y-13521356D01*
X5750106Y-13775356D02*
X5750106Y-13704644D01*
X5679394Y-13704644D01*
X5679394Y-13775356D01*
X5750106Y-13775356D01*
X5750106Y-14029356D02*
X5750106Y-13958644D01*
X5679394Y-13958644D01*
X5679394Y-14029356D01*
X5750106Y-14029356D01*
X5750106Y-14283356D02*
X5750106Y-14212644D01*
X5679394Y-14212644D01*
X5679394Y-14283356D01*
X5750106Y-14283356D01*
X10576106Y-9813356D02*
X10576106Y-9742644D01*
X10505394Y-9742644D01*
X10505394Y-9813356D01*
X10576106Y-9813356D01*
X10576106Y-10067356D02*
X10576106Y-9996644D01*
X10505394Y-9996644D01*
X10505394Y-10067356D01*
X10576106Y-10067356D01*
X10576106Y-10321356D02*
X10576106Y-10250644D01*
X10505394Y-10250644D01*
X10505394Y-10321356D01*
X10576106Y-10321356D01*
X10576106Y-10575356D02*
X10576106Y-10504644D01*
X10505394Y-10504644D01*
X10505394Y-10575356D01*
X10576106Y-10575356D01*
X10576106Y-10829356D02*
X10576106Y-10758644D01*
X10505394Y-10758644D01*
X10505394Y-10829356D01*
X10576106Y-10829356D01*
X10576106Y-11083356D02*
X10576106Y-11012644D01*
X10505394Y-11012644D01*
X10505394Y-11083356D01*
X10576106Y-11083356D01*
X10576106Y-11337356D02*
X10576106Y-11266644D01*
X10505394Y-11266644D01*
X10505394Y-11337356D01*
X10576106Y-11337356D01*
X10576106Y-11591356D02*
X10576106Y-11520644D01*
X10505394Y-11520644D01*
X10505394Y-11591356D01*
X10576106Y-11591356D01*
X10576106Y-11845356D02*
X10576106Y-11774644D01*
X10505394Y-11774644D01*
X10505394Y-11845356D01*
X10576106Y-11845356D01*
X10576106Y-12099356D02*
X10576106Y-12028644D01*
X10505394Y-12028644D01*
X10505394Y-12099356D01*
X10576106Y-12099356D01*
X10576106Y-12505356D02*
X10576106Y-12434644D01*
X10505394Y-12434644D01*
X10505394Y-12505356D01*
X10576106Y-12505356D01*
X10576106Y-12759356D02*
X10576106Y-12688644D01*
X10505394Y-12688644D01*
X10505394Y-12759356D01*
X10576106Y-12759356D01*
X10576106Y-13013356D02*
X10576106Y-12942644D01*
X10505394Y-12942644D01*
X10505394Y-13013356D01*
X10576106Y-13013356D01*
X10576106Y-13267356D02*
X10576106Y-13196644D01*
X10505394Y-13196644D01*
X10505394Y-13267356D01*
X10576106Y-13267356D01*
X10576106Y-13521356D02*
X10576106Y-13450644D01*
X10505394Y-13450644D01*
X10505394Y-13521356D01*
X10576106Y-13521356D01*
X10576106Y-13775356D02*
X10576106Y-13704644D01*
X10505394Y-13704644D01*
X10505394Y-13775356D01*
X10576106Y-13775356D01*
X10576106Y-14029356D02*
X10576106Y-13958644D01*
X10505394Y-13958644D01*
X10505394Y-14029356D01*
X10576106Y-14029356D01*
X10576106Y-14283356D02*
X10576106Y-14212644D01*
X10505394Y-14212644D01*
X10505394Y-14283356D01*
X10576106Y-14283356D01*
X19575106Y-7806356D02*
X19575106Y-7735644D01*
X19504394Y-7735644D01*
X19504394Y-7806356D01*
X19575106Y-7806356D01*
X19575106Y-8060356D02*
X19575106Y-7989644D01*
X19504394Y-7989644D01*
X19504394Y-8060356D01*
X19575106Y-8060356D01*
X19575106Y-8314356D02*
X19575106Y-8243644D01*
X19504394Y-8243644D01*
X19504394Y-8314356D01*
X19575106Y-8314356D01*
X19575106Y-8568356D02*
X19575106Y-8497644D01*
X19504394Y-8497644D01*
X19504394Y-8568356D01*
X19575106Y-8568356D01*
X19575106Y-8822356D02*
X19575106Y-8751644D01*
X19504394Y-8751644D01*
X19504394Y-8822356D01*
X19575106Y-8822356D01*
X19575106Y-9076356D02*
X19575106Y-9005644D01*
X19504394Y-9005644D01*
X19504394Y-9076356D01*
X19575106Y-9076356D01*
X19575106Y-9330356D02*
X19575106Y-9259644D01*
X19504394Y-9259644D01*
X19504394Y-9330356D01*
X19575106Y-9330356D01*
X19575106Y-9584356D02*
X19575106Y-9513644D01*
X19504394Y-9513644D01*
X19504394Y-9584356D01*
X19575106Y-9584356D01*
X19575106Y-9990356D02*
X19575106Y-9919644D01*
X19504394Y-9919644D01*
X19504394Y-9990356D01*
X19575106Y-9990356D01*
X19575106Y-10244356D02*
X19575106Y-10173644D01*
X19504394Y-10173644D01*
X19504394Y-10244356D01*
X19575106Y-10244356D01*
X19575106Y-10498356D02*
X19575106Y-10427644D01*
X19504394Y-10427644D01*
X19504394Y-10498356D01*
X19575106Y-10498356D01*
X19575106Y-10752356D02*
X19575106Y-10681644D01*
X19504394Y-10681644D01*
X19504394Y-10752356D01*
X19575106Y-10752356D01*
X19575106Y-11006356D02*
X19575106Y-10935644D01*
X19504394Y-10935644D01*
X19504394Y-11006356D01*
X19575106Y-11006356D01*
X19575106Y-11260356D02*
X19575106Y-11189644D01*
X19504394Y-11189644D01*
X19504394Y-11260356D01*
X19575106Y-11260356D01*
X19575106Y-11514356D02*
X19575106Y-11443644D01*
X19504394Y-11443644D01*
X19504394Y-11514356D01*
X19575106Y-11514356D01*
X19575106Y-11768356D02*
X19575106Y-11697644D01*
X19504394Y-11697644D01*
X19504394Y-11768356D01*
X19575106Y-11768356D01*
X19575106Y-12022356D02*
X19575106Y-11951644D01*
X19504394Y-11951644D01*
X19504394Y-12022356D01*
X19575106Y-12022356D01*
X19575106Y-12276356D02*
X19575106Y-12205644D01*
X19504394Y-12205644D01*
X19504394Y-12276356D01*
X19575106Y-12276356D01*
X23975356Y-4895356D02*
X23975356Y-4824644D01*
X23904644Y-4824644D01*
X23904644Y-4895356D01*
X23975356Y-4895356D01*
X23975356Y-5149356D02*
X23975356Y-5078644D01*
X23904644Y-5078644D01*
X23904644Y-5149356D01*
X23975356Y-5149356D01*
X23975356Y-5403356D02*
X23975356Y-5332644D01*
X23904644Y-5332644D01*
X23904644Y-5403356D01*
X23975356Y-5403356D01*
X23975356Y-5657356D02*
X23975356Y-5586644D01*
X23904644Y-5586644D01*
X23904644Y-5657356D01*
X23975356Y-5657356D01*
X23975356Y-5911356D02*
X23975356Y-5840644D01*
X23904644Y-5840644D01*
X23904644Y-5911356D01*
X23975356Y-5911356D01*
X23975356Y-6165356D02*
X23975356Y-6094644D01*
X23904644Y-6094644D01*
X23904644Y-6165356D01*
X23975356Y-6165356D01*
X24401106Y-7806356D02*
X24401106Y-7735644D01*
X24330394Y-7735644D01*
X24330394Y-7806356D01*
X24401106Y-7806356D01*
X24401106Y-8060356D02*
X24401106Y-7989644D01*
X24330394Y-7989644D01*
X24330394Y-8060356D01*
X24401106Y-8060356D01*
X24401106Y-8314356D02*
X24401106Y-8243644D01*
X24330394Y-8243644D01*
X24330394Y-8314356D01*
X24401106Y-8314356D01*
X24401106Y-8568356D02*
X24401106Y-8497644D01*
X24330394Y-8497644D01*
X24330394Y-8568356D01*
X24401106Y-8568356D01*
X24401106Y-8822356D02*
X24401106Y-8751644D01*
X24330394Y-8751644D01*
X24330394Y-8822356D01*
X24401106Y-8822356D01*
X24401106Y-9076356D02*
X24401106Y-9005644D01*
X24330394Y-9005644D01*
X24330394Y-9076356D01*
X24401106Y-9076356D01*
X24401106Y-9584356D02*
X24401106Y-9513644D01*
X24330394Y-9513644D01*
X24330394Y-9584356D01*
X24401106Y-9584356D01*
X24401106Y-9838356D02*
X24401106Y-9767644D01*
X24330394Y-9767644D01*
X24330394Y-9838356D01*
X24401106Y-9838356D01*
X24401106Y-10092356D02*
X24401106Y-10021644D01*
X24330394Y-10021644D01*
X24330394Y-10092356D01*
X24401106Y-10092356D01*
X24401106Y-10346356D02*
X24401106Y-10275644D01*
X24330394Y-10275644D01*
X24330394Y-10346356D01*
X24401106Y-10346356D01*
X24401106Y-10600356D02*
X24401106Y-10529644D01*
X24330394Y-10529644D01*
X24330394Y-10600356D01*
X24401106Y-10600356D01*
X24401106Y-10854356D02*
X24401106Y-10783644D01*
X24330394Y-10783644D01*
X24330394Y-10854356D01*
X24401106Y-10854356D01*
X24401106Y-11108356D02*
X24401106Y-11037644D01*
X24330394Y-11037644D01*
X24330394Y-11108356D01*
X24401106Y-11108356D01*
X24401106Y-11362356D02*
X24401106Y-11291644D01*
X24330394Y-11291644D01*
X24330394Y-11362356D01*
X24401106Y-11362356D01*
D13*
X11890735Y-9730800D02*
X11941535Y-9680000D01*
X11890735Y-9629200D01*
X11839935Y-9680000D01*
X11890735Y-9730800D01*
X11890735Y-9984800D02*
X11941535Y-9934000D01*
X11890735Y-9883200D01*
X11839935Y-9934000D01*
X11890735Y-9984800D01*
X11890735Y-10238800D02*
X11941535Y-10188000D01*
X11890735Y-10137200D01*
X11839935Y-10188000D01*
X11890735Y-10238800D01*
X11890735Y-10492800D02*
X11941535Y-10442000D01*
X11890735Y-10391200D01*
X11839935Y-10442000D01*
X11890735Y-10492800D01*
X11890735Y-10746800D02*
X11941535Y-10696000D01*
X11890735Y-10645200D01*
X11839935Y-10696000D01*
X11890735Y-10746800D01*
X11890735Y-11000800D02*
X11941535Y-10950000D01*
X11890735Y-10899200D01*
X11839935Y-10950000D01*
X11890735Y-11000800D01*
X11890735Y-11254800D02*
X11941535Y-11204000D01*
X11890735Y-11153200D01*
X11839935Y-11204000D01*
X11890735Y-11254800D01*
X11890735Y-11508800D02*
X11941535Y-11458000D01*
X11890735Y-11407200D01*
X11839935Y-11458000D01*
X11890735Y-11508800D01*
X11890735Y-11762800D02*
X11941535Y-11712000D01*
X11890735Y-11661200D01*
X11839935Y-11712000D01*
X11890735Y-11762800D01*
X11890735Y-12016800D02*
X11941535Y-11966000D01*
X11890735Y-11915200D01*
X11839935Y-11966000D01*
X11890735Y-12016800D01*
X11890735Y-12270800D02*
X11941535Y-12220000D01*
X11890735Y-12169200D01*
X11839935Y-12220000D01*
X11890735Y-12270800D01*
X11890735Y-12524800D02*
X11941535Y-12474000D01*
X11890735Y-12423200D01*
X11839935Y-12474000D01*
X11890735Y-12524800D01*
X11890735Y-12778800D02*
X11941535Y-12728000D01*
X11890735Y-12677200D01*
X11839935Y-12728000D01*
X11890735Y-12778800D01*
X11890735Y-13032800D02*
X11941535Y-12982000D01*
X11890735Y-12931200D01*
X11839935Y-12982000D01*
X11890735Y-13032800D01*
X11890735Y-13286800D02*
X11941535Y-13236000D01*
X11890735Y-13185200D01*
X11839935Y-13236000D01*
X11890735Y-13286800D01*
X11890735Y-13540800D02*
X11941535Y-13490000D01*
X11890735Y-13439200D01*
X11839935Y-13490000D01*
X11890735Y-13540800D01*
X11890735Y-13794800D02*
X11941535Y-13744000D01*
X11890735Y-13693200D01*
X11839935Y-13744000D01*
X11890735Y-13794800D01*
X11890735Y-14048800D02*
X11941535Y-13998000D01*
X11890735Y-13947200D01*
X11839935Y-13998000D01*
X11890735Y-14048800D01*
X11890735Y-14302800D02*
X11941535Y-14252000D01*
X11890735Y-14201200D01*
X11839935Y-14252000D01*
X11890735Y-14302800D01*
X12144735Y-9730800D02*
X12195535Y-9680000D01*
X12144735Y-9629200D01*
X12093935Y-9680000D01*
X12144735Y-9730800D01*
X12144735Y-9984800D02*
X12195535Y-9934000D01*
X12144735Y-9883200D01*
X12093935Y-9934000D01*
X12144735Y-9984800D01*
X12144735Y-10238800D02*
X12195535Y-10188000D01*
X12144735Y-10137200D01*
X12093935Y-10188000D01*
X12144735Y-10238800D01*
X12144735Y-10492800D02*
X12195535Y-10442000D01*
X12144735Y-10391200D01*
X12093935Y-10442000D01*
X12144735Y-10492800D01*
X12144735Y-10746800D02*
X12195535Y-10696000D01*
X12144735Y-10645200D01*
X12093935Y-10696000D01*
X12144735Y-10746800D01*
X12144735Y-11000800D02*
X12195535Y-10950000D01*
X12144735Y-10899200D01*
X12093935Y-10950000D01*
X12144735Y-11000800D01*
X12144735Y-11254800D02*
X12195535Y-11204000D01*
X12144735Y-11153200D01*
X12093935Y-11204000D01*
X12144735Y-11254800D01*
X12144735Y-11508800D02*
X12195535Y-11458000D01*
X12144735Y-11407200D01*
X12093935Y-11458000D01*
X12144735Y-11508800D01*
X12144735Y-11762800D02*
X12195535Y-11712000D01*
X12144735Y-11661200D01*
X12093935Y-11712000D01*
X12144735Y-11762800D01*
X12144735Y-12016800D02*
X12195535Y-11966000D01*
X12144735Y-11915200D01*
X12093935Y-11966000D01*
X12144735Y-12016800D01*
X12144735Y-12270800D02*
X12195535Y-12220000D01*
X12144735Y-12169200D01*
X12093935Y-12220000D01*
X12144735Y-12270800D01*
X12144735Y-12524800D02*
X12195535Y-12474000D01*
X12144735Y-12423200D01*
X12093935Y-12474000D01*
X12144735Y-12524800D01*
X12144735Y-12778800D02*
X12195535Y-12728000D01*
X12144735Y-12677200D01*
X12093935Y-12728000D01*
X12144735Y-12778800D01*
X12144735Y-13032800D02*
X12195535Y-12982000D01*
X12144735Y-12931200D01*
X12093935Y-12982000D01*
X12144735Y-13032800D01*
X12144735Y-13286800D02*
X12195535Y-13236000D01*
X12144735Y-13185200D01*
X12093935Y-13236000D01*
X12144735Y-13286800D01*
X12144735Y-13540800D02*
X12195535Y-13490000D01*
X12144735Y-13439200D01*
X12093935Y-13490000D01*
X12144735Y-13540800D01*
X12144735Y-13794800D02*
X12195535Y-13744000D01*
X12144735Y-13693200D01*
X12093935Y-13744000D01*
X12144735Y-13794800D01*
X12144735Y-14048800D02*
X12195535Y-13998000D01*
X12144735Y-13947200D01*
X12093935Y-13998000D01*
X12144735Y-14048800D01*
X12144735Y-14302800D02*
X12195535Y-14252000D01*
X12144735Y-14201200D01*
X12093935Y-14252000D01*
X12144735Y-14302800D01*
X17986735Y-9730800D02*
X18037535Y-9680000D01*
X17986735Y-9629200D01*
X17935935Y-9680000D01*
X17986735Y-9730800D01*
X17986735Y-9984800D02*
X18037535Y-9934000D01*
X17986735Y-9883200D01*
X17935935Y-9934000D01*
X17986735Y-9984800D01*
X17986735Y-10238800D02*
X18037535Y-10188000D01*
X17986735Y-10137200D01*
X17935935Y-10188000D01*
X17986735Y-10238800D01*
X17986735Y-10492800D02*
X18037535Y-10442000D01*
X17986735Y-10391200D01*
X17935935Y-10442000D01*
X17986735Y-10492800D01*
X17986735Y-10746800D02*
X18037535Y-10696000D01*
X17986735Y-10645200D01*
X17935935Y-10696000D01*
X17986735Y-10746800D01*
X17986735Y-11000800D02*
X18037535Y-10950000D01*
X17986735Y-10899200D01*
X17935935Y-10950000D01*
X17986735Y-11000800D01*
X17986735Y-11254800D02*
X18037535Y-11204000D01*
X17986735Y-11153200D01*
X17935935Y-11204000D01*
X17986735Y-11254800D01*
X17986735Y-11508800D02*
X18037535Y-11458000D01*
X17986735Y-11407200D01*
X17935935Y-11458000D01*
X17986735Y-11508800D01*
X17986735Y-11762800D02*
X18037535Y-11712000D01*
X17986735Y-11661200D01*
X17935935Y-11712000D01*
X17986735Y-11762800D01*
X17986735Y-12016800D02*
X18037535Y-11966000D01*
X17986735Y-11915200D01*
X17935935Y-11966000D01*
X17986735Y-12016800D01*
X17986735Y-12270800D02*
X18037535Y-12220000D01*
X17986735Y-12169200D01*
X17935935Y-12220000D01*
X17986735Y-12270800D01*
X17986735Y-12524800D02*
X18037535Y-12474000D01*
X17986735Y-12423200D01*
X17935935Y-12474000D01*
X17986735Y-12524800D01*
X17986735Y-12778800D02*
X18037535Y-12728000D01*
X17986735Y-12677200D01*
X17935935Y-12728000D01*
X17986735Y-12778800D01*
X17986735Y-13032800D02*
X18037535Y-12982000D01*
X17986735Y-12931200D01*
X17935935Y-12982000D01*
X17986735Y-13032800D01*
X17986735Y-13286800D02*
X18037535Y-13236000D01*
X17986735Y-13185200D01*
X17935935Y-13236000D01*
X17986735Y-13286800D01*
X17986735Y-13540800D02*
X18037535Y-13490000D01*
X17986735Y-13439200D01*
X17935935Y-13490000D01*
X17986735Y-13540800D01*
X17986735Y-13794800D02*
X18037535Y-13744000D01*
X17986735Y-13693200D01*
X17935935Y-13744000D01*
X17986735Y-13794800D01*
X17986735Y-14048800D02*
X18037535Y-13998000D01*
X17986735Y-13947200D01*
X17935935Y-13998000D01*
X17986735Y-14048800D01*
X17986735Y-14302800D02*
X18037535Y-14252000D01*
X17986735Y-14201200D01*
X17935935Y-14252000D01*
X17986735Y-14302800D01*
X18240735Y-9730800D02*
X18291535Y-9680000D01*
X18240735Y-9629200D01*
X18189935Y-9680000D01*
X18240735Y-9730800D01*
X18240735Y-9984800D02*
X18291535Y-9934000D01*
X18240735Y-9883200D01*
X18189935Y-9934000D01*
X18240735Y-9984800D01*
X18240735Y-10238800D02*
X18291535Y-10188000D01*
X18240735Y-10137200D01*
X18189935Y-10188000D01*
X18240735Y-10238800D01*
X18240735Y-10492800D02*
X18291535Y-10442000D01*
X18240735Y-10391200D01*
X18189935Y-10442000D01*
X18240735Y-10492800D01*
X18240735Y-10746800D02*
X18291535Y-10696000D01*
X18240735Y-10645200D01*
X18189935Y-10696000D01*
X18240735Y-10746800D01*
X18240735Y-11000800D02*
X18291535Y-10950000D01*
X18240735Y-10899200D01*
X18189935Y-10950000D01*
X18240735Y-11000800D01*
X18240735Y-11254800D02*
X18291535Y-11204000D01*
X18240735Y-11153200D01*
X18189935Y-11204000D01*
X18240735Y-11254800D01*
X18240735Y-11508800D02*
X18291535Y-11458000D01*
X18240735Y-11407200D01*
X18189935Y-11458000D01*
X18240735Y-11508800D01*
X18240735Y-11762800D02*
X18291535Y-11712000D01*
X18240735Y-11661200D01*
X18189935Y-11712000D01*
X18240735Y-11762800D01*
X18240735Y-12016800D02*
X18291535Y-11966000D01*
X18240735Y-11915200D01*
X18189935Y-11966000D01*
X18240735Y-12016800D01*
X18240735Y-12270800D02*
X18291535Y-12220000D01*
X18240735Y-12169200D01*
X18189935Y-12220000D01*
X18240735Y-12270800D01*
X18240735Y-12524800D02*
X18291535Y-12474000D01*
X18240735Y-12423200D01*
X18189935Y-12474000D01*
X18240735Y-12524800D01*
X18240735Y-12778800D02*
X18291535Y-12728000D01*
X18240735Y-12677200D01*
X18189935Y-12728000D01*
X18240735Y-12778800D01*
X18240735Y-13032800D02*
X18291535Y-12982000D01*
X18240735Y-12931200D01*
X18189935Y-12982000D01*
X18240735Y-13032800D01*
X18240735Y-13286800D02*
X18291535Y-13236000D01*
X18240735Y-13185200D01*
X18189935Y-13236000D01*
X18240735Y-13286800D01*
X18240735Y-13540800D02*
X18291535Y-13490000D01*
X18240735Y-13439200D01*
X18189935Y-13490000D01*
X18240735Y-13540800D01*
X18240735Y-13794800D02*
X18291535Y-13744000D01*
X18240735Y-13693200D01*
X18189935Y-13744000D01*
X18240735Y-13794800D01*
X18240735Y-14048800D02*
X18291535Y-13998000D01*
X18240735Y-13947200D01*
X18189935Y-13998000D01*
X18240735Y-14048800D01*
X18240735Y-14302800D02*
X18291535Y-14252000D01*
X18240735Y-14201200D01*
X18189935Y-14252000D01*
X18240735Y-14302800D01*
D14*
X6242750Y-4977000D02*
X6352750Y-5087000D01*
X6352750Y-4977000D02*
X6242750Y-5087000D01*
X6352750Y-5032000D02*
G75*
G02*
X6242750Y-5032000I-55000J0D01*
G01*
X6242750Y-5032000D02*
G75*
G02*
X6352750Y-5032000I55000J0D01*
G01*
X6496750Y-4977000D02*
X6606750Y-5087000D01*
X6606750Y-4977000D02*
X6496750Y-5087000D01*
X6606750Y-5032000D02*
G75*
G02*
X6496750Y-5032000I-55000J0D01*
G01*
X6496750Y-5032000D02*
G75*
G02*
X6606750Y-5032000I55000J0D01*
G01*
X6750750Y-4977000D02*
X6860750Y-5087000D01*
X6860750Y-4977000D02*
X6750750Y-5087000D01*
X6860750Y-5032000D02*
G75*
G02*
X6750750Y-5032000I-55000J0D01*
G01*
X6750750Y-5032000D02*
G75*
G02*
X6860750Y-5032000I55000J0D01*
G01*
X20555750Y-6582000D02*
X20665750Y-6692000D01*
X20665750Y-6582000D02*
X20555750Y-6692000D01*
X20665750Y-6637000D02*
G75*
G02*
X20555750Y-6637000I-55000J0D01*
G01*
X20555750Y-6637000D02*
G75*
G02*
X20665750Y-6637000I55000J0D01*
G01*
X21571750Y-6582000D02*
X21681750Y-6692000D01*
X21681750Y-6582000D02*
X21571750Y-6692000D01*
X21681750Y-6637000D02*
G75*
G02*
X21571750Y-6637000I-55000J0D01*
G01*
X21571750Y-6637000D02*
G75*
G02*
X21681750Y-6637000I55000J0D01*
G01*
D15*
X7958500Y-5295000D02*
X8078500Y-5415000D01*
X8078500Y-5295000D02*
X7958500Y-5415000D01*
X8018500Y-5295000D02*
X8018500Y-5415000D01*
X7958500Y-5355000D02*
X8078500Y-5355000D01*
X8466500Y-5295000D02*
X8586500Y-5415000D01*
X8586500Y-5295000D02*
X8466500Y-5415000D01*
X8526500Y-5295000D02*
X8526500Y-5415000D01*
X8466500Y-5355000D02*
X8586500Y-5355000D01*
X10235250Y-5295000D02*
X10355250Y-5415000D01*
X10355250Y-5295000D02*
X10235250Y-5415000D01*
X10295250Y-5295000D02*
X10295250Y-5415000D01*
X10235250Y-5355000D02*
X10355250Y-5355000D01*
X10743250Y-5295000D02*
X10863250Y-5415000D01*
X10863250Y-5295000D02*
X10743250Y-5415000D01*
X10803250Y-5295000D02*
X10803250Y-5415000D01*
X10743250Y-5355000D02*
X10863250Y-5355000D01*
X11251250Y-5295000D02*
X11371250Y-5415000D01*
X11371250Y-5295000D02*
X11251250Y-5415000D01*
X11311250Y-5295000D02*
X11311250Y-5415000D01*
X11251250Y-5355000D02*
X11371250Y-5355000D01*
X11759250Y-5295000D02*
X11879250Y-5415000D01*
X11879250Y-5295000D02*
X11759250Y-5415000D01*
X11819250Y-5295000D02*
X11819250Y-5415000D01*
X11759250Y-5355000D02*
X11879250Y-5355000D01*
X14016000Y-5295000D02*
X14136000Y-5415000D01*
X14136000Y-5295000D02*
X14016000Y-5415000D01*
X14076000Y-5295000D02*
X14076000Y-5415000D01*
X14016000Y-5355000D02*
X14136000Y-5355000D01*
X14524000Y-5295000D02*
X14644000Y-5415000D01*
X14644000Y-5295000D02*
X14524000Y-5415000D01*
X14584000Y-5295000D02*
X14584000Y-5415000D01*
X14524000Y-5355000D02*
X14644000Y-5355000D01*
X15032000Y-5295000D02*
X15152000Y-5415000D01*
X15152000Y-5295000D02*
X15032000Y-5415000D01*
X15092000Y-5295000D02*
X15092000Y-5415000D01*
X15032000Y-5355000D02*
X15152000Y-5355000D01*
X17034750Y-5295000D02*
X17154750Y-5415000D01*
X17154750Y-5295000D02*
X17034750Y-5415000D01*
X17094750Y-5295000D02*
X17094750Y-5415000D01*
X17034750Y-5355000D02*
X17154750Y-5355000D01*
X17542750Y-5295000D02*
X17662750Y-5415000D01*
X17662750Y-5295000D02*
X17542750Y-5415000D01*
X17602750Y-5295000D02*
X17602750Y-5415000D01*
X17542750Y-5355000D02*
X17662750Y-5355000D01*
X18050750Y-5295000D02*
X18170750Y-5415000D01*
X18170750Y-5295000D02*
X18050750Y-5415000D01*
X18110750Y-5295000D02*
X18110750Y-5415000D01*
X18050750Y-5355000D02*
X18170750Y-5355000D01*
X18558750Y-5295000D02*
X18678750Y-5415000D01*
X18678750Y-5295000D02*
X18558750Y-5415000D01*
X18618750Y-5295000D02*
X18618750Y-5415000D01*
X18558750Y-5355000D02*
X18678750Y-5355000D01*
X20489000Y-5292250D02*
X20609000Y-5412250D01*
X20609000Y-5292250D02*
X20489000Y-5412250D01*
X20549000Y-5292250D02*
X20549000Y-5412250D01*
X20489000Y-5352250D02*
X20609000Y-5352250D01*
X20997000Y-5292250D02*
X21117000Y-5412250D01*
X21117000Y-5292250D02*
X20997000Y-5412250D01*
X21057000Y-5292250D02*
X21057000Y-5412250D01*
X20997000Y-5352250D02*
X21117000Y-5352250D01*
X21505000Y-5292250D02*
X21625000Y-5412250D01*
X21625000Y-5292250D02*
X21505000Y-5412250D01*
X21565000Y-5292250D02*
X21565000Y-5412250D01*
X21505000Y-5352250D02*
X21625000Y-5352250D01*
X22013000Y-5292250D02*
X22133000Y-5412250D01*
X22133000Y-5292250D02*
X22013000Y-5412250D01*
X22073000Y-5292250D02*
X22073000Y-5412250D01*
X22013000Y-5352250D02*
X22133000Y-5352250D01*
D11*
X5360027Y-15525984D02*
X5360027Y-15325984D01*
X5360027Y-15325984D02*
X5407646Y-15325984D01*
X5407646Y-15325984D02*
X5436217Y-15335508D01*
X5436217Y-15335508D02*
X5455265Y-15354555D01*
X5455265Y-15354555D02*
X5464789Y-15373603D01*
X5464789Y-15373603D02*
X5474313Y-15411698D01*
X5474313Y-15411698D02*
X5474313Y-15440269D01*
X5474313Y-15440269D02*
X5464789Y-15478365D01*
X5464789Y-15478365D02*
X5455265Y-15497412D01*
X5455265Y-15497412D02*
X5436217Y-15516460D01*
X5436217Y-15516460D02*
X5407646Y-15525984D01*
X5407646Y-15525984D02*
X5360027Y-15525984D01*
X5560027Y-15525984D02*
X5560027Y-15392650D01*
X5560027Y-15430746D02*
X5569551Y-15411698D01*
X5569551Y-15411698D02*
X5579074Y-15402174D01*
X5579074Y-15402174D02*
X5598122Y-15392650D01*
X5598122Y-15392650D02*
X5617170Y-15392650D01*
X5683836Y-15525984D02*
X5683836Y-15392650D01*
X5683836Y-15325984D02*
X5674312Y-15335508D01*
X5674312Y-15335508D02*
X5683836Y-15345031D01*
X5683836Y-15345031D02*
X5693360Y-15335508D01*
X5693360Y-15335508D02*
X5683836Y-15325984D01*
X5683836Y-15325984D02*
X5683836Y-15345031D01*
X5807646Y-15525984D02*
X5788598Y-15516460D01*
X5788598Y-15516460D02*
X5779074Y-15497412D01*
X5779074Y-15497412D02*
X5779074Y-15325984D01*
X5912408Y-15525984D02*
X5893360Y-15516460D01*
X5893360Y-15516460D02*
X5883836Y-15497412D01*
X5883836Y-15497412D02*
X5883836Y-15325984D01*
X6140979Y-15525984D02*
X6140979Y-15325984D01*
X6140979Y-15325984D02*
X6207646Y-15468841D01*
X6207646Y-15468841D02*
X6274312Y-15325984D01*
X6274312Y-15325984D02*
X6274312Y-15525984D01*
X6455265Y-15525984D02*
X6455265Y-15421222D01*
X6455265Y-15421222D02*
X6445741Y-15402174D01*
X6445741Y-15402174D02*
X6426693Y-15392650D01*
X6426693Y-15392650D02*
X6388598Y-15392650D01*
X6388598Y-15392650D02*
X6369551Y-15402174D01*
X6455265Y-15516460D02*
X6436217Y-15525984D01*
X6436217Y-15525984D02*
X6388598Y-15525984D01*
X6388598Y-15525984D02*
X6369551Y-15516460D01*
X6369551Y-15516460D02*
X6360027Y-15497412D01*
X6360027Y-15497412D02*
X6360027Y-15478365D01*
X6360027Y-15478365D02*
X6369551Y-15459317D01*
X6369551Y-15459317D02*
X6388598Y-15449793D01*
X6388598Y-15449793D02*
X6436217Y-15449793D01*
X6436217Y-15449793D02*
X6455265Y-15440269D01*
X6550503Y-15392650D02*
X6550503Y-15592650D01*
X6550503Y-15402174D02*
X6569551Y-15392650D01*
X6569551Y-15392650D02*
X6607646Y-15392650D01*
X6607646Y-15392650D02*
X6626693Y-15402174D01*
X6626693Y-15402174D02*
X6636217Y-15411698D01*
X6636217Y-15411698D02*
X6645741Y-15430746D01*
X6645741Y-15430746D02*
X6645741Y-15487888D01*
X6645741Y-15487888D02*
X6636217Y-15506936D01*
X6636217Y-15506936D02*
X6626693Y-15516460D01*
X6626693Y-15516460D02*
X6607646Y-15525984D01*
X6607646Y-15525984D02*
X6569551Y-15525984D01*
X6569551Y-15525984D02*
X6550503Y-15516460D01*
X6731455Y-15506936D02*
X6740979Y-15516460D01*
X6740979Y-15516460D02*
X6731455Y-15525984D01*
X6731455Y-15525984D02*
X6721932Y-15516460D01*
X6721932Y-15516460D02*
X6731455Y-15506936D01*
X6731455Y-15506936D02*
X6731455Y-15525984D01*
X6731455Y-15402174D02*
X6740979Y-15411698D01*
X6740979Y-15411698D02*
X6731455Y-15421222D01*
X6731455Y-15421222D02*
X6721932Y-15411698D01*
X6721932Y-15411698D02*
X6731455Y-15402174D01*
X6731455Y-15402174D02*
X6731455Y-15421222D01*
D12*
X5049250Y-15829500D02*
X5099250Y-15879500D01*
X5099250Y-15829500D02*
X5049250Y-15879500D01*
D11*
X5398122Y-15745984D02*
X5417170Y-15745984D01*
X5417170Y-15745984D02*
X5436217Y-15755508D01*
X5436217Y-15755508D02*
X5445741Y-15765031D01*
X5445741Y-15765031D02*
X5455265Y-15784079D01*
X5455265Y-15784079D02*
X5464789Y-15822174D01*
X5464789Y-15822174D02*
X5464789Y-15869793D01*
X5464789Y-15869793D02*
X5455265Y-15907888D01*
X5455265Y-15907888D02*
X5445741Y-15926936D01*
X5445741Y-15926936D02*
X5436217Y-15936460D01*
X5436217Y-15936460D02*
X5417170Y-15945984D01*
X5417170Y-15945984D02*
X5398122Y-15945984D01*
X5398122Y-15945984D02*
X5379074Y-15936460D01*
X5379074Y-15936460D02*
X5369551Y-15926936D01*
X5369551Y-15926936D02*
X5360027Y-15907888D01*
X5360027Y-15907888D02*
X5350503Y-15869793D01*
X5350503Y-15869793D02*
X5350503Y-15822174D01*
X5350503Y-15822174D02*
X5360027Y-15784079D01*
X5360027Y-15784079D02*
X5369551Y-15765031D01*
X5369551Y-15765031D02*
X5379074Y-15755508D01*
X5379074Y-15755508D02*
X5398122Y-15745984D01*
X5550503Y-15926936D02*
X5560027Y-15936460D01*
X5560027Y-15936460D02*
X5550503Y-15945984D01*
X5550503Y-15945984D02*
X5540979Y-15936460D01*
X5540979Y-15936460D02*
X5550503Y-15926936D01*
X5550503Y-15926936D02*
X5550503Y-15945984D01*
X5740979Y-15745984D02*
X5645741Y-15745984D01*
X5645741Y-15745984D02*
X5636217Y-15841222D01*
X5636217Y-15841222D02*
X5645741Y-15831698D01*
X5645741Y-15831698D02*
X5664789Y-15822174D01*
X5664789Y-15822174D02*
X5712408Y-15822174D01*
X5712408Y-15822174D02*
X5731455Y-15831698D01*
X5731455Y-15831698D02*
X5740979Y-15841222D01*
X5740979Y-15841222D02*
X5750503Y-15860269D01*
X5750503Y-15860269D02*
X5750503Y-15907888D01*
X5750503Y-15907888D02*
X5740979Y-15926936D01*
X5740979Y-15926936D02*
X5731455Y-15936460D01*
X5731455Y-15936460D02*
X5712408Y-15945984D01*
X5712408Y-15945984D02*
X5664789Y-15945984D01*
X5664789Y-15945984D02*
X5645741Y-15936460D01*
X5645741Y-15936460D02*
X5636217Y-15926936D01*
X5874312Y-15745984D02*
X5893360Y-15745984D01*
X5893360Y-15745984D02*
X5912408Y-15755508D01*
X5912408Y-15755508D02*
X5921932Y-15765031D01*
X5921932Y-15765031D02*
X5931455Y-15784079D01*
X5931455Y-15784079D02*
X5940979Y-15822174D01*
X5940979Y-15822174D02*
X5940979Y-15869793D01*
X5940979Y-15869793D02*
X5931455Y-15907888D01*
X5931455Y-15907888D02*
X5921932Y-15926936D01*
X5921932Y-15926936D02*
X5912408Y-15936460D01*
X5912408Y-15936460D02*
X5893360Y-15945984D01*
X5893360Y-15945984D02*
X5874312Y-15945984D01*
X5874312Y-15945984D02*
X5855265Y-15936460D01*
X5855265Y-15936460D02*
X5845741Y-15926936D01*
X5845741Y-15926936D02*
X5836217Y-15907888D01*
X5836217Y-15907888D02*
X5826693Y-15869793D01*
X5826693Y-15869793D02*
X5826693Y-15822174D01*
X5826693Y-15822174D02*
X5836217Y-15784079D01*
X5836217Y-15784079D02*
X5845741Y-15765031D01*
X5845741Y-15765031D02*
X5855265Y-15755508D01*
X5855265Y-15755508D02*
X5874312Y-15745984D01*
X6064789Y-15745984D02*
X6083836Y-15745984D01*
X6083836Y-15745984D02*
X6102884Y-15755508D01*
X6102884Y-15755508D02*
X6112408Y-15765031D01*
X6112408Y-15765031D02*
X6121932Y-15784079D01*
X6121932Y-15784079D02*
X6131455Y-15822174D01*
X6131455Y-15822174D02*
X6131455Y-15869793D01*
X6131455Y-15869793D02*
X6121932Y-15907888D01*
X6121932Y-15907888D02*
X6112408Y-15926936D01*
X6112408Y-15926936D02*
X6102884Y-15936460D01*
X6102884Y-15936460D02*
X6083836Y-15945984D01*
X6083836Y-15945984D02*
X6064789Y-15945984D01*
X6064789Y-15945984D02*
X6045741Y-15936460D01*
X6045741Y-15936460D02*
X6036217Y-15926936D01*
X6036217Y-15926936D02*
X6026693Y-15907888D01*
X6026693Y-15907888D02*
X6017170Y-15869793D01*
X6017170Y-15869793D02*
X6017170Y-15822174D01*
X6017170Y-15822174D02*
X6026693Y-15784079D01*
X6026693Y-15784079D02*
X6036217Y-15765031D01*
X6036217Y-15765031D02*
X6045741Y-15755508D01*
X6045741Y-15755508D02*
X6064789Y-15745984D01*
X6217170Y-15945984D02*
X6217170Y-15812650D01*
X6217170Y-15831698D02*
X6226693Y-15822174D01*
X6226693Y-15822174D02*
X6245741Y-15812650D01*
X6245741Y-15812650D02*
X6274313Y-15812650D01*
X6274313Y-15812650D02*
X6293360Y-15822174D01*
X6293360Y-15822174D02*
X6302884Y-15841222D01*
X6302884Y-15841222D02*
X6302884Y-15945984D01*
X6302884Y-15841222D02*
X6312408Y-15822174D01*
X6312408Y-15822174D02*
X6331455Y-15812650D01*
X6331455Y-15812650D02*
X6360027Y-15812650D01*
X6360027Y-15812650D02*
X6379074Y-15822174D01*
X6379074Y-15822174D02*
X6388598Y-15841222D01*
X6388598Y-15841222D02*
X6388598Y-15945984D01*
X6483836Y-15945984D02*
X6483836Y-15812650D01*
X6483836Y-15831698D02*
X6493360Y-15822174D01*
X6493360Y-15822174D02*
X6512408Y-15812650D01*
X6512408Y-15812650D02*
X6540979Y-15812650D01*
X6540979Y-15812650D02*
X6560027Y-15822174D01*
X6560027Y-15822174D02*
X6569551Y-15841222D01*
X6569551Y-15841222D02*
X6569551Y-15945984D01*
X6569551Y-15841222D02*
X6579074Y-15822174D01*
X6579074Y-15822174D02*
X6598122Y-15812650D01*
X6598122Y-15812650D02*
X6626693Y-15812650D01*
X6626693Y-15812650D02*
X6645741Y-15822174D01*
X6645741Y-15822174D02*
X6655265Y-15841222D01*
X6655265Y-15841222D02*
X6655265Y-15945984D01*
X7045741Y-15736460D02*
X6874313Y-15993603D01*
X7302884Y-15745984D02*
X7321932Y-15745984D01*
X7321932Y-15745984D02*
X7340979Y-15755508D01*
X7340979Y-15755508D02*
X7350503Y-15765031D01*
X7350503Y-15765031D02*
X7360027Y-15784079D01*
X7360027Y-15784079D02*
X7369551Y-15822174D01*
X7369551Y-15822174D02*
X7369551Y-15869793D01*
X7369551Y-15869793D02*
X7360027Y-15907888D01*
X7360027Y-15907888D02*
X7350503Y-15926936D01*
X7350503Y-15926936D02*
X7340979Y-15936460D01*
X7340979Y-15936460D02*
X7321932Y-15945984D01*
X7321932Y-15945984D02*
X7302884Y-15945984D01*
X7302884Y-15945984D02*
X7283836Y-15936460D01*
X7283836Y-15936460D02*
X7274313Y-15926936D01*
X7274313Y-15926936D02*
X7264789Y-15907888D01*
X7264789Y-15907888D02*
X7255265Y-15869793D01*
X7255265Y-15869793D02*
X7255265Y-15822174D01*
X7255265Y-15822174D02*
X7264789Y-15784079D01*
X7264789Y-15784079D02*
X7274313Y-15765031D01*
X7274313Y-15765031D02*
X7283836Y-15755508D01*
X7283836Y-15755508D02*
X7302884Y-15745984D01*
X7455265Y-15926936D02*
X7464789Y-15936460D01*
X7464789Y-15936460D02*
X7455265Y-15945984D01*
X7455265Y-15945984D02*
X7445741Y-15936460D01*
X7445741Y-15936460D02*
X7455265Y-15926936D01*
X7455265Y-15926936D02*
X7455265Y-15945984D01*
X7588598Y-15745984D02*
X7607646Y-15745984D01*
X7607646Y-15745984D02*
X7626694Y-15755508D01*
X7626694Y-15755508D02*
X7636217Y-15765031D01*
X7636217Y-15765031D02*
X7645741Y-15784079D01*
X7645741Y-15784079D02*
X7655265Y-15822174D01*
X7655265Y-15822174D02*
X7655265Y-15869793D01*
X7655265Y-15869793D02*
X7645741Y-15907888D01*
X7645741Y-15907888D02*
X7636217Y-15926936D01*
X7636217Y-15926936D02*
X7626694Y-15936460D01*
X7626694Y-15936460D02*
X7607646Y-15945984D01*
X7607646Y-15945984D02*
X7588598Y-15945984D01*
X7588598Y-15945984D02*
X7569551Y-15936460D01*
X7569551Y-15936460D02*
X7560027Y-15926936D01*
X7560027Y-15926936D02*
X7550503Y-15907888D01*
X7550503Y-15907888D02*
X7540979Y-15869793D01*
X7540979Y-15869793D02*
X7540979Y-15822174D01*
X7540979Y-15822174D02*
X7550503Y-15784079D01*
X7550503Y-15784079D02*
X7560027Y-15765031D01*
X7560027Y-15765031D02*
X7569551Y-15755508D01*
X7569551Y-15755508D02*
X7588598Y-15745984D01*
X7845741Y-15945984D02*
X7731456Y-15945984D01*
X7788598Y-15945984D02*
X7788598Y-15745984D01*
X7788598Y-15745984D02*
X7769551Y-15774555D01*
X7769551Y-15774555D02*
X7750503Y-15793603D01*
X7750503Y-15793603D02*
X7731456Y-15803127D01*
X7940979Y-15945984D02*
X7979075Y-15945984D01*
X7979075Y-15945984D02*
X7998122Y-15936460D01*
X7998122Y-15936460D02*
X8007646Y-15926936D01*
X8007646Y-15926936D02*
X8026694Y-15898365D01*
X8026694Y-15898365D02*
X8036217Y-15860269D01*
X8036217Y-15860269D02*
X8036217Y-15784079D01*
X8036217Y-15784079D02*
X8026694Y-15765031D01*
X8026694Y-15765031D02*
X8017170Y-15755508D01*
X8017170Y-15755508D02*
X7998122Y-15745984D01*
X7998122Y-15745984D02*
X7960027Y-15745984D01*
X7960027Y-15745984D02*
X7940979Y-15755508D01*
X7940979Y-15755508D02*
X7931456Y-15765031D01*
X7931456Y-15765031D02*
X7921932Y-15784079D01*
X7921932Y-15784079D02*
X7921932Y-15831698D01*
X7921932Y-15831698D02*
X7931456Y-15850746D01*
X7931456Y-15850746D02*
X7940979Y-15860269D01*
X7940979Y-15860269D02*
X7960027Y-15869793D01*
X7960027Y-15869793D02*
X7998122Y-15869793D01*
X7998122Y-15869793D02*
X8017170Y-15860269D01*
X8017170Y-15860269D02*
X8026694Y-15850746D01*
X8026694Y-15850746D02*
X8036217Y-15831698D01*
X8102884Y-15745984D02*
X8236217Y-15745984D01*
X8236217Y-15745984D02*
X8150503Y-15945984D01*
X8302884Y-15745984D02*
X8302884Y-15784079D01*
X8379075Y-15745984D02*
X8379075Y-15784079D01*
X8674313Y-16022174D02*
X8664789Y-16012650D01*
X8664789Y-16012650D02*
X8645741Y-15984079D01*
X8645741Y-15984079D02*
X8636218Y-15965031D01*
X8636218Y-15965031D02*
X8626694Y-15936460D01*
X8626694Y-15936460D02*
X8617170Y-15888841D01*
X8617170Y-15888841D02*
X8617170Y-15850746D01*
X8617170Y-15850746D02*
X8626694Y-15803127D01*
X8626694Y-15803127D02*
X8636218Y-15774555D01*
X8636218Y-15774555D02*
X8645741Y-15755508D01*
X8645741Y-15755508D02*
X8664789Y-15726936D01*
X8664789Y-15726936D02*
X8674313Y-15717412D01*
X8740980Y-15765031D02*
X8750503Y-15755508D01*
X8750503Y-15755508D02*
X8769551Y-15745984D01*
X8769551Y-15745984D02*
X8817170Y-15745984D01*
X8817170Y-15745984D02*
X8836218Y-15755508D01*
X8836218Y-15755508D02*
X8845741Y-15765031D01*
X8845741Y-15765031D02*
X8855265Y-15784079D01*
X8855265Y-15784079D02*
X8855265Y-15803127D01*
X8855265Y-15803127D02*
X8845741Y-15831698D01*
X8845741Y-15831698D02*
X8731456Y-15945984D01*
X8731456Y-15945984D02*
X8855265Y-15945984D01*
X8969551Y-15831698D02*
X8950503Y-15822174D01*
X8950503Y-15822174D02*
X8940980Y-15812650D01*
X8940980Y-15812650D02*
X8931456Y-15793603D01*
X8931456Y-15793603D02*
X8931456Y-15784079D01*
X8931456Y-15784079D02*
X8940980Y-15765031D01*
X8940980Y-15765031D02*
X8950503Y-15755508D01*
X8950503Y-15755508D02*
X8969551Y-15745984D01*
X8969551Y-15745984D02*
X9007646Y-15745984D01*
X9007646Y-15745984D02*
X9026694Y-15755508D01*
X9026694Y-15755508D02*
X9036218Y-15765031D01*
X9036218Y-15765031D02*
X9045741Y-15784079D01*
X9045741Y-15784079D02*
X9045741Y-15793603D01*
X9045741Y-15793603D02*
X9036218Y-15812650D01*
X9036218Y-15812650D02*
X9026694Y-15822174D01*
X9026694Y-15822174D02*
X9007646Y-15831698D01*
X9007646Y-15831698D02*
X8969551Y-15831698D01*
X8969551Y-15831698D02*
X8950503Y-15841222D01*
X8950503Y-15841222D02*
X8940980Y-15850746D01*
X8940980Y-15850746D02*
X8931456Y-15869793D01*
X8931456Y-15869793D02*
X8931456Y-15907888D01*
X8931456Y-15907888D02*
X8940980Y-15926936D01*
X8940980Y-15926936D02*
X8950503Y-15936460D01*
X8950503Y-15936460D02*
X8969551Y-15945984D01*
X8969551Y-15945984D02*
X9007646Y-15945984D01*
X9007646Y-15945984D02*
X9026694Y-15936460D01*
X9026694Y-15936460D02*
X9036218Y-15926936D01*
X9036218Y-15926936D02*
X9045741Y-15907888D01*
X9045741Y-15907888D02*
X9045741Y-15869793D01*
X9045741Y-15869793D02*
X9036218Y-15850746D01*
X9036218Y-15850746D02*
X9026694Y-15841222D01*
X9026694Y-15841222D02*
X9007646Y-15831698D01*
X9283837Y-15945984D02*
X9283837Y-15745984D01*
X9369551Y-15945984D02*
X9369551Y-15841222D01*
X9369551Y-15841222D02*
X9360027Y-15822174D01*
X9360027Y-15822174D02*
X9340980Y-15812650D01*
X9340980Y-15812650D02*
X9312408Y-15812650D01*
X9312408Y-15812650D02*
X9293361Y-15822174D01*
X9293361Y-15822174D02*
X9283837Y-15831698D01*
X9493361Y-15945984D02*
X9474313Y-15936460D01*
X9474313Y-15936460D02*
X9464789Y-15926936D01*
X9464789Y-15926936D02*
X9455265Y-15907888D01*
X9455265Y-15907888D02*
X9455265Y-15850746D01*
X9455265Y-15850746D02*
X9464789Y-15831698D01*
X9464789Y-15831698D02*
X9474313Y-15822174D01*
X9474313Y-15822174D02*
X9493361Y-15812650D01*
X9493361Y-15812650D02*
X9521932Y-15812650D01*
X9521932Y-15812650D02*
X9540980Y-15822174D01*
X9540980Y-15822174D02*
X9550503Y-15831698D01*
X9550503Y-15831698D02*
X9560027Y-15850746D01*
X9560027Y-15850746D02*
X9560027Y-15907888D01*
X9560027Y-15907888D02*
X9550503Y-15926936D01*
X9550503Y-15926936D02*
X9540980Y-15936460D01*
X9540980Y-15936460D02*
X9521932Y-15945984D01*
X9521932Y-15945984D02*
X9493361Y-15945984D01*
X9674313Y-15945984D02*
X9655265Y-15936460D01*
X9655265Y-15936460D02*
X9645742Y-15917412D01*
X9645742Y-15917412D02*
X9645742Y-15745984D01*
X9826694Y-15936460D02*
X9807646Y-15945984D01*
X9807646Y-15945984D02*
X9769551Y-15945984D01*
X9769551Y-15945984D02*
X9750503Y-15936460D01*
X9750503Y-15936460D02*
X9740980Y-15917412D01*
X9740980Y-15917412D02*
X9740980Y-15841222D01*
X9740980Y-15841222D02*
X9750503Y-15822174D01*
X9750503Y-15822174D02*
X9769551Y-15812650D01*
X9769551Y-15812650D02*
X9807646Y-15812650D01*
X9807646Y-15812650D02*
X9826694Y-15822174D01*
X9826694Y-15822174D02*
X9836218Y-15841222D01*
X9836218Y-15841222D02*
X9836218Y-15860269D01*
X9836218Y-15860269D02*
X9740980Y-15879317D01*
X9912408Y-15936460D02*
X9931456Y-15945984D01*
X9931456Y-15945984D02*
X9969551Y-15945984D01*
X9969551Y-15945984D02*
X9988599Y-15936460D01*
X9988599Y-15936460D02*
X9998123Y-15917412D01*
X9998123Y-15917412D02*
X9998123Y-15907888D01*
X9998123Y-15907888D02*
X9988599Y-15888841D01*
X9988599Y-15888841D02*
X9969551Y-15879317D01*
X9969551Y-15879317D02*
X9940980Y-15879317D01*
X9940980Y-15879317D02*
X9921932Y-15869793D01*
X9921932Y-15869793D02*
X9912408Y-15850746D01*
X9912408Y-15850746D02*
X9912408Y-15841222D01*
X9912408Y-15841222D02*
X9921932Y-15822174D01*
X9921932Y-15822174D02*
X9940980Y-15812650D01*
X9940980Y-15812650D02*
X9969551Y-15812650D01*
X9969551Y-15812650D02*
X9988599Y-15822174D01*
X10064789Y-16022174D02*
X10074313Y-16012650D01*
X10074313Y-16012650D02*
X10093361Y-15984079D01*
X10093361Y-15984079D02*
X10102884Y-15965031D01*
X10102884Y-15965031D02*
X10112408Y-15936460D01*
X10112408Y-15936460D02*
X10121932Y-15888841D01*
X10121932Y-15888841D02*
X10121932Y-15850746D01*
X10121932Y-15850746D02*
X10112408Y-15803127D01*
X10112408Y-15803127D02*
X10102884Y-15774555D01*
X10102884Y-15774555D02*
X10093361Y-15755508D01*
X10093361Y-15755508D02*
X10074313Y-15726936D01*
X10074313Y-15726936D02*
X10064789Y-15717412D01*
D12*
X5099250Y-16118500D02*
G75*
G02*
X5019250Y-16118500I-40000J0D01*
G01*
X5019250Y-16118500D02*
G75*
G02*
X5099250Y-16118500I40000J0D01*
G01*
D11*
X5398122Y-16009984D02*
X5417170Y-16009984D01*
X5417170Y-16009984D02*
X5436217Y-16019508D01*
X5436217Y-16019508D02*
X5445741Y-16029031D01*
X5445741Y-16029031D02*
X5455265Y-16048079D01*
X5455265Y-16048079D02*
X5464789Y-16086174D01*
X5464789Y-16086174D02*
X5464789Y-16133793D01*
X5464789Y-16133793D02*
X5455265Y-16171888D01*
X5455265Y-16171888D02*
X5445741Y-16190936D01*
X5445741Y-16190936D02*
X5436217Y-16200460D01*
X5436217Y-16200460D02*
X5417170Y-16209984D01*
X5417170Y-16209984D02*
X5398122Y-16209984D01*
X5398122Y-16209984D02*
X5379074Y-16200460D01*
X5379074Y-16200460D02*
X5369551Y-16190936D01*
X5369551Y-16190936D02*
X5360027Y-16171888D01*
X5360027Y-16171888D02*
X5350503Y-16133793D01*
X5350503Y-16133793D02*
X5350503Y-16086174D01*
X5350503Y-16086174D02*
X5360027Y-16048079D01*
X5360027Y-16048079D02*
X5369551Y-16029031D01*
X5369551Y-16029031D02*
X5379074Y-16019508D01*
X5379074Y-16019508D02*
X5398122Y-16009984D01*
X5550503Y-16190936D02*
X5560027Y-16200460D01*
X5560027Y-16200460D02*
X5550503Y-16209984D01*
X5550503Y-16209984D02*
X5540979Y-16200460D01*
X5540979Y-16200460D02*
X5550503Y-16190936D01*
X5550503Y-16190936D02*
X5550503Y-16209984D01*
X5674312Y-16095698D02*
X5655265Y-16086174D01*
X5655265Y-16086174D02*
X5645741Y-16076650D01*
X5645741Y-16076650D02*
X5636217Y-16057603D01*
X5636217Y-16057603D02*
X5636217Y-16048079D01*
X5636217Y-16048079D02*
X5645741Y-16029031D01*
X5645741Y-16029031D02*
X5655265Y-16019508D01*
X5655265Y-16019508D02*
X5674312Y-16009984D01*
X5674312Y-16009984D02*
X5712408Y-16009984D01*
X5712408Y-16009984D02*
X5731455Y-16019508D01*
X5731455Y-16019508D02*
X5740979Y-16029031D01*
X5740979Y-16029031D02*
X5750503Y-16048079D01*
X5750503Y-16048079D02*
X5750503Y-16057603D01*
X5750503Y-16057603D02*
X5740979Y-16076650D01*
X5740979Y-16076650D02*
X5731455Y-16086174D01*
X5731455Y-16086174D02*
X5712408Y-16095698D01*
X5712408Y-16095698D02*
X5674312Y-16095698D01*
X5674312Y-16095698D02*
X5655265Y-16105222D01*
X5655265Y-16105222D02*
X5645741Y-16114746D01*
X5645741Y-16114746D02*
X5636217Y-16133793D01*
X5636217Y-16133793D02*
X5636217Y-16171888D01*
X5636217Y-16171888D02*
X5645741Y-16190936D01*
X5645741Y-16190936D02*
X5655265Y-16200460D01*
X5655265Y-16200460D02*
X5674312Y-16209984D01*
X5674312Y-16209984D02*
X5712408Y-16209984D01*
X5712408Y-16209984D02*
X5731455Y-16200460D01*
X5731455Y-16200460D02*
X5740979Y-16190936D01*
X5740979Y-16190936D02*
X5750503Y-16171888D01*
X5750503Y-16171888D02*
X5750503Y-16133793D01*
X5750503Y-16133793D02*
X5740979Y-16114746D01*
X5740979Y-16114746D02*
X5731455Y-16105222D01*
X5731455Y-16105222D02*
X5712408Y-16095698D01*
X5874312Y-16009984D02*
X5893360Y-16009984D01*
X5893360Y-16009984D02*
X5912408Y-16019508D01*
X5912408Y-16019508D02*
X5921932Y-16029031D01*
X5921932Y-16029031D02*
X5931455Y-16048079D01*
X5931455Y-16048079D02*
X5940979Y-16086174D01*
X5940979Y-16086174D02*
X5940979Y-16133793D01*
X5940979Y-16133793D02*
X5931455Y-16171888D01*
X5931455Y-16171888D02*
X5921932Y-16190936D01*
X5921932Y-16190936D02*
X5912408Y-16200460D01*
X5912408Y-16200460D02*
X5893360Y-16209984D01*
X5893360Y-16209984D02*
X5874312Y-16209984D01*
X5874312Y-16209984D02*
X5855265Y-16200460D01*
X5855265Y-16200460D02*
X5845741Y-16190936D01*
X5845741Y-16190936D02*
X5836217Y-16171888D01*
X5836217Y-16171888D02*
X5826693Y-16133793D01*
X5826693Y-16133793D02*
X5826693Y-16086174D01*
X5826693Y-16086174D02*
X5836217Y-16048079D01*
X5836217Y-16048079D02*
X5845741Y-16029031D01*
X5845741Y-16029031D02*
X5855265Y-16019508D01*
X5855265Y-16019508D02*
X5874312Y-16009984D01*
X6064789Y-16009984D02*
X6083836Y-16009984D01*
X6083836Y-16009984D02*
X6102884Y-16019508D01*
X6102884Y-16019508D02*
X6112408Y-16029031D01*
X6112408Y-16029031D02*
X6121932Y-16048079D01*
X6121932Y-16048079D02*
X6131455Y-16086174D01*
X6131455Y-16086174D02*
X6131455Y-16133793D01*
X6131455Y-16133793D02*
X6121932Y-16171888D01*
X6121932Y-16171888D02*
X6112408Y-16190936D01*
X6112408Y-16190936D02*
X6102884Y-16200460D01*
X6102884Y-16200460D02*
X6083836Y-16209984D01*
X6083836Y-16209984D02*
X6064789Y-16209984D01*
X6064789Y-16209984D02*
X6045741Y-16200460D01*
X6045741Y-16200460D02*
X6036217Y-16190936D01*
X6036217Y-16190936D02*
X6026693Y-16171888D01*
X6026693Y-16171888D02*
X6017170Y-16133793D01*
X6017170Y-16133793D02*
X6017170Y-16086174D01*
X6017170Y-16086174D02*
X6026693Y-16048079D01*
X6026693Y-16048079D02*
X6036217Y-16029031D01*
X6036217Y-16029031D02*
X6045741Y-16019508D01*
X6045741Y-16019508D02*
X6064789Y-16009984D01*
X6217170Y-16209984D02*
X6217170Y-16076650D01*
X6217170Y-16095698D02*
X6226693Y-16086174D01*
X6226693Y-16086174D02*
X6245741Y-16076650D01*
X6245741Y-16076650D02*
X6274313Y-16076650D01*
X6274313Y-16076650D02*
X6293360Y-16086174D01*
X6293360Y-16086174D02*
X6302884Y-16105222D01*
X6302884Y-16105222D02*
X6302884Y-16209984D01*
X6302884Y-16105222D02*
X6312408Y-16086174D01*
X6312408Y-16086174D02*
X6331455Y-16076650D01*
X6331455Y-16076650D02*
X6360027Y-16076650D01*
X6360027Y-16076650D02*
X6379074Y-16086174D01*
X6379074Y-16086174D02*
X6388598Y-16105222D01*
X6388598Y-16105222D02*
X6388598Y-16209984D01*
X6483836Y-16209984D02*
X6483836Y-16076650D01*
X6483836Y-16095698D02*
X6493360Y-16086174D01*
X6493360Y-16086174D02*
X6512408Y-16076650D01*
X6512408Y-16076650D02*
X6540979Y-16076650D01*
X6540979Y-16076650D02*
X6560027Y-16086174D01*
X6560027Y-16086174D02*
X6569551Y-16105222D01*
X6569551Y-16105222D02*
X6569551Y-16209984D01*
X6569551Y-16105222D02*
X6579074Y-16086174D01*
X6579074Y-16086174D02*
X6598122Y-16076650D01*
X6598122Y-16076650D02*
X6626693Y-16076650D01*
X6626693Y-16076650D02*
X6645741Y-16086174D01*
X6645741Y-16086174D02*
X6655265Y-16105222D01*
X6655265Y-16105222D02*
X6655265Y-16209984D01*
X7045741Y-16000460D02*
X6874313Y-16257603D01*
X7302884Y-16009984D02*
X7321932Y-16009984D01*
X7321932Y-16009984D02*
X7340979Y-16019508D01*
X7340979Y-16019508D02*
X7350503Y-16029031D01*
X7350503Y-16029031D02*
X7360027Y-16048079D01*
X7360027Y-16048079D02*
X7369551Y-16086174D01*
X7369551Y-16086174D02*
X7369551Y-16133793D01*
X7369551Y-16133793D02*
X7360027Y-16171888D01*
X7360027Y-16171888D02*
X7350503Y-16190936D01*
X7350503Y-16190936D02*
X7340979Y-16200460D01*
X7340979Y-16200460D02*
X7321932Y-16209984D01*
X7321932Y-16209984D02*
X7302884Y-16209984D01*
X7302884Y-16209984D02*
X7283836Y-16200460D01*
X7283836Y-16200460D02*
X7274313Y-16190936D01*
X7274313Y-16190936D02*
X7264789Y-16171888D01*
X7264789Y-16171888D02*
X7255265Y-16133793D01*
X7255265Y-16133793D02*
X7255265Y-16086174D01*
X7255265Y-16086174D02*
X7264789Y-16048079D01*
X7264789Y-16048079D02*
X7274313Y-16029031D01*
X7274313Y-16029031D02*
X7283836Y-16019508D01*
X7283836Y-16019508D02*
X7302884Y-16009984D01*
X7455265Y-16190936D02*
X7464789Y-16200460D01*
X7464789Y-16200460D02*
X7455265Y-16209984D01*
X7455265Y-16209984D02*
X7445741Y-16200460D01*
X7445741Y-16200460D02*
X7455265Y-16190936D01*
X7455265Y-16190936D02*
X7455265Y-16209984D01*
X7588598Y-16009984D02*
X7607646Y-16009984D01*
X7607646Y-16009984D02*
X7626694Y-16019508D01*
X7626694Y-16019508D02*
X7636217Y-16029031D01*
X7636217Y-16029031D02*
X7645741Y-16048079D01*
X7645741Y-16048079D02*
X7655265Y-16086174D01*
X7655265Y-16086174D02*
X7655265Y-16133793D01*
X7655265Y-16133793D02*
X7645741Y-16171888D01*
X7645741Y-16171888D02*
X7636217Y-16190936D01*
X7636217Y-16190936D02*
X7626694Y-16200460D01*
X7626694Y-16200460D02*
X7607646Y-16209984D01*
X7607646Y-16209984D02*
X7588598Y-16209984D01*
X7588598Y-16209984D02*
X7569551Y-16200460D01*
X7569551Y-16200460D02*
X7560027Y-16190936D01*
X7560027Y-16190936D02*
X7550503Y-16171888D01*
X7550503Y-16171888D02*
X7540979Y-16133793D01*
X7540979Y-16133793D02*
X7540979Y-16086174D01*
X7540979Y-16086174D02*
X7550503Y-16048079D01*
X7550503Y-16048079D02*
X7560027Y-16029031D01*
X7560027Y-16029031D02*
X7569551Y-16019508D01*
X7569551Y-16019508D02*
X7588598Y-16009984D01*
X7721932Y-16009984D02*
X7845741Y-16009984D01*
X7845741Y-16009984D02*
X7779075Y-16086174D01*
X7779075Y-16086174D02*
X7807646Y-16086174D01*
X7807646Y-16086174D02*
X7826694Y-16095698D01*
X7826694Y-16095698D02*
X7836217Y-16105222D01*
X7836217Y-16105222D02*
X7845741Y-16124269D01*
X7845741Y-16124269D02*
X7845741Y-16171888D01*
X7845741Y-16171888D02*
X7836217Y-16190936D01*
X7836217Y-16190936D02*
X7826694Y-16200460D01*
X7826694Y-16200460D02*
X7807646Y-16209984D01*
X7807646Y-16209984D02*
X7750503Y-16209984D01*
X7750503Y-16209984D02*
X7731456Y-16200460D01*
X7731456Y-16200460D02*
X7721932Y-16190936D01*
X8036217Y-16209984D02*
X7921932Y-16209984D01*
X7979075Y-16209984D02*
X7979075Y-16009984D01*
X7979075Y-16009984D02*
X7960027Y-16038555D01*
X7960027Y-16038555D02*
X7940979Y-16057603D01*
X7940979Y-16057603D02*
X7921932Y-16067127D01*
X8217170Y-16009984D02*
X8121932Y-16009984D01*
X8121932Y-16009984D02*
X8112408Y-16105222D01*
X8112408Y-16105222D02*
X8121932Y-16095698D01*
X8121932Y-16095698D02*
X8140979Y-16086174D01*
X8140979Y-16086174D02*
X8188598Y-16086174D01*
X8188598Y-16086174D02*
X8207646Y-16095698D01*
X8207646Y-16095698D02*
X8217170Y-16105222D01*
X8217170Y-16105222D02*
X8226694Y-16124269D01*
X8226694Y-16124269D02*
X8226694Y-16171888D01*
X8226694Y-16171888D02*
X8217170Y-16190936D01*
X8217170Y-16190936D02*
X8207646Y-16200460D01*
X8207646Y-16200460D02*
X8188598Y-16209984D01*
X8188598Y-16209984D02*
X8140979Y-16209984D01*
X8140979Y-16209984D02*
X8121932Y-16200460D01*
X8121932Y-16200460D02*
X8112408Y-16190936D01*
X8302884Y-16009984D02*
X8302884Y-16048079D01*
X8379075Y-16009984D02*
X8379075Y-16048079D01*
X8674313Y-16286174D02*
X8664789Y-16276650D01*
X8664789Y-16276650D02*
X8645741Y-16248079D01*
X8645741Y-16248079D02*
X8636218Y-16229031D01*
X8636218Y-16229031D02*
X8626694Y-16200460D01*
X8626694Y-16200460D02*
X8617170Y-16152841D01*
X8617170Y-16152841D02*
X8617170Y-16114746D01*
X8617170Y-16114746D02*
X8626694Y-16067127D01*
X8626694Y-16067127D02*
X8636218Y-16038555D01*
X8636218Y-16038555D02*
X8645741Y-16019508D01*
X8645741Y-16019508D02*
X8664789Y-15990936D01*
X8664789Y-15990936D02*
X8674313Y-15981412D01*
X8855265Y-16209984D02*
X8740980Y-16209984D01*
X8798122Y-16209984D02*
X8798122Y-16009984D01*
X8798122Y-16009984D02*
X8779075Y-16038555D01*
X8779075Y-16038555D02*
X8760027Y-16057603D01*
X8760027Y-16057603D02*
X8740980Y-16067127D01*
X8979075Y-16009984D02*
X8998122Y-16009984D01*
X8998122Y-16009984D02*
X9017170Y-16019508D01*
X9017170Y-16019508D02*
X9026694Y-16029031D01*
X9026694Y-16029031D02*
X9036218Y-16048079D01*
X9036218Y-16048079D02*
X9045741Y-16086174D01*
X9045741Y-16086174D02*
X9045741Y-16133793D01*
X9045741Y-16133793D02*
X9036218Y-16171888D01*
X9036218Y-16171888D02*
X9026694Y-16190936D01*
X9026694Y-16190936D02*
X9017170Y-16200460D01*
X9017170Y-16200460D02*
X8998122Y-16209984D01*
X8998122Y-16209984D02*
X8979075Y-16209984D01*
X8979075Y-16209984D02*
X8960027Y-16200460D01*
X8960027Y-16200460D02*
X8950503Y-16190936D01*
X8950503Y-16190936D02*
X8940980Y-16171888D01*
X8940980Y-16171888D02*
X8931456Y-16133793D01*
X8931456Y-16133793D02*
X8931456Y-16086174D01*
X8931456Y-16086174D02*
X8940980Y-16048079D01*
X8940980Y-16048079D02*
X8950503Y-16029031D01*
X8950503Y-16029031D02*
X8960027Y-16019508D01*
X8960027Y-16019508D02*
X8979075Y-16009984D01*
X9283837Y-16209984D02*
X9283837Y-16009984D01*
X9369551Y-16209984D02*
X9369551Y-16105222D01*
X9369551Y-16105222D02*
X9360027Y-16086174D01*
X9360027Y-16086174D02*
X9340980Y-16076650D01*
X9340980Y-16076650D02*
X9312408Y-16076650D01*
X9312408Y-16076650D02*
X9293361Y-16086174D01*
X9293361Y-16086174D02*
X9283837Y-16095698D01*
X9493361Y-16209984D02*
X9474313Y-16200460D01*
X9474313Y-16200460D02*
X9464789Y-16190936D01*
X9464789Y-16190936D02*
X9455265Y-16171888D01*
X9455265Y-16171888D02*
X9455265Y-16114746D01*
X9455265Y-16114746D02*
X9464789Y-16095698D01*
X9464789Y-16095698D02*
X9474313Y-16086174D01*
X9474313Y-16086174D02*
X9493361Y-16076650D01*
X9493361Y-16076650D02*
X9521932Y-16076650D01*
X9521932Y-16076650D02*
X9540980Y-16086174D01*
X9540980Y-16086174D02*
X9550503Y-16095698D01*
X9550503Y-16095698D02*
X9560027Y-16114746D01*
X9560027Y-16114746D02*
X9560027Y-16171888D01*
X9560027Y-16171888D02*
X9550503Y-16190936D01*
X9550503Y-16190936D02*
X9540980Y-16200460D01*
X9540980Y-16200460D02*
X9521932Y-16209984D01*
X9521932Y-16209984D02*
X9493361Y-16209984D01*
X9674313Y-16209984D02*
X9655265Y-16200460D01*
X9655265Y-16200460D02*
X9645742Y-16181412D01*
X9645742Y-16181412D02*
X9645742Y-16009984D01*
X9826694Y-16200460D02*
X9807646Y-16209984D01*
X9807646Y-16209984D02*
X9769551Y-16209984D01*
X9769551Y-16209984D02*
X9750503Y-16200460D01*
X9750503Y-16200460D02*
X9740980Y-16181412D01*
X9740980Y-16181412D02*
X9740980Y-16105222D01*
X9740980Y-16105222D02*
X9750503Y-16086174D01*
X9750503Y-16086174D02*
X9769551Y-16076650D01*
X9769551Y-16076650D02*
X9807646Y-16076650D01*
X9807646Y-16076650D02*
X9826694Y-16086174D01*
X9826694Y-16086174D02*
X9836218Y-16105222D01*
X9836218Y-16105222D02*
X9836218Y-16124269D01*
X9836218Y-16124269D02*
X9740980Y-16143317D01*
X9912408Y-16200460D02*
X9931456Y-16209984D01*
X9931456Y-16209984D02*
X9969551Y-16209984D01*
X9969551Y-16209984D02*
X9988599Y-16200460D01*
X9988599Y-16200460D02*
X9998123Y-16181412D01*
X9998123Y-16181412D02*
X9998123Y-16171888D01*
X9998123Y-16171888D02*
X9988599Y-16152841D01*
X9988599Y-16152841D02*
X9969551Y-16143317D01*
X9969551Y-16143317D02*
X9940980Y-16143317D01*
X9940980Y-16143317D02*
X9921932Y-16133793D01*
X9921932Y-16133793D02*
X9912408Y-16114746D01*
X9912408Y-16114746D02*
X9912408Y-16105222D01*
X9912408Y-16105222D02*
X9921932Y-16086174D01*
X9921932Y-16086174D02*
X9940980Y-16076650D01*
X9940980Y-16076650D02*
X9969551Y-16076650D01*
X9969551Y-16076650D02*
X9988599Y-16086174D01*
X10064789Y-16286174D02*
X10074313Y-16276650D01*
X10074313Y-16276650D02*
X10093361Y-16248079D01*
X10093361Y-16248079D02*
X10102884Y-16229031D01*
X10102884Y-16229031D02*
X10112408Y-16200460D01*
X10112408Y-16200460D02*
X10121932Y-16152841D01*
X10121932Y-16152841D02*
X10121932Y-16114746D01*
X10121932Y-16114746D02*
X10112408Y-16067127D01*
X10112408Y-16067127D02*
X10102884Y-16038555D01*
X10102884Y-16038555D02*
X10093361Y-16019508D01*
X10093361Y-16019508D02*
X10074313Y-15990936D01*
X10074313Y-15990936D02*
X10064789Y-15981412D01*
D12*
X5054250Y-16337500D02*
X5054250Y-16427500D01*
X5009250Y-16382500D02*
X5099250Y-16382500D01*
D11*
X5398122Y-16273984D02*
X5417170Y-16273984D01*
X5417170Y-16273984D02*
X5436217Y-16283508D01*
X5436217Y-16283508D02*
X5445741Y-16293031D01*
X5445741Y-16293031D02*
X5455265Y-16312079D01*
X5455265Y-16312079D02*
X5464789Y-16350174D01*
X5464789Y-16350174D02*
X5464789Y-16397793D01*
X5464789Y-16397793D02*
X5455265Y-16435888D01*
X5455265Y-16435888D02*
X5445741Y-16454936D01*
X5445741Y-16454936D02*
X5436217Y-16464460D01*
X5436217Y-16464460D02*
X5417170Y-16473984D01*
X5417170Y-16473984D02*
X5398122Y-16473984D01*
X5398122Y-16473984D02*
X5379074Y-16464460D01*
X5379074Y-16464460D02*
X5369551Y-16454936D01*
X5369551Y-16454936D02*
X5360027Y-16435888D01*
X5360027Y-16435888D02*
X5350503Y-16397793D01*
X5350503Y-16397793D02*
X5350503Y-16350174D01*
X5350503Y-16350174D02*
X5360027Y-16312079D01*
X5360027Y-16312079D02*
X5369551Y-16293031D01*
X5369551Y-16293031D02*
X5379074Y-16283508D01*
X5379074Y-16283508D02*
X5398122Y-16273984D01*
X5550503Y-16454936D02*
X5560027Y-16464460D01*
X5560027Y-16464460D02*
X5550503Y-16473984D01*
X5550503Y-16473984D02*
X5540979Y-16464460D01*
X5540979Y-16464460D02*
X5550503Y-16454936D01*
X5550503Y-16454936D02*
X5550503Y-16473984D01*
X5655265Y-16473984D02*
X5693360Y-16473984D01*
X5693360Y-16473984D02*
X5712408Y-16464460D01*
X5712408Y-16464460D02*
X5721932Y-16454936D01*
X5721932Y-16454936D02*
X5740979Y-16426365D01*
X5740979Y-16426365D02*
X5750503Y-16388269D01*
X5750503Y-16388269D02*
X5750503Y-16312079D01*
X5750503Y-16312079D02*
X5740979Y-16293031D01*
X5740979Y-16293031D02*
X5731455Y-16283508D01*
X5731455Y-16283508D02*
X5712408Y-16273984D01*
X5712408Y-16273984D02*
X5674312Y-16273984D01*
X5674312Y-16273984D02*
X5655265Y-16283508D01*
X5655265Y-16283508D02*
X5645741Y-16293031D01*
X5645741Y-16293031D02*
X5636217Y-16312079D01*
X5636217Y-16312079D02*
X5636217Y-16359698D01*
X5636217Y-16359698D02*
X5645741Y-16378746D01*
X5645741Y-16378746D02*
X5655265Y-16388269D01*
X5655265Y-16388269D02*
X5674312Y-16397793D01*
X5674312Y-16397793D02*
X5712408Y-16397793D01*
X5712408Y-16397793D02*
X5731455Y-16388269D01*
X5731455Y-16388269D02*
X5740979Y-16378746D01*
X5740979Y-16378746D02*
X5750503Y-16359698D01*
X5874312Y-16273984D02*
X5893360Y-16273984D01*
X5893360Y-16273984D02*
X5912408Y-16283508D01*
X5912408Y-16283508D02*
X5921932Y-16293031D01*
X5921932Y-16293031D02*
X5931455Y-16312079D01*
X5931455Y-16312079D02*
X5940979Y-16350174D01*
X5940979Y-16350174D02*
X5940979Y-16397793D01*
X5940979Y-16397793D02*
X5931455Y-16435888D01*
X5931455Y-16435888D02*
X5921932Y-16454936D01*
X5921932Y-16454936D02*
X5912408Y-16464460D01*
X5912408Y-16464460D02*
X5893360Y-16473984D01*
X5893360Y-16473984D02*
X5874312Y-16473984D01*
X5874312Y-16473984D02*
X5855265Y-16464460D01*
X5855265Y-16464460D02*
X5845741Y-16454936D01*
X5845741Y-16454936D02*
X5836217Y-16435888D01*
X5836217Y-16435888D02*
X5826693Y-16397793D01*
X5826693Y-16397793D02*
X5826693Y-16350174D01*
X5826693Y-16350174D02*
X5836217Y-16312079D01*
X5836217Y-16312079D02*
X5845741Y-16293031D01*
X5845741Y-16293031D02*
X5855265Y-16283508D01*
X5855265Y-16283508D02*
X5874312Y-16273984D01*
X6064789Y-16273984D02*
X6083836Y-16273984D01*
X6083836Y-16273984D02*
X6102884Y-16283508D01*
X6102884Y-16283508D02*
X6112408Y-16293031D01*
X6112408Y-16293031D02*
X6121932Y-16312079D01*
X6121932Y-16312079D02*
X6131455Y-16350174D01*
X6131455Y-16350174D02*
X6131455Y-16397793D01*
X6131455Y-16397793D02*
X6121932Y-16435888D01*
X6121932Y-16435888D02*
X6112408Y-16454936D01*
X6112408Y-16454936D02*
X6102884Y-16464460D01*
X6102884Y-16464460D02*
X6083836Y-16473984D01*
X6083836Y-16473984D02*
X6064789Y-16473984D01*
X6064789Y-16473984D02*
X6045741Y-16464460D01*
X6045741Y-16464460D02*
X6036217Y-16454936D01*
X6036217Y-16454936D02*
X6026693Y-16435888D01*
X6026693Y-16435888D02*
X6017170Y-16397793D01*
X6017170Y-16397793D02*
X6017170Y-16350174D01*
X6017170Y-16350174D02*
X6026693Y-16312079D01*
X6026693Y-16312079D02*
X6036217Y-16293031D01*
X6036217Y-16293031D02*
X6045741Y-16283508D01*
X6045741Y-16283508D02*
X6064789Y-16273984D01*
X6217170Y-16473984D02*
X6217170Y-16340650D01*
X6217170Y-16359698D02*
X6226693Y-16350174D01*
X6226693Y-16350174D02*
X6245741Y-16340650D01*
X6245741Y-16340650D02*
X6274313Y-16340650D01*
X6274313Y-16340650D02*
X6293360Y-16350174D01*
X6293360Y-16350174D02*
X6302884Y-16369222D01*
X6302884Y-16369222D02*
X6302884Y-16473984D01*
X6302884Y-16369222D02*
X6312408Y-16350174D01*
X6312408Y-16350174D02*
X6331455Y-16340650D01*
X6331455Y-16340650D02*
X6360027Y-16340650D01*
X6360027Y-16340650D02*
X6379074Y-16350174D01*
X6379074Y-16350174D02*
X6388598Y-16369222D01*
X6388598Y-16369222D02*
X6388598Y-16473984D01*
X6483836Y-16473984D02*
X6483836Y-16340650D01*
X6483836Y-16359698D02*
X6493360Y-16350174D01*
X6493360Y-16350174D02*
X6512408Y-16340650D01*
X6512408Y-16340650D02*
X6540979Y-16340650D01*
X6540979Y-16340650D02*
X6560027Y-16350174D01*
X6560027Y-16350174D02*
X6569551Y-16369222D01*
X6569551Y-16369222D02*
X6569551Y-16473984D01*
X6569551Y-16369222D02*
X6579074Y-16350174D01*
X6579074Y-16350174D02*
X6598122Y-16340650D01*
X6598122Y-16340650D02*
X6626693Y-16340650D01*
X6626693Y-16340650D02*
X6645741Y-16350174D01*
X6645741Y-16350174D02*
X6655265Y-16369222D01*
X6655265Y-16369222D02*
X6655265Y-16473984D01*
X7045741Y-16264460D02*
X6874313Y-16521603D01*
X7302884Y-16273984D02*
X7321932Y-16273984D01*
X7321932Y-16273984D02*
X7340979Y-16283508D01*
X7340979Y-16283508D02*
X7350503Y-16293031D01*
X7350503Y-16293031D02*
X7360027Y-16312079D01*
X7360027Y-16312079D02*
X7369551Y-16350174D01*
X7369551Y-16350174D02*
X7369551Y-16397793D01*
X7369551Y-16397793D02*
X7360027Y-16435888D01*
X7360027Y-16435888D02*
X7350503Y-16454936D01*
X7350503Y-16454936D02*
X7340979Y-16464460D01*
X7340979Y-16464460D02*
X7321932Y-16473984D01*
X7321932Y-16473984D02*
X7302884Y-16473984D01*
X7302884Y-16473984D02*
X7283836Y-16464460D01*
X7283836Y-16464460D02*
X7274313Y-16454936D01*
X7274313Y-16454936D02*
X7264789Y-16435888D01*
X7264789Y-16435888D02*
X7255265Y-16397793D01*
X7255265Y-16397793D02*
X7255265Y-16350174D01*
X7255265Y-16350174D02*
X7264789Y-16312079D01*
X7264789Y-16312079D02*
X7274313Y-16293031D01*
X7274313Y-16293031D02*
X7283836Y-16283508D01*
X7283836Y-16283508D02*
X7302884Y-16273984D01*
X7455265Y-16454936D02*
X7464789Y-16464460D01*
X7464789Y-16464460D02*
X7455265Y-16473984D01*
X7455265Y-16473984D02*
X7445741Y-16464460D01*
X7445741Y-16464460D02*
X7455265Y-16454936D01*
X7455265Y-16454936D02*
X7455265Y-16473984D01*
X7588598Y-16273984D02*
X7607646Y-16273984D01*
X7607646Y-16273984D02*
X7626694Y-16283508D01*
X7626694Y-16283508D02*
X7636217Y-16293031D01*
X7636217Y-16293031D02*
X7645741Y-16312079D01*
X7645741Y-16312079D02*
X7655265Y-16350174D01*
X7655265Y-16350174D02*
X7655265Y-16397793D01*
X7655265Y-16397793D02*
X7645741Y-16435888D01*
X7645741Y-16435888D02*
X7636217Y-16454936D01*
X7636217Y-16454936D02*
X7626694Y-16464460D01*
X7626694Y-16464460D02*
X7607646Y-16473984D01*
X7607646Y-16473984D02*
X7588598Y-16473984D01*
X7588598Y-16473984D02*
X7569551Y-16464460D01*
X7569551Y-16464460D02*
X7560027Y-16454936D01*
X7560027Y-16454936D02*
X7550503Y-16435888D01*
X7550503Y-16435888D02*
X7540979Y-16397793D01*
X7540979Y-16397793D02*
X7540979Y-16350174D01*
X7540979Y-16350174D02*
X7550503Y-16312079D01*
X7550503Y-16312079D02*
X7560027Y-16293031D01*
X7560027Y-16293031D02*
X7569551Y-16283508D01*
X7569551Y-16283508D02*
X7588598Y-16273984D01*
X7721932Y-16273984D02*
X7845741Y-16273984D01*
X7845741Y-16273984D02*
X7779075Y-16350174D01*
X7779075Y-16350174D02*
X7807646Y-16350174D01*
X7807646Y-16350174D02*
X7826694Y-16359698D01*
X7826694Y-16359698D02*
X7836217Y-16369222D01*
X7836217Y-16369222D02*
X7845741Y-16388269D01*
X7845741Y-16388269D02*
X7845741Y-16435888D01*
X7845741Y-16435888D02*
X7836217Y-16454936D01*
X7836217Y-16454936D02*
X7826694Y-16464460D01*
X7826694Y-16464460D02*
X7807646Y-16473984D01*
X7807646Y-16473984D02*
X7750503Y-16473984D01*
X7750503Y-16473984D02*
X7731456Y-16464460D01*
X7731456Y-16464460D02*
X7721932Y-16454936D01*
X8026694Y-16273984D02*
X7931456Y-16273984D01*
X7931456Y-16273984D02*
X7921932Y-16369222D01*
X7921932Y-16369222D02*
X7931456Y-16359698D01*
X7931456Y-16359698D02*
X7950503Y-16350174D01*
X7950503Y-16350174D02*
X7998122Y-16350174D01*
X7998122Y-16350174D02*
X8017170Y-16359698D01*
X8017170Y-16359698D02*
X8026694Y-16369222D01*
X8026694Y-16369222D02*
X8036217Y-16388269D01*
X8036217Y-16388269D02*
X8036217Y-16435888D01*
X8036217Y-16435888D02*
X8026694Y-16454936D01*
X8026694Y-16454936D02*
X8017170Y-16464460D01*
X8017170Y-16464460D02*
X7998122Y-16473984D01*
X7998122Y-16473984D02*
X7950503Y-16473984D01*
X7950503Y-16473984D02*
X7931456Y-16464460D01*
X7931456Y-16464460D02*
X7921932Y-16454936D01*
X8207646Y-16340650D02*
X8207646Y-16473984D01*
X8160027Y-16264460D02*
X8112408Y-16407317D01*
X8112408Y-16407317D02*
X8236217Y-16407317D01*
X8302884Y-16273984D02*
X8302884Y-16312079D01*
X8379075Y-16273984D02*
X8379075Y-16312079D01*
X8674313Y-16550174D02*
X8664789Y-16540650D01*
X8664789Y-16540650D02*
X8645741Y-16512079D01*
X8645741Y-16512079D02*
X8636218Y-16493031D01*
X8636218Y-16493031D02*
X8626694Y-16464460D01*
X8626694Y-16464460D02*
X8617170Y-16416841D01*
X8617170Y-16416841D02*
X8617170Y-16378746D01*
X8617170Y-16378746D02*
X8626694Y-16331127D01*
X8626694Y-16331127D02*
X8636218Y-16302555D01*
X8636218Y-16302555D02*
X8645741Y-16283508D01*
X8645741Y-16283508D02*
X8664789Y-16254936D01*
X8664789Y-16254936D02*
X8674313Y-16245412D01*
X8740980Y-16293031D02*
X8750503Y-16283508D01*
X8750503Y-16283508D02*
X8769551Y-16273984D01*
X8769551Y-16273984D02*
X8817170Y-16273984D01*
X8817170Y-16273984D02*
X8836218Y-16283508D01*
X8836218Y-16283508D02*
X8845741Y-16293031D01*
X8845741Y-16293031D02*
X8855265Y-16312079D01*
X8855265Y-16312079D02*
X8855265Y-16331127D01*
X8855265Y-16331127D02*
X8845741Y-16359698D01*
X8845741Y-16359698D02*
X8731456Y-16473984D01*
X8731456Y-16473984D02*
X8855265Y-16473984D01*
X9093361Y-16473984D02*
X9093361Y-16273984D01*
X9179075Y-16473984D02*
X9179075Y-16369222D01*
X9179075Y-16369222D02*
X9169551Y-16350174D01*
X9169551Y-16350174D02*
X9150503Y-16340650D01*
X9150503Y-16340650D02*
X9121932Y-16340650D01*
X9121932Y-16340650D02*
X9102884Y-16350174D01*
X9102884Y-16350174D02*
X9093361Y-16359698D01*
X9302884Y-16473984D02*
X9283837Y-16464460D01*
X9283837Y-16464460D02*
X9274313Y-16454936D01*
X9274313Y-16454936D02*
X9264789Y-16435888D01*
X9264789Y-16435888D02*
X9264789Y-16378746D01*
X9264789Y-16378746D02*
X9274313Y-16359698D01*
X9274313Y-16359698D02*
X9283837Y-16350174D01*
X9283837Y-16350174D02*
X9302884Y-16340650D01*
X9302884Y-16340650D02*
X9331456Y-16340650D01*
X9331456Y-16340650D02*
X9350503Y-16350174D01*
X9350503Y-16350174D02*
X9360027Y-16359698D01*
X9360027Y-16359698D02*
X9369551Y-16378746D01*
X9369551Y-16378746D02*
X9369551Y-16435888D01*
X9369551Y-16435888D02*
X9360027Y-16454936D01*
X9360027Y-16454936D02*
X9350503Y-16464460D01*
X9350503Y-16464460D02*
X9331456Y-16473984D01*
X9331456Y-16473984D02*
X9302884Y-16473984D01*
X9483837Y-16473984D02*
X9464789Y-16464460D01*
X9464789Y-16464460D02*
X9455265Y-16445412D01*
X9455265Y-16445412D02*
X9455265Y-16273984D01*
X9636218Y-16464460D02*
X9617170Y-16473984D01*
X9617170Y-16473984D02*
X9579075Y-16473984D01*
X9579075Y-16473984D02*
X9560027Y-16464460D01*
X9560027Y-16464460D02*
X9550503Y-16445412D01*
X9550503Y-16445412D02*
X9550503Y-16369222D01*
X9550503Y-16369222D02*
X9560027Y-16350174D01*
X9560027Y-16350174D02*
X9579075Y-16340650D01*
X9579075Y-16340650D02*
X9617170Y-16340650D01*
X9617170Y-16340650D02*
X9636218Y-16350174D01*
X9636218Y-16350174D02*
X9645742Y-16369222D01*
X9645742Y-16369222D02*
X9645742Y-16388269D01*
X9645742Y-16388269D02*
X9550503Y-16407317D01*
X9721932Y-16464460D02*
X9740980Y-16473984D01*
X9740980Y-16473984D02*
X9779075Y-16473984D01*
X9779075Y-16473984D02*
X9798123Y-16464460D01*
X9798123Y-16464460D02*
X9807646Y-16445412D01*
X9807646Y-16445412D02*
X9807646Y-16435888D01*
X9807646Y-16435888D02*
X9798123Y-16416841D01*
X9798123Y-16416841D02*
X9779075Y-16407317D01*
X9779075Y-16407317D02*
X9750503Y-16407317D01*
X9750503Y-16407317D02*
X9731456Y-16397793D01*
X9731456Y-16397793D02*
X9721932Y-16378746D01*
X9721932Y-16378746D02*
X9721932Y-16369222D01*
X9721932Y-16369222D02*
X9731456Y-16350174D01*
X9731456Y-16350174D02*
X9750503Y-16340650D01*
X9750503Y-16340650D02*
X9779075Y-16340650D01*
X9779075Y-16340650D02*
X9798123Y-16350174D01*
X9874313Y-16550174D02*
X9883837Y-16540650D01*
X9883837Y-16540650D02*
X9902884Y-16512079D01*
X9902884Y-16512079D02*
X9912408Y-16493031D01*
X9912408Y-16493031D02*
X9921932Y-16464460D01*
X9921932Y-16464460D02*
X9931456Y-16416841D01*
X9931456Y-16416841D02*
X9931456Y-16378746D01*
X9931456Y-16378746D02*
X9921932Y-16331127D01*
X9921932Y-16331127D02*
X9912408Y-16302555D01*
X9912408Y-16302555D02*
X9902884Y-16283508D01*
X9902884Y-16283508D02*
X9883837Y-16254936D01*
X9883837Y-16254936D02*
X9874313Y-16245412D01*
D12*
X5084606Y-16681856D02*
X5084606Y-16611144D01*
X5013894Y-16611144D01*
X5013894Y-16681856D01*
X5084606Y-16681856D01*
D11*
X5464789Y-16737984D02*
X5350503Y-16737984D01*
X5407646Y-16737984D02*
X5407646Y-16537984D01*
X5407646Y-16537984D02*
X5388598Y-16566555D01*
X5388598Y-16566555D02*
X5369551Y-16585603D01*
X5369551Y-16585603D02*
X5350503Y-16595127D01*
X5550503Y-16718936D02*
X5560027Y-16728460D01*
X5560027Y-16728460D02*
X5550503Y-16737984D01*
X5550503Y-16737984D02*
X5540979Y-16728460D01*
X5540979Y-16728460D02*
X5550503Y-16718936D01*
X5550503Y-16718936D02*
X5550503Y-16737984D01*
X5683836Y-16537984D02*
X5702884Y-16537984D01*
X5702884Y-16537984D02*
X5721932Y-16547508D01*
X5721932Y-16547508D02*
X5731455Y-16557031D01*
X5731455Y-16557031D02*
X5740979Y-16576079D01*
X5740979Y-16576079D02*
X5750503Y-16614174D01*
X5750503Y-16614174D02*
X5750503Y-16661793D01*
X5750503Y-16661793D02*
X5740979Y-16699888D01*
X5740979Y-16699888D02*
X5731455Y-16718936D01*
X5731455Y-16718936D02*
X5721932Y-16728460D01*
X5721932Y-16728460D02*
X5702884Y-16737984D01*
X5702884Y-16737984D02*
X5683836Y-16737984D01*
X5683836Y-16737984D02*
X5664789Y-16728460D01*
X5664789Y-16728460D02*
X5655265Y-16718936D01*
X5655265Y-16718936D02*
X5645741Y-16699888D01*
X5645741Y-16699888D02*
X5636217Y-16661793D01*
X5636217Y-16661793D02*
X5636217Y-16614174D01*
X5636217Y-16614174D02*
X5645741Y-16576079D01*
X5645741Y-16576079D02*
X5655265Y-16557031D01*
X5655265Y-16557031D02*
X5664789Y-16547508D01*
X5664789Y-16547508D02*
X5683836Y-16537984D01*
X5874312Y-16537984D02*
X5893360Y-16537984D01*
X5893360Y-16537984D02*
X5912408Y-16547508D01*
X5912408Y-16547508D02*
X5921932Y-16557031D01*
X5921932Y-16557031D02*
X5931455Y-16576079D01*
X5931455Y-16576079D02*
X5940979Y-16614174D01*
X5940979Y-16614174D02*
X5940979Y-16661793D01*
X5940979Y-16661793D02*
X5931455Y-16699888D01*
X5931455Y-16699888D02*
X5921932Y-16718936D01*
X5921932Y-16718936D02*
X5912408Y-16728460D01*
X5912408Y-16728460D02*
X5893360Y-16737984D01*
X5893360Y-16737984D02*
X5874312Y-16737984D01*
X5874312Y-16737984D02*
X5855265Y-16728460D01*
X5855265Y-16728460D02*
X5845741Y-16718936D01*
X5845741Y-16718936D02*
X5836217Y-16699888D01*
X5836217Y-16699888D02*
X5826693Y-16661793D01*
X5826693Y-16661793D02*
X5826693Y-16614174D01*
X5826693Y-16614174D02*
X5836217Y-16576079D01*
X5836217Y-16576079D02*
X5845741Y-16557031D01*
X5845741Y-16557031D02*
X5855265Y-16547508D01*
X5855265Y-16547508D02*
X5874312Y-16537984D01*
X6064789Y-16537984D02*
X6083836Y-16537984D01*
X6083836Y-16537984D02*
X6102884Y-16547508D01*
X6102884Y-16547508D02*
X6112408Y-16557031D01*
X6112408Y-16557031D02*
X6121932Y-16576079D01*
X6121932Y-16576079D02*
X6131455Y-16614174D01*
X6131455Y-16614174D02*
X6131455Y-16661793D01*
X6131455Y-16661793D02*
X6121932Y-16699888D01*
X6121932Y-16699888D02*
X6112408Y-16718936D01*
X6112408Y-16718936D02*
X6102884Y-16728460D01*
X6102884Y-16728460D02*
X6083836Y-16737984D01*
X6083836Y-16737984D02*
X6064789Y-16737984D01*
X6064789Y-16737984D02*
X6045741Y-16728460D01*
X6045741Y-16728460D02*
X6036217Y-16718936D01*
X6036217Y-16718936D02*
X6026693Y-16699888D01*
X6026693Y-16699888D02*
X6017170Y-16661793D01*
X6017170Y-16661793D02*
X6017170Y-16614174D01*
X6017170Y-16614174D02*
X6026693Y-16576079D01*
X6026693Y-16576079D02*
X6036217Y-16557031D01*
X6036217Y-16557031D02*
X6045741Y-16547508D01*
X6045741Y-16547508D02*
X6064789Y-16537984D01*
X6217170Y-16737984D02*
X6217170Y-16604650D01*
X6217170Y-16623698D02*
X6226693Y-16614174D01*
X6226693Y-16614174D02*
X6245741Y-16604650D01*
X6245741Y-16604650D02*
X6274313Y-16604650D01*
X6274313Y-16604650D02*
X6293360Y-16614174D01*
X6293360Y-16614174D02*
X6302884Y-16633222D01*
X6302884Y-16633222D02*
X6302884Y-16737984D01*
X6302884Y-16633222D02*
X6312408Y-16614174D01*
X6312408Y-16614174D02*
X6331455Y-16604650D01*
X6331455Y-16604650D02*
X6360027Y-16604650D01*
X6360027Y-16604650D02*
X6379074Y-16614174D01*
X6379074Y-16614174D02*
X6388598Y-16633222D01*
X6388598Y-16633222D02*
X6388598Y-16737984D01*
X6483836Y-16737984D02*
X6483836Y-16604650D01*
X6483836Y-16623698D02*
X6493360Y-16614174D01*
X6493360Y-16614174D02*
X6512408Y-16604650D01*
X6512408Y-16604650D02*
X6540979Y-16604650D01*
X6540979Y-16604650D02*
X6560027Y-16614174D01*
X6560027Y-16614174D02*
X6569551Y-16633222D01*
X6569551Y-16633222D02*
X6569551Y-16737984D01*
X6569551Y-16633222D02*
X6579074Y-16614174D01*
X6579074Y-16614174D02*
X6598122Y-16604650D01*
X6598122Y-16604650D02*
X6626693Y-16604650D01*
X6626693Y-16604650D02*
X6645741Y-16614174D01*
X6645741Y-16614174D02*
X6655265Y-16633222D01*
X6655265Y-16633222D02*
X6655265Y-16737984D01*
X7045741Y-16528460D02*
X6874313Y-16785603D01*
X7302884Y-16537984D02*
X7321932Y-16537984D01*
X7321932Y-16537984D02*
X7340979Y-16547508D01*
X7340979Y-16547508D02*
X7350503Y-16557031D01*
X7350503Y-16557031D02*
X7360027Y-16576079D01*
X7360027Y-16576079D02*
X7369551Y-16614174D01*
X7369551Y-16614174D02*
X7369551Y-16661793D01*
X7369551Y-16661793D02*
X7360027Y-16699888D01*
X7360027Y-16699888D02*
X7350503Y-16718936D01*
X7350503Y-16718936D02*
X7340979Y-16728460D01*
X7340979Y-16728460D02*
X7321932Y-16737984D01*
X7321932Y-16737984D02*
X7302884Y-16737984D01*
X7302884Y-16737984D02*
X7283836Y-16728460D01*
X7283836Y-16728460D02*
X7274313Y-16718936D01*
X7274313Y-16718936D02*
X7264789Y-16699888D01*
X7264789Y-16699888D02*
X7255265Y-16661793D01*
X7255265Y-16661793D02*
X7255265Y-16614174D01*
X7255265Y-16614174D02*
X7264789Y-16576079D01*
X7264789Y-16576079D02*
X7274313Y-16557031D01*
X7274313Y-16557031D02*
X7283836Y-16547508D01*
X7283836Y-16547508D02*
X7302884Y-16537984D01*
X7455265Y-16718936D02*
X7464789Y-16728460D01*
X7464789Y-16728460D02*
X7455265Y-16737984D01*
X7455265Y-16737984D02*
X7445741Y-16728460D01*
X7445741Y-16728460D02*
X7455265Y-16718936D01*
X7455265Y-16718936D02*
X7455265Y-16737984D01*
X7588598Y-16537984D02*
X7607646Y-16537984D01*
X7607646Y-16537984D02*
X7626694Y-16547508D01*
X7626694Y-16547508D02*
X7636217Y-16557031D01*
X7636217Y-16557031D02*
X7645741Y-16576079D01*
X7645741Y-16576079D02*
X7655265Y-16614174D01*
X7655265Y-16614174D02*
X7655265Y-16661793D01*
X7655265Y-16661793D02*
X7645741Y-16699888D01*
X7645741Y-16699888D02*
X7636217Y-16718936D01*
X7636217Y-16718936D02*
X7626694Y-16728460D01*
X7626694Y-16728460D02*
X7607646Y-16737984D01*
X7607646Y-16737984D02*
X7588598Y-16737984D01*
X7588598Y-16737984D02*
X7569551Y-16728460D01*
X7569551Y-16728460D02*
X7560027Y-16718936D01*
X7560027Y-16718936D02*
X7550503Y-16699888D01*
X7550503Y-16699888D02*
X7540979Y-16661793D01*
X7540979Y-16661793D02*
X7540979Y-16614174D01*
X7540979Y-16614174D02*
X7550503Y-16576079D01*
X7550503Y-16576079D02*
X7560027Y-16557031D01*
X7560027Y-16557031D02*
X7569551Y-16547508D01*
X7569551Y-16547508D02*
X7588598Y-16537984D01*
X7721932Y-16537984D02*
X7845741Y-16537984D01*
X7845741Y-16537984D02*
X7779075Y-16614174D01*
X7779075Y-16614174D02*
X7807646Y-16614174D01*
X7807646Y-16614174D02*
X7826694Y-16623698D01*
X7826694Y-16623698D02*
X7836217Y-16633222D01*
X7836217Y-16633222D02*
X7845741Y-16652269D01*
X7845741Y-16652269D02*
X7845741Y-16699888D01*
X7845741Y-16699888D02*
X7836217Y-16718936D01*
X7836217Y-16718936D02*
X7826694Y-16728460D01*
X7826694Y-16728460D02*
X7807646Y-16737984D01*
X7807646Y-16737984D02*
X7750503Y-16737984D01*
X7750503Y-16737984D02*
X7731456Y-16728460D01*
X7731456Y-16728460D02*
X7721932Y-16718936D01*
X7940979Y-16737984D02*
X7979075Y-16737984D01*
X7979075Y-16737984D02*
X7998122Y-16728460D01*
X7998122Y-16728460D02*
X8007646Y-16718936D01*
X8007646Y-16718936D02*
X8026694Y-16690365D01*
X8026694Y-16690365D02*
X8036217Y-16652269D01*
X8036217Y-16652269D02*
X8036217Y-16576079D01*
X8036217Y-16576079D02*
X8026694Y-16557031D01*
X8026694Y-16557031D02*
X8017170Y-16547508D01*
X8017170Y-16547508D02*
X7998122Y-16537984D01*
X7998122Y-16537984D02*
X7960027Y-16537984D01*
X7960027Y-16537984D02*
X7940979Y-16547508D01*
X7940979Y-16547508D02*
X7931456Y-16557031D01*
X7931456Y-16557031D02*
X7921932Y-16576079D01*
X7921932Y-16576079D02*
X7921932Y-16623698D01*
X7921932Y-16623698D02*
X7931456Y-16642746D01*
X7931456Y-16642746D02*
X7940979Y-16652269D01*
X7940979Y-16652269D02*
X7960027Y-16661793D01*
X7960027Y-16661793D02*
X7998122Y-16661793D01*
X7998122Y-16661793D02*
X8017170Y-16652269D01*
X8017170Y-16652269D02*
X8026694Y-16642746D01*
X8026694Y-16642746D02*
X8036217Y-16623698D01*
X8207646Y-16604650D02*
X8207646Y-16737984D01*
X8160027Y-16528460D02*
X8112408Y-16671317D01*
X8112408Y-16671317D02*
X8236217Y-16671317D01*
X8302884Y-16537984D02*
X8302884Y-16576079D01*
X8379075Y-16537984D02*
X8379075Y-16576079D01*
X8674313Y-16814174D02*
X8664789Y-16804650D01*
X8664789Y-16804650D02*
X8645741Y-16776079D01*
X8645741Y-16776079D02*
X8636218Y-16757031D01*
X8636218Y-16757031D02*
X8626694Y-16728460D01*
X8626694Y-16728460D02*
X8617170Y-16680841D01*
X8617170Y-16680841D02*
X8617170Y-16642746D01*
X8617170Y-16642746D02*
X8626694Y-16595127D01*
X8626694Y-16595127D02*
X8636218Y-16566555D01*
X8636218Y-16566555D02*
X8645741Y-16547508D01*
X8645741Y-16547508D02*
X8664789Y-16518936D01*
X8664789Y-16518936D02*
X8674313Y-16509412D01*
X8731456Y-16537984D02*
X8864789Y-16537984D01*
X8864789Y-16537984D02*
X8779075Y-16737984D01*
X8979075Y-16537984D02*
X8998122Y-16537984D01*
X8998122Y-16537984D02*
X9017170Y-16547508D01*
X9017170Y-16547508D02*
X9026694Y-16557031D01*
X9026694Y-16557031D02*
X9036218Y-16576079D01*
X9036218Y-16576079D02*
X9045741Y-16614174D01*
X9045741Y-16614174D02*
X9045741Y-16661793D01*
X9045741Y-16661793D02*
X9036218Y-16699888D01*
X9036218Y-16699888D02*
X9026694Y-16718936D01*
X9026694Y-16718936D02*
X9017170Y-16728460D01*
X9017170Y-16728460D02*
X8998122Y-16737984D01*
X8998122Y-16737984D02*
X8979075Y-16737984D01*
X8979075Y-16737984D02*
X8960027Y-16728460D01*
X8960027Y-16728460D02*
X8950503Y-16718936D01*
X8950503Y-16718936D02*
X8940980Y-16699888D01*
X8940980Y-16699888D02*
X8931456Y-16661793D01*
X8931456Y-16661793D02*
X8931456Y-16614174D01*
X8931456Y-16614174D02*
X8940980Y-16576079D01*
X8940980Y-16576079D02*
X8950503Y-16557031D01*
X8950503Y-16557031D02*
X8960027Y-16547508D01*
X8960027Y-16547508D02*
X8979075Y-16537984D01*
X9283837Y-16737984D02*
X9283837Y-16537984D01*
X9369551Y-16737984D02*
X9369551Y-16633222D01*
X9369551Y-16633222D02*
X9360027Y-16614174D01*
X9360027Y-16614174D02*
X9340980Y-16604650D01*
X9340980Y-16604650D02*
X9312408Y-16604650D01*
X9312408Y-16604650D02*
X9293361Y-16614174D01*
X9293361Y-16614174D02*
X9283837Y-16623698D01*
X9493361Y-16737984D02*
X9474313Y-16728460D01*
X9474313Y-16728460D02*
X9464789Y-16718936D01*
X9464789Y-16718936D02*
X9455265Y-16699888D01*
X9455265Y-16699888D02*
X9455265Y-16642746D01*
X9455265Y-16642746D02*
X9464789Y-16623698D01*
X9464789Y-16623698D02*
X9474313Y-16614174D01*
X9474313Y-16614174D02*
X9493361Y-16604650D01*
X9493361Y-16604650D02*
X9521932Y-16604650D01*
X9521932Y-16604650D02*
X9540980Y-16614174D01*
X9540980Y-16614174D02*
X9550503Y-16623698D01*
X9550503Y-16623698D02*
X9560027Y-16642746D01*
X9560027Y-16642746D02*
X9560027Y-16699888D01*
X9560027Y-16699888D02*
X9550503Y-16718936D01*
X9550503Y-16718936D02*
X9540980Y-16728460D01*
X9540980Y-16728460D02*
X9521932Y-16737984D01*
X9521932Y-16737984D02*
X9493361Y-16737984D01*
X9674313Y-16737984D02*
X9655265Y-16728460D01*
X9655265Y-16728460D02*
X9645742Y-16709412D01*
X9645742Y-16709412D02*
X9645742Y-16537984D01*
X9826694Y-16728460D02*
X9807646Y-16737984D01*
X9807646Y-16737984D02*
X9769551Y-16737984D01*
X9769551Y-16737984D02*
X9750503Y-16728460D01*
X9750503Y-16728460D02*
X9740980Y-16709412D01*
X9740980Y-16709412D02*
X9740980Y-16633222D01*
X9740980Y-16633222D02*
X9750503Y-16614174D01*
X9750503Y-16614174D02*
X9769551Y-16604650D01*
X9769551Y-16604650D02*
X9807646Y-16604650D01*
X9807646Y-16604650D02*
X9826694Y-16614174D01*
X9826694Y-16614174D02*
X9836218Y-16633222D01*
X9836218Y-16633222D02*
X9836218Y-16652269D01*
X9836218Y-16652269D02*
X9740980Y-16671317D01*
X9912408Y-16728460D02*
X9931456Y-16737984D01*
X9931456Y-16737984D02*
X9969551Y-16737984D01*
X9969551Y-16737984D02*
X9988599Y-16728460D01*
X9988599Y-16728460D02*
X9998123Y-16709412D01*
X9998123Y-16709412D02*
X9998123Y-16699888D01*
X9998123Y-16699888D02*
X9988599Y-16680841D01*
X9988599Y-16680841D02*
X9969551Y-16671317D01*
X9969551Y-16671317D02*
X9940980Y-16671317D01*
X9940980Y-16671317D02*
X9921932Y-16661793D01*
X9921932Y-16661793D02*
X9912408Y-16642746D01*
X9912408Y-16642746D02*
X9912408Y-16633222D01*
X9912408Y-16633222D02*
X9921932Y-16614174D01*
X9921932Y-16614174D02*
X9940980Y-16604650D01*
X9940980Y-16604650D02*
X9969551Y-16604650D01*
X9969551Y-16604650D02*
X9988599Y-16614174D01*
X10064789Y-16814174D02*
X10074313Y-16804650D01*
X10074313Y-16804650D02*
X10093361Y-16776079D01*
X10093361Y-16776079D02*
X10102884Y-16757031D01*
X10102884Y-16757031D02*
X10112408Y-16728460D01*
X10112408Y-16728460D02*
X10121932Y-16680841D01*
X10121932Y-16680841D02*
X10121932Y-16642746D01*
X10121932Y-16642746D02*
X10112408Y-16595127D01*
X10112408Y-16595127D02*
X10102884Y-16566555D01*
X10102884Y-16566555D02*
X10093361Y-16547508D01*
X10093361Y-16547508D02*
X10074313Y-16518936D01*
X10074313Y-16518936D02*
X10064789Y-16509412D01*
D13*
X5048450Y-16961300D02*
X5099250Y-16910500D01*
X5048450Y-16859700D01*
X4997650Y-16910500D01*
X5048450Y-16961300D01*
D11*
X5464789Y-17001984D02*
X5350503Y-17001984D01*
X5407646Y-17001984D02*
X5407646Y-16801984D01*
X5407646Y-16801984D02*
X5388598Y-16830555D01*
X5388598Y-16830555D02*
X5369551Y-16849603D01*
X5369551Y-16849603D02*
X5350503Y-16859127D01*
X5550503Y-16982936D02*
X5560027Y-16992460D01*
X5560027Y-16992460D02*
X5550503Y-17001984D01*
X5550503Y-17001984D02*
X5540979Y-16992460D01*
X5540979Y-16992460D02*
X5550503Y-16982936D01*
X5550503Y-16982936D02*
X5550503Y-17001984D01*
X5683836Y-16801984D02*
X5702884Y-16801984D01*
X5702884Y-16801984D02*
X5721932Y-16811508D01*
X5721932Y-16811508D02*
X5731455Y-16821031D01*
X5731455Y-16821031D02*
X5740979Y-16840079D01*
X5740979Y-16840079D02*
X5750503Y-16878174D01*
X5750503Y-16878174D02*
X5750503Y-16925793D01*
X5750503Y-16925793D02*
X5740979Y-16963889D01*
X5740979Y-16963889D02*
X5731455Y-16982936D01*
X5731455Y-16982936D02*
X5721932Y-16992460D01*
X5721932Y-16992460D02*
X5702884Y-17001984D01*
X5702884Y-17001984D02*
X5683836Y-17001984D01*
X5683836Y-17001984D02*
X5664789Y-16992460D01*
X5664789Y-16992460D02*
X5655265Y-16982936D01*
X5655265Y-16982936D02*
X5645741Y-16963889D01*
X5645741Y-16963889D02*
X5636217Y-16925793D01*
X5636217Y-16925793D02*
X5636217Y-16878174D01*
X5636217Y-16878174D02*
X5645741Y-16840079D01*
X5645741Y-16840079D02*
X5655265Y-16821031D01*
X5655265Y-16821031D02*
X5664789Y-16811508D01*
X5664789Y-16811508D02*
X5683836Y-16801984D01*
X5940979Y-17001984D02*
X5826693Y-17001984D01*
X5883836Y-17001984D02*
X5883836Y-16801984D01*
X5883836Y-16801984D02*
X5864789Y-16830555D01*
X5864789Y-16830555D02*
X5845741Y-16849603D01*
X5845741Y-16849603D02*
X5826693Y-16859127D01*
X6112408Y-16801984D02*
X6074312Y-16801984D01*
X6074312Y-16801984D02*
X6055265Y-16811508D01*
X6055265Y-16811508D02*
X6045741Y-16821031D01*
X6045741Y-16821031D02*
X6026693Y-16849603D01*
X6026693Y-16849603D02*
X6017170Y-16887698D01*
X6017170Y-16887698D02*
X6017170Y-16963889D01*
X6017170Y-16963889D02*
X6026693Y-16982936D01*
X6026693Y-16982936D02*
X6036217Y-16992460D01*
X6036217Y-16992460D02*
X6055265Y-17001984D01*
X6055265Y-17001984D02*
X6093360Y-17001984D01*
X6093360Y-17001984D02*
X6112408Y-16992460D01*
X6112408Y-16992460D02*
X6121932Y-16982936D01*
X6121932Y-16982936D02*
X6131455Y-16963889D01*
X6131455Y-16963889D02*
X6131455Y-16916270D01*
X6131455Y-16916270D02*
X6121932Y-16897222D01*
X6121932Y-16897222D02*
X6112408Y-16887698D01*
X6112408Y-16887698D02*
X6093360Y-16878174D01*
X6093360Y-16878174D02*
X6055265Y-16878174D01*
X6055265Y-16878174D02*
X6036217Y-16887698D01*
X6036217Y-16887698D02*
X6026693Y-16897222D01*
X6026693Y-16897222D02*
X6017170Y-16916270D01*
X6217170Y-17001984D02*
X6217170Y-16868650D01*
X6217170Y-16887698D02*
X6226693Y-16878174D01*
X6226693Y-16878174D02*
X6245741Y-16868650D01*
X6245741Y-16868650D02*
X6274313Y-16868650D01*
X6274313Y-16868650D02*
X6293360Y-16878174D01*
X6293360Y-16878174D02*
X6302884Y-16897222D01*
X6302884Y-16897222D02*
X6302884Y-17001984D01*
X6302884Y-16897222D02*
X6312408Y-16878174D01*
X6312408Y-16878174D02*
X6331455Y-16868650D01*
X6331455Y-16868650D02*
X6360027Y-16868650D01*
X6360027Y-16868650D02*
X6379074Y-16878174D01*
X6379074Y-16878174D02*
X6388598Y-16897222D01*
X6388598Y-16897222D02*
X6388598Y-17001984D01*
X6483836Y-17001984D02*
X6483836Y-16868650D01*
X6483836Y-16887698D02*
X6493360Y-16878174D01*
X6493360Y-16878174D02*
X6512408Y-16868650D01*
X6512408Y-16868650D02*
X6540979Y-16868650D01*
X6540979Y-16868650D02*
X6560027Y-16878174D01*
X6560027Y-16878174D02*
X6569551Y-16897222D01*
X6569551Y-16897222D02*
X6569551Y-17001984D01*
X6569551Y-16897222D02*
X6579074Y-16878174D01*
X6579074Y-16878174D02*
X6598122Y-16868650D01*
X6598122Y-16868650D02*
X6626693Y-16868650D01*
X6626693Y-16868650D02*
X6645741Y-16878174D01*
X6645741Y-16878174D02*
X6655265Y-16897222D01*
X6655265Y-16897222D02*
X6655265Y-17001984D01*
X7045741Y-16792460D02*
X6874313Y-17049603D01*
X7302884Y-16801984D02*
X7321932Y-16801984D01*
X7321932Y-16801984D02*
X7340979Y-16811508D01*
X7340979Y-16811508D02*
X7350503Y-16821031D01*
X7350503Y-16821031D02*
X7360027Y-16840079D01*
X7360027Y-16840079D02*
X7369551Y-16878174D01*
X7369551Y-16878174D02*
X7369551Y-16925793D01*
X7369551Y-16925793D02*
X7360027Y-16963889D01*
X7360027Y-16963889D02*
X7350503Y-16982936D01*
X7350503Y-16982936D02*
X7340979Y-16992460D01*
X7340979Y-16992460D02*
X7321932Y-17001984D01*
X7321932Y-17001984D02*
X7302884Y-17001984D01*
X7302884Y-17001984D02*
X7283836Y-16992460D01*
X7283836Y-16992460D02*
X7274313Y-16982936D01*
X7274313Y-16982936D02*
X7264789Y-16963889D01*
X7264789Y-16963889D02*
X7255265Y-16925793D01*
X7255265Y-16925793D02*
X7255265Y-16878174D01*
X7255265Y-16878174D02*
X7264789Y-16840079D01*
X7264789Y-16840079D02*
X7274313Y-16821031D01*
X7274313Y-16821031D02*
X7283836Y-16811508D01*
X7283836Y-16811508D02*
X7302884Y-16801984D01*
X7455265Y-16982936D02*
X7464789Y-16992460D01*
X7464789Y-16992460D02*
X7455265Y-17001984D01*
X7455265Y-17001984D02*
X7445741Y-16992460D01*
X7445741Y-16992460D02*
X7455265Y-16982936D01*
X7455265Y-16982936D02*
X7455265Y-17001984D01*
X7588598Y-16801984D02*
X7607646Y-16801984D01*
X7607646Y-16801984D02*
X7626694Y-16811508D01*
X7626694Y-16811508D02*
X7636217Y-16821031D01*
X7636217Y-16821031D02*
X7645741Y-16840079D01*
X7645741Y-16840079D02*
X7655265Y-16878174D01*
X7655265Y-16878174D02*
X7655265Y-16925793D01*
X7655265Y-16925793D02*
X7645741Y-16963889D01*
X7645741Y-16963889D02*
X7636217Y-16982936D01*
X7636217Y-16982936D02*
X7626694Y-16992460D01*
X7626694Y-16992460D02*
X7607646Y-17001984D01*
X7607646Y-17001984D02*
X7588598Y-17001984D01*
X7588598Y-17001984D02*
X7569551Y-16992460D01*
X7569551Y-16992460D02*
X7560027Y-16982936D01*
X7560027Y-16982936D02*
X7550503Y-16963889D01*
X7550503Y-16963889D02*
X7540979Y-16925793D01*
X7540979Y-16925793D02*
X7540979Y-16878174D01*
X7540979Y-16878174D02*
X7550503Y-16840079D01*
X7550503Y-16840079D02*
X7560027Y-16821031D01*
X7560027Y-16821031D02*
X7569551Y-16811508D01*
X7569551Y-16811508D02*
X7588598Y-16801984D01*
X7826694Y-16868650D02*
X7826694Y-17001984D01*
X7779075Y-16792460D02*
X7731456Y-16935317D01*
X7731456Y-16935317D02*
X7855265Y-16935317D01*
X7969551Y-16801984D02*
X7988598Y-16801984D01*
X7988598Y-16801984D02*
X8007646Y-16811508D01*
X8007646Y-16811508D02*
X8017170Y-16821031D01*
X8017170Y-16821031D02*
X8026694Y-16840079D01*
X8026694Y-16840079D02*
X8036217Y-16878174D01*
X8036217Y-16878174D02*
X8036217Y-16925793D01*
X8036217Y-16925793D02*
X8026694Y-16963889D01*
X8026694Y-16963889D02*
X8017170Y-16982936D01*
X8017170Y-16982936D02*
X8007646Y-16992460D01*
X8007646Y-16992460D02*
X7988598Y-17001984D01*
X7988598Y-17001984D02*
X7969551Y-17001984D01*
X7969551Y-17001984D02*
X7950503Y-16992460D01*
X7950503Y-16992460D02*
X7940979Y-16982936D01*
X7940979Y-16982936D02*
X7931456Y-16963889D01*
X7931456Y-16963889D02*
X7921932Y-16925793D01*
X7921932Y-16925793D02*
X7921932Y-16878174D01*
X7921932Y-16878174D02*
X7931456Y-16840079D01*
X7931456Y-16840079D02*
X7940979Y-16821031D01*
X7940979Y-16821031D02*
X7950503Y-16811508D01*
X7950503Y-16811508D02*
X7969551Y-16801984D01*
X8160027Y-16801984D02*
X8179075Y-16801984D01*
X8179075Y-16801984D02*
X8198122Y-16811508D01*
X8198122Y-16811508D02*
X8207646Y-16821031D01*
X8207646Y-16821031D02*
X8217170Y-16840079D01*
X8217170Y-16840079D02*
X8226694Y-16878174D01*
X8226694Y-16878174D02*
X8226694Y-16925793D01*
X8226694Y-16925793D02*
X8217170Y-16963889D01*
X8217170Y-16963889D02*
X8207646Y-16982936D01*
X8207646Y-16982936D02*
X8198122Y-16992460D01*
X8198122Y-16992460D02*
X8179075Y-17001984D01*
X8179075Y-17001984D02*
X8160027Y-17001984D01*
X8160027Y-17001984D02*
X8140979Y-16992460D01*
X8140979Y-16992460D02*
X8131456Y-16982936D01*
X8131456Y-16982936D02*
X8121932Y-16963889D01*
X8121932Y-16963889D02*
X8112408Y-16925793D01*
X8112408Y-16925793D02*
X8112408Y-16878174D01*
X8112408Y-16878174D02*
X8121932Y-16840079D01*
X8121932Y-16840079D02*
X8131456Y-16821031D01*
X8131456Y-16821031D02*
X8140979Y-16811508D01*
X8140979Y-16811508D02*
X8160027Y-16801984D01*
X8302884Y-16801984D02*
X8302884Y-16840079D01*
X8379075Y-16801984D02*
X8379075Y-16840079D01*
X8674313Y-17078174D02*
X8664789Y-17068650D01*
X8664789Y-17068650D02*
X8645741Y-17040079D01*
X8645741Y-17040079D02*
X8636218Y-17021031D01*
X8636218Y-17021031D02*
X8626694Y-16992460D01*
X8626694Y-16992460D02*
X8617170Y-16944841D01*
X8617170Y-16944841D02*
X8617170Y-16906746D01*
X8617170Y-16906746D02*
X8626694Y-16859127D01*
X8626694Y-16859127D02*
X8636218Y-16830555D01*
X8636218Y-16830555D02*
X8645741Y-16811508D01*
X8645741Y-16811508D02*
X8664789Y-16782936D01*
X8664789Y-16782936D02*
X8674313Y-16773412D01*
X8731456Y-16801984D02*
X8864789Y-16801984D01*
X8864789Y-16801984D02*
X8779075Y-17001984D01*
X9026694Y-16801984D02*
X8988599Y-16801984D01*
X8988599Y-16801984D02*
X8969551Y-16811508D01*
X8969551Y-16811508D02*
X8960027Y-16821031D01*
X8960027Y-16821031D02*
X8940980Y-16849603D01*
X8940980Y-16849603D02*
X8931456Y-16887698D01*
X8931456Y-16887698D02*
X8931456Y-16963889D01*
X8931456Y-16963889D02*
X8940980Y-16982936D01*
X8940980Y-16982936D02*
X8950503Y-16992460D01*
X8950503Y-16992460D02*
X8969551Y-17001984D01*
X8969551Y-17001984D02*
X9007646Y-17001984D01*
X9007646Y-17001984D02*
X9026694Y-16992460D01*
X9026694Y-16992460D02*
X9036218Y-16982936D01*
X9036218Y-16982936D02*
X9045741Y-16963889D01*
X9045741Y-16963889D02*
X9045741Y-16916270D01*
X9045741Y-16916270D02*
X9036218Y-16897222D01*
X9036218Y-16897222D02*
X9026694Y-16887698D01*
X9026694Y-16887698D02*
X9007646Y-16878174D01*
X9007646Y-16878174D02*
X8969551Y-16878174D01*
X8969551Y-16878174D02*
X8950503Y-16887698D01*
X8950503Y-16887698D02*
X8940980Y-16897222D01*
X8940980Y-16897222D02*
X8931456Y-16916270D01*
X9283837Y-17001984D02*
X9283837Y-16801984D01*
X9369551Y-17001984D02*
X9369551Y-16897222D01*
X9369551Y-16897222D02*
X9360027Y-16878174D01*
X9360027Y-16878174D02*
X9340980Y-16868650D01*
X9340980Y-16868650D02*
X9312408Y-16868650D01*
X9312408Y-16868650D02*
X9293361Y-16878174D01*
X9293361Y-16878174D02*
X9283837Y-16887698D01*
X9493361Y-17001984D02*
X9474313Y-16992460D01*
X9474313Y-16992460D02*
X9464789Y-16982936D01*
X9464789Y-16982936D02*
X9455265Y-16963889D01*
X9455265Y-16963889D02*
X9455265Y-16906746D01*
X9455265Y-16906746D02*
X9464789Y-16887698D01*
X9464789Y-16887698D02*
X9474313Y-16878174D01*
X9474313Y-16878174D02*
X9493361Y-16868650D01*
X9493361Y-16868650D02*
X9521932Y-16868650D01*
X9521932Y-16868650D02*
X9540980Y-16878174D01*
X9540980Y-16878174D02*
X9550503Y-16887698D01*
X9550503Y-16887698D02*
X9560027Y-16906746D01*
X9560027Y-16906746D02*
X9560027Y-16963889D01*
X9560027Y-16963889D02*
X9550503Y-16982936D01*
X9550503Y-16982936D02*
X9540980Y-16992460D01*
X9540980Y-16992460D02*
X9521932Y-17001984D01*
X9521932Y-17001984D02*
X9493361Y-17001984D01*
X9674313Y-17001984D02*
X9655265Y-16992460D01*
X9655265Y-16992460D02*
X9645742Y-16973412D01*
X9645742Y-16973412D02*
X9645742Y-16801984D01*
X9826694Y-16992460D02*
X9807646Y-17001984D01*
X9807646Y-17001984D02*
X9769551Y-17001984D01*
X9769551Y-17001984D02*
X9750503Y-16992460D01*
X9750503Y-16992460D02*
X9740980Y-16973412D01*
X9740980Y-16973412D02*
X9740980Y-16897222D01*
X9740980Y-16897222D02*
X9750503Y-16878174D01*
X9750503Y-16878174D02*
X9769551Y-16868650D01*
X9769551Y-16868650D02*
X9807646Y-16868650D01*
X9807646Y-16868650D02*
X9826694Y-16878174D01*
X9826694Y-16878174D02*
X9836218Y-16897222D01*
X9836218Y-16897222D02*
X9836218Y-16916270D01*
X9836218Y-16916270D02*
X9740980Y-16935317D01*
X9912408Y-16992460D02*
X9931456Y-17001984D01*
X9931456Y-17001984D02*
X9969551Y-17001984D01*
X9969551Y-17001984D02*
X9988599Y-16992460D01*
X9988599Y-16992460D02*
X9998123Y-16973412D01*
X9998123Y-16973412D02*
X9998123Y-16963889D01*
X9998123Y-16963889D02*
X9988599Y-16944841D01*
X9988599Y-16944841D02*
X9969551Y-16935317D01*
X9969551Y-16935317D02*
X9940980Y-16935317D01*
X9940980Y-16935317D02*
X9921932Y-16925793D01*
X9921932Y-16925793D02*
X9912408Y-16906746D01*
X9912408Y-16906746D02*
X9912408Y-16897222D01*
X9912408Y-16897222D02*
X9921932Y-16878174D01*
X9921932Y-16878174D02*
X9940980Y-16868650D01*
X9940980Y-16868650D02*
X9969551Y-16868650D01*
X9969551Y-16868650D02*
X9988599Y-16878174D01*
X10064789Y-17078174D02*
X10074313Y-17068650D01*
X10074313Y-17068650D02*
X10093361Y-17040079D01*
X10093361Y-17040079D02*
X10102884Y-17021031D01*
X10102884Y-17021031D02*
X10112408Y-16992460D01*
X10112408Y-16992460D02*
X10121932Y-16944841D01*
X10121932Y-16944841D02*
X10121932Y-16906746D01*
X10121932Y-16906746D02*
X10112408Y-16859127D01*
X10112408Y-16859127D02*
X10102884Y-16830555D01*
X10102884Y-16830555D02*
X10093361Y-16811508D01*
X10093361Y-16811508D02*
X10074313Y-16782936D01*
X10074313Y-16782936D02*
X10064789Y-16773412D01*
D14*
X4989250Y-17119500D02*
X5099250Y-17229500D01*
X5099250Y-17119500D02*
X4989250Y-17229500D01*
X5099250Y-17174500D02*
G75*
G02*
X4989250Y-17174500I-55000J0D01*
G01*
X4989250Y-17174500D02*
G75*
G02*
X5099250Y-17174500I55000J0D01*
G01*
D11*
X5464789Y-17265984D02*
X5350503Y-17265984D01*
X5407646Y-17265984D02*
X5407646Y-17065984D01*
X5407646Y-17065984D02*
X5388598Y-17094555D01*
X5388598Y-17094555D02*
X5369551Y-17113603D01*
X5369551Y-17113603D02*
X5350503Y-17123127D01*
X5550503Y-17246936D02*
X5560027Y-17256460D01*
X5560027Y-17256460D02*
X5550503Y-17265984D01*
X5550503Y-17265984D02*
X5540979Y-17256460D01*
X5540979Y-17256460D02*
X5550503Y-17246936D01*
X5550503Y-17246936D02*
X5550503Y-17265984D01*
X5750503Y-17265984D02*
X5636217Y-17265984D01*
X5693360Y-17265984D02*
X5693360Y-17065984D01*
X5693360Y-17065984D02*
X5674312Y-17094555D01*
X5674312Y-17094555D02*
X5655265Y-17113603D01*
X5655265Y-17113603D02*
X5636217Y-17123127D01*
X5874312Y-17065984D02*
X5893360Y-17065984D01*
X5893360Y-17065984D02*
X5912408Y-17075508D01*
X5912408Y-17075508D02*
X5921932Y-17085031D01*
X5921932Y-17085031D02*
X5931455Y-17104079D01*
X5931455Y-17104079D02*
X5940979Y-17142174D01*
X5940979Y-17142174D02*
X5940979Y-17189793D01*
X5940979Y-17189793D02*
X5931455Y-17227889D01*
X5931455Y-17227889D02*
X5921932Y-17246936D01*
X5921932Y-17246936D02*
X5912408Y-17256460D01*
X5912408Y-17256460D02*
X5893360Y-17265984D01*
X5893360Y-17265984D02*
X5874312Y-17265984D01*
X5874312Y-17265984D02*
X5855265Y-17256460D01*
X5855265Y-17256460D02*
X5845741Y-17246936D01*
X5845741Y-17246936D02*
X5836217Y-17227889D01*
X5836217Y-17227889D02*
X5826693Y-17189793D01*
X5826693Y-17189793D02*
X5826693Y-17142174D01*
X5826693Y-17142174D02*
X5836217Y-17104079D01*
X5836217Y-17104079D02*
X5845741Y-17085031D01*
X5845741Y-17085031D02*
X5855265Y-17075508D01*
X5855265Y-17075508D02*
X5874312Y-17065984D01*
X6064789Y-17065984D02*
X6083836Y-17065984D01*
X6083836Y-17065984D02*
X6102884Y-17075508D01*
X6102884Y-17075508D02*
X6112408Y-17085031D01*
X6112408Y-17085031D02*
X6121932Y-17104079D01*
X6121932Y-17104079D02*
X6131455Y-17142174D01*
X6131455Y-17142174D02*
X6131455Y-17189793D01*
X6131455Y-17189793D02*
X6121932Y-17227889D01*
X6121932Y-17227889D02*
X6112408Y-17246936D01*
X6112408Y-17246936D02*
X6102884Y-17256460D01*
X6102884Y-17256460D02*
X6083836Y-17265984D01*
X6083836Y-17265984D02*
X6064789Y-17265984D01*
X6064789Y-17265984D02*
X6045741Y-17256460D01*
X6045741Y-17256460D02*
X6036217Y-17246936D01*
X6036217Y-17246936D02*
X6026693Y-17227889D01*
X6026693Y-17227889D02*
X6017170Y-17189793D01*
X6017170Y-17189793D02*
X6017170Y-17142174D01*
X6017170Y-17142174D02*
X6026693Y-17104079D01*
X6026693Y-17104079D02*
X6036217Y-17085031D01*
X6036217Y-17085031D02*
X6045741Y-17075508D01*
X6045741Y-17075508D02*
X6064789Y-17065984D01*
X6217170Y-17265984D02*
X6217170Y-17132650D01*
X6217170Y-17151698D02*
X6226693Y-17142174D01*
X6226693Y-17142174D02*
X6245741Y-17132650D01*
X6245741Y-17132650D02*
X6274313Y-17132650D01*
X6274313Y-17132650D02*
X6293360Y-17142174D01*
X6293360Y-17142174D02*
X6302884Y-17161222D01*
X6302884Y-17161222D02*
X6302884Y-17265984D01*
X6302884Y-17161222D02*
X6312408Y-17142174D01*
X6312408Y-17142174D02*
X6331455Y-17132650D01*
X6331455Y-17132650D02*
X6360027Y-17132650D01*
X6360027Y-17132650D02*
X6379074Y-17142174D01*
X6379074Y-17142174D02*
X6388598Y-17161222D01*
X6388598Y-17161222D02*
X6388598Y-17265984D01*
X6483836Y-17265984D02*
X6483836Y-17132650D01*
X6483836Y-17151698D02*
X6493360Y-17142174D01*
X6493360Y-17142174D02*
X6512408Y-17132650D01*
X6512408Y-17132650D02*
X6540979Y-17132650D01*
X6540979Y-17132650D02*
X6560027Y-17142174D01*
X6560027Y-17142174D02*
X6569551Y-17161222D01*
X6569551Y-17161222D02*
X6569551Y-17265984D01*
X6569551Y-17161222D02*
X6579074Y-17142174D01*
X6579074Y-17142174D02*
X6598122Y-17132650D01*
X6598122Y-17132650D02*
X6626693Y-17132650D01*
X6626693Y-17132650D02*
X6645741Y-17142174D01*
X6645741Y-17142174D02*
X6655265Y-17161222D01*
X6655265Y-17161222D02*
X6655265Y-17265984D01*
X7045741Y-17056460D02*
X6874313Y-17313603D01*
X7302884Y-17065984D02*
X7321932Y-17065984D01*
X7321932Y-17065984D02*
X7340979Y-17075508D01*
X7340979Y-17075508D02*
X7350503Y-17085031D01*
X7350503Y-17085031D02*
X7360027Y-17104079D01*
X7360027Y-17104079D02*
X7369551Y-17142174D01*
X7369551Y-17142174D02*
X7369551Y-17189793D01*
X7369551Y-17189793D02*
X7360027Y-17227889D01*
X7360027Y-17227889D02*
X7350503Y-17246936D01*
X7350503Y-17246936D02*
X7340979Y-17256460D01*
X7340979Y-17256460D02*
X7321932Y-17265984D01*
X7321932Y-17265984D02*
X7302884Y-17265984D01*
X7302884Y-17265984D02*
X7283836Y-17256460D01*
X7283836Y-17256460D02*
X7274313Y-17246936D01*
X7274313Y-17246936D02*
X7264789Y-17227889D01*
X7264789Y-17227889D02*
X7255265Y-17189793D01*
X7255265Y-17189793D02*
X7255265Y-17142174D01*
X7255265Y-17142174D02*
X7264789Y-17104079D01*
X7264789Y-17104079D02*
X7274313Y-17085031D01*
X7274313Y-17085031D02*
X7283836Y-17075508D01*
X7283836Y-17075508D02*
X7302884Y-17065984D01*
X7455265Y-17246936D02*
X7464789Y-17256460D01*
X7464789Y-17256460D02*
X7455265Y-17265984D01*
X7455265Y-17265984D02*
X7445741Y-17256460D01*
X7445741Y-17256460D02*
X7455265Y-17246936D01*
X7455265Y-17246936D02*
X7455265Y-17265984D01*
X7588598Y-17065984D02*
X7607646Y-17065984D01*
X7607646Y-17065984D02*
X7626694Y-17075508D01*
X7626694Y-17075508D02*
X7636217Y-17085031D01*
X7636217Y-17085031D02*
X7645741Y-17104079D01*
X7645741Y-17104079D02*
X7655265Y-17142174D01*
X7655265Y-17142174D02*
X7655265Y-17189793D01*
X7655265Y-17189793D02*
X7645741Y-17227889D01*
X7645741Y-17227889D02*
X7636217Y-17246936D01*
X7636217Y-17246936D02*
X7626694Y-17256460D01*
X7626694Y-17256460D02*
X7607646Y-17265984D01*
X7607646Y-17265984D02*
X7588598Y-17265984D01*
X7588598Y-17265984D02*
X7569551Y-17256460D01*
X7569551Y-17256460D02*
X7560027Y-17246936D01*
X7560027Y-17246936D02*
X7550503Y-17227889D01*
X7550503Y-17227889D02*
X7540979Y-17189793D01*
X7540979Y-17189793D02*
X7540979Y-17142174D01*
X7540979Y-17142174D02*
X7550503Y-17104079D01*
X7550503Y-17104079D02*
X7560027Y-17085031D01*
X7560027Y-17085031D02*
X7569551Y-17075508D01*
X7569551Y-17075508D02*
X7588598Y-17065984D01*
X7826694Y-17132650D02*
X7826694Y-17265984D01*
X7779075Y-17056460D02*
X7731456Y-17199317D01*
X7731456Y-17199317D02*
X7855265Y-17199317D01*
X7912408Y-17065984D02*
X8036217Y-17065984D01*
X8036217Y-17065984D02*
X7969551Y-17142174D01*
X7969551Y-17142174D02*
X7998122Y-17142174D01*
X7998122Y-17142174D02*
X8017170Y-17151698D01*
X8017170Y-17151698D02*
X8026694Y-17161222D01*
X8026694Y-17161222D02*
X8036217Y-17180270D01*
X8036217Y-17180270D02*
X8036217Y-17227889D01*
X8036217Y-17227889D02*
X8026694Y-17246936D01*
X8026694Y-17246936D02*
X8017170Y-17256460D01*
X8017170Y-17256460D02*
X7998122Y-17265984D01*
X7998122Y-17265984D02*
X7940979Y-17265984D01*
X7940979Y-17265984D02*
X7921932Y-17256460D01*
X7921932Y-17256460D02*
X7912408Y-17246936D01*
X8102884Y-17065984D02*
X8226694Y-17065984D01*
X8226694Y-17065984D02*
X8160027Y-17142174D01*
X8160027Y-17142174D02*
X8188598Y-17142174D01*
X8188598Y-17142174D02*
X8207646Y-17151698D01*
X8207646Y-17151698D02*
X8217170Y-17161222D01*
X8217170Y-17161222D02*
X8226694Y-17180270D01*
X8226694Y-17180270D02*
X8226694Y-17227889D01*
X8226694Y-17227889D02*
X8217170Y-17246936D01*
X8217170Y-17246936D02*
X8207646Y-17256460D01*
X8207646Y-17256460D02*
X8188598Y-17265984D01*
X8188598Y-17265984D02*
X8131456Y-17265984D01*
X8131456Y-17265984D02*
X8112408Y-17256460D01*
X8112408Y-17256460D02*
X8102884Y-17246936D01*
X8302884Y-17065984D02*
X8302884Y-17104079D01*
X8379075Y-17065984D02*
X8379075Y-17104079D01*
X8674313Y-17342174D02*
X8664789Y-17332650D01*
X8664789Y-17332650D02*
X8645741Y-17304079D01*
X8645741Y-17304079D02*
X8636218Y-17285031D01*
X8636218Y-17285031D02*
X8626694Y-17256460D01*
X8626694Y-17256460D02*
X8617170Y-17208841D01*
X8617170Y-17208841D02*
X8617170Y-17170746D01*
X8617170Y-17170746D02*
X8626694Y-17123127D01*
X8626694Y-17123127D02*
X8636218Y-17094555D01*
X8636218Y-17094555D02*
X8645741Y-17075508D01*
X8645741Y-17075508D02*
X8664789Y-17046936D01*
X8664789Y-17046936D02*
X8674313Y-17037412D01*
X8845741Y-17065984D02*
X8750503Y-17065984D01*
X8750503Y-17065984D02*
X8740980Y-17161222D01*
X8740980Y-17161222D02*
X8750503Y-17151698D01*
X8750503Y-17151698D02*
X8769551Y-17142174D01*
X8769551Y-17142174D02*
X8817170Y-17142174D01*
X8817170Y-17142174D02*
X8836218Y-17151698D01*
X8836218Y-17151698D02*
X8845741Y-17161222D01*
X8845741Y-17161222D02*
X8855265Y-17180270D01*
X8855265Y-17180270D02*
X8855265Y-17227889D01*
X8855265Y-17227889D02*
X8845741Y-17246936D01*
X8845741Y-17246936D02*
X8836218Y-17256460D01*
X8836218Y-17256460D02*
X8817170Y-17265984D01*
X8817170Y-17265984D02*
X8769551Y-17265984D01*
X8769551Y-17265984D02*
X8750503Y-17256460D01*
X8750503Y-17256460D02*
X8740980Y-17246936D01*
X9093361Y-17265984D02*
X9093361Y-17065984D01*
X9179075Y-17265984D02*
X9179075Y-17161222D01*
X9179075Y-17161222D02*
X9169551Y-17142174D01*
X9169551Y-17142174D02*
X9150503Y-17132650D01*
X9150503Y-17132650D02*
X9121932Y-17132650D01*
X9121932Y-17132650D02*
X9102884Y-17142174D01*
X9102884Y-17142174D02*
X9093361Y-17151698D01*
X9302884Y-17265984D02*
X9283837Y-17256460D01*
X9283837Y-17256460D02*
X9274313Y-17246936D01*
X9274313Y-17246936D02*
X9264789Y-17227889D01*
X9264789Y-17227889D02*
X9264789Y-17170746D01*
X9264789Y-17170746D02*
X9274313Y-17151698D01*
X9274313Y-17151698D02*
X9283837Y-17142174D01*
X9283837Y-17142174D02*
X9302884Y-17132650D01*
X9302884Y-17132650D02*
X9331456Y-17132650D01*
X9331456Y-17132650D02*
X9350503Y-17142174D01*
X9350503Y-17142174D02*
X9360027Y-17151698D01*
X9360027Y-17151698D02*
X9369551Y-17170746D01*
X9369551Y-17170746D02*
X9369551Y-17227889D01*
X9369551Y-17227889D02*
X9360027Y-17246936D01*
X9360027Y-17246936D02*
X9350503Y-17256460D01*
X9350503Y-17256460D02*
X9331456Y-17265984D01*
X9331456Y-17265984D02*
X9302884Y-17265984D01*
X9483837Y-17265984D02*
X9464789Y-17256460D01*
X9464789Y-17256460D02*
X9455265Y-17237412D01*
X9455265Y-17237412D02*
X9455265Y-17065984D01*
X9636218Y-17256460D02*
X9617170Y-17265984D01*
X9617170Y-17265984D02*
X9579075Y-17265984D01*
X9579075Y-17265984D02*
X9560027Y-17256460D01*
X9560027Y-17256460D02*
X9550503Y-17237412D01*
X9550503Y-17237412D02*
X9550503Y-17161222D01*
X9550503Y-17161222D02*
X9560027Y-17142174D01*
X9560027Y-17142174D02*
X9579075Y-17132650D01*
X9579075Y-17132650D02*
X9617170Y-17132650D01*
X9617170Y-17132650D02*
X9636218Y-17142174D01*
X9636218Y-17142174D02*
X9645742Y-17161222D01*
X9645742Y-17161222D02*
X9645742Y-17180270D01*
X9645742Y-17180270D02*
X9550503Y-17199317D01*
X9721932Y-17256460D02*
X9740980Y-17265984D01*
X9740980Y-17265984D02*
X9779075Y-17265984D01*
X9779075Y-17265984D02*
X9798123Y-17256460D01*
X9798123Y-17256460D02*
X9807646Y-17237412D01*
X9807646Y-17237412D02*
X9807646Y-17227889D01*
X9807646Y-17227889D02*
X9798123Y-17208841D01*
X9798123Y-17208841D02*
X9779075Y-17199317D01*
X9779075Y-17199317D02*
X9750503Y-17199317D01*
X9750503Y-17199317D02*
X9731456Y-17189793D01*
X9731456Y-17189793D02*
X9721932Y-17170746D01*
X9721932Y-17170746D02*
X9721932Y-17161222D01*
X9721932Y-17161222D02*
X9731456Y-17142174D01*
X9731456Y-17142174D02*
X9750503Y-17132650D01*
X9750503Y-17132650D02*
X9779075Y-17132650D01*
X9779075Y-17132650D02*
X9798123Y-17142174D01*
X9874313Y-17342174D02*
X9883837Y-17332650D01*
X9883837Y-17332650D02*
X9902884Y-17304079D01*
X9902884Y-17304079D02*
X9912408Y-17285031D01*
X9912408Y-17285031D02*
X9921932Y-17256460D01*
X9921932Y-17256460D02*
X9931456Y-17208841D01*
X9931456Y-17208841D02*
X9931456Y-17170746D01*
X9931456Y-17170746D02*
X9921932Y-17123127D01*
X9921932Y-17123127D02*
X9912408Y-17094555D01*
X9912408Y-17094555D02*
X9902884Y-17075508D01*
X9902884Y-17075508D02*
X9883837Y-17046936D01*
X9883837Y-17046936D02*
X9874313Y-17037412D01*
D15*
X4979250Y-17378500D02*
X5099250Y-17498500D01*
X5099250Y-17378500D02*
X4979250Y-17498500D01*
X5039250Y-17378500D02*
X5039250Y-17498500D01*
X4979250Y-17438500D02*
X5099250Y-17438500D01*
D11*
X5464789Y-17529984D02*
X5350503Y-17529984D01*
X5407646Y-17529984D02*
X5407646Y-17329984D01*
X5407646Y-17329984D02*
X5388598Y-17358555D01*
X5388598Y-17358555D02*
X5369551Y-17377603D01*
X5369551Y-17377603D02*
X5350503Y-17387127D01*
X5550503Y-17510936D02*
X5560027Y-17520460D01*
X5560027Y-17520460D02*
X5550503Y-17529984D01*
X5550503Y-17529984D02*
X5540979Y-17520460D01*
X5540979Y-17520460D02*
X5550503Y-17510936D01*
X5550503Y-17510936D02*
X5550503Y-17529984D01*
X5636217Y-17349031D02*
X5645741Y-17339508D01*
X5645741Y-17339508D02*
X5664789Y-17329984D01*
X5664789Y-17329984D02*
X5712408Y-17329984D01*
X5712408Y-17329984D02*
X5731455Y-17339508D01*
X5731455Y-17339508D02*
X5740979Y-17349031D01*
X5740979Y-17349031D02*
X5750503Y-17368079D01*
X5750503Y-17368079D02*
X5750503Y-17387127D01*
X5750503Y-17387127D02*
X5740979Y-17415698D01*
X5740979Y-17415698D02*
X5626693Y-17529984D01*
X5626693Y-17529984D02*
X5750503Y-17529984D01*
X5874312Y-17329984D02*
X5893360Y-17329984D01*
X5893360Y-17329984D02*
X5912408Y-17339508D01*
X5912408Y-17339508D02*
X5921932Y-17349031D01*
X5921932Y-17349031D02*
X5931455Y-17368079D01*
X5931455Y-17368079D02*
X5940979Y-17406174D01*
X5940979Y-17406174D02*
X5940979Y-17453793D01*
X5940979Y-17453793D02*
X5931455Y-17491889D01*
X5931455Y-17491889D02*
X5921932Y-17510936D01*
X5921932Y-17510936D02*
X5912408Y-17520460D01*
X5912408Y-17520460D02*
X5893360Y-17529984D01*
X5893360Y-17529984D02*
X5874312Y-17529984D01*
X5874312Y-17529984D02*
X5855265Y-17520460D01*
X5855265Y-17520460D02*
X5845741Y-17510936D01*
X5845741Y-17510936D02*
X5836217Y-17491889D01*
X5836217Y-17491889D02*
X5826693Y-17453793D01*
X5826693Y-17453793D02*
X5826693Y-17406174D01*
X5826693Y-17406174D02*
X5836217Y-17368079D01*
X5836217Y-17368079D02*
X5845741Y-17349031D01*
X5845741Y-17349031D02*
X5855265Y-17339508D01*
X5855265Y-17339508D02*
X5874312Y-17329984D01*
X6064789Y-17329984D02*
X6083836Y-17329984D01*
X6083836Y-17329984D02*
X6102884Y-17339508D01*
X6102884Y-17339508D02*
X6112408Y-17349031D01*
X6112408Y-17349031D02*
X6121932Y-17368079D01*
X6121932Y-17368079D02*
X6131455Y-17406174D01*
X6131455Y-17406174D02*
X6131455Y-17453793D01*
X6131455Y-17453793D02*
X6121932Y-17491889D01*
X6121932Y-17491889D02*
X6112408Y-17510936D01*
X6112408Y-17510936D02*
X6102884Y-17520460D01*
X6102884Y-17520460D02*
X6083836Y-17529984D01*
X6083836Y-17529984D02*
X6064789Y-17529984D01*
X6064789Y-17529984D02*
X6045741Y-17520460D01*
X6045741Y-17520460D02*
X6036217Y-17510936D01*
X6036217Y-17510936D02*
X6026693Y-17491889D01*
X6026693Y-17491889D02*
X6017170Y-17453793D01*
X6017170Y-17453793D02*
X6017170Y-17406174D01*
X6017170Y-17406174D02*
X6026693Y-17368079D01*
X6026693Y-17368079D02*
X6036217Y-17349031D01*
X6036217Y-17349031D02*
X6045741Y-17339508D01*
X6045741Y-17339508D02*
X6064789Y-17329984D01*
X6217170Y-17529984D02*
X6217170Y-17396650D01*
X6217170Y-17415698D02*
X6226693Y-17406174D01*
X6226693Y-17406174D02*
X6245741Y-17396650D01*
X6245741Y-17396650D02*
X6274313Y-17396650D01*
X6274313Y-17396650D02*
X6293360Y-17406174D01*
X6293360Y-17406174D02*
X6302884Y-17425222D01*
X6302884Y-17425222D02*
X6302884Y-17529984D01*
X6302884Y-17425222D02*
X6312408Y-17406174D01*
X6312408Y-17406174D02*
X6331455Y-17396650D01*
X6331455Y-17396650D02*
X6360027Y-17396650D01*
X6360027Y-17396650D02*
X6379074Y-17406174D01*
X6379074Y-17406174D02*
X6388598Y-17425222D01*
X6388598Y-17425222D02*
X6388598Y-17529984D01*
X6483836Y-17529984D02*
X6483836Y-17396650D01*
X6483836Y-17415698D02*
X6493360Y-17406174D01*
X6493360Y-17406174D02*
X6512408Y-17396650D01*
X6512408Y-17396650D02*
X6540979Y-17396650D01*
X6540979Y-17396650D02*
X6560027Y-17406174D01*
X6560027Y-17406174D02*
X6569551Y-17425222D01*
X6569551Y-17425222D02*
X6569551Y-17529984D01*
X6569551Y-17425222D02*
X6579074Y-17406174D01*
X6579074Y-17406174D02*
X6598122Y-17396650D01*
X6598122Y-17396650D02*
X6626693Y-17396650D01*
X6626693Y-17396650D02*
X6645741Y-17406174D01*
X6645741Y-17406174D02*
X6655265Y-17425222D01*
X6655265Y-17425222D02*
X6655265Y-17529984D01*
X7045741Y-17320460D02*
X6874313Y-17577603D01*
X7302884Y-17329984D02*
X7321932Y-17329984D01*
X7321932Y-17329984D02*
X7340979Y-17339508D01*
X7340979Y-17339508D02*
X7350503Y-17349031D01*
X7350503Y-17349031D02*
X7360027Y-17368079D01*
X7360027Y-17368079D02*
X7369551Y-17406174D01*
X7369551Y-17406174D02*
X7369551Y-17453793D01*
X7369551Y-17453793D02*
X7360027Y-17491889D01*
X7360027Y-17491889D02*
X7350503Y-17510936D01*
X7350503Y-17510936D02*
X7340979Y-17520460D01*
X7340979Y-17520460D02*
X7321932Y-17529984D01*
X7321932Y-17529984D02*
X7302884Y-17529984D01*
X7302884Y-17529984D02*
X7283836Y-17520460D01*
X7283836Y-17520460D02*
X7274313Y-17510936D01*
X7274313Y-17510936D02*
X7264789Y-17491889D01*
X7264789Y-17491889D02*
X7255265Y-17453793D01*
X7255265Y-17453793D02*
X7255265Y-17406174D01*
X7255265Y-17406174D02*
X7264789Y-17368079D01*
X7264789Y-17368079D02*
X7274313Y-17349031D01*
X7274313Y-17349031D02*
X7283836Y-17339508D01*
X7283836Y-17339508D02*
X7302884Y-17329984D01*
X7455265Y-17510936D02*
X7464789Y-17520460D01*
X7464789Y-17520460D02*
X7455265Y-17529984D01*
X7455265Y-17529984D02*
X7445741Y-17520460D01*
X7445741Y-17520460D02*
X7455265Y-17510936D01*
X7455265Y-17510936D02*
X7455265Y-17529984D01*
X7588598Y-17329984D02*
X7607646Y-17329984D01*
X7607646Y-17329984D02*
X7626694Y-17339508D01*
X7626694Y-17339508D02*
X7636217Y-17349031D01*
X7636217Y-17349031D02*
X7645741Y-17368079D01*
X7645741Y-17368079D02*
X7655265Y-17406174D01*
X7655265Y-17406174D02*
X7655265Y-17453793D01*
X7655265Y-17453793D02*
X7645741Y-17491889D01*
X7645741Y-17491889D02*
X7636217Y-17510936D01*
X7636217Y-17510936D02*
X7626694Y-17520460D01*
X7626694Y-17520460D02*
X7607646Y-17529984D01*
X7607646Y-17529984D02*
X7588598Y-17529984D01*
X7588598Y-17529984D02*
X7569551Y-17520460D01*
X7569551Y-17520460D02*
X7560027Y-17510936D01*
X7560027Y-17510936D02*
X7550503Y-17491889D01*
X7550503Y-17491889D02*
X7540979Y-17453793D01*
X7540979Y-17453793D02*
X7540979Y-17406174D01*
X7540979Y-17406174D02*
X7550503Y-17368079D01*
X7550503Y-17368079D02*
X7560027Y-17349031D01*
X7560027Y-17349031D02*
X7569551Y-17339508D01*
X7569551Y-17339508D02*
X7588598Y-17329984D01*
X7826694Y-17396650D02*
X7826694Y-17529984D01*
X7779075Y-17320460D02*
X7731456Y-17463317D01*
X7731456Y-17463317D02*
X7855265Y-17463317D01*
X7912408Y-17329984D02*
X8045741Y-17329984D01*
X8045741Y-17329984D02*
X7960027Y-17529984D01*
X8112408Y-17349031D02*
X8121932Y-17339508D01*
X8121932Y-17339508D02*
X8140979Y-17329984D01*
X8140979Y-17329984D02*
X8188598Y-17329984D01*
X8188598Y-17329984D02*
X8207646Y-17339508D01*
X8207646Y-17339508D02*
X8217170Y-17349031D01*
X8217170Y-17349031D02*
X8226694Y-17368079D01*
X8226694Y-17368079D02*
X8226694Y-17387127D01*
X8226694Y-17387127D02*
X8217170Y-17415698D01*
X8217170Y-17415698D02*
X8102884Y-17529984D01*
X8102884Y-17529984D02*
X8226694Y-17529984D01*
X8302884Y-17329984D02*
X8302884Y-17368079D01*
X8379075Y-17329984D02*
X8379075Y-17368079D01*
X8674313Y-17606174D02*
X8664789Y-17596650D01*
X8664789Y-17596650D02*
X8645741Y-17568079D01*
X8645741Y-17568079D02*
X8636218Y-17549031D01*
X8636218Y-17549031D02*
X8626694Y-17520460D01*
X8626694Y-17520460D02*
X8617170Y-17472841D01*
X8617170Y-17472841D02*
X8617170Y-17434746D01*
X8617170Y-17434746D02*
X8626694Y-17387127D01*
X8626694Y-17387127D02*
X8636218Y-17358555D01*
X8636218Y-17358555D02*
X8645741Y-17339508D01*
X8645741Y-17339508D02*
X8664789Y-17310936D01*
X8664789Y-17310936D02*
X8674313Y-17301412D01*
X8855265Y-17529984D02*
X8740980Y-17529984D01*
X8798122Y-17529984D02*
X8798122Y-17329984D01*
X8798122Y-17329984D02*
X8779075Y-17358555D01*
X8779075Y-17358555D02*
X8760027Y-17377603D01*
X8760027Y-17377603D02*
X8740980Y-17387127D01*
X8921932Y-17329984D02*
X9055265Y-17329984D01*
X9055265Y-17329984D02*
X8969551Y-17529984D01*
X9283837Y-17529984D02*
X9283837Y-17329984D01*
X9369551Y-17529984D02*
X9369551Y-17425222D01*
X9369551Y-17425222D02*
X9360027Y-17406174D01*
X9360027Y-17406174D02*
X9340980Y-17396650D01*
X9340980Y-17396650D02*
X9312408Y-17396650D01*
X9312408Y-17396650D02*
X9293361Y-17406174D01*
X9293361Y-17406174D02*
X9283837Y-17415698D01*
X9493361Y-17529984D02*
X9474313Y-17520460D01*
X9474313Y-17520460D02*
X9464789Y-17510936D01*
X9464789Y-17510936D02*
X9455265Y-17491889D01*
X9455265Y-17491889D02*
X9455265Y-17434746D01*
X9455265Y-17434746D02*
X9464789Y-17415698D01*
X9464789Y-17415698D02*
X9474313Y-17406174D01*
X9474313Y-17406174D02*
X9493361Y-17396650D01*
X9493361Y-17396650D02*
X9521932Y-17396650D01*
X9521932Y-17396650D02*
X9540980Y-17406174D01*
X9540980Y-17406174D02*
X9550503Y-17415698D01*
X9550503Y-17415698D02*
X9560027Y-17434746D01*
X9560027Y-17434746D02*
X9560027Y-17491889D01*
X9560027Y-17491889D02*
X9550503Y-17510936D01*
X9550503Y-17510936D02*
X9540980Y-17520460D01*
X9540980Y-17520460D02*
X9521932Y-17529984D01*
X9521932Y-17529984D02*
X9493361Y-17529984D01*
X9674313Y-17529984D02*
X9655265Y-17520460D01*
X9655265Y-17520460D02*
X9645742Y-17501412D01*
X9645742Y-17501412D02*
X9645742Y-17329984D01*
X9826694Y-17520460D02*
X9807646Y-17529984D01*
X9807646Y-17529984D02*
X9769551Y-17529984D01*
X9769551Y-17529984D02*
X9750503Y-17520460D01*
X9750503Y-17520460D02*
X9740980Y-17501412D01*
X9740980Y-17501412D02*
X9740980Y-17425222D01*
X9740980Y-17425222D02*
X9750503Y-17406174D01*
X9750503Y-17406174D02*
X9769551Y-17396650D01*
X9769551Y-17396650D02*
X9807646Y-17396650D01*
X9807646Y-17396650D02*
X9826694Y-17406174D01*
X9826694Y-17406174D02*
X9836218Y-17425222D01*
X9836218Y-17425222D02*
X9836218Y-17444270D01*
X9836218Y-17444270D02*
X9740980Y-17463317D01*
X9912408Y-17520460D02*
X9931456Y-17529984D01*
X9931456Y-17529984D02*
X9969551Y-17529984D01*
X9969551Y-17529984D02*
X9988599Y-17520460D01*
X9988599Y-17520460D02*
X9998123Y-17501412D01*
X9998123Y-17501412D02*
X9998123Y-17491889D01*
X9998123Y-17491889D02*
X9988599Y-17472841D01*
X9988599Y-17472841D02*
X9969551Y-17463317D01*
X9969551Y-17463317D02*
X9940980Y-17463317D01*
X9940980Y-17463317D02*
X9921932Y-17453793D01*
X9921932Y-17453793D02*
X9912408Y-17434746D01*
X9912408Y-17434746D02*
X9912408Y-17425222D01*
X9912408Y-17425222D02*
X9921932Y-17406174D01*
X9921932Y-17406174D02*
X9940980Y-17396650D01*
X9940980Y-17396650D02*
X9969551Y-17396650D01*
X9969551Y-17396650D02*
X9988599Y-17406174D01*
X10064789Y-17606174D02*
X10074313Y-17596650D01*
X10074313Y-17596650D02*
X10093361Y-17568079D01*
X10093361Y-17568079D02*
X10102884Y-17549031D01*
X10102884Y-17549031D02*
X10112408Y-17520460D01*
X10112408Y-17520460D02*
X10121932Y-17472841D01*
X10121932Y-17472841D02*
X10121932Y-17434746D01*
X10121932Y-17434746D02*
X10112408Y-17387127D01*
X10112408Y-17387127D02*
X10102884Y-17358555D01*
X10102884Y-17358555D02*
X10093361Y-17339508D01*
X10093361Y-17339508D02*
X10074313Y-17310936D01*
X10074313Y-17310936D02*
X10064789Y-17301412D01*
M02*
