%TF.GenerationSoftware,KiCad,Pcbnew,9.0.4*%
%TF.CreationDate,2025-11-06T18:53:12+07:00*%
%TF.ProjectId,RIP_ExtensionBoard,5249505f-4578-4746-956e-73696f6e426f,1*%
%TF.SameCoordinates,Original*%
%TF.FileFunction,Soldermask,Bot*%
%TF.FilePolarity,Negative*%
%FSLAX46Y46*%
G04 Gerber Fmt 4.6, Leading zero omitted, Abs format (unit mm)*
G04 Created by KiCad (PCBNEW 9.0.4) date 2025-11-06 18:53:12*
%MOMM*%
%LPD*%
G01*
G04 APERTURE LIST*
G04 Aperture macros list*
%AMRoundRect*
0 Rectangle with rounded corners*
0 $1 Rounding radius*
0 $2 $3 $4 $5 $6 $7 $8 $9 X,Y pos of 4 corners*
0 Add a 4 corners polygon primitive as box body*
4,1,4,$2,$3,$4,$5,$6,$7,$8,$9,$2,$3,0*
0 Add four circle primitives for the rounded corners*
1,1,$1+$1,$2,$3*
1,1,$1+$1,$4,$5*
1,1,$1+$1,$6,$7*
1,1,$1+$1,$8,$9*
0 Add four rect primitives between the rounded corners*
20,1,$1+$1,$2,$3,$4,$5,0*
20,1,$1+$1,$4,$5,$6,$7,0*
20,1,$1+$1,$6,$7,$8,$9,0*
20,1,$1+$1,$8,$9,$2,$3,0*%
G04 Aperture macros list end*
%ADD10C,1.600000*%
%ADD11C,3.000000*%
%ADD12R,1.905000X2.000000*%
%ADD13O,1.905000X2.000000*%
%ADD14R,1.800000X1.800000*%
%ADD15C,1.800000*%
%ADD16C,3.200000*%
%ADD17RoundRect,0.102000X-0.762000X-0.762000X0.762000X-0.762000X0.762000X0.762000X-0.762000X0.762000X0*%
%ADD18C,1.728000*%
%ADD19C,3.800000*%
%ADD20R,1.700000X1.700000*%
%ADD21C,1.700000*%
%ADD22RoundRect,0.249999X-0.850001X-0.850001X0.850001X-0.850001X0.850001X0.850001X-0.850001X0.850001X0*%
%ADD23C,2.200000*%
%ADD24RoundRect,0.250000X-0.650000X-1.550000X0.650000X-1.550000X0.650000X1.550000X-0.650000X1.550000X0*%
%ADD25O,1.800000X3.600000*%
%ADD26R,1.600000X1.600000*%
%ADD27O,1.600000X1.600000*%
G04 APERTURE END LIST*
D10*
%TO.C,C2*%
X62017500Y-55870000D03*
X62017500Y-58370000D03*
%TD*%
D11*
%TO.C,H4*%
X247767500Y-148870000D03*
%TD*%
D12*
%TO.C,U2*%
X62977500Y-50320000D03*
D13*
X65517500Y-50320000D03*
X68057500Y-50320000D03*
%TD*%
D11*
%TO.C,H3*%
X54517500Y-148870000D03*
%TD*%
D14*
%TO.C,D1*%
X79247500Y-67120000D03*
D15*
X81787500Y-67120000D03*
%TD*%
D16*
%TO.C,U1*%
X126527350Y-92990000D03*
X159547350Y-145060000D03*
X174787350Y-94260000D03*
D17*
X118907350Y-96800000D03*
D18*
X121447350Y-96800000D03*
X118907350Y-99340000D03*
X121447350Y-99340000D03*
X118907350Y-101880000D03*
X121447350Y-101880000D03*
X118907350Y-104420000D03*
X121447350Y-104420000D03*
X118907350Y-106960000D03*
X121447350Y-106960000D03*
X118907350Y-109500000D03*
X121447350Y-109500000D03*
X118907350Y-112040000D03*
X121447350Y-112040000D03*
X118907350Y-114580000D03*
X121447350Y-114580000D03*
X118907350Y-117120000D03*
X121447350Y-117120000D03*
X118907350Y-119660000D03*
X121447350Y-119660000D03*
X118907350Y-122200000D03*
X121447350Y-122200000D03*
X118907350Y-124740000D03*
X121447350Y-124740000D03*
X118907350Y-127280000D03*
X121447350Y-127280000D03*
X118907350Y-129820000D03*
X121447350Y-129820000D03*
X118907350Y-132360000D03*
X121447350Y-132360000D03*
X118907350Y-134900000D03*
X121447350Y-134900000D03*
X118907350Y-137440000D03*
X121447350Y-137440000D03*
X118907350Y-139980000D03*
X121447350Y-139980000D03*
X118907350Y-142520000D03*
X121447350Y-142520000D03*
X179867350Y-96800000D03*
X182407350Y-96800000D03*
X179867350Y-99340000D03*
X182407350Y-99340000D03*
X179867350Y-101880000D03*
X182407350Y-101880000D03*
X179867350Y-104420000D03*
X182407350Y-104420000D03*
X179867350Y-106960000D03*
X182407350Y-106960000D03*
X179867350Y-109500000D03*
X182407350Y-109500000D03*
X179867350Y-112040000D03*
X182407350Y-112040000D03*
X179867350Y-114580000D03*
X182407350Y-114580000D03*
X179867350Y-117120000D03*
X182407350Y-117120000D03*
X179867350Y-119660000D03*
X182407350Y-119660000D03*
X179867350Y-122200000D03*
X182407350Y-122200000D03*
X179867350Y-124740000D03*
X182407350Y-124740000D03*
X179867350Y-127280000D03*
X182407350Y-127280000D03*
X179867350Y-129820000D03*
X182407350Y-129820000D03*
X179867350Y-132360000D03*
X182407350Y-132360000D03*
X179867350Y-134900000D03*
X182407350Y-134900000D03*
X179867350Y-137440000D03*
X182407350Y-137440000D03*
X179867350Y-139980000D03*
X182407350Y-139980000D03*
X179867350Y-142520000D03*
X182407350Y-142520000D03*
%TD*%
D19*
%TO.C,H6*%
X189767500Y-78620000D03*
%TD*%
D10*
%TO.C,R1*%
X71467500Y-68870000D03*
X58767500Y-68870000D03*
%TD*%
%TO.C,R4*%
X98137500Y-67120000D03*
X85437500Y-67120000D03*
%TD*%
D20*
%TO.C,J7*%
X239400000Y-61300000D03*
D21*
X239400000Y-58760000D03*
X239400000Y-56220000D03*
X239400000Y-53680000D03*
X239400000Y-51140000D03*
X239400000Y-48600000D03*
%TD*%
D10*
%TO.C,R2*%
X71467500Y-74370000D03*
X58767500Y-74370000D03*
%TD*%
D22*
%TO.C,D2*%
X206107500Y-66370000D03*
D23*
X216267500Y-66370000D03*
%TD*%
D10*
%TO.C,R5*%
X232037500Y-68620000D03*
X219337500Y-68620000D03*
%TD*%
%TO.C,R3*%
X71467500Y-63370000D03*
X58767500Y-63370000D03*
%TD*%
%TO.C,R6*%
X219417500Y-63870000D03*
X232117500Y-63870000D03*
%TD*%
D11*
%TO.C,H2*%
X247767500Y-47370000D03*
%TD*%
%TO.C,H1*%
X54267500Y-47370000D03*
%TD*%
D19*
%TO.C,H5*%
X195517500Y-66370000D03*
%TD*%
D10*
%TO.C,C1*%
X68267500Y-55870000D03*
X68267500Y-58370000D03*
%TD*%
D24*
%TO.C,J1*%
X80185000Y-53550000D03*
D25*
X85265000Y-53550000D03*
%TD*%
D24*
%TO.C,J2*%
X140760000Y-53550000D03*
D25*
X145840000Y-53550000D03*
X150920000Y-53550000D03*
%TD*%
D26*
%TO.C,A1*%
X57147500Y-106920000D03*
D27*
X57147500Y-109460000D03*
X57147500Y-112000000D03*
X57147500Y-114540000D03*
X57147500Y-117080000D03*
X57147500Y-119620000D03*
X57147500Y-122160000D03*
X57147500Y-124700000D03*
X57147500Y-129780000D03*
X57147500Y-132320000D03*
X57147500Y-134860000D03*
X57147500Y-137400000D03*
X57147500Y-139940000D03*
X57147500Y-142480000D03*
X105407500Y-142480000D03*
X105407500Y-139940000D03*
X105407500Y-137400000D03*
X105407500Y-134860000D03*
X105407500Y-132320000D03*
X105407500Y-129780000D03*
X105407500Y-127240000D03*
X105407500Y-124700000D03*
X105407500Y-120640000D03*
X105407500Y-118100000D03*
X105407500Y-115560000D03*
X105407500Y-113020000D03*
X105407500Y-110480000D03*
X105407500Y-107940000D03*
X105407500Y-105400000D03*
X105407500Y-102860000D03*
X105407500Y-100320000D03*
X105407500Y-97780000D03*
%TD*%
D24*
%TO.C,J4*%
X170947500Y-53550000D03*
D25*
X176027500Y-53550000D03*
X181107500Y-53550000D03*
X186187500Y-53550000D03*
%TD*%
D24*
%TO.C,J3*%
X102952500Y-53550000D03*
D25*
X108032500Y-53550000D03*
X113112500Y-53550000D03*
X118192500Y-53550000D03*
%TD*%
D24*
%TO.C,J5*%
X205490000Y-53522500D03*
D25*
X210570000Y-53522500D03*
X215650000Y-53522500D03*
X220730000Y-53522500D03*
%TD*%
D26*
%TO.C,A2*%
X243657500Y-113270000D03*
D27*
X243657500Y-110730000D03*
X243657500Y-108190000D03*
X243657500Y-105650000D03*
X243657500Y-103110000D03*
X243657500Y-100570000D03*
X243657500Y-98030000D03*
X243657500Y-95490000D03*
X243657500Y-90410000D03*
X243657500Y-87870000D03*
X243657500Y-85330000D03*
X243657500Y-82790000D03*
X243657500Y-80250000D03*
X243657500Y-77710000D03*
X195397500Y-77710000D03*
X195397500Y-80250000D03*
X195397500Y-82790000D03*
X195397500Y-85330000D03*
X195397500Y-87870000D03*
X195397500Y-90410000D03*
X195397500Y-92950000D03*
X195397500Y-95490000D03*
X195397500Y-99550000D03*
X195397500Y-102090000D03*
X195397500Y-104630000D03*
X195397500Y-107170000D03*
X195397500Y-109710000D03*
X195397500Y-112250000D03*
X195397500Y-114790000D03*
X195397500Y-117330000D03*
X195397500Y-119870000D03*
X195397500Y-122410000D03*
%TD*%
M02*
