%TF.GenerationSoftware,KiCad,Pcbnew,9.0.4*%
%TF.CreationDate,2025-11-11T15:23:12+07:00*%
%TF.ProjectId,RIP_ExtensionBoard,5249505f-4578-4746-956e-73696f6e426f,1*%
%TF.SameCoordinates,Original*%
%TF.FileFunction,Copper,L2,Bot*%
%TF.FilePolarity,Positive*%
%FSLAX46Y46*%
G04 Gerber Fmt 4.6, Leading zero omitted, Abs format (unit mm)*
G04 Created by KiCad (PCBNEW 9.0.4) date 2025-11-11 15:23:12*
%MOMM*%
%LPD*%
G01*
G04 APERTURE LIST*
G04 Aperture macros list*
%AMRoundRect*
0 Rectangle with rounded corners*
0 $1 Rounding radius*
0 $2 $3 $4 $5 $6 $7 $8 $9 X,Y pos of 4 corners*
0 Add a 4 corners polygon primitive as box body*
4,1,4,$2,$3,$4,$5,$6,$7,$8,$9,$2,$3,0*
0 Add four circle primitives for the rounded corners*
1,1,$1+$1,$2,$3*
1,1,$1+$1,$4,$5*
1,1,$1+$1,$6,$7*
1,1,$1+$1,$8,$9*
0 Add four rect primitives between the rounded corners*
20,1,$1+$1,$2,$3,$4,$5,0*
20,1,$1+$1,$4,$5,$6,$7,0*
20,1,$1+$1,$6,$7,$8,$9,0*
20,1,$1+$1,$8,$9,$2,$3,0*%
G04 Aperture macros list end*
%TA.AperFunction,ComponentPad*%
%ADD10C,1.600000*%
%TD*%
%TA.AperFunction,ComponentPad*%
%ADD11R,1.905000X2.000000*%
%TD*%
%TA.AperFunction,ComponentPad*%
%ADD12O,1.905000X2.000000*%
%TD*%
%TA.AperFunction,ComponentPad*%
%ADD13R,1.800000X1.800000*%
%TD*%
%TA.AperFunction,ComponentPad*%
%ADD14C,1.800000*%
%TD*%
%TA.AperFunction,ComponentPad*%
%ADD15R,1.524000X1.524000*%
%TD*%
%TA.AperFunction,ComponentPad*%
%ADD16C,1.524000*%
%TD*%
%TA.AperFunction,ComponentPad*%
%ADD17R,1.700000X1.700000*%
%TD*%
%TA.AperFunction,ComponentPad*%
%ADD18C,1.700000*%
%TD*%
%TA.AperFunction,ComponentPad*%
%ADD19RoundRect,0.249999X-0.850001X-0.850001X0.850001X-0.850001X0.850001X0.850001X-0.850001X0.850001X0*%
%TD*%
%TA.AperFunction,ComponentPad*%
%ADD20C,2.200000*%
%TD*%
%TA.AperFunction,ComponentPad*%
%ADD21RoundRect,0.250000X-0.650000X-1.550000X0.650000X-1.550000X0.650000X1.550000X-0.650000X1.550000X0*%
%TD*%
%TA.AperFunction,ComponentPad*%
%ADD22O,1.800000X3.600000*%
%TD*%
%TA.AperFunction,ComponentPad*%
%ADD23R,1.600000X1.600000*%
%TD*%
%TA.AperFunction,ComponentPad*%
%ADD24O,1.600000X1.600000*%
%TD*%
%TA.AperFunction,ViaPad*%
%ADD25C,1.200000*%
%TD*%
%TA.AperFunction,Conductor*%
%ADD26C,0.381000*%
%TD*%
%TA.AperFunction,Conductor*%
%ADD27C,1.270000*%
%TD*%
%TA.AperFunction,Conductor*%
%ADD28C,0.800000*%
%TD*%
G04 APERTURE END LIST*
D10*
%TO.P,C2,1*%
%TO.N,+3.3V*%
X62017500Y-55870000D03*
%TO.P,C2,2*%
%TO.N,GND*%
X62017500Y-58370000D03*
%TD*%
D11*
%TO.P,U2,1,ADJ*%
%TO.N,GND*%
X62977500Y-50320000D03*
D12*
%TO.P,U2,2,VO*%
%TO.N,+3.3V*%
X65517500Y-50320000D03*
%TO.P,U2,3,VI*%
%TO.N,+5V*%
X68057500Y-50320000D03*
%TD*%
D13*
%TO.P,D1,1,K*%
%TO.N,GND*%
X56335000Y-67925000D03*
D14*
%TO.P,D1,2,A*%
%TO.N,Net-(D1-A)*%
X58875000Y-67925000D03*
%TD*%
D15*
%TO.P,U1,CN7_1,PC10*%
%TO.N,C3*%
X118907350Y-96800000D03*
D16*
%TO.P,U1,CN7_2,PC11*%
%TO.N,C5*%
X121447350Y-96800000D03*
%TO.P,U1,CN7_3,PC12*%
%TO.N,C2*%
X118907350Y-99340000D03*
%TO.P,U1,CN7_4,PD2*%
%TO.N,C4*%
X121447350Y-99340000D03*
%TO.P,U1,CN7_5,VDD*%
%TO.N,unconnected-(U1A-VDD-PadCN7_5)*%
X118907350Y-101880000D03*
%TO.P,U1,CN7_6,E5V*%
%TO.N,+5V*%
X121447350Y-101880000D03*
%TO.P,U1,CN7_7,P8-BOOT0*%
%TO.N,unconnected-(U1A-P8-BOOT0-PadCN7_7)*%
X118907350Y-104420000D03*
%TO.P,U1,CN7_8,GND_CN7_8*%
%TO.N,GND*%
X121447350Y-104420000D03*
%TO.P,U1,CN7_9,NC_CN7_9*%
%TO.N,unconnected-(U1A-NC_CN7_9-PadCN7_9)*%
X118907350Y-106960000D03*
%TO.P,U1,CN7_10,NC_CN7_10*%
%TO.N,unconnected-(U1A-NC_CN7_10-PadCN7_10)*%
X121447350Y-106960000D03*
%TO.P,U1,CN7_11,NC_CN7_11*%
%TO.N,unconnected-(U1A-NC_CN7_11-PadCN7_11)*%
X118907350Y-109500000D03*
%TO.P,U1,CN7_12,IOREF*%
%TO.N,unconnected-(U1A-IOREF-PadCN7_12)*%
X121447350Y-109500000D03*
%TO.P,U1,CN7_13,PA13*%
%TO.N,unconnected-(U1A-PA13-PadCN7_13)*%
X118907350Y-112040000D03*
%TO.P,U1,CN7_14,~{RST}*%
%TO.N,unconnected-(U1A-~{RST}-PadCN7_14)*%
X121447350Y-112040000D03*
%TO.P,U1,CN7_15,PA14*%
%TO.N,unconnected-(U1A-PA14-PadCN7_15)*%
X118907350Y-114580000D03*
%TO.P,U1,CN7_16,+3V3*%
%TO.N,unconnected-(U1A-+3V3-PadCN7_16)*%
X121447350Y-114580000D03*
%TO.P,U1,CN7_17,PA15*%
%TO.N,C1*%
X118907350Y-117120000D03*
%TO.P,U1,CN7_18,+5V*%
%TO.N,unconnected-(U1A-+5V-PadCN7_18)*%
X121447350Y-117120000D03*
%TO.P,U1,CN7_19,GND_CN7_19*%
%TO.N,GND*%
X118907350Y-119660000D03*
%TO.P,U1,CN7_20,GND_CN7_20*%
X121447350Y-119660000D03*
%TO.P,U1,CN7_21,PB7*%
%TO.N,C0*%
X118907350Y-122200000D03*
%TO.P,U1,CN7_22,GND_CN7_22*%
%TO.N,GND*%
X121447350Y-122200000D03*
%TO.P,U1,CN7_23,PC13*%
%TO.N,unconnected-(U1A-PC13-PadCN7_23)*%
X118907350Y-124740000D03*
%TO.P,U1,CN7_24,VIN*%
%TO.N,unconnected-(U1A-VIN-PadCN7_24)*%
X121447350Y-124740000D03*
%TO.P,U1,CN7_25,PC14*%
%TO.N,unconnected-(U1A-PC14-PadCN7_25)*%
X118907350Y-127280000D03*
%TO.P,U1,CN7_26,NC_CN7_26*%
%TO.N,unconnected-(U1A-NC_CN7_26-PadCN7_26)*%
X121447350Y-127280000D03*
%TO.P,U1,CN7_27,PC15*%
%TO.N,unconnected-(U1A-PC15-PadCN7_27)*%
X118907350Y-129820000D03*
%TO.P,U1,CN7_28,PA0*%
%TO.N,RSTn*%
X121447350Y-129820000D03*
%TO.P,U1,CN7_29,PF0*%
%TO.N,unconnected-(U1A-PF0-PadCN7_29)*%
X118907350Y-132360000D03*
%TO.P,U1,CN7_30,PA1*%
%TO.N,LAT*%
X121447350Y-132360000D03*
%TO.P,U1,CN7_31,PF1*%
%TO.N,unconnected-(U1A-PF1-PadCN7_31)*%
X118907350Y-134900000D03*
%TO.P,U1,CN7_32,PA4*%
%TO.N,theta_B*%
X121447350Y-134900000D03*
%TO.P,U1,CN7_33,VBAT*%
%TO.N,unconnected-(U1A-VBAT-PadCN7_33)*%
X118907350Y-137440000D03*
%TO.P,U1,CN7_34,PB0*%
%TO.N,SB*%
X121447350Y-137440000D03*
%TO.P,U1,CN7_35,PC2*%
%TO.N,C7*%
X118907350Y-139980000D03*
%TO.P,U1,CN7_36,PC1/PB9*%
%TO.N,SCK*%
X121447350Y-139980000D03*
%TO.P,U1,CN7_37,PC3*%
%TO.N,C6*%
X118907350Y-142520000D03*
%TO.P,U1,CN7_38,PC0/PA15*%
%TO.N,SDA*%
X121447350Y-142520000D03*
%TO.P,U1,CN10_1,PC9*%
%TO.N,Emergency*%
X179867350Y-96800000D03*
%TO.P,U1,CN10_2,PC8*%
%TO.N,LCD_D2*%
X182407350Y-96800000D03*
%TO.P,U1,CN10_3,PB8*%
%TO.N,STM_RX*%
X179867350Y-99340000D03*
%TO.P,U1,CN10_4,PC6*%
%TO.N,LCD_D3*%
X182407350Y-99340000D03*
%TO.P,U1,CN10_5,PB9*%
%TO.N,STM_TX*%
X179867350Y-101880000D03*
%TO.P,U1,CN10_6,PC5*%
%TO.N,LCD_D4*%
X182407350Y-101880000D03*
%TO.P,U1,CN10_7,AVDD*%
%TO.N,unconnected-(U1B-AVDD-PadCN10_7)*%
X179867350Y-104420000D03*
%TO.P,U1,CN10_8,5V_USB_CHGR*%
%TO.N,unconnected-(U1B-5V_USB_CHGR-PadCN10_8)*%
X182407350Y-104420000D03*
%TO.P,U1,CN10_9,GND_CN10_9*%
%TO.N,GND*%
X179867350Y-106960000D03*
%TO.P,U1,CN10_10,NC_CN10_10*%
%TO.N,unconnected-(U1B-NC_CN10_10-PadCN10_10)*%
X182407350Y-106960000D03*
%TO.P,U1,CN10_11,PA5*%
%TO.N,unconnected-(U1B-PA5-PadCN10_11)*%
X179867350Y-109500000D03*
%TO.P,U1,CN10_12,PA12*%
%TO.N,alpha_B*%
X182407350Y-109500000D03*
%TO.P,U1,CN10_13,PA6*%
%TO.N,theta_A*%
X179867350Y-112040000D03*
%TO.P,U1,CN10_14,PA11*%
%TO.N,alpha_A*%
X182407350Y-112040000D03*
%TO.P,U1,CN10_15,PA7*%
%TO.N,unconnected-(U1B-PA7-PadCN10_15)*%
X179867350Y-114580000D03*
%TO.P,U1,CN10_16,PB12*%
%TO.N,LCD_D5*%
X182407350Y-114580000D03*
%TO.P,U1,CN10_17,PB6*%
%TO.N,LCD_RD*%
X179867350Y-117120000D03*
%TO.P,U1,CN10_18,PB11*%
%TO.N,LCD_D6*%
X182407350Y-117120000D03*
%TO.P,U1,CN10_19,PC7*%
%TO.N,LCD_WR*%
X179867350Y-119660000D03*
%TO.P,U1,CN10_20,GND_CN10_20*%
%TO.N,unconnected-(U1B-GND_CN10_20-PadCN10_20)*%
X182407350Y-119660000D03*
%TO.P,U1,CN10_21,PA9*%
%TO.N,DIR*%
X179867350Y-122200000D03*
%TO.P,U1,CN10_22,PB2*%
%TO.N,LCD_D7*%
X182407350Y-122200000D03*
%TO.P,U1,CN10_23,PA8*%
%TO.N,PWM*%
X179867350Y-124740000D03*
%TO.P,U1,CN10_24,PB1*%
%TO.N,SD_CS*%
X182407350Y-124740000D03*
%TO.P,U1,CN10_25,PB10*%
%TO.N,LCD_RS*%
X179867350Y-127280000D03*
%TO.P,U1,CN10_26,PB15*%
%TO.N,SD_DI*%
X182407350Y-127280000D03*
%TO.P,U1,CN10_27,PB4*%
%TO.N,LCD_CS*%
X179867350Y-129820000D03*
%TO.P,U1,CN10_28,PB14*%
%TO.N,SD_DO*%
X182407350Y-129820000D03*
%TO.P,U1,CN10_29,PB5*%
%TO.N,LCD_RST*%
X179867350Y-132360000D03*
%TO.P,U1,CN10_30,PB13*%
%TO.N,SD_SCK*%
X182407350Y-132360000D03*
%TO.P,U1,CN10_31,PB3*%
%TO.N,unconnected-(U1B-PB3-PadCN10_31)*%
X179867350Y-134900000D03*
%TO.P,U1,CN10_32,AGND*%
%TO.N,unconnected-(U1B-AGND-PadCN10_32)*%
X182407350Y-134900000D03*
%TO.P,U1,CN10_33,PA10*%
%TO.N,LCD_D0*%
X179867350Y-137440000D03*
%TO.P,U1,CN10_34,PC4*%
%TO.N,LCD_D1*%
X182407350Y-137440000D03*
%TO.P,U1,CN10_35,PA2/PC4*%
%TO.N,unconnected-(U1B-PA2{slash}PC4-PadCN10_35)*%
X179867350Y-139980000D03*
%TO.P,U1,CN10_36,NC_CN10_36*%
%TO.N,unconnected-(U1B-NC_CN10_36-PadCN10_36)*%
X182407350Y-139980000D03*
%TO.P,U1,CN10_37,PA3/PC5*%
%TO.N,unconnected-(U1B-PA3{slash}PC5-PadCN10_37)*%
X179867350Y-142520000D03*
%TO.P,U1,CN10_38,NC_CN10_38*%
%TO.N,unconnected-(U1B-NC_CN10_38-PadCN10_38)*%
X182407350Y-142520000D03*
%TD*%
D10*
%TO.P,R4,1*%
%TO.N,+5V*%
X75225000Y-67925000D03*
%TO.P,R4,2*%
%TO.N,Net-(D1-A)*%
X62525000Y-67925000D03*
%TD*%
D17*
%TO.P,J7,1,Pin_1*%
%TO.N,unconnected-(J7-Pin_1-Pad1)*%
X239400000Y-61300000D03*
D18*
%TO.P,J7,2,Pin_2*%
%TO.N,STM_TX*%
X239400000Y-58760000D03*
%TO.P,J7,3,Pin_3*%
%TO.N,STM_RX*%
X239400000Y-56220000D03*
%TO.P,J7,4,Pin_4*%
%TO.N,GND*%
X239400000Y-53680000D03*
%TO.P,J7,5,Pin_5*%
%TO.N,+5V*%
X239400000Y-51140000D03*
%TO.P,J7,6,Pin_6*%
%TO.N,unconnected-(J7-Pin_6-Pad6)*%
X239400000Y-48600000D03*
%TD*%
D19*
%TO.P,D2,1,K*%
%TO.N,Emergency*%
X206107500Y-66370000D03*
D20*
%TO.P,D2,2,A*%
%TO.N,GND*%
X216267500Y-66370000D03*
%TD*%
D10*
%TO.P,R5,1*%
%TO.N,GND*%
X232037500Y-68620000D03*
%TO.P,R5,2*%
%TO.N,Net-(J5-Pin_2)*%
X219337500Y-68620000D03*
%TD*%
%TO.P,R6,1*%
%TO.N,Emergency*%
X219417500Y-63870000D03*
%TO.P,R6,2*%
%TO.N,Net-(J5-Pin_2)*%
X232117500Y-63870000D03*
%TD*%
%TO.P,C1,1*%
%TO.N,+5V*%
X68267500Y-55870000D03*
%TO.P,C1,2*%
%TO.N,GND*%
X68267500Y-58370000D03*
%TD*%
D21*
%TO.P,J1,1,Pin_1*%
%TO.N,+5V*%
X80185000Y-53550000D03*
D22*
%TO.P,J1,2,Pin_2*%
%TO.N,GND*%
X85265000Y-53550000D03*
%TD*%
D21*
%TO.P,J2,1,Pin_1*%
%TO.N,PWM*%
X140760000Y-53550000D03*
D22*
%TO.P,J2,2,Pin_2*%
%TO.N,DIR*%
X145840000Y-53550000D03*
%TO.P,J2,3,Pin_3*%
%TO.N,GND*%
X150920000Y-53550000D03*
%TD*%
D23*
%TO.P,A1,1,NC*%
%TO.N,unconnected-(A1-NC-Pad1)*%
X57147500Y-106920000D03*
D24*
%TO.P,A1,2,IOREF*%
%TO.N,unconnected-(A1-IOREF-Pad2)*%
X57147500Y-109460000D03*
%TO.P,A1,3,~{RESET}*%
%TO.N,unconnected-(A1-~{RESET}-Pad3)*%
X57147500Y-112000000D03*
%TO.P,A1,4,3V3*%
%TO.N,unconnected-(A1-3V3-Pad4)*%
X57147500Y-114540000D03*
%TO.P,A1,5,+5V*%
%TO.N,+5V*%
X57147500Y-117080000D03*
%TO.P,A1,6,GND*%
%TO.N,GND*%
X57147500Y-119620000D03*
%TO.P,A1,7,GND*%
X57147500Y-122160000D03*
%TO.P,A1,8,VIN*%
%TO.N,unconnected-(A1-VIN-Pad8)*%
X57147500Y-124700000D03*
%TO.P,A1,9,A0*%
%TO.N,SB*%
X57147500Y-129780000D03*
%TO.P,A1,10,A1*%
%TO.N,LAT*%
X57147500Y-132320000D03*
%TO.P,A1,11,A2*%
%TO.N,RSTn*%
X57147500Y-134860000D03*
%TO.P,A1,12,A3*%
%TO.N,unconnected-(A1-A3-Pad12)*%
X57147500Y-137400000D03*
%TO.P,A1,13,SDA/A4*%
%TO.N,unconnected-(A1-SDA{slash}A4-Pad13)*%
X57147500Y-139940000D03*
%TO.P,A1,14,SCL/A5*%
%TO.N,unconnected-(A1-SCL{slash}A5-Pad14)*%
X57147500Y-142480000D03*
%TO.P,A1,15,D0/RX*%
%TO.N,unconnected-(A1-D0{slash}RX-Pad15)*%
X105407500Y-142480000D03*
%TO.P,A1,16,D1/TX*%
%TO.N,unconnected-(A1-D1{slash}TX-Pad16)*%
X105407500Y-139940000D03*
%TO.P,A1,17,D2*%
%TO.N,unconnected-(A1-D2-Pad17)*%
X105407500Y-137400000D03*
%TO.P,A1,18,D3*%
%TO.N,C6*%
X105407500Y-134860000D03*
%TO.P,A1,19,D4*%
%TO.N,C7*%
X105407500Y-132320000D03*
%TO.P,A1,20,D5*%
%TO.N,unconnected-(A1-D5-Pad20)*%
X105407500Y-129780000D03*
%TO.P,A1,21,D6*%
%TO.N,SCK*%
X105407500Y-127240000D03*
%TO.P,A1,22,D7*%
%TO.N,SDA*%
X105407500Y-124700000D03*
%TO.P,A1,23,D8*%
%TO.N,C0*%
X105407500Y-120640000D03*
%TO.P,A1,24,D9*%
%TO.N,C1*%
X105407500Y-118100000D03*
%TO.P,A1,25,D10*%
%TO.N,C2*%
X105407500Y-115560000D03*
%TO.P,A1,26,D11*%
%TO.N,C3*%
X105407500Y-113020000D03*
%TO.P,A1,27,D12*%
%TO.N,C4*%
X105407500Y-110480000D03*
%TO.P,A1,28,D13*%
%TO.N,C5*%
X105407500Y-107940000D03*
%TO.P,A1,29,GND*%
%TO.N,unconnected-(A1-GND-Pad29)*%
X105407500Y-105400000D03*
%TO.P,A1,30,AREF*%
%TO.N,unconnected-(A1-AREF-Pad30)*%
X105407500Y-102860000D03*
%TO.P,A1,31,SDA/A4*%
%TO.N,unconnected-(A1-SDA{slash}A4-Pad31)*%
X105407500Y-100320000D03*
%TO.P,A1,32,SCL/A5*%
%TO.N,unconnected-(A1-SCL{slash}A5-Pad32)*%
X105407500Y-97780000D03*
%TD*%
D21*
%TO.P,J4,1,Pin_1*%
%TO.N,+3.3V*%
X170947500Y-53550000D03*
D22*
%TO.P,J4,2,Pin_2*%
%TO.N,alpha_A*%
X176027500Y-53550000D03*
%TO.P,J4,3,Pin_3*%
%TO.N,alpha_B*%
X181107500Y-53550000D03*
%TO.P,J4,4,Pin_4*%
%TO.N,GND*%
X186187500Y-53550000D03*
%TD*%
D21*
%TO.P,J3,1,Pin_1*%
%TO.N,+3.3V*%
X102952500Y-53550000D03*
D22*
%TO.P,J3,2,Pin_2*%
%TO.N,theta_A*%
X108032500Y-53550000D03*
%TO.P,J3,3,Pin_3*%
%TO.N,theta_B*%
X113112500Y-53550000D03*
%TO.P,J3,4,Pin_4*%
%TO.N,GND*%
X118192500Y-53550000D03*
%TD*%
D21*
%TO.P,J5,1,Pin_1*%
%TO.N,+5V*%
X205490000Y-53522500D03*
D22*
%TO.P,J5,2,Pin_2*%
%TO.N,Net-(J5-Pin_2)*%
X210570000Y-53522500D03*
%TO.P,J5,3,Pin_3*%
X215650000Y-53522500D03*
%TO.P,J5,4,Pin_4*%
X220730000Y-53522500D03*
%TD*%
D23*
%TO.P,A2,1,NC*%
%TO.N,unconnected-(A2-NC-Pad1)*%
X243657500Y-113270000D03*
D24*
%TO.P,A2,2,IOREF*%
%TO.N,unconnected-(A2-IOREF-Pad2)*%
X243657500Y-110730000D03*
%TO.P,A2,3,~{RESET}*%
%TO.N,unconnected-(A2-~{RESET}-Pad3)*%
X243657500Y-108190000D03*
%TO.P,A2,4,3V3*%
%TO.N,+3.3V*%
X243657500Y-105650000D03*
%TO.P,A2,5,+5V*%
%TO.N,+5V*%
X243657500Y-103110000D03*
%TO.P,A2,6,GND*%
%TO.N,unconnected-(A2-GND-Pad6)*%
X243657500Y-100570000D03*
%TO.P,A2,7,GND*%
%TO.N,GND*%
X243657500Y-98030000D03*
%TO.P,A2,8,VIN*%
%TO.N,unconnected-(A2-VIN-Pad8)*%
X243657500Y-95490000D03*
%TO.P,A2,9,A0*%
%TO.N,LCD_RD*%
X243657500Y-90410000D03*
%TO.P,A2,10,A1*%
%TO.N,LCD_WR*%
X243657500Y-87870000D03*
%TO.P,A2,11,A2*%
%TO.N,LCD_RS*%
X243657500Y-85330000D03*
%TO.P,A2,12,A3*%
%TO.N,LCD_CS*%
X243657500Y-82790000D03*
%TO.P,A2,13,SDA/A4*%
%TO.N,LCD_RST*%
X243657500Y-80250000D03*
%TO.P,A2,14,SCL/A5*%
%TO.N,unconnected-(A2-SCL{slash}A5-Pad14)*%
X243657500Y-77710000D03*
%TO.P,A2,15,D0/RX*%
%TO.N,unconnected-(A2-D0{slash}RX-Pad15)*%
X195397500Y-77710000D03*
%TO.P,A2,16,D1/TX*%
%TO.N,unconnected-(A2-D1{slash}TX-Pad16)*%
X195397500Y-80250000D03*
%TO.P,A2,17,D2*%
%TO.N,LCD_D2*%
X195397500Y-82790000D03*
%TO.P,A2,18,D3*%
%TO.N,LCD_D3*%
X195397500Y-85330000D03*
%TO.P,A2,19,D4*%
%TO.N,LCD_D4*%
X195397500Y-87870000D03*
%TO.P,A2,20,D5*%
%TO.N,LCD_D5*%
X195397500Y-90410000D03*
%TO.P,A2,21,D6*%
%TO.N,LCD_D6*%
X195397500Y-92950000D03*
%TO.P,A2,22,D7*%
%TO.N,LCD_D7*%
X195397500Y-95490000D03*
%TO.P,A2,23,D8*%
%TO.N,LCD_D0*%
X195397500Y-99550000D03*
%TO.P,A2,24,D9*%
%TO.N,LCD_D1*%
X195397500Y-102090000D03*
%TO.P,A2,25,D10*%
%TO.N,SD_CS*%
X195397500Y-104630000D03*
%TO.P,A2,26,D11*%
%TO.N,SD_DI*%
X195397500Y-107170000D03*
%TO.P,A2,27,D12*%
%TO.N,SD_DO*%
X195397500Y-109710000D03*
%TO.P,A2,28,D13*%
%TO.N,SD_SCK*%
X195397500Y-112250000D03*
%TO.P,A2,29,GND*%
%TO.N,unconnected-(A2-GND-Pad29)*%
X195397500Y-114790000D03*
%TO.P,A2,30,AREF*%
%TO.N,unconnected-(A2-AREF-Pad30)*%
X195397500Y-117330000D03*
%TO.P,A2,31,SDA/A4*%
%TO.N,unconnected-(A2-SDA{slash}A4-Pad31)*%
X195397500Y-119870000D03*
%TO.P,A2,32,SCL/A5*%
%TO.N,unconnected-(A2-SCL{slash}A5-Pad32)*%
X195397500Y-122410000D03*
%TD*%
D25*
%TO.N,+5V*%
X133650000Y-101700000D03*
X123550000Y-88375000D03*
X134250000Y-88525000D03*
%TO.N,C7*%
X116625000Y-139925000D03*
X112600000Y-139900000D03*
%TO.N,C6*%
X112525000Y-142475000D03*
X116750000Y-142500000D03*
%TO.N,C5*%
X121450000Y-95018700D03*
X121425000Y-91000000D03*
%TO.N,+3.3V*%
X177750000Y-63325000D03*
%TO.N,LCD_D0*%
X193000000Y-100550000D03*
X193000000Y-128225000D03*
%TO.N,LCD_D1*%
X191200000Y-128100000D03*
X191200000Y-102875000D03*
%TO.N,PWM*%
X175875000Y-124750000D03*
X170000000Y-124600000D03*
%TO.N,DIR*%
X175750000Y-122200000D03*
X170000000Y-122175000D03*
%TO.N,theta_A*%
X147350000Y-61775000D03*
X139150000Y-61825000D03*
%TO.N,theta_B*%
X126375000Y-134850000D03*
X123325000Y-134850000D03*
%TO.N,alpha_B*%
X186975000Y-102025000D03*
X186975000Y-70375000D03*
%TO.N,alpha_A*%
X184900000Y-110925000D03*
X184875000Y-70375000D03*
%TO.N,STM_TX*%
X172025000Y-97875000D03*
X172025000Y-100500000D03*
%TD*%
D26*
%TO.N,C0*%
X105407500Y-120640000D02*
X115915000Y-120640000D01*
X115915000Y-120640000D02*
X117475000Y-122200000D01*
X117475000Y-122200000D02*
X118907350Y-122200000D01*
D27*
%TO.N,GND*%
X241980000Y-53680000D02*
X239400000Y-53680000D01*
X179867350Y-106960000D02*
X168235000Y-106960000D01*
X62275000Y-116975000D02*
X59630000Y-119620000D01*
X241455000Y-68620000D02*
X243650000Y-66425000D01*
X155525000Y-94250000D02*
X155525000Y-64600000D01*
X56335000Y-67925000D02*
X56335000Y-72885000D01*
X241220000Y-68620000D02*
X247475000Y-74875000D01*
X247475000Y-74875000D02*
X247475000Y-96425000D01*
X60830000Y-58370000D02*
X56335000Y-62865000D01*
X243650000Y-55350000D02*
X241980000Y-53680000D01*
X216267500Y-66370000D02*
X229787500Y-66370000D01*
X229787500Y-66370000D02*
X232037500Y-68620000D01*
X56335000Y-62865000D02*
X56335000Y-67925000D01*
X62017500Y-58370000D02*
X60830000Y-58370000D01*
X62275000Y-78825000D02*
X62275000Y-116975000D01*
X155525000Y-64600000D02*
X150920000Y-59995000D01*
X168235000Y-106960000D02*
X155525000Y-94250000D01*
X68267500Y-58370000D02*
X62017500Y-58370000D01*
X232037500Y-68620000D02*
X241455000Y-68620000D01*
X56335000Y-56962500D02*
X56335000Y-62865000D01*
X150920000Y-59995000D02*
X150920000Y-53550000D01*
X59630000Y-119620000D02*
X57147500Y-119620000D01*
X232037500Y-68620000D02*
X241220000Y-68620000D01*
X247475000Y-96425000D02*
X245870000Y-98030000D01*
X245870000Y-98030000D02*
X243657500Y-98030000D01*
X62977500Y-50320000D02*
X56335000Y-56962500D01*
X57147500Y-122160000D02*
X57147500Y-119620000D01*
X56335000Y-72885000D02*
X62275000Y-78825000D01*
X243650000Y-66425000D02*
X243650000Y-55350000D01*
D26*
%TO.N,C1*%
X117030000Y-117120000D02*
X118907350Y-117120000D01*
X105407500Y-118100000D02*
X116050000Y-118100000D01*
X116050000Y-118100000D02*
X117030000Y-117120000D01*
%TO.N,SDA*%
X115150000Y-144450000D02*
X115150000Y-126700000D01*
X120550000Y-145175000D02*
X115875000Y-145175000D01*
X115875000Y-145175000D02*
X115150000Y-144450000D01*
X121447350Y-144277650D02*
X120550000Y-145175000D01*
X121447350Y-142520000D02*
X121447350Y-144277650D01*
X113150000Y-124700000D02*
X105407500Y-124700000D01*
X115150000Y-126700000D02*
X113150000Y-124700000D01*
%TO.N,SCK*%
X113825000Y-128625000D02*
X112440000Y-127240000D01*
X114800000Y-146025000D02*
X113825000Y-145050000D01*
X122900000Y-143875000D02*
X120750000Y-146025000D01*
X121447350Y-139980000D02*
X121505000Y-139980000D01*
X121505000Y-139980000D02*
X122900000Y-141375000D01*
X120750000Y-146025000D02*
X114800000Y-146025000D01*
X122900000Y-141375000D02*
X122900000Y-143875000D01*
X112440000Y-127240000D02*
X105407500Y-127240000D01*
X113825000Y-145050000D02*
X113825000Y-128625000D01*
D27*
%TO.N,+5V*%
X80185000Y-53550000D02*
X76955000Y-50320000D01*
X80185000Y-53550000D02*
X84235000Y-49500000D01*
X78975000Y-53550000D02*
X76655000Y-55870000D01*
X134650000Y-101700000D02*
X136300000Y-100050000D01*
X76655000Y-55870000D02*
X68267500Y-55870000D01*
X98137500Y-55237500D02*
X98137500Y-67120000D01*
X75225000Y-57300000D02*
X78975000Y-53550000D01*
X80185000Y-53550000D02*
X78975000Y-53550000D01*
X76955000Y-50320000D02*
X68057500Y-50320000D01*
X133650000Y-101700000D02*
X134650000Y-101700000D01*
X75225000Y-67925000D02*
X75225000Y-57300000D01*
X136300000Y-90575000D02*
X134250000Y-88525000D01*
D28*
X121517350Y-101950000D02*
X121447350Y-101880000D01*
X68267500Y-50530000D02*
X68057500Y-50320000D01*
D27*
X119392500Y-88375000D02*
X123550000Y-88375000D01*
X136300000Y-100050000D02*
X136300000Y-90575000D01*
X92400000Y-49500000D02*
X98137500Y-55237500D01*
X98137500Y-67120000D02*
X119392500Y-88375000D01*
X84235000Y-49500000D02*
X92400000Y-49500000D01*
D26*
%TO.N,C7*%
X112600000Y-139900000D02*
X112425000Y-139900000D01*
X116680000Y-139980000D02*
X116625000Y-139925000D01*
X110145000Y-132320000D02*
X105407500Y-132320000D01*
X118907350Y-139980000D02*
X116680000Y-139980000D01*
X112425000Y-139900000D02*
X111175000Y-138650000D01*
X111175000Y-138650000D02*
X111175000Y-133350000D01*
X111175000Y-133350000D02*
X110145000Y-132320000D01*
%TO.N,C3*%
X108030000Y-113020000D02*
X111800000Y-109250000D01*
X116600000Y-96800000D02*
X118907350Y-96800000D01*
X105407500Y-113020000D02*
X108030000Y-113020000D01*
X111800000Y-101600000D02*
X116600000Y-96800000D01*
X111800000Y-109250000D02*
X111800000Y-101600000D01*
%TO.N,RSTn*%
X125200000Y-144975000D02*
X121250000Y-148925000D01*
X121447350Y-129820000D02*
X121447350Y-129802650D01*
X121447350Y-129802650D02*
X121550000Y-129700000D01*
X71212500Y-148925000D02*
X57147500Y-134860000D01*
X125200000Y-131600000D02*
X125200000Y-144975000D01*
X123420000Y-129820000D02*
X125200000Y-131600000D01*
X121250000Y-148925000D02*
X71212500Y-148925000D01*
X121447350Y-129820000D02*
X123420000Y-129820000D01*
%TO.N,C2*%
X113225000Y-102225000D02*
X116110000Y-99340000D01*
X105407500Y-115560000D02*
X108090000Y-115560000D01*
X108090000Y-115560000D02*
X113225000Y-110425000D01*
X113225000Y-110425000D02*
X113225000Y-102225000D01*
X116110000Y-99340000D02*
X118907350Y-99340000D01*
%TO.N,SB*%
X123600000Y-139592650D02*
X123600000Y-144250000D01*
X121050000Y-146800000D02*
X74167500Y-146800000D01*
X121447350Y-137440000D02*
X123600000Y-139592650D01*
X123600000Y-144250000D02*
X121050000Y-146800000D01*
X74167500Y-146800000D02*
X57147500Y-129780000D01*
%TO.N,LAT*%
X121447350Y-132360000D02*
X123160000Y-132360000D01*
X72677500Y-147850000D02*
X57147500Y-132320000D01*
X121125000Y-147850000D02*
X72677500Y-147850000D01*
X123160000Y-132360000D02*
X124525000Y-133725000D01*
X124525000Y-133725000D02*
X124525000Y-144450000D01*
X124525000Y-144450000D02*
X121125000Y-147850000D01*
%TO.N,C6*%
X111175000Y-142475000D02*
X109375000Y-140675000D01*
X109375000Y-140675000D02*
X109375000Y-136300000D01*
X107935000Y-134860000D02*
X105407500Y-134860000D01*
X109375000Y-136300000D02*
X107935000Y-134860000D01*
X118907350Y-142520000D02*
X116770000Y-142520000D01*
X112525000Y-142475000D02*
X111175000Y-142475000D01*
X116770000Y-142520000D02*
X116750000Y-142500000D01*
%TO.N,C5*%
X121450000Y-96797350D02*
X121447350Y-96800000D01*
X121425000Y-91000000D02*
X121400000Y-90975000D01*
X121400000Y-90975000D02*
X118500000Y-90975000D01*
X121450000Y-95018700D02*
X121450000Y-96797350D01*
X107735000Y-107940000D02*
X105407500Y-107940000D01*
X109175000Y-100300000D02*
X109175000Y-106500000D01*
X109175000Y-106500000D02*
X107735000Y-107940000D01*
X118500000Y-90975000D02*
X109175000Y-100300000D01*
%TO.N,C4*%
X123900000Y-98625000D02*
X123185000Y-99340000D01*
X110475000Y-100875000D02*
X118425000Y-92925000D01*
X123185000Y-99340000D02*
X121447350Y-99340000D01*
X110475000Y-108075000D02*
X110475000Y-100875000D01*
X123900000Y-94250000D02*
X123900000Y-98625000D01*
X118425000Y-92925000D02*
X122575000Y-92925000D01*
X105407500Y-110480000D02*
X108070000Y-110480000D01*
X122575000Y-92925000D02*
X123900000Y-94250000D01*
X108070000Y-110480000D02*
X110475000Y-108075000D01*
D27*
%TO.N,+3.3V*%
X65517500Y-52370000D02*
X62017500Y-55870000D01*
X69346154Y-46450000D02*
X100525000Y-46450000D01*
X102952500Y-48877500D02*
X102952500Y-53550000D01*
X170947500Y-56522500D02*
X170947500Y-53550000D01*
X168100000Y-46800000D02*
X170947500Y-49647500D01*
X102952500Y-53550000D02*
X102952500Y-48697500D01*
X177750000Y-63325000D02*
X170947500Y-56522500D01*
X65517500Y-50278654D02*
X69346154Y-46450000D01*
X104850000Y-46800000D02*
X168100000Y-46800000D01*
X65517500Y-50320000D02*
X65517500Y-50278654D01*
X170947500Y-49647500D02*
X170947500Y-53550000D01*
X102952500Y-48697500D02*
X104850000Y-46800000D01*
X100525000Y-46450000D02*
X102952500Y-48877500D01*
X65517500Y-50320000D02*
X65517500Y-52370000D01*
D26*
%TO.N,SD_CS*%
X182407350Y-124740000D02*
X185135000Y-124740000D01*
X190625000Y-119250000D02*
X190625000Y-105575000D01*
X190625000Y-105575000D02*
X191570000Y-104630000D01*
X185135000Y-124740000D02*
X190625000Y-119250000D01*
X191570000Y-104630000D02*
X195397500Y-104630000D01*
%TO.N,LCD_D5*%
X191115000Y-90410000D02*
X195397500Y-90410000D01*
X187975000Y-112575000D02*
X187975000Y-93550000D01*
X187975000Y-93550000D02*
X191115000Y-90410000D01*
X185970000Y-114580000D02*
X187975000Y-112575000D01*
X182407350Y-114580000D02*
X185970000Y-114580000D01*
%TO.N,LCD_RST*%
X176587500Y-145675000D02*
X176075000Y-145162500D01*
X243657500Y-80250000D02*
X238375000Y-80250000D01*
X235200000Y-97850000D02*
X187375000Y-145675000D01*
X235200000Y-83425000D02*
X235200000Y-97850000D01*
X187375000Y-145675000D02*
X176587500Y-145675000D01*
X176075000Y-133400000D02*
X177115000Y-132360000D01*
X238375000Y-80250000D02*
X235200000Y-83425000D01*
X176075000Y-145162500D02*
X176075000Y-133400000D01*
X177115000Y-132360000D02*
X179867350Y-132360000D01*
%TO.N,LCD_D0*%
X193000000Y-138275000D02*
X193000000Y-128225000D01*
X195322500Y-99625000D02*
X195397500Y-99550000D01*
X176950000Y-139200000D02*
X176950000Y-144125000D01*
X177914800Y-145089800D02*
X186185200Y-145089800D01*
X193925000Y-99625000D02*
X195322500Y-99625000D01*
X179867350Y-137440000D02*
X178710000Y-137440000D01*
X176950000Y-144125000D02*
X177914800Y-145089800D01*
X186185200Y-145089800D02*
X193000000Y-138275000D01*
X193000000Y-100550000D02*
X193925000Y-99625000D01*
X178710000Y-137440000D02*
X176950000Y-139200000D01*
%TO.N,LCD_D2*%
X190710000Y-82790000D02*
X195397500Y-82790000D01*
X182407350Y-96800000D02*
X182407350Y-91092650D01*
X182407350Y-91092650D02*
X190710000Y-82790000D01*
%TO.N,LCD_WR*%
X238850000Y-100475000D02*
X191700000Y-147625000D01*
X173200000Y-146575000D02*
X173200000Y-121675000D01*
X241355000Y-87870000D02*
X238850000Y-90375000D01*
X174250000Y-147625000D02*
X173200000Y-146575000D01*
X173200000Y-121675000D02*
X175215000Y-119660000D01*
X175215000Y-119660000D02*
X179867350Y-119660000D01*
X243657500Y-87870000D02*
X241355000Y-87870000D01*
X191700000Y-147625000D02*
X174250000Y-147625000D01*
X238850000Y-90375000D02*
X238850000Y-100475000D01*
%TO.N,LCD_RS*%
X237725000Y-88600000D02*
X237725000Y-99675000D01*
X176395000Y-127280000D02*
X179867350Y-127280000D01*
X190425000Y-146975000D02*
X175000000Y-146975000D01*
X174225000Y-129450000D02*
X176395000Y-127280000D01*
X243657500Y-85330000D02*
X240995000Y-85330000D01*
X175000000Y-146975000D02*
X174225000Y-146200000D01*
X174225000Y-146200000D02*
X174225000Y-129450000D01*
X240995000Y-85330000D02*
X237725000Y-88600000D01*
X237725000Y-99675000D02*
X190425000Y-146975000D01*
%TO.N,SD_DI*%
X182407350Y-127280000D02*
X185270000Y-127280000D01*
X191600000Y-108350000D02*
X192780000Y-107170000D01*
X185270000Y-127280000D02*
X191600000Y-120950000D01*
X191600000Y-120950000D02*
X191600000Y-108350000D01*
X192780000Y-107170000D02*
X195397500Y-107170000D01*
%TO.N,LCD_D3*%
X182407350Y-99340000D02*
X184435000Y-99340000D01*
X184435000Y-99340000D02*
X186000000Y-97775000D01*
X186000000Y-97775000D02*
X186000000Y-90150000D01*
X190820000Y-85330000D02*
X195397500Y-85330000D01*
X186000000Y-90150000D02*
X190820000Y-85330000D01*
%TO.N,LCD_D7*%
X182407350Y-122200000D02*
X185050000Y-122200000D01*
X192260000Y-95490000D02*
X195397500Y-95490000D01*
X189700000Y-98050000D02*
X192260000Y-95490000D01*
X189700000Y-117550000D02*
X189700000Y-98050000D01*
X185050000Y-122200000D02*
X189700000Y-117550000D01*
%TO.N,LCD_D4*%
X182437350Y-101850000D02*
X184175000Y-101850000D01*
X190655000Y-87870000D02*
X195397500Y-87870000D01*
X186850000Y-99175000D02*
X186850000Y-91675000D01*
X184175000Y-101850000D02*
X186850000Y-99175000D01*
X182407350Y-101880000D02*
X182437350Y-101850000D01*
X186850000Y-91675000D02*
X190655000Y-87870000D01*
%TO.N,SD_DO*%
X192425000Y-110800000D02*
X193515000Y-109710000D01*
X185105000Y-129820000D02*
X192425000Y-122500000D01*
X193515000Y-109710000D02*
X195397500Y-109710000D01*
X192425000Y-122500000D02*
X192425000Y-110800000D01*
X182407350Y-129820000D02*
X185105000Y-129820000D01*
%TO.N,LCD_CS*%
X236450000Y-98750000D02*
X188900000Y-146300000D01*
X188900000Y-146300000D02*
X175800000Y-146300000D01*
X175800000Y-146300000D02*
X175200000Y-145700000D01*
X238935000Y-82790000D02*
X236450000Y-85275000D01*
X176780000Y-129820000D02*
X179867350Y-129820000D01*
X243657500Y-82790000D02*
X238935000Y-82790000D01*
X175200000Y-145700000D02*
X175200000Y-131400000D01*
X175200000Y-131400000D02*
X176780000Y-129820000D01*
X236450000Y-85275000D02*
X236450000Y-98750000D01*
%TO.N,LCD_D1*%
X191835000Y-102090000D02*
X195397500Y-102090000D01*
X185185000Y-137440000D02*
X182407350Y-137440000D01*
X191200000Y-128100000D02*
X191200000Y-131425000D01*
X191200000Y-102725000D02*
X191835000Y-102090000D01*
X191200000Y-102875000D02*
X191200000Y-102725000D01*
X191200000Y-131425000D02*
X185185000Y-137440000D01*
%TO.N,LCD_D6*%
X188700000Y-113225000D02*
X188700000Y-95925000D01*
X184805000Y-117120000D02*
X188700000Y-113225000D01*
X182407350Y-117120000D02*
X184805000Y-117120000D01*
X188700000Y-95925000D02*
X191675000Y-92950000D01*
X191675000Y-92950000D02*
X195397500Y-92950000D01*
%TO.N,SD_SCK*%
X185390000Y-132360000D02*
X193425000Y-124325000D01*
X193425000Y-113200000D02*
X194375000Y-112250000D01*
X193425000Y-124325000D02*
X193425000Y-113200000D01*
X194375000Y-112250000D02*
X195397500Y-112250000D01*
X182407350Y-132360000D02*
X185390000Y-132360000D01*
%TO.N,LCD_RD*%
X240150000Y-91700000D02*
X240150000Y-101775000D01*
X193650000Y-148275000D02*
X173425000Y-148275000D01*
X172225000Y-119775000D02*
X174880000Y-117120000D01*
X173425000Y-148275000D02*
X172225000Y-147075000D01*
X243657500Y-90410000D02*
X241440000Y-90410000D01*
X241440000Y-90410000D02*
X240150000Y-91700000D01*
X174880000Y-117120000D02*
X179867350Y-117120000D01*
X172225000Y-147075000D02*
X172225000Y-119775000D01*
X240150000Y-101775000D02*
X193650000Y-148275000D01*
%TO.N,Net-(D1-A)*%
X58875000Y-67925000D02*
X62525000Y-67925000D01*
%TO.N,Emergency*%
X208607500Y-63870000D02*
X219417500Y-63870000D01*
X179867350Y-87657650D02*
X179867350Y-96800000D01*
X201155000Y-66370000D02*
X179867350Y-87657650D01*
X206107500Y-66370000D02*
X208607500Y-63870000D01*
X206107500Y-66370000D02*
X201155000Y-66370000D01*
%TO.N,PWM*%
X140760000Y-97635000D02*
X140760000Y-53550000D01*
X175885000Y-124740000D02*
X175875000Y-124750000D01*
X179867350Y-124740000D02*
X175885000Y-124740000D01*
X167725000Y-124600000D02*
X140760000Y-97635000D01*
X170000000Y-124600000D02*
X167725000Y-124600000D01*
%TO.N,DIR*%
X145840000Y-98015000D02*
X170000000Y-122175000D01*
X175750000Y-122200000D02*
X179867350Y-122200000D01*
X145840000Y-53550000D02*
X145840000Y-98015000D01*
%TO.N,theta_A*%
X151825000Y-97225000D02*
X166640000Y-112040000D01*
X151825000Y-66250000D02*
X151825000Y-97225000D01*
X112875000Y-61825000D02*
X139150000Y-61825000D01*
X108032500Y-53550000D02*
X108032500Y-56982500D01*
X108032500Y-56982500D02*
X112875000Y-61825000D01*
X166640000Y-112040000D02*
X179867350Y-112040000D01*
X147350000Y-61775000D02*
X151825000Y-66250000D01*
%TO.N,theta_B*%
X105300000Y-52100000D02*
X106825000Y-50575000D01*
X111650000Y-50575000D02*
X113112500Y-52037500D01*
X106825000Y-50575000D02*
X111650000Y-50575000D01*
X105300000Y-66450000D02*
X105300000Y-52100000D01*
X129875000Y-131350000D02*
X129875000Y-91025000D01*
X123325000Y-134850000D02*
X121497350Y-134850000D01*
X121497350Y-134850000D02*
X121447350Y-134900000D01*
X129875000Y-91025000D02*
X105300000Y-66450000D01*
X113112500Y-52037500D02*
X113112500Y-53550000D01*
X126375000Y-134850000D02*
X129875000Y-131350000D01*
%TO.N,alpha_B*%
X185075000Y-109500000D02*
X186975000Y-107600000D01*
X186975000Y-65225000D02*
X181107500Y-59357500D01*
X182407350Y-109500000D02*
X185075000Y-109500000D01*
X186975000Y-70375000D02*
X186975000Y-65225000D01*
X181107500Y-59357500D02*
X181107500Y-53550000D01*
X186975000Y-107600000D02*
X186975000Y-102025000D01*
%TO.N,alpha_A*%
X184875000Y-70375000D02*
X184875000Y-66475000D01*
X184875000Y-66475000D02*
X176027500Y-57627500D01*
X182407350Y-112040000D02*
X183785000Y-112040000D01*
X176027500Y-57627500D02*
X176027500Y-53550000D01*
X183785000Y-112040000D02*
X184900000Y-110925000D01*
D27*
%TO.N,Net-(J5-Pin_2)*%
X210570000Y-53522500D02*
X220730000Y-53522500D01*
D26*
%TO.N,STM_RX*%
X179867350Y-99340000D02*
X171765000Y-99340000D01*
X170476500Y-88498500D02*
X202755000Y-56220000D01*
X170476500Y-98051500D02*
X170476500Y-88498500D01*
X202755000Y-56220000D02*
X239400000Y-56220000D01*
X171765000Y-99340000D02*
X170476500Y-98051500D01*
D28*
X239267500Y-56080000D02*
X239227500Y-56120000D01*
D26*
%TO.N,STM_TX*%
X172025000Y-97875000D02*
X172025000Y-90600000D01*
X172025000Y-101025000D02*
X172880000Y-101880000D01*
X172025000Y-100500000D02*
X172025000Y-101025000D01*
X172880000Y-101880000D02*
X179867350Y-101880000D01*
X172025000Y-90600000D02*
X203865000Y-58760000D01*
X203865000Y-58760000D02*
X239400000Y-58760000D01*
%TD*%
%TA.AperFunction,Conductor*%
%TO.N,GND*%
G36*
X99966784Y-47855185D02*
G01*
X99987426Y-47871819D01*
X101530681Y-49415074D01*
X101564166Y-49476397D01*
X101567000Y-49502755D01*
X101567000Y-51274657D01*
X101547315Y-51341696D01*
X101539102Y-51353017D01*
X101462805Y-51446587D01*
X101368589Y-51626954D01*
X101338783Y-51731124D01*
X101315467Y-51812613D01*
X101312614Y-51822583D01*
X101312613Y-51822586D01*
X101302000Y-51941966D01*
X101302000Y-55158028D01*
X101302000Y-55158033D01*
X101302001Y-55158036D01*
X101303718Y-55177345D01*
X101312613Y-55277415D01*
X101368589Y-55473045D01*
X101368590Y-55473048D01*
X101368591Y-55473049D01*
X101462802Y-55653407D01*
X101462804Y-55653409D01*
X101591390Y-55811109D01*
X101653351Y-55861631D01*
X101749093Y-55939698D01*
X101929451Y-56033909D01*
X101929453Y-56033909D01*
X101929454Y-56033910D01*
X101943343Y-56037884D01*
X102125082Y-56089886D01*
X102244463Y-56100500D01*
X103660536Y-56100499D01*
X103779918Y-56089886D01*
X103975549Y-56033909D01*
X104155907Y-55939698D01*
X104156631Y-55939107D01*
X104157106Y-55938907D01*
X104161160Y-55936236D01*
X104161657Y-55936990D01*
X104221023Y-55911992D01*
X104289854Y-55923995D01*
X104341269Y-55971305D01*
X104359000Y-56035202D01*
X104359000Y-66542684D01*
X104395160Y-66724472D01*
X104395163Y-66724484D01*
X104402562Y-66742345D01*
X104466094Y-66895727D01*
X104466099Y-66895736D01*
X104569077Y-67049852D01*
X104569080Y-67049856D01*
X128897681Y-91378456D01*
X128931166Y-91439779D01*
X128934000Y-91466137D01*
X128934000Y-130908863D01*
X128914315Y-130975902D01*
X128897681Y-130996544D01*
X126431044Y-133463181D01*
X126404116Y-133477884D01*
X126378298Y-133494477D01*
X126372097Y-133495368D01*
X126369721Y-133496666D01*
X126343363Y-133499500D01*
X126265000Y-133499500D01*
X126197961Y-133479815D01*
X126152206Y-133427011D01*
X126141000Y-133375500D01*
X126141000Y-131507319D01*
X126140999Y-131507315D01*
X126136778Y-131486096D01*
X126104838Y-131325520D01*
X126084062Y-131275364D01*
X126084062Y-131275362D01*
X126043079Y-131176421D01*
X126033904Y-131154269D01*
X125930922Y-131000147D01*
X125930919Y-131000143D01*
X124019856Y-129089080D01*
X124019852Y-129089077D01*
X123865736Y-128986099D01*
X123865723Y-128986092D01*
X123737101Y-128932816D01*
X123737100Y-128932816D01*
X123694480Y-128915162D01*
X123694472Y-128915160D01*
X123512684Y-128879000D01*
X123512680Y-128879000D01*
X122696045Y-128879000D01*
X122629006Y-128859315D01*
X122604581Y-128838000D01*
X122604465Y-128838117D01*
X122602754Y-128836406D01*
X122601765Y-128835543D01*
X122601026Y-128834678D01*
X122432674Y-128666326D01*
X122410641Y-128650319D01*
X122367975Y-128594990D01*
X122361994Y-128525377D01*
X122394599Y-128463581D01*
X122410641Y-128449681D01*
X122432674Y-128433673D01*
X122432674Y-128433672D01*
X122432678Y-128433670D01*
X122601020Y-128265328D01*
X122740956Y-128072723D01*
X122849039Y-127860599D01*
X122922607Y-127634178D01*
X122959850Y-127399036D01*
X122959850Y-127160964D01*
X122922607Y-126925822D01*
X122849039Y-126699401D01*
X122849039Y-126699400D01*
X122752064Y-126509078D01*
X122740956Y-126487277D01*
X122601020Y-126294672D01*
X122432678Y-126126330D01*
X122432674Y-126126326D01*
X122410641Y-126110319D01*
X122367975Y-126054990D01*
X122361994Y-125985377D01*
X122394599Y-125923581D01*
X122410641Y-125909681D01*
X122432674Y-125893673D01*
X122432674Y-125893672D01*
X122432678Y-125893670D01*
X122601020Y-125725328D01*
X122740956Y-125532723D01*
X122849039Y-125320599D01*
X122922607Y-125094178D01*
X122959850Y-124859036D01*
X122959850Y-124620964D01*
X122922607Y-124385822D01*
X122849039Y-124159401D01*
X122849039Y-124159400D01*
X122752064Y-123969078D01*
X122740956Y-123947277D01*
X122601020Y-123754672D01*
X122432678Y-123586330D01*
X122240073Y-123446394D01*
X122188435Y-123420083D01*
X122027949Y-123338310D01*
X122027946Y-123338309D01*
X121801529Y-123264743D01*
X121683957Y-123246121D01*
X121566386Y-123227500D01*
X121328314Y-123227500D01*
X121249933Y-123239914D01*
X121093170Y-123264743D01*
X120866753Y-123338309D01*
X120866750Y-123338310D01*
X120654626Y-123446394D01*
X120544738Y-123526232D01*
X120462022Y-123586330D01*
X120462020Y-123586332D01*
X120462019Y-123586332D01*
X120293682Y-123754669D01*
X120293675Y-123754678D01*
X120277667Y-123776711D01*
X120222337Y-123819377D01*
X120152723Y-123825355D01*
X120090929Y-123792748D01*
X120077033Y-123776711D01*
X120061024Y-123754678D01*
X120061020Y-123754672D01*
X119892678Y-123586330D01*
X119892674Y-123586326D01*
X119870641Y-123570319D01*
X119827975Y-123514990D01*
X119821994Y-123445377D01*
X119854599Y-123383581D01*
X119870641Y-123369681D01*
X119892674Y-123353673D01*
X119892674Y-123353672D01*
X119892678Y-123353670D01*
X120061020Y-123185328D01*
X120200956Y-122992723D01*
X120309039Y-122780599D01*
X120382607Y-122554178D01*
X120419850Y-122319036D01*
X120419850Y-122080964D01*
X120382607Y-121845822D01*
X120319008Y-121650082D01*
X120309040Y-121619403D01*
X120309039Y-121619400D01*
X120231480Y-121467184D01*
X120200956Y-121407277D01*
X120061020Y-121214672D01*
X119892678Y-121046330D01*
X119700073Y-120906394D01*
X119653677Y-120882754D01*
X119487949Y-120798310D01*
X119487946Y-120798309D01*
X119261529Y-120724743D01*
X119143957Y-120706121D01*
X119026386Y-120687500D01*
X118788314Y-120687500D01*
X118709933Y-120699914D01*
X118553170Y-120724743D01*
X118326753Y-120798309D01*
X118326750Y-120798310D01*
X118114626Y-120906394D01*
X118056750Y-120948444D01*
X117922022Y-121046330D01*
X117922020Y-121046332D01*
X117922018Y-121046333D01*
X117874743Y-121093608D01*
X117813420Y-121127092D01*
X117743728Y-121122107D01*
X117699382Y-121093607D01*
X116514856Y-119909080D01*
X116514852Y-119909077D01*
X116360736Y-119806099D01*
X116360723Y-119806092D01*
X116260415Y-119764544D01*
X116260414Y-119764544D01*
X116189480Y-119735162D01*
X116189472Y-119735160D01*
X116007684Y-119699000D01*
X116007680Y-119699000D01*
X106703528Y-119699000D01*
X106636489Y-119679315D01*
X106603211Y-119647887D01*
X106590155Y-119629917D01*
X106417919Y-119457681D01*
X106384434Y-119396358D01*
X106389418Y-119326666D01*
X106417919Y-119282319D01*
X106425426Y-119274812D01*
X106590155Y-119110083D01*
X106603211Y-119092112D01*
X106658541Y-119049448D01*
X106703528Y-119041000D01*
X116142681Y-119041000D01*
X116142682Y-119040999D01*
X116324480Y-119004838D01*
X116395413Y-118975455D01*
X116395415Y-118975455D01*
X116452500Y-118951809D01*
X116495730Y-118933904D01*
X116649853Y-118830922D01*
X117383456Y-118097319D01*
X117410383Y-118082615D01*
X117436202Y-118066023D01*
X117442402Y-118065131D01*
X117444779Y-118063834D01*
X117471137Y-118061000D01*
X117658655Y-118061000D01*
X117725694Y-118080685D01*
X117750118Y-118101999D01*
X117750235Y-118101883D01*
X117751945Y-118103593D01*
X117752935Y-118104457D01*
X117753673Y-118105321D01*
X117753680Y-118105328D01*
X117922022Y-118273670D01*
X118114627Y-118413606D01*
X118211709Y-118463072D01*
X118326750Y-118521689D01*
X118326753Y-118521690D01*
X118434400Y-118556666D01*
X118553172Y-118595257D01*
X118788314Y-118632500D01*
X118788315Y-118632500D01*
X119026385Y-118632500D01*
X119026386Y-118632500D01*
X119261528Y-118595257D01*
X119487949Y-118521689D01*
X119700073Y-118413606D01*
X119892678Y-118273670D01*
X120061020Y-118105328D01*
X120077031Y-118083291D01*
X120132360Y-118040625D01*
X120201973Y-118034644D01*
X120263769Y-118067249D01*
X120277669Y-118083291D01*
X120293676Y-118105324D01*
X120293680Y-118105328D01*
X120462022Y-118273670D01*
X120654627Y-118413606D01*
X120751709Y-118463072D01*
X120866750Y-118521689D01*
X120866753Y-118521690D01*
X120974400Y-118556666D01*
X121093172Y-118595257D01*
X121328314Y-118632500D01*
X121328315Y-118632500D01*
X121566385Y-118632500D01*
X121566386Y-118632500D01*
X121801528Y-118595257D01*
X122027949Y-118521689D01*
X122240073Y-118413606D01*
X122432678Y-118273670D01*
X122601020Y-118105328D01*
X122740956Y-117912723D01*
X122849039Y-117700599D01*
X122922607Y-117474178D01*
X122959850Y-117239036D01*
X122959850Y-117000964D01*
X122922607Y-116765822D01*
X122859008Y-116570082D01*
X122849040Y-116539403D01*
X122849039Y-116539400D01*
X122772445Y-116389077D01*
X122740956Y-116327277D01*
X122601020Y-116134672D01*
X122432678Y-115966330D01*
X122432674Y-115966326D01*
X122410641Y-115950319D01*
X122367975Y-115894990D01*
X122361994Y-115825377D01*
X122394599Y-115763581D01*
X122410641Y-115749681D01*
X122432674Y-115733673D01*
X122432674Y-115733672D01*
X122432678Y-115733670D01*
X122601020Y-115565328D01*
X122740956Y-115372723D01*
X122849039Y-115160599D01*
X122922607Y-114934178D01*
X122959850Y-114699036D01*
X122959850Y-114460964D01*
X122922607Y-114225822D01*
X122859008Y-114030082D01*
X122849040Y-113999403D01*
X122849039Y-113999400D01*
X122778654Y-113861264D01*
X122740956Y-113787277D01*
X122601020Y-113594672D01*
X122432678Y-113426330D01*
X122432674Y-113426326D01*
X122410641Y-113410319D01*
X122367975Y-113354990D01*
X122361994Y-113285377D01*
X122394599Y-113223581D01*
X122410641Y-113209681D01*
X122432674Y-113193673D01*
X122432674Y-113193672D01*
X122432678Y-113193670D01*
X122601020Y-113025328D01*
X122740956Y-112832723D01*
X122849039Y-112620599D01*
X122922607Y-112394178D01*
X122959850Y-112159036D01*
X122959850Y-111920964D01*
X122922607Y-111685822D01*
X122876085Y-111542642D01*
X122849040Y-111459403D01*
X122849039Y-111459400D01*
X122780652Y-111325185D01*
X122740956Y-111247277D01*
X122601020Y-111054672D01*
X122432678Y-110886330D01*
X122432674Y-110886326D01*
X122410641Y-110870319D01*
X122367975Y-110814990D01*
X122361994Y-110745377D01*
X122394599Y-110683581D01*
X122410641Y-110669681D01*
X122432674Y-110653673D01*
X122432674Y-110653672D01*
X122432678Y-110653670D01*
X122601020Y-110485328D01*
X122740956Y-110292723D01*
X122849039Y-110080599D01*
X122922607Y-109854178D01*
X122959850Y-109619036D01*
X122959850Y-109380964D01*
X122922607Y-109145822D01*
X122876085Y-109002642D01*
X122849040Y-108919403D01*
X122849039Y-108919400D01*
X122774904Y-108773904D01*
X122740956Y-108707277D01*
X122601020Y-108514672D01*
X122432678Y-108346330D01*
X122432674Y-108346326D01*
X122410641Y-108330319D01*
X122367975Y-108274990D01*
X122361994Y-108205377D01*
X122394599Y-108143581D01*
X122410641Y-108129681D01*
X122432674Y-108113673D01*
X122432674Y-108113672D01*
X122432678Y-108113670D01*
X122601020Y-107945328D01*
X122740956Y-107752723D01*
X122849039Y-107540599D01*
X122922607Y-107314178D01*
X122959850Y-107079036D01*
X122959850Y-106840964D01*
X122922607Y-106605822D01*
X122876085Y-106462642D01*
X122849040Y-106379403D01*
X122849039Y-106379400D01*
X122780652Y-106245185D01*
X122740956Y-106167277D01*
X122601020Y-105974672D01*
X122432678Y-105806330D01*
X122240073Y-105666394D01*
X122188433Y-105640082D01*
X122027949Y-105558310D01*
X122027946Y-105558309D01*
X121801529Y-105484743D01*
X121683957Y-105466121D01*
X121566386Y-105447500D01*
X121328314Y-105447500D01*
X121249933Y-105459914D01*
X121093170Y-105484743D01*
X120866753Y-105558309D01*
X120866750Y-105558310D01*
X120654626Y-105666394D01*
X120589645Y-105713606D01*
X120462022Y-105806330D01*
X120462020Y-105806332D01*
X120462019Y-105806332D01*
X120293682Y-105974669D01*
X120293675Y-105974678D01*
X120277667Y-105996711D01*
X120222337Y-106039377D01*
X120152723Y-106045355D01*
X120090929Y-106012748D01*
X120077033Y-105996711D01*
X120061024Y-105974678D01*
X120061020Y-105974672D01*
X119892678Y-105806330D01*
X119892674Y-105806326D01*
X119870641Y-105790319D01*
X119827975Y-105734990D01*
X119821994Y-105665377D01*
X119854599Y-105603581D01*
X119870641Y-105589681D01*
X119892674Y-105573673D01*
X119892674Y-105573672D01*
X119892678Y-105573670D01*
X120061020Y-105405328D01*
X120200956Y-105212723D01*
X120309039Y-105000599D01*
X120382607Y-104774178D01*
X120419850Y-104539036D01*
X120419850Y-104300964D01*
X120382607Y-104065822D01*
X120336085Y-103922642D01*
X120309040Y-103839403D01*
X120309039Y-103839400D01*
X120240652Y-103705185D01*
X120200956Y-103627277D01*
X120061020Y-103434672D01*
X119892678Y-103266330D01*
X119892674Y-103266326D01*
X119870641Y-103250319D01*
X119827975Y-103194990D01*
X119821994Y-103125377D01*
X119854599Y-103063581D01*
X119870641Y-103049681D01*
X119892674Y-103033673D01*
X119892674Y-103033672D01*
X119892678Y-103033670D01*
X120061020Y-102865328D01*
X120077031Y-102843291D01*
X120132360Y-102800625D01*
X120201973Y-102794644D01*
X120263769Y-102827249D01*
X120277669Y-102843291D01*
X120293676Y-102865324D01*
X120293679Y-102865327D01*
X120293680Y-102865328D01*
X120462022Y-103033670D01*
X120654627Y-103173606D01*
X120751709Y-103223072D01*
X120866750Y-103281689D01*
X120866753Y-103281690D01*
X120974400Y-103316666D01*
X121093172Y-103355257D01*
X121328314Y-103392500D01*
X121328315Y-103392500D01*
X121566385Y-103392500D01*
X121566386Y-103392500D01*
X121801528Y-103355257D01*
X122027949Y-103281689D01*
X122240073Y-103173606D01*
X122432678Y-103033670D01*
X122601020Y-102865328D01*
X122740956Y-102672723D01*
X122849039Y-102460599D01*
X122922607Y-102234178D01*
X122959850Y-101999036D01*
X122959850Y-101760964D01*
X122922607Y-101525822D01*
X122876085Y-101382642D01*
X122849040Y-101299403D01*
X122849039Y-101299400D01*
X122790831Y-101185162D01*
X122740956Y-101087277D01*
X122601020Y-100894672D01*
X122432678Y-100726330D01*
X122432674Y-100726326D01*
X122410641Y-100710319D01*
X122367975Y-100654990D01*
X122361994Y-100585377D01*
X122394599Y-100523581D01*
X122410641Y-100509681D01*
X122432674Y-100493673D01*
X122432674Y-100493672D01*
X122432678Y-100493670D01*
X122601020Y-100325328D01*
X122601022Y-100325324D01*
X122601026Y-100325321D01*
X122601765Y-100324457D01*
X122602127Y-100324220D01*
X122604465Y-100321883D01*
X122604956Y-100322374D01*
X122660276Y-100286271D01*
X122696045Y-100281000D01*
X123277681Y-100281000D01*
X123277682Y-100280999D01*
X123459480Y-100244838D01*
X123566470Y-100200521D01*
X123630730Y-100173904D01*
X123784853Y-100070922D01*
X124630922Y-99224853D01*
X124733904Y-99070730D01*
X124802508Y-98905104D01*
X124804838Y-98899480D01*
X124841000Y-98717680D01*
X124841000Y-94197377D01*
X124860685Y-94130338D01*
X124913489Y-94084583D01*
X124982647Y-94074639D01*
X125046203Y-94103664D01*
X125063374Y-94121889D01*
X125071635Y-94132655D01*
X125133083Y-94212736D01*
X125133089Y-94212743D01*
X125304606Y-94384260D01*
X125304612Y-94384265D01*
X125497061Y-94531936D01*
X125707138Y-94653224D01*
X125931250Y-94746054D01*
X126165561Y-94808838D01*
X126345936Y-94832584D01*
X126406061Y-94840500D01*
X126406062Y-94840500D01*
X126648639Y-94840500D01*
X126696738Y-94834167D01*
X126889139Y-94808838D01*
X127123450Y-94746054D01*
X127347562Y-94653224D01*
X127557639Y-94531936D01*
X127750088Y-94384265D01*
X127921615Y-94212738D01*
X128069286Y-94020289D01*
X128190574Y-93810212D01*
X128283404Y-93586100D01*
X128346188Y-93351789D01*
X128377850Y-93111288D01*
X128377850Y-92868712D01*
X128346188Y-92628211D01*
X128283404Y-92393900D01*
X128190574Y-92169788D01*
X128069286Y-91959711D01*
X127921615Y-91767262D01*
X127921610Y-91767256D01*
X127750093Y-91595739D01*
X127750086Y-91595733D01*
X127557643Y-91448067D01*
X127557642Y-91448066D01*
X127557639Y-91448064D01*
X127347562Y-91326776D01*
X127322133Y-91316243D01*
X127123454Y-91233947D01*
X126889135Y-91171161D01*
X126648639Y-91139500D01*
X126648638Y-91139500D01*
X126406062Y-91139500D01*
X126406061Y-91139500D01*
X126165564Y-91171161D01*
X125931245Y-91233947D01*
X125707144Y-91326773D01*
X125707135Y-91326777D01*
X125497056Y-91448067D01*
X125304613Y-91595733D01*
X125304606Y-91595739D01*
X125133089Y-91767256D01*
X125133083Y-91767263D01*
X124985417Y-91959706D01*
X124985414Y-91959710D01*
X124985414Y-91959711D01*
X124982756Y-91964315D01*
X124864127Y-92169785D01*
X124864123Y-92169794D01*
X124771297Y-92393895D01*
X124708511Y-92628214D01*
X124676850Y-92868711D01*
X124676850Y-93111288D01*
X124708511Y-93351787D01*
X124726344Y-93418338D01*
X124724681Y-93488187D01*
X124685518Y-93546050D01*
X124621290Y-93573554D01*
X124552388Y-93561967D01*
X124518888Y-93538112D01*
X123174856Y-92194080D01*
X123174852Y-92194077D01*
X123020736Y-92091099D01*
X123020723Y-92091092D01*
X122882041Y-92033649D01*
X122882040Y-92033649D01*
X122849480Y-92020162D01*
X122849472Y-92020160D01*
X122667684Y-91984000D01*
X122667680Y-91984000D01*
X122622756Y-91984000D01*
X122555717Y-91964315D01*
X122509962Y-91911511D01*
X122500018Y-91842353D01*
X122522438Y-91787115D01*
X122559499Y-91736103D01*
X122580051Y-91707816D01*
X122676557Y-91518412D01*
X122742246Y-91316243D01*
X122775500Y-91106287D01*
X122775500Y-90893713D01*
X122742246Y-90683757D01*
X122676557Y-90481588D01*
X122580051Y-90292184D01*
X122580049Y-90292181D01*
X122580048Y-90292179D01*
X122455109Y-90120213D01*
X122307077Y-89972181D01*
X122273592Y-89910858D01*
X122278576Y-89841166D01*
X122320448Y-89785233D01*
X122385912Y-89760816D01*
X122394758Y-89760500D01*
X123659040Y-89760500D01*
X123659041Y-89760500D01*
X123874439Y-89726384D01*
X124081847Y-89658993D01*
X124276160Y-89559986D01*
X124452593Y-89431800D01*
X124606800Y-89277593D01*
X124734986Y-89101160D01*
X124833993Y-88906847D01*
X124901384Y-88699439D01*
X124935500Y-88484041D01*
X124935500Y-88265959D01*
X124901384Y-88050561D01*
X124833993Y-87843153D01*
X124833991Y-87843150D01*
X124833991Y-87843148D01*
X124734985Y-87648839D01*
X124715779Y-87622404D01*
X124606800Y-87472407D01*
X124452593Y-87318200D01*
X124276160Y-87190014D01*
X124243977Y-87173616D01*
X124081851Y-87091008D01*
X123874439Y-87023616D01*
X123659041Y-86989500D01*
X123659040Y-86989500D01*
X120017755Y-86989500D01*
X119950716Y-86969815D01*
X119930074Y-86953181D01*
X99559319Y-66582426D01*
X99525834Y-66521103D01*
X99523000Y-66494745D01*
X99523000Y-55128459D01*
X99515891Y-55083576D01*
X99488884Y-54913061D01*
X99473998Y-54867246D01*
X99421493Y-54705652D01*
X99322486Y-54511340D01*
X99194300Y-54334907D01*
X93302593Y-48443200D01*
X93126160Y-48315014D01*
X92931845Y-48216005D01*
X92724442Y-48148616D01*
X92562890Y-48123029D01*
X92509041Y-48114500D01*
X84344041Y-48114500D01*
X84125959Y-48114500D01*
X84018260Y-48131558D01*
X83910560Y-48148616D01*
X83703148Y-48216008D01*
X83508839Y-48315014D01*
X83332404Y-48443202D01*
X80812425Y-50963181D01*
X80751102Y-50996666D01*
X80724744Y-50999500D01*
X79645255Y-50999500D01*
X79578216Y-50979815D01*
X79557574Y-50963181D01*
X77857595Y-49263202D01*
X77857593Y-49263200D01*
X77681160Y-49135014D01*
X77593887Y-49090546D01*
X77486845Y-49036005D01*
X77279442Y-48968616D01*
X77117890Y-48943029D01*
X77064041Y-48934500D01*
X77064040Y-48934500D01*
X69153360Y-48934500D01*
X69131427Y-48928059D01*
X69108646Y-48926158D01*
X69090781Y-48916124D01*
X69086321Y-48914815D01*
X69077873Y-48908875D01*
X69059228Y-48894568D01*
X69018026Y-48838140D01*
X69013871Y-48768394D01*
X69047034Y-48708512D01*
X69440533Y-48315014D01*
X69883728Y-47871819D01*
X69945051Y-47838334D01*
X69971409Y-47835500D01*
X99899745Y-47835500D01*
X99966784Y-47855185D01*
G37*
%TD.AperFunction*%
%TA.AperFunction,Conductor*%
G36*
X250460039Y-44640185D02*
G01*
X250505794Y-44692989D01*
X250517000Y-44744500D01*
X250517000Y-151495500D01*
X250497315Y-151562539D01*
X250444511Y-151608294D01*
X250393000Y-151619500D01*
X51642000Y-151619500D01*
X51574961Y-151599815D01*
X51529206Y-151547011D01*
X51518000Y-151495500D01*
X51518000Y-148755258D01*
X52767000Y-148755258D01*
X52767000Y-148984741D01*
X52783348Y-149108907D01*
X52796952Y-149212238D01*
X52796953Y-149212240D01*
X52856342Y-149433887D01*
X52944150Y-149645876D01*
X52944157Y-149645890D01*
X53058892Y-149844617D01*
X53198581Y-150026661D01*
X53198589Y-150026670D01*
X53360830Y-150188911D01*
X53360838Y-150188918D01*
X53542882Y-150328607D01*
X53542885Y-150328608D01*
X53542888Y-150328611D01*
X53741612Y-150443344D01*
X53741617Y-150443346D01*
X53741623Y-150443349D01*
X53832980Y-150481190D01*
X53953613Y-150531158D01*
X54175262Y-150590548D01*
X54402766Y-150620500D01*
X54402773Y-150620500D01*
X54632227Y-150620500D01*
X54632234Y-150620500D01*
X54859738Y-150590548D01*
X55081387Y-150531158D01*
X55293388Y-150443344D01*
X55492112Y-150328611D01*
X55674161Y-150188919D01*
X55674165Y-150188914D01*
X55674170Y-150188911D01*
X55836411Y-150026670D01*
X55836414Y-150026665D01*
X55836419Y-150026661D01*
X55976111Y-149844612D01*
X56090844Y-149645888D01*
X56178658Y-149433887D01*
X56238048Y-149212238D01*
X56268000Y-148984734D01*
X56268000Y-148755266D01*
X56238048Y-148527762D01*
X56178658Y-148306113D01*
X56090844Y-148094112D01*
X55976111Y-147895388D01*
X55976108Y-147895385D01*
X55976107Y-147895382D01*
X55836418Y-147713338D01*
X55836411Y-147713330D01*
X55674170Y-147551089D01*
X55674161Y-147551081D01*
X55492117Y-147411392D01*
X55420704Y-147370162D01*
X55293388Y-147296656D01*
X55293376Y-147296650D01*
X55081387Y-147208842D01*
X54859738Y-147149452D01*
X54821715Y-147144446D01*
X54632241Y-147119500D01*
X54632234Y-147119500D01*
X54402766Y-147119500D01*
X54402758Y-147119500D01*
X54186215Y-147148009D01*
X54175262Y-147149452D01*
X54081576Y-147174554D01*
X53953612Y-147208842D01*
X53741623Y-147296650D01*
X53741609Y-147296657D01*
X53542882Y-147411392D01*
X53360838Y-147551081D01*
X53198581Y-147713338D01*
X53058892Y-147895382D01*
X52944157Y-148094109D01*
X52944150Y-148094123D01*
X52856342Y-148306112D01*
X52796953Y-148527759D01*
X52796951Y-148527770D01*
X52767000Y-148755258D01*
X51518000Y-148755258D01*
X51518000Y-129657973D01*
X55597000Y-129657973D01*
X55597000Y-129902027D01*
X55635179Y-130143076D01*
X55710596Y-130375185D01*
X55800138Y-130550922D01*
X55821396Y-130592642D01*
X55964839Y-130790076D01*
X55964843Y-130790081D01*
X56137081Y-130962319D01*
X56170566Y-131023642D01*
X56165582Y-131093334D01*
X56137081Y-131137681D01*
X55964843Y-131309918D01*
X55964839Y-131309923D01*
X55821396Y-131507357D01*
X55710597Y-131724812D01*
X55710596Y-131724814D01*
X55710596Y-131724815D01*
X55672887Y-131840869D01*
X55635178Y-131956927D01*
X55615692Y-132079956D01*
X55597000Y-132197973D01*
X55597000Y-132442027D01*
X55635179Y-132683076D01*
X55710596Y-132915185D01*
X55800138Y-133090922D01*
X55821396Y-133132642D01*
X55964839Y-133330076D01*
X55964843Y-133330081D01*
X56137081Y-133502319D01*
X56170566Y-133563642D01*
X56165582Y-133633334D01*
X56137081Y-133677681D01*
X55964843Y-133849918D01*
X55964839Y-133849923D01*
X55821396Y-134047357D01*
X55710597Y-134264812D01*
X55635178Y-134496927D01*
X55627434Y-134545822D01*
X55597000Y-134737973D01*
X55597000Y-134982027D01*
X55635179Y-135223076D01*
X55710596Y-135455185D01*
X55810674Y-135651600D01*
X55821396Y-135672642D01*
X55964839Y-135870076D01*
X55964843Y-135870081D01*
X56137081Y-136042319D01*
X56170566Y-136103642D01*
X56165582Y-136173334D01*
X56137081Y-136217681D01*
X55964843Y-136389918D01*
X55964839Y-136389923D01*
X55821396Y-136587357D01*
X55710597Y-136804812D01*
X55635178Y-137036927D01*
X55627434Y-137085822D01*
X55597000Y-137277973D01*
X55597000Y-137522027D01*
X55603242Y-137561436D01*
X55618468Y-137657572D01*
X55635179Y-137763076D01*
X55710596Y-137995185D01*
X55819470Y-138208863D01*
X55821396Y-138212642D01*
X55964839Y-138410076D01*
X55964843Y-138410081D01*
X56137081Y-138582319D01*
X56170566Y-138643642D01*
X56165582Y-138713334D01*
X56137081Y-138757681D01*
X55964843Y-138929918D01*
X55964839Y-138929923D01*
X55821396Y-139127357D01*
X55710597Y-139344812D01*
X55635178Y-139576927D01*
X55597000Y-139817973D01*
X55597000Y-140062026D01*
X55635178Y-140303072D01*
X55710597Y-140535187D01*
X55821396Y-140752642D01*
X55964839Y-140950076D01*
X55964843Y-140950081D01*
X56137081Y-141122319D01*
X56170566Y-141183642D01*
X56165582Y-141253334D01*
X56137081Y-141297681D01*
X55964843Y-141469918D01*
X55964839Y-141469923D01*
X55821396Y-141667357D01*
X55710597Y-141884812D01*
X55635178Y-142116927D01*
X55627434Y-142165822D01*
X55597000Y-142357973D01*
X55597000Y-142602027D01*
X55635179Y-142843076D01*
X55710596Y-143075185D01*
X55800758Y-143252139D01*
X55821396Y-143292642D01*
X55964839Y-143490076D01*
X55964843Y-143490081D01*
X56137418Y-143662656D01*
X56137423Y-143662660D01*
X56287290Y-143771544D01*
X56334861Y-143806106D01*
X56552315Y-143916904D01*
X56784424Y-143992321D01*
X57025473Y-144030500D01*
X57025474Y-144030500D01*
X57269526Y-144030500D01*
X57269527Y-144030500D01*
X57510576Y-143992321D01*
X57742685Y-143916904D01*
X57960139Y-143806106D01*
X58157583Y-143662655D01*
X58330155Y-143490083D01*
X58473606Y-143292639D01*
X58584404Y-143075185D01*
X58659821Y-142843076D01*
X58698000Y-142602027D01*
X58698000Y-142357973D01*
X58659821Y-142116924D01*
X58584404Y-141884815D01*
X58473606Y-141667361D01*
X58402077Y-141568909D01*
X58330160Y-141469923D01*
X58330156Y-141469918D01*
X58157919Y-141297681D01*
X58124434Y-141236358D01*
X58129418Y-141166666D01*
X58157919Y-141122319D01*
X58225189Y-141055049D01*
X58330155Y-140950083D01*
X58473606Y-140752639D01*
X58584404Y-140535185D01*
X58659821Y-140303076D01*
X58698000Y-140062027D01*
X58698000Y-139817973D01*
X58659821Y-139576924D01*
X58584404Y-139344815D01*
X58473606Y-139127361D01*
X58404866Y-139032748D01*
X58330160Y-138929923D01*
X58330156Y-138929918D01*
X58157919Y-138757681D01*
X58124434Y-138696358D01*
X58129418Y-138626666D01*
X58157919Y-138582319D01*
X58240737Y-138499501D01*
X58330155Y-138410083D01*
X58473606Y-138212639D01*
X58584404Y-137995185D01*
X58612001Y-137910248D01*
X58651437Y-137852575D01*
X58715795Y-137825376D01*
X58784642Y-137837290D01*
X58817612Y-137860887D01*
X70612643Y-149655919D01*
X70612647Y-149655922D01*
X70766770Y-149758904D01*
X70766776Y-149758906D01*
X70766777Y-149758907D01*
X70867080Y-149800453D01*
X70867086Y-149800455D01*
X70938020Y-149829838D01*
X71012320Y-149844617D01*
X71119815Y-149865999D01*
X71119819Y-149866000D01*
X71119820Y-149866000D01*
X121342681Y-149866000D01*
X121342682Y-149865999D01*
X121524480Y-149829838D01*
X121595413Y-149800455D01*
X121595415Y-149800455D01*
X121652500Y-149776809D01*
X121695730Y-149758904D01*
X121849853Y-149655922D01*
X125930922Y-145574853D01*
X126033904Y-145420730D01*
X126104838Y-145249479D01*
X126141000Y-145067680D01*
X126141000Y-144938711D01*
X157696850Y-144938711D01*
X157696850Y-145181288D01*
X157728511Y-145421785D01*
X157791297Y-145656104D01*
X157841927Y-145778334D01*
X157884126Y-145880212D01*
X158005414Y-146090289D01*
X158005416Y-146090292D01*
X158005417Y-146090293D01*
X158153083Y-146282736D01*
X158153089Y-146282743D01*
X158324606Y-146454260D01*
X158324612Y-146454265D01*
X158517061Y-146601936D01*
X158727138Y-146723224D01*
X158951250Y-146816054D01*
X159185561Y-146878838D01*
X159365936Y-146902584D01*
X159426061Y-146910500D01*
X159426062Y-146910500D01*
X159668639Y-146910500D01*
X159716738Y-146904167D01*
X159909139Y-146878838D01*
X160143450Y-146816054D01*
X160367562Y-146723224D01*
X160577639Y-146601936D01*
X160770088Y-146454265D01*
X160941615Y-146282738D01*
X161089286Y-146090289D01*
X161210574Y-145880212D01*
X161303404Y-145656100D01*
X161366188Y-145421789D01*
X161397850Y-145181288D01*
X161397850Y-144938712D01*
X161366188Y-144698211D01*
X161303404Y-144463900D01*
X161210574Y-144239788D01*
X161089286Y-144029711D01*
X160941615Y-143837262D01*
X160941610Y-143837256D01*
X160770093Y-143665739D01*
X160770086Y-143665733D01*
X160577643Y-143518067D01*
X160577642Y-143518066D01*
X160577639Y-143518064D01*
X160367562Y-143396776D01*
X160367555Y-143396773D01*
X160143454Y-143303947D01*
X159909135Y-143241161D01*
X159668639Y-143209500D01*
X159668638Y-143209500D01*
X159426062Y-143209500D01*
X159426061Y-143209500D01*
X159185564Y-143241161D01*
X158951245Y-143303947D01*
X158727144Y-143396773D01*
X158727135Y-143396777D01*
X158517056Y-143518067D01*
X158324613Y-143665733D01*
X158324606Y-143665739D01*
X158153089Y-143837256D01*
X158153083Y-143837263D01*
X158005417Y-144029706D01*
X158005414Y-144029710D01*
X158005414Y-144029711D01*
X158004378Y-144031506D01*
X157884127Y-144239785D01*
X157884123Y-144239794D01*
X157791297Y-144463895D01*
X157728511Y-144698214D01*
X157696850Y-144938711D01*
X126141000Y-144938711D01*
X126141000Y-144882319D01*
X126141000Y-136324500D01*
X126160685Y-136257461D01*
X126213489Y-136211706D01*
X126265000Y-136200500D01*
X126481286Y-136200500D01*
X126481287Y-136200500D01*
X126691243Y-136167246D01*
X126893412Y-136101557D01*
X127082816Y-136005051D01*
X127106809Y-135987619D01*
X127254786Y-135880109D01*
X127254788Y-135880106D01*
X127254792Y-135880104D01*
X127405104Y-135729792D01*
X127405106Y-135729788D01*
X127405109Y-135729786D01*
X127530048Y-135557820D01*
X127530047Y-135557820D01*
X127530051Y-135557816D01*
X127626557Y-135368412D01*
X127692246Y-135166243D01*
X127725500Y-134956287D01*
X127725500Y-134881637D01*
X127745185Y-134814598D01*
X127761819Y-134793956D01*
X130605922Y-131949853D01*
X130658790Y-131870730D01*
X130708903Y-131795731D01*
X130723642Y-131760147D01*
X130779838Y-131624480D01*
X130816000Y-131442680D01*
X130816000Y-101590959D01*
X132264500Y-101590959D01*
X132264500Y-101809041D01*
X132283238Y-101927345D01*
X132298616Y-102024439D01*
X132366008Y-102231851D01*
X132438871Y-102374852D01*
X132465014Y-102426160D01*
X132593200Y-102602593D01*
X132747407Y-102756800D01*
X132923840Y-102884986D01*
X132962700Y-102904786D01*
X133118148Y-102983991D01*
X133118150Y-102983991D01*
X133118153Y-102983993D01*
X133325561Y-103051384D01*
X133540959Y-103085500D01*
X133540960Y-103085500D01*
X134759040Y-103085500D01*
X134759041Y-103085500D01*
X134974439Y-103051384D01*
X134974442Y-103051383D01*
X134974443Y-103051383D01*
X135181845Y-102983994D01*
X135181845Y-102983993D01*
X135181848Y-102983993D01*
X135376160Y-102884986D01*
X135552593Y-102756800D01*
X137356800Y-100952593D01*
X137484986Y-100776160D01*
X137583993Y-100581848D01*
X137591065Y-100560083D01*
X137651383Y-100374443D01*
X137651383Y-100374442D01*
X137651384Y-100374439D01*
X137685500Y-100159041D01*
X137685500Y-99940959D01*
X137685500Y-90465959D01*
X137651384Y-90250561D01*
X137583993Y-90043153D01*
X137583991Y-90043150D01*
X137583991Y-90043148D01*
X137522410Y-89922290D01*
X137484986Y-89848840D01*
X137356800Y-89672407D01*
X137202593Y-89518200D01*
X135152593Y-87468200D01*
X134976160Y-87340014D01*
X134848200Y-87274815D01*
X134781845Y-87241005D01*
X134574442Y-87173616D01*
X134412890Y-87148029D01*
X134359041Y-87139500D01*
X134140959Y-87139500D01*
X134069159Y-87150872D01*
X133925559Y-87173616D01*
X133925556Y-87173616D01*
X133718154Y-87241005D01*
X133523839Y-87340014D01*
X133347404Y-87468202D01*
X133193202Y-87622404D01*
X133065014Y-87798839D01*
X132966005Y-87993154D01*
X132898616Y-88200556D01*
X132898616Y-88200559D01*
X132864500Y-88415959D01*
X132864500Y-88634040D01*
X132898616Y-88849440D01*
X132898616Y-88849443D01*
X132966005Y-89056845D01*
X132966007Y-89056848D01*
X133065014Y-89251160D01*
X133193200Y-89427593D01*
X133193202Y-89427595D01*
X134878181Y-91112574D01*
X134911666Y-91173897D01*
X134914500Y-91200255D01*
X134914500Y-99424745D01*
X134894815Y-99491784D01*
X134878181Y-99512426D01*
X134112426Y-100278181D01*
X134051103Y-100311666D01*
X134024745Y-100314500D01*
X133540959Y-100314500D01*
X133433260Y-100331558D01*
X133325560Y-100348616D01*
X133118148Y-100416008D01*
X132923839Y-100515014D01*
X132747404Y-100643202D01*
X132593202Y-100797404D01*
X132465014Y-100973839D01*
X132366008Y-101168148D01*
X132298616Y-101375560D01*
X132298616Y-101375561D01*
X132264500Y-101590959D01*
X130816000Y-101590959D01*
X130816000Y-90932320D01*
X130779838Y-90750520D01*
X130759128Y-90700521D01*
X130752184Y-90683756D01*
X130708906Y-90579273D01*
X130708905Y-90579271D01*
X130677337Y-90532027D01*
X130605922Y-90425147D01*
X130605919Y-90425143D01*
X106277319Y-66096543D01*
X106243834Y-66035220D01*
X106241000Y-66008862D01*
X106241000Y-55060367D01*
X106260685Y-54993328D01*
X106313489Y-54947573D01*
X106382647Y-54937629D01*
X106446203Y-54966654D01*
X106482931Y-55022048D01*
X106502922Y-55083576D01*
X106565562Y-55206511D01*
X106601689Y-55277415D01*
X106620868Y-55315054D01*
X106773566Y-55525225D01*
X106773571Y-55525231D01*
X106957274Y-55708934D01*
X107009642Y-55746980D01*
X107040384Y-55769316D01*
X107083051Y-55824644D01*
X107091500Y-55869634D01*
X107091500Y-57075184D01*
X107126006Y-57248656D01*
X107127661Y-57256976D01*
X107127663Y-57256983D01*
X107198592Y-57428223D01*
X107198599Y-57428236D01*
X107301577Y-57582352D01*
X107301580Y-57582356D01*
X112275143Y-62555919D01*
X112275147Y-62555922D01*
X112429269Y-62658904D01*
X112540054Y-62704792D01*
X112600520Y-62729838D01*
X112782315Y-62765999D01*
X112782319Y-62766000D01*
X112782320Y-62766000D01*
X138129742Y-62766000D01*
X138196781Y-62785685D01*
X138217423Y-62802319D01*
X138270213Y-62855109D01*
X138442179Y-62980048D01*
X138442181Y-62980049D01*
X138442184Y-62980051D01*
X138631588Y-63076557D01*
X138833757Y-63142246D01*
X139043713Y-63175500D01*
X139043714Y-63175500D01*
X139256286Y-63175500D01*
X139256287Y-63175500D01*
X139466243Y-63142246D01*
X139656683Y-63080367D01*
X139726523Y-63078373D01*
X139786356Y-63114453D01*
X139817184Y-63177154D01*
X139819000Y-63198299D01*
X139819000Y-97727684D01*
X139855160Y-97909472D01*
X139855162Y-97909480D01*
X139878697Y-97966298D01*
X139878697Y-97966299D01*
X139926092Y-98080723D01*
X139926099Y-98080736D01*
X140029077Y-98234852D01*
X140029080Y-98234856D01*
X167125143Y-125330919D01*
X167125147Y-125330922D01*
X167279263Y-125433900D01*
X167279270Y-125433904D01*
X167368640Y-125470922D01*
X167450520Y-125504838D01*
X167632315Y-125540999D01*
X167632319Y-125541000D01*
X167632320Y-125541000D01*
X168979742Y-125541000D01*
X169046781Y-125560685D01*
X169067423Y-125577319D01*
X169120213Y-125630109D01*
X169292179Y-125755048D01*
X169292181Y-125755049D01*
X169292184Y-125755051D01*
X169481588Y-125851557D01*
X169683757Y-125917246D01*
X169893713Y-125950500D01*
X169893714Y-125950500D01*
X170106286Y-125950500D01*
X170106287Y-125950500D01*
X170316243Y-125917246D01*
X170518412Y-125851557D01*
X170707816Y-125755051D01*
X170748725Y-125725329D01*
X170879786Y-125630109D01*
X170879788Y-125630106D01*
X170879792Y-125630104D01*
X171030104Y-125479792D01*
X171059681Y-125439081D01*
X171115011Y-125396416D01*
X171184624Y-125390437D01*
X171246420Y-125423042D01*
X171280777Y-125483880D01*
X171284000Y-125511967D01*
X171284000Y-147167684D01*
X171320160Y-147349473D01*
X171320163Y-147349483D01*
X171328729Y-147370163D01*
X171391094Y-147520727D01*
X171391099Y-147520736D01*
X171494077Y-147674852D01*
X171494080Y-147674856D01*
X172825143Y-149005919D01*
X172825147Y-149005922D01*
X172979269Y-149108904D01*
X173045497Y-149136336D01*
X173100356Y-149159059D01*
X173100362Y-149159061D01*
X173150520Y-149179838D01*
X173313362Y-149212229D01*
X173332315Y-149215999D01*
X173332319Y-149216000D01*
X173332320Y-149216000D01*
X193742681Y-149216000D01*
X193742682Y-149215999D01*
X193924480Y-149179838D01*
X193995413Y-149150455D01*
X193995415Y-149150455D01*
X194052500Y-149126809D01*
X194095730Y-149108904D01*
X194249853Y-149005922D01*
X194271048Y-148984727D01*
X194500518Y-148755258D01*
X246017000Y-148755258D01*
X246017000Y-148984741D01*
X246033348Y-149108907D01*
X246046952Y-149212238D01*
X246046953Y-149212240D01*
X246106342Y-149433887D01*
X246194150Y-149645876D01*
X246194157Y-149645890D01*
X246308892Y-149844617D01*
X246448581Y-150026661D01*
X246448589Y-150026670D01*
X246610830Y-150188911D01*
X246610838Y-150188918D01*
X246792882Y-150328607D01*
X246792885Y-150328608D01*
X246792888Y-150328611D01*
X246991612Y-150443344D01*
X246991617Y-150443346D01*
X246991623Y-150443349D01*
X247082980Y-150481190D01*
X247203613Y-150531158D01*
X247425262Y-150590548D01*
X247652766Y-150620500D01*
X247652773Y-150620500D01*
X247882227Y-150620500D01*
X247882234Y-150620500D01*
X248109738Y-150590548D01*
X248331387Y-150531158D01*
X248543388Y-150443344D01*
X248742112Y-150328611D01*
X248924161Y-150188919D01*
X248924165Y-150188914D01*
X248924170Y-150188911D01*
X249086411Y-150026670D01*
X249086414Y-150026665D01*
X249086419Y-150026661D01*
X249226111Y-149844612D01*
X249340844Y-149645888D01*
X249428658Y-149433887D01*
X249488048Y-149212238D01*
X249518000Y-148984734D01*
X249518000Y-148755266D01*
X249488048Y-148527762D01*
X249428658Y-148306113D01*
X249340844Y-148094112D01*
X249226111Y-147895388D01*
X249226108Y-147895385D01*
X249226107Y-147895382D01*
X249086418Y-147713338D01*
X249086411Y-147713330D01*
X248924170Y-147551089D01*
X248924161Y-147551081D01*
X248742117Y-147411392D01*
X248670704Y-147370162D01*
X248543388Y-147296656D01*
X248543376Y-147296650D01*
X248331387Y-147208842D01*
X248109738Y-147149452D01*
X248071715Y-147144446D01*
X247882241Y-147119500D01*
X247882234Y-147119500D01*
X247652766Y-147119500D01*
X247652758Y-147119500D01*
X247436215Y-147148009D01*
X247425262Y-147149452D01*
X247331576Y-147174554D01*
X247203612Y-147208842D01*
X246991623Y-147296650D01*
X246991609Y-147296657D01*
X246792882Y-147411392D01*
X246610838Y-147551081D01*
X246448581Y-147713338D01*
X246308892Y-147895382D01*
X246194157Y-148094109D01*
X246194150Y-148094123D01*
X246106342Y-148306112D01*
X246046953Y-148527759D01*
X246046951Y-148527770D01*
X246017000Y-148755258D01*
X194500518Y-148755258D01*
X194592250Y-148663526D01*
X240880919Y-102374856D01*
X240880922Y-102374853D01*
X240983904Y-102220730D01*
X241034798Y-102097861D01*
X241054838Y-102049480D01*
X241091000Y-101867680D01*
X241091000Y-100447973D01*
X242107000Y-100447973D01*
X242107000Y-100692027D01*
X242113382Y-100732319D01*
X242142345Y-100915187D01*
X242145179Y-100933076D01*
X242220596Y-101165185D01*
X242329943Y-101379792D01*
X242331396Y-101382642D01*
X242474839Y-101580076D01*
X242474843Y-101580081D01*
X242647081Y-101752319D01*
X242680566Y-101813642D01*
X242675582Y-101883334D01*
X242647081Y-101927681D01*
X242474843Y-102099918D01*
X242474839Y-102099923D01*
X242331396Y-102297357D01*
X242220597Y-102514812D01*
X242145178Y-102746927D01*
X242126425Y-102865328D01*
X242107000Y-102987973D01*
X242107000Y-103232027D01*
X242113382Y-103272319D01*
X242142345Y-103455187D01*
X242145179Y-103473076D01*
X242220596Y-103705185D01*
X242304615Y-103870083D01*
X242331396Y-103922642D01*
X242474839Y-104120076D01*
X242474843Y-104120081D01*
X242647081Y-104292319D01*
X242680566Y-104353642D01*
X242675582Y-104423334D01*
X242647081Y-104467681D01*
X242474843Y-104639918D01*
X242474839Y-104639923D01*
X242331396Y-104837357D01*
X242220597Y-105054812D01*
X242145178Y-105286927D01*
X242126426Y-105405324D01*
X242107000Y-105527973D01*
X242107000Y-105772027D01*
X242113382Y-105812319D01*
X242142345Y-105995187D01*
X242145179Y-106013076D01*
X242220596Y-106245185D01*
X242319390Y-106439080D01*
X242331396Y-106462642D01*
X242474839Y-106660076D01*
X242474843Y-106660081D01*
X242647081Y-106832319D01*
X242680566Y-106893642D01*
X242675582Y-106963334D01*
X242647081Y-107007681D01*
X242474843Y-107179918D01*
X242474839Y-107179923D01*
X242331396Y-107377357D01*
X242220597Y-107594812D01*
X242145178Y-107826927D01*
X242111536Y-108039334D01*
X242107000Y-108067973D01*
X242107000Y-108312027D01*
X242113382Y-108352319D01*
X242142345Y-108535187D01*
X242145179Y-108553076D01*
X242220596Y-108785185D01*
X242319390Y-108979080D01*
X242331396Y-109002642D01*
X242474839Y-109200076D01*
X242474843Y-109200081D01*
X242647081Y-109372319D01*
X242680566Y-109433642D01*
X242675582Y-109503334D01*
X242647081Y-109547681D01*
X242474843Y-109719918D01*
X242474839Y-109719923D01*
X242331396Y-109917357D01*
X242220597Y-110134812D01*
X242145178Y-110366927D01*
X242120516Y-110522639D01*
X242107000Y-110607973D01*
X242107000Y-110852027D01*
X242113382Y-110892319D01*
X242142345Y-111075187D01*
X242145179Y-111093076D01*
X242220596Y-111325185D01*
X242319390Y-111519080D01*
X242331396Y-111542642D01*
X242438450Y-111689991D01*
X242461930Y-111755797D01*
X242446104Y-111823851D01*
X242403232Y-111868413D01*
X242388843Y-111877288D01*
X242264789Y-112001342D01*
X242172687Y-112150663D01*
X242172685Y-112150668D01*
X242161234Y-112185225D01*
X242117501Y-112317203D01*
X242117501Y-112317204D01*
X242117500Y-112317204D01*
X242107000Y-112419983D01*
X242107000Y-114120001D01*
X242107001Y-114120018D01*
X242117500Y-114222796D01*
X242117501Y-114222799D01*
X242172685Y-114389331D01*
X242172687Y-114389336D01*
X242195873Y-114426927D01*
X242264788Y-114538656D01*
X242388844Y-114662712D01*
X242538166Y-114754814D01*
X242704703Y-114809999D01*
X242807491Y-114820500D01*
X244507508Y-114820499D01*
X244610297Y-114809999D01*
X244776834Y-114754814D01*
X244926156Y-114662712D01*
X245050212Y-114538656D01*
X245142314Y-114389334D01*
X245197499Y-114222797D01*
X245208000Y-114120009D01*
X245207999Y-112419992D01*
X245197499Y-112317203D01*
X245142314Y-112150666D01*
X245050212Y-112001344D01*
X244926156Y-111877288D01*
X244911769Y-111868414D01*
X244865044Y-111816466D01*
X244853823Y-111747504D01*
X244876546Y-111689994D01*
X244983606Y-111542639D01*
X245094404Y-111325185D01*
X245169821Y-111093076D01*
X245208000Y-110852027D01*
X245208000Y-110607973D01*
X245169821Y-110366924D01*
X245094404Y-110134815D01*
X244983606Y-109917361D01*
X244937701Y-109854178D01*
X244840160Y-109719923D01*
X244840156Y-109719918D01*
X244667919Y-109547681D01*
X244634434Y-109486358D01*
X244639418Y-109416666D01*
X244667919Y-109372319D01*
X244742893Y-109297345D01*
X244840155Y-109200083D01*
X244983606Y-109002639D01*
X245094404Y-108785185D01*
X245169821Y-108553076D01*
X245208000Y-108312027D01*
X245208000Y-108067973D01*
X245169821Y-107826924D01*
X245094404Y-107594815D01*
X244983606Y-107377361D01*
X244937701Y-107314178D01*
X244840160Y-107179923D01*
X244840156Y-107179918D01*
X244667919Y-107007681D01*
X244634434Y-106946358D01*
X244639418Y-106876666D01*
X244667919Y-106832319D01*
X244746376Y-106753862D01*
X244840155Y-106660083D01*
X244983606Y-106462639D01*
X245094404Y-106245185D01*
X245169821Y-106013076D01*
X245208000Y-105772027D01*
X245208000Y-105527973D01*
X245169821Y-105286924D01*
X245094404Y-105054815D01*
X244983606Y-104837361D01*
X244937701Y-104774178D01*
X244840160Y-104639923D01*
X244840156Y-104639918D01*
X244667919Y-104467681D01*
X244634434Y-104406358D01*
X244639418Y-104336666D01*
X244667919Y-104292319D01*
X244742893Y-104217345D01*
X244840155Y-104120083D01*
X244983606Y-103922639D01*
X245094404Y-103705185D01*
X245169821Y-103473076D01*
X245208000Y-103232027D01*
X245208000Y-102987973D01*
X245169821Y-102746924D01*
X245094404Y-102514815D01*
X244983606Y-102297361D01*
X244937701Y-102234178D01*
X244840160Y-102099923D01*
X244840156Y-102099918D01*
X244667919Y-101927681D01*
X244634434Y-101866358D01*
X244639418Y-101796666D01*
X244667919Y-101752319D01*
X244743931Y-101676307D01*
X244840155Y-101580083D01*
X244983606Y-101382639D01*
X245094404Y-101165185D01*
X245169821Y-100933076D01*
X245208000Y-100692027D01*
X245208000Y-100447973D01*
X245169821Y-100206924D01*
X245094404Y-99974815D01*
X244983606Y-99757361D01*
X244942035Y-99700143D01*
X244840160Y-99559923D01*
X244840156Y-99559918D01*
X244667581Y-99387343D01*
X244667576Y-99387339D01*
X244470142Y-99243896D01*
X244470141Y-99243895D01*
X244470139Y-99243894D01*
X244252685Y-99133096D01*
X244020576Y-99057679D01*
X244020574Y-99057678D01*
X244020572Y-99057678D01*
X243805678Y-99023642D01*
X243779527Y-99019500D01*
X243535473Y-99019500D01*
X243509322Y-99023642D01*
X243294427Y-99057678D01*
X243062312Y-99133097D01*
X242844857Y-99243896D01*
X242647423Y-99387339D01*
X242647418Y-99387343D01*
X242474843Y-99559918D01*
X242474839Y-99559923D01*
X242331396Y-99757357D01*
X242220597Y-99974812D01*
X242145178Y-100206927D01*
X242126893Y-100322374D01*
X242107000Y-100447973D01*
X241091000Y-100447973D01*
X241091000Y-95367973D01*
X242107000Y-95367973D01*
X242107000Y-95612027D01*
X242111869Y-95642768D01*
X242141753Y-95831449D01*
X242145179Y-95853076D01*
X242220596Y-96085185D01*
X242319072Y-96278456D01*
X242331396Y-96302642D01*
X242474839Y-96500076D01*
X242474843Y-96500081D01*
X242647418Y-96672656D01*
X242647423Y-96672660D01*
X242658853Y-96680964D01*
X242844861Y-96816106D01*
X243062315Y-96926904D01*
X243294424Y-97002321D01*
X243535473Y-97040500D01*
X243535474Y-97040500D01*
X243779526Y-97040500D01*
X243779527Y-97040500D01*
X244020576Y-97002321D01*
X244252685Y-96926904D01*
X244470139Y-96816106D01*
X244667583Y-96672655D01*
X244840155Y-96500083D01*
X244983606Y-96302639D01*
X245094404Y-96085185D01*
X245169821Y-95853076D01*
X245208000Y-95612027D01*
X245208000Y-95367973D01*
X245169821Y-95126924D01*
X245094404Y-94894815D01*
X244983606Y-94677361D01*
X244916620Y-94585162D01*
X244840160Y-94479923D01*
X244840156Y-94479918D01*
X244667581Y-94307343D01*
X244667576Y-94307339D01*
X244470142Y-94163896D01*
X244470141Y-94163895D01*
X244470139Y-94163894D01*
X244252685Y-94053096D01*
X244020576Y-93977679D01*
X244020574Y-93977678D01*
X244020572Y-93977678D01*
X243852269Y-93951021D01*
X243779527Y-93939500D01*
X243535473Y-93939500D01*
X243479593Y-93948350D01*
X243294427Y-93977678D01*
X243062312Y-94053097D01*
X242844857Y-94163896D01*
X242647423Y-94307339D01*
X242647418Y-94307343D01*
X242474843Y-94479918D01*
X242474839Y-94479923D01*
X242331396Y-94677357D01*
X242220597Y-94894812D01*
X242145178Y-95126927D01*
X242111349Y-95340515D01*
X242107000Y-95367973D01*
X241091000Y-95367973D01*
X241091000Y-92141137D01*
X241110685Y-92074098D01*
X241127319Y-92053456D01*
X241793456Y-91387319D01*
X241854779Y-91353834D01*
X241881137Y-91351000D01*
X242361472Y-91351000D01*
X242428511Y-91370685D01*
X242461789Y-91402113D01*
X242474844Y-91420082D01*
X242647418Y-91592656D01*
X242647423Y-91592660D01*
X242767637Y-91680000D01*
X242844861Y-91736106D01*
X243062315Y-91846904D01*
X243294424Y-91922321D01*
X243535473Y-91960500D01*
X243535474Y-91960500D01*
X243779526Y-91960500D01*
X243779527Y-91960500D01*
X244020576Y-91922321D01*
X244252685Y-91846904D01*
X244470139Y-91736106D01*
X244667583Y-91592655D01*
X244840155Y-91420083D01*
X244983606Y-91222639D01*
X245094404Y-91005185D01*
X245169821Y-90773076D01*
X245208000Y-90532027D01*
X245208000Y-90287973D01*
X245169821Y-90046924D01*
X245094404Y-89814815D01*
X244983606Y-89597361D01*
X244943811Y-89542588D01*
X244840160Y-89399923D01*
X244840156Y-89399918D01*
X244667919Y-89227681D01*
X244634434Y-89166358D01*
X244639418Y-89096666D01*
X244667919Y-89052319D01*
X244730463Y-88989775D01*
X244840155Y-88880083D01*
X244983606Y-88682639D01*
X245094404Y-88465185D01*
X245169821Y-88233076D01*
X245208000Y-87992027D01*
X245208000Y-87747973D01*
X245169821Y-87506924D01*
X245094404Y-87274815D01*
X244983606Y-87057361D01*
X244926308Y-86978497D01*
X244840160Y-86859923D01*
X244840156Y-86859918D01*
X244667919Y-86687681D01*
X244634434Y-86626358D01*
X244639418Y-86556666D01*
X244667919Y-86512319D01*
X244840155Y-86340083D01*
X244983606Y-86142639D01*
X245094404Y-85925185D01*
X245169821Y-85693076D01*
X245208000Y-85452027D01*
X245208000Y-85207973D01*
X245169821Y-84966924D01*
X245094404Y-84734815D01*
X244983606Y-84517361D01*
X244916620Y-84425162D01*
X244840160Y-84319923D01*
X244840156Y-84319918D01*
X244667919Y-84147681D01*
X244634434Y-84086358D01*
X244639418Y-84016666D01*
X244667919Y-83972319D01*
X244686376Y-83953862D01*
X244840155Y-83800083D01*
X244983606Y-83602639D01*
X245094404Y-83385185D01*
X245169821Y-83153076D01*
X245208000Y-82912027D01*
X245208000Y-82667973D01*
X245169821Y-82426924D01*
X245094404Y-82194815D01*
X244983606Y-81977361D01*
X244916619Y-81885161D01*
X244840160Y-81779923D01*
X244840156Y-81779918D01*
X244667919Y-81607681D01*
X244634434Y-81546358D01*
X244639418Y-81476666D01*
X244667919Y-81432319D01*
X244840155Y-81260083D01*
X244983606Y-81062639D01*
X245094404Y-80845185D01*
X245169821Y-80613076D01*
X245208000Y-80372027D01*
X245208000Y-80127973D01*
X245169821Y-79886924D01*
X245094404Y-79654815D01*
X244983606Y-79437361D01*
X244916620Y-79345162D01*
X244840160Y-79239923D01*
X244840156Y-79239918D01*
X244667919Y-79067681D01*
X244634434Y-79006358D01*
X244639418Y-78936666D01*
X244667919Y-78892319D01*
X244840155Y-78720083D01*
X244983606Y-78522639D01*
X245094404Y-78305185D01*
X245169821Y-78073076D01*
X245208000Y-77832027D01*
X245208000Y-77587973D01*
X245169821Y-77346924D01*
X245094404Y-77114815D01*
X244983606Y-76897361D01*
X244965279Y-76872136D01*
X244840160Y-76699923D01*
X244840156Y-76699918D01*
X244667581Y-76527343D01*
X244667576Y-76527339D01*
X244470142Y-76383896D01*
X244470141Y-76383895D01*
X244470139Y-76383894D01*
X244252685Y-76273096D01*
X244020576Y-76197679D01*
X244020574Y-76197678D01*
X244020572Y-76197678D01*
X243852269Y-76171021D01*
X243779527Y-76159500D01*
X243535473Y-76159500D01*
X243479593Y-76168350D01*
X243294427Y-76197678D01*
X243062312Y-76273097D01*
X242844857Y-76383896D01*
X242647423Y-76527339D01*
X242647418Y-76527343D01*
X242474843Y-76699918D01*
X242474839Y-76699923D01*
X242331396Y-76897357D01*
X242220597Y-77114812D01*
X242145178Y-77346927D01*
X242107000Y-77587973D01*
X242107000Y-77832026D01*
X242145178Y-78073072D01*
X242220597Y-78305187D01*
X242331396Y-78522642D01*
X242474839Y-78720076D01*
X242474843Y-78720081D01*
X242647081Y-78892319D01*
X242680566Y-78953642D01*
X242675582Y-79023334D01*
X242647081Y-79067681D01*
X242474847Y-79239914D01*
X242474844Y-79239917D01*
X242461789Y-79257887D01*
X242406459Y-79300552D01*
X242361472Y-79309000D01*
X238282315Y-79309000D01*
X238100527Y-79345160D01*
X238100519Y-79345162D01*
X238029586Y-79374544D01*
X238029585Y-79374544D01*
X237929276Y-79416092D01*
X237929263Y-79416099D01*
X237775147Y-79519077D01*
X237775143Y-79519080D01*
X234469080Y-82825143D01*
X234469077Y-82825147D01*
X234366097Y-82979266D01*
X234366096Y-82979269D01*
X234330802Y-83064478D01*
X234330802Y-83064479D01*
X234295162Y-83150519D01*
X234295160Y-83150527D01*
X234259000Y-83332315D01*
X234259000Y-97408863D01*
X234239315Y-97475902D01*
X234222681Y-97496544D01*
X194152681Y-137566544D01*
X194091358Y-137600029D01*
X194021666Y-137595045D01*
X193965733Y-137553173D01*
X193941316Y-137487709D01*
X193941000Y-137478863D01*
X193941000Y-129245258D01*
X193960685Y-129178219D01*
X193977319Y-129157577D01*
X194030104Y-129104792D01*
X194030106Y-129104788D01*
X194030109Y-129104786D01*
X194155048Y-128932820D01*
X194155047Y-128932820D01*
X194155051Y-128932816D01*
X194251557Y-128743412D01*
X194317246Y-128541243D01*
X194350500Y-128331287D01*
X194350500Y-128118713D01*
X194317246Y-127908757D01*
X194251557Y-127706588D01*
X194155051Y-127517184D01*
X194155049Y-127517181D01*
X194155048Y-127517179D01*
X194030109Y-127345213D01*
X193879786Y-127194890D01*
X193707820Y-127069951D01*
X193518414Y-126973444D01*
X193518413Y-126973443D01*
X193518412Y-126973443D01*
X193316243Y-126907754D01*
X193316241Y-126907753D01*
X193316240Y-126907753D01*
X193121591Y-126876924D01*
X193106287Y-126874500D01*
X192893713Y-126874500D01*
X192878409Y-126876924D01*
X192683760Y-126907753D01*
X192481582Y-126973445D01*
X192416109Y-127006805D01*
X192347440Y-127019701D01*
X192282700Y-126993424D01*
X192242443Y-126936317D01*
X192239451Y-126866512D01*
X192272132Y-126808641D01*
X194155922Y-124924853D01*
X194258904Y-124770730D01*
X194320939Y-124620964D01*
X194329838Y-124599480D01*
X194366000Y-124417680D01*
X194366000Y-123820458D01*
X194385685Y-123753419D01*
X194438489Y-123707664D01*
X194507647Y-123697720D01*
X194562885Y-123720139D01*
X194584861Y-123736106D01*
X194802315Y-123846904D01*
X195034424Y-123922321D01*
X195275473Y-123960500D01*
X195275474Y-123960500D01*
X195519526Y-123960500D01*
X195519527Y-123960500D01*
X195760576Y-123922321D01*
X195992685Y-123846904D01*
X196210139Y-123736106D01*
X196407583Y-123592655D01*
X196580155Y-123420083D01*
X196723606Y-123222639D01*
X196834404Y-123005185D01*
X196909821Y-122773076D01*
X196948000Y-122532027D01*
X196948000Y-122287973D01*
X196909821Y-122046924D01*
X196834404Y-121814815D01*
X196723606Y-121597361D01*
X196705279Y-121572136D01*
X196580160Y-121399923D01*
X196580156Y-121399918D01*
X196407919Y-121227681D01*
X196374434Y-121166358D01*
X196379418Y-121096666D01*
X196407919Y-121052319D01*
X196485248Y-120974990D01*
X196580155Y-120880083D01*
X196723606Y-120682639D01*
X196834404Y-120465185D01*
X196909821Y-120233076D01*
X196948000Y-119992027D01*
X196948000Y-119747973D01*
X196909821Y-119506924D01*
X196834404Y-119274815D01*
X196723606Y-119057361D01*
X196633907Y-118933900D01*
X196580160Y-118859923D01*
X196580156Y-118859918D01*
X196407919Y-118687681D01*
X196374434Y-118626358D01*
X196379418Y-118556666D01*
X196407919Y-118512319D01*
X196485248Y-118434990D01*
X196580155Y-118340083D01*
X196723606Y-118142639D01*
X196834404Y-117925185D01*
X196909821Y-117693076D01*
X196948000Y-117452027D01*
X196948000Y-117207973D01*
X196909821Y-116966924D01*
X196834404Y-116734815D01*
X196723606Y-116517361D01*
X196630405Y-116389080D01*
X196580160Y-116319923D01*
X196580156Y-116319918D01*
X196407919Y-116147681D01*
X196374434Y-116086358D01*
X196379418Y-116016666D01*
X196407919Y-115972319D01*
X196485248Y-115894990D01*
X196580155Y-115800083D01*
X196723606Y-115602639D01*
X196834404Y-115385185D01*
X196909821Y-115153076D01*
X196948000Y-114912027D01*
X196948000Y-114667973D01*
X196909821Y-114426924D01*
X196834404Y-114194815D01*
X196723606Y-113977361D01*
X196618460Y-113832639D01*
X196580160Y-113779923D01*
X196580156Y-113779918D01*
X196407919Y-113607681D01*
X196374434Y-113546358D01*
X196379418Y-113476666D01*
X196407919Y-113432319D01*
X196485248Y-113354990D01*
X196580155Y-113260083D01*
X196723606Y-113062639D01*
X196834404Y-112845185D01*
X196909821Y-112613076D01*
X196948000Y-112372027D01*
X196948000Y-112127973D01*
X196909821Y-111886924D01*
X196834404Y-111654815D01*
X196723606Y-111437361D01*
X196652570Y-111339588D01*
X196580160Y-111239923D01*
X196580156Y-111239918D01*
X196407919Y-111067681D01*
X196374434Y-111006358D01*
X196379418Y-110936666D01*
X196407919Y-110892319D01*
X196485248Y-110814990D01*
X196580155Y-110720083D01*
X196723606Y-110522639D01*
X196834404Y-110305185D01*
X196909821Y-110073076D01*
X196948000Y-109832027D01*
X196948000Y-109587973D01*
X196909821Y-109346924D01*
X196834404Y-109114815D01*
X196723606Y-108897361D01*
X196656620Y-108805162D01*
X196580160Y-108699923D01*
X196580156Y-108699918D01*
X196407919Y-108527681D01*
X196374434Y-108466358D01*
X196379418Y-108396666D01*
X196407919Y-108352319D01*
X196485248Y-108274990D01*
X196580155Y-108180083D01*
X196723606Y-107982639D01*
X196834404Y-107765185D01*
X196909821Y-107533076D01*
X196948000Y-107292027D01*
X196948000Y-107047973D01*
X196909821Y-106806924D01*
X196834404Y-106574815D01*
X196723606Y-106357361D01*
X196656620Y-106265162D01*
X196580160Y-106159923D01*
X196580156Y-106159918D01*
X196407919Y-105987681D01*
X196374434Y-105926358D01*
X196379418Y-105856666D01*
X196407919Y-105812319D01*
X196485248Y-105734990D01*
X196580155Y-105640083D01*
X196723606Y-105442639D01*
X196834404Y-105225185D01*
X196909821Y-104993076D01*
X196948000Y-104752027D01*
X196948000Y-104507973D01*
X196909821Y-104266924D01*
X196834404Y-104034815D01*
X196723606Y-103817361D01*
X196616045Y-103669315D01*
X196580160Y-103619923D01*
X196580156Y-103619918D01*
X196407919Y-103447681D01*
X196374434Y-103386358D01*
X196379418Y-103316666D01*
X196407919Y-103272319D01*
X196488999Y-103191239D01*
X196580155Y-103100083D01*
X196723606Y-102902639D01*
X196834404Y-102685185D01*
X196909821Y-102453076D01*
X196948000Y-102212027D01*
X196948000Y-101967973D01*
X196909821Y-101726924D01*
X196834404Y-101494815D01*
X196723606Y-101277361D01*
X196644262Y-101168153D01*
X196580160Y-101079923D01*
X196580156Y-101079918D01*
X196407919Y-100907681D01*
X196374434Y-100846358D01*
X196379418Y-100776666D01*
X196407919Y-100732319D01*
X196485248Y-100654990D01*
X196580155Y-100560083D01*
X196723606Y-100362639D01*
X196834404Y-100145185D01*
X196909821Y-99913076D01*
X196948000Y-99672027D01*
X196948000Y-99427973D01*
X196909821Y-99186924D01*
X196834404Y-98954815D01*
X196723606Y-98737361D01*
X196647700Y-98632885D01*
X196580160Y-98539923D01*
X196580156Y-98539918D01*
X196407581Y-98367343D01*
X196407576Y-98367339D01*
X196210142Y-98223896D01*
X196210141Y-98223895D01*
X196210139Y-98223894D01*
X195992685Y-98113096D01*
X195760576Y-98037679D01*
X195760574Y-98037678D01*
X195760572Y-98037678D01*
X195592269Y-98011021D01*
X195519527Y-97999500D01*
X195275473Y-97999500D01*
X195219593Y-98008350D01*
X195034427Y-98037678D01*
X194802312Y-98113097D01*
X194584857Y-98223896D01*
X194387423Y-98367339D01*
X194387418Y-98367343D01*
X194214845Y-98539916D01*
X194185224Y-98580686D01*
X194147298Y-98632886D01*
X194091971Y-98675551D01*
X194046982Y-98684000D01*
X193832315Y-98684000D01*
X193650527Y-98720160D01*
X193650519Y-98720162D01*
X193602270Y-98740148D01*
X193602269Y-98740148D01*
X193479276Y-98791092D01*
X193479263Y-98791099D01*
X193325147Y-98894077D01*
X193325143Y-98894080D01*
X193056044Y-99163181D01*
X192994721Y-99196666D01*
X192968363Y-99199500D01*
X192893713Y-99199500D01*
X192845042Y-99207208D01*
X192683760Y-99232753D01*
X192481585Y-99298444D01*
X192292179Y-99394951D01*
X192120213Y-99519890D01*
X191969890Y-99670213D01*
X191844951Y-99842179D01*
X191748444Y-100031585D01*
X191682753Y-100233760D01*
X191649500Y-100443713D01*
X191649500Y-100656286D01*
X191682753Y-100866240D01*
X191729545Y-101010251D01*
X191729857Y-101021189D01*
X191734384Y-101031150D01*
X191730837Y-101055497D01*
X191731540Y-101080092D01*
X191725890Y-101089460D01*
X191724313Y-101100290D01*
X191708162Y-101118858D01*
X191695459Y-101139925D01*
X191684438Y-101146135D01*
X191678460Y-101153009D01*
X191656664Y-101161785D01*
X191646328Y-101167611D01*
X191641119Y-101169129D01*
X191560520Y-101185162D01*
X191505829Y-101207816D01*
X191499584Y-101210402D01*
X191499576Y-101210405D01*
X191389276Y-101256092D01*
X191389263Y-101256099D01*
X191235147Y-101359077D01*
X191093699Y-101500525D01*
X191078134Y-101509051D01*
X191065740Y-101521513D01*
X191038135Y-101530962D01*
X191032705Y-101533937D01*
X191029069Y-101534738D01*
X190883757Y-101557754D01*
X190797584Y-101585753D01*
X190791687Y-101587053D01*
X190762609Y-101585052D01*
X190733476Y-101585885D01*
X190728166Y-101582683D01*
X190721982Y-101582258D01*
X190698599Y-101564853D01*
X190673644Y-101549804D01*
X190670909Y-101544241D01*
X190665935Y-101540539D01*
X190655673Y-101513254D01*
X190642816Y-101487103D01*
X190641921Y-101476686D01*
X190641340Y-101475141D01*
X190641660Y-101473648D01*
X190641000Y-101465959D01*
X190641000Y-98491137D01*
X190660685Y-98424098D01*
X190677319Y-98403456D01*
X192613456Y-96467319D01*
X192674779Y-96433834D01*
X192701137Y-96431000D01*
X194101472Y-96431000D01*
X194168511Y-96450685D01*
X194201789Y-96482113D01*
X194214844Y-96500082D01*
X194387418Y-96672656D01*
X194387423Y-96672660D01*
X194398853Y-96680964D01*
X194584861Y-96816106D01*
X194802315Y-96926904D01*
X195034424Y-97002321D01*
X195275473Y-97040500D01*
X195275474Y-97040500D01*
X195519526Y-97040500D01*
X195519527Y-97040500D01*
X195760576Y-97002321D01*
X195992685Y-96926904D01*
X196210139Y-96816106D01*
X196407583Y-96672655D01*
X196580155Y-96500083D01*
X196723606Y-96302639D01*
X196834404Y-96085185D01*
X196909821Y-95853076D01*
X196948000Y-95612027D01*
X196948000Y-95367973D01*
X196909821Y-95126924D01*
X196834404Y-94894815D01*
X196723606Y-94677361D01*
X196656620Y-94585162D01*
X196580160Y-94479923D01*
X196580156Y-94479918D01*
X196407919Y-94307681D01*
X196374434Y-94246358D01*
X196379418Y-94176666D01*
X196407919Y-94132319D01*
X196487142Y-94053096D01*
X196580155Y-93960083D01*
X196723606Y-93762639D01*
X196834404Y-93545185D01*
X196909821Y-93313076D01*
X196948000Y-93072027D01*
X196948000Y-92827973D01*
X196909821Y-92586924D01*
X196834404Y-92354815D01*
X196723606Y-92137361D01*
X196671714Y-92065938D01*
X196580160Y-91939923D01*
X196580156Y-91939918D01*
X196407919Y-91767681D01*
X196374434Y-91706358D01*
X196379418Y-91636666D01*
X196407919Y-91592319D01*
X196481826Y-91518412D01*
X196580155Y-91420083D01*
X196723606Y-91222639D01*
X196834404Y-91005185D01*
X196909821Y-90773076D01*
X196948000Y-90532027D01*
X196948000Y-90287973D01*
X196909821Y-90046924D01*
X196834404Y-89814815D01*
X196723606Y-89597361D01*
X196683811Y-89542588D01*
X196580160Y-89399923D01*
X196580156Y-89399918D01*
X196407919Y-89227681D01*
X196374434Y-89166358D01*
X196379418Y-89096666D01*
X196407919Y-89052319D01*
X196470463Y-88989775D01*
X196580155Y-88880083D01*
X196723606Y-88682639D01*
X196834404Y-88465185D01*
X196909821Y-88233076D01*
X196948000Y-87992027D01*
X196948000Y-87747973D01*
X196909821Y-87506924D01*
X196834404Y-87274815D01*
X196723606Y-87057361D01*
X196666308Y-86978497D01*
X196580160Y-86859923D01*
X196580156Y-86859918D01*
X196407919Y-86687681D01*
X196374434Y-86626358D01*
X196379418Y-86556666D01*
X196407919Y-86512319D01*
X196580155Y-86340083D01*
X196723606Y-86142639D01*
X196834404Y-85925185D01*
X196909821Y-85693076D01*
X196948000Y-85452027D01*
X196948000Y-85207973D01*
X196909821Y-84966924D01*
X196834404Y-84734815D01*
X196723606Y-84517361D01*
X196656620Y-84425162D01*
X196580160Y-84319923D01*
X196580156Y-84319918D01*
X196407919Y-84147681D01*
X196374434Y-84086358D01*
X196379418Y-84016666D01*
X196407919Y-83972319D01*
X196426376Y-83953862D01*
X196580155Y-83800083D01*
X196723606Y-83602639D01*
X196834404Y-83385185D01*
X196909821Y-83153076D01*
X196948000Y-82912027D01*
X196948000Y-82667973D01*
X196909821Y-82426924D01*
X196834404Y-82194815D01*
X196723606Y-81977361D01*
X196656619Y-81885161D01*
X196580160Y-81779923D01*
X196580156Y-81779918D01*
X196407919Y-81607681D01*
X196374434Y-81546358D01*
X196379418Y-81476666D01*
X196407919Y-81432319D01*
X196580155Y-81260083D01*
X196723606Y-81062639D01*
X196834404Y-80845185D01*
X196909821Y-80613076D01*
X196948000Y-80372027D01*
X196948000Y-80127973D01*
X196909821Y-79886924D01*
X196834404Y-79654815D01*
X196723606Y-79437361D01*
X196656620Y-79345162D01*
X196580160Y-79239923D01*
X196580156Y-79239918D01*
X196407919Y-79067681D01*
X196374434Y-79006358D01*
X196379418Y-78936666D01*
X196407919Y-78892319D01*
X196580155Y-78720083D01*
X196723606Y-78522639D01*
X196834404Y-78305185D01*
X196909821Y-78073076D01*
X196948000Y-77832027D01*
X196948000Y-77587973D01*
X196909821Y-77346924D01*
X196834404Y-77114815D01*
X196723606Y-76897361D01*
X196705279Y-76872136D01*
X196580160Y-76699923D01*
X196580156Y-76699918D01*
X196407581Y-76527343D01*
X196407576Y-76527339D01*
X196210142Y-76383896D01*
X196210141Y-76383895D01*
X196210139Y-76383894D01*
X195992685Y-76273096D01*
X195760576Y-76197679D01*
X195760574Y-76197678D01*
X195760572Y-76197678D01*
X195592269Y-76171021D01*
X195519527Y-76159500D01*
X195275473Y-76159500D01*
X195219593Y-76168350D01*
X195034427Y-76197678D01*
X194802312Y-76273097D01*
X194584857Y-76383896D01*
X194387423Y-76527339D01*
X194387418Y-76527343D01*
X194214843Y-76699918D01*
X194214839Y-76699923D01*
X194071396Y-76897357D01*
X193960597Y-77114812D01*
X193885178Y-77346927D01*
X193847000Y-77587973D01*
X193847000Y-77832026D01*
X193885178Y-78073072D01*
X193960597Y-78305187D01*
X194071396Y-78522642D01*
X194214839Y-78720076D01*
X194214843Y-78720081D01*
X194387081Y-78892319D01*
X194420566Y-78953642D01*
X194415582Y-79023334D01*
X194387081Y-79067681D01*
X194214843Y-79239918D01*
X194214839Y-79239923D01*
X194071396Y-79437357D01*
X193960597Y-79654812D01*
X193885178Y-79886927D01*
X193847000Y-80127973D01*
X193847000Y-80372026D01*
X193885178Y-80613072D01*
X193960597Y-80845187D01*
X194071396Y-81062642D01*
X194214839Y-81260076D01*
X194214843Y-81260081D01*
X194387081Y-81432319D01*
X194420566Y-81493642D01*
X194415582Y-81563334D01*
X194387081Y-81607681D01*
X194214847Y-81779914D01*
X194214844Y-81779917D01*
X194201789Y-81797887D01*
X194146459Y-81840552D01*
X194101472Y-81849000D01*
X190617315Y-81849000D01*
X190435527Y-81885159D01*
X190435523Y-81885161D01*
X190435521Y-81885161D01*
X190435520Y-81885162D01*
X190385362Y-81905938D01*
X190385360Y-81905939D01*
X190385359Y-81905938D01*
X190264273Y-81956093D01*
X190264271Y-81956094D01*
X190110147Y-82059077D01*
X190110143Y-82059080D01*
X181676430Y-90492793D01*
X181676427Y-90492797D01*
X181573447Y-90646916D01*
X181551244Y-90700521D01*
X181502512Y-90818169D01*
X181502510Y-90818177D01*
X181466350Y-90999965D01*
X181466350Y-95551305D01*
X181446665Y-95618344D01*
X181425349Y-95642768D01*
X181425466Y-95642885D01*
X181423746Y-95644604D01*
X181422883Y-95645594D01*
X181422019Y-95646331D01*
X181253683Y-95814668D01*
X181253675Y-95814678D01*
X181237667Y-95836711D01*
X181182337Y-95879377D01*
X181112723Y-95885355D01*
X181050929Y-95852748D01*
X181037033Y-95836711D01*
X181021024Y-95814678D01*
X181021020Y-95814672D01*
X180980352Y-95774004D01*
X180852680Y-95646331D01*
X180851817Y-95645594D01*
X180851580Y-95645231D01*
X180849234Y-95642885D01*
X180849726Y-95642392D01*
X180813625Y-95587087D01*
X180808350Y-95551305D01*
X180808350Y-88098787D01*
X180828035Y-88031748D01*
X180844669Y-88011106D01*
X200357802Y-68497973D01*
X217787000Y-68497973D01*
X217787000Y-68742026D01*
X217817577Y-68935083D01*
X217825179Y-68983076D01*
X217865657Y-69107655D01*
X217900597Y-69215187D01*
X218011396Y-69432642D01*
X218154839Y-69630076D01*
X218154843Y-69630081D01*
X218327418Y-69802656D01*
X218327423Y-69802660D01*
X218499636Y-69927779D01*
X218524861Y-69946106D01*
X218742315Y-70056904D01*
X218974424Y-70132321D01*
X219215473Y-70170500D01*
X219215474Y-70170500D01*
X219459526Y-70170500D01*
X219459527Y-70170500D01*
X219700576Y-70132321D01*
X219932685Y-70056904D01*
X220150139Y-69946106D01*
X220347583Y-69802655D01*
X220520155Y-69630083D01*
X220663606Y-69432639D01*
X220774404Y-69215185D01*
X220849821Y-68983076D01*
X220888000Y-68742027D01*
X220888000Y-68497973D01*
X220849821Y-68256924D01*
X220774404Y-68024815D01*
X220663606Y-67807361D01*
X220550620Y-67651848D01*
X220520160Y-67609923D01*
X220520156Y-67609918D01*
X220347581Y-67437343D01*
X220347576Y-67437339D01*
X220150142Y-67293896D01*
X220150141Y-67293895D01*
X220150139Y-67293894D01*
X219932685Y-67183096D01*
X219700576Y-67107679D01*
X219700574Y-67107678D01*
X219700572Y-67107678D01*
X219532269Y-67081021D01*
X219459527Y-67069500D01*
X219215473Y-67069500D01*
X219159593Y-67078350D01*
X218974427Y-67107678D01*
X218742312Y-67183097D01*
X218524857Y-67293896D01*
X218327423Y-67437339D01*
X218327418Y-67437343D01*
X218154843Y-67609918D01*
X218154839Y-67609923D01*
X218011396Y-67807357D01*
X217900597Y-68024812D01*
X217825178Y-68256927D01*
X217787000Y-68497973D01*
X200357802Y-68497973D01*
X201508456Y-67347319D01*
X201569779Y-67313834D01*
X201596137Y-67311000D01*
X204149391Y-67311000D01*
X204216430Y-67330685D01*
X204262185Y-67383489D01*
X204268605Y-67400883D01*
X204323591Y-67593050D01*
X204417802Y-67773408D01*
X204417804Y-67773410D01*
X204546390Y-67931109D01*
X204640303Y-68007685D01*
X204704092Y-68059698D01*
X204884450Y-68153909D01*
X205080081Y-68209886D01*
X205199462Y-68220500D01*
X205199468Y-68220500D01*
X207015532Y-68220500D01*
X207015538Y-68220500D01*
X207134919Y-68209886D01*
X207330550Y-68153909D01*
X207510908Y-68059698D01*
X207668609Y-67931109D01*
X207797198Y-67773408D01*
X207891409Y-67593050D01*
X207947386Y-67397419D01*
X207958000Y-67278038D01*
X207958000Y-65901637D01*
X207977685Y-65834598D01*
X207994319Y-65813956D01*
X208960956Y-64847319D01*
X209022279Y-64813834D01*
X209048637Y-64811000D01*
X218121472Y-64811000D01*
X218188511Y-64830685D01*
X218221789Y-64862113D01*
X218234844Y-64880082D01*
X218407418Y-65052656D01*
X218407423Y-65052660D01*
X218537203Y-65146950D01*
X218604861Y-65196106D01*
X218822315Y-65306904D01*
X219054424Y-65382321D01*
X219295473Y-65420500D01*
X219295474Y-65420500D01*
X219539526Y-65420500D01*
X219539527Y-65420500D01*
X219780576Y-65382321D01*
X220012685Y-65306904D01*
X220230139Y-65196106D01*
X220427583Y-65052655D01*
X220600155Y-64880083D01*
X220743606Y-64682639D01*
X220854404Y-64465185D01*
X220929821Y-64233076D01*
X220968000Y-63992027D01*
X220968000Y-63747973D01*
X230567000Y-63747973D01*
X230567000Y-63992026D01*
X230604310Y-64227593D01*
X230605179Y-64233076D01*
X230680596Y-64465185D01*
X230790204Y-64680304D01*
X230791396Y-64682642D01*
X230934839Y-64880076D01*
X230934843Y-64880081D01*
X231107418Y-65052656D01*
X231107423Y-65052660D01*
X231237203Y-65146950D01*
X231304861Y-65196106D01*
X231522315Y-65306904D01*
X231754424Y-65382321D01*
X231995473Y-65420500D01*
X231995474Y-65420500D01*
X232239526Y-65420500D01*
X232239527Y-65420500D01*
X232480576Y-65382321D01*
X232712685Y-65306904D01*
X232930139Y-65196106D01*
X233127583Y-65052655D01*
X233300155Y-64880083D01*
X233443606Y-64682639D01*
X233554404Y-64465185D01*
X233629821Y-64233076D01*
X233668000Y-63992027D01*
X233668000Y-63747973D01*
X233629821Y-63506924D01*
X233554404Y-63274815D01*
X233443606Y-63057361D01*
X233401806Y-62999828D01*
X233300160Y-62859923D01*
X233300156Y-62859918D01*
X233127581Y-62687343D01*
X233127576Y-62687339D01*
X232930142Y-62543896D01*
X232930141Y-62543895D01*
X232930139Y-62543894D01*
X232712685Y-62433096D01*
X232480576Y-62357679D01*
X232480574Y-62357678D01*
X232480572Y-62357678D01*
X232312269Y-62331021D01*
X232239527Y-62319500D01*
X231995473Y-62319500D01*
X231939593Y-62328350D01*
X231754427Y-62357678D01*
X231754424Y-62357679D01*
X231555222Y-62422404D01*
X231522312Y-62433097D01*
X231304857Y-62543896D01*
X231107423Y-62687339D01*
X231107418Y-62687343D01*
X230934843Y-62859918D01*
X230934839Y-62859923D01*
X230791396Y-63057357D01*
X230680597Y-63274812D01*
X230605178Y-63506927D01*
X230567000Y-63747973D01*
X220968000Y-63747973D01*
X220929821Y-63506924D01*
X220854404Y-63274815D01*
X220743606Y-63057361D01*
X220701806Y-62999828D01*
X220600160Y-62859923D01*
X220600156Y-62859918D01*
X220427581Y-62687343D01*
X220427576Y-62687339D01*
X220230142Y-62543896D01*
X220230141Y-62543895D01*
X220230139Y-62543894D01*
X220012685Y-62433096D01*
X219780576Y-62357679D01*
X219780574Y-62357678D01*
X219780572Y-62357678D01*
X219612269Y-62331021D01*
X219539527Y-62319500D01*
X219295473Y-62319500D01*
X219239593Y-62328350D01*
X219054427Y-62357678D01*
X219054424Y-62357679D01*
X218855222Y-62422404D01*
X218822312Y-62433097D01*
X218604857Y-62543896D01*
X218407423Y-62687339D01*
X218407418Y-62687343D01*
X218234844Y-62859917D01*
X218221789Y-62877887D01*
X218166459Y-62920552D01*
X218121472Y-62929000D01*
X208514815Y-62929000D01*
X208333027Y-62965160D01*
X208333019Y-62965162D01*
X208267149Y-62992447D01*
X208267148Y-62992447D01*
X208161776Y-63036092D01*
X208161763Y-63036099D01*
X208007647Y-63139077D01*
X208007643Y-63139080D01*
X206663544Y-64483181D01*
X206602221Y-64516666D01*
X206575863Y-64519500D01*
X205199462Y-64519500D01*
X205164515Y-64522607D01*
X205080085Y-64530113D01*
X205080082Y-64530113D01*
X205080081Y-64530114D01*
X205040875Y-64541332D01*
X204884453Y-64586089D01*
X204840610Y-64608991D01*
X204704092Y-64680302D01*
X204704090Y-64680303D01*
X204704089Y-64680304D01*
X204546390Y-64808890D01*
X204417804Y-64966589D01*
X204323590Y-65146952D01*
X204295021Y-65246794D01*
X204277823Y-65306904D01*
X204268607Y-65339112D01*
X204231240Y-65398149D01*
X204167886Y-65427613D01*
X204149391Y-65429000D01*
X201062315Y-65429000D01*
X200880527Y-65465159D01*
X200880523Y-65465161D01*
X200880521Y-65465161D01*
X200880520Y-65465162D01*
X200830362Y-65485938D01*
X200830360Y-65485939D01*
X200830359Y-65485938D01*
X200709273Y-65536093D01*
X200709271Y-65536094D01*
X200555147Y-65639077D01*
X200555143Y-65639080D01*
X179136430Y-87057793D01*
X179136427Y-87057797D01*
X179033449Y-87211914D01*
X179033442Y-87211927D01*
X179007963Y-87273442D01*
X179007963Y-87273443D01*
X178962512Y-87383169D01*
X178962510Y-87383177D01*
X178926350Y-87564965D01*
X178926350Y-95551305D01*
X178906665Y-95618344D01*
X178885349Y-95642768D01*
X178885466Y-95642885D01*
X178883746Y-95644604D01*
X178882883Y-95645594D01*
X178882019Y-95646331D01*
X178713683Y-95814668D01*
X178713682Y-95814670D01*
X178713680Y-95814672D01*
X178686016Y-95852748D01*
X178573744Y-96007276D01*
X178465660Y-96219400D01*
X178465659Y-96219403D01*
X178392093Y-96445820D01*
X178354850Y-96680964D01*
X178354850Y-96919035D01*
X178392093Y-97154179D01*
X178465659Y-97380596D01*
X178465660Y-97380599D01*
X178514220Y-97475902D01*
X178573744Y-97592723D01*
X178713680Y-97785328D01*
X178882022Y-97953670D01*
X178882028Y-97953674D01*
X178904061Y-97969683D01*
X178946727Y-98025013D01*
X178952705Y-98094627D01*
X178920098Y-98156421D01*
X178904061Y-98170317D01*
X178882028Y-98186325D01*
X178882019Y-98186332D01*
X178713673Y-98354678D01*
X178712935Y-98355543D01*
X178712572Y-98355779D01*
X178710235Y-98358117D01*
X178709743Y-98357625D01*
X178654424Y-98393729D01*
X178618655Y-98399000D01*
X173445413Y-98399000D01*
X173378374Y-98379315D01*
X173332619Y-98326511D01*
X173322675Y-98257353D01*
X173327482Y-98236683D01*
X173341416Y-98193797D01*
X173342246Y-98191243D01*
X173375500Y-97981287D01*
X173375500Y-97768713D01*
X173342246Y-97558757D01*
X173276557Y-97356588D01*
X173180051Y-97167184D01*
X173180049Y-97167181D01*
X173180048Y-97167179D01*
X173055109Y-96995213D01*
X173002319Y-96942423D01*
X172968834Y-96881100D01*
X172966000Y-96854742D01*
X172966000Y-95269103D01*
X172985685Y-95202064D01*
X173038489Y-95156309D01*
X173107647Y-95146365D01*
X173171203Y-95175390D01*
X173197385Y-95207101D01*
X173245414Y-95290289D01*
X173245416Y-95290292D01*
X173245417Y-95290293D01*
X173393083Y-95482736D01*
X173393089Y-95482743D01*
X173564606Y-95654260D01*
X173564613Y-95654266D01*
X173677671Y-95741018D01*
X173757061Y-95801936D01*
X173967138Y-95923224D01*
X174191250Y-96016054D01*
X174425561Y-96078838D01*
X174605936Y-96102584D01*
X174666061Y-96110500D01*
X174666062Y-96110500D01*
X174908639Y-96110500D01*
X174956738Y-96104167D01*
X175149139Y-96078838D01*
X175383450Y-96016054D01*
X175607562Y-95923224D01*
X175817639Y-95801936D01*
X176010088Y-95654265D01*
X176181615Y-95482738D01*
X176329286Y-95290289D01*
X176450574Y-95080212D01*
X176543404Y-94856100D01*
X176606188Y-94621789D01*
X176637850Y-94381288D01*
X176637850Y-94138712D01*
X176606188Y-93898211D01*
X176543404Y-93663900D01*
X176450574Y-93439788D01*
X176329286Y-93229711D01*
X176181615Y-93037262D01*
X176181610Y-93037256D01*
X176010093Y-92865739D01*
X176010086Y-92865733D01*
X175817643Y-92718067D01*
X175817642Y-92718066D01*
X175817639Y-92718064D01*
X175607562Y-92596776D01*
X175607555Y-92596773D01*
X175383454Y-92503947D01*
X175149135Y-92441161D01*
X174908639Y-92409500D01*
X174908638Y-92409500D01*
X174666062Y-92409500D01*
X174666061Y-92409500D01*
X174425564Y-92441161D01*
X174191245Y-92503947D01*
X173967144Y-92596773D01*
X173967135Y-92596777D01*
X173757056Y-92718067D01*
X173564613Y-92865733D01*
X173564606Y-92865739D01*
X173393089Y-93037256D01*
X173393083Y-93037263D01*
X173245419Y-93229703D01*
X173197387Y-93312897D01*
X173146819Y-93361112D01*
X173078212Y-93374334D01*
X173013348Y-93348366D01*
X172972820Y-93291452D01*
X172966000Y-93250896D01*
X172966000Y-91041137D01*
X172985685Y-90974098D01*
X173002319Y-90953456D01*
X204218456Y-59737319D01*
X204279779Y-59703834D01*
X204306137Y-59701000D01*
X237938270Y-59701000D01*
X238005309Y-59720685D01*
X238051064Y-59773489D01*
X238061008Y-59842647D01*
X238031983Y-59906203D01*
X238025951Y-59912681D01*
X237957289Y-59981342D01*
X237865187Y-60130663D01*
X237865186Y-60130666D01*
X237810001Y-60297203D01*
X237810001Y-60297204D01*
X237810000Y-60297204D01*
X237799500Y-60399983D01*
X237799500Y-62200001D01*
X237799501Y-62200018D01*
X237810000Y-62302796D01*
X237810001Y-62302799D01*
X237828187Y-62357679D01*
X237865186Y-62469334D01*
X237957288Y-62618656D01*
X238081344Y-62742712D01*
X238230666Y-62834814D01*
X238397203Y-62889999D01*
X238499991Y-62900500D01*
X240300008Y-62900499D01*
X240402797Y-62889999D01*
X240569334Y-62834814D01*
X240718656Y-62742712D01*
X240842712Y-62618656D01*
X240934814Y-62469334D01*
X240989999Y-62302797D01*
X241000500Y-62200009D01*
X241000499Y-60399992D01*
X240989999Y-60297203D01*
X240934814Y-60130666D01*
X240842712Y-59981344D01*
X240718656Y-59857288D01*
X240713871Y-59852503D01*
X240680386Y-59791180D01*
X240685370Y-59721488D01*
X240701235Y-59691936D01*
X240768867Y-59598849D01*
X240768866Y-59598849D01*
X240768870Y-59598845D01*
X240883241Y-59374379D01*
X240961090Y-59134785D01*
X241000500Y-58885962D01*
X241000500Y-58634038D01*
X240961090Y-58385215D01*
X240883241Y-58145621D01*
X240883239Y-58145618D01*
X240883239Y-58145616D01*
X240823859Y-58029077D01*
X240768870Y-57921155D01*
X240723142Y-57858215D01*
X240620798Y-57717350D01*
X240620794Y-57717345D01*
X240481130Y-57577681D01*
X240447645Y-57516358D01*
X240452629Y-57446666D01*
X240481130Y-57402319D01*
X240503949Y-57379500D01*
X240620793Y-57262656D01*
X240669144Y-57196106D01*
X240768869Y-57058847D01*
X240883239Y-56834383D01*
X240883239Y-56834382D01*
X240883241Y-56834379D01*
X240961090Y-56594785D01*
X241000500Y-56345962D01*
X241000500Y-56094038D01*
X240961090Y-55845215D01*
X240883241Y-55605621D01*
X240883239Y-55605618D01*
X240883239Y-55605616D01*
X240815690Y-55473045D01*
X240768870Y-55381155D01*
X240743722Y-55346541D01*
X240620798Y-55177350D01*
X240620794Y-55177345D01*
X240442654Y-54999205D01*
X240442649Y-54999201D01*
X240238848Y-54851132D01*
X240238847Y-54851131D01*
X240238845Y-54851130D01*
X240168747Y-54815413D01*
X240014383Y-54736760D01*
X239774785Y-54658910D01*
X239525962Y-54619500D01*
X239274038Y-54619500D01*
X239149626Y-54639205D01*
X239025214Y-54658910D01*
X238785616Y-54736760D01*
X238561151Y-54851132D01*
X238357350Y-54999201D01*
X238357345Y-54999205D01*
X238179203Y-55177347D01*
X238142488Y-55227884D01*
X238087159Y-55270550D01*
X238042169Y-55279000D01*
X222348341Y-55279000D01*
X222281302Y-55259315D01*
X222235547Y-55206511D01*
X222225603Y-55137353D01*
X222237857Y-55098704D01*
X222259576Y-55056078D01*
X222259576Y-55056077D01*
X222259579Y-55056072D01*
X222339860Y-54808993D01*
X222376145Y-54579897D01*
X222380500Y-54552402D01*
X222380500Y-52492597D01*
X222344215Y-52263505D01*
X222339860Y-52236007D01*
X222259579Y-51988928D01*
X222259577Y-51988925D01*
X222259577Y-51988923D01*
X222213325Y-51898149D01*
X222141634Y-51757449D01*
X221988931Y-51547271D01*
X221805229Y-51363569D01*
X221799441Y-51359364D01*
X221595054Y-51210868D01*
X221595053Y-51210867D01*
X221595051Y-51210866D01*
X221495814Y-51160302D01*
X221363576Y-51092922D01*
X221116493Y-51012640D01*
X220859902Y-50972000D01*
X220859897Y-50972000D01*
X220600103Y-50972000D01*
X220600098Y-50972000D01*
X220343506Y-51012640D01*
X220096423Y-51092922D01*
X219864945Y-51210868D01*
X219654774Y-51363566D01*
X219654768Y-51363571D01*
X219471071Y-51547268D01*
X219471066Y-51547274D01*
X219318368Y-51757445D01*
X219200422Y-51988923D01*
X219180149Y-52051319D01*
X219140711Y-52108994D01*
X219076352Y-52136192D01*
X219062218Y-52137000D01*
X217317782Y-52137000D01*
X217250743Y-52117315D01*
X217204988Y-52064511D01*
X217199851Y-52051319D01*
X217179579Y-51988928D01*
X217179577Y-51988925D01*
X217179577Y-51988923D01*
X217133325Y-51898149D01*
X217061634Y-51757449D01*
X216908931Y-51547271D01*
X216725229Y-51363569D01*
X216719441Y-51359364D01*
X216515054Y-51210868D01*
X216515053Y-51210867D01*
X216515051Y-51210866D01*
X216415814Y-51160302D01*
X216283576Y-51092922D01*
X216036493Y-51012640D01*
X215779902Y-50972000D01*
X215779897Y-50972000D01*
X215520103Y-50972000D01*
X215520098Y-50972000D01*
X215263506Y-51012640D01*
X215016423Y-51092922D01*
X214784945Y-51210868D01*
X214574774Y-51363566D01*
X214574768Y-51363571D01*
X214391071Y-51547268D01*
X214391066Y-51547274D01*
X214238368Y-51757445D01*
X214120422Y-51988923D01*
X214100149Y-52051319D01*
X214060711Y-52108994D01*
X213996352Y-52136192D01*
X213982218Y-52137000D01*
X212237782Y-52137000D01*
X212170743Y-52117315D01*
X212124988Y-52064511D01*
X212119851Y-52051319D01*
X212099579Y-51988928D01*
X212099577Y-51988925D01*
X212099577Y-51988923D01*
X212053325Y-51898149D01*
X211981634Y-51757449D01*
X211828931Y-51547271D01*
X211645229Y-51363569D01*
X211639441Y-51359364D01*
X211435054Y-51210868D01*
X211435053Y-51210867D01*
X211435051Y-51210866D01*
X211335814Y-51160302D01*
X211203576Y-51092922D01*
X210956493Y-51012640D01*
X210699902Y-50972000D01*
X210699897Y-50972000D01*
X210440103Y-50972000D01*
X210440098Y-50972000D01*
X210183506Y-51012640D01*
X209936423Y-51092922D01*
X209704945Y-51210868D01*
X209494774Y-51363566D01*
X209494768Y-51363571D01*
X209311071Y-51547268D01*
X209311066Y-51547274D01*
X209158368Y-51757445D01*
X209040422Y-51988923D01*
X208960140Y-52236006D01*
X208919500Y-52492597D01*
X208919500Y-54552402D01*
X208960140Y-54808993D01*
X208993953Y-54913060D01*
X209040423Y-55056078D01*
X209062143Y-55098704D01*
X209075040Y-55167373D01*
X209048764Y-55232114D01*
X208991658Y-55272371D01*
X208951659Y-55279000D01*
X207262814Y-55279000D01*
X207195775Y-55259315D01*
X207150020Y-55206511D01*
X207139301Y-55144019D01*
X207140500Y-55130537D01*
X207140499Y-51914464D01*
X207129886Y-51795082D01*
X207073909Y-51599451D01*
X206979698Y-51419093D01*
X206895376Y-51315680D01*
X206851109Y-51261390D01*
X206735933Y-51167477D01*
X206693407Y-51132802D01*
X206513049Y-51038591D01*
X206513048Y-51038590D01*
X206513045Y-51038589D01*
X206376435Y-50999501D01*
X206317418Y-50982614D01*
X206317415Y-50982613D01*
X206317413Y-50982613D01*
X206251102Y-50976717D01*
X206198037Y-50972000D01*
X206198032Y-50972000D01*
X204781971Y-50972000D01*
X204781965Y-50972000D01*
X204781964Y-50972001D01*
X204770316Y-50973036D01*
X204662584Y-50982613D01*
X204466954Y-51038589D01*
X204414305Y-51066091D01*
X204286593Y-51132802D01*
X204286591Y-51132803D01*
X204286590Y-51132804D01*
X204128890Y-51261390D01*
X204000304Y-51419090D01*
X204000302Y-51419093D01*
X203975001Y-51467529D01*
X203906089Y-51599454D01*
X203865354Y-51741819D01*
X203852561Y-51786532D01*
X203850114Y-51795083D01*
X203850113Y-51795086D01*
X203846794Y-51832425D01*
X203840951Y-51898149D01*
X203839500Y-51914466D01*
X203839500Y-55130528D01*
X203839501Y-55130536D01*
X203840700Y-55144021D01*
X203827029Y-55212540D01*
X203778483Y-55262790D01*
X203717187Y-55279000D01*
X202662315Y-55279000D01*
X202480527Y-55315160D01*
X202480519Y-55315162D01*
X202404765Y-55346541D01*
X202309272Y-55386095D01*
X202309262Y-55386100D01*
X202155147Y-55489077D01*
X202155143Y-55489080D01*
X188164741Y-69479483D01*
X188156795Y-69483821D01*
X188151370Y-69491069D01*
X188126610Y-69500303D01*
X188103418Y-69512968D01*
X188094388Y-69512322D01*
X188085906Y-69515486D01*
X188060085Y-69509869D01*
X188033726Y-69507984D01*
X188024672Y-69502165D01*
X188017633Y-69500634D01*
X187989379Y-69479483D01*
X187952319Y-69442423D01*
X187918834Y-69381100D01*
X187916000Y-69354742D01*
X187916000Y-65132319D01*
X187915999Y-65132315D01*
X187879839Y-64950527D01*
X187879838Y-64950520D01*
X187821173Y-64808891D01*
X187808904Y-64779270D01*
X187705922Y-64625147D01*
X187705919Y-64625143D01*
X182084819Y-59004043D01*
X182051334Y-58942720D01*
X182048500Y-58916362D01*
X182048500Y-55869634D01*
X182068185Y-55802595D01*
X182099614Y-55769316D01*
X182182729Y-55708931D01*
X182366431Y-55525229D01*
X182519134Y-55315051D01*
X182637079Y-55083572D01*
X182717360Y-54836493D01*
X182751728Y-54619500D01*
X182758000Y-54579902D01*
X182758000Y-52520097D01*
X182725758Y-52316533D01*
X182717360Y-52263507D01*
X182637079Y-52016428D01*
X182637077Y-52016425D01*
X182637077Y-52016423D01*
X182585129Y-51914471D01*
X182519134Y-51784949D01*
X182366431Y-51574771D01*
X182182729Y-51391069D01*
X182144881Y-51363571D01*
X181972554Y-51238368D01*
X181972553Y-51238367D01*
X181972551Y-51238366D01*
X181900264Y-51201534D01*
X181741076Y-51120422D01*
X181493993Y-51040140D01*
X181237402Y-50999500D01*
X181237397Y-50999500D01*
X180977603Y-50999500D01*
X180977598Y-50999500D01*
X180721006Y-51040140D01*
X180473923Y-51120422D01*
X180242445Y-51238368D01*
X180032274Y-51391066D01*
X180032268Y-51391071D01*
X179848571Y-51574768D01*
X179848566Y-51574774D01*
X179695868Y-51784945D01*
X179577922Y-52016423D01*
X179497640Y-52263506D01*
X179457000Y-52520097D01*
X179457000Y-54579902D01*
X179497640Y-54836493D01*
X179577922Y-55083576D01*
X179640562Y-55206511D01*
X179676689Y-55277415D01*
X179695868Y-55315054D01*
X179848566Y-55525225D01*
X179848571Y-55525231D01*
X180032274Y-55708934D01*
X180084642Y-55746980D01*
X180115384Y-55769316D01*
X180158051Y-55824644D01*
X180166500Y-55869634D01*
X180166500Y-59450184D01*
X180202660Y-59631972D01*
X180202662Y-59631980D01*
X180230630Y-59699500D01*
X180230630Y-59699501D01*
X180273592Y-59803223D01*
X180273599Y-59803236D01*
X180376577Y-59957352D01*
X180376580Y-59957356D01*
X185997681Y-65578456D01*
X186031166Y-65639779D01*
X186034000Y-65666137D01*
X186034000Y-66219285D01*
X186014315Y-66286324D01*
X185961511Y-66332079D01*
X185892353Y-66342023D01*
X185828797Y-66312998D01*
X185791023Y-66254220D01*
X185788383Y-66243476D01*
X185779839Y-66200527D01*
X185779838Y-66200520D01*
X185708903Y-66029269D01*
X185659894Y-65955922D01*
X185659894Y-65955921D01*
X185605925Y-65875151D01*
X185605919Y-65875143D01*
X177004819Y-57274043D01*
X176971334Y-57212720D01*
X176968500Y-57186362D01*
X176968500Y-55869634D01*
X176988185Y-55802595D01*
X177019614Y-55769316D01*
X177102729Y-55708931D01*
X177286431Y-55525229D01*
X177439134Y-55315051D01*
X177557079Y-55083572D01*
X177637360Y-54836493D01*
X177671728Y-54619500D01*
X177678000Y-54579902D01*
X177678000Y-52520097D01*
X177645758Y-52316533D01*
X177637360Y-52263507D01*
X177557079Y-52016428D01*
X177557077Y-52016425D01*
X177557077Y-52016423D01*
X177505129Y-51914471D01*
X177439134Y-51784949D01*
X177286431Y-51574771D01*
X177102729Y-51391069D01*
X177064881Y-51363571D01*
X176892554Y-51238368D01*
X176892553Y-51238367D01*
X176892551Y-51238366D01*
X176820264Y-51201534D01*
X176661076Y-51120422D01*
X176413993Y-51040140D01*
X176157402Y-50999500D01*
X176157397Y-50999500D01*
X175897603Y-50999500D01*
X175897598Y-50999500D01*
X175641006Y-51040140D01*
X175393923Y-51120422D01*
X175162445Y-51238368D01*
X174952274Y-51391066D01*
X174952268Y-51391071D01*
X174768571Y-51574768D01*
X174768566Y-51574774D01*
X174615868Y-51784945D01*
X174497922Y-52016423D01*
X174417640Y-52263506D01*
X174377000Y-52520097D01*
X174377000Y-54579902D01*
X174417640Y-54836493D01*
X174497922Y-55083576D01*
X174560562Y-55206511D01*
X174596689Y-55277415D01*
X174615868Y-55315054D01*
X174768566Y-55525225D01*
X174768571Y-55525231D01*
X174952274Y-55708934D01*
X175004642Y-55746980D01*
X175035384Y-55769316D01*
X175078051Y-55824644D01*
X175086500Y-55869634D01*
X175086500Y-57720184D01*
X175122660Y-57901973D01*
X175122662Y-57901980D01*
X175132650Y-57926092D01*
X175132651Y-57926097D01*
X175132652Y-57926097D01*
X175193592Y-58073223D01*
X175193599Y-58073236D01*
X175296577Y-58227352D01*
X175296580Y-58227356D01*
X183897681Y-66828456D01*
X183931166Y-66889779D01*
X183934000Y-66916137D01*
X183934000Y-69354742D01*
X183914315Y-69421781D01*
X183897681Y-69442423D01*
X183844894Y-69495209D01*
X183844890Y-69495213D01*
X183719951Y-69667179D01*
X183623444Y-69856585D01*
X183557753Y-70058760D01*
X183524500Y-70268713D01*
X183524500Y-70481286D01*
X183557753Y-70691239D01*
X183623444Y-70893414D01*
X183719951Y-71082820D01*
X183844890Y-71254786D01*
X183995213Y-71405109D01*
X184167179Y-71530048D01*
X184167181Y-71530049D01*
X184167184Y-71530051D01*
X184356588Y-71626557D01*
X184558757Y-71692246D01*
X184768713Y-71725500D01*
X184768714Y-71725500D01*
X184981286Y-71725500D01*
X184981287Y-71725500D01*
X185191243Y-71692246D01*
X185393412Y-71626557D01*
X185582816Y-71530051D01*
X185671439Y-71465663D01*
X185754786Y-71405109D01*
X185754788Y-71405106D01*
X185754792Y-71405104D01*
X185837319Y-71322577D01*
X185845264Y-71318238D01*
X185850690Y-71310991D01*
X185875449Y-71301756D01*
X185898642Y-71289092D01*
X185907671Y-71289737D01*
X185916154Y-71286574D01*
X185941974Y-71292190D01*
X185968334Y-71294076D01*
X185977387Y-71299894D01*
X185984427Y-71301426D01*
X186012681Y-71322577D01*
X186079483Y-71389379D01*
X186112968Y-71450702D01*
X186107984Y-71520394D01*
X186079483Y-71564741D01*
X169745580Y-87898643D01*
X169745577Y-87898647D01*
X169642599Y-88052763D01*
X169642592Y-88052776D01*
X169630006Y-88083164D01*
X169630006Y-88083165D01*
X169571662Y-88224019D01*
X169571660Y-88224027D01*
X169535500Y-88405815D01*
X169535500Y-98144184D01*
X169571660Y-98325973D01*
X169571663Y-98325983D01*
X169583547Y-98354673D01*
X169642592Y-98497223D01*
X169642599Y-98497236D01*
X169745577Y-98651352D01*
X169745580Y-98651356D01*
X170811800Y-99717575D01*
X170845285Y-99778898D01*
X170840301Y-99848590D01*
X170834604Y-99861550D01*
X170773445Y-99981582D01*
X170773443Y-99981587D01*
X170773443Y-99981588D01*
X170729650Y-100116367D01*
X170707753Y-100183760D01*
X170687495Y-100311666D01*
X170674500Y-100393713D01*
X170674500Y-100606287D01*
X170680347Y-100643202D01*
X170704770Y-100797407D01*
X170707754Y-100816243D01*
X170770791Y-101010251D01*
X170773444Y-101018414D01*
X170869951Y-101207820D01*
X170994890Y-101379786D01*
X170994896Y-101379792D01*
X171145208Y-101530104D01*
X171317184Y-101655051D01*
X171317188Y-101655053D01*
X171321347Y-101657602D01*
X171320864Y-101658388D01*
X171345532Y-101676307D01*
X172280143Y-102610919D01*
X172280147Y-102610922D01*
X172434265Y-102713901D01*
X172434266Y-102713901D01*
X172434270Y-102713904D01*
X172510321Y-102745405D01*
X172605520Y-102784838D01*
X172787315Y-102820999D01*
X172787319Y-102821000D01*
X172787320Y-102821000D01*
X178618655Y-102821000D01*
X178685694Y-102840685D01*
X178710118Y-102861999D01*
X178710235Y-102861883D01*
X178711945Y-102863593D01*
X178712935Y-102864457D01*
X178713673Y-102865321D01*
X178713679Y-102865327D01*
X178713680Y-102865328D01*
X178882022Y-103033670D01*
X178889656Y-103039217D01*
X178904061Y-103049683D01*
X178946727Y-103105013D01*
X178952705Y-103174627D01*
X178920098Y-103236421D01*
X178904061Y-103250317D01*
X178882028Y-103266325D01*
X178882019Y-103266332D01*
X178713682Y-103434669D01*
X178713682Y-103434670D01*
X178713680Y-103434672D01*
X178698775Y-103455187D01*
X178573744Y-103627276D01*
X178465660Y-103839400D01*
X178465659Y-103839403D01*
X178392093Y-104065820D01*
X178354850Y-104300964D01*
X178354850Y-104539035D01*
X178392093Y-104774179D01*
X178465659Y-105000596D01*
X178465660Y-105000599D01*
X178573744Y-105212723D01*
X178713680Y-105405328D01*
X178882022Y-105573670D01*
X179074627Y-105713606D01*
X179171709Y-105763072D01*
X179286750Y-105821689D01*
X179286753Y-105821690D01*
X179394400Y-105856666D01*
X179513172Y-105895257D01*
X179748314Y-105932500D01*
X179748315Y-105932500D01*
X179986385Y-105932500D01*
X179986386Y-105932500D01*
X180221528Y-105895257D01*
X180447949Y-105821689D01*
X180660073Y-105713606D01*
X180852678Y-105573670D01*
X181021020Y-105405328D01*
X181037031Y-105383291D01*
X181092360Y-105340625D01*
X181161973Y-105334644D01*
X181223769Y-105367249D01*
X181237669Y-105383291D01*
X181253676Y-105405324D01*
X181253680Y-105405328D01*
X181422022Y-105573670D01*
X181422028Y-105573674D01*
X181444061Y-105589683D01*
X181486727Y-105645013D01*
X181492705Y-105714627D01*
X181460098Y-105776421D01*
X181444061Y-105790317D01*
X181422028Y-105806325D01*
X181422019Y-105806332D01*
X181253682Y-105974669D01*
X181253682Y-105974670D01*
X181253680Y-105974672D01*
X181238775Y-105995187D01*
X181113744Y-106167276D01*
X181005660Y-106379400D01*
X181005659Y-106379403D01*
X180932093Y-106605820D01*
X180894850Y-106840964D01*
X180894850Y-107079035D01*
X180932093Y-107314179D01*
X181005659Y-107540596D01*
X181005660Y-107540599D01*
X181079352Y-107685225D01*
X181113744Y-107752723D01*
X181253680Y-107945328D01*
X181422022Y-108113670D01*
X181422028Y-108113674D01*
X181444061Y-108129683D01*
X181486727Y-108185013D01*
X181492705Y-108254627D01*
X181460098Y-108316421D01*
X181444061Y-108330317D01*
X181422028Y-108346325D01*
X181422019Y-108346332D01*
X181253682Y-108514669D01*
X181253675Y-108514678D01*
X181237667Y-108536711D01*
X181182337Y-108579377D01*
X181112723Y-108585355D01*
X181050929Y-108552748D01*
X181037033Y-108536711D01*
X181021024Y-108514678D01*
X181021020Y-108514672D01*
X180852678Y-108346330D01*
X180660073Y-108206394D01*
X180658077Y-108205377D01*
X180447949Y-108098310D01*
X180447946Y-108098309D01*
X180221529Y-108024743D01*
X180103957Y-108006121D01*
X179986386Y-107987500D01*
X179748314Y-107987500D01*
X179669933Y-107999914D01*
X179513170Y-108024743D01*
X179286753Y-108098309D01*
X179286750Y-108098310D01*
X179074626Y-108206394D01*
X179008240Y-108254627D01*
X178882022Y-108346330D01*
X178882020Y-108346332D01*
X178882019Y-108346332D01*
X178713682Y-108514669D01*
X178713682Y-108514670D01*
X178713680Y-108514672D01*
X178698775Y-108535187D01*
X178573744Y-108707276D01*
X178465660Y-108919400D01*
X178465659Y-108919403D01*
X178392093Y-109145820D01*
X178354850Y-109380964D01*
X178354850Y-109619035D01*
X178392093Y-109854179D01*
X178465659Y-110080596D01*
X178465660Y-110080599D01*
X178563511Y-110272639D01*
X178573744Y-110292723D01*
X178713680Y-110485328D01*
X178882022Y-110653670D01*
X178882028Y-110653674D01*
X178904061Y-110669683D01*
X178946727Y-110725013D01*
X178952705Y-110794627D01*
X178920098Y-110856421D01*
X178904061Y-110870317D01*
X178882028Y-110886325D01*
X178882019Y-110886332D01*
X178713673Y-111054678D01*
X178712935Y-111055543D01*
X178712572Y-111055779D01*
X178710235Y-111058117D01*
X178709743Y-111057625D01*
X178654424Y-111093729D01*
X178618655Y-111099000D01*
X167081137Y-111099000D01*
X167014098Y-111079315D01*
X166993456Y-111062681D01*
X152802319Y-96871544D01*
X152768834Y-96810221D01*
X152766000Y-96783863D01*
X152766000Y-66157319D01*
X152765999Y-66157315D01*
X152729839Y-65975527D01*
X152729838Y-65975520D01*
X152688262Y-65875147D01*
X152688262Y-65875146D01*
X152658907Y-65804276D01*
X152658900Y-65804263D01*
X152555922Y-65650147D01*
X152555919Y-65650143D01*
X148736819Y-61831043D01*
X148703334Y-61769720D01*
X148700500Y-61743362D01*
X148700500Y-61668713D01*
X148667246Y-61458760D01*
X148667246Y-61458757D01*
X148601557Y-61256588D01*
X148505051Y-61067184D01*
X148505049Y-61067181D01*
X148505048Y-61067179D01*
X148380109Y-60895213D01*
X148229786Y-60744890D01*
X148057820Y-60619951D01*
X147868414Y-60523444D01*
X147868413Y-60523443D01*
X147868412Y-60523443D01*
X147666243Y-60457754D01*
X147666241Y-60457753D01*
X147666240Y-60457753D01*
X147504957Y-60432208D01*
X147456287Y-60424500D01*
X147243713Y-60424500D01*
X147204202Y-60430757D01*
X147033759Y-60457753D01*
X147033755Y-60457754D01*
X146943317Y-60487139D01*
X146873476Y-60489134D01*
X146813643Y-60453053D01*
X146782816Y-60390352D01*
X146781000Y-60369208D01*
X146781000Y-55869634D01*
X146800685Y-55802595D01*
X146832114Y-55769316D01*
X146915229Y-55708931D01*
X147098931Y-55525229D01*
X147251634Y-55315051D01*
X147369579Y-55083572D01*
X147449860Y-54836493D01*
X147484228Y-54619500D01*
X147490500Y-54579902D01*
X147490500Y-52520097D01*
X147458258Y-52316533D01*
X147449860Y-52263507D01*
X147369579Y-52016428D01*
X147369577Y-52016425D01*
X147369577Y-52016423D01*
X147317629Y-51914471D01*
X147251634Y-51784949D01*
X147098931Y-51574771D01*
X146915229Y-51391069D01*
X146877381Y-51363571D01*
X146705054Y-51238368D01*
X146705053Y-51238367D01*
X146705051Y-51238366D01*
X146632764Y-51201534D01*
X146473576Y-51120422D01*
X146226493Y-51040140D01*
X145969902Y-50999500D01*
X145969897Y-50999500D01*
X145710103Y-50999500D01*
X145710098Y-50999500D01*
X145453506Y-51040140D01*
X145206423Y-51120422D01*
X144974945Y-51238368D01*
X144764774Y-51391066D01*
X144764768Y-51391071D01*
X144581071Y-51574768D01*
X144581066Y-51574774D01*
X144428368Y-51784945D01*
X144310422Y-52016423D01*
X144230140Y-52263506D01*
X144189500Y-52520097D01*
X144189500Y-54579902D01*
X144230140Y-54836493D01*
X144310422Y-55083576D01*
X144373062Y-55206511D01*
X144409189Y-55277415D01*
X144428368Y-55315054D01*
X144581066Y-55525225D01*
X144581071Y-55525231D01*
X144764774Y-55708934D01*
X144817142Y-55746980D01*
X144847884Y-55769316D01*
X144890551Y-55824644D01*
X144899000Y-55869634D01*
X144899000Y-98107684D01*
X144935160Y-98289472D01*
X144935162Y-98289480D01*
X144950281Y-98325980D01*
X144950281Y-98325981D01*
X145006092Y-98460723D01*
X145006099Y-98460736D01*
X145109077Y-98614852D01*
X145109080Y-98614856D01*
X168613181Y-122118956D01*
X168646666Y-122180279D01*
X168649500Y-122206637D01*
X168649500Y-122281287D01*
X168682754Y-122491243D01*
X168703203Y-122554179D01*
X168748444Y-122693414D01*
X168844951Y-122882820D01*
X168969890Y-123054786D01*
X169120209Y-123205105D01*
X169120214Y-123205109D01*
X169233178Y-123287182D01*
X169248287Y-123306775D01*
X169266509Y-123323515D01*
X169269249Y-123333958D01*
X169275844Y-123342511D01*
X169277961Y-123367163D01*
X169284241Y-123391097D01*
X169280898Y-123401366D01*
X169281823Y-123412125D01*
X169270276Y-123434007D01*
X169262620Y-123457537D01*
X169252216Y-123468236D01*
X169249218Y-123473920D01*
X169238743Y-123483529D01*
X169236012Y-123485759D01*
X169120208Y-123569896D01*
X169063015Y-123627088D01*
X169058192Y-123631029D01*
X169031513Y-123642289D01*
X169006100Y-123656166D01*
X168996083Y-123657242D01*
X168993821Y-123658198D01*
X168991288Y-123657758D01*
X168979742Y-123659000D01*
X168166137Y-123659000D01*
X168099098Y-123639315D01*
X168078456Y-123622681D01*
X141737319Y-97281544D01*
X141703834Y-97220221D01*
X141701000Y-97193863D01*
X141701000Y-56150678D01*
X141720685Y-56083639D01*
X141773489Y-56037884D01*
X141779002Y-56035525D01*
X141783036Y-56033912D01*
X141783049Y-56033909D01*
X141963407Y-55939698D01*
X142121109Y-55811109D01*
X142249698Y-55653407D01*
X142343909Y-55473049D01*
X142399886Y-55277418D01*
X142410500Y-55158037D01*
X142410499Y-51941964D01*
X142399886Y-51822582D01*
X142343909Y-51626951D01*
X142249698Y-51446593D01*
X142197684Y-51382803D01*
X142121109Y-51288890D01*
X141963409Y-51160304D01*
X141963410Y-51160304D01*
X141963407Y-51160302D01*
X141783049Y-51066091D01*
X141783048Y-51066090D01*
X141783045Y-51066089D01*
X141657444Y-51030151D01*
X141587418Y-51010114D01*
X141587415Y-51010113D01*
X141587413Y-51010113D01*
X141521102Y-51004217D01*
X141468037Y-50999500D01*
X141468032Y-50999500D01*
X140051971Y-50999500D01*
X140051965Y-50999500D01*
X140051964Y-50999501D01*
X140040316Y-51000536D01*
X139932584Y-51010113D01*
X139736954Y-51066089D01*
X139646772Y-51113196D01*
X139556593Y-51160302D01*
X139556591Y-51160303D01*
X139556590Y-51160304D01*
X139398890Y-51288890D01*
X139270304Y-51446590D01*
X139270302Y-51446593D01*
X139254192Y-51477435D01*
X139176089Y-51626954D01*
X139146283Y-51731124D01*
X139122967Y-51812613D01*
X139120114Y-51822583D01*
X139120113Y-51822586D01*
X139109500Y-51941966D01*
X139109500Y-55158028D01*
X139109500Y-55158033D01*
X139109501Y-55158036D01*
X139111218Y-55177345D01*
X139120113Y-55277415D01*
X139176089Y-55473045D01*
X139176090Y-55473048D01*
X139176091Y-55473049D01*
X139270302Y-55653407D01*
X139270304Y-55653409D01*
X139398890Y-55811109D01*
X139470666Y-55869634D01*
X139556593Y-55939698D01*
X139736951Y-56033909D01*
X139736959Y-56033911D01*
X139740998Y-56035525D01*
X139795952Y-56078674D01*
X139818855Y-56144683D01*
X139819000Y-56150678D01*
X139819000Y-60451700D01*
X139799315Y-60518739D01*
X139746511Y-60564494D01*
X139677353Y-60574438D01*
X139656682Y-60569631D01*
X139466240Y-60507753D01*
X139304957Y-60482208D01*
X139256287Y-60474500D01*
X139043713Y-60474500D01*
X138995042Y-60482208D01*
X138833760Y-60507753D01*
X138631585Y-60573444D01*
X138442179Y-60669951D01*
X138270213Y-60794890D01*
X138270209Y-60794894D01*
X138217423Y-60847681D01*
X138156100Y-60881166D01*
X138129742Y-60884000D01*
X113316137Y-60884000D01*
X113249098Y-60864315D01*
X113228456Y-60847681D01*
X109009819Y-56629044D01*
X108976334Y-56567721D01*
X108973500Y-56541363D01*
X108973500Y-55869634D01*
X108993185Y-55802595D01*
X109024614Y-55769316D01*
X109107729Y-55708931D01*
X109291431Y-55525229D01*
X109444134Y-55315051D01*
X109562079Y-55083572D01*
X109642360Y-54836493D01*
X109676728Y-54619500D01*
X109683000Y-54579902D01*
X109683000Y-52520097D01*
X109650758Y-52316533D01*
X109642360Y-52263507D01*
X109562079Y-52016428D01*
X109562077Y-52016425D01*
X109562077Y-52016423D01*
X109510129Y-51914471D01*
X109444134Y-51784949D01*
X109424151Y-51757445D01*
X109391777Y-51712885D01*
X109368297Y-51647079D01*
X109384122Y-51579025D01*
X109434228Y-51530330D01*
X109492095Y-51516000D01*
X111208863Y-51516000D01*
X111275902Y-51535685D01*
X111296544Y-51552319D01*
X111579208Y-51834983D01*
X111612693Y-51896306D01*
X111607709Y-51965998D01*
X111602013Y-51978957D01*
X111582919Y-52016431D01*
X111502640Y-52263502D01*
X111502640Y-52263505D01*
X111462000Y-52520097D01*
X111462000Y-54579902D01*
X111502640Y-54836493D01*
X111582922Y-55083576D01*
X111645562Y-55206511D01*
X111681689Y-55277415D01*
X111700868Y-55315054D01*
X111723745Y-55346541D01*
X111853569Y-55525229D01*
X112037271Y-55708931D01*
X112247449Y-55861634D01*
X112369839Y-55923995D01*
X112478923Y-55979577D01*
X112478925Y-55979577D01*
X112478928Y-55979579D01*
X112726007Y-56059860D01*
X112858206Y-56080797D01*
X112982598Y-56100500D01*
X112982603Y-56100500D01*
X113242402Y-56100500D01*
X113355798Y-56082539D01*
X113498993Y-56059860D01*
X113746072Y-55979579D01*
X113977551Y-55861634D01*
X114187729Y-55708931D01*
X114371431Y-55525229D01*
X114524134Y-55315051D01*
X114642079Y-55083572D01*
X114722360Y-54836493D01*
X114756728Y-54619500D01*
X114763000Y-54579902D01*
X114763000Y-52520097D01*
X114730758Y-52316533D01*
X114722360Y-52263507D01*
X114642079Y-52016428D01*
X114642077Y-52016425D01*
X114642077Y-52016423D01*
X114590129Y-51914471D01*
X114524134Y-51784949D01*
X114371431Y-51574771D01*
X114187729Y-51391069D01*
X114149881Y-51363571D01*
X113977554Y-51238368D01*
X113977553Y-51238367D01*
X113977551Y-51238366D01*
X113746072Y-51120421D01*
X113498993Y-51040140D01*
X113498991Y-51040139D01*
X113498992Y-51040139D01*
X113475717Y-51036453D01*
X113412582Y-51006522D01*
X113407436Y-51001661D01*
X112249856Y-49844080D01*
X112249852Y-49844077D01*
X112095736Y-49741099D01*
X112095723Y-49741092D01*
X111995415Y-49699544D01*
X111995414Y-49699544D01*
X111924480Y-49670162D01*
X111924472Y-49670160D01*
X111742684Y-49634000D01*
X111742680Y-49634000D01*
X106732320Y-49634000D01*
X106732315Y-49634000D01*
X106550527Y-49670160D01*
X106550519Y-49670162D01*
X106479586Y-49699544D01*
X106479585Y-49699544D01*
X106379276Y-49741092D01*
X106379263Y-49741099D01*
X106225147Y-49844077D01*
X106225143Y-49844080D01*
X104620290Y-51448934D01*
X104606859Y-51456267D01*
X104596495Y-51467529D01*
X104576816Y-51472672D01*
X104558967Y-51482419D01*
X104543701Y-51481327D01*
X104528896Y-51485197D01*
X104509563Y-51478885D01*
X104489275Y-51477435D01*
X104476022Y-51467936D01*
X104462476Y-51463514D01*
X104436507Y-51439613D01*
X104365898Y-51353017D01*
X104338789Y-51288621D01*
X104338000Y-51274657D01*
X104338000Y-49322755D01*
X104357685Y-49255716D01*
X104374319Y-49235074D01*
X105387574Y-48221819D01*
X105448897Y-48188334D01*
X105475255Y-48185500D01*
X167474745Y-48185500D01*
X167541784Y-48205185D01*
X167562426Y-48221819D01*
X169525681Y-50185074D01*
X169559166Y-50246397D01*
X169562000Y-50272755D01*
X169562000Y-51274657D01*
X169542315Y-51341696D01*
X169534102Y-51353017D01*
X169457805Y-51446587D01*
X169363589Y-51626954D01*
X169333783Y-51731124D01*
X169310467Y-51812613D01*
X169307614Y-51822583D01*
X169307613Y-51822586D01*
X169297000Y-51941966D01*
X169297000Y-55158028D01*
X169297000Y-55158033D01*
X169297001Y-55158036D01*
X169298718Y-55177345D01*
X169307613Y-55277415D01*
X169363589Y-55473045D01*
X169363590Y-55473048D01*
X169363591Y-55473049D01*
X169390845Y-55525225D01*
X169457805Y-55653412D01*
X169534101Y-55746980D01*
X169561211Y-55811376D01*
X169562000Y-55825341D01*
X169562000Y-56631540D01*
X169596116Y-56846940D01*
X169596116Y-56846943D01*
X169663505Y-57054345D01*
X169735735Y-57196103D01*
X169762514Y-57248660D01*
X169890700Y-57425093D01*
X176847407Y-64381800D01*
X177023840Y-64509986D01*
X177063342Y-64530113D01*
X177218148Y-64608991D01*
X177218150Y-64608991D01*
X177218153Y-64608993D01*
X177425561Y-64676384D01*
X177640959Y-64710500D01*
X177640960Y-64710500D01*
X177859040Y-64710500D01*
X177859041Y-64710500D01*
X178074439Y-64676384D01*
X178074442Y-64676383D01*
X178074443Y-64676383D01*
X178281845Y-64608994D01*
X178281845Y-64608993D01*
X178281848Y-64608993D01*
X178476160Y-64509986D01*
X178652593Y-64381800D01*
X178806800Y-64227593D01*
X178934986Y-64051160D01*
X179033993Y-63856848D01*
X179033994Y-63856845D01*
X179101383Y-63649443D01*
X179101383Y-63649442D01*
X179101384Y-63649439D01*
X179135500Y-63434041D01*
X179135500Y-63215959D01*
X179101384Y-63000561D01*
X179033993Y-62793153D01*
X179033991Y-62793150D01*
X179033991Y-62793148D01*
X178945083Y-62618657D01*
X178934986Y-62598840D01*
X178806800Y-62422407D01*
X172369319Y-55984926D01*
X172354615Y-55957998D01*
X172338023Y-55932180D01*
X172337131Y-55925979D01*
X172335834Y-55923603D01*
X172333000Y-55897245D01*
X172333000Y-55825341D01*
X172352685Y-55758302D01*
X172360899Y-55746980D01*
X172391926Y-55708928D01*
X172437198Y-55653407D01*
X172531409Y-55473049D01*
X172587386Y-55277418D01*
X172598000Y-55158037D01*
X172597999Y-51941964D01*
X172587386Y-51822582D01*
X172531409Y-51626951D01*
X172437198Y-51446593D01*
X172437195Y-51446590D01*
X172437194Y-51446587D01*
X172360898Y-51353017D01*
X172333789Y-51288621D01*
X172333000Y-51274657D01*
X172333000Y-49538459D01*
X172317223Y-49438848D01*
X172298884Y-49323061D01*
X172258194Y-49197829D01*
X172231493Y-49115652D01*
X172231491Y-49115649D01*
X172231491Y-49115647D01*
X172167148Y-48989368D01*
X172132486Y-48921340D01*
X172004300Y-48744907D01*
X171733431Y-48474038D01*
X237799500Y-48474038D01*
X237799500Y-48725962D01*
X237815758Y-48828611D01*
X237838910Y-48974785D01*
X237916760Y-49214383D01*
X238031132Y-49438848D01*
X238179201Y-49642649D01*
X238179205Y-49642654D01*
X238318870Y-49782319D01*
X238352355Y-49843642D01*
X238347371Y-49913334D01*
X238318870Y-49957681D01*
X238179205Y-50097345D01*
X238179201Y-50097350D01*
X238031132Y-50301151D01*
X237916760Y-50525616D01*
X237838910Y-50765214D01*
X237815014Y-50916086D01*
X237799500Y-51014038D01*
X237799500Y-51265962D01*
X237819326Y-51391135D01*
X237838910Y-51514785D01*
X237916760Y-51754383D01*
X237995413Y-51908747D01*
X238024584Y-51965998D01*
X238031132Y-51978848D01*
X238179201Y-52182649D01*
X238179205Y-52182654D01*
X238357345Y-52360794D01*
X238357350Y-52360798D01*
X238520097Y-52479040D01*
X238561155Y-52508870D01*
X238704184Y-52581747D01*
X238785616Y-52623239D01*
X238785618Y-52623239D01*
X238785621Y-52623241D01*
X239025215Y-52701090D01*
X239274038Y-52740500D01*
X239274039Y-52740500D01*
X239525961Y-52740500D01*
X239525962Y-52740500D01*
X239774785Y-52701090D01*
X240014379Y-52623241D01*
X240238845Y-52508870D01*
X240442656Y-52360793D01*
X240620793Y-52182656D01*
X240768870Y-51978845D01*
X240883241Y-51754379D01*
X240961090Y-51514785D01*
X241000500Y-51265962D01*
X241000500Y-51014038D01*
X240961090Y-50765215D01*
X240883241Y-50525621D01*
X240883239Y-50525618D01*
X240883239Y-50525616D01*
X240841747Y-50444184D01*
X240768870Y-50301155D01*
X240710920Y-50221393D01*
X240620798Y-50097350D01*
X240620794Y-50097345D01*
X240481130Y-49957681D01*
X240447645Y-49896358D01*
X240452629Y-49826666D01*
X240481130Y-49782319D01*
X240539535Y-49723914D01*
X240620793Y-49642656D01*
X240768870Y-49438845D01*
X240883241Y-49214379D01*
X240961090Y-48974785D01*
X241000500Y-48725962D01*
X241000500Y-48474038D01*
X240961090Y-48225215D01*
X240883241Y-47985621D01*
X240883239Y-47985618D01*
X240883239Y-47985616D01*
X240825256Y-47871819D01*
X240768870Y-47761155D01*
X240733323Y-47712229D01*
X240620798Y-47557350D01*
X240620794Y-47557345D01*
X240442650Y-47379201D01*
X240404556Y-47351525D01*
X240272055Y-47255258D01*
X246017000Y-47255258D01*
X246017000Y-47484741D01*
X246026560Y-47557350D01*
X246046952Y-47712238D01*
X246046953Y-47712240D01*
X246106342Y-47933887D01*
X246194150Y-48145876D01*
X246194157Y-48145890D01*
X246308892Y-48344617D01*
X246448581Y-48526661D01*
X246448589Y-48526670D01*
X246610830Y-48688911D01*
X246610838Y-48688918D01*
X246792882Y-48828607D01*
X246792885Y-48828608D01*
X246792888Y-48828611D01*
X246991612Y-48943344D01*
X246991617Y-48943346D01*
X246991623Y-48943349D01*
X247067517Y-48974785D01*
X247203613Y-49031158D01*
X247425262Y-49090548D01*
X247652766Y-49120500D01*
X247652773Y-49120500D01*
X247882227Y-49120500D01*
X247882234Y-49120500D01*
X248109738Y-49090548D01*
X248331387Y-49031158D01*
X248543388Y-48943344D01*
X248742112Y-48828611D01*
X248924161Y-48688919D01*
X248924165Y-48688914D01*
X248924170Y-48688911D01*
X249086411Y-48526670D01*
X249086414Y-48526665D01*
X249086419Y-48526661D01*
X249226111Y-48344612D01*
X249340844Y-48145888D01*
X249428658Y-47933887D01*
X249488048Y-47712238D01*
X249518000Y-47484734D01*
X249518000Y-47255266D01*
X249488048Y-47027762D01*
X249428658Y-46806113D01*
X249340844Y-46594112D01*
X249226111Y-46395388D01*
X249226108Y-46395385D01*
X249226107Y-46395382D01*
X249086418Y-46213338D01*
X249086411Y-46213330D01*
X248924170Y-46051089D01*
X248924161Y-46051081D01*
X248742117Y-45911392D01*
X248543390Y-45796657D01*
X248543376Y-45796650D01*
X248331387Y-45708842D01*
X248109738Y-45649452D01*
X248071715Y-45644446D01*
X247882241Y-45619500D01*
X247882234Y-45619500D01*
X247652766Y-45619500D01*
X247652758Y-45619500D01*
X247436215Y-45648009D01*
X247425262Y-45649452D01*
X247331576Y-45674554D01*
X247203612Y-45708842D01*
X246991623Y-45796650D01*
X246991609Y-45796657D01*
X246792882Y-45911392D01*
X246610838Y-46051081D01*
X246448581Y-46213338D01*
X246308892Y-46395382D01*
X246194157Y-46594109D01*
X246194150Y-46594123D01*
X246106342Y-46806112D01*
X246046953Y-47027759D01*
X246046951Y-47027770D01*
X246017000Y-47255258D01*
X240272055Y-47255258D01*
X240238848Y-47231132D01*
X240238847Y-47231131D01*
X240238845Y-47231130D01*
X240168747Y-47195413D01*
X240014383Y-47116760D01*
X239774785Y-47038910D01*
X239704381Y-47027759D01*
X239525962Y-46999500D01*
X239274038Y-46999500D01*
X239149626Y-47019205D01*
X239025214Y-47038910D01*
X238785616Y-47116760D01*
X238561151Y-47231132D01*
X238357350Y-47379201D01*
X238357345Y-47379205D01*
X238179205Y-47557345D01*
X238179201Y-47557350D01*
X238031132Y-47761151D01*
X237916760Y-47985616D01*
X237840013Y-48221819D01*
X237838910Y-48225215D01*
X237799500Y-48474038D01*
X171733431Y-48474038D01*
X169002593Y-45743200D01*
X168826160Y-45615014D01*
X168631845Y-45516005D01*
X168424442Y-45448616D01*
X168262890Y-45423029D01*
X168209041Y-45414500D01*
X104959041Y-45414500D01*
X104740959Y-45414500D01*
X104669159Y-45425872D01*
X104525559Y-45448616D01*
X104525556Y-45448616D01*
X104318154Y-45516005D01*
X104123839Y-45615014D01*
X103947404Y-45743202D01*
X102950181Y-46740426D01*
X102888858Y-46773911D01*
X102819166Y-46768927D01*
X102774819Y-46740426D01*
X101427595Y-45393202D01*
X101427593Y-45393200D01*
X101251160Y-45265014D01*
X101056845Y-45166005D01*
X100849442Y-45098616D01*
X100687890Y-45073029D01*
X100634041Y-45064500D01*
X69237113Y-45064500D01*
X69129414Y-45081558D01*
X69021714Y-45098616D01*
X68814302Y-45166008D01*
X68619993Y-45265014D01*
X68443558Y-45393202D01*
X65276007Y-48560752D01*
X65214684Y-48594237D01*
X65204515Y-48596010D01*
X65184551Y-48598638D01*
X65184544Y-48598640D01*
X64968915Y-48656417D01*
X64762672Y-48741846D01*
X64762662Y-48741850D01*
X64569334Y-48853468D01*
X64392226Y-48989368D01*
X64392219Y-48989374D01*
X64234374Y-49147219D01*
X64234368Y-49147226D01*
X64098468Y-49324334D01*
X63986850Y-49517662D01*
X63986846Y-49517672D01*
X63901417Y-49723915D01*
X63862274Y-49870000D01*
X63849090Y-49919207D01*
X63843639Y-49939549D01*
X63814500Y-50160871D01*
X63814500Y-50479128D01*
X63837163Y-50651267D01*
X63843639Y-50700452D01*
X63860992Y-50765214D01*
X63901417Y-50916084D01*
X63986846Y-51122327D01*
X63986850Y-51122337D01*
X64082855Y-51288621D01*
X64098469Y-51315666D01*
X64098474Y-51315672D01*
X64098479Y-51315680D01*
X64106373Y-51325967D01*
X64131570Y-51391135D01*
X64132000Y-51401456D01*
X64132000Y-51744744D01*
X64112315Y-51811783D01*
X64095681Y-51832425D01*
X61551050Y-54377055D01*
X61501689Y-54407304D01*
X61422314Y-54433095D01*
X61204857Y-54543896D01*
X61007423Y-54687339D01*
X61007418Y-54687343D01*
X60834843Y-54859918D01*
X60834839Y-54859923D01*
X60691396Y-55057357D01*
X60580597Y-55274812D01*
X60580596Y-55274814D01*
X60580596Y-55274815D01*
X60567522Y-55315054D01*
X60505178Y-55506927D01*
X60467000Y-55747973D01*
X60467000Y-55992026D01*
X60484180Y-56100499D01*
X60505179Y-56233076D01*
X60580596Y-56465185D01*
X60665358Y-56631541D01*
X60691396Y-56682642D01*
X60834839Y-56880076D01*
X60834843Y-56880081D01*
X61007418Y-57052656D01*
X61007423Y-57052660D01*
X61160442Y-57163834D01*
X61204861Y-57196106D01*
X61422315Y-57306904D01*
X61654424Y-57382321D01*
X61895473Y-57420500D01*
X61895474Y-57420500D01*
X62139526Y-57420500D01*
X62139527Y-57420500D01*
X62380576Y-57382321D01*
X62612685Y-57306904D01*
X62830139Y-57196106D01*
X63027583Y-57052655D01*
X63200155Y-56880083D01*
X63343606Y-56682639D01*
X63454404Y-56465185D01*
X63480194Y-56385811D01*
X63510442Y-56336449D01*
X66574300Y-53272593D01*
X66602516Y-53233757D01*
X66702486Y-53096160D01*
X66801493Y-52901847D01*
X66868884Y-52694439D01*
X66903000Y-52479041D01*
X66903000Y-51879652D01*
X66922685Y-51812613D01*
X66975489Y-51766858D01*
X67044647Y-51756914D01*
X67102488Y-51781278D01*
X67109334Y-51786531D01*
X67171776Y-51822582D01*
X67302662Y-51898149D01*
X67302663Y-51898149D01*
X67302666Y-51898151D01*
X67508914Y-51983582D01*
X67724548Y-52041361D01*
X67945879Y-52070500D01*
X67945886Y-52070500D01*
X68169114Y-52070500D01*
X68169121Y-52070500D01*
X68390452Y-52041361D01*
X68606086Y-51983582D01*
X68812334Y-51898151D01*
X69005666Y-51786531D01*
X69060124Y-51744744D01*
X69077874Y-51731124D01*
X69143043Y-51705930D01*
X69153360Y-51705500D01*
X76329745Y-51705500D01*
X76396784Y-51725185D01*
X76417426Y-51741819D01*
X77532926Y-52857319D01*
X77566411Y-52918642D01*
X77561427Y-52988334D01*
X77532926Y-53032681D01*
X76117426Y-54448181D01*
X76056103Y-54481666D01*
X76029745Y-54484500D01*
X68993341Y-54484500D01*
X68937046Y-54470985D01*
X68862687Y-54433097D01*
X68862686Y-54433096D01*
X68862685Y-54433096D01*
X68630576Y-54357679D01*
X68630574Y-54357678D01*
X68630572Y-54357678D01*
X68462269Y-54331021D01*
X68389527Y-54319500D01*
X68145473Y-54319500D01*
X68089593Y-54328350D01*
X67904427Y-54357678D01*
X67672312Y-54433097D01*
X67454857Y-54543896D01*
X67257423Y-54687339D01*
X67257418Y-54687343D01*
X67084843Y-54859918D01*
X67084839Y-54859923D01*
X66941396Y-55057357D01*
X66830597Y-55274812D01*
X66830596Y-55274814D01*
X66830596Y-55274815D01*
X66817522Y-55315054D01*
X66755178Y-55506927D01*
X66717000Y-55747973D01*
X66717000Y-55992026D01*
X66734180Y-56100499D01*
X66755179Y-56233076D01*
X66830596Y-56465185D01*
X66915358Y-56631541D01*
X66941396Y-56682642D01*
X67084839Y-56880076D01*
X67084843Y-56880081D01*
X67257418Y-57052656D01*
X67257423Y-57052660D01*
X67410442Y-57163834D01*
X67454861Y-57196106D01*
X67672315Y-57306904D01*
X67904424Y-57382321D01*
X68145473Y-57420500D01*
X68145474Y-57420500D01*
X68389526Y-57420500D01*
X68389527Y-57420500D01*
X68630576Y-57382321D01*
X68862685Y-57306904D01*
X68937046Y-57269014D01*
X68993341Y-57255500D01*
X73715500Y-57255500D01*
X73782539Y-57275185D01*
X73828294Y-57327989D01*
X73839500Y-57379500D01*
X73839500Y-67199158D01*
X73825985Y-67255453D01*
X73788097Y-67329812D01*
X73712678Y-67561927D01*
X73674500Y-67802973D01*
X73674500Y-68047027D01*
X73676507Y-68059698D01*
X73712678Y-68288072D01*
X73788097Y-68520187D01*
X73898896Y-68737642D01*
X74042339Y-68935076D01*
X74042343Y-68935081D01*
X74214918Y-69107656D01*
X74214923Y-69107660D01*
X74387136Y-69232779D01*
X74412361Y-69251106D01*
X74629815Y-69361904D01*
X74861924Y-69437321D01*
X75102973Y-69475500D01*
X75102974Y-69475500D01*
X75347026Y-69475500D01*
X75347027Y-69475500D01*
X75588076Y-69437321D01*
X75820185Y-69361904D01*
X76037639Y-69251106D01*
X76235083Y-69107655D01*
X76407655Y-68935083D01*
X76551106Y-68737639D01*
X76661904Y-68520185D01*
X76737321Y-68288076D01*
X76775500Y-68047027D01*
X76775500Y-67802973D01*
X76737321Y-67561924D01*
X76661904Y-67329815D01*
X76624014Y-67255452D01*
X76610500Y-67199158D01*
X76610500Y-57925254D01*
X76630185Y-57858215D01*
X76646814Y-57837578D01*
X78661713Y-55822678D01*
X78723034Y-55789195D01*
X78792726Y-55794179D01*
X78827752Y-55814259D01*
X78981587Y-55939694D01*
X78981590Y-55939695D01*
X78981593Y-55939698D01*
X79161951Y-56033909D01*
X79161953Y-56033909D01*
X79161954Y-56033910D01*
X79175843Y-56037884D01*
X79357582Y-56089886D01*
X79476963Y-56100500D01*
X80893036Y-56100499D01*
X81012418Y-56089886D01*
X81208049Y-56033909D01*
X81388407Y-55939698D01*
X81546109Y-55811109D01*
X81674698Y-55653407D01*
X81768909Y-55473049D01*
X81824886Y-55277418D01*
X81835500Y-55158037D01*
X81835499Y-53910253D01*
X81855184Y-53843215D01*
X81871813Y-53822578D01*
X84772574Y-50921819D01*
X84833897Y-50888334D01*
X84860255Y-50885500D01*
X91774745Y-50885500D01*
X91841784Y-50905185D01*
X91862426Y-50921819D01*
X96715681Y-55775074D01*
X96749166Y-55836397D01*
X96752000Y-55862755D01*
X96752000Y-67010959D01*
X96752000Y-67229041D01*
X96761880Y-67291423D01*
X96786116Y-67444440D01*
X96786116Y-67444443D01*
X96853505Y-67651845D01*
X96853507Y-67651848D01*
X96952514Y-67846160D01*
X97080700Y-68022593D01*
X118489907Y-89431800D01*
X118666340Y-89559986D01*
X118767556Y-89611558D01*
X118860654Y-89658994D01*
X119068057Y-89726383D01*
X119068058Y-89726383D01*
X119068061Y-89726384D01*
X119283459Y-89760500D01*
X119501541Y-89760500D01*
X120455242Y-89760500D01*
X120476487Y-89766738D01*
X120498576Y-89768318D01*
X120509359Y-89776390D01*
X120522281Y-89780185D01*
X120536780Y-89796918D01*
X120554509Y-89810190D01*
X120559216Y-89822810D01*
X120568036Y-89832989D01*
X120571187Y-89854906D01*
X120578926Y-89875654D01*
X120576063Y-89888814D01*
X120577980Y-89902147D01*
X120568780Y-89922290D01*
X120564074Y-89943927D01*
X120550805Y-89961652D01*
X120548955Y-89965703D01*
X120542923Y-89972181D01*
X120517423Y-89997681D01*
X120456100Y-90031166D01*
X120429742Y-90034000D01*
X118407315Y-90034000D01*
X118225527Y-90070160D01*
X118225519Y-90070162D01*
X118112024Y-90117174D01*
X118054271Y-90141095D01*
X118054262Y-90141100D01*
X117900147Y-90244077D01*
X117900143Y-90244080D01*
X108444080Y-99700143D01*
X108444077Y-99700147D01*
X108341099Y-99854263D01*
X108341094Y-99854272D01*
X108301659Y-99949479D01*
X108270162Y-100025518D01*
X108270159Y-100025527D01*
X108234000Y-100207315D01*
X108234000Y-106058863D01*
X108214315Y-106125902D01*
X108197681Y-106146544D01*
X107381544Y-106962681D01*
X107320221Y-106996166D01*
X107293863Y-106999000D01*
X106703528Y-106999000D01*
X106636489Y-106979315D01*
X106603211Y-106947887D01*
X106590155Y-106929917D01*
X106417919Y-106757681D01*
X106384434Y-106696358D01*
X106389418Y-106626666D01*
X106417919Y-106582319D01*
X106425426Y-106574812D01*
X106590155Y-106410083D01*
X106733606Y-106212639D01*
X106844404Y-105995185D01*
X106919821Y-105763076D01*
X106958000Y-105522027D01*
X106958000Y-105277973D01*
X106919821Y-105036924D01*
X106844404Y-104804815D01*
X106733606Y-104587361D01*
X106698495Y-104539035D01*
X106590160Y-104389923D01*
X106590156Y-104389918D01*
X106417919Y-104217681D01*
X106384434Y-104156358D01*
X106389418Y-104086666D01*
X106417919Y-104042319D01*
X106425426Y-104034812D01*
X106590155Y-103870083D01*
X106733606Y-103672639D01*
X106844404Y-103455185D01*
X106919821Y-103223076D01*
X106958000Y-102982027D01*
X106958000Y-102737973D01*
X106919821Y-102496924D01*
X106844404Y-102264815D01*
X106733606Y-102047361D01*
X106682538Y-101977072D01*
X106590160Y-101849923D01*
X106590156Y-101849918D01*
X106417919Y-101677681D01*
X106384434Y-101616358D01*
X106389418Y-101546666D01*
X106417919Y-101502319D01*
X106454279Y-101465959D01*
X106590155Y-101330083D01*
X106733606Y-101132639D01*
X106844404Y-100915185D01*
X106919821Y-100683076D01*
X106958000Y-100442027D01*
X106958000Y-100197973D01*
X106919821Y-99956924D01*
X106844404Y-99724815D01*
X106733606Y-99507361D01*
X106710899Y-99476107D01*
X106590160Y-99309923D01*
X106590156Y-99309918D01*
X106417919Y-99137681D01*
X106384434Y-99076358D01*
X106389418Y-99006666D01*
X106417919Y-98962319D01*
X106486161Y-98894077D01*
X106590155Y-98790083D01*
X106733606Y-98592639D01*
X106844404Y-98375185D01*
X106919821Y-98143076D01*
X106958000Y-97902027D01*
X106958000Y-97657973D01*
X106919821Y-97416924D01*
X106844404Y-97184815D01*
X106733606Y-96967361D01*
X106637604Y-96835225D01*
X106590160Y-96769923D01*
X106590156Y-96769918D01*
X106417581Y-96597343D01*
X106417576Y-96597339D01*
X106220142Y-96453896D01*
X106220141Y-96453895D01*
X106220139Y-96453894D01*
X106002685Y-96343096D01*
X105770576Y-96267679D01*
X105770574Y-96267678D01*
X105770572Y-96267678D01*
X105602269Y-96241021D01*
X105529527Y-96229500D01*
X105285473Y-96229500D01*
X105229593Y-96238350D01*
X105044427Y-96267678D01*
X104812312Y-96343097D01*
X104594857Y-96453896D01*
X104397423Y-96597339D01*
X104397418Y-96597343D01*
X104224843Y-96769918D01*
X104224839Y-96769923D01*
X104081396Y-96967357D01*
X103970597Y-97184812D01*
X103895178Y-97416927D01*
X103872714Y-97558760D01*
X103857000Y-97657973D01*
X103857000Y-97902027D01*
X103865179Y-97953667D01*
X103890730Y-98114990D01*
X103895179Y-98143076D01*
X103970596Y-98375185D01*
X104054531Y-98539918D01*
X104081396Y-98592642D01*
X104224839Y-98790076D01*
X104224843Y-98790081D01*
X104397081Y-98962319D01*
X104430566Y-99023642D01*
X104425582Y-99093334D01*
X104397081Y-99137681D01*
X104224843Y-99309918D01*
X104224839Y-99309923D01*
X104081396Y-99507357D01*
X103970597Y-99724812D01*
X103895178Y-99956927D01*
X103857000Y-100197973D01*
X103857000Y-100442026D01*
X103893820Y-100674500D01*
X103895179Y-100683076D01*
X103970596Y-100915185D01*
X104074372Y-101118858D01*
X104081396Y-101132642D01*
X104224839Y-101330076D01*
X104224843Y-101330081D01*
X104397081Y-101502319D01*
X104430566Y-101563642D01*
X104425582Y-101633334D01*
X104397081Y-101677681D01*
X104224843Y-101849918D01*
X104224839Y-101849923D01*
X104081396Y-102047357D01*
X103970597Y-102264812D01*
X103895178Y-102496927D01*
X103860812Y-102713904D01*
X103857000Y-102737973D01*
X103857000Y-102982027D01*
X103857312Y-102983994D01*
X103890730Y-103194990D01*
X103895179Y-103223076D01*
X103970596Y-103455185D01*
X104079700Y-103669315D01*
X104081396Y-103672642D01*
X104224839Y-103870076D01*
X104224843Y-103870081D01*
X104397081Y-104042319D01*
X104430566Y-104103642D01*
X104425582Y-104173334D01*
X104397081Y-104217681D01*
X104224843Y-104389918D01*
X104224839Y-104389923D01*
X104081396Y-104587357D01*
X103970597Y-104804812D01*
X103895178Y-105036927D01*
X103862189Y-105245213D01*
X103857000Y-105277973D01*
X103857000Y-105522027D01*
X103857942Y-105527973D01*
X103890730Y-105734990D01*
X103895179Y-105763076D01*
X103970596Y-105995185D01*
X104058280Y-106167276D01*
X104081396Y-106212642D01*
X104224839Y-106410076D01*
X104224843Y-106410081D01*
X104397081Y-106582319D01*
X104430566Y-106643642D01*
X104425582Y-106713334D01*
X104397081Y-106757681D01*
X104224843Y-106929918D01*
X104224839Y-106929923D01*
X104081396Y-107127357D01*
X103970597Y-107344812D01*
X103895178Y-107576927D01*
X103857000Y-107817973D01*
X103857000Y-108062026D01*
X103890730Y-108274990D01*
X103895179Y-108303076D01*
X103970596Y-108535185D01*
X104074839Y-108739775D01*
X104081396Y-108752642D01*
X104224839Y-108950076D01*
X104224843Y-108950081D01*
X104397081Y-109122319D01*
X104430566Y-109183642D01*
X104425582Y-109253334D01*
X104397081Y-109297681D01*
X104224843Y-109469918D01*
X104224839Y-109469923D01*
X104081396Y-109667357D01*
X103970597Y-109884812D01*
X103895178Y-110116927D01*
X103862189Y-110325213D01*
X103857000Y-110357973D01*
X103857000Y-110602027D01*
X103863382Y-110642319D01*
X103891156Y-110817681D01*
X103895179Y-110843076D01*
X103970596Y-111075185D01*
X104058280Y-111247276D01*
X104081396Y-111292642D01*
X104224839Y-111490076D01*
X104224843Y-111490081D01*
X104397081Y-111662319D01*
X104430566Y-111723642D01*
X104425582Y-111793334D01*
X104397081Y-111837681D01*
X104224843Y-112009918D01*
X104224839Y-112009923D01*
X104081396Y-112207357D01*
X103970597Y-112424812D01*
X103895178Y-112656927D01*
X103857000Y-112897973D01*
X103857000Y-113142026D01*
X103891156Y-113357681D01*
X103895179Y-113383076D01*
X103970596Y-113615185D01*
X104058280Y-113787276D01*
X104081396Y-113832642D01*
X104224839Y-114030076D01*
X104224843Y-114030081D01*
X104397081Y-114202319D01*
X104430566Y-114263642D01*
X104425582Y-114333334D01*
X104397081Y-114377681D01*
X104224843Y-114549918D01*
X104224839Y-114549923D01*
X104081396Y-114747357D01*
X103970597Y-114964812D01*
X103895178Y-115196927D01*
X103857000Y-115437973D01*
X103857000Y-115682026D01*
X103891156Y-115897681D01*
X103895179Y-115923076D01*
X103970596Y-116155185D01*
X104058280Y-116327276D01*
X104081396Y-116372642D01*
X104224839Y-116570076D01*
X104224843Y-116570081D01*
X104397081Y-116742319D01*
X104430566Y-116803642D01*
X104425582Y-116873334D01*
X104397081Y-116917681D01*
X104224843Y-117089918D01*
X104224839Y-117089923D01*
X104081396Y-117287357D01*
X103970597Y-117504812D01*
X103895178Y-117736927D01*
X103857000Y-117977973D01*
X103857000Y-118222026D01*
X103890730Y-118434990D01*
X103895179Y-118463076D01*
X103970596Y-118695185D01*
X104058280Y-118867276D01*
X104081396Y-118912642D01*
X104224839Y-119110076D01*
X104224843Y-119110081D01*
X104397081Y-119282319D01*
X104430566Y-119343642D01*
X104425582Y-119413334D01*
X104397081Y-119457681D01*
X104224843Y-119629918D01*
X104224839Y-119629923D01*
X104081396Y-119827357D01*
X103970597Y-120044812D01*
X103895178Y-120276927D01*
X103862189Y-120485213D01*
X103857000Y-120517973D01*
X103857000Y-120762027D01*
X103862747Y-120798309D01*
X103890730Y-120974990D01*
X103895179Y-121003076D01*
X103970596Y-121235185D01*
X104058280Y-121407276D01*
X104081396Y-121452642D01*
X104224839Y-121650076D01*
X104224843Y-121650081D01*
X104397418Y-121822656D01*
X104397423Y-121822660D01*
X104481517Y-121883757D01*
X104594861Y-121966106D01*
X104812315Y-122076904D01*
X105044424Y-122152321D01*
X105285473Y-122190500D01*
X105285474Y-122190500D01*
X105529526Y-122190500D01*
X105529527Y-122190500D01*
X105770576Y-122152321D01*
X106002685Y-122076904D01*
X106220139Y-121966106D01*
X106417583Y-121822655D01*
X106590155Y-121650083D01*
X106603211Y-121632112D01*
X106658541Y-121589448D01*
X106703528Y-121581000D01*
X115473863Y-121581000D01*
X115540902Y-121600685D01*
X115561544Y-121617319D01*
X116875143Y-122930919D01*
X116875147Y-122930922D01*
X117029269Y-123033904D01*
X117140054Y-123079792D01*
X117200520Y-123104838D01*
X117382315Y-123140999D01*
X117382319Y-123141000D01*
X117382320Y-123141000D01*
X117658655Y-123141000D01*
X117725694Y-123160685D01*
X117750118Y-123181999D01*
X117750235Y-123181883D01*
X117751945Y-123183593D01*
X117752935Y-123184457D01*
X117753673Y-123185321D01*
X117753680Y-123185328D01*
X117922022Y-123353670D01*
X117923923Y-123355051D01*
X117944061Y-123369683D01*
X117986727Y-123425013D01*
X117992705Y-123494627D01*
X117960098Y-123556421D01*
X117944061Y-123570317D01*
X117922028Y-123586325D01*
X117922019Y-123586332D01*
X117753682Y-123754669D01*
X117753682Y-123754670D01*
X117753680Y-123754672D01*
X117706669Y-123819377D01*
X117613744Y-123947276D01*
X117505660Y-124159400D01*
X117505659Y-124159403D01*
X117432093Y-124385820D01*
X117424501Y-124433757D01*
X117394850Y-124620964D01*
X117394850Y-124859036D01*
X117405275Y-124924856D01*
X117432093Y-125094179D01*
X117505659Y-125320596D01*
X117505660Y-125320599D01*
X117586774Y-125479792D01*
X117613744Y-125532723D01*
X117753680Y-125725328D01*
X117922022Y-125893670D01*
X117922028Y-125893674D01*
X117944061Y-125909683D01*
X117986727Y-125965013D01*
X117992705Y-126034627D01*
X117960098Y-126096421D01*
X117944061Y-126110317D01*
X117922028Y-126126325D01*
X117922019Y-126126332D01*
X117753682Y-126294669D01*
X117753682Y-126294670D01*
X117753680Y-126294672D01*
X117723533Y-126336166D01*
X117613744Y-126487276D01*
X117505660Y-126699400D01*
X117505659Y-126699403D01*
X117432093Y-126925820D01*
X117424550Y-126973444D01*
X117394850Y-127160964D01*
X117394850Y-127399036D01*
X117409520Y-127491656D01*
X117432093Y-127634179D01*
X117505659Y-127860596D01*
X117505660Y-127860599D01*
X117589442Y-128025028D01*
X117613744Y-128072723D01*
X117753680Y-128265328D01*
X117922022Y-128433670D01*
X117922028Y-128433674D01*
X117944061Y-128449683D01*
X117986727Y-128505013D01*
X117992705Y-128574627D01*
X117960098Y-128636421D01*
X117944061Y-128650317D01*
X117922028Y-128666325D01*
X117922019Y-128666332D01*
X117753682Y-128834669D01*
X117753682Y-128834670D01*
X117753680Y-128834672D01*
X117723533Y-128876166D01*
X117613744Y-129027276D01*
X117505660Y-129239400D01*
X117505659Y-129239403D01*
X117432093Y-129465820D01*
X117394850Y-129700964D01*
X117394850Y-129939035D01*
X117432093Y-130174179D01*
X117505659Y-130400596D01*
X117505660Y-130400599D01*
X117603511Y-130592639D01*
X117613744Y-130612723D01*
X117753680Y-130805328D01*
X117922022Y-130973670D01*
X117922028Y-130973674D01*
X117944061Y-130989683D01*
X117986727Y-131045013D01*
X117992705Y-131114627D01*
X117960098Y-131176421D01*
X117944061Y-131190317D01*
X117922028Y-131206325D01*
X117922019Y-131206332D01*
X117753682Y-131374669D01*
X117753682Y-131374670D01*
X117753680Y-131374672D01*
X117723533Y-131416166D01*
X117613744Y-131567276D01*
X117505660Y-131779400D01*
X117505659Y-131779403D01*
X117432093Y-132005820D01*
X117394850Y-132240964D01*
X117394850Y-132479035D01*
X117432093Y-132714179D01*
X117505659Y-132940596D01*
X117505660Y-132940599D01*
X117603511Y-133132639D01*
X117613744Y-133152723D01*
X117753680Y-133345328D01*
X117922022Y-133513670D01*
X117922028Y-133513674D01*
X117944061Y-133529683D01*
X117986727Y-133585013D01*
X117992705Y-133654627D01*
X117960098Y-133716421D01*
X117944061Y-133730317D01*
X117922028Y-133746325D01*
X117922019Y-133746332D01*
X117753682Y-133914669D01*
X117753682Y-133914670D01*
X117753680Y-133914672D01*
X117713331Y-133970208D01*
X117613744Y-134107276D01*
X117505660Y-134319400D01*
X117505659Y-134319403D01*
X117432093Y-134545820D01*
X117394850Y-134780964D01*
X117394850Y-135019035D01*
X117432093Y-135254179D01*
X117505659Y-135480596D01*
X117505660Y-135480599D01*
X117587724Y-135641656D01*
X117613744Y-135692723D01*
X117753680Y-135885328D01*
X117922022Y-136053670D01*
X117922028Y-136053674D01*
X117944061Y-136069683D01*
X117986727Y-136125013D01*
X117992705Y-136194627D01*
X117960098Y-136256421D01*
X117944061Y-136270317D01*
X117922028Y-136286325D01*
X117922019Y-136286332D01*
X117753682Y-136454669D01*
X117753682Y-136454670D01*
X117753680Y-136454672D01*
X117721908Y-136498403D01*
X117613744Y-136647276D01*
X117505660Y-136859400D01*
X117505659Y-136859403D01*
X117432093Y-137085820D01*
X117394850Y-137320964D01*
X117394850Y-137559035D01*
X117432093Y-137794179D01*
X117505659Y-138020596D01*
X117505660Y-138020599D01*
X117601587Y-138208863D01*
X117613744Y-138232723D01*
X117753680Y-138425328D01*
X117922022Y-138593670D01*
X117922028Y-138593674D01*
X117944061Y-138609683D01*
X117986727Y-138665013D01*
X117992705Y-138734627D01*
X117960098Y-138796421D01*
X117944061Y-138810317D01*
X117922028Y-138826325D01*
X117922019Y-138826332D01*
X117766805Y-138981547D01*
X117705482Y-139015032D01*
X117635790Y-139010048D01*
X117591443Y-138981547D01*
X117504786Y-138894890D01*
X117332820Y-138769951D01*
X117143414Y-138673444D01*
X117143413Y-138673443D01*
X117143412Y-138673443D01*
X116941243Y-138607754D01*
X116941241Y-138607753D01*
X116941240Y-138607753D01*
X116751156Y-138577647D01*
X116731287Y-138574500D01*
X116518713Y-138574500D01*
X116498844Y-138577647D01*
X116308759Y-138607753D01*
X116308755Y-138607754D01*
X116253317Y-138625767D01*
X116183476Y-138627762D01*
X116123643Y-138591681D01*
X116092816Y-138528980D01*
X116091000Y-138507836D01*
X116091000Y-126607319D01*
X116090999Y-126607315D01*
X116071459Y-126509080D01*
X116054838Y-126425520D01*
X116046794Y-126406099D01*
X116033979Y-126375161D01*
X115983906Y-126254273D01*
X115983905Y-126254271D01*
X115981385Y-126250500D01*
X115880922Y-126100147D01*
X115880919Y-126100143D01*
X113749856Y-123969080D01*
X113749852Y-123969077D01*
X113595736Y-123866099D01*
X113595723Y-123866092D01*
X113491352Y-123822861D01*
X113491351Y-123822861D01*
X113424480Y-123795162D01*
X113424472Y-123795160D01*
X113242684Y-123759000D01*
X113242680Y-123759000D01*
X106703528Y-123759000D01*
X106636489Y-123739315D01*
X106603211Y-123707887D01*
X106590155Y-123689917D01*
X106417581Y-123517343D01*
X106417576Y-123517339D01*
X106220142Y-123373896D01*
X106220141Y-123373895D01*
X106220139Y-123373894D01*
X106002685Y-123263096D01*
X105770576Y-123187679D01*
X105770574Y-123187678D01*
X105770572Y-123187678D01*
X105600145Y-123160685D01*
X105529527Y-123149500D01*
X105285473Y-123149500D01*
X105229593Y-123158350D01*
X105044427Y-123187678D01*
X104812312Y-123263097D01*
X104594857Y-123373896D01*
X104397423Y-123517339D01*
X104397418Y-123517343D01*
X104224843Y-123689918D01*
X104224839Y-123689923D01*
X104081396Y-123887357D01*
X103970597Y-124104812D01*
X103895178Y-124336927D01*
X103857000Y-124577973D01*
X103857000Y-124822026D01*
X103888128Y-125018563D01*
X103895179Y-125063076D01*
X103970596Y-125295185D01*
X104077419Y-125504838D01*
X104081396Y-125512642D01*
X104224839Y-125710076D01*
X104224843Y-125710081D01*
X104397081Y-125882319D01*
X104430566Y-125943642D01*
X104425582Y-126013334D01*
X104397081Y-126057681D01*
X104224843Y-126229918D01*
X104224839Y-126229923D01*
X104081396Y-126427357D01*
X103970597Y-126644812D01*
X103895178Y-126876927D01*
X103872565Y-127019701D01*
X103857000Y-127117973D01*
X103857000Y-127362027D01*
X103862862Y-127399035D01*
X103879106Y-127501600D01*
X103895179Y-127603076D01*
X103970596Y-127835185D01*
X104043451Y-127978172D01*
X104081396Y-128052642D01*
X104224839Y-128250076D01*
X104224843Y-128250081D01*
X104397081Y-128422319D01*
X104430566Y-128483642D01*
X104425582Y-128553334D01*
X104397081Y-128597681D01*
X104224843Y-128769918D01*
X104224839Y-128769923D01*
X104081396Y-128967357D01*
X103970597Y-129184812D01*
X103895178Y-129416927D01*
X103887434Y-129465822D01*
X103857000Y-129657973D01*
X103857000Y-129902027D01*
X103895179Y-130143076D01*
X103970596Y-130375185D01*
X104060138Y-130550922D01*
X104081396Y-130592642D01*
X104224839Y-130790076D01*
X104224843Y-130790081D01*
X104397081Y-130962319D01*
X104430566Y-131023642D01*
X104425582Y-131093334D01*
X104397081Y-131137681D01*
X104224843Y-131309918D01*
X104224839Y-131309923D01*
X104081396Y-131507357D01*
X103970597Y-131724812D01*
X103970596Y-131724814D01*
X103970596Y-131724815D01*
X103932887Y-131840869D01*
X103895178Y-131956927D01*
X103875692Y-132079956D01*
X103857000Y-132197973D01*
X103857000Y-132442027D01*
X103895179Y-132683076D01*
X103970596Y-132915185D01*
X104060138Y-133090922D01*
X104081396Y-133132642D01*
X104224839Y-133330076D01*
X104224843Y-133330081D01*
X104397081Y-133502319D01*
X104430566Y-133563642D01*
X104425582Y-133633334D01*
X104397081Y-133677681D01*
X104224843Y-133849918D01*
X104224839Y-133849923D01*
X104081396Y-134047357D01*
X103970597Y-134264812D01*
X103895178Y-134496927D01*
X103887434Y-134545822D01*
X103857000Y-134737973D01*
X103857000Y-134982027D01*
X103895179Y-135223076D01*
X103970596Y-135455185D01*
X104070674Y-135651600D01*
X104081396Y-135672642D01*
X104224839Y-135870076D01*
X104224843Y-135870081D01*
X104397081Y-136042319D01*
X104430566Y-136103642D01*
X104425582Y-136173334D01*
X104397081Y-136217681D01*
X104224843Y-136389918D01*
X104224839Y-136389923D01*
X104081396Y-136587357D01*
X103970597Y-136804812D01*
X103895178Y-137036927D01*
X103887434Y-137085822D01*
X103857000Y-137277973D01*
X103857000Y-137522027D01*
X103863242Y-137561436D01*
X103878468Y-137657572D01*
X103895179Y-137763076D01*
X103970596Y-137995185D01*
X104079470Y-138208863D01*
X104081396Y-138212642D01*
X104224839Y-138410076D01*
X104224843Y-138410081D01*
X104397081Y-138582319D01*
X104430566Y-138643642D01*
X104425582Y-138713334D01*
X104397081Y-138757681D01*
X104224843Y-138929918D01*
X104224839Y-138929923D01*
X104081396Y-139127357D01*
X103970597Y-139344812D01*
X103895178Y-139576927D01*
X103857000Y-139817973D01*
X103857000Y-140062026D01*
X103895178Y-140303072D01*
X103970597Y-140535187D01*
X104081396Y-140752642D01*
X104224839Y-140950076D01*
X104224843Y-140950081D01*
X104397081Y-141122319D01*
X104430566Y-141183642D01*
X104425582Y-141253334D01*
X104397081Y-141297681D01*
X104224843Y-141469918D01*
X104224839Y-141469923D01*
X104081396Y-141667357D01*
X103970597Y-141884812D01*
X103895178Y-142116927D01*
X103887434Y-142165822D01*
X103857000Y-142357973D01*
X103857000Y-142602027D01*
X103895179Y-142843076D01*
X103970596Y-143075185D01*
X104060758Y-143252139D01*
X104081396Y-143292642D01*
X104224839Y-143490076D01*
X104224843Y-143490081D01*
X104397418Y-143662656D01*
X104397423Y-143662660D01*
X104547290Y-143771544D01*
X104594861Y-143806106D01*
X104812315Y-143916904D01*
X105044424Y-143992321D01*
X105285473Y-144030500D01*
X105285474Y-144030500D01*
X105529526Y-144030500D01*
X105529527Y-144030500D01*
X105770576Y-143992321D01*
X106002685Y-143916904D01*
X106220139Y-143806106D01*
X106417583Y-143662655D01*
X106590155Y-143490083D01*
X106733606Y-143292639D01*
X106844404Y-143075185D01*
X106919821Y-142843076D01*
X106958000Y-142602027D01*
X106958000Y-142357973D01*
X106919821Y-142116924D01*
X106844404Y-141884815D01*
X106733606Y-141667361D01*
X106662077Y-141568909D01*
X106590160Y-141469923D01*
X106590156Y-141469918D01*
X106417919Y-141297681D01*
X106384434Y-141236358D01*
X106389418Y-141166666D01*
X106417919Y-141122319D01*
X106485189Y-141055049D01*
X106590155Y-140950083D01*
X106733606Y-140752639D01*
X106844404Y-140535185D01*
X106919821Y-140303076D01*
X106958000Y-140062027D01*
X106958000Y-139817973D01*
X106919821Y-139576924D01*
X106844404Y-139344815D01*
X106733606Y-139127361D01*
X106664866Y-139032748D01*
X106590160Y-138929923D01*
X106590156Y-138929918D01*
X106417919Y-138757681D01*
X106384434Y-138696358D01*
X106389418Y-138626666D01*
X106417919Y-138582319D01*
X106500737Y-138499501D01*
X106590155Y-138410083D01*
X106733606Y-138212639D01*
X106844404Y-137995185D01*
X106919821Y-137763076D01*
X106958000Y-137522027D01*
X106958000Y-137277973D01*
X106919821Y-137036924D01*
X106844404Y-136804815D01*
X106733606Y-136587361D01*
X106669120Y-136498603D01*
X106590160Y-136389923D01*
X106590156Y-136389918D01*
X106417919Y-136217681D01*
X106384434Y-136156358D01*
X106389418Y-136086666D01*
X106417919Y-136042319D01*
X106472619Y-135987619D01*
X106590155Y-135870083D01*
X106603211Y-135852112D01*
X106658541Y-135809448D01*
X106703528Y-135801000D01*
X107493863Y-135801000D01*
X107560902Y-135820685D01*
X107581544Y-135837319D01*
X108397681Y-136653455D01*
X108431166Y-136714778D01*
X108434000Y-136741136D01*
X108434000Y-140767684D01*
X108470160Y-140949472D01*
X108470162Y-140949480D01*
X108494195Y-141007500D01*
X108494195Y-141007501D01*
X108541092Y-141120723D01*
X108541099Y-141120736D01*
X108644077Y-141274852D01*
X108644080Y-141274856D01*
X110575143Y-143205919D01*
X110575147Y-143205922D01*
X110644316Y-143252139D01*
X110729269Y-143308903D01*
X110900520Y-143379838D01*
X111082315Y-143415999D01*
X111082319Y-143416000D01*
X111082320Y-143416000D01*
X111504742Y-143416000D01*
X111571781Y-143435685D01*
X111592423Y-143452319D01*
X111645213Y-143505109D01*
X111817179Y-143630048D01*
X111817181Y-143630049D01*
X111817184Y-143630051D01*
X112006588Y-143726557D01*
X112208757Y-143792246D01*
X112418713Y-143825500D01*
X112418714Y-143825500D01*
X112631286Y-143825500D01*
X112631287Y-143825500D01*
X112740602Y-143808186D01*
X112809896Y-143817141D01*
X112863347Y-143862137D01*
X112883987Y-143928888D01*
X112884000Y-143930659D01*
X112884000Y-145142684D01*
X112920160Y-145324472D01*
X112920162Y-145324480D01*
X112936648Y-145364280D01*
X112936648Y-145364281D01*
X112991092Y-145495723D01*
X112991099Y-145495736D01*
X113094077Y-145649852D01*
X113097943Y-145654563D01*
X113096254Y-145655948D01*
X113125028Y-145708642D01*
X113120044Y-145778334D01*
X113078172Y-145834267D01*
X113012708Y-145858684D01*
X113003862Y-145859000D01*
X74608637Y-145859000D01*
X74541598Y-145839315D01*
X74520956Y-145822681D01*
X58729317Y-130031042D01*
X58695832Y-129969719D01*
X58694525Y-129923964D01*
X58698000Y-129902027D01*
X58698000Y-129657973D01*
X58659821Y-129416924D01*
X58584404Y-129184815D01*
X58473606Y-128967361D01*
X58455279Y-128942136D01*
X58330160Y-128769923D01*
X58330156Y-128769918D01*
X58157581Y-128597343D01*
X58157576Y-128597339D01*
X57960142Y-128453896D01*
X57960141Y-128453895D01*
X57960139Y-128453894D01*
X57742685Y-128343096D01*
X57510576Y-128267679D01*
X57510574Y-128267678D01*
X57510572Y-128267678D01*
X57340145Y-128240685D01*
X57269527Y-128229500D01*
X57025473Y-128229500D01*
X56969593Y-128238350D01*
X56784427Y-128267678D01*
X56552312Y-128343097D01*
X56334857Y-128453896D01*
X56137423Y-128597339D01*
X56137418Y-128597343D01*
X55964843Y-128769918D01*
X55964839Y-128769923D01*
X55821396Y-128967357D01*
X55710597Y-129184812D01*
X55635178Y-129416927D01*
X55627434Y-129465822D01*
X55597000Y-129657973D01*
X51518000Y-129657973D01*
X51518000Y-124577973D01*
X55597000Y-124577973D01*
X55597000Y-124822026D01*
X55628128Y-125018563D01*
X55635179Y-125063076D01*
X55710596Y-125295185D01*
X55817419Y-125504838D01*
X55821396Y-125512642D01*
X55964839Y-125710076D01*
X55964843Y-125710081D01*
X56137418Y-125882656D01*
X56137423Y-125882660D01*
X56230798Y-125950500D01*
X56334861Y-126026106D01*
X56552315Y-126136904D01*
X56784424Y-126212321D01*
X57025473Y-126250500D01*
X57025474Y-126250500D01*
X57269526Y-126250500D01*
X57269527Y-126250500D01*
X57510576Y-126212321D01*
X57742685Y-126136904D01*
X57960139Y-126026106D01*
X58157583Y-125882655D01*
X58330155Y-125710083D01*
X58473606Y-125512639D01*
X58584404Y-125295185D01*
X58659821Y-125063076D01*
X58698000Y-124822027D01*
X58698000Y-124577973D01*
X58659821Y-124336924D01*
X58584404Y-124104815D01*
X58473606Y-123887361D01*
X58406620Y-123795162D01*
X58330160Y-123689923D01*
X58330156Y-123689918D01*
X58157581Y-123517343D01*
X58157576Y-123517339D01*
X57960142Y-123373896D01*
X57960141Y-123373895D01*
X57960139Y-123373894D01*
X57742685Y-123263096D01*
X57510576Y-123187679D01*
X57510574Y-123187678D01*
X57510572Y-123187678D01*
X57340145Y-123160685D01*
X57269527Y-123149500D01*
X57025473Y-123149500D01*
X56969593Y-123158350D01*
X56784427Y-123187678D01*
X56552312Y-123263097D01*
X56334857Y-123373896D01*
X56137423Y-123517339D01*
X56137418Y-123517343D01*
X55964843Y-123689918D01*
X55964839Y-123689923D01*
X55821396Y-123887357D01*
X55710597Y-124104812D01*
X55635178Y-124336927D01*
X55597000Y-124577973D01*
X51518000Y-124577973D01*
X51518000Y-106069983D01*
X55597000Y-106069983D01*
X55597000Y-107770001D01*
X55597001Y-107770018D01*
X55607500Y-107872796D01*
X55607501Y-107872799D01*
X55662685Y-108039331D01*
X55662687Y-108039336D01*
X55697569Y-108095888D01*
X55749500Y-108180083D01*
X55754789Y-108188657D01*
X55878845Y-108312713D01*
X55893226Y-108321583D01*
X55939952Y-108373530D01*
X55951176Y-108442492D01*
X55928451Y-108500008D01*
X55821393Y-108647361D01*
X55710597Y-108864812D01*
X55710596Y-108864814D01*
X55710596Y-108864815D01*
X55682893Y-108950076D01*
X55635178Y-109096927D01*
X55622808Y-109175028D01*
X55597000Y-109337973D01*
X55597000Y-109582027D01*
X55635179Y-109823076D01*
X55710596Y-110055185D01*
X55793138Y-110217184D01*
X55821396Y-110272642D01*
X55964839Y-110470076D01*
X55964843Y-110470081D01*
X56137081Y-110642319D01*
X56170566Y-110703642D01*
X56165582Y-110773334D01*
X56137081Y-110817681D01*
X55964843Y-110989918D01*
X55964839Y-110989923D01*
X55821396Y-111187357D01*
X55710597Y-111404812D01*
X55710596Y-111404814D01*
X55710596Y-111404815D01*
X55682893Y-111490076D01*
X55635178Y-111636927D01*
X55597000Y-111877973D01*
X55597000Y-112122026D01*
X55627060Y-112311819D01*
X55635179Y-112363076D01*
X55710596Y-112595185D01*
X55800138Y-112770922D01*
X55821396Y-112812642D01*
X55964839Y-113010076D01*
X55964843Y-113010081D01*
X56137081Y-113182319D01*
X56170566Y-113243642D01*
X56165582Y-113313334D01*
X56137081Y-113357681D01*
X55964843Y-113529918D01*
X55964839Y-113529923D01*
X55821396Y-113727357D01*
X55710597Y-113944812D01*
X55710596Y-113944814D01*
X55710596Y-113944815D01*
X55682893Y-114030076D01*
X55635178Y-114176927D01*
X55601536Y-114389334D01*
X55597000Y-114417973D01*
X55597000Y-114662027D01*
X55635179Y-114903076D01*
X55710596Y-115135185D01*
X55742053Y-115196924D01*
X55821396Y-115352642D01*
X55964839Y-115550076D01*
X55964843Y-115550081D01*
X56137081Y-115722319D01*
X56170566Y-115783642D01*
X56165582Y-115853334D01*
X56137081Y-115897681D01*
X55964843Y-116069918D01*
X55964839Y-116069923D01*
X55821396Y-116267357D01*
X55710597Y-116484812D01*
X55710596Y-116484814D01*
X55710596Y-116484815D01*
X55682893Y-116570076D01*
X55635178Y-116716927D01*
X55621444Y-116803642D01*
X55597000Y-116957973D01*
X55597000Y-117202027D01*
X55635179Y-117443076D01*
X55710596Y-117675185D01*
X55800138Y-117850922D01*
X55821396Y-117892642D01*
X55964839Y-118090076D01*
X55964843Y-118090081D01*
X56137418Y-118262656D01*
X56137423Y-118262660D01*
X56243978Y-118340076D01*
X56334861Y-118406106D01*
X56552315Y-118516904D01*
X56784424Y-118592321D01*
X57025473Y-118630500D01*
X57025474Y-118630500D01*
X57269526Y-118630500D01*
X57269527Y-118630500D01*
X57510576Y-118592321D01*
X57742685Y-118516904D01*
X57960139Y-118406106D01*
X58157583Y-118262655D01*
X58330155Y-118090083D01*
X58473606Y-117892639D01*
X58584404Y-117675185D01*
X58659821Y-117443076D01*
X58698000Y-117202027D01*
X58698000Y-116957973D01*
X58659821Y-116716924D01*
X58584404Y-116484815D01*
X58473606Y-116267361D01*
X58401970Y-116168762D01*
X58330160Y-116069923D01*
X58330156Y-116069918D01*
X58157919Y-115897681D01*
X58124434Y-115836358D01*
X58129418Y-115766666D01*
X58157919Y-115722319D01*
X58217591Y-115662647D01*
X58330155Y-115550083D01*
X58473606Y-115352639D01*
X58584404Y-115135185D01*
X58659821Y-114903076D01*
X58698000Y-114662027D01*
X58698000Y-114417973D01*
X58659821Y-114176924D01*
X58584404Y-113944815D01*
X58473606Y-113727361D01*
X58401970Y-113628762D01*
X58330160Y-113529923D01*
X58330156Y-113529918D01*
X58157919Y-113357681D01*
X58124434Y-113296358D01*
X58129418Y-113226666D01*
X58157919Y-113182319D01*
X58198212Y-113142026D01*
X58330155Y-113010083D01*
X58473606Y-112812639D01*
X58584404Y-112595185D01*
X58659821Y-112363076D01*
X58698000Y-112122027D01*
X58698000Y-111877973D01*
X58659821Y-111636924D01*
X58584404Y-111404815D01*
X58473606Y-111187361D01*
X58405104Y-111093076D01*
X58330160Y-110989923D01*
X58330156Y-110989918D01*
X58157919Y-110817681D01*
X58124434Y-110756358D01*
X58129418Y-110686666D01*
X58157919Y-110642319D01*
X58198212Y-110602026D01*
X58330155Y-110470083D01*
X58473606Y-110272639D01*
X58584404Y-110055185D01*
X58659821Y-109823076D01*
X58698000Y-109582027D01*
X58698000Y-109337973D01*
X58659821Y-109096924D01*
X58584404Y-108864815D01*
X58473606Y-108647361D01*
X58424213Y-108579377D01*
X58366549Y-108500008D01*
X58343069Y-108434202D01*
X58358895Y-108366148D01*
X58401772Y-108321583D01*
X58416156Y-108312712D01*
X58540212Y-108188656D01*
X58632314Y-108039334D01*
X58687499Y-107872797D01*
X58698000Y-107770009D01*
X58697999Y-106069992D01*
X58692151Y-106012748D01*
X58687499Y-105967203D01*
X58687498Y-105967200D01*
X58681500Y-105949098D01*
X58632314Y-105800666D01*
X58540212Y-105651344D01*
X58416156Y-105527288D01*
X58323388Y-105470069D01*
X58266836Y-105435187D01*
X58266831Y-105435185D01*
X58265362Y-105434698D01*
X58100297Y-105380001D01*
X58100295Y-105380000D01*
X57997510Y-105369500D01*
X56297498Y-105369500D01*
X56297481Y-105369501D01*
X56194703Y-105380000D01*
X56194700Y-105380001D01*
X56028168Y-105435185D01*
X56028163Y-105435187D01*
X55878842Y-105527289D01*
X55754789Y-105651342D01*
X55662687Y-105800663D01*
X55662685Y-105800668D01*
X55655719Y-105821690D01*
X55607501Y-105967203D01*
X55607501Y-105967204D01*
X55607500Y-105967204D01*
X55597000Y-106069983D01*
X51518000Y-106069983D01*
X51518000Y-67795097D01*
X57224500Y-67795097D01*
X57224500Y-68054902D01*
X57265140Y-68311493D01*
X57345422Y-68558576D01*
X57426534Y-68717764D01*
X57438896Y-68742027D01*
X57463368Y-68790054D01*
X57532848Y-68885685D01*
X57616069Y-69000229D01*
X57799771Y-69183931D01*
X58009949Y-69336634D01*
X58146291Y-69406104D01*
X58241423Y-69454577D01*
X58241425Y-69454577D01*
X58241428Y-69454579D01*
X58488507Y-69534860D01*
X58620706Y-69555797D01*
X58745098Y-69575500D01*
X58745103Y-69575500D01*
X59004902Y-69575500D01*
X59118298Y-69557539D01*
X59261493Y-69534860D01*
X59508572Y-69454579D01*
X59740051Y-69336634D01*
X59950229Y-69183931D01*
X60133931Y-69000229D01*
X60194317Y-68917115D01*
X60249647Y-68874449D01*
X60294635Y-68866000D01*
X61228972Y-68866000D01*
X61296011Y-68885685D01*
X61329289Y-68917113D01*
X61342344Y-68935082D01*
X61514918Y-69107656D01*
X61514923Y-69107660D01*
X61687136Y-69232779D01*
X61712361Y-69251106D01*
X61929815Y-69361904D01*
X62161924Y-69437321D01*
X62402973Y-69475500D01*
X62402974Y-69475500D01*
X62647026Y-69475500D01*
X62647027Y-69475500D01*
X62888076Y-69437321D01*
X63120185Y-69361904D01*
X63337639Y-69251106D01*
X63535083Y-69107655D01*
X63707655Y-68935083D01*
X63851106Y-68737639D01*
X63961904Y-68520185D01*
X64037321Y-68288076D01*
X64075500Y-68047027D01*
X64075500Y-67802973D01*
X64037321Y-67561924D01*
X63961904Y-67329815D01*
X63851106Y-67112361D01*
X63805694Y-67049856D01*
X63707660Y-66914923D01*
X63707656Y-66914918D01*
X63535081Y-66742343D01*
X63535076Y-66742339D01*
X63337642Y-66598896D01*
X63337641Y-66598895D01*
X63337639Y-66598894D01*
X63120185Y-66488096D01*
X62888076Y-66412679D01*
X62888074Y-66412678D01*
X62888072Y-66412678D01*
X62719769Y-66386021D01*
X62647027Y-66374500D01*
X62402973Y-66374500D01*
X62353600Y-66382320D01*
X62161927Y-66412678D01*
X61929812Y-66488097D01*
X61712357Y-66598896D01*
X61514923Y-66742339D01*
X61514918Y-66742343D01*
X61342344Y-66914917D01*
X61329289Y-66932887D01*
X61273959Y-66975552D01*
X61228972Y-66984000D01*
X60294635Y-66984000D01*
X60227596Y-66964315D01*
X60194317Y-66932885D01*
X60133933Y-66849774D01*
X60133928Y-66849768D01*
X59950231Y-66666071D01*
X59950225Y-66666066D01*
X59740054Y-66513368D01*
X59740053Y-66513367D01*
X59740051Y-66513366D01*
X59667764Y-66476534D01*
X59508576Y-66395422D01*
X59261493Y-66315140D01*
X59004902Y-66274500D01*
X59004897Y-66274500D01*
X58745103Y-66274500D01*
X58745098Y-66274500D01*
X58488506Y-66315140D01*
X58241423Y-66395422D01*
X58009945Y-66513368D01*
X57799774Y-66666066D01*
X57799768Y-66666071D01*
X57616071Y-66849768D01*
X57616066Y-66849774D01*
X57463368Y-67059945D01*
X57345422Y-67291423D01*
X57265140Y-67538506D01*
X57224500Y-67795097D01*
X51518000Y-67795097D01*
X51518000Y-47255258D01*
X52517000Y-47255258D01*
X52517000Y-47484741D01*
X52526560Y-47557350D01*
X52546952Y-47712238D01*
X52546953Y-47712240D01*
X52606342Y-47933887D01*
X52694150Y-48145876D01*
X52694157Y-48145890D01*
X52808892Y-48344617D01*
X52948581Y-48526661D01*
X52948589Y-48526670D01*
X53110830Y-48688911D01*
X53110838Y-48688918D01*
X53292882Y-48828607D01*
X53292885Y-48828608D01*
X53292888Y-48828611D01*
X53491612Y-48943344D01*
X53491617Y-48943346D01*
X53491623Y-48943349D01*
X53567517Y-48974785D01*
X53703613Y-49031158D01*
X53925262Y-49090548D01*
X54152766Y-49120500D01*
X54152773Y-49120500D01*
X54382227Y-49120500D01*
X54382234Y-49120500D01*
X54609738Y-49090548D01*
X54831387Y-49031158D01*
X55043388Y-48943344D01*
X55242112Y-48828611D01*
X55424161Y-48688919D01*
X55424165Y-48688914D01*
X55424170Y-48688911D01*
X55586411Y-48526670D01*
X55586414Y-48526665D01*
X55586419Y-48526661D01*
X55726111Y-48344612D01*
X55840844Y-48145888D01*
X55928658Y-47933887D01*
X55988048Y-47712238D01*
X56018000Y-47484734D01*
X56018000Y-47255266D01*
X55988048Y-47027762D01*
X55928658Y-46806113D01*
X55840844Y-46594112D01*
X55726111Y-46395388D01*
X55726108Y-46395385D01*
X55726107Y-46395382D01*
X55586418Y-46213338D01*
X55586411Y-46213330D01*
X55424170Y-46051089D01*
X55424161Y-46051081D01*
X55242117Y-45911392D01*
X55043390Y-45796657D01*
X55043376Y-45796650D01*
X54831387Y-45708842D01*
X54609738Y-45649452D01*
X54571715Y-45644446D01*
X54382241Y-45619500D01*
X54382234Y-45619500D01*
X54152766Y-45619500D01*
X54152758Y-45619500D01*
X53936215Y-45648009D01*
X53925262Y-45649452D01*
X53831576Y-45674554D01*
X53703612Y-45708842D01*
X53491623Y-45796650D01*
X53491609Y-45796657D01*
X53292882Y-45911392D01*
X53110838Y-46051081D01*
X52948581Y-46213338D01*
X52808892Y-46395382D01*
X52694157Y-46594109D01*
X52694150Y-46594123D01*
X52606342Y-46806112D01*
X52546953Y-47027759D01*
X52546951Y-47027770D01*
X52517000Y-47255258D01*
X51518000Y-47255258D01*
X51518000Y-44744500D01*
X51537685Y-44677461D01*
X51590489Y-44631706D01*
X51642000Y-44620500D01*
X250393000Y-44620500D01*
X250460039Y-44640185D01*
G37*
%TD.AperFunction*%
%TD*%
M02*
