%TF.GenerationSoftware,KiCad,Pcbnew,9.0.4*%
%TF.CreationDate,2025-11-06T18:53:12+07:00*%
%TF.ProjectId,RIP_ExtensionBoard,5249505f-4578-4746-956e-73696f6e426f,1*%
%TF.SameCoordinates,Original*%
%TF.FileFunction,Copper,L2,Bot*%
%TF.FilePolarity,Positive*%
%FSLAX46Y46*%
G04 Gerber Fmt 4.6, Leading zero omitted, Abs format (unit mm)*
G04 Created by KiCad (PCBNEW 9.0.4) date 2025-11-06 18:53:12*
%MOMM*%
%LPD*%
G01*
G04 APERTURE LIST*
G04 Aperture macros list*
%AMRoundRect*
0 Rectangle with rounded corners*
0 $1 Rounding radius*
0 $2 $3 $4 $5 $6 $7 $8 $9 X,Y pos of 4 corners*
0 Add a 4 corners polygon primitive as box body*
4,1,4,$2,$3,$4,$5,$6,$7,$8,$9,$2,$3,0*
0 Add four circle primitives for the rounded corners*
1,1,$1+$1,$2,$3*
1,1,$1+$1,$4,$5*
1,1,$1+$1,$6,$7*
1,1,$1+$1,$8,$9*
0 Add four rect primitives between the rounded corners*
20,1,$1+$1,$2,$3,$4,$5,0*
20,1,$1+$1,$4,$5,$6,$7,0*
20,1,$1+$1,$6,$7,$8,$9,0*
20,1,$1+$1,$8,$9,$2,$3,0*%
G04 Aperture macros list end*
%TA.AperFunction,ComponentPad*%
%ADD10C,1.600000*%
%TD*%
%TA.AperFunction,ComponentPad*%
%ADD11R,1.905000X2.000000*%
%TD*%
%TA.AperFunction,ComponentPad*%
%ADD12O,1.905000X2.000000*%
%TD*%
%TA.AperFunction,ComponentPad*%
%ADD13R,1.800000X1.800000*%
%TD*%
%TA.AperFunction,ComponentPad*%
%ADD14C,1.800000*%
%TD*%
%TA.AperFunction,ComponentPad*%
%ADD15R,1.524000X1.524000*%
%TD*%
%TA.AperFunction,ComponentPad*%
%ADD16C,1.524000*%
%TD*%
%TA.AperFunction,ComponentPad*%
%ADD17C,3.800000*%
%TD*%
%TA.AperFunction,ComponentPad*%
%ADD18R,1.700000X1.700000*%
%TD*%
%TA.AperFunction,ComponentPad*%
%ADD19C,1.700000*%
%TD*%
%TA.AperFunction,ComponentPad*%
%ADD20RoundRect,0.249999X-0.850001X-0.850001X0.850001X-0.850001X0.850001X0.850001X-0.850001X0.850001X0*%
%TD*%
%TA.AperFunction,ComponentPad*%
%ADD21C,2.200000*%
%TD*%
%TA.AperFunction,ComponentPad*%
%ADD22RoundRect,0.250000X-0.650000X-1.550000X0.650000X-1.550000X0.650000X1.550000X-0.650000X1.550000X0*%
%TD*%
%TA.AperFunction,ComponentPad*%
%ADD23O,1.800000X3.600000*%
%TD*%
%TA.AperFunction,ComponentPad*%
%ADD24R,1.600000X1.600000*%
%TD*%
%TA.AperFunction,ComponentPad*%
%ADD25O,1.600000X1.600000*%
%TD*%
%TA.AperFunction,Conductor*%
%ADD26C,0.800000*%
%TD*%
G04 APERTURE END LIST*
D10*
%TO.P,C2,1*%
%TO.N,+3.3V*%
X62017500Y-55870000D03*
%TO.P,C2,2*%
%TO.N,GND*%
X62017500Y-58370000D03*
%TD*%
D11*
%TO.P,U2,1,ADJ*%
%TO.N,Net-(U2-ADJ)*%
X62977500Y-50320000D03*
D12*
%TO.P,U2,2,VO*%
%TO.N,+3.3V*%
X65517500Y-50320000D03*
%TO.P,U2,3,VI*%
%TO.N,+5V*%
X68057500Y-50320000D03*
%TD*%
D13*
%TO.P,D1,1,K*%
%TO.N,GND*%
X79247500Y-67120000D03*
D14*
%TO.P,D1,2,A*%
%TO.N,Net-(D1-A)*%
X81787500Y-67120000D03*
%TD*%
D15*
%TO.P,U1,CN7_1,PC10*%
%TO.N,C3*%
X118907350Y-96800000D03*
D16*
%TO.P,U1,CN7_2,PC11*%
%TO.N,C5*%
X121447350Y-96800000D03*
%TO.P,U1,CN7_3,PC12*%
%TO.N,C2*%
X118907350Y-99340000D03*
%TO.P,U1,CN7_4,PD2*%
%TO.N,C4*%
X121447350Y-99340000D03*
%TO.P,U1,CN7_5,VDD*%
%TO.N,unconnected-(U1A-VDD-PadCN7_5)*%
X118907350Y-101880000D03*
%TO.P,U1,CN7_6,E5V*%
%TO.N,+5V*%
X121447350Y-101880000D03*
%TO.P,U1,CN7_7,P8-BOOT0*%
%TO.N,unconnected-(U1A-P8-BOOT0-PadCN7_7)*%
X118907350Y-104420000D03*
%TO.P,U1,CN7_8,GND_CN7_8*%
%TO.N,GND*%
X121447350Y-104420000D03*
%TO.P,U1,CN7_9,NC_CN7_9*%
%TO.N,unconnected-(U1A-NC_CN7_9-PadCN7_9)*%
X118907350Y-106960000D03*
%TO.P,U1,CN7_10,NC_CN7_10*%
%TO.N,unconnected-(U1A-NC_CN7_10-PadCN7_10)*%
X121447350Y-106960000D03*
%TO.P,U1,CN7_11,NC_CN7_11*%
%TO.N,unconnected-(U1A-NC_CN7_11-PadCN7_11)*%
X118907350Y-109500000D03*
%TO.P,U1,CN7_12,IOREF*%
%TO.N,unconnected-(U1A-IOREF-PadCN7_12)*%
X121447350Y-109500000D03*
%TO.P,U1,CN7_13,PA13*%
%TO.N,unconnected-(U1A-PA13-PadCN7_13)*%
X118907350Y-112040000D03*
%TO.P,U1,CN7_14,~{RST}*%
%TO.N,unconnected-(U1A-~{RST}-PadCN7_14)*%
X121447350Y-112040000D03*
%TO.P,U1,CN7_15,PA14*%
%TO.N,unconnected-(U1A-PA14-PadCN7_15)*%
X118907350Y-114580000D03*
%TO.P,U1,CN7_16,+3V3*%
%TO.N,unconnected-(U1A-+3V3-PadCN7_16)*%
X121447350Y-114580000D03*
%TO.P,U1,CN7_17,PA15*%
%TO.N,C1*%
X118907350Y-117120000D03*
%TO.P,U1,CN7_18,+5V*%
%TO.N,unconnected-(U1A-+5V-PadCN7_18)*%
X121447350Y-117120000D03*
%TO.P,U1,CN7_19,GND_CN7_19*%
%TO.N,GND*%
X118907350Y-119660000D03*
%TO.P,U1,CN7_20,GND_CN7_20*%
X121447350Y-119660000D03*
%TO.P,U1,CN7_21,PB7*%
%TO.N,C0*%
X118907350Y-122200000D03*
%TO.P,U1,CN7_22,GND_CN7_22*%
%TO.N,GND*%
X121447350Y-122200000D03*
%TO.P,U1,CN7_23,PC13*%
%TO.N,unconnected-(U1A-PC13-PadCN7_23)*%
X118907350Y-124740000D03*
%TO.P,U1,CN7_24,VIN*%
%TO.N,unconnected-(U1A-VIN-PadCN7_24)*%
X121447350Y-124740000D03*
%TO.P,U1,CN7_25,PC14*%
%TO.N,unconnected-(U1A-PC14-PadCN7_25)*%
X118907350Y-127280000D03*
%TO.P,U1,CN7_26,NC_CN7_26*%
%TO.N,unconnected-(U1A-NC_CN7_26-PadCN7_26)*%
X121447350Y-127280000D03*
%TO.P,U1,CN7_27,PC15*%
%TO.N,unconnected-(U1A-PC15-PadCN7_27)*%
X118907350Y-129820000D03*
%TO.P,U1,CN7_28,PA0*%
%TO.N,RSTn*%
X121447350Y-129820000D03*
%TO.P,U1,CN7_29,PF0*%
%TO.N,unconnected-(U1A-PF0-PadCN7_29)*%
X118907350Y-132360000D03*
%TO.P,U1,CN7_30,PA1*%
%TO.N,LAT*%
X121447350Y-132360000D03*
%TO.P,U1,CN7_31,PF1*%
%TO.N,unconnected-(U1A-PF1-PadCN7_31)*%
X118907350Y-134900000D03*
%TO.P,U1,CN7_32,PA4*%
%TO.N,theta_B*%
X121447350Y-134900000D03*
%TO.P,U1,CN7_33,VBAT*%
%TO.N,unconnected-(U1A-VBAT-PadCN7_33)*%
X118907350Y-137440000D03*
%TO.P,U1,CN7_34,PB0*%
%TO.N,SB*%
X121447350Y-137440000D03*
%TO.P,U1,CN7_35,PC2*%
%TO.N,C7*%
X118907350Y-139980000D03*
%TO.P,U1,CN7_36,PC1/PB9*%
%TO.N,SCK*%
X121447350Y-139980000D03*
%TO.P,U1,CN7_37,PC3*%
%TO.N,C6*%
X118907350Y-142520000D03*
%TO.P,U1,CN7_38,PC0/PA15*%
%TO.N,SDA*%
X121447350Y-142520000D03*
%TO.P,U1,CN10_1,PC9*%
%TO.N,Emergency*%
X179867350Y-96800000D03*
%TO.P,U1,CN10_2,PC8*%
%TO.N,LCD_D2*%
X182407350Y-96800000D03*
%TO.P,U1,CN10_3,PB8*%
%TO.N,STM_RX*%
X179867350Y-99340000D03*
%TO.P,U1,CN10_4,PC6*%
%TO.N,LCD_D3*%
X182407350Y-99340000D03*
%TO.P,U1,CN10_5,PB9*%
%TO.N,STM_TX*%
X179867350Y-101880000D03*
%TO.P,U1,CN10_6,PC5*%
%TO.N,LCD_D4*%
X182407350Y-101880000D03*
%TO.P,U1,CN10_7,AVDD*%
%TO.N,unconnected-(U1B-AVDD-PadCN10_7)*%
X179867350Y-104420000D03*
%TO.P,U1,CN10_8,5V_USB_CHGR*%
%TO.N,unconnected-(U1B-5V_USB_CHGR-PadCN10_8)*%
X182407350Y-104420000D03*
%TO.P,U1,CN10_9,GND_CN10_9*%
%TO.N,GND*%
X179867350Y-106960000D03*
%TO.P,U1,CN10_10,NC_CN10_10*%
%TO.N,unconnected-(U1B-NC_CN10_10-PadCN10_10)*%
X182407350Y-106960000D03*
%TO.P,U1,CN10_11,PA5*%
%TO.N,unconnected-(U1B-PA5-PadCN10_11)*%
X179867350Y-109500000D03*
%TO.P,U1,CN10_12,PA12*%
%TO.N,alpha_B*%
X182407350Y-109500000D03*
%TO.P,U1,CN10_13,PA6*%
%TO.N,theta_A*%
X179867350Y-112040000D03*
%TO.P,U1,CN10_14,PA11*%
%TO.N,alpha_A*%
X182407350Y-112040000D03*
%TO.P,U1,CN10_15,PA7*%
%TO.N,unconnected-(U1B-PA7-PadCN10_15)*%
X179867350Y-114580000D03*
%TO.P,U1,CN10_16,PB12*%
%TO.N,LCD_D5*%
X182407350Y-114580000D03*
%TO.P,U1,CN10_17,PB6*%
%TO.N,LCD_RD*%
X179867350Y-117120000D03*
%TO.P,U1,CN10_18,PB11*%
%TO.N,LCD_D6*%
X182407350Y-117120000D03*
%TO.P,U1,CN10_19,PC7*%
%TO.N,LCD_WR*%
X179867350Y-119660000D03*
%TO.P,U1,CN10_20,GND_CN10_20*%
%TO.N,unconnected-(U1B-GND_CN10_20-PadCN10_20)*%
X182407350Y-119660000D03*
%TO.P,U1,CN10_21,PA9*%
%TO.N,DIR*%
X179867350Y-122200000D03*
%TO.P,U1,CN10_22,PB2*%
%TO.N,LCD_D7*%
X182407350Y-122200000D03*
%TO.P,U1,CN10_23,PA8*%
%TO.N,PWM*%
X179867350Y-124740000D03*
%TO.P,U1,CN10_24,PB1*%
%TO.N,SD_CS*%
X182407350Y-124740000D03*
%TO.P,U1,CN10_25,PB10*%
%TO.N,LCD_RS*%
X179867350Y-127280000D03*
%TO.P,U1,CN10_26,PB15*%
%TO.N,SD_DI*%
X182407350Y-127280000D03*
%TO.P,U1,CN10_27,PB4*%
%TO.N,LCD_CS*%
X179867350Y-129820000D03*
%TO.P,U1,CN10_28,PB14*%
%TO.N,SD_DO*%
X182407350Y-129820000D03*
%TO.P,U1,CN10_29,PB5*%
%TO.N,LCD_RST*%
X179867350Y-132360000D03*
%TO.P,U1,CN10_30,PB13*%
%TO.N,SD_SCK*%
X182407350Y-132360000D03*
%TO.P,U1,CN10_31,PB3*%
%TO.N,unconnected-(U1B-PB3-PadCN10_31)*%
X179867350Y-134900000D03*
%TO.P,U1,CN10_32,AGND*%
%TO.N,unconnected-(U1B-AGND-PadCN10_32)*%
X182407350Y-134900000D03*
%TO.P,U1,CN10_33,PA10*%
%TO.N,LCD_D0*%
X179867350Y-137440000D03*
%TO.P,U1,CN10_34,PC4*%
%TO.N,LCD_D1*%
X182407350Y-137440000D03*
%TO.P,U1,CN10_35,PA2/PC4*%
%TO.N,unconnected-(U1B-PA2{slash}PC4-PadCN10_35)*%
X179867350Y-139980000D03*
%TO.P,U1,CN10_36,NC_CN10_36*%
%TO.N,unconnected-(U1B-NC_CN10_36-PadCN10_36)*%
X182407350Y-139980000D03*
%TO.P,U1,CN10_37,PA3/PC5*%
%TO.N,unconnected-(U1B-PA3{slash}PC5-PadCN10_37)*%
X179867350Y-142520000D03*
%TO.P,U1,CN10_38,NC_CN10_38*%
%TO.N,unconnected-(U1B-NC_CN10_38-PadCN10_38)*%
X182407350Y-142520000D03*
%TD*%
D17*
%TO.P,H6,1,1*%
%TO.N,Emergency*%
X189767500Y-78620000D03*
%TD*%
D10*
%TO.P,R1,1*%
%TO.N,+3.3V*%
X71467500Y-68870000D03*
%TO.P,R1,2*%
%TO.N,Net-(U2-ADJ)*%
X58767500Y-68870000D03*
%TD*%
%TO.P,R4,1*%
%TO.N,+5V*%
X98137500Y-67120000D03*
%TO.P,R4,2*%
%TO.N,Net-(D1-A)*%
X85437500Y-67120000D03*
%TD*%
D18*
%TO.P,J7,1,Pin_1*%
%TO.N,unconnected-(J7-Pin_1-Pad1)*%
X239400000Y-61300000D03*
D19*
%TO.P,J7,2,Pin_2*%
%TO.N,STM_TX*%
X239400000Y-58760000D03*
%TO.P,J7,3,Pin_3*%
%TO.N,STM_RX*%
X239400000Y-56220000D03*
%TO.P,J7,4,Pin_4*%
%TO.N,GND*%
X239400000Y-53680000D03*
%TO.P,J7,5,Pin_5*%
%TO.N,+5V*%
X239400000Y-51140000D03*
%TO.P,J7,6,Pin_6*%
%TO.N,unconnected-(J7-Pin_6-Pad6)*%
X239400000Y-48600000D03*
%TD*%
D10*
%TO.P,R2,1*%
%TO.N,Net-(R2-Pad1)*%
X71467500Y-74370000D03*
%TO.P,R2,2*%
%TO.N,GND*%
X58767500Y-74370000D03*
%TD*%
D20*
%TO.P,D2,1,K*%
%TO.N,Net-(D2-K)*%
X206107500Y-66370000D03*
D21*
%TO.P,D2,2,A*%
%TO.N,GND*%
X216267500Y-66370000D03*
%TD*%
D10*
%TO.P,R5,1*%
%TO.N,GND*%
X232037500Y-68620000D03*
%TO.P,R5,2*%
%TO.N,Net-(J5-Pin_2)*%
X219337500Y-68620000D03*
%TD*%
%TO.P,R3,1*%
%TO.N,Net-(U2-ADJ)*%
X71467500Y-63370000D03*
%TO.P,R3,2*%
%TO.N,Net-(R2-Pad1)*%
X58767500Y-63370000D03*
%TD*%
%TO.P,R6,1*%
%TO.N,Net-(D2-K)*%
X219417500Y-63870000D03*
%TO.P,R6,2*%
%TO.N,Net-(J5-Pin_2)*%
X232117500Y-63870000D03*
%TD*%
D17*
%TO.P,H5,1,1*%
%TO.N,Net-(D2-K)*%
X195517500Y-66370000D03*
%TD*%
D10*
%TO.P,C1,1*%
%TO.N,+5V*%
X68267500Y-55870000D03*
%TO.P,C1,2*%
%TO.N,GND*%
X68267500Y-58370000D03*
%TD*%
D22*
%TO.P,J1,1,Pin_1*%
%TO.N,+5V*%
X80185000Y-53550000D03*
D23*
%TO.P,J1,2,Pin_2*%
%TO.N,GND*%
X85265000Y-53550000D03*
%TD*%
D22*
%TO.P,J2,1,Pin_1*%
%TO.N,PWM*%
X140760000Y-53550000D03*
D23*
%TO.P,J2,2,Pin_2*%
%TO.N,DIR*%
X145840000Y-53550000D03*
%TO.P,J2,3,Pin_3*%
%TO.N,GND*%
X150920000Y-53550000D03*
%TD*%
D24*
%TO.P,A1,1,NC*%
%TO.N,unconnected-(A1-NC-Pad1)*%
X57147500Y-106920000D03*
D25*
%TO.P,A1,2,IOREF*%
%TO.N,unconnected-(A1-IOREF-Pad2)*%
X57147500Y-109460000D03*
%TO.P,A1,3,~{RESET}*%
%TO.N,unconnected-(A1-~{RESET}-Pad3)*%
X57147500Y-112000000D03*
%TO.P,A1,4,3V3*%
%TO.N,unconnected-(A1-3V3-Pad4)*%
X57147500Y-114540000D03*
%TO.P,A1,5,+5V*%
%TO.N,+5V*%
X57147500Y-117080000D03*
%TO.P,A1,6,GND*%
%TO.N,GND*%
X57147500Y-119620000D03*
%TO.P,A1,7,GND*%
X57147500Y-122160000D03*
%TO.P,A1,8,VIN*%
%TO.N,unconnected-(A1-VIN-Pad8)*%
X57147500Y-124700000D03*
%TO.P,A1,9,A0*%
%TO.N,SB*%
X57147500Y-129780000D03*
%TO.P,A1,10,A1*%
%TO.N,LAT*%
X57147500Y-132320000D03*
%TO.P,A1,11,A2*%
%TO.N,RSTn*%
X57147500Y-134860000D03*
%TO.P,A1,12,A3*%
%TO.N,unconnected-(A1-A3-Pad12)*%
X57147500Y-137400000D03*
%TO.P,A1,13,SDA/A4*%
%TO.N,unconnected-(A1-SDA{slash}A4-Pad13)*%
X57147500Y-139940000D03*
%TO.P,A1,14,SCL/A5*%
%TO.N,unconnected-(A1-SCL{slash}A5-Pad14)*%
X57147500Y-142480000D03*
%TO.P,A1,15,D0/RX*%
%TO.N,unconnected-(A1-D0{slash}RX-Pad15)*%
X105407500Y-142480000D03*
%TO.P,A1,16,D1/TX*%
%TO.N,unconnected-(A1-D1{slash}TX-Pad16)*%
X105407500Y-139940000D03*
%TO.P,A1,17,D2*%
%TO.N,unconnected-(A1-D2-Pad17)*%
X105407500Y-137400000D03*
%TO.P,A1,18,D3*%
%TO.N,C6*%
X105407500Y-134860000D03*
%TO.P,A1,19,D4*%
%TO.N,C7*%
X105407500Y-132320000D03*
%TO.P,A1,20,D5*%
%TO.N,unconnected-(A1-D5-Pad20)*%
X105407500Y-129780000D03*
%TO.P,A1,21,D6*%
%TO.N,SCK*%
X105407500Y-127240000D03*
%TO.P,A1,22,D7*%
%TO.N,SDA*%
X105407500Y-124700000D03*
%TO.P,A1,23,D8*%
%TO.N,C0*%
X105407500Y-120640000D03*
%TO.P,A1,24,D9*%
%TO.N,C1*%
X105407500Y-118100000D03*
%TO.P,A1,25,D10*%
%TO.N,C2*%
X105407500Y-115560000D03*
%TO.P,A1,26,D11*%
%TO.N,C3*%
X105407500Y-113020000D03*
%TO.P,A1,27,D12*%
%TO.N,C4*%
X105407500Y-110480000D03*
%TO.P,A1,28,D13*%
%TO.N,C5*%
X105407500Y-107940000D03*
%TO.P,A1,29,GND*%
%TO.N,unconnected-(A1-GND-Pad29)*%
X105407500Y-105400000D03*
%TO.P,A1,30,AREF*%
%TO.N,unconnected-(A1-AREF-Pad30)*%
X105407500Y-102860000D03*
%TO.P,A1,31,SDA/A4*%
%TO.N,unconnected-(A1-SDA{slash}A4-Pad31)*%
X105407500Y-100320000D03*
%TO.P,A1,32,SCL/A5*%
%TO.N,unconnected-(A1-SCL{slash}A5-Pad32)*%
X105407500Y-97780000D03*
%TD*%
D22*
%TO.P,J4,1,Pin_1*%
%TO.N,+3.3V*%
X170947500Y-53550000D03*
D23*
%TO.P,J4,2,Pin_2*%
%TO.N,alpha_A*%
X176027500Y-53550000D03*
%TO.P,J4,3,Pin_3*%
%TO.N,alpha_B*%
X181107500Y-53550000D03*
%TO.P,J4,4,Pin_4*%
%TO.N,GND*%
X186187500Y-53550000D03*
%TD*%
D22*
%TO.P,J3,1,Pin_1*%
%TO.N,+3.3V*%
X102952500Y-53550000D03*
D23*
%TO.P,J3,2,Pin_2*%
%TO.N,theta_A*%
X108032500Y-53550000D03*
%TO.P,J3,3,Pin_3*%
%TO.N,theta_B*%
X113112500Y-53550000D03*
%TO.P,J3,4,Pin_4*%
%TO.N,GND*%
X118192500Y-53550000D03*
%TD*%
D22*
%TO.P,J5,1,Pin_1*%
%TO.N,+5V*%
X205490000Y-53522500D03*
D23*
%TO.P,J5,2,Pin_2*%
%TO.N,Net-(J5-Pin_2)*%
X210570000Y-53522500D03*
%TO.P,J5,3,Pin_3*%
X215650000Y-53522500D03*
%TO.P,J5,4,Pin_4*%
X220730000Y-53522500D03*
%TD*%
D24*
%TO.P,A2,1,NC*%
%TO.N,unconnected-(A2-NC-Pad1)*%
X243657500Y-113270000D03*
D25*
%TO.P,A2,2,IOREF*%
%TO.N,unconnected-(A2-IOREF-Pad2)*%
X243657500Y-110730000D03*
%TO.P,A2,3,~{RESET}*%
%TO.N,unconnected-(A2-~{RESET}-Pad3)*%
X243657500Y-108190000D03*
%TO.P,A2,4,3V3*%
%TO.N,+3.3V*%
X243657500Y-105650000D03*
%TO.P,A2,5,+5V*%
%TO.N,+5V*%
X243657500Y-103110000D03*
%TO.P,A2,6,GND*%
%TO.N,unconnected-(A2-GND-Pad6)*%
X243657500Y-100570000D03*
%TO.P,A2,7,GND*%
%TO.N,GND*%
X243657500Y-98030000D03*
%TO.P,A2,8,VIN*%
%TO.N,unconnected-(A2-VIN-Pad8)*%
X243657500Y-95490000D03*
%TO.P,A2,9,A0*%
%TO.N,LCD_RD*%
X243657500Y-90410000D03*
%TO.P,A2,10,A1*%
%TO.N,LCD_WR*%
X243657500Y-87870000D03*
%TO.P,A2,11,A2*%
%TO.N,LCD_RS*%
X243657500Y-85330000D03*
%TO.P,A2,12,A3*%
%TO.N,LCD_CS*%
X243657500Y-82790000D03*
%TO.P,A2,13,SDA/A4*%
%TO.N,LCD_RST*%
X243657500Y-80250000D03*
%TO.P,A2,14,SCL/A5*%
%TO.N,unconnected-(A2-SCL{slash}A5-Pad14)*%
X243657500Y-77710000D03*
%TO.P,A2,15,D0/RX*%
%TO.N,unconnected-(A2-D0{slash}RX-Pad15)*%
X195397500Y-77710000D03*
%TO.P,A2,16,D1/TX*%
%TO.N,unconnected-(A2-D1{slash}TX-Pad16)*%
X195397500Y-80250000D03*
%TO.P,A2,17,D2*%
%TO.N,LCD_D2*%
X195397500Y-82790000D03*
%TO.P,A2,18,D3*%
%TO.N,LCD_D3*%
X195397500Y-85330000D03*
%TO.P,A2,19,D4*%
%TO.N,LCD_D4*%
X195397500Y-87870000D03*
%TO.P,A2,20,D5*%
%TO.N,LCD_D5*%
X195397500Y-90410000D03*
%TO.P,A2,21,D6*%
%TO.N,LCD_D6*%
X195397500Y-92950000D03*
%TO.P,A2,22,D7*%
%TO.N,LCD_D7*%
X195397500Y-95490000D03*
%TO.P,A2,23,D8*%
%TO.N,LCD_D0*%
X195397500Y-99550000D03*
%TO.P,A2,24,D9*%
%TO.N,LCD_D1*%
X195397500Y-102090000D03*
%TO.P,A2,25,D10*%
%TO.N,SD_CS*%
X195397500Y-104630000D03*
%TO.P,A2,26,D11*%
%TO.N,SD_DI*%
X195397500Y-107170000D03*
%TO.P,A2,27,D12*%
%TO.N,SD_DO*%
X195397500Y-109710000D03*
%TO.P,A2,28,D13*%
%TO.N,SD_SCK*%
X195397500Y-112250000D03*
%TO.P,A2,29,GND*%
%TO.N,unconnected-(A2-GND-Pad29)*%
X195397500Y-114790000D03*
%TO.P,A2,30,AREF*%
%TO.N,unconnected-(A2-AREF-Pad30)*%
X195397500Y-117330000D03*
%TO.P,A2,31,SDA/A4*%
%TO.N,unconnected-(A2-SDA{slash}A4-Pad31)*%
X195397500Y-119870000D03*
%TO.P,A2,32,SCL/A5*%
%TO.N,unconnected-(A2-SCL{slash}A5-Pad32)*%
X195397500Y-122410000D03*
%TD*%
D26*
%TO.N,C0*%
X114437500Y-122200000D02*
X118907350Y-122200000D01*
X105407500Y-120640000D02*
X112817500Y-120640000D01*
X114407500Y-122230000D02*
X114437500Y-122200000D01*
X112817500Y-120640000D02*
X114407500Y-122230000D01*
%TO.N,C1*%
X105407500Y-118100000D02*
X113287500Y-118100000D01*
X113287500Y-118100000D02*
X114267500Y-117120000D01*
X114267500Y-117120000D02*
X118907350Y-117120000D01*
%TO.N,+5V*%
X80185000Y-53550000D02*
X80185000Y-56102500D01*
X124267500Y-100870000D02*
X123257500Y-101880000D01*
X246817500Y-56217500D02*
X241740000Y-51140000D01*
X198672500Y-53522500D02*
X205490000Y-53522500D01*
X243657500Y-103110000D02*
X245577500Y-103110000D01*
X206982834Y-53522500D02*
X210755334Y-49750000D01*
X245577500Y-103110000D02*
X246817500Y-101870000D01*
X80185000Y-53550000D02*
X80185000Y-50565000D01*
X120741769Y-92120000D02*
X124267500Y-95645731D01*
X205490000Y-53522500D02*
X206982834Y-53522500D01*
X83950000Y-46800000D02*
X191950000Y-46800000D01*
X124267500Y-95645731D02*
X124267500Y-100870000D01*
X62807500Y-117080000D02*
X57147500Y-117080000D01*
X123257500Y-101880000D02*
X121447350Y-101880000D01*
X98137500Y-67120000D02*
X98137500Y-87740000D01*
X102517500Y-92120000D02*
X120741769Y-92120000D01*
X80185000Y-56102500D02*
X75617500Y-60670000D01*
X231650000Y-49750000D02*
X233100000Y-51200000D01*
X191950000Y-46800000D02*
X198672500Y-53522500D01*
X98137500Y-87740000D02*
X102517500Y-92120000D01*
X75617500Y-60670000D02*
X75617500Y-104270000D01*
X233100000Y-51200000D02*
X239340000Y-51200000D01*
X75617500Y-104270000D02*
X62807500Y-117080000D01*
X210755334Y-49750000D02*
X231650000Y-49750000D01*
X80185000Y-50565000D02*
X83950000Y-46800000D01*
X246817500Y-101870000D02*
X246817500Y-56217500D01*
X239340000Y-51200000D02*
X239400000Y-51140000D01*
X241740000Y-51140000D02*
X239400000Y-51140000D01*
%TO.N,C7*%
X105407500Y-132320000D02*
X108997500Y-132320000D01*
X108997500Y-132320000D02*
X116657500Y-139980000D01*
X116657500Y-139980000D02*
X118907350Y-139980000D01*
%TO.N,C3*%
X115087500Y-96800000D02*
X118907350Y-96800000D01*
X112157500Y-99730000D02*
X115087500Y-96800000D01*
X112157500Y-111230000D02*
X112157500Y-99730000D01*
X105407500Y-113020000D02*
X110367500Y-113020000D01*
X110367500Y-113020000D02*
X112157500Y-111230000D01*
%TO.N,RSTn*%
X124657500Y-148980000D02*
X128657500Y-144980000D01*
X79407500Y-148980000D02*
X124657500Y-148980000D01*
X128657500Y-144980000D02*
X128657500Y-133230000D01*
X125247500Y-129820000D02*
X121447350Y-129820000D01*
X57147500Y-134860000D02*
X65287500Y-134860000D01*
X65287500Y-134860000D02*
X79407500Y-148980000D01*
X128657500Y-133230000D02*
X125247500Y-129820000D01*
%TO.N,C2*%
X111327500Y-115560000D02*
X114407500Y-112480000D01*
X105407500Y-115560000D02*
X111327500Y-115560000D01*
X114407500Y-112480000D02*
X114407500Y-101230000D01*
X116297500Y-99340000D02*
X118907350Y-99340000D01*
X114407500Y-101230000D02*
X116297500Y-99340000D01*
%TO.N,SB*%
X81657500Y-144980000D02*
X123157500Y-144980000D01*
X57147500Y-129780000D02*
X66457500Y-129780000D01*
X124657500Y-138230000D02*
X123867500Y-137440000D01*
X123157500Y-144980000D02*
X124657500Y-143480000D01*
X66457500Y-129780000D02*
X81657500Y-144980000D01*
X124657500Y-143480000D02*
X124657500Y-138230000D01*
X123867500Y-137440000D02*
X121447350Y-137440000D01*
%TO.N,LAT*%
X57147500Y-132320000D02*
X65747500Y-132320000D01*
X126657500Y-144480000D02*
X126657500Y-134230000D01*
X126657500Y-134230000D02*
X124787500Y-132360000D01*
X124407500Y-146730000D02*
X126657500Y-144480000D01*
X124787500Y-132360000D02*
X121447350Y-132360000D01*
X65747500Y-132320000D02*
X80157500Y-146730000D01*
X80157500Y-146730000D02*
X124407500Y-146730000D01*
%TO.N,C6*%
X105407500Y-134860000D02*
X108537500Y-134860000D01*
X116197500Y-142520000D02*
X118907350Y-142520000D01*
X108537500Y-134860000D02*
X116197500Y-142520000D01*
%TO.N,C5*%
X105407500Y-107940000D02*
X107947500Y-107940000D01*
X107947500Y-107940000D02*
X109907500Y-105980000D01*
X120407500Y-94230000D02*
X121447350Y-95269850D01*
X109907500Y-105980000D02*
X109907500Y-98480000D01*
X121447350Y-95269850D02*
X121447350Y-96800000D01*
X109907500Y-98480000D02*
X114157500Y-94230000D01*
X114157500Y-94230000D02*
X120407500Y-94230000D01*
%TO.N,SD_CS*%
X191907500Y-117980000D02*
X185147500Y-124740000D01*
X185147500Y-124740000D02*
X182407350Y-124740000D01*
X194007500Y-104630000D02*
X191907500Y-106730000D01*
X191907500Y-106730000D02*
X191907500Y-117980000D01*
X195397500Y-104630000D02*
X194007500Y-104630000D01*
%TO.N,LCD_D5*%
X187407500Y-94230000D02*
X187407500Y-112230000D01*
X195397500Y-90410000D02*
X191227500Y-90410000D01*
X187407500Y-112230000D02*
X185057500Y-114580000D01*
X191227500Y-90410000D02*
X187407500Y-94230000D01*
X185057500Y-114580000D02*
X182407350Y-114580000D01*
%TO.N,LCD_RST*%
X173907500Y-144230000D02*
X173907500Y-135730000D01*
X210637500Y-80250000D02*
X205407500Y-85480000D01*
X205407500Y-85480000D02*
X205407500Y-130730000D01*
X173907500Y-135730000D02*
X177277500Y-132360000D01*
X243657500Y-80250000D02*
X210637500Y-80250000D01*
X205407500Y-130730000D02*
X189157500Y-146980000D01*
X177277500Y-132360000D02*
X179867350Y-132360000D01*
X176657500Y-146980000D02*
X173907500Y-144230000D01*
X189157500Y-146980000D02*
X176657500Y-146980000D01*
%TO.N,LCD_D0*%
X203407500Y-103480000D02*
X203407500Y-129480000D01*
X195397500Y-99550000D02*
X199477500Y-99550000D01*
X177407500Y-145230000D02*
X175657500Y-143480000D01*
X175657500Y-143480000D02*
X175657500Y-139230000D01*
X187657500Y-145230000D02*
X177407500Y-145230000D01*
X203407500Y-129480000D02*
X187657500Y-145230000D01*
X175657500Y-139230000D02*
X177447500Y-137440000D01*
X177447500Y-137440000D02*
X179867350Y-137440000D01*
X199477500Y-99550000D02*
X203407500Y-103480000D01*
%TO.N,LCD_D2*%
X182407350Y-90230150D02*
X182407350Y-96800000D01*
X195397500Y-82790000D02*
X189847500Y-82790000D01*
X189847500Y-82790000D02*
X182407350Y-90230150D01*
%TO.N,LCD_WR*%
X175397500Y-148470000D02*
X171907500Y-144980000D01*
X207407500Y-132230000D02*
X191167500Y-148470000D01*
X209017500Y-87870000D02*
X207407500Y-89480000D01*
X207407500Y-89480000D02*
X207407500Y-132230000D01*
X171907500Y-144980000D02*
X171907500Y-123230000D01*
X191167500Y-148470000D02*
X175397500Y-148470000D01*
X175477500Y-119660000D02*
X179867350Y-119660000D01*
X171907500Y-123230000D02*
X175477500Y-119660000D01*
X243657500Y-87870000D02*
X209017500Y-87870000D01*
%TO.N,LCD_D3*%
X190307500Y-85330000D02*
X184657500Y-90980000D01*
X183922500Y-99340000D02*
X182407350Y-99340000D01*
X184657500Y-98605000D02*
X183922500Y-99340000D01*
X184657500Y-90980000D02*
X184657500Y-98605000D01*
X195397500Y-85330000D02*
X190307500Y-85330000D01*
%TO.N,LCD_D7*%
X184687500Y-122200000D02*
X182407350Y-122200000D01*
X192897500Y-95490000D02*
X190407500Y-97980000D01*
X195397500Y-95490000D02*
X192897500Y-95490000D01*
X190407500Y-97980000D02*
X190407500Y-116480000D01*
X190407500Y-116480000D02*
X184687500Y-122200000D01*
%TO.N,LCD_D4*%
X190767500Y-87870000D02*
X195397500Y-87870000D01*
X182407350Y-101880000D02*
X185007500Y-101880000D01*
X185907500Y-100980000D02*
X185907500Y-92730000D01*
X185007500Y-101880000D02*
X185907500Y-100980000D01*
X185907500Y-92730000D02*
X190767500Y-87870000D01*
%TO.N,LCD_D1*%
X200907500Y-128230000D02*
X191697500Y-137440000D01*
X195397500Y-102090000D02*
X198267500Y-102090000D01*
X200907500Y-104730000D02*
X200907500Y-128230000D01*
X198267500Y-102090000D02*
X200907500Y-104730000D01*
X191697500Y-137440000D02*
X182407350Y-137440000D01*
%TO.N,LCD_D6*%
X184767500Y-117120000D02*
X182407350Y-117120000D01*
X188907500Y-95480000D02*
X188907500Y-112980000D01*
X195397500Y-92950000D02*
X191437500Y-92950000D01*
X191437500Y-92950000D02*
X188907500Y-95480000D01*
X188907500Y-112980000D02*
X184767500Y-117120000D01*
%TO.N,LCD_RD*%
X209407500Y-134230000D02*
X193767500Y-149870000D01*
X173017500Y-117120000D02*
X179867350Y-117120000D01*
X211727500Y-90410000D02*
X209407500Y-92730000D01*
X193767500Y-149870000D02*
X173547500Y-149870000D01*
X243657500Y-90410000D02*
X211727500Y-90410000D01*
X165657500Y-124480000D02*
X173017500Y-117120000D01*
X173547500Y-149870000D02*
X165657500Y-141980000D01*
X165657500Y-141980000D02*
X165657500Y-124480000D01*
X209407500Y-92730000D02*
X209407500Y-134230000D01*
%TO.N,Net-(D1-A)*%
X81787500Y-67120000D02*
X85437500Y-67120000D01*
%TO.N,Emergency*%
X179867350Y-96800000D02*
X179867350Y-88520150D01*
X179867350Y-88520150D02*
X189767500Y-78620000D01*
%TO.N,theta_A*%
X108032500Y-64635000D02*
X155437500Y-112040000D01*
X108032500Y-53550000D02*
X108032500Y-64635000D01*
X155437500Y-112040000D02*
X179867350Y-112040000D01*
%TO.N,Net-(J5-Pin_2)*%
X232117500Y-55917500D02*
X232117500Y-63870000D01*
X229722500Y-53522500D02*
X232117500Y-55917500D01*
X227767500Y-63870000D02*
X223017500Y-68620000D01*
X220730000Y-53522500D02*
X229722500Y-53522500D01*
X210570000Y-53522500D02*
X220730000Y-53522500D01*
X232117500Y-63870000D02*
X227767500Y-63870000D01*
X223017500Y-68620000D02*
X219337500Y-68620000D01*
%TO.N,STM_RX*%
X170517500Y-97370000D02*
X172487500Y-99340000D01*
X170517500Y-91120000D02*
X170517500Y-97370000D01*
X243767500Y-71370000D02*
X240517500Y-74620000D01*
X241220000Y-56220000D02*
X243767500Y-58767500D01*
X239267500Y-56080000D02*
X239227500Y-56120000D01*
X187017500Y-74620000D02*
X170517500Y-91120000D01*
X172487500Y-99340000D02*
X179867350Y-99340000D01*
X239400000Y-56220000D02*
X241220000Y-56220000D01*
X240517500Y-74620000D02*
X187017500Y-74620000D01*
X243767500Y-58767500D02*
X243767500Y-71370000D01*
%TO.N,STM_TX*%
X168517500Y-98120000D02*
X168517500Y-89870000D01*
X232767500Y-72870000D02*
X236017500Y-69620000D01*
X236017500Y-69620000D02*
X236017500Y-60382500D01*
X179867350Y-101880000D02*
X172277500Y-101880000D01*
X237640000Y-58760000D02*
X239400000Y-58760000D01*
X236017500Y-60382500D02*
X237640000Y-58760000D01*
X185517500Y-72870000D02*
X232767500Y-72870000D01*
X168517500Y-89870000D02*
X185517500Y-72870000D01*
X172277500Y-101880000D02*
X168517500Y-98120000D01*
%TO.N,Net-(U2-ADJ)*%
X68142500Y-68870000D02*
X71467500Y-65545000D01*
X62977500Y-50320000D02*
X62977500Y-52330000D01*
X65767500Y-60620000D02*
X70267500Y-60620000D01*
X65017500Y-54370000D02*
X65017500Y-59870000D01*
X65017500Y-59870000D02*
X65767500Y-60620000D01*
X62977500Y-52330000D02*
X65017500Y-54370000D01*
X58767500Y-68870000D02*
X68142500Y-68870000D01*
X71467500Y-65545000D02*
X71467500Y-63370000D01*
X71467500Y-61820000D02*
X71467500Y-63370000D01*
X70267500Y-60620000D02*
X71467500Y-61820000D01*
%TO.N,Net-(D2-K)*%
X219417500Y-62020000D02*
X218767500Y-61370000D01*
X218767500Y-61370000D02*
X207017500Y-61370000D01*
X219417500Y-63870000D02*
X219417500Y-62020000D01*
X206107500Y-62280000D02*
X206107500Y-66370000D01*
X207017500Y-61370000D02*
X206107500Y-62280000D01*
X195517500Y-66370000D02*
X206107500Y-66370000D01*
%TD*%
%TA.AperFunction,Conductor*%
%TO.N,GND*%
G36*
X248219052Y-44634511D02*
G01*
X248512715Y-44787382D01*
X248522055Y-44792775D01*
X248858287Y-45006978D01*
X248880811Y-45021328D01*
X248889672Y-45027532D01*
X249227145Y-45286484D01*
X249235432Y-45293438D01*
X249549042Y-45580808D01*
X249556691Y-45588457D01*
X249844061Y-45902067D01*
X249851015Y-45910354D01*
X250109967Y-46247827D01*
X250116171Y-46256688D01*
X250344716Y-46615430D01*
X250350125Y-46624798D01*
X250502989Y-46918447D01*
X250517000Y-46975704D01*
X250517000Y-149264294D01*
X250502989Y-149321551D01*
X250350125Y-149615201D01*
X250344716Y-149624569D01*
X250116171Y-149983311D01*
X250109967Y-149992172D01*
X249851015Y-150329645D01*
X249844061Y-150337932D01*
X249556691Y-150651542D01*
X249549042Y-150659191D01*
X249235432Y-150946561D01*
X249227145Y-150953515D01*
X248889672Y-151212467D01*
X248880811Y-151218671D01*
X248522069Y-151447216D01*
X248512701Y-151452625D01*
X248219052Y-151605489D01*
X248161795Y-151619500D01*
X53873205Y-151619500D01*
X53815948Y-151605489D01*
X53728534Y-151559984D01*
X53522292Y-151452621D01*
X53512936Y-151447220D01*
X53333559Y-151332943D01*
X53154188Y-151218671D01*
X53145327Y-151212467D01*
X52807854Y-150953515D01*
X52799567Y-150946561D01*
X52485957Y-150659191D01*
X52478308Y-150651542D01*
X52190938Y-150337932D01*
X52183984Y-150329645D01*
X51925032Y-149992172D01*
X51918828Y-149983311D01*
X51879280Y-149921233D01*
X51690275Y-149624555D01*
X51684885Y-149615222D01*
X51550579Y-149357222D01*
X51532010Y-149321550D01*
X51518000Y-149264294D01*
X51518000Y-148755258D01*
X52767000Y-148755258D01*
X52767000Y-148984741D01*
X52791946Y-149174215D01*
X52796952Y-149212238D01*
X52826242Y-149321550D01*
X52856342Y-149433887D01*
X52944150Y-149645876D01*
X52944157Y-149645890D01*
X53058892Y-149844617D01*
X53198581Y-150026661D01*
X53198589Y-150026670D01*
X53360830Y-150188911D01*
X53360838Y-150188918D01*
X53542882Y-150328607D01*
X53542885Y-150328608D01*
X53542888Y-150328611D01*
X53741612Y-150443344D01*
X53741617Y-150443346D01*
X53741623Y-150443349D01*
X53832980Y-150481190D01*
X53953613Y-150531158D01*
X54175262Y-150590548D01*
X54402766Y-150620500D01*
X54402773Y-150620500D01*
X54632227Y-150620500D01*
X54632234Y-150620500D01*
X54859738Y-150590548D01*
X55081387Y-150531158D01*
X55293388Y-150443344D01*
X55492112Y-150328611D01*
X55674161Y-150188919D01*
X55674165Y-150188914D01*
X55674170Y-150188911D01*
X55836411Y-150026670D01*
X55836414Y-150026665D01*
X55836419Y-150026661D01*
X55976111Y-149844612D01*
X56090844Y-149645888D01*
X56178658Y-149433887D01*
X56238048Y-149212238D01*
X56268000Y-148984734D01*
X56268000Y-148755266D01*
X56238048Y-148527762D01*
X56178658Y-148306113D01*
X56090844Y-148094112D01*
X55976111Y-147895388D01*
X55976108Y-147895385D01*
X55976107Y-147895382D01*
X55836418Y-147713338D01*
X55836411Y-147713330D01*
X55674170Y-147551089D01*
X55674161Y-147551081D01*
X55492117Y-147411392D01*
X55293390Y-147296657D01*
X55293376Y-147296650D01*
X55081387Y-147208842D01*
X54859738Y-147149452D01*
X54821715Y-147144446D01*
X54632241Y-147119500D01*
X54632234Y-147119500D01*
X54402766Y-147119500D01*
X54402758Y-147119500D01*
X54186215Y-147148009D01*
X54175262Y-147149452D01*
X54144036Y-147157819D01*
X53953612Y-147208842D01*
X53741623Y-147296650D01*
X53741609Y-147296657D01*
X53542882Y-147411392D01*
X53360838Y-147551081D01*
X53198581Y-147713338D01*
X53058892Y-147895382D01*
X52944157Y-148094109D01*
X52944150Y-148094123D01*
X52856342Y-148306112D01*
X52796953Y-148527759D01*
X52796951Y-148527770D01*
X52767000Y-148755258D01*
X51518000Y-148755258D01*
X51518000Y-129661902D01*
X55647000Y-129661902D01*
X55647000Y-129898097D01*
X55683946Y-130131368D01*
X55756933Y-130355996D01*
X55855232Y-130548917D01*
X55864157Y-130566433D01*
X56002983Y-130757510D01*
X56169990Y-130924517D01*
X56204627Y-130949683D01*
X56247292Y-131005013D01*
X56253271Y-131074626D01*
X56220665Y-131136421D01*
X56204630Y-131150315D01*
X56186865Y-131163222D01*
X56169988Y-131175484D01*
X56002985Y-131342487D01*
X56002985Y-131342488D01*
X56002983Y-131342490D01*
X55955938Y-131407242D01*
X55864157Y-131533566D01*
X55756933Y-131744003D01*
X55683946Y-131968631D01*
X55647000Y-132201902D01*
X55647000Y-132438097D01*
X55683946Y-132671368D01*
X55756933Y-132895996D01*
X55855232Y-133088917D01*
X55864157Y-133106433D01*
X56002983Y-133297510D01*
X56169990Y-133464517D01*
X56204627Y-133489683D01*
X56247292Y-133545013D01*
X56253271Y-133614626D01*
X56220665Y-133676421D01*
X56204630Y-133690315D01*
X56186865Y-133703222D01*
X56169988Y-133715484D01*
X56002985Y-133882487D01*
X56002985Y-133882488D01*
X56002983Y-133882490D01*
X55955938Y-133947242D01*
X55864157Y-134073566D01*
X55756933Y-134284003D01*
X55683946Y-134508631D01*
X55647000Y-134741902D01*
X55647000Y-134978097D01*
X55683946Y-135211368D01*
X55756933Y-135435996D01*
X55855232Y-135628917D01*
X55864157Y-135646433D01*
X56002983Y-135837510D01*
X56169990Y-136004517D01*
X56204627Y-136029683D01*
X56247292Y-136085013D01*
X56253271Y-136154626D01*
X56220665Y-136216421D01*
X56204630Y-136230315D01*
X56195149Y-136237204D01*
X56169988Y-136255484D01*
X56002985Y-136422487D01*
X56002985Y-136422488D01*
X56002983Y-136422490D01*
X55955938Y-136487242D01*
X55864157Y-136613566D01*
X55756933Y-136824003D01*
X55683946Y-137048631D01*
X55647000Y-137281902D01*
X55647000Y-137518097D01*
X55683946Y-137751368D01*
X55756933Y-137975996D01*
X55819152Y-138098106D01*
X55864157Y-138186433D01*
X56002983Y-138377510D01*
X56169990Y-138544517D01*
X56204627Y-138569683D01*
X56247292Y-138625013D01*
X56253271Y-138694626D01*
X56220665Y-138756421D01*
X56204630Y-138770315D01*
X56186865Y-138783222D01*
X56169988Y-138795484D01*
X56002985Y-138962487D01*
X56002985Y-138962488D01*
X56002983Y-138962490D01*
X55955938Y-139027242D01*
X55864157Y-139153566D01*
X55756933Y-139364003D01*
X55683946Y-139588631D01*
X55647000Y-139821902D01*
X55647000Y-140058097D01*
X55683946Y-140291368D01*
X55756933Y-140515996D01*
X55855232Y-140708917D01*
X55864157Y-140726433D01*
X56002983Y-140917510D01*
X56169990Y-141084517D01*
X56204627Y-141109683D01*
X56247292Y-141165013D01*
X56253271Y-141234626D01*
X56220665Y-141296421D01*
X56204630Y-141310315D01*
X56186865Y-141323222D01*
X56169988Y-141335484D01*
X56002985Y-141502487D01*
X56002985Y-141502488D01*
X56002983Y-141502490D01*
X55960853Y-141560477D01*
X55864157Y-141693566D01*
X55756933Y-141904003D01*
X55683946Y-142128631D01*
X55647000Y-142361902D01*
X55647000Y-142598097D01*
X55683946Y-142831368D01*
X55756933Y-143055996D01*
X55835148Y-143209500D01*
X55864157Y-143266433D01*
X56002983Y-143457510D01*
X56169990Y-143624517D01*
X56361067Y-143763343D01*
X56375783Y-143770841D01*
X56571503Y-143870566D01*
X56571505Y-143870566D01*
X56571508Y-143870568D01*
X56623832Y-143887569D01*
X56796131Y-143943553D01*
X57029403Y-143980500D01*
X57029408Y-143980500D01*
X57265597Y-143980500D01*
X57498868Y-143943553D01*
X57549794Y-143927006D01*
X57723492Y-143870568D01*
X57933933Y-143763343D01*
X58125010Y-143624517D01*
X58292017Y-143457510D01*
X58430843Y-143266433D01*
X58538068Y-143055992D01*
X58611053Y-142831368D01*
X58632346Y-142696928D01*
X58648000Y-142598097D01*
X58648000Y-142361902D01*
X58611053Y-142128631D01*
X58538066Y-141904003D01*
X58430842Y-141693566D01*
X58292017Y-141502490D01*
X58125010Y-141335483D01*
X58090372Y-141310317D01*
X58047707Y-141254989D01*
X58041728Y-141185375D01*
X58074333Y-141123580D01*
X58090373Y-141109682D01*
X58125010Y-141084517D01*
X58292017Y-140917510D01*
X58430843Y-140726433D01*
X58538068Y-140515992D01*
X58611053Y-140291368D01*
X58648000Y-140058097D01*
X58648000Y-139821902D01*
X58611053Y-139588631D01*
X58538066Y-139364003D01*
X58430842Y-139153566D01*
X58292017Y-138962490D01*
X58125010Y-138795483D01*
X58090372Y-138770317D01*
X58047707Y-138714989D01*
X58041728Y-138645375D01*
X58074333Y-138583580D01*
X58090373Y-138569682D01*
X58097942Y-138564183D01*
X58125010Y-138544517D01*
X58292017Y-138377510D01*
X58430843Y-138186433D01*
X58538068Y-137975992D01*
X58611053Y-137751368D01*
X58635697Y-137595773D01*
X58648000Y-137518097D01*
X58648000Y-137281902D01*
X58611053Y-137048631D01*
X58538066Y-136824003D01*
X58430842Y-136613566D01*
X58292017Y-136422490D01*
X58125010Y-136255483D01*
X58090372Y-136230317D01*
X58074810Y-136210136D01*
X58056254Y-136192660D01*
X58053829Y-136182928D01*
X58047707Y-136174989D01*
X58045526Y-136149597D01*
X58039364Y-136124862D01*
X58042585Y-136115364D01*
X58041728Y-136105375D01*
X58053621Y-136082833D01*
X58061810Y-136058696D01*
X58071609Y-136048741D01*
X58074333Y-136043580D01*
X58086008Y-136033003D01*
X58088144Y-136031301D01*
X58125010Y-136004517D01*
X58137662Y-135991864D01*
X58143139Y-135987503D01*
X58169270Y-135976854D01*
X58194031Y-135963334D01*
X58205466Y-135962104D01*
X58207843Y-135961136D01*
X58210268Y-135961588D01*
X58220389Y-135960500D01*
X64780296Y-135960500D01*
X64847335Y-135980185D01*
X64867977Y-135996819D01*
X78568086Y-149696928D01*
X78690572Y-149819414D01*
X78725261Y-149844617D01*
X78830707Y-149921229D01*
X78830709Y-149921230D01*
X78830712Y-149921232D01*
X78900148Y-149956611D01*
X78985050Y-149999871D01*
X78985052Y-149999871D01*
X78985055Y-149999873D01*
X79149800Y-150053403D01*
X79293792Y-150076208D01*
X79320889Y-150080500D01*
X124744110Y-150080500D01*
X124744111Y-150080500D01*
X124915201Y-150053402D01*
X125079945Y-149999873D01*
X125234288Y-149921232D01*
X125374428Y-149819414D01*
X129496914Y-145696928D01*
X129598732Y-145556788D01*
X129677373Y-145402446D01*
X129730902Y-145237701D01*
X129758000Y-145066611D01*
X129758000Y-144938712D01*
X157696850Y-144938712D01*
X157696850Y-145181288D01*
X157728512Y-145421789D01*
X157759904Y-145538944D01*
X157791297Y-145656104D01*
X157808208Y-145696930D01*
X157884126Y-145880212D01*
X158005414Y-146090289D01*
X158005416Y-146090292D01*
X158005417Y-146090293D01*
X158153083Y-146282736D01*
X158153089Y-146282743D01*
X158324606Y-146454260D01*
X158324612Y-146454265D01*
X158517061Y-146601936D01*
X158727138Y-146723224D01*
X158951250Y-146816054D01*
X159185561Y-146878838D01*
X159365936Y-146902584D01*
X159426061Y-146910500D01*
X159426062Y-146910500D01*
X159668639Y-146910500D01*
X159716738Y-146904167D01*
X159909139Y-146878838D01*
X160143450Y-146816054D01*
X160367562Y-146723224D01*
X160577639Y-146601936D01*
X160770088Y-146454265D01*
X160941615Y-146282738D01*
X161089286Y-146090289D01*
X161210574Y-145880212D01*
X161303404Y-145656100D01*
X161366188Y-145421789D01*
X161397850Y-145181288D01*
X161397850Y-144938712D01*
X161366188Y-144698211D01*
X161303404Y-144463900D01*
X161210574Y-144239788D01*
X161089286Y-144029711D01*
X160970843Y-143875353D01*
X160941616Y-143837263D01*
X160941610Y-143837256D01*
X160770093Y-143665739D01*
X160770086Y-143665733D01*
X160577643Y-143518067D01*
X160577642Y-143518066D01*
X160577639Y-143518064D01*
X160367562Y-143396776D01*
X160367555Y-143396773D01*
X160143454Y-143303947D01*
X159909135Y-143241161D01*
X159668639Y-143209500D01*
X159668638Y-143209500D01*
X159426062Y-143209500D01*
X159426061Y-143209500D01*
X159185564Y-143241161D01*
X158951245Y-143303947D01*
X158727144Y-143396773D01*
X158727135Y-143396777D01*
X158517056Y-143518067D01*
X158324613Y-143665733D01*
X158324606Y-143665739D01*
X158153089Y-143837256D01*
X158153083Y-143837263D01*
X158005417Y-144029706D01*
X157884127Y-144239785D01*
X157884123Y-144239794D01*
X157791297Y-144463895D01*
X157728511Y-144698214D01*
X157702817Y-144893389D01*
X157696850Y-144938712D01*
X129758000Y-144938712D01*
X129758000Y-144893389D01*
X129758000Y-133143389D01*
X129730902Y-132972299D01*
X129719364Y-132936788D01*
X129677373Y-132807554D01*
X129677371Y-132807551D01*
X129677371Y-132807549D01*
X129623830Y-132702470D01*
X129598732Y-132653212D01*
X129496914Y-132513072D01*
X125964428Y-128980586D01*
X125824288Y-128878768D01*
X125669945Y-128800127D01*
X125505201Y-128746598D01*
X125505199Y-128746597D01*
X125505198Y-128746597D01*
X125373771Y-128725781D01*
X125334111Y-128719500D01*
X125334110Y-128719500D01*
X122461084Y-128719500D01*
X122440664Y-128713504D01*
X122419414Y-128712289D01*
X122397941Y-128700959D01*
X122394045Y-128699815D01*
X122388220Y-128695833D01*
X122325571Y-128650316D01*
X122282908Y-128594988D01*
X122276929Y-128525374D01*
X122309535Y-128463579D01*
X122325574Y-128449682D01*
X122361500Y-128423580D01*
X122400105Y-128395532D01*
X122562882Y-128232755D01*
X122698192Y-128046517D01*
X122802702Y-127841405D01*
X122873838Y-127622469D01*
X122909850Y-127395101D01*
X122909850Y-127164899D01*
X122873838Y-126937531D01*
X122802702Y-126718595D01*
X122802702Y-126718594D01*
X122749450Y-126614084D01*
X122698192Y-126513483D01*
X122562882Y-126327245D01*
X122400105Y-126164468D01*
X122325573Y-126110317D01*
X122282908Y-126054988D01*
X122276929Y-125985375D01*
X122309535Y-125923580D01*
X122325574Y-125909682D01*
X122361500Y-125883580D01*
X122400105Y-125855532D01*
X122562882Y-125692755D01*
X122698192Y-125506517D01*
X122802702Y-125301405D01*
X122873838Y-125082469D01*
X122909850Y-124855101D01*
X122909850Y-124624899D01*
X122873838Y-124397531D01*
X122802702Y-124178595D01*
X122802702Y-124178594D01*
X122741027Y-124057552D01*
X122698192Y-123973483D01*
X122562882Y-123787245D01*
X122400105Y-123624468D01*
X122213867Y-123489158D01*
X122203601Y-123483927D01*
X122008755Y-123384647D01*
X122008752Y-123384646D01*
X121789820Y-123313512D01*
X121676135Y-123295506D01*
X121562451Y-123277500D01*
X121332249Y-123277500D01*
X121256459Y-123289504D01*
X121104879Y-123313512D01*
X120885947Y-123384646D01*
X120885944Y-123384647D01*
X120680832Y-123489158D01*
X120574577Y-123566357D01*
X120494595Y-123624468D01*
X120494593Y-123624470D01*
X120494592Y-123624470D01*
X120331819Y-123787243D01*
X120277668Y-123861776D01*
X120222337Y-123904441D01*
X120152724Y-123910420D01*
X120090929Y-123877814D01*
X120077032Y-123861776D01*
X120022882Y-123787245D01*
X119860105Y-123624468D01*
X119785573Y-123570317D01*
X119742908Y-123514988D01*
X119736929Y-123445375D01*
X119769535Y-123383580D01*
X119785574Y-123369682D01*
X119812402Y-123350190D01*
X119860105Y-123315532D01*
X120022882Y-123152755D01*
X120158192Y-122966517D01*
X120262702Y-122761405D01*
X120333838Y-122542469D01*
X120369850Y-122315101D01*
X120369850Y-122084899D01*
X120333838Y-121857531D01*
X120262702Y-121638595D01*
X120262702Y-121638594D01*
X120209450Y-121534084D01*
X120158192Y-121433483D01*
X120022882Y-121247245D01*
X119860105Y-121084468D01*
X119673867Y-120949158D01*
X119468755Y-120844647D01*
X119468752Y-120844646D01*
X119249820Y-120773512D01*
X119136135Y-120755506D01*
X119022451Y-120737500D01*
X118792249Y-120737500D01*
X118716459Y-120749504D01*
X118564879Y-120773512D01*
X118345947Y-120844646D01*
X118345944Y-120844647D01*
X118140832Y-120949158D01*
X118105281Y-120974988D01*
X117966499Y-121075818D01*
X117900696Y-121099298D01*
X117893616Y-121099500D01*
X114884704Y-121099500D01*
X114817665Y-121079815D01*
X114797023Y-121063181D01*
X113534430Y-119800588D01*
X113534428Y-119800586D01*
X113394288Y-119698768D01*
X113239945Y-119620127D01*
X113075201Y-119566598D01*
X113075199Y-119566597D01*
X113075198Y-119566597D01*
X112938199Y-119544899D01*
X112904111Y-119539500D01*
X112904110Y-119539500D01*
X106480389Y-119539500D01*
X106457416Y-119532754D01*
X106433595Y-119530332D01*
X106421251Y-119522135D01*
X106413350Y-119519815D01*
X106403139Y-119512497D01*
X106397662Y-119508135D01*
X106385010Y-119495483D01*
X106348144Y-119468698D01*
X106346008Y-119466997D01*
X106327434Y-119440571D01*
X106307707Y-119414989D01*
X106307463Y-119412158D01*
X106305831Y-119409835D01*
X106304492Y-119377565D01*
X106301728Y-119345375D01*
X106303053Y-119342862D01*
X106302936Y-119340025D01*
X106319255Y-119312155D01*
X106334333Y-119283580D01*
X106337694Y-119280667D01*
X106338242Y-119279732D01*
X106339527Y-119279079D01*
X106350373Y-119269682D01*
X106385010Y-119244517D01*
X106392708Y-119236819D01*
X106454031Y-119203334D01*
X106480389Y-119200500D01*
X113374110Y-119200500D01*
X113374111Y-119200500D01*
X113545201Y-119173402D01*
X113709945Y-119119873D01*
X113864288Y-119041232D01*
X114004428Y-118939414D01*
X114687023Y-118256819D01*
X114748346Y-118223334D01*
X114774704Y-118220500D01*
X117893616Y-118220500D01*
X117960655Y-118240185D01*
X117966479Y-118244166D01*
X118140833Y-118370842D01*
X118216032Y-118409158D01*
X118345944Y-118475352D01*
X118345947Y-118475353D01*
X118455413Y-118510920D01*
X118564881Y-118546488D01*
X118792249Y-118582500D01*
X118792250Y-118582500D01*
X119022450Y-118582500D01*
X119022451Y-118582500D01*
X119249819Y-118546488D01*
X119468755Y-118475352D01*
X119673867Y-118370842D01*
X119860105Y-118235532D01*
X120022882Y-118072755D01*
X120077032Y-117998223D01*
X120132362Y-117955558D01*
X120201975Y-117949579D01*
X120263770Y-117982185D01*
X120277668Y-117998224D01*
X120320742Y-118057511D01*
X120331818Y-118072755D01*
X120494595Y-118235532D01*
X120680833Y-118370842D01*
X120756032Y-118409158D01*
X120885944Y-118475352D01*
X120885947Y-118475353D01*
X120995413Y-118510920D01*
X121104881Y-118546488D01*
X121332249Y-118582500D01*
X121332250Y-118582500D01*
X121562450Y-118582500D01*
X121562451Y-118582500D01*
X121789819Y-118546488D01*
X122008755Y-118475352D01*
X122213867Y-118370842D01*
X122400105Y-118235532D01*
X122562882Y-118072755D01*
X122698192Y-117886517D01*
X122802702Y-117681405D01*
X122873838Y-117462469D01*
X122909850Y-117235101D01*
X122909850Y-117004899D01*
X122873838Y-116777531D01*
X122802702Y-116558595D01*
X122802702Y-116558594D01*
X122721595Y-116399414D01*
X122698192Y-116353483D01*
X122562882Y-116167245D01*
X122400105Y-116004468D01*
X122356454Y-115972754D01*
X122325574Y-115950318D01*
X122282908Y-115894988D01*
X122276929Y-115825375D01*
X122309535Y-115763580D01*
X122325574Y-115749682D01*
X122361500Y-115723580D01*
X122400105Y-115695532D01*
X122562882Y-115532755D01*
X122698192Y-115346517D01*
X122802702Y-115141405D01*
X122873838Y-114922469D01*
X122909850Y-114695101D01*
X122909850Y-114464899D01*
X122873838Y-114237531D01*
X122802702Y-114018595D01*
X122802702Y-114018594D01*
X122721595Y-113859414D01*
X122698192Y-113813483D01*
X122562882Y-113627245D01*
X122400105Y-113464468D01*
X122325573Y-113410317D01*
X122282908Y-113354988D01*
X122276929Y-113285375D01*
X122309535Y-113223580D01*
X122325574Y-113209682D01*
X122400105Y-113155532D01*
X122562882Y-112992755D01*
X122698192Y-112806517D01*
X122802702Y-112601405D01*
X122873838Y-112382469D01*
X122909850Y-112155101D01*
X122909850Y-111924899D01*
X122873838Y-111697531D01*
X122802702Y-111478595D01*
X122802702Y-111478594D01*
X122720167Y-111316611D01*
X122698192Y-111273483D01*
X122562882Y-111087245D01*
X122400105Y-110924468D01*
X122325573Y-110870317D01*
X122282908Y-110814988D01*
X122276929Y-110745375D01*
X122309535Y-110683580D01*
X122325574Y-110669682D01*
X122361500Y-110643580D01*
X122400105Y-110615532D01*
X122562882Y-110452755D01*
X122698192Y-110266517D01*
X122802702Y-110061405D01*
X122873838Y-109842469D01*
X122909850Y-109615101D01*
X122909850Y-109384899D01*
X122873838Y-109157531D01*
X122802702Y-108938595D01*
X122802702Y-108938594D01*
X122721595Y-108779414D01*
X122698192Y-108733483D01*
X122562882Y-108547245D01*
X122400105Y-108384468D01*
X122325573Y-108330317D01*
X122282908Y-108274988D01*
X122276929Y-108205375D01*
X122309535Y-108143580D01*
X122325574Y-108129682D01*
X122400105Y-108075532D01*
X122562882Y-107912755D01*
X122698192Y-107726517D01*
X122802702Y-107521405D01*
X122873838Y-107302469D01*
X122909850Y-107075101D01*
X122909850Y-106844899D01*
X122873838Y-106617531D01*
X122802702Y-106398595D01*
X122802702Y-106398594D01*
X122720722Y-106237701D01*
X122698192Y-106193483D01*
X122562882Y-106007245D01*
X122400105Y-105844468D01*
X122213867Y-105709158D01*
X122008755Y-105604647D01*
X122008752Y-105604646D01*
X121789820Y-105533512D01*
X121676135Y-105515506D01*
X121562451Y-105497500D01*
X121332249Y-105497500D01*
X121256459Y-105509504D01*
X121104879Y-105533512D01*
X120885947Y-105604646D01*
X120885944Y-105604647D01*
X120680832Y-105709158D01*
X120574577Y-105786357D01*
X120494595Y-105844468D01*
X120494593Y-105844470D01*
X120494592Y-105844470D01*
X120331819Y-106007243D01*
X120277668Y-106081776D01*
X120222337Y-106124441D01*
X120152724Y-106130420D01*
X120090929Y-106097814D01*
X120077032Y-106081776D01*
X120036134Y-106025485D01*
X120022882Y-106007245D01*
X119860105Y-105844468D01*
X119840732Y-105830393D01*
X119785574Y-105790318D01*
X119742908Y-105734988D01*
X119736929Y-105665375D01*
X119769535Y-105603580D01*
X119785574Y-105589682D01*
X119808317Y-105573158D01*
X119860105Y-105535532D01*
X120022882Y-105372755D01*
X120158192Y-105186517D01*
X120262702Y-104981405D01*
X120333838Y-104762469D01*
X120369850Y-104535101D01*
X120369850Y-104304899D01*
X120333838Y-104077531D01*
X120274996Y-103896433D01*
X120262703Y-103858597D01*
X120262702Y-103858594D01*
X120209450Y-103754084D01*
X120158192Y-103653483D01*
X120022882Y-103467245D01*
X119860105Y-103304468D01*
X119785573Y-103250317D01*
X119742908Y-103194988D01*
X119736929Y-103125375D01*
X119769535Y-103063580D01*
X119785574Y-103049682D01*
X119860105Y-102995532D01*
X120022882Y-102832755D01*
X120077032Y-102758223D01*
X120132362Y-102715558D01*
X120201975Y-102709579D01*
X120263770Y-102742185D01*
X120277667Y-102758223D01*
X120331818Y-102832755D01*
X120494595Y-102995532D01*
X120680833Y-103130842D01*
X120756032Y-103169158D01*
X120885944Y-103235352D01*
X120885947Y-103235353D01*
X120971047Y-103263003D01*
X121104881Y-103306488D01*
X121332249Y-103342500D01*
X121332250Y-103342500D01*
X121562450Y-103342500D01*
X121562451Y-103342500D01*
X121789819Y-103306488D01*
X122008755Y-103235352D01*
X122213867Y-103130842D01*
X122388200Y-103004181D01*
X122454004Y-102980702D01*
X122461084Y-102980500D01*
X123344110Y-102980500D01*
X123344111Y-102980500D01*
X123515201Y-102953402D01*
X123679945Y-102899873D01*
X123834288Y-102821232D01*
X123974428Y-102719414D01*
X125106914Y-101586928D01*
X125137367Y-101545013D01*
X125155178Y-101520500D01*
X125184595Y-101480008D01*
X125208732Y-101446788D01*
X125287373Y-101292445D01*
X125340902Y-101127701D01*
X125368000Y-100956611D01*
X125368000Y-95559120D01*
X125363000Y-95527551D01*
X125340903Y-95388030D01*
X125287373Y-95223286D01*
X125287371Y-95223283D01*
X125287371Y-95223281D01*
X125272374Y-95193848D01*
X125244240Y-95138632D01*
X125208732Y-95068943D01*
X125120083Y-94946928D01*
X125106915Y-94928803D01*
X125106913Y-94928800D01*
X125106912Y-94928799D01*
X123130446Y-92952334D01*
X123046824Y-92868712D01*
X124676850Y-92868712D01*
X124676850Y-93111288D01*
X124708512Y-93351789D01*
X124718908Y-93390586D01*
X124771297Y-93586104D01*
X124833566Y-93736433D01*
X124864126Y-93810212D01*
X124985414Y-94020289D01*
X124985416Y-94020292D01*
X124985417Y-94020293D01*
X125133083Y-94212736D01*
X125133089Y-94212743D01*
X125304606Y-94384260D01*
X125304612Y-94384265D01*
X125497061Y-94531936D01*
X125707138Y-94653224D01*
X125931250Y-94746054D01*
X126165561Y-94808838D01*
X126345936Y-94832584D01*
X126406061Y-94840500D01*
X126406062Y-94840500D01*
X126648639Y-94840500D01*
X126696738Y-94834167D01*
X126889139Y-94808838D01*
X127123450Y-94746054D01*
X127347562Y-94653224D01*
X127557639Y-94531936D01*
X127750088Y-94384265D01*
X127921615Y-94212738D01*
X128069286Y-94020289D01*
X128190574Y-93810212D01*
X128283404Y-93586100D01*
X128346188Y-93351789D01*
X128377850Y-93111288D01*
X128377850Y-92868712D01*
X128346188Y-92628211D01*
X128283404Y-92393900D01*
X128275164Y-92374008D01*
X128190576Y-92169794D01*
X128190574Y-92169788D01*
X128069286Y-91959711D01*
X127969614Y-91829815D01*
X127921616Y-91767263D01*
X127921610Y-91767256D01*
X127750093Y-91595739D01*
X127750086Y-91595733D01*
X127557643Y-91448067D01*
X127557642Y-91448066D01*
X127557639Y-91448064D01*
X127347562Y-91326776D01*
X127347555Y-91326773D01*
X127123454Y-91233947D01*
X126889135Y-91171161D01*
X126648639Y-91139500D01*
X126648638Y-91139500D01*
X126406062Y-91139500D01*
X126406061Y-91139500D01*
X126165564Y-91171161D01*
X125931245Y-91233947D01*
X125707144Y-91326773D01*
X125707135Y-91326777D01*
X125497056Y-91448067D01*
X125304613Y-91595733D01*
X125304606Y-91595739D01*
X125133089Y-91767256D01*
X125133083Y-91767263D01*
X124985417Y-91959706D01*
X124864127Y-92169785D01*
X124864123Y-92169794D01*
X124771297Y-92393895D01*
X124708511Y-92628214D01*
X124696682Y-92718067D01*
X124676850Y-92868712D01*
X123046824Y-92868712D01*
X121458699Y-91280588D01*
X121458697Y-91280586D01*
X121318557Y-91178768D01*
X121164214Y-91100127D01*
X120999470Y-91046598D01*
X120999468Y-91046597D01*
X120999467Y-91046597D01*
X120868040Y-91025781D01*
X120828380Y-91019500D01*
X120828379Y-91019500D01*
X103024704Y-91019500D01*
X102957665Y-90999815D01*
X102937023Y-90983181D01*
X99274319Y-87320477D01*
X99240834Y-87259154D01*
X99238000Y-87232796D01*
X99238000Y-68192889D01*
X99257685Y-68125850D01*
X99274319Y-68105208D01*
X99282017Y-68097510D01*
X99420843Y-67906433D01*
X99528068Y-67695992D01*
X99601053Y-67471368D01*
X99601190Y-67470500D01*
X99638000Y-67238097D01*
X99638000Y-67001902D01*
X99601053Y-66768631D01*
X99528066Y-66544003D01*
X99420842Y-66333566D01*
X99382760Y-66281151D01*
X99282017Y-66142490D01*
X99115010Y-65975483D01*
X98923933Y-65836657D01*
X98857283Y-65802697D01*
X98713496Y-65729433D01*
X98488868Y-65656446D01*
X98255597Y-65619500D01*
X98255592Y-65619500D01*
X98019408Y-65619500D01*
X98019403Y-65619500D01*
X97786131Y-65656446D01*
X97561503Y-65729433D01*
X97351066Y-65836657D01*
X97242050Y-65915862D01*
X97159990Y-65975483D01*
X97159988Y-65975485D01*
X97159987Y-65975485D01*
X96992985Y-66142487D01*
X96992985Y-66142488D01*
X96992983Y-66142490D01*
X96933797Y-66223952D01*
X96854157Y-66333566D01*
X96746933Y-66544003D01*
X96673946Y-66768631D01*
X96637000Y-67001902D01*
X96637000Y-67238097D01*
X96673946Y-67471368D01*
X96746933Y-67695996D01*
X96848623Y-67895572D01*
X96854157Y-67906433D01*
X96992983Y-68097510D01*
X96992985Y-68097512D01*
X97000681Y-68105208D01*
X97034166Y-68166531D01*
X97037000Y-68192889D01*
X97037000Y-87826610D01*
X97064097Y-87997697D01*
X97117628Y-88162447D01*
X97168581Y-88262449D01*
X97196268Y-88316788D01*
X97298086Y-88456928D01*
X101800572Y-92959414D01*
X101940712Y-93061232D01*
X102013631Y-93098386D01*
X102095049Y-93139871D01*
X102095051Y-93139871D01*
X102095054Y-93139873D01*
X102259799Y-93193402D01*
X102430889Y-93220500D01*
X102604110Y-93220500D01*
X113311296Y-93220500D01*
X113378335Y-93240185D01*
X113424090Y-93292989D01*
X113434034Y-93362147D01*
X113405009Y-93425703D01*
X113398977Y-93432181D01*
X109068088Y-97763069D01*
X109068088Y-97763070D01*
X109068086Y-97763072D01*
X109024359Y-97823256D01*
X108966268Y-97903211D01*
X108887628Y-98057552D01*
X108834097Y-98222302D01*
X108807000Y-98393389D01*
X108807000Y-105472796D01*
X108787315Y-105539835D01*
X108770681Y-105560477D01*
X107527977Y-106803181D01*
X107466654Y-106836666D01*
X107440296Y-106839500D01*
X106480389Y-106839500D01*
X106457416Y-106832754D01*
X106433595Y-106830332D01*
X106421251Y-106822135D01*
X106413350Y-106819815D01*
X106403139Y-106812497D01*
X106397662Y-106808135D01*
X106385010Y-106795483D01*
X106348144Y-106768698D01*
X106346008Y-106766997D01*
X106327434Y-106740571D01*
X106307707Y-106714989D01*
X106307463Y-106712158D01*
X106305831Y-106709835D01*
X106304492Y-106677565D01*
X106301728Y-106645375D01*
X106303053Y-106642862D01*
X106302936Y-106640025D01*
X106319255Y-106612155D01*
X106334333Y-106583580D01*
X106337694Y-106580667D01*
X106338242Y-106579732D01*
X106339527Y-106579079D01*
X106350373Y-106569682D01*
X106385010Y-106544517D01*
X106552017Y-106377510D01*
X106690843Y-106186433D01*
X106798068Y-105975992D01*
X106871053Y-105751368D01*
X106887898Y-105645013D01*
X106908000Y-105518097D01*
X106908000Y-105281902D01*
X106871053Y-105048631D01*
X106837189Y-104944412D01*
X106798068Y-104824008D01*
X106798066Y-104824005D01*
X106798066Y-104824003D01*
X106690842Y-104613566D01*
X106552017Y-104422490D01*
X106385010Y-104255483D01*
X106383680Y-104254517D01*
X106377359Y-104249924D01*
X106350372Y-104230317D01*
X106307707Y-104174989D01*
X106301728Y-104105375D01*
X106334333Y-104043580D01*
X106350373Y-104029682D01*
X106385010Y-104004517D01*
X106552017Y-103837510D01*
X106690843Y-103646433D01*
X106798068Y-103435992D01*
X106871053Y-103211368D01*
X106871240Y-103210185D01*
X106908000Y-102978097D01*
X106908000Y-102741902D01*
X106871053Y-102508631D01*
X106819030Y-102348523D01*
X106798068Y-102284008D01*
X106798066Y-102284005D01*
X106798066Y-102284003D01*
X106720864Y-102132487D01*
X106690843Y-102073567D01*
X106552017Y-101882490D01*
X106385010Y-101715483D01*
X106383680Y-101714517D01*
X106350373Y-101690318D01*
X106307707Y-101634989D01*
X106301728Y-101565375D01*
X106334333Y-101503580D01*
X106350373Y-101489682D01*
X106385010Y-101464517D01*
X106552017Y-101297510D01*
X106690843Y-101106433D01*
X106798068Y-100895992D01*
X106871053Y-100671368D01*
X106876872Y-100634626D01*
X106908000Y-100438097D01*
X106908000Y-100201902D01*
X106871053Y-99968631D01*
X106837189Y-99864412D01*
X106798068Y-99744008D01*
X106798066Y-99744005D01*
X106798066Y-99744003D01*
X106690842Y-99533566D01*
X106552017Y-99342490D01*
X106385010Y-99175483D01*
X106350372Y-99150317D01*
X106307707Y-99094989D01*
X106301728Y-99025375D01*
X106334333Y-98963580D01*
X106350373Y-98949682D01*
X106385010Y-98924517D01*
X106552017Y-98757510D01*
X106690843Y-98566433D01*
X106798068Y-98355992D01*
X106871053Y-98131368D01*
X106877741Y-98089142D01*
X106908000Y-97898097D01*
X106908000Y-97661902D01*
X106871053Y-97428631D01*
X106798066Y-97204003D01*
X106690842Y-96993566D01*
X106552017Y-96802490D01*
X106385010Y-96635483D01*
X106193933Y-96496657D01*
X106136729Y-96467510D01*
X105983496Y-96389433D01*
X105758868Y-96316446D01*
X105525597Y-96279500D01*
X105525592Y-96279500D01*
X105289408Y-96279500D01*
X105289403Y-96279500D01*
X105056131Y-96316446D01*
X104831503Y-96389433D01*
X104621066Y-96496657D01*
X104583713Y-96523796D01*
X104429990Y-96635483D01*
X104429988Y-96635485D01*
X104429987Y-96635485D01*
X104262985Y-96802487D01*
X104262985Y-96802488D01*
X104262983Y-96802490D01*
X104247967Y-96823158D01*
X104124157Y-96993566D01*
X104016933Y-97204003D01*
X103943946Y-97428631D01*
X103907000Y-97661902D01*
X103907000Y-97898097D01*
X103943946Y-98131368D01*
X104016933Y-98355996D01*
X104124157Y-98566433D01*
X104262983Y-98757510D01*
X104429990Y-98924517D01*
X104464627Y-98949683D01*
X104507292Y-99005013D01*
X104513271Y-99074626D01*
X104480665Y-99136421D01*
X104464630Y-99150315D01*
X104446865Y-99163222D01*
X104429988Y-99175484D01*
X104262985Y-99342487D01*
X104262985Y-99342488D01*
X104262983Y-99342490D01*
X104203362Y-99424550D01*
X104124157Y-99533566D01*
X104016933Y-99744003D01*
X103943946Y-99968631D01*
X103907000Y-100201902D01*
X103907000Y-100438097D01*
X103943946Y-100671368D01*
X104016933Y-100895996D01*
X104095617Y-101050420D01*
X104124157Y-101106433D01*
X104262983Y-101297510D01*
X104429990Y-101464517D01*
X104464627Y-101489683D01*
X104507292Y-101545013D01*
X104513271Y-101614626D01*
X104480665Y-101676421D01*
X104464630Y-101690315D01*
X104446865Y-101703222D01*
X104429988Y-101715484D01*
X104262985Y-101882487D01*
X104262985Y-101882488D01*
X104262983Y-101882490D01*
X104209131Y-101956611D01*
X104124157Y-102073566D01*
X104016933Y-102284003D01*
X103943946Y-102508631D01*
X103907000Y-102741902D01*
X103907000Y-102978097D01*
X103943946Y-103211368D01*
X104016933Y-103435996D01*
X104095617Y-103590420D01*
X104124157Y-103646433D01*
X104262983Y-103837510D01*
X104429990Y-104004517D01*
X104464627Y-104029683D01*
X104507292Y-104085013D01*
X104513271Y-104154626D01*
X104480665Y-104216421D01*
X104464630Y-104230315D01*
X104454737Y-104237503D01*
X104429988Y-104255484D01*
X104262985Y-104422487D01*
X104262985Y-104422488D01*
X104262983Y-104422490D01*
X104206259Y-104500564D01*
X104124157Y-104613566D01*
X104016933Y-104824003D01*
X103943946Y-105048631D01*
X103907000Y-105281902D01*
X103907000Y-105518097D01*
X103943946Y-105751368D01*
X104016933Y-105975996D01*
X104095617Y-106130420D01*
X104124157Y-106186433D01*
X104262983Y-106377510D01*
X104429990Y-106544517D01*
X104464627Y-106569683D01*
X104507292Y-106625013D01*
X104513271Y-106694626D01*
X104480665Y-106756421D01*
X104464630Y-106770315D01*
X104446865Y-106783222D01*
X104429988Y-106795484D01*
X104262985Y-106962487D01*
X104262985Y-106962488D01*
X104262983Y-106962490D01*
X104203362Y-107044550D01*
X104124157Y-107153566D01*
X104016933Y-107364003D01*
X103943946Y-107588631D01*
X103907000Y-107821902D01*
X103907000Y-108058097D01*
X103943946Y-108291368D01*
X104016933Y-108515996D01*
X104095617Y-108670420D01*
X104124157Y-108726433D01*
X104262983Y-108917510D01*
X104429990Y-109084517D01*
X104464627Y-109109683D01*
X104507292Y-109165013D01*
X104513271Y-109234626D01*
X104480665Y-109296421D01*
X104464630Y-109310315D01*
X104446865Y-109323222D01*
X104429988Y-109335484D01*
X104262985Y-109502487D01*
X104262985Y-109502488D01*
X104262983Y-109502490D01*
X104208055Y-109578092D01*
X104124157Y-109693566D01*
X104016933Y-109904003D01*
X103943946Y-110128631D01*
X103907000Y-110361902D01*
X103907000Y-110598097D01*
X103943946Y-110831368D01*
X104016933Y-111055996D01*
X104095617Y-111210420D01*
X104124157Y-111266433D01*
X104262983Y-111457510D01*
X104429990Y-111624517D01*
X104464627Y-111649683D01*
X104507292Y-111705013D01*
X104513271Y-111774626D01*
X104480665Y-111836421D01*
X104464630Y-111850315D01*
X104446865Y-111863222D01*
X104429988Y-111875484D01*
X104262985Y-112042487D01*
X104262985Y-112042488D01*
X104262983Y-112042490D01*
X104249915Y-112060477D01*
X104124157Y-112233566D01*
X104016933Y-112444003D01*
X103943946Y-112668631D01*
X103907000Y-112901902D01*
X103907000Y-113138097D01*
X103943946Y-113371368D01*
X104016933Y-113595996D01*
X104095617Y-113750420D01*
X104124157Y-113806433D01*
X104262983Y-113997510D01*
X104429990Y-114164517D01*
X104464627Y-114189683D01*
X104507292Y-114245013D01*
X104513271Y-114314626D01*
X104480665Y-114376421D01*
X104464630Y-114390315D01*
X104446865Y-114403222D01*
X104429988Y-114415484D01*
X104262985Y-114582487D01*
X104262985Y-114582488D01*
X104262983Y-114582490D01*
X104231757Y-114625469D01*
X104124157Y-114773566D01*
X104016933Y-114984003D01*
X103943946Y-115208631D01*
X103907000Y-115441902D01*
X103907000Y-115678097D01*
X103943946Y-115911368D01*
X104016933Y-116135996D01*
X104095617Y-116290420D01*
X104124157Y-116346433D01*
X104262983Y-116537510D01*
X104429990Y-116704517D01*
X104464627Y-116729683D01*
X104507292Y-116785013D01*
X104513271Y-116854626D01*
X104480665Y-116916421D01*
X104464630Y-116930315D01*
X104446865Y-116943222D01*
X104429988Y-116955484D01*
X104262985Y-117122487D01*
X104262985Y-117122488D01*
X104262983Y-117122490D01*
X104208055Y-117198092D01*
X104124157Y-117313566D01*
X104016933Y-117524003D01*
X103943946Y-117748631D01*
X103907000Y-117981902D01*
X103907000Y-118218097D01*
X103943946Y-118451368D01*
X104016933Y-118675996D01*
X104095617Y-118830420D01*
X104124157Y-118886433D01*
X104262983Y-119077510D01*
X104429990Y-119244517D01*
X104464627Y-119269683D01*
X104507292Y-119325013D01*
X104513271Y-119394626D01*
X104480665Y-119456421D01*
X104464630Y-119470315D01*
X104446865Y-119483222D01*
X104429988Y-119495484D01*
X104262985Y-119662487D01*
X104262985Y-119662488D01*
X104262983Y-119662490D01*
X104203362Y-119744550D01*
X104124157Y-119853566D01*
X104016933Y-120064003D01*
X103943946Y-120288631D01*
X103907000Y-120521902D01*
X103907000Y-120758097D01*
X103943946Y-120991368D01*
X104016933Y-121215996D01*
X104095617Y-121370420D01*
X104124157Y-121426433D01*
X104262983Y-121617510D01*
X104429990Y-121784517D01*
X104621067Y-121923343D01*
X104720491Y-121974002D01*
X104831503Y-122030566D01*
X104831505Y-122030566D01*
X104831508Y-122030568D01*
X104917877Y-122058631D01*
X105056131Y-122103553D01*
X105289403Y-122140500D01*
X105289408Y-122140500D01*
X105525597Y-122140500D01*
X105758868Y-122103553D01*
X105983492Y-122030568D01*
X106193933Y-121923343D01*
X106385010Y-121784517D01*
X106392708Y-121776819D01*
X106454031Y-121743334D01*
X106480389Y-121740500D01*
X112310296Y-121740500D01*
X112377335Y-121760185D01*
X112397977Y-121776819D01*
X113568086Y-122946928D01*
X113690572Y-123069414D01*
X113792390Y-123143389D01*
X113830713Y-123171233D01*
X113953121Y-123233602D01*
X113953123Y-123233603D01*
X113985048Y-123249870D01*
X113985051Y-123249870D01*
X113985055Y-123249873D01*
X114149799Y-123303403D01*
X114290520Y-123325690D01*
X114313296Y-123329297D01*
X114320888Y-123330500D01*
X114320889Y-123330500D01*
X114494115Y-123330500D01*
X114670013Y-123302641D01*
X114670084Y-123303090D01*
X114691968Y-123300500D01*
X117893616Y-123300500D01*
X117914037Y-123306496D01*
X117935287Y-123307712D01*
X117956754Y-123319039D01*
X117960655Y-123320185D01*
X117966502Y-123324183D01*
X118029126Y-123369683D01*
X118071792Y-123425013D01*
X118077770Y-123494626D01*
X118045163Y-123556421D01*
X118029126Y-123570318D01*
X117954593Y-123624469D01*
X117791820Y-123787242D01*
X117791820Y-123787243D01*
X117791818Y-123787245D01*
X117737668Y-123861776D01*
X117656508Y-123973482D01*
X117551997Y-124178594D01*
X117551996Y-124178597D01*
X117480862Y-124397529D01*
X117444850Y-124624899D01*
X117444850Y-124855100D01*
X117480862Y-125082470D01*
X117551996Y-125301402D01*
X117551997Y-125301405D01*
X117637350Y-125468917D01*
X117656508Y-125506517D01*
X117791818Y-125692755D01*
X117954595Y-125855532D01*
X117966501Y-125864182D01*
X118029126Y-125909682D01*
X118071791Y-125965013D01*
X118077770Y-126034626D01*
X118045164Y-126096421D01*
X118029126Y-126110318D01*
X117954593Y-126164469D01*
X117791820Y-126327242D01*
X117791820Y-126327243D01*
X117791818Y-126327245D01*
X117737668Y-126401776D01*
X117656508Y-126513482D01*
X117551997Y-126718594D01*
X117551996Y-126718597D01*
X117480862Y-126937529D01*
X117444850Y-127164899D01*
X117444850Y-127395100D01*
X117480862Y-127622470D01*
X117551996Y-127841402D01*
X117551997Y-127841405D01*
X117637350Y-128008917D01*
X117656508Y-128046517D01*
X117791818Y-128232755D01*
X117954595Y-128395532D01*
X117974071Y-128409682D01*
X118029126Y-128449682D01*
X118071791Y-128505013D01*
X118077770Y-128574626D01*
X118045164Y-128636421D01*
X118029126Y-128650318D01*
X117954593Y-128704469D01*
X117791820Y-128867242D01*
X117791820Y-128867243D01*
X117791818Y-128867245D01*
X117738533Y-128940586D01*
X117656508Y-129053482D01*
X117551997Y-129258594D01*
X117551996Y-129258597D01*
X117480862Y-129477529D01*
X117444850Y-129704899D01*
X117444850Y-129935100D01*
X117480862Y-130162470D01*
X117551996Y-130381402D01*
X117551997Y-130381405D01*
X117637350Y-130548917D01*
X117656508Y-130586517D01*
X117791818Y-130772755D01*
X117954595Y-130935532D01*
X117993200Y-130963580D01*
X118029126Y-130989682D01*
X118071791Y-131045013D01*
X118077770Y-131114626D01*
X118045164Y-131176421D01*
X118029126Y-131190318D01*
X117954593Y-131244469D01*
X117791820Y-131407242D01*
X117791820Y-131407243D01*
X117791818Y-131407245D01*
X117762987Y-131446928D01*
X117656508Y-131593482D01*
X117551997Y-131798594D01*
X117551996Y-131798597D01*
X117480862Y-132017529D01*
X117444850Y-132244899D01*
X117444850Y-132475100D01*
X117480862Y-132702470D01*
X117551996Y-132921402D01*
X117551997Y-132921405D01*
X117625183Y-133065038D01*
X117656508Y-133126517D01*
X117791818Y-133312755D01*
X117954595Y-133475532D01*
X117974071Y-133489682D01*
X118029126Y-133529682D01*
X118071791Y-133585013D01*
X118077770Y-133654626D01*
X118045164Y-133716421D01*
X118029126Y-133730318D01*
X117954593Y-133784469D01*
X117791820Y-133947242D01*
X117791820Y-133947243D01*
X117791818Y-133947245D01*
X117737668Y-134021776D01*
X117656508Y-134133482D01*
X117551997Y-134338594D01*
X117551996Y-134338597D01*
X117480862Y-134557529D01*
X117444850Y-134784899D01*
X117444850Y-135015100D01*
X117480862Y-135242470D01*
X117551996Y-135461402D01*
X117551997Y-135461405D01*
X117637350Y-135628917D01*
X117656508Y-135666517D01*
X117791818Y-135852755D01*
X117954595Y-136015532D01*
X118014005Y-136058696D01*
X118029126Y-136069682D01*
X118071791Y-136125013D01*
X118077770Y-136194626D01*
X118045164Y-136256421D01*
X118029126Y-136270318D01*
X117954593Y-136324469D01*
X117791820Y-136487242D01*
X117791820Y-136487243D01*
X117791818Y-136487245D01*
X117737668Y-136561776D01*
X117656508Y-136673482D01*
X117551997Y-136878594D01*
X117551996Y-136878597D01*
X117480862Y-137097529D01*
X117444850Y-137324899D01*
X117444850Y-137555100D01*
X117480862Y-137782470D01*
X117551996Y-138001402D01*
X117551997Y-138001405D01*
X117625144Y-138144962D01*
X117656508Y-138206517D01*
X117791818Y-138392755D01*
X117954595Y-138555532D01*
X117974071Y-138569682D01*
X118029126Y-138609682D01*
X118046302Y-138631958D01*
X118065909Y-138652132D01*
X118067352Y-138659257D01*
X118071791Y-138665013D01*
X118074198Y-138693038D01*
X118079785Y-138720610D01*
X118077147Y-138727383D01*
X118077770Y-138734626D01*
X118064642Y-138759505D01*
X118054437Y-138785719D01*
X118046994Y-138792951D01*
X118045164Y-138796421D01*
X118029126Y-138810317D01*
X117966502Y-138855817D01*
X117900696Y-138879298D01*
X117893616Y-138879500D01*
X117164704Y-138879500D01*
X117097665Y-138859815D01*
X117077023Y-138843181D01*
X109714430Y-131480588D01*
X109714428Y-131480586D01*
X109574288Y-131378768D01*
X109419945Y-131300127D01*
X109255201Y-131246598D01*
X109255199Y-131246597D01*
X109255198Y-131246597D01*
X109123771Y-131225781D01*
X109084111Y-131219500D01*
X109084110Y-131219500D01*
X106480389Y-131219500D01*
X106457416Y-131212754D01*
X106433595Y-131210332D01*
X106421251Y-131202135D01*
X106413350Y-131199815D01*
X106403139Y-131192497D01*
X106397662Y-131188135D01*
X106385010Y-131175483D01*
X106348144Y-131148698D01*
X106346008Y-131146997D01*
X106327434Y-131120571D01*
X106307707Y-131094989D01*
X106307463Y-131092158D01*
X106305831Y-131089835D01*
X106304492Y-131057565D01*
X106301728Y-131025375D01*
X106303053Y-131022862D01*
X106302936Y-131020025D01*
X106319255Y-130992155D01*
X106334333Y-130963580D01*
X106337694Y-130960667D01*
X106338242Y-130959732D01*
X106339527Y-130959079D01*
X106350373Y-130949682D01*
X106385010Y-130924517D01*
X106552017Y-130757510D01*
X106690843Y-130566433D01*
X106798068Y-130355992D01*
X106871053Y-130131368D01*
X106873768Y-130114226D01*
X106908000Y-129898097D01*
X106908000Y-129661902D01*
X106871053Y-129428631D01*
X106798066Y-129204003D01*
X106690842Y-128993566D01*
X106552017Y-128802490D01*
X106385010Y-128635483D01*
X106350372Y-128610317D01*
X106307707Y-128554989D01*
X106301728Y-128485375D01*
X106334333Y-128423580D01*
X106350373Y-128409682D01*
X106369846Y-128395534D01*
X106385010Y-128384517D01*
X106552017Y-128217510D01*
X106690843Y-128026433D01*
X106798068Y-127815992D01*
X106871053Y-127591368D01*
X106908000Y-127358097D01*
X106908000Y-127121902D01*
X106871053Y-126888631D01*
X106798066Y-126664003D01*
X106690842Y-126453566D01*
X106552017Y-126262490D01*
X106385010Y-126095483D01*
X106350372Y-126070317D01*
X106307707Y-126014989D01*
X106301728Y-125945375D01*
X106334333Y-125883580D01*
X106350373Y-125869682D01*
X106385010Y-125844517D01*
X106552017Y-125677510D01*
X106690843Y-125486433D01*
X106798068Y-125275992D01*
X106871053Y-125051368D01*
X106908000Y-124818097D01*
X106908000Y-124581902D01*
X106871053Y-124348631D01*
X106798066Y-124124003D01*
X106690842Y-123913566D01*
X106552017Y-123722490D01*
X106385010Y-123555483D01*
X106193933Y-123416657D01*
X106191965Y-123415654D01*
X105983496Y-123309433D01*
X105758868Y-123236446D01*
X105525597Y-123199500D01*
X105525592Y-123199500D01*
X105289408Y-123199500D01*
X105289403Y-123199500D01*
X105056131Y-123236446D01*
X104831503Y-123309433D01*
X104621066Y-123416657D01*
X104547647Y-123470000D01*
X104429990Y-123555483D01*
X104429988Y-123555485D01*
X104429987Y-123555485D01*
X104262985Y-123722487D01*
X104262985Y-123722488D01*
X104262983Y-123722490D01*
X104215938Y-123787242D01*
X104124157Y-123913566D01*
X104016933Y-124124003D01*
X103943946Y-124348631D01*
X103907000Y-124581902D01*
X103907000Y-124818097D01*
X103943946Y-125051368D01*
X104016933Y-125275996D01*
X104115232Y-125468917D01*
X104124157Y-125486433D01*
X104262983Y-125677510D01*
X104429990Y-125844517D01*
X104464627Y-125869683D01*
X104507292Y-125925013D01*
X104513271Y-125994626D01*
X104480665Y-126056421D01*
X104464630Y-126070315D01*
X104446865Y-126083222D01*
X104429988Y-126095484D01*
X104262985Y-126262487D01*
X104262985Y-126262488D01*
X104262983Y-126262490D01*
X104215938Y-126327242D01*
X104124157Y-126453566D01*
X104016933Y-126664003D01*
X103943946Y-126888631D01*
X103907000Y-127121902D01*
X103907000Y-127358097D01*
X103943946Y-127591368D01*
X104016933Y-127815996D01*
X104115232Y-128008917D01*
X104124157Y-128026433D01*
X104262983Y-128217510D01*
X104429990Y-128384517D01*
X104464627Y-128409683D01*
X104507292Y-128465013D01*
X104513271Y-128534626D01*
X104480665Y-128596421D01*
X104464630Y-128610315D01*
X104446865Y-128623222D01*
X104429988Y-128635484D01*
X104262985Y-128802487D01*
X104262985Y-128802488D01*
X104262983Y-128802490D01*
X104215938Y-128867242D01*
X104124157Y-128993566D01*
X104016933Y-129204003D01*
X103943946Y-129428631D01*
X103907000Y-129661902D01*
X103907000Y-129898097D01*
X103943946Y-130131368D01*
X104016933Y-130355996D01*
X104115232Y-130548917D01*
X104124157Y-130566433D01*
X104262983Y-130757510D01*
X104429990Y-130924517D01*
X104464627Y-130949683D01*
X104507292Y-131005013D01*
X104513271Y-131074626D01*
X104480665Y-131136421D01*
X104464630Y-131150315D01*
X104446865Y-131163222D01*
X104429988Y-131175484D01*
X104262985Y-131342487D01*
X104262985Y-131342488D01*
X104262983Y-131342490D01*
X104215938Y-131407242D01*
X104124157Y-131533566D01*
X104016933Y-131744003D01*
X103943946Y-131968631D01*
X103907000Y-132201902D01*
X103907000Y-132438097D01*
X103943946Y-132671368D01*
X104016933Y-132895996D01*
X104115232Y-133088917D01*
X104124157Y-133106433D01*
X104262983Y-133297510D01*
X104429990Y-133464517D01*
X104464627Y-133489683D01*
X104507292Y-133545013D01*
X104513271Y-133614626D01*
X104480665Y-133676421D01*
X104464630Y-133690315D01*
X104446865Y-133703222D01*
X104429988Y-133715484D01*
X104262985Y-133882487D01*
X104262985Y-133882488D01*
X104262983Y-133882490D01*
X104215938Y-133947242D01*
X104124157Y-134073566D01*
X104016933Y-134284003D01*
X103943946Y-134508631D01*
X103907000Y-134741902D01*
X103907000Y-134978097D01*
X103943946Y-135211368D01*
X104016933Y-135435996D01*
X104115232Y-135628917D01*
X104124157Y-135646433D01*
X104262983Y-135837510D01*
X104429990Y-136004517D01*
X104464627Y-136029683D01*
X104507292Y-136085013D01*
X104513271Y-136154626D01*
X104480665Y-136216421D01*
X104464630Y-136230315D01*
X104455149Y-136237204D01*
X104429988Y-136255484D01*
X104262985Y-136422487D01*
X104262985Y-136422488D01*
X104262983Y-136422490D01*
X104215938Y-136487242D01*
X104124157Y-136613566D01*
X104016933Y-136824003D01*
X103943946Y-137048631D01*
X103907000Y-137281902D01*
X103907000Y-137518097D01*
X103943946Y-137751368D01*
X104016933Y-137975996D01*
X104079152Y-138098106D01*
X104124157Y-138186433D01*
X104262983Y-138377510D01*
X104429990Y-138544517D01*
X104464627Y-138569683D01*
X104507292Y-138625013D01*
X104513271Y-138694626D01*
X104480665Y-138756421D01*
X104464630Y-138770315D01*
X104446865Y-138783222D01*
X104429988Y-138795484D01*
X104262985Y-138962487D01*
X104262985Y-138962488D01*
X104262983Y-138962490D01*
X104215938Y-139027242D01*
X104124157Y-139153566D01*
X104016933Y-139364003D01*
X103943946Y-139588631D01*
X103907000Y-139821902D01*
X103907000Y-140058097D01*
X103943946Y-140291368D01*
X104016933Y-140515996D01*
X104115232Y-140708917D01*
X104124157Y-140726433D01*
X104262983Y-140917510D01*
X104429990Y-141084517D01*
X104464627Y-141109683D01*
X104507292Y-141165013D01*
X104513271Y-141234626D01*
X104480665Y-141296421D01*
X104464630Y-141310315D01*
X104446865Y-141323222D01*
X104429988Y-141335484D01*
X104262985Y-141502487D01*
X104262985Y-141502488D01*
X104262983Y-141502490D01*
X104220853Y-141560477D01*
X104124157Y-141693566D01*
X104016933Y-141904003D01*
X103943946Y-142128631D01*
X103907000Y-142361902D01*
X103907000Y-142598097D01*
X103943946Y-142831368D01*
X104016933Y-143055996D01*
X104095148Y-143209500D01*
X104124157Y-143266433D01*
X104262983Y-143457510D01*
X104429990Y-143624517D01*
X104472197Y-143655182D01*
X104514862Y-143710513D01*
X104520841Y-143780126D01*
X104488235Y-143841921D01*
X104427396Y-143876278D01*
X104399311Y-143879500D01*
X82164704Y-143879500D01*
X82097665Y-143859815D01*
X82077023Y-143843181D01*
X67174430Y-128940588D01*
X67174428Y-128940586D01*
X67034288Y-128838768D01*
X66879945Y-128760127D01*
X66715201Y-128706598D01*
X66715199Y-128706597D01*
X66715198Y-128706597D01*
X66583771Y-128685781D01*
X66544111Y-128679500D01*
X66544110Y-128679500D01*
X58220389Y-128679500D01*
X58153350Y-128659815D01*
X58132708Y-128643181D01*
X58125012Y-128635485D01*
X58125011Y-128635484D01*
X58125010Y-128635483D01*
X57933933Y-128496657D01*
X57911791Y-128485375D01*
X57723496Y-128389433D01*
X57498868Y-128316446D01*
X57265597Y-128279500D01*
X57265592Y-128279500D01*
X57029408Y-128279500D01*
X57029403Y-128279500D01*
X56796131Y-128316446D01*
X56571503Y-128389433D01*
X56361066Y-128496657D01*
X56308807Y-128534626D01*
X56169990Y-128635483D01*
X56169988Y-128635485D01*
X56169987Y-128635485D01*
X56002985Y-128802487D01*
X56002985Y-128802488D01*
X56002983Y-128802490D01*
X55955938Y-128867242D01*
X55864157Y-128993566D01*
X55756933Y-129204003D01*
X55683946Y-129428631D01*
X55647000Y-129661902D01*
X51518000Y-129661902D01*
X51518000Y-124581902D01*
X55647000Y-124581902D01*
X55647000Y-124818097D01*
X55683946Y-125051368D01*
X55756933Y-125275996D01*
X55855232Y-125468917D01*
X55864157Y-125486433D01*
X56002983Y-125677510D01*
X56169990Y-125844517D01*
X56361067Y-125983343D01*
X56423176Y-126014989D01*
X56571503Y-126090566D01*
X56571505Y-126090566D01*
X56571508Y-126090568D01*
X56691912Y-126129689D01*
X56796131Y-126163553D01*
X57029403Y-126200500D01*
X57029408Y-126200500D01*
X57265597Y-126200500D01*
X57498868Y-126163553D01*
X57723492Y-126090568D01*
X57933933Y-125983343D01*
X58125010Y-125844517D01*
X58292017Y-125677510D01*
X58430843Y-125486433D01*
X58538068Y-125275992D01*
X58611053Y-125051368D01*
X58648000Y-124818097D01*
X58648000Y-124581902D01*
X58611053Y-124348631D01*
X58538066Y-124124003D01*
X58430842Y-123913566D01*
X58292017Y-123722490D01*
X58125010Y-123555483D01*
X57933933Y-123416657D01*
X57931965Y-123415654D01*
X57723496Y-123309433D01*
X57498868Y-123236446D01*
X57265597Y-123199500D01*
X57265592Y-123199500D01*
X57029408Y-123199500D01*
X57029403Y-123199500D01*
X56796131Y-123236446D01*
X56571503Y-123309433D01*
X56361066Y-123416657D01*
X56287647Y-123470000D01*
X56169990Y-123555483D01*
X56169988Y-123555485D01*
X56169987Y-123555485D01*
X56002985Y-123722487D01*
X56002985Y-123722488D01*
X56002983Y-123722490D01*
X55955938Y-123787242D01*
X55864157Y-123913566D01*
X55756933Y-124124003D01*
X55683946Y-124348631D01*
X55647000Y-124581902D01*
X51518000Y-124581902D01*
X51518000Y-106063384D01*
X55647000Y-106063384D01*
X55647000Y-107776616D01*
X55648503Y-107793150D01*
X55653413Y-107847192D01*
X55653413Y-107847194D01*
X55653414Y-107847196D01*
X55704022Y-108009606D01*
X55787389Y-108147512D01*
X55792030Y-108155188D01*
X55912311Y-108275469D01*
X55912313Y-108275470D01*
X55912315Y-108275472D01*
X55964327Y-108306915D01*
X56011513Y-108358441D01*
X56023352Y-108427300D01*
X56000494Y-108485916D01*
X55864157Y-108673566D01*
X55756933Y-108884003D01*
X55683946Y-109108631D01*
X55647000Y-109341902D01*
X55647000Y-109578097D01*
X55683946Y-109811368D01*
X55756933Y-110035996D01*
X55817064Y-110154008D01*
X55864157Y-110246433D01*
X56002983Y-110437510D01*
X56169990Y-110604517D01*
X56204627Y-110629683D01*
X56247292Y-110685013D01*
X56253271Y-110754626D01*
X56220665Y-110816421D01*
X56204630Y-110830315D01*
X56186865Y-110843222D01*
X56169988Y-110855484D01*
X56002985Y-111022487D01*
X56002985Y-111022488D01*
X56002983Y-111022490D01*
X55955938Y-111087242D01*
X55864157Y-111213566D01*
X55756933Y-111424003D01*
X55683946Y-111648631D01*
X55647000Y-111881902D01*
X55647000Y-112118097D01*
X55683946Y-112351368D01*
X55756933Y-112575996D01*
X55804134Y-112668632D01*
X55864157Y-112786433D01*
X56002983Y-112977510D01*
X56169990Y-113144517D01*
X56204627Y-113169683D01*
X56247292Y-113225013D01*
X56253271Y-113294626D01*
X56220665Y-113356421D01*
X56204630Y-113370315D01*
X56186865Y-113383222D01*
X56169988Y-113395484D01*
X56002985Y-113562487D01*
X56002985Y-113562488D01*
X56002983Y-113562490D01*
X55955938Y-113627242D01*
X55864157Y-113753566D01*
X55756933Y-113964003D01*
X55683946Y-114188631D01*
X55647000Y-114421902D01*
X55647000Y-114658097D01*
X55683946Y-114891368D01*
X55756933Y-115115996D01*
X55804134Y-115208632D01*
X55864157Y-115326433D01*
X56002983Y-115517510D01*
X56169990Y-115684517D01*
X56204627Y-115709683D01*
X56247292Y-115765013D01*
X56253271Y-115834626D01*
X56220665Y-115896421D01*
X56204630Y-115910315D01*
X56186865Y-115923222D01*
X56169988Y-115935484D01*
X56002985Y-116102487D01*
X56002985Y-116102488D01*
X56002983Y-116102490D01*
X55955938Y-116167242D01*
X55864157Y-116293566D01*
X55756933Y-116504003D01*
X55683946Y-116728631D01*
X55647000Y-116961902D01*
X55647000Y-117198097D01*
X55683946Y-117431368D01*
X55756933Y-117655996D01*
X55804134Y-117748632D01*
X55864157Y-117866433D01*
X56002983Y-118057510D01*
X56169990Y-118224517D01*
X56361067Y-118363343D01*
X56437809Y-118402445D01*
X56571503Y-118470566D01*
X56571505Y-118470566D01*
X56571508Y-118470568D01*
X56691912Y-118509689D01*
X56796131Y-118543553D01*
X57029403Y-118580500D01*
X57029408Y-118580500D01*
X57265597Y-118580500D01*
X57498868Y-118543553D01*
X57522677Y-118535817D01*
X57723492Y-118470568D01*
X57933933Y-118363343D01*
X58125010Y-118224517D01*
X58132708Y-118216819D01*
X58194031Y-118183334D01*
X58220389Y-118180500D01*
X62894110Y-118180500D01*
X62894111Y-118180500D01*
X63065201Y-118153402D01*
X63229945Y-118099873D01*
X63384288Y-118021232D01*
X63524428Y-117919414D01*
X76456914Y-104986928D01*
X76558732Y-104846788D01*
X76637373Y-104692445D01*
X76690902Y-104527701D01*
X76695199Y-104500568D01*
X76718000Y-104356611D01*
X76718000Y-66994038D01*
X80187000Y-66994038D01*
X80187000Y-67245962D01*
X80212418Y-67406446D01*
X80226410Y-67494785D01*
X80304260Y-67734383D01*
X80377032Y-67877204D01*
X80384820Y-67892490D01*
X80418632Y-67958848D01*
X80566701Y-68162649D01*
X80566705Y-68162654D01*
X80744845Y-68340794D01*
X80744850Y-68340798D01*
X80922617Y-68469952D01*
X80948655Y-68488870D01*
X81091684Y-68561747D01*
X81173116Y-68603239D01*
X81173118Y-68603239D01*
X81173121Y-68603241D01*
X81412715Y-68681090D01*
X81661538Y-68720500D01*
X81661539Y-68720500D01*
X81913461Y-68720500D01*
X81913462Y-68720500D01*
X82162285Y-68681090D01*
X82401879Y-68603241D01*
X82626345Y-68488870D01*
X82830156Y-68340793D01*
X82914130Y-68256819D01*
X82975453Y-68223334D01*
X83001811Y-68220500D01*
X84364611Y-68220500D01*
X84431650Y-68240185D01*
X84452292Y-68256819D01*
X84459990Y-68264517D01*
X84651067Y-68403343D01*
X84750491Y-68454002D01*
X84861503Y-68510566D01*
X84861505Y-68510566D01*
X84861508Y-68510568D01*
X84981912Y-68549689D01*
X85086131Y-68583553D01*
X85319403Y-68620500D01*
X85319408Y-68620500D01*
X85555597Y-68620500D01*
X85788868Y-68583553D01*
X85819497Y-68573601D01*
X86013492Y-68510568D01*
X86223933Y-68403343D01*
X86415010Y-68264517D01*
X86582017Y-68097510D01*
X86720843Y-67906433D01*
X86828068Y-67695992D01*
X86901053Y-67471368D01*
X86901190Y-67470500D01*
X86938000Y-67238097D01*
X86938000Y-67001902D01*
X86901053Y-66768631D01*
X86828066Y-66544003D01*
X86720842Y-66333566D01*
X86682760Y-66281151D01*
X86582017Y-66142490D01*
X86415010Y-65975483D01*
X86223933Y-65836657D01*
X86157283Y-65802697D01*
X86013496Y-65729433D01*
X85788868Y-65656446D01*
X85555597Y-65619500D01*
X85555592Y-65619500D01*
X85319408Y-65619500D01*
X85319403Y-65619500D01*
X85086131Y-65656446D01*
X84861503Y-65729433D01*
X84651066Y-65836657D01*
X84542050Y-65915862D01*
X84459990Y-65975483D01*
X84459988Y-65975485D01*
X84459987Y-65975485D01*
X84452292Y-65983181D01*
X84390969Y-66016666D01*
X84364611Y-66019500D01*
X83001811Y-66019500D01*
X82934772Y-65999815D01*
X82914130Y-65983181D01*
X82830154Y-65899205D01*
X82830149Y-65899201D01*
X82626348Y-65751132D01*
X82626347Y-65751131D01*
X82626345Y-65751130D01*
X82556247Y-65715413D01*
X82401883Y-65636760D01*
X82162285Y-65558910D01*
X81913462Y-65519500D01*
X81661538Y-65519500D01*
X81537126Y-65539205D01*
X81412714Y-65558910D01*
X81173116Y-65636760D01*
X80948651Y-65751132D01*
X80744850Y-65899201D01*
X80744845Y-65899205D01*
X80566705Y-66077345D01*
X80566701Y-66077350D01*
X80418632Y-66281151D01*
X80304260Y-66505616D01*
X80226410Y-66745214D01*
X80216737Y-66806285D01*
X80187000Y-66994038D01*
X76718000Y-66994038D01*
X76718000Y-61177204D01*
X76737685Y-61110165D01*
X76754319Y-61089523D01*
X78720770Y-59123072D01*
X81024414Y-56819428D01*
X81126232Y-56679288D01*
X81204873Y-56524946D01*
X81258402Y-56360201D01*
X81285500Y-56189111D01*
X81285500Y-56015890D01*
X81285500Y-56012167D01*
X81305185Y-55945128D01*
X81352087Y-55902259D01*
X81360751Y-55897734D01*
X81510571Y-55775571D01*
X81632734Y-55625751D01*
X81722237Y-55454406D01*
X81775417Y-55268552D01*
X81785500Y-55155138D01*
X81785500Y-51944863D01*
X101352000Y-51944863D01*
X101352000Y-55155136D01*
X101362082Y-55268548D01*
X101362082Y-55268551D01*
X101362083Y-55268552D01*
X101369366Y-55294003D01*
X101415262Y-55454405D01*
X101436496Y-55495055D01*
X101504766Y-55625751D01*
X101519070Y-55643293D01*
X101626928Y-55775571D01*
X101694771Y-55830889D01*
X101776749Y-55897734D01*
X101948094Y-55987237D01*
X102133948Y-56040417D01*
X102247362Y-56050500D01*
X102247370Y-56050500D01*
X103657630Y-56050500D01*
X103657638Y-56050500D01*
X103771052Y-56040417D01*
X103956906Y-55987237D01*
X104128251Y-55897734D01*
X104278071Y-55775571D01*
X104400234Y-55625751D01*
X104489737Y-55454406D01*
X104542917Y-55268552D01*
X104553000Y-55155138D01*
X104553000Y-52524038D01*
X106432000Y-52524038D01*
X106432000Y-54575961D01*
X106471410Y-54824785D01*
X106549260Y-55064383D01*
X106595502Y-55155136D01*
X106653290Y-55268552D01*
X106663632Y-55288848D01*
X106811701Y-55492649D01*
X106811705Y-55492654D01*
X106895681Y-55576630D01*
X106929166Y-55637953D01*
X106932000Y-55664311D01*
X106932000Y-64721610D01*
X106955581Y-64870500D01*
X106959098Y-64892701D01*
X107012627Y-65057445D01*
X107091268Y-65211788D01*
X107193086Y-65351928D01*
X154598086Y-112756928D01*
X154720572Y-112879414D01*
X154860712Y-112981232D01*
X155015055Y-113059873D01*
X155179799Y-113113402D01*
X155350889Y-113140500D01*
X178853616Y-113140500D01*
X178874037Y-113146496D01*
X178895287Y-113147712D01*
X178916754Y-113159039D01*
X178920655Y-113160185D01*
X178926502Y-113164183D01*
X178989126Y-113209683D01*
X179031792Y-113265013D01*
X179037770Y-113334626D01*
X179005163Y-113396421D01*
X178989126Y-113410318D01*
X178914593Y-113464469D01*
X178751820Y-113627242D01*
X178751820Y-113627243D01*
X178751818Y-113627245D01*
X178738567Y-113645484D01*
X178616508Y-113813482D01*
X178511997Y-114018594D01*
X178511996Y-114018597D01*
X178440862Y-114237529D01*
X178404850Y-114464899D01*
X178404850Y-114695100D01*
X178440862Y-114922470D01*
X178511996Y-115141402D01*
X178511997Y-115141405D01*
X178597350Y-115308917D01*
X178616508Y-115346517D01*
X178751818Y-115532755D01*
X178914595Y-115695532D01*
X178953200Y-115723580D01*
X178989126Y-115749682D01*
X179006302Y-115771958D01*
X179025909Y-115792132D01*
X179027352Y-115799257D01*
X179031791Y-115805013D01*
X179034198Y-115833038D01*
X179039785Y-115860610D01*
X179037147Y-115867383D01*
X179037770Y-115874626D01*
X179024642Y-115899505D01*
X179014437Y-115925719D01*
X179006994Y-115932951D01*
X179005164Y-115936421D01*
X178989126Y-115950317D01*
X178926502Y-115995817D01*
X178860696Y-116019298D01*
X178853616Y-116019500D01*
X173104111Y-116019500D01*
X172930889Y-116019500D01*
X172901480Y-116024158D01*
X172759802Y-116046597D01*
X172595052Y-116100128D01*
X172440711Y-116178768D01*
X172360756Y-116236859D01*
X172300572Y-116280586D01*
X172300570Y-116280588D01*
X172300569Y-116280588D01*
X164818088Y-123763069D01*
X164818088Y-123763070D01*
X164818086Y-123763072D01*
X164774359Y-123823256D01*
X164716268Y-123903211D01*
X164637628Y-124057552D01*
X164584097Y-124222302D01*
X164564089Y-124348631D01*
X164557000Y-124393389D01*
X164557000Y-141893389D01*
X164557000Y-142066611D01*
X164584098Y-142237701D01*
X164637627Y-142402445D01*
X164716268Y-142556788D01*
X164818086Y-142696928D01*
X172830572Y-150709414D01*
X172970712Y-150811232D01*
X173125055Y-150889873D01*
X173289799Y-150943402D01*
X173460889Y-150970500D01*
X173460890Y-150970500D01*
X193854110Y-150970500D01*
X193854111Y-150970500D01*
X194025201Y-150943402D01*
X194189945Y-150889873D01*
X194344288Y-150811232D01*
X194484428Y-150709414D01*
X196438584Y-148755258D01*
X246017000Y-148755258D01*
X246017000Y-148984741D01*
X246041946Y-149174215D01*
X246046952Y-149212238D01*
X246076242Y-149321550D01*
X246106342Y-149433887D01*
X246194150Y-149645876D01*
X246194157Y-149645890D01*
X246308892Y-149844617D01*
X246448581Y-150026661D01*
X246448589Y-150026670D01*
X246610830Y-150188911D01*
X246610838Y-150188918D01*
X246792882Y-150328607D01*
X246792885Y-150328608D01*
X246792888Y-150328611D01*
X246991612Y-150443344D01*
X246991617Y-150443346D01*
X246991623Y-150443349D01*
X247082980Y-150481190D01*
X247203613Y-150531158D01*
X247425262Y-150590548D01*
X247652766Y-150620500D01*
X247652773Y-150620500D01*
X247882227Y-150620500D01*
X247882234Y-150620500D01*
X248109738Y-150590548D01*
X248331387Y-150531158D01*
X248543388Y-150443344D01*
X248742112Y-150328611D01*
X248924161Y-150188919D01*
X248924165Y-150188914D01*
X248924170Y-150188911D01*
X249086411Y-150026670D01*
X249086414Y-150026665D01*
X249086419Y-150026661D01*
X249226111Y-149844612D01*
X249340844Y-149645888D01*
X249428658Y-149433887D01*
X249488048Y-149212238D01*
X249518000Y-148984734D01*
X249518000Y-148755266D01*
X249488048Y-148527762D01*
X249428658Y-148306113D01*
X249340844Y-148094112D01*
X249226111Y-147895388D01*
X249226108Y-147895385D01*
X249226107Y-147895382D01*
X249086418Y-147713338D01*
X249086411Y-147713330D01*
X248924170Y-147551089D01*
X248924161Y-147551081D01*
X248742117Y-147411392D01*
X248543390Y-147296657D01*
X248543376Y-147296650D01*
X248331387Y-147208842D01*
X248109738Y-147149452D01*
X248071715Y-147144446D01*
X247882241Y-147119500D01*
X247882234Y-147119500D01*
X247652766Y-147119500D01*
X247652758Y-147119500D01*
X247436215Y-147148009D01*
X247425262Y-147149452D01*
X247394036Y-147157819D01*
X247203612Y-147208842D01*
X246991623Y-147296650D01*
X246991609Y-147296657D01*
X246792882Y-147411392D01*
X246610838Y-147551081D01*
X246448581Y-147713338D01*
X246308892Y-147895382D01*
X246194157Y-148094109D01*
X246194150Y-148094123D01*
X246106342Y-148306112D01*
X246046953Y-148527759D01*
X246046951Y-148527770D01*
X246017000Y-148755258D01*
X196438584Y-148755258D01*
X210246914Y-134946928D01*
X210348732Y-134806788D01*
X210427373Y-134652445D01*
X210480902Y-134487701D01*
X210508000Y-134316611D01*
X210508000Y-134143389D01*
X210508000Y-95371902D01*
X242157000Y-95371902D01*
X242157000Y-95608097D01*
X242193946Y-95841368D01*
X242266933Y-96065996D01*
X242374157Y-96276433D01*
X242512983Y-96467510D01*
X242679990Y-96634517D01*
X242871067Y-96773343D01*
X242968834Y-96823158D01*
X243081503Y-96880566D01*
X243081505Y-96880566D01*
X243081508Y-96880568D01*
X243184887Y-96914158D01*
X243306131Y-96953553D01*
X243539403Y-96990500D01*
X243539408Y-96990500D01*
X243775597Y-96990500D01*
X244008868Y-96953553D01*
X244018335Y-96950477D01*
X244233492Y-96880568D01*
X244443933Y-96773343D01*
X244635010Y-96634517D01*
X244802017Y-96467510D01*
X244940843Y-96276433D01*
X245048068Y-96065992D01*
X245121053Y-95841368D01*
X245126546Y-95806684D01*
X245158000Y-95608097D01*
X245158000Y-95371902D01*
X245121053Y-95138631D01*
X245048066Y-94914003D01*
X244940842Y-94703566D01*
X244802017Y-94512490D01*
X244635010Y-94345483D01*
X244443933Y-94206657D01*
X244421791Y-94195375D01*
X244233496Y-94099433D01*
X244008868Y-94026446D01*
X243775597Y-93989500D01*
X243775592Y-93989500D01*
X243539408Y-93989500D01*
X243539403Y-93989500D01*
X243306131Y-94026446D01*
X243081503Y-94099433D01*
X242871066Y-94206657D01*
X242818807Y-94244626D01*
X242679990Y-94345483D01*
X242679988Y-94345485D01*
X242679987Y-94345485D01*
X242512985Y-94512487D01*
X242512985Y-94512488D01*
X242512983Y-94512490D01*
X242453362Y-94594550D01*
X242374157Y-94703566D01*
X242266933Y-94914003D01*
X242193946Y-95138631D01*
X242157000Y-95371902D01*
X210508000Y-95371902D01*
X210508000Y-93237204D01*
X210527685Y-93170165D01*
X210544319Y-93149523D01*
X212147023Y-91546819D01*
X212208346Y-91513334D01*
X212234704Y-91510500D01*
X242584611Y-91510500D01*
X242651650Y-91530185D01*
X242672292Y-91546819D01*
X242679990Y-91554517D01*
X242871067Y-91693343D01*
X242970491Y-91744002D01*
X243081503Y-91800566D01*
X243081505Y-91800566D01*
X243081508Y-91800568D01*
X243171521Y-91829815D01*
X243306131Y-91873553D01*
X243539403Y-91910500D01*
X243539408Y-91910500D01*
X243775597Y-91910500D01*
X244008868Y-91873553D01*
X244046034Y-91861477D01*
X244233492Y-91800568D01*
X244443933Y-91693343D01*
X244635010Y-91554517D01*
X244802017Y-91387510D01*
X244940843Y-91196433D01*
X245048068Y-90985992D01*
X245121053Y-90761368D01*
X245127241Y-90722299D01*
X245158000Y-90528097D01*
X245158000Y-90291902D01*
X245121053Y-90058631D01*
X245048066Y-89834003D01*
X244956024Y-89653362D01*
X244940843Y-89623567D01*
X244802017Y-89432490D01*
X244635010Y-89265483D01*
X244600372Y-89240317D01*
X244557707Y-89184989D01*
X244551728Y-89115375D01*
X244584333Y-89053580D01*
X244600373Y-89039682D01*
X244635010Y-89014517D01*
X244802017Y-88847510D01*
X244940843Y-88656433D01*
X245048068Y-88445992D01*
X245121053Y-88221368D01*
X245130385Y-88162447D01*
X245158000Y-87988097D01*
X245158000Y-87751902D01*
X245121053Y-87518631D01*
X245048066Y-87294003D01*
X244940842Y-87083566D01*
X244902351Y-87030588D01*
X244802017Y-86892490D01*
X244635010Y-86725483D01*
X244600372Y-86700317D01*
X244557707Y-86644989D01*
X244551728Y-86575375D01*
X244584333Y-86513580D01*
X244600373Y-86499682D01*
X244635010Y-86474517D01*
X244802017Y-86307510D01*
X244940843Y-86116433D01*
X245048068Y-85905992D01*
X245121053Y-85681368D01*
X245158000Y-85448097D01*
X245158000Y-85211902D01*
X245121053Y-84978631D01*
X245048066Y-84754003D01*
X244940842Y-84543566D01*
X244802017Y-84352490D01*
X244635010Y-84185483D01*
X244600372Y-84160317D01*
X244557707Y-84104989D01*
X244551728Y-84035375D01*
X244584333Y-83973580D01*
X244600373Y-83959682D01*
X244635010Y-83934517D01*
X244802017Y-83767510D01*
X244940843Y-83576433D01*
X245048068Y-83365992D01*
X245121053Y-83141368D01*
X245158000Y-82908097D01*
X245158000Y-82671902D01*
X245121053Y-82438631D01*
X245048066Y-82214003D01*
X244940842Y-82003566D01*
X244902351Y-81950588D01*
X244802017Y-81812490D01*
X244635010Y-81645483D01*
X244600372Y-81620317D01*
X244557707Y-81564989D01*
X244551728Y-81495375D01*
X244584333Y-81433580D01*
X244600373Y-81419682D01*
X244635010Y-81394517D01*
X244802017Y-81227510D01*
X244940843Y-81036433D01*
X245048068Y-80825992D01*
X245121053Y-80601368D01*
X245127273Y-80562098D01*
X245158000Y-80368097D01*
X245158000Y-80131902D01*
X245121053Y-79898631D01*
X245048066Y-79674003D01*
X244940842Y-79463566D01*
X244902351Y-79410588D01*
X244802017Y-79272490D01*
X244635010Y-79105483D01*
X244600372Y-79080317D01*
X244557707Y-79024989D01*
X244551728Y-78955375D01*
X244584333Y-78893580D01*
X244600373Y-78879682D01*
X244635010Y-78854517D01*
X244802017Y-78687510D01*
X244940843Y-78496433D01*
X245048068Y-78285992D01*
X245121053Y-78061368D01*
X245158000Y-77828097D01*
X245158000Y-77591902D01*
X245121053Y-77358631D01*
X245048066Y-77134003D01*
X244940842Y-76923566D01*
X244802017Y-76732490D01*
X244635010Y-76565483D01*
X244443933Y-76426657D01*
X244233496Y-76319433D01*
X244008868Y-76246446D01*
X243775597Y-76209500D01*
X243775592Y-76209500D01*
X243539408Y-76209500D01*
X243539403Y-76209500D01*
X243306131Y-76246446D01*
X243081503Y-76319433D01*
X242871066Y-76426657D01*
X242775911Y-76495792D01*
X242679990Y-76565483D01*
X242679988Y-76565485D01*
X242679987Y-76565485D01*
X242512985Y-76732487D01*
X242512985Y-76732488D01*
X242512983Y-76732490D01*
X242453362Y-76814550D01*
X242374157Y-76923566D01*
X242266933Y-77134003D01*
X242193946Y-77358631D01*
X242157000Y-77591902D01*
X242157000Y-77828097D01*
X242193946Y-78061368D01*
X242266933Y-78285996D01*
X242362702Y-78473952D01*
X242374157Y-78496433D01*
X242512983Y-78687510D01*
X242679990Y-78854517D01*
X242714627Y-78879683D01*
X242730190Y-78899865D01*
X242748744Y-78917340D01*
X242751168Y-78927071D01*
X242757292Y-78935013D01*
X242759472Y-78960402D01*
X242765635Y-78985137D01*
X242762412Y-78994635D01*
X242763271Y-79004626D01*
X242751377Y-79027166D01*
X242743190Y-79051303D01*
X242733388Y-79061259D01*
X242730665Y-79066421D01*
X242718992Y-79076996D01*
X242716843Y-79078707D01*
X242679990Y-79105483D01*
X242667339Y-79118133D01*
X242661862Y-79122496D01*
X242635731Y-79133144D01*
X242610969Y-79146666D01*
X242599534Y-79147895D01*
X242597158Y-79148864D01*
X242594731Y-79148411D01*
X242584611Y-79149500D01*
X210724111Y-79149500D01*
X210550889Y-79149500D01*
X210511228Y-79155781D01*
X210379802Y-79176597D01*
X210215052Y-79230128D01*
X210060711Y-79308768D01*
X209980756Y-79366859D01*
X209920572Y-79410586D01*
X209920570Y-79410588D01*
X209920569Y-79410588D01*
X204568088Y-84763069D01*
X204568088Y-84763070D01*
X204568086Y-84763072D01*
X204524359Y-84823256D01*
X204466268Y-84903211D01*
X204387628Y-85057552D01*
X204334097Y-85222302D01*
X204307000Y-85393389D01*
X204307000Y-102523796D01*
X204287315Y-102590835D01*
X204234511Y-102636590D01*
X204165353Y-102646534D01*
X204101797Y-102617509D01*
X204095319Y-102611477D01*
X200194430Y-98710588D01*
X200194428Y-98710586D01*
X200054288Y-98608768D01*
X199899945Y-98530127D01*
X199735201Y-98476598D01*
X199735199Y-98476597D01*
X199735198Y-98476597D01*
X199603771Y-98455781D01*
X199564111Y-98449500D01*
X199564110Y-98449500D01*
X196470389Y-98449500D01*
X196403350Y-98429815D01*
X196382708Y-98413181D01*
X196375012Y-98405485D01*
X196375010Y-98405483D01*
X196183933Y-98266657D01*
X196183815Y-98266597D01*
X195973496Y-98159433D01*
X195748868Y-98086446D01*
X195515597Y-98049500D01*
X195515592Y-98049500D01*
X195279408Y-98049500D01*
X195279403Y-98049500D01*
X195046131Y-98086446D01*
X194821503Y-98159433D01*
X194611066Y-98266657D01*
X194530129Y-98325462D01*
X194419990Y-98405483D01*
X194419988Y-98405485D01*
X194419987Y-98405485D01*
X194252985Y-98572487D01*
X194252985Y-98572488D01*
X194252983Y-98572490D01*
X194224944Y-98611082D01*
X194114157Y-98763566D01*
X194006933Y-98974003D01*
X193933946Y-99198631D01*
X193897000Y-99431902D01*
X193897000Y-99668097D01*
X193933946Y-99901368D01*
X194006933Y-100125996D01*
X194091900Y-100292751D01*
X194114157Y-100336433D01*
X194252983Y-100527510D01*
X194419990Y-100694517D01*
X194454627Y-100719683D01*
X194497292Y-100775013D01*
X194503271Y-100844626D01*
X194470665Y-100906421D01*
X194454630Y-100920315D01*
X194436865Y-100933222D01*
X194419988Y-100945484D01*
X194252985Y-101112487D01*
X194252985Y-101112488D01*
X194252983Y-101112490D01*
X194224944Y-101151082D01*
X194114157Y-101303566D01*
X194006933Y-101514003D01*
X193933946Y-101738631D01*
X193897000Y-101971902D01*
X193897000Y-102208097D01*
X193933946Y-102441368D01*
X194006933Y-102665996D01*
X194091900Y-102832751D01*
X194114157Y-102876433D01*
X194252983Y-103067510D01*
X194419990Y-103234517D01*
X194454627Y-103259683D01*
X194470190Y-103279865D01*
X194488744Y-103297340D01*
X194491168Y-103307071D01*
X194497292Y-103315013D01*
X194499472Y-103340402D01*
X194505635Y-103365137D01*
X194502412Y-103374635D01*
X194503271Y-103384626D01*
X194491377Y-103407166D01*
X194483190Y-103431303D01*
X194473388Y-103441259D01*
X194470665Y-103446421D01*
X194458992Y-103456996D01*
X194456843Y-103458707D01*
X194419990Y-103485483D01*
X194407339Y-103498133D01*
X194401862Y-103502496D01*
X194375731Y-103513144D01*
X194350969Y-103526666D01*
X194339534Y-103527895D01*
X194337158Y-103528864D01*
X194334731Y-103528411D01*
X194324611Y-103529500D01*
X193920889Y-103529500D01*
X193881228Y-103535781D01*
X193749802Y-103556597D01*
X193585052Y-103610128D01*
X193493850Y-103656598D01*
X193430710Y-103688769D01*
X193430707Y-103688770D01*
X193325732Y-103765040D01*
X193290572Y-103790586D01*
X193290570Y-103790588D01*
X193290569Y-103790588D01*
X191719681Y-105361477D01*
X191658358Y-105394962D01*
X191588666Y-105389978D01*
X191532733Y-105348106D01*
X191508316Y-105282642D01*
X191508000Y-105273796D01*
X191508000Y-98487204D01*
X191527685Y-98420165D01*
X191544319Y-98399523D01*
X193317023Y-96626819D01*
X193378346Y-96593334D01*
X193404704Y-96590500D01*
X194324611Y-96590500D01*
X194391650Y-96610185D01*
X194412292Y-96626819D01*
X194419990Y-96634517D01*
X194611067Y-96773343D01*
X194708834Y-96823158D01*
X194821503Y-96880566D01*
X194821505Y-96880566D01*
X194821508Y-96880568D01*
X194924887Y-96914158D01*
X195046131Y-96953553D01*
X195279403Y-96990500D01*
X195279408Y-96990500D01*
X195515597Y-96990500D01*
X195748868Y-96953553D01*
X195758335Y-96950477D01*
X195973492Y-96880568D01*
X196183933Y-96773343D01*
X196375010Y-96634517D01*
X196542017Y-96467510D01*
X196680843Y-96276433D01*
X196788068Y-96065992D01*
X196861053Y-95841368D01*
X196866546Y-95806684D01*
X196898000Y-95608097D01*
X196898000Y-95371902D01*
X196861053Y-95138631D01*
X196788066Y-94914003D01*
X196680842Y-94703566D01*
X196542017Y-94512490D01*
X196375010Y-94345483D01*
X196340372Y-94320317D01*
X196297707Y-94264989D01*
X196291728Y-94195375D01*
X196324333Y-94133580D01*
X196340373Y-94119682D01*
X196375010Y-94094517D01*
X196542017Y-93927510D01*
X196680843Y-93736433D01*
X196788068Y-93525992D01*
X196861053Y-93301368D01*
X196863049Y-93288768D01*
X196898000Y-93068097D01*
X196898000Y-92831902D01*
X196861053Y-92598631D01*
X196794531Y-92393900D01*
X196788068Y-92374008D01*
X196788066Y-92374005D01*
X196788066Y-92374003D01*
X196731502Y-92262991D01*
X196680843Y-92163567D01*
X196542017Y-91972490D01*
X196375010Y-91805483D01*
X196340372Y-91780317D01*
X196297707Y-91724989D01*
X196291728Y-91655375D01*
X196324333Y-91593580D01*
X196340373Y-91579682D01*
X196375010Y-91554517D01*
X196542017Y-91387510D01*
X196680843Y-91196433D01*
X196788068Y-90985992D01*
X196861053Y-90761368D01*
X196867241Y-90722299D01*
X196898000Y-90528097D01*
X196898000Y-90291902D01*
X196861053Y-90058631D01*
X196788066Y-89834003D01*
X196696024Y-89653362D01*
X196680843Y-89623567D01*
X196542017Y-89432490D01*
X196375010Y-89265483D01*
X196340372Y-89240317D01*
X196297707Y-89184989D01*
X196291728Y-89115375D01*
X196324333Y-89053580D01*
X196340373Y-89039682D01*
X196375010Y-89014517D01*
X196542017Y-88847510D01*
X196680843Y-88656433D01*
X196788068Y-88445992D01*
X196861053Y-88221368D01*
X196870385Y-88162447D01*
X196898000Y-87988097D01*
X196898000Y-87751902D01*
X196861053Y-87518631D01*
X196788066Y-87294003D01*
X196680842Y-87083566D01*
X196642351Y-87030588D01*
X196542017Y-86892490D01*
X196375010Y-86725483D01*
X196340372Y-86700317D01*
X196297707Y-86644989D01*
X196291728Y-86575375D01*
X196324333Y-86513580D01*
X196340373Y-86499682D01*
X196375010Y-86474517D01*
X196542017Y-86307510D01*
X196680843Y-86116433D01*
X196788068Y-85905992D01*
X196861053Y-85681368D01*
X196898000Y-85448097D01*
X196898000Y-85211902D01*
X196861053Y-84978631D01*
X196788066Y-84754003D01*
X196680842Y-84543566D01*
X196542017Y-84352490D01*
X196375010Y-84185483D01*
X196340372Y-84160317D01*
X196297707Y-84104989D01*
X196291728Y-84035375D01*
X196324333Y-83973580D01*
X196340373Y-83959682D01*
X196375010Y-83934517D01*
X196542017Y-83767510D01*
X196680843Y-83576433D01*
X196788068Y-83365992D01*
X196861053Y-83141368D01*
X196898000Y-82908097D01*
X196898000Y-82671902D01*
X196861053Y-82438631D01*
X196788066Y-82214003D01*
X196680842Y-82003566D01*
X196642351Y-81950588D01*
X196542017Y-81812490D01*
X196375010Y-81645483D01*
X196340372Y-81620317D01*
X196297707Y-81564989D01*
X196291728Y-81495375D01*
X196324333Y-81433580D01*
X196340373Y-81419682D01*
X196375010Y-81394517D01*
X196542017Y-81227510D01*
X196680843Y-81036433D01*
X196788068Y-80825992D01*
X196861053Y-80601368D01*
X196867273Y-80562098D01*
X196898000Y-80368097D01*
X196898000Y-80131902D01*
X196861053Y-79898631D01*
X196788066Y-79674003D01*
X196680842Y-79463566D01*
X196642351Y-79410588D01*
X196542017Y-79272490D01*
X196375010Y-79105483D01*
X196340372Y-79080317D01*
X196297707Y-79024989D01*
X196291728Y-78955375D01*
X196324333Y-78893580D01*
X196340373Y-78879682D01*
X196375010Y-78854517D01*
X196542017Y-78687510D01*
X196680843Y-78496433D01*
X196788068Y-78285992D01*
X196861053Y-78061368D01*
X196898000Y-77828097D01*
X196898000Y-77591902D01*
X196861053Y-77358631D01*
X196788066Y-77134003D01*
X196680842Y-76923566D01*
X196542017Y-76732490D01*
X196375010Y-76565483D01*
X196183933Y-76426657D01*
X195973496Y-76319433D01*
X195748868Y-76246446D01*
X195515597Y-76209500D01*
X195515592Y-76209500D01*
X195279408Y-76209500D01*
X195279403Y-76209500D01*
X195046131Y-76246446D01*
X194821503Y-76319433D01*
X194611066Y-76426657D01*
X194515911Y-76495792D01*
X194419990Y-76565483D01*
X194419988Y-76565485D01*
X194419987Y-76565485D01*
X194252985Y-76732487D01*
X194252985Y-76732488D01*
X194252983Y-76732490D01*
X194193362Y-76814550D01*
X194114157Y-76923566D01*
X194006933Y-77134003D01*
X193933946Y-77358631D01*
X193897000Y-77591902D01*
X193897000Y-77828097D01*
X193933946Y-78061368D01*
X194006933Y-78285996D01*
X194102702Y-78473952D01*
X194114157Y-78496433D01*
X194252983Y-78687510D01*
X194419990Y-78854517D01*
X194454627Y-78879683D01*
X194497292Y-78935013D01*
X194503271Y-79004626D01*
X194470665Y-79066421D01*
X194454630Y-79080315D01*
X194436865Y-79093222D01*
X194419988Y-79105484D01*
X194252985Y-79272487D01*
X194252985Y-79272488D01*
X194252983Y-79272490D01*
X194203175Y-79341045D01*
X194114157Y-79463566D01*
X194006933Y-79674003D01*
X193933946Y-79898631D01*
X193897000Y-80131902D01*
X193897000Y-80368097D01*
X193933946Y-80601368D01*
X194006933Y-80825996D01*
X194044440Y-80899606D01*
X194114157Y-81036433D01*
X194252983Y-81227510D01*
X194419990Y-81394517D01*
X194454627Y-81419683D01*
X194470190Y-81439865D01*
X194488744Y-81457340D01*
X194491168Y-81467071D01*
X194497292Y-81475013D01*
X194499472Y-81500402D01*
X194505635Y-81525137D01*
X194502412Y-81534635D01*
X194503271Y-81544626D01*
X194491377Y-81567166D01*
X194483190Y-81591303D01*
X194473388Y-81601259D01*
X194470665Y-81606421D01*
X194458992Y-81616996D01*
X194456843Y-81618707D01*
X194419990Y-81645483D01*
X194407339Y-81658133D01*
X194401862Y-81662496D01*
X194375731Y-81673144D01*
X194350969Y-81686666D01*
X194339534Y-81687895D01*
X194337158Y-81688864D01*
X194334731Y-81688411D01*
X194324611Y-81689500D01*
X189934111Y-81689500D01*
X189760889Y-81689500D01*
X189721228Y-81695781D01*
X189589802Y-81716597D01*
X189425052Y-81770128D01*
X189270711Y-81848768D01*
X189190756Y-81906859D01*
X189130572Y-81950586D01*
X189130570Y-81950588D01*
X189130569Y-81950588D01*
X181567938Y-89513219D01*
X181567938Y-89513220D01*
X181567936Y-89513222D01*
X181526257Y-89570588D01*
X181466118Y-89653361D01*
X181387478Y-89807702D01*
X181333947Y-89972452D01*
X181306850Y-90143539D01*
X181306850Y-95786265D01*
X181300854Y-95806684D01*
X181299639Y-95827935D01*
X181288309Y-95849407D01*
X181287165Y-95853304D01*
X181283168Y-95859151D01*
X181237668Y-95921776D01*
X181182338Y-95964441D01*
X181112724Y-95970420D01*
X181050929Y-95937814D01*
X181037032Y-95921776D01*
X180991532Y-95859151D01*
X180968052Y-95793344D01*
X180967850Y-95786265D01*
X180967850Y-89027353D01*
X180987535Y-88960314D01*
X181004164Y-88939677D01*
X188824376Y-81119464D01*
X188885697Y-81085981D01*
X188953009Y-81090104D01*
X189046455Y-81122803D01*
X189331214Y-81187798D01*
X189331223Y-81187799D01*
X189331228Y-81187800D01*
X189524710Y-81209599D01*
X189621453Y-81220499D01*
X189621456Y-81220500D01*
X189621459Y-81220500D01*
X189913544Y-81220500D01*
X189913545Y-81220499D01*
X190061871Y-81203787D01*
X190203771Y-81187800D01*
X190203774Y-81187799D01*
X190203786Y-81187798D01*
X190488545Y-81122803D01*
X190764237Y-81026335D01*
X191027393Y-80899605D01*
X191274706Y-80744208D01*
X191503065Y-80562098D01*
X191709598Y-80355565D01*
X191891708Y-80127206D01*
X192047105Y-79879893D01*
X192173835Y-79616737D01*
X192270303Y-79341045D01*
X192335298Y-79056286D01*
X192335860Y-79051303D01*
X192358031Y-78854517D01*
X192368000Y-78766041D01*
X192368000Y-78473959D01*
X192335298Y-78183714D01*
X192270303Y-77898955D01*
X192173835Y-77623263D01*
X192047105Y-77360107D01*
X191891708Y-77112794D01*
X191709598Y-76884435D01*
X191503065Y-76677902D01*
X191274706Y-76495792D01*
X191027393Y-76340395D01*
X191027390Y-76340393D01*
X190764238Y-76213665D01*
X190488546Y-76117197D01*
X190488544Y-76117196D01*
X190268780Y-76067036D01*
X190203786Y-76052202D01*
X190203783Y-76052201D01*
X190203771Y-76052199D01*
X189913547Y-76019500D01*
X189913541Y-76019500D01*
X189621459Y-76019500D01*
X189621452Y-76019500D01*
X189331228Y-76052199D01*
X189331214Y-76052202D01*
X189046455Y-76117196D01*
X189046453Y-76117197D01*
X188770761Y-76213665D01*
X188507609Y-76340393D01*
X188260295Y-76495791D01*
X188031935Y-76677901D01*
X187825401Y-76884435D01*
X187643291Y-77112795D01*
X187487893Y-77360109D01*
X187361165Y-77623261D01*
X187264697Y-77898953D01*
X187264696Y-77898955D01*
X187199702Y-78183714D01*
X187199699Y-78183728D01*
X187167000Y-78473952D01*
X187167000Y-78766047D01*
X187199699Y-79056271D01*
X187199701Y-79056283D01*
X187199702Y-79056286D01*
X187214536Y-79121280D01*
X187264696Y-79341044D01*
X187264700Y-79341056D01*
X187297393Y-79434487D01*
X187300955Y-79504266D01*
X187268033Y-79563123D01*
X179150422Y-87680736D01*
X179027938Y-87803219D01*
X179027938Y-87803220D01*
X179027936Y-87803222D01*
X179010944Y-87826610D01*
X178926118Y-87943361D01*
X178847478Y-88097702D01*
X178793947Y-88262452D01*
X178766850Y-88433539D01*
X178766850Y-95786265D01*
X178747165Y-95853304D01*
X178743168Y-95859151D01*
X178616508Y-96033482D01*
X178511997Y-96238594D01*
X178511996Y-96238597D01*
X178440862Y-96457529D01*
X178404850Y-96684899D01*
X178404850Y-96915100D01*
X178440862Y-97142470D01*
X178511996Y-97361402D01*
X178511997Y-97361405D01*
X178597350Y-97528917D01*
X178616508Y-97566517D01*
X178751818Y-97752755D01*
X178914595Y-97915532D01*
X178925704Y-97923603D01*
X178989126Y-97969682D01*
X179006302Y-97991958D01*
X179025909Y-98012132D01*
X179027352Y-98019257D01*
X179031791Y-98025013D01*
X179034198Y-98053038D01*
X179039785Y-98080610D01*
X179037147Y-98087383D01*
X179037770Y-98094626D01*
X179024642Y-98119505D01*
X179014437Y-98145719D01*
X179006994Y-98152951D01*
X179005164Y-98156421D01*
X178989126Y-98170317D01*
X178926502Y-98215817D01*
X178860696Y-98239298D01*
X178853616Y-98239500D01*
X172994704Y-98239500D01*
X172927665Y-98219815D01*
X172907023Y-98203181D01*
X171654319Y-96950477D01*
X171620834Y-96889154D01*
X171618000Y-96862796D01*
X171618000Y-94138711D01*
X172936850Y-94138711D01*
X172936850Y-94381288D01*
X172968511Y-94621785D01*
X173031297Y-94856104D01*
X173061409Y-94928800D01*
X173124126Y-95080212D01*
X173245414Y-95290289D01*
X173245416Y-95290292D01*
X173245417Y-95290293D01*
X173393083Y-95482736D01*
X173393089Y-95482743D01*
X173564606Y-95654260D01*
X173564613Y-95654266D01*
X173657698Y-95725692D01*
X173757061Y-95801936D01*
X173967138Y-95923224D01*
X174191250Y-96016054D01*
X174425561Y-96078838D01*
X174598254Y-96101573D01*
X174666061Y-96110500D01*
X174666062Y-96110500D01*
X174908639Y-96110500D01*
X174976446Y-96101573D01*
X175149139Y-96078838D01*
X175383450Y-96016054D01*
X175607562Y-95923224D01*
X175817639Y-95801936D01*
X176010088Y-95654265D01*
X176181615Y-95482738D01*
X176329286Y-95290289D01*
X176450574Y-95080212D01*
X176543404Y-94856100D01*
X176606188Y-94621789D01*
X176637850Y-94381288D01*
X176637850Y-94138712D01*
X176606188Y-93898211D01*
X176543404Y-93663900D01*
X176450574Y-93439788D01*
X176329286Y-93229711D01*
X176260351Y-93139873D01*
X176181616Y-93037263D01*
X176181610Y-93037256D01*
X176010093Y-92865739D01*
X176010086Y-92865733D01*
X175817643Y-92718067D01*
X175817642Y-92718066D01*
X175817639Y-92718064D01*
X175607562Y-92596776D01*
X175607555Y-92596773D01*
X175383454Y-92503947D01*
X175149135Y-92441161D01*
X174908639Y-92409500D01*
X174908638Y-92409500D01*
X174666062Y-92409500D01*
X174666061Y-92409500D01*
X174425564Y-92441161D01*
X174191245Y-92503947D01*
X173967144Y-92596773D01*
X173967135Y-92596777D01*
X173757056Y-92718067D01*
X173564613Y-92865733D01*
X173564606Y-92865739D01*
X173393089Y-93037256D01*
X173393083Y-93037263D01*
X173245417Y-93229706D01*
X173124127Y-93439785D01*
X173124123Y-93439794D01*
X173031297Y-93663895D01*
X172968511Y-93898214D01*
X172936850Y-94138711D01*
X171618000Y-94138711D01*
X171618000Y-91627204D01*
X171637685Y-91560165D01*
X171654319Y-91539523D01*
X187437023Y-75756819D01*
X187498346Y-75723334D01*
X187524704Y-75720500D01*
X240604110Y-75720500D01*
X240604111Y-75720500D01*
X240775201Y-75693402D01*
X240939945Y-75639873D01*
X241094288Y-75561232D01*
X241234428Y-75459414D01*
X244606914Y-72086928D01*
X244708732Y-71946788D01*
X244787373Y-71792445D01*
X244840902Y-71627701D01*
X244868000Y-71456611D01*
X244868000Y-71283389D01*
X244868000Y-58680889D01*
X244840902Y-58509799D01*
X244787373Y-58345055D01*
X244708732Y-58190712D01*
X244606914Y-58050572D01*
X244484428Y-57928086D01*
X241936928Y-55380586D01*
X241796788Y-55278768D01*
X241643314Y-55200570D01*
X241642447Y-55200128D01*
X241642446Y-55200127D01*
X241642445Y-55200127D01*
X241477701Y-55146598D01*
X241477699Y-55146597D01*
X241477698Y-55146597D01*
X241346271Y-55125781D01*
X241306611Y-55119500D01*
X241306610Y-55119500D01*
X240543600Y-55119500D01*
X240476561Y-55099815D01*
X240455919Y-55083181D01*
X240410081Y-55037343D01*
X240410076Y-55037339D01*
X240212642Y-54893896D01*
X240212641Y-54893895D01*
X240212639Y-54893894D01*
X239995185Y-54783096D01*
X239763076Y-54707679D01*
X239763074Y-54707678D01*
X239763072Y-54707678D01*
X239594769Y-54681021D01*
X239522027Y-54669500D01*
X239277973Y-54669500D01*
X239222093Y-54678350D01*
X239036927Y-54707678D01*
X238804812Y-54783097D01*
X238587357Y-54893896D01*
X238389923Y-55037339D01*
X238389918Y-55037343D01*
X238217343Y-55209918D01*
X238217339Y-55209923D01*
X238073896Y-55407357D01*
X237963097Y-55624812D01*
X237963096Y-55624814D01*
X237963096Y-55624815D01*
X237951729Y-55659799D01*
X237887678Y-55856927D01*
X237849500Y-56097973D01*
X237849500Y-56342026D01*
X237878472Y-56524950D01*
X237887679Y-56583076D01*
X237963096Y-56815185D01*
X238064660Y-57014517D01*
X238073896Y-57032642D01*
X238217339Y-57230076D01*
X238217343Y-57230081D01*
X238389581Y-57402319D01*
X238393919Y-57410264D01*
X238401167Y-57415690D01*
X238410401Y-57440449D01*
X238423066Y-57463642D01*
X238422420Y-57472671D01*
X238425584Y-57481154D01*
X238419967Y-57506974D01*
X238418082Y-57533334D01*
X238412263Y-57542387D01*
X238410732Y-57549427D01*
X238389581Y-57577681D01*
X238344081Y-57623181D01*
X238282758Y-57656666D01*
X238256400Y-57659500D01*
X237553388Y-57659500D01*
X237526290Y-57663791D01*
X237526289Y-57663790D01*
X237382303Y-57686596D01*
X237241578Y-57732321D01*
X237217553Y-57740127D01*
X237063219Y-57818764D01*
X237063215Y-57818766D01*
X237063212Y-57818768D01*
X237063208Y-57818771D01*
X237028055Y-57844311D01*
X236923079Y-57920579D01*
X236923074Y-57920583D01*
X235178088Y-59665569D01*
X235178088Y-59665570D01*
X235178086Y-59665572D01*
X235134359Y-59725756D01*
X235076268Y-59805711D01*
X234997628Y-59960052D01*
X234944097Y-60124802D01*
X234917000Y-60295889D01*
X234917000Y-69112796D01*
X234897315Y-69179835D01*
X234880681Y-69200477D01*
X232347977Y-71733181D01*
X232286654Y-71766666D01*
X232260296Y-71769500D01*
X185430885Y-71769500D01*
X185407493Y-71773204D01*
X185259804Y-71796596D01*
X185259802Y-71796596D01*
X185259799Y-71796597D01*
X185177427Y-71823362D01*
X185095050Y-71850128D01*
X184940719Y-71928764D01*
X184940715Y-71928766D01*
X184940712Y-71928768D01*
X184940708Y-71928771D01*
X184915908Y-71946789D01*
X184800579Y-72030579D01*
X184800574Y-72030583D01*
X167678088Y-89153069D01*
X167678088Y-89153070D01*
X167678086Y-89153072D01*
X167669692Y-89164626D01*
X167576268Y-89293211D01*
X167497628Y-89447552D01*
X167444097Y-89612302D01*
X167442313Y-89623566D01*
X167417000Y-89783389D01*
X167417000Y-98033389D01*
X167417000Y-98206611D01*
X167419829Y-98224470D01*
X167440659Y-98355992D01*
X167444098Y-98377701D01*
X167487996Y-98512805D01*
X167497628Y-98542447D01*
X167531420Y-98608768D01*
X167576268Y-98696788D01*
X167678086Y-98836928D01*
X171560572Y-102719414D01*
X171700712Y-102821232D01*
X171855055Y-102899873D01*
X172019799Y-102953402D01*
X172190889Y-102980500D01*
X172364111Y-102980500D01*
X178853616Y-102980500D01*
X178874037Y-102986496D01*
X178895287Y-102987712D01*
X178916754Y-102999039D01*
X178920655Y-103000185D01*
X178926502Y-103004183D01*
X178989126Y-103049683D01*
X179031792Y-103105013D01*
X179037770Y-103174626D01*
X179005163Y-103236421D01*
X178989126Y-103250318D01*
X178914593Y-103304469D01*
X178751820Y-103467242D01*
X178751820Y-103467243D01*
X178751818Y-103467245D01*
X178708646Y-103526666D01*
X178616508Y-103653482D01*
X178511997Y-103858594D01*
X178511996Y-103858597D01*
X178440862Y-104077529D01*
X178404850Y-104304899D01*
X178404850Y-104535100D01*
X178440862Y-104762470D01*
X178511996Y-104981402D01*
X178511997Y-104981405D01*
X178616164Y-105185842D01*
X178616508Y-105186517D01*
X178751818Y-105372755D01*
X178914595Y-105535532D01*
X179100833Y-105670842D01*
X179138433Y-105690000D01*
X179305944Y-105775352D01*
X179305947Y-105775353D01*
X179415413Y-105810920D01*
X179524881Y-105846488D01*
X179752249Y-105882500D01*
X179752250Y-105882500D01*
X179982450Y-105882500D01*
X179982451Y-105882500D01*
X180209819Y-105846488D01*
X180428755Y-105775352D01*
X180633867Y-105670842D01*
X180820105Y-105535532D01*
X180982882Y-105372755D01*
X181037032Y-105298223D01*
X181092362Y-105255558D01*
X181161975Y-105249579D01*
X181223770Y-105282185D01*
X181237667Y-105298223D01*
X181291818Y-105372755D01*
X181454595Y-105535532D01*
X181506383Y-105573158D01*
X181529126Y-105589682D01*
X181571791Y-105645013D01*
X181577770Y-105714626D01*
X181545164Y-105776421D01*
X181529126Y-105790318D01*
X181454593Y-105844469D01*
X181291820Y-106007242D01*
X181291820Y-106007243D01*
X181291818Y-106007245D01*
X181278566Y-106025485D01*
X181156508Y-106193482D01*
X181051997Y-106398594D01*
X181051996Y-106398597D01*
X180980862Y-106617529D01*
X180944850Y-106844899D01*
X180944850Y-107075100D01*
X180980862Y-107302470D01*
X181051996Y-107521402D01*
X181051997Y-107521405D01*
X181137350Y-107688917D01*
X181156508Y-107726517D01*
X181291818Y-107912755D01*
X181454595Y-108075532D01*
X181529126Y-108129682D01*
X181571791Y-108185013D01*
X181577770Y-108254626D01*
X181545164Y-108316421D01*
X181529126Y-108330318D01*
X181454593Y-108384469D01*
X181291819Y-108547243D01*
X181237668Y-108621776D01*
X181182337Y-108664441D01*
X181112724Y-108670420D01*
X181050929Y-108637814D01*
X181037032Y-108621776D01*
X180996133Y-108565484D01*
X180982882Y-108547245D01*
X180820105Y-108384468D01*
X180633867Y-108249158D01*
X180428755Y-108144647D01*
X180428752Y-108144646D01*
X180209820Y-108073512D01*
X180096135Y-108055506D01*
X179982451Y-108037500D01*
X179752249Y-108037500D01*
X179676459Y-108049504D01*
X179524879Y-108073512D01*
X179305947Y-108144646D01*
X179305944Y-108144647D01*
X179100832Y-108249158D01*
X178994577Y-108326357D01*
X178914595Y-108384468D01*
X178914593Y-108384470D01*
X178914592Y-108384470D01*
X178751820Y-108547242D01*
X178751820Y-108547243D01*
X178751818Y-108547245D01*
X178738567Y-108565484D01*
X178616508Y-108733482D01*
X178511997Y-108938594D01*
X178511996Y-108938597D01*
X178440862Y-109157529D01*
X178404850Y-109384899D01*
X178404850Y-109615100D01*
X178440862Y-109842470D01*
X178511996Y-110061402D01*
X178511997Y-110061405D01*
X178597350Y-110228917D01*
X178616508Y-110266517D01*
X178751818Y-110452755D01*
X178914595Y-110615532D01*
X178934071Y-110629682D01*
X178989126Y-110669682D01*
X179006302Y-110691958D01*
X179025909Y-110712132D01*
X179027352Y-110719257D01*
X179031791Y-110725013D01*
X179034198Y-110753038D01*
X179039785Y-110780610D01*
X179037147Y-110787383D01*
X179037770Y-110794626D01*
X179024642Y-110819505D01*
X179014437Y-110845719D01*
X179006994Y-110852951D01*
X179005164Y-110856421D01*
X178989126Y-110870317D01*
X178926502Y-110915817D01*
X178860696Y-110939298D01*
X178853616Y-110939500D01*
X155944704Y-110939500D01*
X155877665Y-110919815D01*
X155857023Y-110903181D01*
X111177794Y-66223952D01*
X192917000Y-66223952D01*
X192917000Y-66516047D01*
X192949699Y-66806271D01*
X192949702Y-66806285D01*
X193014696Y-67091044D01*
X193014697Y-67091046D01*
X193111164Y-67366735D01*
X193237893Y-67629890D01*
X193237895Y-67629893D01*
X193393292Y-67877206D01*
X193575402Y-68105565D01*
X193781935Y-68312098D01*
X194010294Y-68494208D01*
X194257607Y-68649605D01*
X194520763Y-68776335D01*
X194796455Y-68872803D01*
X195081214Y-68937798D01*
X195081223Y-68937799D01*
X195081228Y-68937800D01*
X195274710Y-68959599D01*
X195371453Y-68970499D01*
X195371456Y-68970500D01*
X195371459Y-68970500D01*
X195663544Y-68970500D01*
X195663545Y-68970499D01*
X195811871Y-68953787D01*
X195953771Y-68937800D01*
X195953774Y-68937799D01*
X195953786Y-68937798D01*
X196238545Y-68872803D01*
X196514237Y-68776335D01*
X196777393Y-68649605D01*
X197024706Y-68494208D01*
X197253065Y-68312098D01*
X197459598Y-68105565D01*
X197641708Y-67877206D01*
X197797105Y-67629893D01*
X197797108Y-67629887D01*
X197840059Y-67540699D01*
X197886881Y-67488839D01*
X197951779Y-67470500D01*
X204247036Y-67470500D01*
X204314075Y-67490185D01*
X204359830Y-67542989D01*
X204366252Y-67560390D01*
X204370261Y-67574402D01*
X204370262Y-67574404D01*
X204370263Y-67574407D01*
X204459766Y-67745751D01*
X204581928Y-67895572D01*
X204731749Y-68017734D01*
X204903093Y-68107237D01*
X205088947Y-68160417D01*
X205202361Y-68170500D01*
X207012638Y-68170499D01*
X207126053Y-68160417D01*
X207311907Y-68107237D01*
X207483251Y-68017734D01*
X207633072Y-67895572D01*
X207755234Y-67745751D01*
X207844737Y-67574407D01*
X207897917Y-67388553D01*
X207908000Y-67275139D01*
X207907999Y-65464862D01*
X207897917Y-65351447D01*
X207844737Y-65165593D01*
X207755234Y-64994249D01*
X207633072Y-64844428D01*
X207483251Y-64722266D01*
X207311907Y-64632763D01*
X207311904Y-64632762D01*
X207297884Y-64628750D01*
X207238848Y-64591380D01*
X207209386Y-64528026D01*
X207208000Y-64509535D01*
X207208000Y-62787204D01*
X207227685Y-62720165D01*
X207244319Y-62699523D01*
X207437023Y-62506819D01*
X207498346Y-62473334D01*
X207524704Y-62470500D01*
X218193000Y-62470500D01*
X218201685Y-62473050D01*
X218210647Y-62471762D01*
X218234687Y-62482740D01*
X218260039Y-62490185D01*
X218265966Y-62497025D01*
X218274203Y-62500787D01*
X218288492Y-62523021D01*
X218305794Y-62542989D01*
X218308081Y-62553503D01*
X218311977Y-62559565D01*
X218317000Y-62594500D01*
X218317000Y-62797111D01*
X218297315Y-62864150D01*
X218280681Y-62884792D01*
X218272985Y-62892487D01*
X218272985Y-62892488D01*
X218272983Y-62892490D01*
X218213362Y-62974550D01*
X218134157Y-63083566D01*
X218026933Y-63294003D01*
X217953946Y-63518631D01*
X217917000Y-63751902D01*
X217917000Y-63988097D01*
X217953946Y-64221368D01*
X218026933Y-64445996D01*
X218122948Y-64634435D01*
X218134157Y-64656433D01*
X218272983Y-64847510D01*
X218439990Y-65014517D01*
X218631067Y-65153343D01*
X218682619Y-65179610D01*
X218841503Y-65260566D01*
X218841505Y-65260566D01*
X218841508Y-65260568D01*
X218961912Y-65299689D01*
X219066131Y-65333553D01*
X219299403Y-65370500D01*
X219299408Y-65370500D01*
X219535597Y-65370500D01*
X219768868Y-65333553D01*
X219993492Y-65260568D01*
X220203933Y-65153343D01*
X220395010Y-65014517D01*
X220562017Y-64847510D01*
X220700843Y-64656433D01*
X220808068Y-64445992D01*
X220881053Y-64221368D01*
X220891699Y-64154154D01*
X220918000Y-63988097D01*
X220918000Y-63751902D01*
X220881053Y-63518631D01*
X220808066Y-63294003D01*
X220700842Y-63083566D01*
X220662351Y-63030588D01*
X220562017Y-62892490D01*
X220554319Y-62884792D01*
X220520834Y-62823469D01*
X220518000Y-62797111D01*
X220518000Y-61933389D01*
X220505989Y-61857555D01*
X220490902Y-61762299D01*
X220437373Y-61597555D01*
X220358732Y-61443212D01*
X220256914Y-61303072D01*
X220134428Y-61180586D01*
X219484428Y-60530586D01*
X219344288Y-60428768D01*
X219189945Y-60350127D01*
X219025201Y-60296598D01*
X219025199Y-60296597D01*
X219025198Y-60296597D01*
X218893771Y-60275781D01*
X218854111Y-60269500D01*
X207104110Y-60269500D01*
X206930889Y-60269500D01*
X206845344Y-60283049D01*
X206759798Y-60296598D01*
X206595049Y-60350128D01*
X206440711Y-60428768D01*
X206360756Y-60486859D01*
X206300572Y-60530586D01*
X206300570Y-60530588D01*
X206300569Y-60530588D01*
X205268088Y-61563069D01*
X205268088Y-61563070D01*
X205268086Y-61563072D01*
X205243035Y-61597552D01*
X205166268Y-61703211D01*
X205087628Y-61857552D01*
X205034097Y-62022302D01*
X205007000Y-62193389D01*
X205007000Y-64509535D01*
X204987315Y-64576574D01*
X204934511Y-64622329D01*
X204917116Y-64628750D01*
X204903095Y-64632762D01*
X204903093Y-64632762D01*
X204903093Y-64632763D01*
X204731749Y-64722266D01*
X204731747Y-64722267D01*
X204731746Y-64722268D01*
X204581928Y-64844428D01*
X204463080Y-64990185D01*
X204459766Y-64994249D01*
X204376662Y-65153343D01*
X204370261Y-65165597D01*
X204366252Y-65179610D01*
X204328886Y-65238648D01*
X204265533Y-65268113D01*
X204247036Y-65269500D01*
X197951779Y-65269500D01*
X197884740Y-65249815D01*
X197840059Y-65199301D01*
X197797108Y-65110112D01*
X197783942Y-65089158D01*
X197641708Y-64862794D01*
X197459598Y-64634435D01*
X197253065Y-64427902D01*
X197024706Y-64245792D01*
X196777393Y-64090395D01*
X196777390Y-64090393D01*
X196514238Y-63963665D01*
X196238546Y-63867197D01*
X196238544Y-63867196D01*
X196018780Y-63817036D01*
X195953786Y-63802202D01*
X195953783Y-63802201D01*
X195953771Y-63802199D01*
X195663547Y-63769500D01*
X195663541Y-63769500D01*
X195371459Y-63769500D01*
X195371452Y-63769500D01*
X195081228Y-63802199D01*
X195081214Y-63802202D01*
X194796455Y-63867196D01*
X194796453Y-63867197D01*
X194520761Y-63963665D01*
X194257609Y-64090393D01*
X194010295Y-64245791D01*
X193781935Y-64427901D01*
X193575401Y-64634435D01*
X193393291Y-64862795D01*
X193237893Y-65110109D01*
X193111165Y-65373261D01*
X193014697Y-65648953D01*
X193014696Y-65648955D01*
X192949702Y-65933714D01*
X192949699Y-65933728D01*
X192917000Y-66223952D01*
X111177794Y-66223952D01*
X109169319Y-64215477D01*
X109135834Y-64154154D01*
X109133000Y-64127796D01*
X109133000Y-55664311D01*
X109152685Y-55597272D01*
X109169319Y-55576630D01*
X109253293Y-55492656D01*
X109401370Y-55288845D01*
X109515741Y-55064379D01*
X109593590Y-54824785D01*
X109633000Y-54575962D01*
X109633000Y-52524038D01*
X111512000Y-52524038D01*
X111512000Y-54575961D01*
X111551410Y-54824785D01*
X111629260Y-55064383D01*
X111675502Y-55155136D01*
X111733290Y-55268552D01*
X111743632Y-55288848D01*
X111891701Y-55492649D01*
X111891705Y-55492654D01*
X112069845Y-55670794D01*
X112069850Y-55670798D01*
X112167457Y-55741713D01*
X112273655Y-55818870D01*
X112374463Y-55870234D01*
X112498116Y-55933239D01*
X112498118Y-55933239D01*
X112498121Y-55933241D01*
X112737715Y-56011090D01*
X112986538Y-56050500D01*
X112986539Y-56050500D01*
X113238461Y-56050500D01*
X113238462Y-56050500D01*
X113487285Y-56011090D01*
X113726879Y-55933241D01*
X113951345Y-55818870D01*
X114155156Y-55670793D01*
X114333293Y-55492656D01*
X114481370Y-55288845D01*
X114595741Y-55064379D01*
X114673590Y-54824785D01*
X114713000Y-54575962D01*
X114713000Y-52524038D01*
X114673590Y-52275215D01*
X114595741Y-52035621D01*
X114595739Y-52035618D01*
X114595739Y-52035616D01*
X114576780Y-51998408D01*
X114558982Y-51963478D01*
X114549497Y-51944863D01*
X139159500Y-51944863D01*
X139159500Y-55155136D01*
X139169582Y-55268548D01*
X139169582Y-55268551D01*
X139169583Y-55268552D01*
X139176866Y-55294003D01*
X139222762Y-55454405D01*
X139243996Y-55495055D01*
X139312266Y-55625751D01*
X139326570Y-55643293D01*
X139434428Y-55775571D01*
X139502271Y-55830889D01*
X139584249Y-55897734D01*
X139755594Y-55987237D01*
X139941448Y-56040417D01*
X140054862Y-56050500D01*
X140054870Y-56050500D01*
X141465130Y-56050500D01*
X141465138Y-56050500D01*
X141578552Y-56040417D01*
X141764406Y-55987237D01*
X141935751Y-55897734D01*
X142085571Y-55775571D01*
X142207734Y-55625751D01*
X142297237Y-55454406D01*
X142350417Y-55268552D01*
X142360500Y-55155138D01*
X142360500Y-52524038D01*
X144239500Y-52524038D01*
X144239500Y-54575961D01*
X144278910Y-54824785D01*
X144356760Y-55064383D01*
X144403002Y-55155136D01*
X144460790Y-55268552D01*
X144471132Y-55288848D01*
X144619201Y-55492649D01*
X144619205Y-55492654D01*
X144797345Y-55670794D01*
X144797350Y-55670798D01*
X144894957Y-55741713D01*
X145001155Y-55818870D01*
X145101963Y-55870234D01*
X145225616Y-55933239D01*
X145225618Y-55933239D01*
X145225621Y-55933241D01*
X145465215Y-56011090D01*
X145714038Y-56050500D01*
X145714039Y-56050500D01*
X145965961Y-56050500D01*
X145965962Y-56050500D01*
X146214785Y-56011090D01*
X146454379Y-55933241D01*
X146678845Y-55818870D01*
X146882656Y-55670793D01*
X147060793Y-55492656D01*
X147208870Y-55288845D01*
X147323241Y-55064379D01*
X147401090Y-54824785D01*
X147440500Y-54575962D01*
X147440500Y-52524038D01*
X147401090Y-52275215D01*
X147323241Y-52035621D01*
X147323239Y-52035618D01*
X147323239Y-52035616D01*
X147304280Y-51998408D01*
X147286482Y-51963478D01*
X147276997Y-51944863D01*
X169347000Y-51944863D01*
X169347000Y-55155136D01*
X169357082Y-55268548D01*
X169357082Y-55268551D01*
X169357083Y-55268552D01*
X169364366Y-55294003D01*
X169410262Y-55454405D01*
X169431496Y-55495055D01*
X169499766Y-55625751D01*
X169514070Y-55643293D01*
X169621928Y-55775571D01*
X169689771Y-55830889D01*
X169771749Y-55897734D01*
X169943094Y-55987237D01*
X170128948Y-56040417D01*
X170242362Y-56050500D01*
X170242370Y-56050500D01*
X171652630Y-56050500D01*
X171652638Y-56050500D01*
X171766052Y-56040417D01*
X171951906Y-55987237D01*
X172123251Y-55897734D01*
X172273071Y-55775571D01*
X172395234Y-55625751D01*
X172484737Y-55454406D01*
X172537917Y-55268552D01*
X172548000Y-55155138D01*
X172548000Y-52524038D01*
X174427000Y-52524038D01*
X174427000Y-54575961D01*
X174466410Y-54824785D01*
X174544260Y-55064383D01*
X174590502Y-55155136D01*
X174648290Y-55268552D01*
X174658632Y-55288848D01*
X174806701Y-55492649D01*
X174806705Y-55492654D01*
X174984845Y-55670794D01*
X174984850Y-55670798D01*
X175082457Y-55741713D01*
X175188655Y-55818870D01*
X175289463Y-55870234D01*
X175413116Y-55933239D01*
X175413118Y-55933239D01*
X175413121Y-55933241D01*
X175652715Y-56011090D01*
X175901538Y-56050500D01*
X175901539Y-56050500D01*
X176153461Y-56050500D01*
X176153462Y-56050500D01*
X176402285Y-56011090D01*
X176641879Y-55933241D01*
X176866345Y-55818870D01*
X177070156Y-55670793D01*
X177248293Y-55492656D01*
X177396370Y-55288845D01*
X177510741Y-55064379D01*
X177588590Y-54824785D01*
X177628000Y-54575962D01*
X177628000Y-52524038D01*
X179507000Y-52524038D01*
X179507000Y-54575961D01*
X179546410Y-54824785D01*
X179624260Y-55064383D01*
X179670502Y-55155136D01*
X179728290Y-55268552D01*
X179738632Y-55288848D01*
X179886701Y-55492649D01*
X179886705Y-55492654D01*
X180064845Y-55670794D01*
X180064850Y-55670798D01*
X180162457Y-55741713D01*
X180268655Y-55818870D01*
X180369463Y-55870234D01*
X180493116Y-55933239D01*
X180493118Y-55933239D01*
X180493121Y-55933241D01*
X180732715Y-56011090D01*
X180981538Y-56050500D01*
X180981539Y-56050500D01*
X181233461Y-56050500D01*
X181233462Y-56050500D01*
X181482285Y-56011090D01*
X181721879Y-55933241D01*
X181946345Y-55818870D01*
X182150156Y-55670793D01*
X182328293Y-55492656D01*
X182476370Y-55288845D01*
X182590741Y-55064379D01*
X182668590Y-54824785D01*
X182708000Y-54575962D01*
X182708000Y-52524038D01*
X182668590Y-52275215D01*
X182590741Y-52035621D01*
X182590739Y-52035618D01*
X182590739Y-52035616D01*
X182544501Y-51944869D01*
X182476370Y-51811155D01*
X182434075Y-51752941D01*
X182328298Y-51607350D01*
X182328294Y-51607345D01*
X182150154Y-51429205D01*
X182150149Y-51429201D01*
X181946348Y-51281132D01*
X181946347Y-51281131D01*
X181946345Y-51281130D01*
X181876247Y-51245413D01*
X181721883Y-51166760D01*
X181482285Y-51088910D01*
X181376808Y-51072204D01*
X181233462Y-51049500D01*
X180981538Y-51049500D01*
X180857126Y-51069205D01*
X180732714Y-51088910D01*
X180493116Y-51166760D01*
X180268651Y-51281132D01*
X180064850Y-51429201D01*
X180064845Y-51429205D01*
X179886705Y-51607345D01*
X179886701Y-51607350D01*
X179738632Y-51811151D01*
X179624260Y-52035616D01*
X179546410Y-52275214D01*
X179507000Y-52524038D01*
X177628000Y-52524038D01*
X177588590Y-52275215D01*
X177510741Y-52035621D01*
X177510739Y-52035618D01*
X177510739Y-52035616D01*
X177464501Y-51944869D01*
X177396370Y-51811155D01*
X177354075Y-51752941D01*
X177248298Y-51607350D01*
X177248294Y-51607345D01*
X177070154Y-51429205D01*
X177070149Y-51429201D01*
X176866348Y-51281132D01*
X176866347Y-51281131D01*
X176866345Y-51281130D01*
X176796247Y-51245413D01*
X176641883Y-51166760D01*
X176402285Y-51088910D01*
X176296808Y-51072204D01*
X176153462Y-51049500D01*
X175901538Y-51049500D01*
X175777126Y-51069205D01*
X175652714Y-51088910D01*
X175413116Y-51166760D01*
X175188651Y-51281132D01*
X174984850Y-51429201D01*
X174984845Y-51429205D01*
X174806705Y-51607345D01*
X174806701Y-51607350D01*
X174658632Y-51811151D01*
X174544260Y-52035616D01*
X174466410Y-52275214D01*
X174427000Y-52524038D01*
X172548000Y-52524038D01*
X172548000Y-51944862D01*
X172537917Y-51831448D01*
X172484737Y-51645594D01*
X172395234Y-51474249D01*
X172315622Y-51376613D01*
X172273071Y-51324428D01*
X172161999Y-51233861D01*
X172123251Y-51202266D01*
X172055278Y-51166760D01*
X171951905Y-51112762D01*
X171797345Y-51068537D01*
X171766052Y-51059583D01*
X171766051Y-51059582D01*
X171766048Y-51059582D01*
X171677162Y-51051680D01*
X171652638Y-51049500D01*
X170242362Y-51049500D01*
X170230099Y-51050590D01*
X170128951Y-51059582D01*
X169943094Y-51112762D01*
X169771750Y-51202265D01*
X169621928Y-51324428D01*
X169499765Y-51474250D01*
X169410262Y-51645594D01*
X169357082Y-51831451D01*
X169347000Y-51944863D01*
X147276997Y-51944863D01*
X147208870Y-51811155D01*
X147166575Y-51752941D01*
X147060798Y-51607350D01*
X147060794Y-51607345D01*
X146882654Y-51429205D01*
X146882649Y-51429201D01*
X146678848Y-51281132D01*
X146678847Y-51281131D01*
X146678845Y-51281130D01*
X146608747Y-51245413D01*
X146454383Y-51166760D01*
X146214785Y-51088910D01*
X146109308Y-51072204D01*
X145965962Y-51049500D01*
X145714038Y-51049500D01*
X145589626Y-51069205D01*
X145465214Y-51088910D01*
X145225616Y-51166760D01*
X145001151Y-51281132D01*
X144797350Y-51429201D01*
X144797345Y-51429205D01*
X144619205Y-51607345D01*
X144619201Y-51607350D01*
X144471132Y-51811151D01*
X144356760Y-52035616D01*
X144278910Y-52275214D01*
X144239500Y-52524038D01*
X142360500Y-52524038D01*
X142360500Y-51944862D01*
X142350417Y-51831448D01*
X142297237Y-51645594D01*
X142207734Y-51474249D01*
X142128122Y-51376613D01*
X142085571Y-51324428D01*
X141974499Y-51233861D01*
X141935751Y-51202266D01*
X141867778Y-51166760D01*
X141764405Y-51112762D01*
X141609845Y-51068537D01*
X141578552Y-51059583D01*
X141578551Y-51059582D01*
X141578548Y-51059582D01*
X141489662Y-51051680D01*
X141465138Y-51049500D01*
X140054862Y-51049500D01*
X140042599Y-51050590D01*
X139941451Y-51059582D01*
X139755594Y-51112762D01*
X139584250Y-51202265D01*
X139434428Y-51324428D01*
X139312265Y-51474250D01*
X139222762Y-51645594D01*
X139169582Y-51831451D01*
X139159500Y-51944863D01*
X114549497Y-51944863D01*
X114481370Y-51811155D01*
X114439075Y-51752941D01*
X114333298Y-51607350D01*
X114333294Y-51607345D01*
X114155154Y-51429205D01*
X114155149Y-51429201D01*
X113951348Y-51281132D01*
X113951347Y-51281131D01*
X113951345Y-51281130D01*
X113881247Y-51245413D01*
X113726883Y-51166760D01*
X113487285Y-51088910D01*
X113381808Y-51072204D01*
X113238462Y-51049500D01*
X112986538Y-51049500D01*
X112862126Y-51069205D01*
X112737714Y-51088910D01*
X112498116Y-51166760D01*
X112273651Y-51281132D01*
X112069850Y-51429201D01*
X112069845Y-51429205D01*
X111891705Y-51607345D01*
X111891701Y-51607350D01*
X111743632Y-51811151D01*
X111629260Y-52035616D01*
X111551410Y-52275214D01*
X111512000Y-52524038D01*
X109633000Y-52524038D01*
X109593590Y-52275215D01*
X109515741Y-52035621D01*
X109515739Y-52035618D01*
X109515739Y-52035616D01*
X109469501Y-51944869D01*
X109401370Y-51811155D01*
X109359075Y-51752941D01*
X109253298Y-51607350D01*
X109253294Y-51607345D01*
X109075154Y-51429205D01*
X109075149Y-51429201D01*
X108871348Y-51281132D01*
X108871347Y-51281131D01*
X108871345Y-51281130D01*
X108801247Y-51245413D01*
X108646883Y-51166760D01*
X108407285Y-51088910D01*
X108301808Y-51072204D01*
X108158462Y-51049500D01*
X107906538Y-51049500D01*
X107782126Y-51069205D01*
X107657714Y-51088910D01*
X107418116Y-51166760D01*
X107193651Y-51281132D01*
X106989850Y-51429201D01*
X106989845Y-51429205D01*
X106811705Y-51607345D01*
X106811701Y-51607350D01*
X106663632Y-51811151D01*
X106549260Y-52035616D01*
X106471410Y-52275214D01*
X106432000Y-52524038D01*
X104553000Y-52524038D01*
X104553000Y-51944862D01*
X104542917Y-51831448D01*
X104489737Y-51645594D01*
X104400234Y-51474249D01*
X104320622Y-51376613D01*
X104278071Y-51324428D01*
X104166999Y-51233861D01*
X104128251Y-51202266D01*
X104060278Y-51166760D01*
X103956905Y-51112762D01*
X103802345Y-51068537D01*
X103771052Y-51059583D01*
X103771051Y-51059582D01*
X103771048Y-51059582D01*
X103682162Y-51051680D01*
X103657638Y-51049500D01*
X102247362Y-51049500D01*
X102235099Y-51050590D01*
X102133951Y-51059582D01*
X101948094Y-51112762D01*
X101776750Y-51202265D01*
X101626928Y-51324428D01*
X101504765Y-51474250D01*
X101415262Y-51645594D01*
X101362082Y-51831451D01*
X101352000Y-51944863D01*
X81785500Y-51944863D01*
X81785500Y-51944862D01*
X81775417Y-51831448D01*
X81722237Y-51645594D01*
X81632734Y-51474249D01*
X81553122Y-51376613D01*
X81510571Y-51324428D01*
X81399499Y-51233861D01*
X81360751Y-51202266D01*
X81359577Y-51201652D01*
X81352087Y-51197740D01*
X81341576Y-51187609D01*
X81328297Y-51181545D01*
X81316924Y-51163848D01*
X81301781Y-51149253D01*
X81297734Y-51133989D01*
X81290523Y-51122767D01*
X81285500Y-51087832D01*
X81285500Y-51072204D01*
X81305185Y-51005165D01*
X81321819Y-50984523D01*
X84369523Y-47936819D01*
X84430846Y-47903334D01*
X84457204Y-47900500D01*
X191442796Y-47900500D01*
X191509835Y-47920185D01*
X191530477Y-47936819D01*
X197833086Y-54239428D01*
X197955572Y-54361914D01*
X198095712Y-54463732D01*
X198250055Y-54542373D01*
X198414799Y-54595902D01*
X198585889Y-54623000D01*
X198585890Y-54623000D01*
X198759111Y-54623000D01*
X203765500Y-54623000D01*
X203832539Y-54642685D01*
X203878294Y-54695489D01*
X203889500Y-54747000D01*
X203889500Y-55127636D01*
X203899582Y-55241048D01*
X203899582Y-55241051D01*
X203899583Y-55241052D01*
X203907451Y-55268548D01*
X203952762Y-55426905D01*
X204030972Y-55576630D01*
X204042266Y-55598251D01*
X204064691Y-55625753D01*
X204164428Y-55748071D01*
X204235606Y-55806109D01*
X204314249Y-55870234D01*
X204485594Y-55959737D01*
X204671448Y-56012917D01*
X204784862Y-56023000D01*
X204784870Y-56023000D01*
X206195130Y-56023000D01*
X206195138Y-56023000D01*
X206308552Y-56012917D01*
X206494406Y-55959737D01*
X206665751Y-55870234D01*
X206815571Y-55748071D01*
X206937734Y-55598251D01*
X207027237Y-55426906D01*
X207080417Y-55241052D01*
X207090500Y-55127638D01*
X207090500Y-54725570D01*
X207110185Y-54658531D01*
X207162989Y-54612776D01*
X207195095Y-54603098D01*
X207240535Y-54595902D01*
X207405279Y-54542373D01*
X207559622Y-54463732D01*
X207699762Y-54361914D01*
X208757819Y-53303857D01*
X208819142Y-53270372D01*
X208888834Y-53275356D01*
X208944767Y-53317228D01*
X208969184Y-53382692D01*
X208969500Y-53391538D01*
X208969500Y-54548462D01*
X208980778Y-54619665D01*
X209008910Y-54797285D01*
X209086760Y-55036883D01*
X209147011Y-55155130D01*
X209190790Y-55241052D01*
X209201132Y-55261348D01*
X209349201Y-55465149D01*
X209349205Y-55465154D01*
X209527345Y-55643294D01*
X209527350Y-55643298D01*
X209565201Y-55670798D01*
X209731155Y-55791370D01*
X209859812Y-55856924D01*
X209955616Y-55905739D01*
X209955618Y-55905739D01*
X209955621Y-55905741D01*
X210195215Y-55983590D01*
X210444038Y-56023000D01*
X210444039Y-56023000D01*
X210695961Y-56023000D01*
X210695962Y-56023000D01*
X210944785Y-55983590D01*
X211184379Y-55905741D01*
X211408845Y-55791370D01*
X211612656Y-55643293D01*
X211790793Y-55465156D01*
X211938870Y-55261345D01*
X212053241Y-55036879D01*
X212131090Y-54797285D01*
X212133337Y-54783096D01*
X212142127Y-54727602D01*
X212172056Y-54664467D01*
X212231368Y-54627536D01*
X212264600Y-54623000D01*
X213955400Y-54623000D01*
X214022439Y-54642685D01*
X214068194Y-54695489D01*
X214077873Y-54727602D01*
X214088909Y-54797285D01*
X214166760Y-55036883D01*
X214227011Y-55155130D01*
X214270790Y-55241052D01*
X214281132Y-55261348D01*
X214429201Y-55465149D01*
X214429205Y-55465154D01*
X214607345Y-55643294D01*
X214607350Y-55643298D01*
X214645201Y-55670798D01*
X214811155Y-55791370D01*
X214939812Y-55856924D01*
X215035616Y-55905739D01*
X215035618Y-55905739D01*
X215035621Y-55905741D01*
X215275215Y-55983590D01*
X215524038Y-56023000D01*
X215524039Y-56023000D01*
X215775961Y-56023000D01*
X215775962Y-56023000D01*
X216024785Y-55983590D01*
X216264379Y-55905741D01*
X216488845Y-55791370D01*
X216692656Y-55643293D01*
X216870793Y-55465156D01*
X217018870Y-55261345D01*
X217133241Y-55036879D01*
X217211090Y-54797285D01*
X217213337Y-54783096D01*
X217222127Y-54727602D01*
X217252056Y-54664467D01*
X217311368Y-54627536D01*
X217344600Y-54623000D01*
X219035400Y-54623000D01*
X219102439Y-54642685D01*
X219148194Y-54695489D01*
X219157873Y-54727602D01*
X219168909Y-54797285D01*
X219246760Y-55036883D01*
X219307011Y-55155130D01*
X219350790Y-55241052D01*
X219361132Y-55261348D01*
X219509201Y-55465149D01*
X219509205Y-55465154D01*
X219687345Y-55643294D01*
X219687350Y-55643298D01*
X219725201Y-55670798D01*
X219891155Y-55791370D01*
X220019812Y-55856924D01*
X220115616Y-55905739D01*
X220115618Y-55905739D01*
X220115621Y-55905741D01*
X220355215Y-55983590D01*
X220604038Y-56023000D01*
X220604039Y-56023000D01*
X220855961Y-56023000D01*
X220855962Y-56023000D01*
X221104785Y-55983590D01*
X221344379Y-55905741D01*
X221568845Y-55791370D01*
X221772656Y-55643293D01*
X221950793Y-55465156D01*
X222098870Y-55261345D01*
X222213241Y-55036879D01*
X222291090Y-54797285D01*
X222293337Y-54783096D01*
X222302127Y-54727602D01*
X222332056Y-54664467D01*
X222391368Y-54627536D01*
X222424600Y-54623000D01*
X229215296Y-54623000D01*
X229282335Y-54642685D01*
X229302977Y-54659319D01*
X230980681Y-56337023D01*
X231014166Y-56398346D01*
X231017000Y-56424704D01*
X231017000Y-62645500D01*
X230997315Y-62712539D01*
X230944511Y-62758294D01*
X230893000Y-62769500D01*
X227854110Y-62769500D01*
X227680889Y-62769500D01*
X227595344Y-62783049D01*
X227509798Y-62796598D01*
X227345049Y-62850128D01*
X227190711Y-62928768D01*
X227110756Y-62986859D01*
X227050572Y-63030586D01*
X227050570Y-63030588D01*
X227050569Y-63030588D01*
X222597977Y-67483181D01*
X222536654Y-67516666D01*
X222510296Y-67519500D01*
X220410389Y-67519500D01*
X220343350Y-67499815D01*
X220322708Y-67483181D01*
X220315012Y-67475485D01*
X220315010Y-67475483D01*
X220123933Y-67336657D01*
X219913496Y-67229433D01*
X219688868Y-67156446D01*
X219455597Y-67119500D01*
X219455592Y-67119500D01*
X219219408Y-67119500D01*
X219219403Y-67119500D01*
X218986131Y-67156446D01*
X218761503Y-67229433D01*
X218551066Y-67336657D01*
X218442050Y-67415862D01*
X218359990Y-67475483D01*
X218359988Y-67475485D01*
X218359987Y-67475485D01*
X218192985Y-67642487D01*
X218192985Y-67642488D01*
X218192983Y-67642490D01*
X218133362Y-67724550D01*
X218054157Y-67833566D01*
X217946933Y-68044003D01*
X217873946Y-68268631D01*
X217837000Y-68501902D01*
X217837000Y-68738097D01*
X217873946Y-68971368D01*
X217946933Y-69195996D01*
X218054157Y-69406433D01*
X218192983Y-69597510D01*
X218359990Y-69764517D01*
X218551067Y-69903343D01*
X218629687Y-69943402D01*
X218761503Y-70010566D01*
X218761505Y-70010566D01*
X218761508Y-70010568D01*
X218859615Y-70042445D01*
X218986131Y-70083553D01*
X219219403Y-70120500D01*
X219219408Y-70120500D01*
X219455597Y-70120500D01*
X219688868Y-70083553D01*
X219913492Y-70010568D01*
X220123933Y-69903343D01*
X220315010Y-69764517D01*
X220322708Y-69756819D01*
X220384031Y-69723334D01*
X220410389Y-69720500D01*
X223104110Y-69720500D01*
X223104111Y-69720500D01*
X223275201Y-69693402D01*
X223439945Y-69639873D01*
X223594288Y-69561232D01*
X223734428Y-69459414D01*
X228187023Y-65006819D01*
X228248346Y-64973334D01*
X228274704Y-64970500D01*
X231044611Y-64970500D01*
X231111650Y-64990185D01*
X231132292Y-65006819D01*
X231139990Y-65014517D01*
X231331067Y-65153343D01*
X231382619Y-65179610D01*
X231541503Y-65260566D01*
X231541505Y-65260566D01*
X231541508Y-65260568D01*
X231661912Y-65299689D01*
X231766131Y-65333553D01*
X231999403Y-65370500D01*
X231999408Y-65370500D01*
X232235597Y-65370500D01*
X232468868Y-65333553D01*
X232693492Y-65260568D01*
X232903933Y-65153343D01*
X233095010Y-65014517D01*
X233262017Y-64847510D01*
X233400843Y-64656433D01*
X233508068Y-64445992D01*
X233581053Y-64221368D01*
X233591699Y-64154154D01*
X233618000Y-63988097D01*
X233618000Y-63751902D01*
X233581053Y-63518631D01*
X233508066Y-63294003D01*
X233400842Y-63083566D01*
X233362351Y-63030588D01*
X233262017Y-62892490D01*
X233254319Y-62884792D01*
X233220834Y-62823469D01*
X233218000Y-62797111D01*
X233218000Y-55830889D01*
X233212324Y-55795054D01*
X233190902Y-55659799D01*
X233137373Y-55495055D01*
X233058732Y-55340712D01*
X232956914Y-55200572D01*
X232834428Y-55078086D01*
X230439428Y-52683086D01*
X230299288Y-52581268D01*
X230144945Y-52502627D01*
X229980201Y-52449098D01*
X229980199Y-52449097D01*
X229980198Y-52449097D01*
X229848771Y-52428281D01*
X229809111Y-52422000D01*
X229809110Y-52422000D01*
X222424600Y-52422000D01*
X222357561Y-52402315D01*
X222311806Y-52349511D01*
X222302127Y-52317398D01*
X222291090Y-52247714D01*
X222237642Y-52083220D01*
X222213241Y-52008121D01*
X222213239Y-52008118D01*
X222213239Y-52008116D01*
X222171747Y-51926684D01*
X222098870Y-51783655D01*
X222062611Y-51733748D01*
X221950798Y-51579850D01*
X221950794Y-51579845D01*
X221772654Y-51401705D01*
X221772649Y-51401701D01*
X221568848Y-51253632D01*
X221568847Y-51253631D01*
X221568845Y-51253630D01*
X221498747Y-51217913D01*
X221344383Y-51139260D01*
X221204843Y-51093921D01*
X221200256Y-51092430D01*
X221142582Y-51052993D01*
X221115384Y-50988635D01*
X221127299Y-50919788D01*
X221174543Y-50868312D01*
X221238576Y-50850500D01*
X231142796Y-50850500D01*
X231209835Y-50870185D01*
X231230475Y-50886817D01*
X232260586Y-51916928D01*
X232383072Y-52039414D01*
X232523212Y-52141232D01*
X232677555Y-52219873D01*
X232842299Y-52273402D01*
X233013389Y-52300500D01*
X233013390Y-52300500D01*
X233186611Y-52300500D01*
X238319132Y-52300500D01*
X238386171Y-52320185D01*
X238392017Y-52324182D01*
X238526654Y-52422000D01*
X238587361Y-52466106D01*
X238804815Y-52576904D01*
X239036924Y-52652321D01*
X239277973Y-52690500D01*
X239277974Y-52690500D01*
X239522026Y-52690500D01*
X239522027Y-52690500D01*
X239763076Y-52652321D01*
X239995185Y-52576904D01*
X240212639Y-52466106D01*
X240410083Y-52322655D01*
X240455919Y-52276819D01*
X240517242Y-52243334D01*
X240543600Y-52240500D01*
X241232796Y-52240500D01*
X241299835Y-52260185D01*
X241320477Y-52276819D01*
X245680681Y-56637023D01*
X245714166Y-56698346D01*
X245717000Y-56724704D01*
X245717000Y-101362796D01*
X245697315Y-101429835D01*
X245680681Y-101450477D01*
X245157977Y-101973181D01*
X245096654Y-102006666D01*
X245070296Y-102009500D01*
X244730389Y-102009500D01*
X244707416Y-102002754D01*
X244683595Y-102000332D01*
X244671251Y-101992135D01*
X244663350Y-101989815D01*
X244653139Y-101982497D01*
X244647662Y-101978135D01*
X244635010Y-101965483D01*
X244598144Y-101938698D01*
X244596008Y-101936997D01*
X244577434Y-101910571D01*
X244557707Y-101884989D01*
X244557463Y-101882158D01*
X244555831Y-101879835D01*
X244554492Y-101847565D01*
X244551728Y-101815375D01*
X244553053Y-101812862D01*
X244552936Y-101810025D01*
X244569255Y-101782155D01*
X244584333Y-101753580D01*
X244587694Y-101750667D01*
X244588242Y-101749732D01*
X244589527Y-101749079D01*
X244600373Y-101739682D01*
X244635010Y-101714517D01*
X244802017Y-101547510D01*
X244940843Y-101356433D01*
X245048068Y-101145992D01*
X245121053Y-100921368D01*
X245123420Y-100906421D01*
X245158000Y-100688097D01*
X245158000Y-100451902D01*
X245121053Y-100218631D01*
X245087189Y-100114412D01*
X245048068Y-99994008D01*
X245048066Y-99994005D01*
X245048066Y-99994003D01*
X244940842Y-99783566D01*
X244802017Y-99592490D01*
X244635010Y-99425483D01*
X244443933Y-99286657D01*
X244233496Y-99179433D01*
X244008868Y-99106446D01*
X243775597Y-99069500D01*
X243775592Y-99069500D01*
X243539408Y-99069500D01*
X243539403Y-99069500D01*
X243306131Y-99106446D01*
X243081503Y-99179433D01*
X242871066Y-99286657D01*
X242762050Y-99365862D01*
X242679990Y-99425483D01*
X242679988Y-99425485D01*
X242679987Y-99425485D01*
X242512985Y-99592487D01*
X242512985Y-99592488D01*
X242512983Y-99592490D01*
X242476003Y-99643389D01*
X242374157Y-99783566D01*
X242266933Y-99994003D01*
X242193946Y-100218631D01*
X242157000Y-100451902D01*
X242157000Y-100688097D01*
X242193946Y-100921368D01*
X242266933Y-101145996D01*
X242374157Y-101356433D01*
X242512983Y-101547510D01*
X242679990Y-101714517D01*
X242714627Y-101739683D01*
X242757292Y-101795013D01*
X242763271Y-101864626D01*
X242730665Y-101926421D01*
X242714630Y-101940315D01*
X242696865Y-101953222D01*
X242679988Y-101965484D01*
X242512985Y-102132487D01*
X242512985Y-102132488D01*
X242512983Y-102132490D01*
X242458055Y-102208092D01*
X242374157Y-102323566D01*
X242266933Y-102534003D01*
X242193946Y-102758631D01*
X242157000Y-102991902D01*
X242157000Y-103228097D01*
X242193946Y-103461368D01*
X242266933Y-103685996D01*
X242371178Y-103890586D01*
X242374157Y-103896433D01*
X242512983Y-104087510D01*
X242679990Y-104254517D01*
X242714627Y-104279683D01*
X242757292Y-104335013D01*
X242763271Y-104404626D01*
X242730665Y-104466421D01*
X242714630Y-104480315D01*
X242696865Y-104493222D01*
X242679988Y-104505484D01*
X242512985Y-104672487D01*
X242512985Y-104672488D01*
X242512983Y-104672490D01*
X242498485Y-104692445D01*
X242374157Y-104863566D01*
X242266933Y-105074003D01*
X242193946Y-105298631D01*
X242157000Y-105531902D01*
X242157000Y-105768097D01*
X242193946Y-106001368D01*
X242266933Y-106225996D01*
X242356839Y-106402445D01*
X242374157Y-106436433D01*
X242512983Y-106627510D01*
X242679990Y-106794517D01*
X242714627Y-106819683D01*
X242757292Y-106875013D01*
X242763271Y-106944626D01*
X242730665Y-107006421D01*
X242714630Y-107020315D01*
X242696865Y-107033222D01*
X242679988Y-107045484D01*
X242512985Y-107212487D01*
X242512985Y-107212488D01*
X242512983Y-107212490D01*
X242495028Y-107237203D01*
X242374157Y-107403566D01*
X242266933Y-107614003D01*
X242193946Y-107838631D01*
X242157000Y-108071902D01*
X242157000Y-108308097D01*
X242193946Y-108541368D01*
X242266933Y-108765996D01*
X242365718Y-108959871D01*
X242374157Y-108976433D01*
X242512983Y-109167510D01*
X242679990Y-109334517D01*
X242714627Y-109359683D01*
X242757292Y-109415013D01*
X242763271Y-109484626D01*
X242730665Y-109546421D01*
X242714630Y-109560315D01*
X242696865Y-109573222D01*
X242679988Y-109585484D01*
X242512985Y-109752487D01*
X242512985Y-109752488D01*
X242512983Y-109752490D01*
X242458055Y-109828092D01*
X242374157Y-109943566D01*
X242266933Y-110154003D01*
X242193946Y-110378631D01*
X242157000Y-110611902D01*
X242157000Y-110848097D01*
X242193946Y-111081368D01*
X242266933Y-111305996D01*
X242359517Y-111487701D01*
X242374157Y-111516433D01*
X242510494Y-111704085D01*
X242533974Y-111769889D01*
X242518149Y-111837943D01*
X242474327Y-111883085D01*
X242422314Y-111914528D01*
X242422310Y-111914531D01*
X242302030Y-112034811D01*
X242214022Y-112180393D01*
X242163413Y-112342807D01*
X242157000Y-112413386D01*
X242157000Y-114126613D01*
X242163413Y-114197192D01*
X242163413Y-114197194D01*
X242163414Y-114197196D01*
X242214022Y-114359606D01*
X242251681Y-114421902D01*
X242302030Y-114505188D01*
X242422311Y-114625469D01*
X242422313Y-114625470D01*
X242422315Y-114625472D01*
X242567894Y-114713478D01*
X242730304Y-114764086D01*
X242800884Y-114770500D01*
X242800887Y-114770500D01*
X244514113Y-114770500D01*
X244514116Y-114770500D01*
X244584696Y-114764086D01*
X244747106Y-114713478D01*
X244892685Y-114625472D01*
X245012972Y-114505185D01*
X245100978Y-114359606D01*
X245151586Y-114197196D01*
X245158000Y-114126616D01*
X245158000Y-112413384D01*
X245151586Y-112342804D01*
X245100978Y-112180394D01*
X245012972Y-112034815D01*
X245012970Y-112034813D01*
X245012969Y-112034811D01*
X244892688Y-111914530D01*
X244885744Y-111910332D01*
X244840671Y-111883084D01*
X244793485Y-111831558D01*
X244781647Y-111762698D01*
X244804502Y-111704088D01*
X244940843Y-111516433D01*
X245048068Y-111305992D01*
X245121053Y-111081368D01*
X245123420Y-111066421D01*
X245158000Y-110848097D01*
X245158000Y-110611902D01*
X245121053Y-110378631D01*
X245087189Y-110274412D01*
X245048068Y-110154008D01*
X245048066Y-110154005D01*
X245048066Y-110154003D01*
X244940842Y-109943566D01*
X244802017Y-109752490D01*
X244635010Y-109585483D01*
X244600372Y-109560317D01*
X244557707Y-109504989D01*
X244551728Y-109435375D01*
X244584333Y-109373580D01*
X244600373Y-109359682D01*
X244635010Y-109334517D01*
X244802017Y-109167510D01*
X244940843Y-108976433D01*
X245048068Y-108765992D01*
X245121053Y-108541368D01*
X245123420Y-108526421D01*
X245158000Y-108308097D01*
X245158000Y-108071902D01*
X245121053Y-107838631D01*
X245087189Y-107734412D01*
X245048068Y-107614008D01*
X245048066Y-107614005D01*
X245048066Y-107614003D01*
X244940842Y-107403566D01*
X244802017Y-107212490D01*
X244635010Y-107045483D01*
X244600372Y-107020317D01*
X244557707Y-106964989D01*
X244551728Y-106895375D01*
X244584333Y-106833580D01*
X244600373Y-106819682D01*
X244635010Y-106794517D01*
X244802017Y-106627510D01*
X244940843Y-106436433D01*
X245048068Y-106225992D01*
X245121053Y-106001368D01*
X245122409Y-105992804D01*
X245158000Y-105768097D01*
X245158000Y-105531902D01*
X245121053Y-105298631D01*
X245087189Y-105194412D01*
X245048068Y-105074008D01*
X245048066Y-105074005D01*
X245048066Y-105074003D01*
X244940842Y-104863566D01*
X244928652Y-104846788D01*
X244802017Y-104672490D01*
X244635010Y-104505483D01*
X244600372Y-104480317D01*
X244584810Y-104460136D01*
X244566254Y-104442660D01*
X244563829Y-104432928D01*
X244557707Y-104424989D01*
X244555526Y-104399597D01*
X244549364Y-104374862D01*
X244552585Y-104365364D01*
X244551728Y-104355375D01*
X244563621Y-104332833D01*
X244571810Y-104308696D01*
X244581609Y-104298741D01*
X244584333Y-104293580D01*
X244596008Y-104283003D01*
X244598144Y-104281301D01*
X244635010Y-104254517D01*
X244647662Y-104241864D01*
X244653139Y-104237503D01*
X244679270Y-104226854D01*
X244704031Y-104213334D01*
X244715466Y-104212104D01*
X244717843Y-104211136D01*
X244720268Y-104211588D01*
X244730389Y-104210500D01*
X245664110Y-104210500D01*
X245664111Y-104210500D01*
X245835201Y-104183402D01*
X245999945Y-104129873D01*
X246154288Y-104051232D01*
X246294428Y-103949414D01*
X247656914Y-102586928D01*
X247758732Y-102446788D01*
X247837373Y-102292445D01*
X247890902Y-102127701D01*
X247918000Y-101956611D01*
X247918000Y-101783389D01*
X247918000Y-56130889D01*
X247890902Y-55959799D01*
X247870736Y-55897734D01*
X247837373Y-55795054D01*
X247837371Y-55795051D01*
X247837371Y-55795049D01*
X247795886Y-55713631D01*
X247758732Y-55640712D01*
X247656914Y-55500572D01*
X242456928Y-50300586D01*
X242316788Y-50198768D01*
X242162445Y-50120127D01*
X241997701Y-50066598D01*
X241997699Y-50066597D01*
X241997698Y-50066597D01*
X241866271Y-50045781D01*
X241826611Y-50039500D01*
X241826610Y-50039500D01*
X240543600Y-50039500D01*
X240514159Y-50030855D01*
X240484173Y-50024332D01*
X240479157Y-50020577D01*
X240476561Y-50019815D01*
X240455919Y-50003181D01*
X240410419Y-49957681D01*
X240376934Y-49896358D01*
X240381918Y-49826666D01*
X240410419Y-49782319D01*
X240467152Y-49725586D01*
X240582655Y-49610083D01*
X240726106Y-49412639D01*
X240836904Y-49195185D01*
X240912321Y-48963076D01*
X240950500Y-48722027D01*
X240950500Y-48477973D01*
X240912321Y-48236924D01*
X240836904Y-48004815D01*
X240726106Y-47787361D01*
X240671520Y-47712229D01*
X240582660Y-47589923D01*
X240582656Y-47589918D01*
X240410077Y-47417339D01*
X240319490Y-47351525D01*
X240212642Y-47273896D01*
X240212641Y-47273895D01*
X240212639Y-47273894D01*
X240176064Y-47255258D01*
X246017000Y-47255258D01*
X246017000Y-47484741D01*
X246041946Y-47674215D01*
X246046952Y-47712238D01*
X246102671Y-47920185D01*
X246106342Y-47933887D01*
X246194150Y-48145876D01*
X246194157Y-48145890D01*
X246308892Y-48344617D01*
X246448581Y-48526661D01*
X246448589Y-48526670D01*
X246610830Y-48688911D01*
X246610838Y-48688918D01*
X246792882Y-48828607D01*
X246792885Y-48828608D01*
X246792888Y-48828611D01*
X246991612Y-48943344D01*
X246991617Y-48943346D01*
X246991623Y-48943349D01*
X247039239Y-48963072D01*
X247203613Y-49031158D01*
X247425262Y-49090548D01*
X247652766Y-49120500D01*
X247652773Y-49120500D01*
X247882227Y-49120500D01*
X247882234Y-49120500D01*
X248109738Y-49090548D01*
X248331387Y-49031158D01*
X248543388Y-48943344D01*
X248742112Y-48828611D01*
X248924161Y-48688919D01*
X248924165Y-48688914D01*
X248924170Y-48688911D01*
X249086411Y-48526670D01*
X249086414Y-48526665D01*
X249086419Y-48526661D01*
X249226111Y-48344612D01*
X249340844Y-48145888D01*
X249428658Y-47933887D01*
X249488048Y-47712238D01*
X249518000Y-47484734D01*
X249518000Y-47255266D01*
X249488048Y-47027762D01*
X249428658Y-46806113D01*
X249349684Y-46615453D01*
X249340849Y-46594123D01*
X249340846Y-46594117D01*
X249340844Y-46594112D01*
X249226111Y-46395388D01*
X249226108Y-46395385D01*
X249226107Y-46395382D01*
X249086418Y-46213338D01*
X249086411Y-46213330D01*
X248924170Y-46051089D01*
X248924161Y-46051081D01*
X248742117Y-45911392D01*
X248543390Y-45796657D01*
X248543376Y-45796650D01*
X248331387Y-45708842D01*
X248296522Y-45699500D01*
X248109738Y-45649452D01*
X248071715Y-45644446D01*
X247882241Y-45619500D01*
X247882234Y-45619500D01*
X247652766Y-45619500D01*
X247652758Y-45619500D01*
X247436215Y-45648009D01*
X247425262Y-45649452D01*
X247331576Y-45674554D01*
X247203612Y-45708842D01*
X246991623Y-45796650D01*
X246991609Y-45796657D01*
X246792882Y-45911392D01*
X246610838Y-46051081D01*
X246448581Y-46213338D01*
X246308892Y-46395382D01*
X246194157Y-46594109D01*
X246194150Y-46594123D01*
X246106342Y-46806112D01*
X246046953Y-47027759D01*
X246046951Y-47027770D01*
X246017000Y-47255258D01*
X240176064Y-47255258D01*
X239995185Y-47163096D01*
X239763076Y-47087679D01*
X239763074Y-47087678D01*
X239763072Y-47087678D01*
X239594769Y-47061021D01*
X239522027Y-47049500D01*
X239277973Y-47049500D01*
X239222093Y-47058350D01*
X239036927Y-47087678D01*
X238804812Y-47163097D01*
X238587357Y-47273896D01*
X238389923Y-47417339D01*
X238389918Y-47417343D01*
X238217343Y-47589918D01*
X238217339Y-47589923D01*
X238073896Y-47787357D01*
X237963097Y-48004812D01*
X237887678Y-48236927D01*
X237849500Y-48477973D01*
X237849500Y-48722026D01*
X237885658Y-48950321D01*
X237887679Y-48963076D01*
X237963096Y-49195185D01*
X238070582Y-49406139D01*
X238073896Y-49412642D01*
X238217339Y-49610076D01*
X238217343Y-49610081D01*
X238389581Y-49782319D01*
X238393919Y-49790264D01*
X238401167Y-49795690D01*
X238410401Y-49820449D01*
X238423066Y-49843642D01*
X238422420Y-49852671D01*
X238425584Y-49861154D01*
X238419967Y-49886974D01*
X238418082Y-49913334D01*
X238412263Y-49922387D01*
X238410732Y-49929427D01*
X238389581Y-49957681D01*
X238284081Y-50063181D01*
X238222758Y-50096666D01*
X238196400Y-50099500D01*
X233607204Y-50099500D01*
X233540165Y-50079815D01*
X233519523Y-50063181D01*
X232366930Y-48910588D01*
X232366928Y-48910586D01*
X232226788Y-48808768D01*
X232093007Y-48740604D01*
X232072447Y-48730128D01*
X232072446Y-48730127D01*
X232072445Y-48730127D01*
X231907701Y-48676598D01*
X231907699Y-48676597D01*
X231907698Y-48676597D01*
X231776271Y-48655781D01*
X231736611Y-48649500D01*
X210668723Y-48649500D01*
X210629062Y-48655781D01*
X210497636Y-48676597D01*
X210332886Y-48730128D01*
X210178542Y-48808770D01*
X210078965Y-48881116D01*
X210078966Y-48881117D01*
X210038406Y-48910585D01*
X210038403Y-48910588D01*
X207243743Y-51705247D01*
X207182420Y-51738732D01*
X207112728Y-51733748D01*
X207056795Y-51691876D01*
X207036846Y-51651676D01*
X207027238Y-51618096D01*
X206962611Y-51494374D01*
X206937734Y-51446749D01*
X206876652Y-51371839D01*
X206815571Y-51296928D01*
X206699477Y-51202266D01*
X206665751Y-51174766D01*
X206597778Y-51139260D01*
X206494405Y-51085262D01*
X206339845Y-51041037D01*
X206308552Y-51032083D01*
X206308551Y-51032082D01*
X206308548Y-51032082D01*
X206219662Y-51024180D01*
X206195138Y-51022000D01*
X204784862Y-51022000D01*
X204772599Y-51023090D01*
X204671451Y-51032082D01*
X204485594Y-51085262D01*
X204314250Y-51174765D01*
X204164428Y-51296928D01*
X204042265Y-51446750D01*
X203952762Y-51618094D01*
X203899582Y-51803951D01*
X203889500Y-51917363D01*
X203889500Y-52298000D01*
X203869815Y-52365039D01*
X203817011Y-52410794D01*
X203765500Y-52422000D01*
X199179704Y-52422000D01*
X199112665Y-52402315D01*
X199092023Y-52385681D01*
X192666930Y-45960588D01*
X192666928Y-45960586D01*
X192526788Y-45858768D01*
X192404885Y-45796656D01*
X192372447Y-45780128D01*
X192372446Y-45780127D01*
X192372445Y-45780127D01*
X192207701Y-45726598D01*
X192207699Y-45726597D01*
X192207698Y-45726597D01*
X192076271Y-45705781D01*
X192036611Y-45699500D01*
X84036611Y-45699500D01*
X83863389Y-45699500D01*
X83823728Y-45705781D01*
X83692302Y-45726597D01*
X83527552Y-45780128D01*
X83373211Y-45858768D01*
X83293256Y-45916859D01*
X83233072Y-45960586D01*
X83233070Y-45960588D01*
X83233069Y-45960588D01*
X79345588Y-49848069D01*
X79345588Y-49848070D01*
X79345586Y-49848072D01*
X79318451Y-49885420D01*
X79243768Y-49988211D01*
X79165128Y-50142552D01*
X79111597Y-50307302D01*
X79084500Y-50478389D01*
X79084500Y-51087832D01*
X79064815Y-51154871D01*
X79017913Y-51197740D01*
X79009250Y-51202265D01*
X78859428Y-51324428D01*
X78737265Y-51474250D01*
X78647762Y-51645594D01*
X78594582Y-51831451D01*
X78584500Y-51944863D01*
X78584500Y-55155136D01*
X78594582Y-55268548D01*
X78594582Y-55268551D01*
X78594583Y-55268552D01*
X78601866Y-55294003D01*
X78647762Y-55454405D01*
X78737266Y-55625753D01*
X78831821Y-55741713D01*
X78858931Y-55806109D01*
X78846922Y-55874938D01*
X78823401Y-55907755D01*
X74900572Y-59830586D01*
X74778088Y-59953069D01*
X74778088Y-59953070D01*
X74778086Y-59953072D01*
X74775515Y-59956611D01*
X74676268Y-60093211D01*
X74597628Y-60247552D01*
X74544097Y-60412302D01*
X74517000Y-60583389D01*
X74517000Y-103762796D01*
X74497315Y-103829835D01*
X74480681Y-103850477D01*
X62387977Y-115943181D01*
X62326654Y-115976666D01*
X62300296Y-115979500D01*
X58220389Y-115979500D01*
X58197416Y-115972754D01*
X58173595Y-115970332D01*
X58161251Y-115962135D01*
X58153350Y-115959815D01*
X58143139Y-115952497D01*
X58137662Y-115948135D01*
X58125010Y-115935483D01*
X58088144Y-115908698D01*
X58086008Y-115906997D01*
X58067434Y-115880571D01*
X58047707Y-115854989D01*
X58047463Y-115852158D01*
X58045831Y-115849835D01*
X58044492Y-115817565D01*
X58041728Y-115785375D01*
X58043053Y-115782862D01*
X58042936Y-115780025D01*
X58059255Y-115752155D01*
X58074333Y-115723580D01*
X58077694Y-115720667D01*
X58078242Y-115719732D01*
X58079527Y-115719079D01*
X58090373Y-115709682D01*
X58125010Y-115684517D01*
X58292017Y-115517510D01*
X58430843Y-115326433D01*
X58538068Y-115115992D01*
X58611053Y-114891368D01*
X58629711Y-114773566D01*
X58648000Y-114658097D01*
X58648000Y-114421902D01*
X58611053Y-114188631D01*
X58555804Y-114018594D01*
X58538068Y-113964008D01*
X58538066Y-113964005D01*
X58538066Y-113964003D01*
X58460864Y-113812487D01*
X58430843Y-113753567D01*
X58292017Y-113562490D01*
X58125010Y-113395483D01*
X58123680Y-113394517D01*
X58117359Y-113389924D01*
X58090372Y-113370317D01*
X58047707Y-113314989D01*
X58041728Y-113245375D01*
X58074333Y-113183580D01*
X58090373Y-113169682D01*
X58097942Y-113164183D01*
X58125010Y-113144517D01*
X58292017Y-112977510D01*
X58430843Y-112786433D01*
X58538068Y-112575992D01*
X58611053Y-112351368D01*
X58629711Y-112233566D01*
X58648000Y-112118097D01*
X58648000Y-111881902D01*
X58611053Y-111648631D01*
X58555804Y-111478594D01*
X58538068Y-111424008D01*
X58538066Y-111424005D01*
X58538066Y-111424003D01*
X58460864Y-111272487D01*
X58430843Y-111213567D01*
X58292017Y-111022490D01*
X58125010Y-110855483D01*
X58123680Y-110854517D01*
X58111571Y-110845719D01*
X58090372Y-110830317D01*
X58047707Y-110774989D01*
X58041728Y-110705375D01*
X58074333Y-110643580D01*
X58090373Y-110629682D01*
X58109846Y-110615534D01*
X58125010Y-110604517D01*
X58292017Y-110437510D01*
X58430843Y-110246433D01*
X58538068Y-110035992D01*
X58611053Y-109811368D01*
X58629711Y-109693566D01*
X58648000Y-109578097D01*
X58648000Y-109341902D01*
X58611053Y-109108631D01*
X58555804Y-108938594D01*
X58538068Y-108884008D01*
X58538066Y-108884005D01*
X58538066Y-108884003D01*
X58460864Y-108732487D01*
X58430843Y-108673567D01*
X58294503Y-108485912D01*
X58271025Y-108420110D01*
X58286850Y-108352056D01*
X58330671Y-108306915D01*
X58382685Y-108275472D01*
X58502972Y-108155185D01*
X58590978Y-108009606D01*
X58641586Y-107847196D01*
X58648000Y-107776616D01*
X58648000Y-106063384D01*
X58641586Y-105992804D01*
X58590978Y-105830394D01*
X58502972Y-105684815D01*
X58502970Y-105684813D01*
X58502969Y-105684811D01*
X58382688Y-105564530D01*
X58334716Y-105535530D01*
X58237106Y-105476522D01*
X58074696Y-105425914D01*
X58074694Y-105425913D01*
X58074692Y-105425913D01*
X58025278Y-105421423D01*
X58004116Y-105419500D01*
X56290884Y-105419500D01*
X56271645Y-105421248D01*
X56220307Y-105425913D01*
X56057893Y-105476522D01*
X55912311Y-105564530D01*
X55792030Y-105684811D01*
X55704022Y-105830393D01*
X55653413Y-105992807D01*
X55650444Y-106025483D01*
X55647000Y-106063384D01*
X51518000Y-106063384D01*
X51518000Y-74251902D01*
X69967000Y-74251902D01*
X69967000Y-74488097D01*
X70003946Y-74721368D01*
X70076933Y-74945996D01*
X70184157Y-75156433D01*
X70322983Y-75347510D01*
X70489990Y-75514517D01*
X70681067Y-75653343D01*
X70759687Y-75693402D01*
X70891503Y-75760566D01*
X70891505Y-75760566D01*
X70891508Y-75760568D01*
X71011912Y-75799689D01*
X71116131Y-75833553D01*
X71349403Y-75870500D01*
X71349408Y-75870500D01*
X71585597Y-75870500D01*
X71818868Y-75833553D01*
X72043492Y-75760568D01*
X72253933Y-75653343D01*
X72445010Y-75514517D01*
X72612017Y-75347510D01*
X72750843Y-75156433D01*
X72858068Y-74945992D01*
X72931053Y-74721368D01*
X72968000Y-74488097D01*
X72968000Y-74251902D01*
X72931053Y-74018631D01*
X72858066Y-73794003D01*
X72750842Y-73583566D01*
X72689993Y-73499815D01*
X72612017Y-73392490D01*
X72445010Y-73225483D01*
X72253933Y-73086657D01*
X72043496Y-72979433D01*
X71818868Y-72906446D01*
X71585597Y-72869500D01*
X71585592Y-72869500D01*
X71349408Y-72869500D01*
X71349403Y-72869500D01*
X71116131Y-72906446D01*
X70891503Y-72979433D01*
X70681066Y-73086657D01*
X70572050Y-73165862D01*
X70489990Y-73225483D01*
X70489988Y-73225485D01*
X70489987Y-73225485D01*
X70322985Y-73392487D01*
X70322985Y-73392488D01*
X70322983Y-73392490D01*
X70283371Y-73447011D01*
X70184157Y-73583566D01*
X70076933Y-73794003D01*
X70003946Y-74018631D01*
X69967000Y-74251902D01*
X51518000Y-74251902D01*
X51518000Y-68751902D01*
X57267000Y-68751902D01*
X57267000Y-68988097D01*
X57303946Y-69221368D01*
X57376933Y-69445996D01*
X57454135Y-69597512D01*
X57484157Y-69656433D01*
X57622983Y-69847510D01*
X57789990Y-70014517D01*
X57981067Y-70153343D01*
X58066333Y-70196788D01*
X58191503Y-70260566D01*
X58191505Y-70260566D01*
X58191508Y-70260568D01*
X58311912Y-70299689D01*
X58416131Y-70333553D01*
X58649403Y-70370500D01*
X58649408Y-70370500D01*
X58885597Y-70370500D01*
X59118868Y-70333553D01*
X59343492Y-70260568D01*
X59553933Y-70153343D01*
X59745010Y-70014517D01*
X59752708Y-70006819D01*
X59814031Y-69973334D01*
X59840389Y-69970500D01*
X68229110Y-69970500D01*
X68229111Y-69970500D01*
X68400201Y-69943402D01*
X68564945Y-69889873D01*
X68719288Y-69811232D01*
X68859428Y-69709414D01*
X69755319Y-68813521D01*
X69816642Y-68780037D01*
X69886333Y-68785021D01*
X69942267Y-68826893D01*
X69966684Y-68892357D01*
X69967000Y-68901203D01*
X69967000Y-68988097D01*
X70003946Y-69221368D01*
X70076933Y-69445996D01*
X70154135Y-69597512D01*
X70184157Y-69656433D01*
X70322983Y-69847510D01*
X70489990Y-70014517D01*
X70681067Y-70153343D01*
X70766333Y-70196788D01*
X70891503Y-70260566D01*
X70891505Y-70260566D01*
X70891508Y-70260568D01*
X71011912Y-70299689D01*
X71116131Y-70333553D01*
X71349403Y-70370500D01*
X71349408Y-70370500D01*
X71585597Y-70370500D01*
X71818868Y-70333553D01*
X72043492Y-70260568D01*
X72253933Y-70153343D01*
X72445010Y-70014517D01*
X72612017Y-69847510D01*
X72750843Y-69656433D01*
X72858068Y-69445992D01*
X72931053Y-69221368D01*
X72934362Y-69200477D01*
X72968000Y-68988097D01*
X72968000Y-68751902D01*
X72931053Y-68518631D01*
X72873269Y-68340793D01*
X72858068Y-68294008D01*
X72858066Y-68294005D01*
X72858066Y-68294003D01*
X72801502Y-68182991D01*
X72750843Y-68083567D01*
X72612017Y-67892490D01*
X72445010Y-67725483D01*
X72253933Y-67586657D01*
X72229881Y-67574402D01*
X72043496Y-67479433D01*
X71818868Y-67406446D01*
X71585597Y-67369500D01*
X71585592Y-67369500D01*
X71498703Y-67369500D01*
X71431664Y-67349815D01*
X71385909Y-67297011D01*
X71375965Y-67227853D01*
X71404990Y-67164297D01*
X71411022Y-67157819D01*
X71574803Y-66994038D01*
X72306914Y-66261928D01*
X72408732Y-66121788D01*
X72487373Y-65967445D01*
X72540902Y-65802701D01*
X72568000Y-65631611D01*
X72568000Y-65458389D01*
X72568000Y-64442889D01*
X72587685Y-64375850D01*
X72604319Y-64355208D01*
X72612017Y-64347510D01*
X72750843Y-64156433D01*
X72858068Y-63945992D01*
X72931053Y-63721368D01*
X72968000Y-63488097D01*
X72968000Y-63251902D01*
X72931053Y-63018631D01*
X72887566Y-62884792D01*
X72858068Y-62794008D01*
X72858066Y-62794005D01*
X72858066Y-62794003D01*
X72782399Y-62645500D01*
X72750843Y-62583567D01*
X72612017Y-62392490D01*
X72604319Y-62384792D01*
X72570834Y-62323469D01*
X72568000Y-62297111D01*
X72568000Y-61733389D01*
X72540903Y-61562303D01*
X72540902Y-61562300D01*
X72540553Y-61561226D01*
X72540545Y-61561201D01*
X72487374Y-61397556D01*
X72439231Y-61303070D01*
X72408732Y-61243212D01*
X72306914Y-61103072D01*
X70984428Y-59780586D01*
X70844288Y-59678768D01*
X70689945Y-59600127D01*
X70525201Y-59546598D01*
X70525199Y-59546597D01*
X70525198Y-59546597D01*
X70393771Y-59525781D01*
X70354111Y-59519500D01*
X70354110Y-59519500D01*
X66274704Y-59519500D01*
X66245263Y-59510855D01*
X66215277Y-59504332D01*
X66210261Y-59500577D01*
X66207665Y-59499815D01*
X66187023Y-59483181D01*
X66154319Y-59450477D01*
X66120834Y-59389154D01*
X66118000Y-59362796D01*
X66118000Y-55751902D01*
X66767000Y-55751902D01*
X66767000Y-55988097D01*
X66803946Y-56221368D01*
X66876933Y-56445996D01*
X66974267Y-56637023D01*
X66984157Y-56656433D01*
X67122983Y-56847510D01*
X67289990Y-57014517D01*
X67481067Y-57153343D01*
X67580491Y-57204002D01*
X67691503Y-57260566D01*
X67691505Y-57260566D01*
X67691508Y-57260568D01*
X67811912Y-57299689D01*
X67916131Y-57333553D01*
X68149403Y-57370500D01*
X68149408Y-57370500D01*
X68385597Y-57370500D01*
X68618868Y-57333553D01*
X68843492Y-57260568D01*
X69053933Y-57153343D01*
X69245010Y-57014517D01*
X69412017Y-56847510D01*
X69550843Y-56656433D01*
X69658068Y-56445992D01*
X69731053Y-56221368D01*
X69736162Y-56189110D01*
X69768000Y-55988097D01*
X69768000Y-55751902D01*
X69731053Y-55518631D01*
X69658066Y-55294003D01*
X69573294Y-55127630D01*
X69550843Y-55083567D01*
X69412017Y-54892490D01*
X69245010Y-54725483D01*
X69053933Y-54586657D01*
X69032941Y-54575961D01*
X68843496Y-54479433D01*
X68618868Y-54406446D01*
X68385597Y-54369500D01*
X68385592Y-54369500D01*
X68149408Y-54369500D01*
X68149403Y-54369500D01*
X67916131Y-54406446D01*
X67691503Y-54479433D01*
X67481066Y-54586657D01*
X67431045Y-54623000D01*
X67289990Y-54725483D01*
X67289988Y-54725485D01*
X67289987Y-54725485D01*
X67122985Y-54892487D01*
X67122985Y-54892488D01*
X67122983Y-54892490D01*
X67063362Y-54974550D01*
X66984157Y-55083566D01*
X66876933Y-55294003D01*
X66803946Y-55518631D01*
X66767000Y-55751902D01*
X66118000Y-55751902D01*
X66118000Y-54283389D01*
X66090902Y-54112302D01*
X66090902Y-54112299D01*
X66037373Y-53947555D01*
X65958732Y-53793212D01*
X65856914Y-53653072D01*
X65734428Y-53530586D01*
X64298935Y-52095093D01*
X64265450Y-52033770D01*
X64270434Y-51964078D01*
X64305348Y-51913756D01*
X64313368Y-51906796D01*
X64365185Y-51875472D01*
X64468298Y-51772358D01*
X64471602Y-51769492D01*
X64499541Y-51756708D01*
X64526511Y-51741982D01*
X64531024Y-51742304D01*
X64535137Y-51740423D01*
X64565548Y-51744773D01*
X64596202Y-51746966D01*
X64601772Y-51749956D01*
X64604302Y-51750318D01*
X64607333Y-51752941D01*
X64625756Y-51762830D01*
X64651139Y-51781272D01*
X64709780Y-51811151D01*
X64882967Y-51899395D01*
X64882970Y-51899396D01*
X64936929Y-51916928D01*
X65130422Y-51979797D01*
X65387406Y-52020500D01*
X65387407Y-52020500D01*
X65647593Y-52020500D01*
X65647594Y-52020500D01*
X65904578Y-51979797D01*
X66152032Y-51899395D01*
X66383861Y-51781272D01*
X66594357Y-51628337D01*
X66699819Y-51522875D01*
X66761142Y-51489390D01*
X66830834Y-51494374D01*
X66875181Y-51522875D01*
X66980643Y-51628337D01*
X67191139Y-51781272D01*
X67249780Y-51811151D01*
X67422967Y-51899395D01*
X67422970Y-51899396D01*
X67476929Y-51916928D01*
X67670422Y-51979797D01*
X67927406Y-52020500D01*
X67927407Y-52020500D01*
X68187593Y-52020500D01*
X68187594Y-52020500D01*
X68444578Y-51979797D01*
X68692032Y-51899395D01*
X68923861Y-51781272D01*
X69134357Y-51628337D01*
X69318337Y-51444357D01*
X69471272Y-51233861D01*
X69589395Y-51002032D01*
X69669797Y-50754578D01*
X69710500Y-50497594D01*
X69710500Y-50142406D01*
X69669797Y-49885422D01*
X69589395Y-49637968D01*
X69589395Y-49637967D01*
X69474585Y-49412642D01*
X69471272Y-49406139D01*
X69318337Y-49195643D01*
X69134357Y-49011663D01*
X68923861Y-48858728D01*
X68692032Y-48740604D01*
X68692029Y-48740603D01*
X68444579Y-48660203D01*
X68316086Y-48639851D01*
X68187594Y-48619500D01*
X67927406Y-48619500D01*
X67841744Y-48633067D01*
X67670420Y-48660203D01*
X67422970Y-48740603D01*
X67422967Y-48740604D01*
X67191138Y-48858728D01*
X66980644Y-49011662D01*
X66875181Y-49117125D01*
X66813858Y-49150609D01*
X66744166Y-49145625D01*
X66699819Y-49117125D01*
X66673240Y-49090546D01*
X66594357Y-49011663D01*
X66383861Y-48858728D01*
X66152032Y-48740604D01*
X66152029Y-48740603D01*
X65904579Y-48660203D01*
X65776086Y-48639851D01*
X65647594Y-48619500D01*
X65387406Y-48619500D01*
X65301744Y-48633067D01*
X65130420Y-48660203D01*
X64882970Y-48740603D01*
X64882967Y-48740604D01*
X64651135Y-48858730D01*
X64625756Y-48877169D01*
X64559950Y-48900649D01*
X64491896Y-48884823D01*
X64465190Y-48864532D01*
X64365188Y-48764530D01*
X64325611Y-48740605D01*
X64219606Y-48676522D01*
X64057196Y-48625914D01*
X64057194Y-48625913D01*
X64057192Y-48625913D01*
X64007778Y-48621423D01*
X63986616Y-48619500D01*
X61968384Y-48619500D01*
X61949145Y-48621248D01*
X61897807Y-48625913D01*
X61735393Y-48676522D01*
X61589811Y-48764530D01*
X61469530Y-48884811D01*
X61381522Y-49030393D01*
X61330913Y-49192807D01*
X61324500Y-49263386D01*
X61324500Y-51376613D01*
X61330913Y-51447192D01*
X61330913Y-51447194D01*
X61330914Y-51447196D01*
X61381522Y-51609606D01*
X61468171Y-51752941D01*
X61469530Y-51755188D01*
X61589811Y-51875469D01*
X61589813Y-51875470D01*
X61589815Y-51875472D01*
X61735394Y-51963478D01*
X61789889Y-51980459D01*
X61848037Y-52019195D01*
X61876012Y-52083220D01*
X61877000Y-52098844D01*
X61877000Y-52416610D01*
X61902387Y-52576902D01*
X61904098Y-52587701D01*
X61957627Y-52752445D01*
X62036268Y-52906788D01*
X62138086Y-53046928D01*
X62138088Y-53046930D01*
X63880681Y-54789523D01*
X63914166Y-54850846D01*
X63917000Y-54877204D01*
X63917000Y-59783389D01*
X63917000Y-59956611D01*
X63925177Y-60008239D01*
X63943638Y-60124802D01*
X63944098Y-60127701D01*
X63997627Y-60292445D01*
X64076268Y-60446788D01*
X64178086Y-60586928D01*
X65050572Y-61459414D01*
X65190712Y-61561232D01*
X65261994Y-61597552D01*
X65345049Y-61639871D01*
X65345051Y-61639871D01*
X65345054Y-61639873D01*
X65509799Y-61693402D01*
X65680889Y-61720500D01*
X65854111Y-61720500D01*
X69760296Y-61720500D01*
X69827335Y-61740185D01*
X69847977Y-61756819D01*
X70315941Y-62224783D01*
X70349426Y-62286106D01*
X70344442Y-62355798D01*
X70325374Y-62388205D01*
X70325847Y-62388549D01*
X70322985Y-62392487D01*
X70322983Y-62392490D01*
X70288751Y-62439606D01*
X70184157Y-62583566D01*
X70076933Y-62794003D01*
X70003946Y-63018631D01*
X69967000Y-63251902D01*
X69967000Y-63488097D01*
X70003946Y-63721368D01*
X70076933Y-63945996D01*
X70150508Y-64090393D01*
X70184157Y-64156433D01*
X70322983Y-64347510D01*
X70322985Y-64347512D01*
X70330681Y-64355208D01*
X70364166Y-64416531D01*
X70367000Y-64442889D01*
X70367000Y-65037796D01*
X70347315Y-65104835D01*
X70330681Y-65125477D01*
X67722977Y-67733181D01*
X67661654Y-67766666D01*
X67635296Y-67769500D01*
X59840389Y-67769500D01*
X59773350Y-67749815D01*
X59752708Y-67733181D01*
X59745012Y-67725485D01*
X59745010Y-67725483D01*
X59553933Y-67586657D01*
X59529881Y-67574402D01*
X59343496Y-67479433D01*
X59118868Y-67406446D01*
X58885597Y-67369500D01*
X58885592Y-67369500D01*
X58649408Y-67369500D01*
X58649403Y-67369500D01*
X58416131Y-67406446D01*
X58191503Y-67479433D01*
X57981066Y-67586657D01*
X57872050Y-67665862D01*
X57789990Y-67725483D01*
X57789988Y-67725485D01*
X57789987Y-67725485D01*
X57622985Y-67892487D01*
X57622985Y-67892488D01*
X57622983Y-67892490D01*
X57620745Y-67895571D01*
X57484157Y-68083566D01*
X57376933Y-68294003D01*
X57303946Y-68518631D01*
X57267000Y-68751902D01*
X51518000Y-68751902D01*
X51518000Y-63251902D01*
X57267000Y-63251902D01*
X57267000Y-63488097D01*
X57303946Y-63721368D01*
X57376933Y-63945996D01*
X57450508Y-64090393D01*
X57484157Y-64156433D01*
X57622983Y-64347510D01*
X57789990Y-64514517D01*
X57981067Y-64653343D01*
X58080491Y-64704002D01*
X58191503Y-64760566D01*
X58191505Y-64760566D01*
X58191508Y-64760568D01*
X58311912Y-64799689D01*
X58416131Y-64833553D01*
X58649403Y-64870500D01*
X58649408Y-64870500D01*
X58885597Y-64870500D01*
X59118868Y-64833553D01*
X59343492Y-64760568D01*
X59553933Y-64653343D01*
X59745010Y-64514517D01*
X59912017Y-64347510D01*
X60050843Y-64156433D01*
X60158068Y-63945992D01*
X60231053Y-63721368D01*
X60268000Y-63488097D01*
X60268000Y-63251902D01*
X60231053Y-63018631D01*
X60187566Y-62884792D01*
X60158068Y-62794008D01*
X60158066Y-62794005D01*
X60158066Y-62794003D01*
X60082399Y-62645500D01*
X60050843Y-62583567D01*
X59912017Y-62392490D01*
X59745010Y-62225483D01*
X59553933Y-62086657D01*
X59343496Y-61979433D01*
X59118868Y-61906446D01*
X58885597Y-61869500D01*
X58885592Y-61869500D01*
X58649408Y-61869500D01*
X58649403Y-61869500D01*
X58416131Y-61906446D01*
X58191503Y-61979433D01*
X57981066Y-62086657D01*
X57872050Y-62165862D01*
X57789990Y-62225483D01*
X57789988Y-62225485D01*
X57789987Y-62225485D01*
X57622985Y-62392487D01*
X57622985Y-62392488D01*
X57622983Y-62392490D01*
X57588751Y-62439606D01*
X57484157Y-62583566D01*
X57376933Y-62794003D01*
X57303946Y-63018631D01*
X57267000Y-63251902D01*
X51518000Y-63251902D01*
X51518000Y-55751902D01*
X60517000Y-55751902D01*
X60517000Y-55988097D01*
X60553946Y-56221368D01*
X60626933Y-56445996D01*
X60724267Y-56637023D01*
X60734157Y-56656433D01*
X60872983Y-56847510D01*
X61039990Y-57014517D01*
X61231067Y-57153343D01*
X61330491Y-57204002D01*
X61441503Y-57260566D01*
X61441505Y-57260566D01*
X61441508Y-57260568D01*
X61561912Y-57299689D01*
X61666131Y-57333553D01*
X61899403Y-57370500D01*
X61899408Y-57370500D01*
X62135597Y-57370500D01*
X62368868Y-57333553D01*
X62593492Y-57260568D01*
X62803933Y-57153343D01*
X62995010Y-57014517D01*
X63162017Y-56847510D01*
X63300843Y-56656433D01*
X63408068Y-56445992D01*
X63481053Y-56221368D01*
X63486162Y-56189110D01*
X63518000Y-55988097D01*
X63518000Y-55751902D01*
X63481053Y-55518631D01*
X63408066Y-55294003D01*
X63323294Y-55127630D01*
X63300843Y-55083567D01*
X63162017Y-54892490D01*
X62995010Y-54725483D01*
X62803933Y-54586657D01*
X62782941Y-54575961D01*
X62593496Y-54479433D01*
X62368868Y-54406446D01*
X62135597Y-54369500D01*
X62135592Y-54369500D01*
X61899408Y-54369500D01*
X61899403Y-54369500D01*
X61666131Y-54406446D01*
X61441503Y-54479433D01*
X61231066Y-54586657D01*
X61181045Y-54623000D01*
X61039990Y-54725483D01*
X61039988Y-54725485D01*
X61039987Y-54725485D01*
X60872985Y-54892487D01*
X60872985Y-54892488D01*
X60872983Y-54892490D01*
X60813362Y-54974550D01*
X60734157Y-55083566D01*
X60626933Y-55294003D01*
X60553946Y-55518631D01*
X60517000Y-55751902D01*
X51518000Y-55751902D01*
X51518000Y-47255258D01*
X52517000Y-47255258D01*
X52517000Y-47484741D01*
X52541946Y-47674215D01*
X52546952Y-47712238D01*
X52602671Y-47920185D01*
X52606342Y-47933887D01*
X52694150Y-48145876D01*
X52694157Y-48145890D01*
X52808892Y-48344617D01*
X52948581Y-48526661D01*
X52948589Y-48526670D01*
X53110830Y-48688911D01*
X53110838Y-48688918D01*
X53292882Y-48828607D01*
X53292885Y-48828608D01*
X53292888Y-48828611D01*
X53491612Y-48943344D01*
X53491617Y-48943346D01*
X53491623Y-48943349D01*
X53539239Y-48963072D01*
X53703613Y-49031158D01*
X53925262Y-49090548D01*
X54152766Y-49120500D01*
X54152773Y-49120500D01*
X54382227Y-49120500D01*
X54382234Y-49120500D01*
X54609738Y-49090548D01*
X54831387Y-49031158D01*
X55043388Y-48943344D01*
X55242112Y-48828611D01*
X55424161Y-48688919D01*
X55424165Y-48688914D01*
X55424170Y-48688911D01*
X55586411Y-48526670D01*
X55586414Y-48526665D01*
X55586419Y-48526661D01*
X55726111Y-48344612D01*
X55840844Y-48145888D01*
X55928658Y-47933887D01*
X55988048Y-47712238D01*
X56018000Y-47484734D01*
X56018000Y-47255266D01*
X55988048Y-47027762D01*
X55928658Y-46806113D01*
X55849684Y-46615453D01*
X55840849Y-46594123D01*
X55840846Y-46594117D01*
X55840844Y-46594112D01*
X55726111Y-46395388D01*
X55726108Y-46395385D01*
X55726107Y-46395382D01*
X55586418Y-46213338D01*
X55586411Y-46213330D01*
X55424170Y-46051089D01*
X55424161Y-46051081D01*
X55242117Y-45911392D01*
X55043390Y-45796657D01*
X55043376Y-45796650D01*
X54831387Y-45708842D01*
X54796522Y-45699500D01*
X54609738Y-45649452D01*
X54571715Y-45644446D01*
X54382241Y-45619500D01*
X54382234Y-45619500D01*
X54152766Y-45619500D01*
X54152758Y-45619500D01*
X53936215Y-45648009D01*
X53925262Y-45649452D01*
X53831576Y-45674554D01*
X53703612Y-45708842D01*
X53491623Y-45796650D01*
X53491609Y-45796657D01*
X53292882Y-45911392D01*
X53110838Y-46051081D01*
X52948581Y-46213338D01*
X52808892Y-46395382D01*
X52694157Y-46594109D01*
X52694150Y-46594123D01*
X52606342Y-46806112D01*
X52546953Y-47027759D01*
X52546951Y-47027770D01*
X52517000Y-47255258D01*
X51518000Y-47255258D01*
X51518000Y-46975704D01*
X51532011Y-46918447D01*
X51590489Y-46806112D01*
X51684887Y-46624774D01*
X51690269Y-46615453D01*
X51918834Y-46256678D01*
X51925025Y-46247835D01*
X52183991Y-45910345D01*
X52190929Y-45902076D01*
X52478319Y-45588445D01*
X52485945Y-45580819D01*
X52799576Y-45293429D01*
X52807845Y-45286491D01*
X53145335Y-45027525D01*
X53154178Y-45021334D01*
X53512953Y-44792769D01*
X53522267Y-44787391D01*
X53815950Y-44634509D01*
X53873205Y-44620500D01*
X248161795Y-44620500D01*
X248219052Y-44634511D01*
G37*
%TD.AperFunction*%
%TD*%
M02*
