M48
; DRILL file {KiCad 9.0.4} date 2025-11-11T15:23:23+0700
; FORMAT={-:-/ absolute / metric / decimal}
; #@! TF.CreationDate,2025-11-11T15:23:23+07:00
; #@! TF.GenerationSoftware,Kicad,Pcbnew,9.0.4
; #@! TF.FileFunction,Plated,1,2,PTH
FMAT,2
METRIC
; #@! TA.AperFunction,Plated,PTH,ViaDrill
T1C0.500
; #@! TA.AperFunction,Plated,PTH,ComponentDrill
T2C0.800
; #@! TA.AperFunction,Plated,PTH,ComponentDrill
T3C0.900
; #@! TA.AperFunction,Plated,PTH,ComponentDrill
T4C1.000
; #@! TA.AperFunction,Plated,PTH,ComponentDrill
T5C1.016
; #@! TA.AperFunction,Plated,PTH,ComponentDrill
T6C1.100
; #@! TA.AperFunction,Plated,PTH,ComponentDrill
T7C1.200
%
G90
G05
T1
X112.525Y-142.475
X112.6Y-139.9
X116.625Y-139.925
X116.75Y-142.5
X121.425Y-91.0
X121.45Y-95.019
X123.325Y-134.85
X123.55Y-88.375
X126.375Y-134.85
X133.65Y-101.7
X134.25Y-88.525
X139.15Y-61.825
X147.35Y-61.775
X170.0Y-122.175
X170.0Y-124.6
X172.025Y-97.875
X172.025Y-100.5
X175.75Y-122.2
X175.875Y-124.75
X177.75Y-63.325
X184.875Y-70.375
X184.9Y-110.925
X186.975Y-70.375
X186.975Y-102.025
X191.2Y-102.875
X191.2Y-128.1
X193.0Y-100.55
X193.0Y-128.225
T2
X62.017Y-55.87
X62.017Y-58.37
X62.525Y-67.925
X68.267Y-55.87
X68.267Y-58.37
X75.225Y-67.925
X219.337Y-68.62
X219.417Y-63.87
X232.037Y-68.62
X232.117Y-63.87
T3
X56.335Y-67.925
X58.875Y-67.925
T4
X57.148Y-106.92
X57.148Y-109.46
X57.148Y-112.0
X57.148Y-114.54
X57.148Y-117.08
X57.148Y-119.62
X57.148Y-122.16
X57.148Y-124.7
X57.148Y-129.78
X57.148Y-132.32
X57.148Y-134.86
X57.148Y-137.4
X57.148Y-139.94
X57.148Y-142.48
X105.407Y-97.78
X105.407Y-100.32
X105.407Y-102.86
X105.407Y-105.4
X105.407Y-107.94
X105.407Y-110.48
X105.407Y-113.02
X105.407Y-115.56
X105.407Y-118.1
X105.407Y-120.64
X105.407Y-124.7
X105.407Y-127.24
X105.407Y-129.78
X105.407Y-132.32
X105.407Y-134.86
X105.407Y-137.4
X105.407Y-139.94
X105.407Y-142.48
X195.397Y-77.71
X195.397Y-80.25
X195.397Y-82.79
X195.397Y-85.33
X195.397Y-87.87
X195.397Y-90.41
X195.397Y-92.95
X195.397Y-95.49
X195.397Y-99.55
X195.397Y-102.09
X195.397Y-104.63
X195.397Y-107.17
X195.397Y-109.71
X195.397Y-112.25
X195.397Y-114.79
X195.397Y-117.33
X195.397Y-119.87
X195.397Y-122.41
X239.4Y-48.6
X239.4Y-51.14
X239.4Y-53.68
X239.4Y-56.22
X239.4Y-58.76
X239.4Y-61.3
X243.657Y-77.71
X243.657Y-80.25
X243.657Y-82.79
X243.657Y-85.33
X243.657Y-87.87
X243.657Y-90.41
X243.657Y-95.49
X243.657Y-98.03
X243.657Y-100.57
X243.657Y-103.11
X243.657Y-105.65
X243.657Y-108.19
X243.657Y-110.73
X243.657Y-113.27
T5
X118.907Y-96.8
X118.907Y-99.34
X118.907Y-101.88
X118.907Y-104.42
X118.907Y-106.96
X118.907Y-109.5
X118.907Y-112.04
X118.907Y-114.58
X118.907Y-117.12
X118.907Y-119.66
X118.907Y-122.2
X118.907Y-124.74
X118.907Y-127.28
X118.907Y-129.82
X118.907Y-132.36
X118.907Y-134.9
X118.907Y-137.44
X118.907Y-139.98
X118.907Y-142.52
X121.447Y-96.8
X121.447Y-99.34
X121.447Y-101.88
X121.447Y-104.42
X121.447Y-106.96
X121.447Y-109.5
X121.447Y-112.04
X121.447Y-114.58
X121.447Y-117.12
X121.447Y-119.66
X121.447Y-122.2
X121.447Y-124.74
X121.447Y-127.28
X121.447Y-129.82
X121.447Y-132.36
X121.447Y-134.9
X121.447Y-137.44
X121.447Y-139.98
X121.447Y-142.52
X179.867Y-96.8
X179.867Y-99.34
X179.867Y-101.88
X179.867Y-104.42
X179.867Y-106.96
X179.867Y-109.5
X179.867Y-112.04
X179.867Y-114.58
X179.867Y-117.12
X179.867Y-119.66
X179.867Y-122.2
X179.867Y-124.74
X179.867Y-127.28
X179.867Y-129.82
X179.867Y-132.36
X179.867Y-134.9
X179.867Y-137.44
X179.867Y-139.98
X179.867Y-142.52
X182.407Y-96.8
X182.407Y-99.34
X182.407Y-101.88
X182.407Y-104.42
X182.407Y-106.96
X182.407Y-109.5
X182.407Y-112.04
X182.407Y-114.58
X182.407Y-117.12
X182.407Y-119.66
X182.407Y-122.2
X182.407Y-124.74
X182.407Y-127.28
X182.407Y-129.82
X182.407Y-132.36
X182.407Y-134.9
X182.407Y-137.44
X182.407Y-139.98
X182.407Y-142.52
T6
X62.977Y-50.32
X65.517Y-50.32
X68.057Y-50.32
X206.107Y-66.37
X216.267Y-66.37
T7
X80.185Y-53.55
X85.265Y-53.55
X102.953Y-53.55
X108.032Y-53.55
X113.112Y-53.55
X118.192Y-53.55
X140.76Y-53.55
X145.84Y-53.55
X150.92Y-53.55
X170.947Y-53.55
X176.028Y-53.55
X181.107Y-53.55
X186.188Y-53.55
X205.49Y-53.523
X210.57Y-53.523
X215.65Y-53.523
X220.73Y-53.523
M30
