%TF.GenerationSoftware,KiCad,Pcbnew,9.0.4*%
%TF.CreationDate,2025-11-11T15:23:13+07:00*%
%TF.ProjectId,RIP_ExtensionBoard,5249505f-4578-4746-956e-73696f6e426f,1*%
%TF.SameCoordinates,Original*%
%TF.FileFunction,Legend,Top*%
%TF.FilePolarity,Positive*%
%FSLAX46Y46*%
G04 Gerber Fmt 4.6, Leading zero omitted, Abs format (unit mm)*
G04 Created by KiCad (PCBNEW 9.0.4) date 2025-11-11 15:23:13*
%MOMM*%
%LPD*%
G01*
G04 APERTURE LIST*
%ADD10C,0.375000*%
%ADD11C,0.500000*%
%ADD12C,0.175000*%
%ADD13C,0.150000*%
%ADD14C,0.120000*%
%ADD15C,0.127000*%
%ADD16C,0.200000*%
%ADD17C,0.000000*%
G04 APERTURE END LIST*
D10*
X168785714Y-49791928D02*
X169714286Y-49791928D01*
X169714286Y-49791928D02*
X169214286Y-50363357D01*
X169214286Y-50363357D02*
X169428571Y-50363357D01*
X169428571Y-50363357D02*
X169571429Y-50434785D01*
X169571429Y-50434785D02*
X169642857Y-50506214D01*
X169642857Y-50506214D02*
X169714286Y-50649071D01*
X169714286Y-50649071D02*
X169714286Y-51006214D01*
X169714286Y-51006214D02*
X169642857Y-51149071D01*
X169642857Y-51149071D02*
X169571429Y-51220500D01*
X169571429Y-51220500D02*
X169428571Y-51291928D01*
X169428571Y-51291928D02*
X169000000Y-51291928D01*
X169000000Y-51291928D02*
X168857143Y-51220500D01*
X168857143Y-51220500D02*
X168785714Y-51149071D01*
X170357142Y-51149071D02*
X170428571Y-51220500D01*
X170428571Y-51220500D02*
X170357142Y-51291928D01*
X170357142Y-51291928D02*
X170285714Y-51220500D01*
X170285714Y-51220500D02*
X170357142Y-51149071D01*
X170357142Y-51149071D02*
X170357142Y-51291928D01*
X170928571Y-49791928D02*
X171857143Y-49791928D01*
X171857143Y-49791928D02*
X171357143Y-50363357D01*
X171357143Y-50363357D02*
X171571428Y-50363357D01*
X171571428Y-50363357D02*
X171714286Y-50434785D01*
X171714286Y-50434785D02*
X171785714Y-50506214D01*
X171785714Y-50506214D02*
X171857143Y-50649071D01*
X171857143Y-50649071D02*
X171857143Y-51006214D01*
X171857143Y-51006214D02*
X171785714Y-51149071D01*
X171785714Y-51149071D02*
X171714286Y-51220500D01*
X171714286Y-51220500D02*
X171571428Y-51291928D01*
X171571428Y-51291928D02*
X171142857Y-51291928D01*
X171142857Y-51291928D02*
X171000000Y-51220500D01*
X171000000Y-51220500D02*
X170928571Y-51149071D01*
X172285714Y-49791928D02*
X172785714Y-51291928D01*
X172785714Y-51291928D02*
X173285714Y-49791928D01*
X113257142Y-50506214D02*
X113471428Y-50577642D01*
X113471428Y-50577642D02*
X113542857Y-50649071D01*
X113542857Y-50649071D02*
X113614285Y-50791928D01*
X113614285Y-50791928D02*
X113614285Y-51006214D01*
X113614285Y-51006214D02*
X113542857Y-51149071D01*
X113542857Y-51149071D02*
X113471428Y-51220500D01*
X113471428Y-51220500D02*
X113328571Y-51291928D01*
X113328571Y-51291928D02*
X112757142Y-51291928D01*
X112757142Y-51291928D02*
X112757142Y-49791928D01*
X112757142Y-49791928D02*
X113257142Y-49791928D01*
X113257142Y-49791928D02*
X113400000Y-49863357D01*
X113400000Y-49863357D02*
X113471428Y-49934785D01*
X113471428Y-49934785D02*
X113542857Y-50077642D01*
X113542857Y-50077642D02*
X113542857Y-50220500D01*
X113542857Y-50220500D02*
X113471428Y-50363357D01*
X113471428Y-50363357D02*
X113400000Y-50434785D01*
X113400000Y-50434785D02*
X113257142Y-50506214D01*
X113257142Y-50506214D02*
X112757142Y-50506214D01*
X144570714Y-51291928D02*
X144570714Y-49791928D01*
X144570714Y-49791928D02*
X144927857Y-49791928D01*
X144927857Y-49791928D02*
X145142143Y-49863357D01*
X145142143Y-49863357D02*
X145285000Y-50006214D01*
X145285000Y-50006214D02*
X145356429Y-50149071D01*
X145356429Y-50149071D02*
X145427857Y-50434785D01*
X145427857Y-50434785D02*
X145427857Y-50649071D01*
X145427857Y-50649071D02*
X145356429Y-50934785D01*
X145356429Y-50934785D02*
X145285000Y-51077642D01*
X145285000Y-51077642D02*
X145142143Y-51220500D01*
X145142143Y-51220500D02*
X144927857Y-51291928D01*
X144927857Y-51291928D02*
X144570714Y-51291928D01*
X146070714Y-51291928D02*
X146070714Y-50291928D01*
X146070714Y-49791928D02*
X145999286Y-49863357D01*
X145999286Y-49863357D02*
X146070714Y-49934785D01*
X146070714Y-49934785D02*
X146142143Y-49863357D01*
X146142143Y-49863357D02*
X146070714Y-49791928D01*
X146070714Y-49791928D02*
X146070714Y-49934785D01*
X146785000Y-51291928D02*
X146785000Y-50291928D01*
X146785000Y-50577642D02*
X146856429Y-50434785D01*
X146856429Y-50434785D02*
X146927858Y-50363357D01*
X146927858Y-50363357D02*
X147070715Y-50291928D01*
X147070715Y-50291928D02*
X147213572Y-50291928D01*
X117082143Y-49863357D02*
X116939286Y-49791928D01*
X116939286Y-49791928D02*
X116725000Y-49791928D01*
X116725000Y-49791928D02*
X116510714Y-49863357D01*
X116510714Y-49863357D02*
X116367857Y-50006214D01*
X116367857Y-50006214D02*
X116296428Y-50149071D01*
X116296428Y-50149071D02*
X116225000Y-50434785D01*
X116225000Y-50434785D02*
X116225000Y-50649071D01*
X116225000Y-50649071D02*
X116296428Y-50934785D01*
X116296428Y-50934785D02*
X116367857Y-51077642D01*
X116367857Y-51077642D02*
X116510714Y-51220500D01*
X116510714Y-51220500D02*
X116725000Y-51291928D01*
X116725000Y-51291928D02*
X116867857Y-51291928D01*
X116867857Y-51291928D02*
X117082143Y-51220500D01*
X117082143Y-51220500D02*
X117153571Y-51149071D01*
X117153571Y-51149071D02*
X117153571Y-50649071D01*
X117153571Y-50649071D02*
X116867857Y-50649071D01*
X117796428Y-51291928D02*
X117796428Y-49791928D01*
X117796428Y-49791928D02*
X118653571Y-51291928D01*
X118653571Y-51291928D02*
X118653571Y-49791928D01*
X119367857Y-51291928D02*
X119367857Y-49791928D01*
X119367857Y-49791928D02*
X119725000Y-49791928D01*
X119725000Y-49791928D02*
X119939286Y-49863357D01*
X119939286Y-49863357D02*
X120082143Y-50006214D01*
X120082143Y-50006214D02*
X120153572Y-50149071D01*
X120153572Y-50149071D02*
X120225000Y-50434785D01*
X120225000Y-50434785D02*
X120225000Y-50649071D01*
X120225000Y-50649071D02*
X120153572Y-50934785D01*
X120153572Y-50934785D02*
X120082143Y-51077642D01*
X120082143Y-51077642D02*
X119939286Y-51220500D01*
X119939286Y-51220500D02*
X119725000Y-51291928D01*
X119725000Y-51291928D02*
X119367857Y-51291928D01*
X185007143Y-49863357D02*
X184864286Y-49791928D01*
X184864286Y-49791928D02*
X184650000Y-49791928D01*
X184650000Y-49791928D02*
X184435714Y-49863357D01*
X184435714Y-49863357D02*
X184292857Y-50006214D01*
X184292857Y-50006214D02*
X184221428Y-50149071D01*
X184221428Y-50149071D02*
X184150000Y-50434785D01*
X184150000Y-50434785D02*
X184150000Y-50649071D01*
X184150000Y-50649071D02*
X184221428Y-50934785D01*
X184221428Y-50934785D02*
X184292857Y-51077642D01*
X184292857Y-51077642D02*
X184435714Y-51220500D01*
X184435714Y-51220500D02*
X184650000Y-51291928D01*
X184650000Y-51291928D02*
X184792857Y-51291928D01*
X184792857Y-51291928D02*
X185007143Y-51220500D01*
X185007143Y-51220500D02*
X185078571Y-51149071D01*
X185078571Y-51149071D02*
X185078571Y-50649071D01*
X185078571Y-50649071D02*
X184792857Y-50649071D01*
X185721428Y-51291928D02*
X185721428Y-49791928D01*
X185721428Y-49791928D02*
X186578571Y-51291928D01*
X186578571Y-51291928D02*
X186578571Y-49791928D01*
X187292857Y-51291928D02*
X187292857Y-49791928D01*
X187292857Y-49791928D02*
X187650000Y-49791928D01*
X187650000Y-49791928D02*
X187864286Y-49863357D01*
X187864286Y-49863357D02*
X188007143Y-50006214D01*
X188007143Y-50006214D02*
X188078572Y-50149071D01*
X188078572Y-50149071D02*
X188150000Y-50434785D01*
X188150000Y-50434785D02*
X188150000Y-50649071D01*
X188150000Y-50649071D02*
X188078572Y-50934785D01*
X188078572Y-50934785D02*
X188007143Y-51077642D01*
X188007143Y-51077642D02*
X187864286Y-51220500D01*
X187864286Y-51220500D02*
X187650000Y-51291928D01*
X187650000Y-51291928D02*
X187292857Y-51291928D01*
D11*
X93557518Y-65432025D02*
X92557518Y-64003453D01*
X91843232Y-65432025D02*
X91843232Y-62432025D01*
X91843232Y-62432025D02*
X92986089Y-62432025D01*
X92986089Y-62432025D02*
X93271804Y-62574882D01*
X93271804Y-62574882D02*
X93414661Y-62717739D01*
X93414661Y-62717739D02*
X93557518Y-63003453D01*
X93557518Y-63003453D02*
X93557518Y-63432025D01*
X93557518Y-63432025D02*
X93414661Y-63717739D01*
X93414661Y-63717739D02*
X93271804Y-63860596D01*
X93271804Y-63860596D02*
X92986089Y-64003453D01*
X92986089Y-64003453D02*
X91843232Y-64003453D01*
X95271804Y-65432025D02*
X94986089Y-65289168D01*
X94986089Y-65289168D02*
X94843232Y-65146310D01*
X94843232Y-65146310D02*
X94700375Y-64860596D01*
X94700375Y-64860596D02*
X94700375Y-64003453D01*
X94700375Y-64003453D02*
X94843232Y-63717739D01*
X94843232Y-63717739D02*
X94986089Y-63574882D01*
X94986089Y-63574882D02*
X95271804Y-63432025D01*
X95271804Y-63432025D02*
X95700375Y-63432025D01*
X95700375Y-63432025D02*
X95986089Y-63574882D01*
X95986089Y-63574882D02*
X96128947Y-63717739D01*
X96128947Y-63717739D02*
X96271804Y-64003453D01*
X96271804Y-64003453D02*
X96271804Y-64860596D01*
X96271804Y-64860596D02*
X96128947Y-65146310D01*
X96128947Y-65146310D02*
X95986089Y-65289168D01*
X95986089Y-65289168D02*
X95700375Y-65432025D01*
X95700375Y-65432025D02*
X95271804Y-65432025D01*
X97128947Y-63432025D02*
X98271804Y-63432025D01*
X97557518Y-62432025D02*
X97557518Y-65003453D01*
X97557518Y-65003453D02*
X97700375Y-65289168D01*
X97700375Y-65289168D02*
X97986090Y-65432025D01*
X97986090Y-65432025D02*
X98271804Y-65432025D01*
X100557519Y-65432025D02*
X100557519Y-63860596D01*
X100557519Y-63860596D02*
X100414661Y-63574882D01*
X100414661Y-63574882D02*
X100128947Y-63432025D01*
X100128947Y-63432025D02*
X99557519Y-63432025D01*
X99557519Y-63432025D02*
X99271804Y-63574882D01*
X100557519Y-65289168D02*
X100271804Y-65432025D01*
X100271804Y-65432025D02*
X99557519Y-65432025D01*
X99557519Y-65432025D02*
X99271804Y-65289168D01*
X99271804Y-65289168D02*
X99128947Y-65003453D01*
X99128947Y-65003453D02*
X99128947Y-64717739D01*
X99128947Y-64717739D02*
X99271804Y-64432025D01*
X99271804Y-64432025D02*
X99557519Y-64289168D01*
X99557519Y-64289168D02*
X100271804Y-64289168D01*
X100271804Y-64289168D02*
X100557519Y-64146310D01*
X101986090Y-65432025D02*
X101986090Y-63432025D01*
X101986090Y-64003453D02*
X102128947Y-63717739D01*
X102128947Y-63717739D02*
X102271805Y-63574882D01*
X102271805Y-63574882D02*
X102557519Y-63432025D01*
X102557519Y-63432025D02*
X102843233Y-63432025D01*
X103557519Y-63432025D02*
X104271805Y-65432025D01*
X104986090Y-63432025D02*
X104271805Y-65432025D01*
X104271805Y-65432025D02*
X103986090Y-66146310D01*
X103986090Y-66146310D02*
X103843233Y-66289168D01*
X103843233Y-66289168D02*
X103557519Y-66432025D01*
X91843232Y-70261857D02*
X91843232Y-67261857D01*
X93271803Y-68261857D02*
X93271803Y-70261857D01*
X93271803Y-68547571D02*
X93414660Y-68404714D01*
X93414660Y-68404714D02*
X93700375Y-68261857D01*
X93700375Y-68261857D02*
X94128946Y-68261857D01*
X94128946Y-68261857D02*
X94414660Y-68404714D01*
X94414660Y-68404714D02*
X94557518Y-68690428D01*
X94557518Y-68690428D02*
X94557518Y-70261857D01*
X95700375Y-68261857D02*
X96414661Y-70261857D01*
X96414661Y-70261857D02*
X97128946Y-68261857D01*
X99414660Y-70119000D02*
X99128946Y-70261857D01*
X99128946Y-70261857D02*
X98557518Y-70261857D01*
X98557518Y-70261857D02*
X98271803Y-70119000D01*
X98271803Y-70119000D02*
X98128946Y-69833285D01*
X98128946Y-69833285D02*
X98128946Y-68690428D01*
X98128946Y-68690428D02*
X98271803Y-68404714D01*
X98271803Y-68404714D02*
X98557518Y-68261857D01*
X98557518Y-68261857D02*
X99128946Y-68261857D01*
X99128946Y-68261857D02*
X99414660Y-68404714D01*
X99414660Y-68404714D02*
X99557518Y-68690428D01*
X99557518Y-68690428D02*
X99557518Y-68976142D01*
X99557518Y-68976142D02*
X98128946Y-69261857D01*
X100843232Y-70261857D02*
X100843232Y-68261857D01*
X100843232Y-68833285D02*
X100986089Y-68547571D01*
X100986089Y-68547571D02*
X101128947Y-68404714D01*
X101128947Y-68404714D02*
X101414661Y-68261857D01*
X101414661Y-68261857D02*
X101700375Y-68261857D01*
X102271804Y-68261857D02*
X103414661Y-68261857D01*
X102700375Y-67261857D02*
X102700375Y-69833285D01*
X102700375Y-69833285D02*
X102843232Y-70119000D01*
X102843232Y-70119000D02*
X103128947Y-70261857D01*
X103128947Y-70261857D02*
X103414661Y-70261857D01*
X105557518Y-70119000D02*
X105271804Y-70261857D01*
X105271804Y-70261857D02*
X104700376Y-70261857D01*
X104700376Y-70261857D02*
X104414661Y-70119000D01*
X104414661Y-70119000D02*
X104271804Y-69833285D01*
X104271804Y-69833285D02*
X104271804Y-68690428D01*
X104271804Y-68690428D02*
X104414661Y-68404714D01*
X104414661Y-68404714D02*
X104700376Y-68261857D01*
X104700376Y-68261857D02*
X105271804Y-68261857D01*
X105271804Y-68261857D02*
X105557518Y-68404714D01*
X105557518Y-68404714D02*
X105700376Y-68690428D01*
X105700376Y-68690428D02*
X105700376Y-68976142D01*
X105700376Y-68976142D02*
X104271804Y-69261857D01*
X108271805Y-70261857D02*
X108271805Y-67261857D01*
X108271805Y-70119000D02*
X107986090Y-70261857D01*
X107986090Y-70261857D02*
X107414662Y-70261857D01*
X107414662Y-70261857D02*
X107128947Y-70119000D01*
X107128947Y-70119000D02*
X106986090Y-69976142D01*
X106986090Y-69976142D02*
X106843233Y-69690428D01*
X106843233Y-69690428D02*
X106843233Y-68833285D01*
X106843233Y-68833285D02*
X106986090Y-68547571D01*
X106986090Y-68547571D02*
X107128947Y-68404714D01*
X107128947Y-68404714D02*
X107414662Y-68261857D01*
X107414662Y-68261857D02*
X107986090Y-68261857D01*
X107986090Y-68261857D02*
X108271805Y-68404714D01*
X91843232Y-75091689D02*
X91843232Y-72091689D01*
X91843232Y-72091689D02*
X92986089Y-72091689D01*
X92986089Y-72091689D02*
X93271804Y-72234546D01*
X93271804Y-72234546D02*
X93414661Y-72377403D01*
X93414661Y-72377403D02*
X93557518Y-72663117D01*
X93557518Y-72663117D02*
X93557518Y-73091689D01*
X93557518Y-73091689D02*
X93414661Y-73377403D01*
X93414661Y-73377403D02*
X93271804Y-73520260D01*
X93271804Y-73520260D02*
X92986089Y-73663117D01*
X92986089Y-73663117D02*
X91843232Y-73663117D01*
X95986089Y-74948832D02*
X95700375Y-75091689D01*
X95700375Y-75091689D02*
X95128947Y-75091689D01*
X95128947Y-75091689D02*
X94843232Y-74948832D01*
X94843232Y-74948832D02*
X94700375Y-74663117D01*
X94700375Y-74663117D02*
X94700375Y-73520260D01*
X94700375Y-73520260D02*
X94843232Y-73234546D01*
X94843232Y-73234546D02*
X95128947Y-73091689D01*
X95128947Y-73091689D02*
X95700375Y-73091689D01*
X95700375Y-73091689D02*
X95986089Y-73234546D01*
X95986089Y-73234546D02*
X96128947Y-73520260D01*
X96128947Y-73520260D02*
X96128947Y-73805974D01*
X96128947Y-73805974D02*
X94700375Y-74091689D01*
X97414661Y-73091689D02*
X97414661Y-75091689D01*
X97414661Y-73377403D02*
X97557518Y-73234546D01*
X97557518Y-73234546D02*
X97843233Y-73091689D01*
X97843233Y-73091689D02*
X98271804Y-73091689D01*
X98271804Y-73091689D02*
X98557518Y-73234546D01*
X98557518Y-73234546D02*
X98700376Y-73520260D01*
X98700376Y-73520260D02*
X98700376Y-75091689D01*
X101414662Y-75091689D02*
X101414662Y-72091689D01*
X101414662Y-74948832D02*
X101128947Y-75091689D01*
X101128947Y-75091689D02*
X100557519Y-75091689D01*
X100557519Y-75091689D02*
X100271804Y-74948832D01*
X100271804Y-74948832D02*
X100128947Y-74805974D01*
X100128947Y-74805974D02*
X99986090Y-74520260D01*
X99986090Y-74520260D02*
X99986090Y-73663117D01*
X99986090Y-73663117D02*
X100128947Y-73377403D01*
X100128947Y-73377403D02*
X100271804Y-73234546D01*
X100271804Y-73234546D02*
X100557519Y-73091689D01*
X100557519Y-73091689D02*
X101128947Y-73091689D01*
X101128947Y-73091689D02*
X101414662Y-73234546D01*
X104128948Y-73091689D02*
X104128948Y-75091689D01*
X102843233Y-73091689D02*
X102843233Y-74663117D01*
X102843233Y-74663117D02*
X102986090Y-74948832D01*
X102986090Y-74948832D02*
X103271805Y-75091689D01*
X103271805Y-75091689D02*
X103700376Y-75091689D01*
X103700376Y-75091689D02*
X103986090Y-74948832D01*
X103986090Y-74948832D02*
X104128948Y-74805974D01*
X105986091Y-75091689D02*
X105700376Y-74948832D01*
X105700376Y-74948832D02*
X105557519Y-74663117D01*
X105557519Y-74663117D02*
X105557519Y-72091689D01*
X108414663Y-73091689D02*
X108414663Y-75091689D01*
X107128948Y-73091689D02*
X107128948Y-74663117D01*
X107128948Y-74663117D02*
X107271805Y-74948832D01*
X107271805Y-74948832D02*
X107557520Y-75091689D01*
X107557520Y-75091689D02*
X107986091Y-75091689D01*
X107986091Y-75091689D02*
X108271805Y-74948832D01*
X108271805Y-74948832D02*
X108414663Y-74805974D01*
X109843234Y-75091689D02*
X109843234Y-73091689D01*
X109843234Y-73377403D02*
X109986091Y-73234546D01*
X109986091Y-73234546D02*
X110271806Y-73091689D01*
X110271806Y-73091689D02*
X110700377Y-73091689D01*
X110700377Y-73091689D02*
X110986091Y-73234546D01*
X110986091Y-73234546D02*
X111128949Y-73520260D01*
X111128949Y-73520260D02*
X111128949Y-75091689D01*
X111128949Y-73520260D02*
X111271806Y-73234546D01*
X111271806Y-73234546D02*
X111557520Y-73091689D01*
X111557520Y-73091689D02*
X111986091Y-73091689D01*
X111986091Y-73091689D02*
X112271806Y-73234546D01*
X112271806Y-73234546D02*
X112414663Y-73520260D01*
X112414663Y-73520260D02*
X112414663Y-75091689D01*
D10*
X203233571Y-56763714D02*
X203733571Y-56763714D01*
X203947857Y-57549428D02*
X203233571Y-57549428D01*
X203233571Y-57549428D02*
X203233571Y-56049428D01*
X203233571Y-56049428D02*
X203947857Y-56049428D01*
X204590714Y-57549428D02*
X204590714Y-56549428D01*
X204590714Y-56692285D02*
X204662143Y-56620857D01*
X204662143Y-56620857D02*
X204805000Y-56549428D01*
X204805000Y-56549428D02*
X205019286Y-56549428D01*
X205019286Y-56549428D02*
X205162143Y-56620857D01*
X205162143Y-56620857D02*
X205233572Y-56763714D01*
X205233572Y-56763714D02*
X205233572Y-57549428D01*
X205233572Y-56763714D02*
X205305000Y-56620857D01*
X205305000Y-56620857D02*
X205447857Y-56549428D01*
X205447857Y-56549428D02*
X205662143Y-56549428D01*
X205662143Y-56549428D02*
X205805000Y-56620857D01*
X205805000Y-56620857D02*
X205876429Y-56763714D01*
X205876429Y-56763714D02*
X205876429Y-57549428D01*
X207162143Y-57478000D02*
X207019286Y-57549428D01*
X207019286Y-57549428D02*
X206733572Y-57549428D01*
X206733572Y-57549428D02*
X206590714Y-57478000D01*
X206590714Y-57478000D02*
X206519286Y-57335142D01*
X206519286Y-57335142D02*
X206519286Y-56763714D01*
X206519286Y-56763714D02*
X206590714Y-56620857D01*
X206590714Y-56620857D02*
X206733572Y-56549428D01*
X206733572Y-56549428D02*
X207019286Y-56549428D01*
X207019286Y-56549428D02*
X207162143Y-56620857D01*
X207162143Y-56620857D02*
X207233572Y-56763714D01*
X207233572Y-56763714D02*
X207233572Y-56906571D01*
X207233572Y-56906571D02*
X206519286Y-57049428D01*
X207876428Y-57549428D02*
X207876428Y-56549428D01*
X207876428Y-56835142D02*
X207947857Y-56692285D01*
X207947857Y-56692285D02*
X208019286Y-56620857D01*
X208019286Y-56620857D02*
X208162143Y-56549428D01*
X208162143Y-56549428D02*
X208305000Y-56549428D01*
X209447857Y-56549428D02*
X209447857Y-57763714D01*
X209447857Y-57763714D02*
X209376428Y-57906571D01*
X209376428Y-57906571D02*
X209304999Y-57978000D01*
X209304999Y-57978000D02*
X209162142Y-58049428D01*
X209162142Y-58049428D02*
X208947857Y-58049428D01*
X208947857Y-58049428D02*
X208804999Y-57978000D01*
X209447857Y-57478000D02*
X209304999Y-57549428D01*
X209304999Y-57549428D02*
X209019285Y-57549428D01*
X209019285Y-57549428D02*
X208876428Y-57478000D01*
X208876428Y-57478000D02*
X208804999Y-57406571D01*
X208804999Y-57406571D02*
X208733571Y-57263714D01*
X208733571Y-57263714D02*
X208733571Y-56835142D01*
X208733571Y-56835142D02*
X208804999Y-56692285D01*
X208804999Y-56692285D02*
X208876428Y-56620857D01*
X208876428Y-56620857D02*
X209019285Y-56549428D01*
X209019285Y-56549428D02*
X209304999Y-56549428D01*
X209304999Y-56549428D02*
X209447857Y-56620857D01*
X210733571Y-57478000D02*
X210590714Y-57549428D01*
X210590714Y-57549428D02*
X210305000Y-57549428D01*
X210305000Y-57549428D02*
X210162142Y-57478000D01*
X210162142Y-57478000D02*
X210090714Y-57335142D01*
X210090714Y-57335142D02*
X210090714Y-56763714D01*
X210090714Y-56763714D02*
X210162142Y-56620857D01*
X210162142Y-56620857D02*
X210305000Y-56549428D01*
X210305000Y-56549428D02*
X210590714Y-56549428D01*
X210590714Y-56549428D02*
X210733571Y-56620857D01*
X210733571Y-56620857D02*
X210805000Y-56763714D01*
X210805000Y-56763714D02*
X210805000Y-56906571D01*
X210805000Y-56906571D02*
X210090714Y-57049428D01*
X211447856Y-56549428D02*
X211447856Y-57549428D01*
X211447856Y-56692285D02*
X211519285Y-56620857D01*
X211519285Y-56620857D02*
X211662142Y-56549428D01*
X211662142Y-56549428D02*
X211876428Y-56549428D01*
X211876428Y-56549428D02*
X212019285Y-56620857D01*
X212019285Y-56620857D02*
X212090714Y-56763714D01*
X212090714Y-56763714D02*
X212090714Y-57549428D01*
X213447857Y-57478000D02*
X213304999Y-57549428D01*
X213304999Y-57549428D02*
X213019285Y-57549428D01*
X213019285Y-57549428D02*
X212876428Y-57478000D01*
X212876428Y-57478000D02*
X212804999Y-57406571D01*
X212804999Y-57406571D02*
X212733571Y-57263714D01*
X212733571Y-57263714D02*
X212733571Y-56835142D01*
X212733571Y-56835142D02*
X212804999Y-56692285D01*
X212804999Y-56692285D02*
X212876428Y-56620857D01*
X212876428Y-56620857D02*
X213019285Y-56549428D01*
X213019285Y-56549428D02*
X213304999Y-56549428D01*
X213304999Y-56549428D02*
X213447857Y-56620857D01*
X213947856Y-56549428D02*
X214304999Y-57549428D01*
X214662142Y-56549428D02*
X214304999Y-57549428D01*
X214304999Y-57549428D02*
X214162142Y-57906571D01*
X214162142Y-57906571D02*
X214090713Y-57978000D01*
X214090713Y-57978000D02*
X213947856Y-58049428D01*
X216304999Y-57478000D02*
X216519285Y-57549428D01*
X216519285Y-57549428D02*
X216876427Y-57549428D01*
X216876427Y-57549428D02*
X217019285Y-57478000D01*
X217019285Y-57478000D02*
X217090713Y-57406571D01*
X217090713Y-57406571D02*
X217162142Y-57263714D01*
X217162142Y-57263714D02*
X217162142Y-57120857D01*
X217162142Y-57120857D02*
X217090713Y-56978000D01*
X217090713Y-56978000D02*
X217019285Y-56906571D01*
X217019285Y-56906571D02*
X216876427Y-56835142D01*
X216876427Y-56835142D02*
X216590713Y-56763714D01*
X216590713Y-56763714D02*
X216447856Y-56692285D01*
X216447856Y-56692285D02*
X216376427Y-56620857D01*
X216376427Y-56620857D02*
X216304999Y-56478000D01*
X216304999Y-56478000D02*
X216304999Y-56335142D01*
X216304999Y-56335142D02*
X216376427Y-56192285D01*
X216376427Y-56192285D02*
X216447856Y-56120857D01*
X216447856Y-56120857D02*
X216590713Y-56049428D01*
X216590713Y-56049428D02*
X216947856Y-56049428D01*
X216947856Y-56049428D02*
X217162142Y-56120857D01*
X217662141Y-56549428D02*
X217947856Y-57549428D01*
X217947856Y-57549428D02*
X218233570Y-56835142D01*
X218233570Y-56835142D02*
X218519284Y-57549428D01*
X218519284Y-57549428D02*
X218804998Y-56549428D01*
X219376427Y-57549428D02*
X219376427Y-56549428D01*
X219376427Y-56049428D02*
X219304999Y-56120857D01*
X219304999Y-56120857D02*
X219376427Y-56192285D01*
X219376427Y-56192285D02*
X219447856Y-56120857D01*
X219447856Y-56120857D02*
X219376427Y-56049428D01*
X219376427Y-56049428D02*
X219376427Y-56192285D01*
X219876428Y-56549428D02*
X220447856Y-56549428D01*
X220090713Y-56049428D02*
X220090713Y-57335142D01*
X220090713Y-57335142D02*
X220162142Y-57478000D01*
X220162142Y-57478000D02*
X220304999Y-57549428D01*
X220304999Y-57549428D02*
X220447856Y-57549428D01*
X221590714Y-57478000D02*
X221447856Y-57549428D01*
X221447856Y-57549428D02*
X221162142Y-57549428D01*
X221162142Y-57549428D02*
X221019285Y-57478000D01*
X221019285Y-57478000D02*
X220947856Y-57406571D01*
X220947856Y-57406571D02*
X220876428Y-57263714D01*
X220876428Y-57263714D02*
X220876428Y-56835142D01*
X220876428Y-56835142D02*
X220947856Y-56692285D01*
X220947856Y-56692285D02*
X221019285Y-56620857D01*
X221019285Y-56620857D02*
X221162142Y-56549428D01*
X221162142Y-56549428D02*
X221447856Y-56549428D01*
X221447856Y-56549428D02*
X221590714Y-56620857D01*
X222233570Y-57549428D02*
X222233570Y-56049428D01*
X222876428Y-57549428D02*
X222876428Y-56763714D01*
X222876428Y-56763714D02*
X222804999Y-56620857D01*
X222804999Y-56620857D02*
X222662142Y-56549428D01*
X222662142Y-56549428D02*
X222447856Y-56549428D01*
X222447856Y-56549428D02*
X222304999Y-56620857D01*
X222304999Y-56620857D02*
X222233570Y-56692285D01*
D12*
X59914733Y-57436666D02*
X59914733Y-57836666D01*
X59914733Y-57636666D02*
X59214733Y-57636666D01*
X59214733Y-57636666D02*
X59314733Y-57703333D01*
X59314733Y-57703333D02*
X59381400Y-57770000D01*
X59381400Y-57770000D02*
X59414733Y-57836666D01*
X59448066Y-56836666D02*
X59914733Y-56836666D01*
X59448066Y-57136666D02*
X59814733Y-57136666D01*
X59814733Y-57136666D02*
X59881400Y-57103333D01*
X59881400Y-57103333D02*
X59914733Y-57036666D01*
X59914733Y-57036666D02*
X59914733Y-56936666D01*
X59914733Y-56936666D02*
X59881400Y-56869999D01*
X59881400Y-56869999D02*
X59848066Y-56836666D01*
X59448066Y-56603333D02*
X59448066Y-56336666D01*
X59914733Y-56503333D02*
X59314733Y-56503333D01*
X59314733Y-56503333D02*
X59248066Y-56470000D01*
X59248066Y-56470000D02*
X59214733Y-56403333D01*
X59214733Y-56403333D02*
X59214733Y-56336666D01*
X236314733Y-56833333D02*
X236314733Y-56433333D01*
X237014733Y-56633333D02*
X236314733Y-56633333D01*
X236314733Y-56266667D02*
X237014733Y-55800000D01*
X236314733Y-55800000D02*
X237014733Y-56266667D01*
D10*
X102624643Y-56024428D02*
X103481786Y-56024428D01*
X103053214Y-57524428D02*
X103053214Y-56024428D01*
X103981785Y-57524428D02*
X103981785Y-56024428D01*
X104624643Y-57524428D02*
X104624643Y-56738714D01*
X104624643Y-56738714D02*
X104553214Y-56595857D01*
X104553214Y-56595857D02*
X104410357Y-56524428D01*
X104410357Y-56524428D02*
X104196071Y-56524428D01*
X104196071Y-56524428D02*
X104053214Y-56595857D01*
X104053214Y-56595857D02*
X103981785Y-56667285D01*
X105910357Y-57453000D02*
X105767500Y-57524428D01*
X105767500Y-57524428D02*
X105481786Y-57524428D01*
X105481786Y-57524428D02*
X105338928Y-57453000D01*
X105338928Y-57453000D02*
X105267500Y-57310142D01*
X105267500Y-57310142D02*
X105267500Y-56738714D01*
X105267500Y-56738714D02*
X105338928Y-56595857D01*
X105338928Y-56595857D02*
X105481786Y-56524428D01*
X105481786Y-56524428D02*
X105767500Y-56524428D01*
X105767500Y-56524428D02*
X105910357Y-56595857D01*
X105910357Y-56595857D02*
X105981786Y-56738714D01*
X105981786Y-56738714D02*
X105981786Y-56881571D01*
X105981786Y-56881571D02*
X105267500Y-57024428D01*
X106410357Y-56524428D02*
X106981785Y-56524428D01*
X106624642Y-56024428D02*
X106624642Y-57310142D01*
X106624642Y-57310142D02*
X106696071Y-57453000D01*
X106696071Y-57453000D02*
X106838928Y-57524428D01*
X106838928Y-57524428D02*
X106981785Y-57524428D01*
X108124643Y-57524428D02*
X108124643Y-56738714D01*
X108124643Y-56738714D02*
X108053214Y-56595857D01*
X108053214Y-56595857D02*
X107910357Y-56524428D01*
X107910357Y-56524428D02*
X107624643Y-56524428D01*
X107624643Y-56524428D02*
X107481785Y-56595857D01*
X108124643Y-57453000D02*
X107981785Y-57524428D01*
X107981785Y-57524428D02*
X107624643Y-57524428D01*
X107624643Y-57524428D02*
X107481785Y-57453000D01*
X107481785Y-57453000D02*
X107410357Y-57310142D01*
X107410357Y-57310142D02*
X107410357Y-57167285D01*
X107410357Y-57167285D02*
X107481785Y-57024428D01*
X107481785Y-57024428D02*
X107624643Y-56953000D01*
X107624643Y-56953000D02*
X107981785Y-56953000D01*
X107981785Y-56953000D02*
X108124643Y-56881571D01*
X109981785Y-56738714D02*
X110481785Y-56738714D01*
X110696071Y-57524428D02*
X109981785Y-57524428D01*
X109981785Y-57524428D02*
X109981785Y-56024428D01*
X109981785Y-56024428D02*
X110696071Y-56024428D01*
X111338928Y-56524428D02*
X111338928Y-57524428D01*
X111338928Y-56667285D02*
X111410357Y-56595857D01*
X111410357Y-56595857D02*
X111553214Y-56524428D01*
X111553214Y-56524428D02*
X111767500Y-56524428D01*
X111767500Y-56524428D02*
X111910357Y-56595857D01*
X111910357Y-56595857D02*
X111981786Y-56738714D01*
X111981786Y-56738714D02*
X111981786Y-57524428D01*
X113338929Y-57453000D02*
X113196071Y-57524428D01*
X113196071Y-57524428D02*
X112910357Y-57524428D01*
X112910357Y-57524428D02*
X112767500Y-57453000D01*
X112767500Y-57453000D02*
X112696071Y-57381571D01*
X112696071Y-57381571D02*
X112624643Y-57238714D01*
X112624643Y-57238714D02*
X112624643Y-56810142D01*
X112624643Y-56810142D02*
X112696071Y-56667285D01*
X112696071Y-56667285D02*
X112767500Y-56595857D01*
X112767500Y-56595857D02*
X112910357Y-56524428D01*
X112910357Y-56524428D02*
X113196071Y-56524428D01*
X113196071Y-56524428D02*
X113338929Y-56595857D01*
X114196071Y-57524428D02*
X114053214Y-57453000D01*
X114053214Y-57453000D02*
X113981785Y-57381571D01*
X113981785Y-57381571D02*
X113910357Y-57238714D01*
X113910357Y-57238714D02*
X113910357Y-56810142D01*
X113910357Y-56810142D02*
X113981785Y-56667285D01*
X113981785Y-56667285D02*
X114053214Y-56595857D01*
X114053214Y-56595857D02*
X114196071Y-56524428D01*
X114196071Y-56524428D02*
X114410357Y-56524428D01*
X114410357Y-56524428D02*
X114553214Y-56595857D01*
X114553214Y-56595857D02*
X114624643Y-56667285D01*
X114624643Y-56667285D02*
X114696071Y-56810142D01*
X114696071Y-56810142D02*
X114696071Y-57238714D01*
X114696071Y-57238714D02*
X114624643Y-57381571D01*
X114624643Y-57381571D02*
X114553214Y-57453000D01*
X114553214Y-57453000D02*
X114410357Y-57524428D01*
X114410357Y-57524428D02*
X114196071Y-57524428D01*
X115981786Y-57524428D02*
X115981786Y-56024428D01*
X115981786Y-57453000D02*
X115838928Y-57524428D01*
X115838928Y-57524428D02*
X115553214Y-57524428D01*
X115553214Y-57524428D02*
X115410357Y-57453000D01*
X115410357Y-57453000D02*
X115338928Y-57381571D01*
X115338928Y-57381571D02*
X115267500Y-57238714D01*
X115267500Y-57238714D02*
X115267500Y-56810142D01*
X115267500Y-56810142D02*
X115338928Y-56667285D01*
X115338928Y-56667285D02*
X115410357Y-56595857D01*
X115410357Y-56595857D02*
X115553214Y-56524428D01*
X115553214Y-56524428D02*
X115838928Y-56524428D01*
X115838928Y-56524428D02*
X115981786Y-56595857D01*
X117267500Y-57453000D02*
X117124643Y-57524428D01*
X117124643Y-57524428D02*
X116838929Y-57524428D01*
X116838929Y-57524428D02*
X116696071Y-57453000D01*
X116696071Y-57453000D02*
X116624643Y-57310142D01*
X116624643Y-57310142D02*
X116624643Y-56738714D01*
X116624643Y-56738714D02*
X116696071Y-56595857D01*
X116696071Y-56595857D02*
X116838929Y-56524428D01*
X116838929Y-56524428D02*
X117124643Y-56524428D01*
X117124643Y-56524428D02*
X117267500Y-56595857D01*
X117267500Y-56595857D02*
X117338929Y-56738714D01*
X117338929Y-56738714D02*
X117338929Y-56881571D01*
X117338929Y-56881571D02*
X116624643Y-57024428D01*
X117981785Y-57524428D02*
X117981785Y-56524428D01*
X117981785Y-56810142D02*
X118053214Y-56667285D01*
X118053214Y-56667285D02*
X118124643Y-56595857D01*
X118124643Y-56595857D02*
X118267500Y-56524428D01*
X118267500Y-56524428D02*
X118410357Y-56524428D01*
D11*
X215760155Y-135952143D02*
X215617298Y-135809286D01*
X215617298Y-135809286D02*
X215474441Y-135523572D01*
X215474441Y-135523572D02*
X215474441Y-134809286D01*
X215474441Y-134809286D02*
X215617298Y-134523572D01*
X215617298Y-134523572D02*
X215760155Y-134380714D01*
X215760155Y-134380714D02*
X216045869Y-134237857D01*
X216045869Y-134237857D02*
X216331584Y-134237857D01*
X216331584Y-134237857D02*
X216760155Y-134380714D01*
X216760155Y-134380714D02*
X218474441Y-136095000D01*
X218474441Y-136095000D02*
X218474441Y-134237857D01*
X218188726Y-132952143D02*
X218331584Y-132809286D01*
X218331584Y-132809286D02*
X218474441Y-132952143D01*
X218474441Y-132952143D02*
X218331584Y-133095000D01*
X218331584Y-133095000D02*
X218188726Y-132952143D01*
X218188726Y-132952143D02*
X218474441Y-132952143D01*
X216474441Y-130237858D02*
X218474441Y-130237858D01*
X215331584Y-130952143D02*
X217474441Y-131666429D01*
X217474441Y-131666429D02*
X217474441Y-129809286D01*
X215474441Y-128380715D02*
X216331584Y-128809286D01*
X215474441Y-127523572D02*
X216331584Y-127952143D01*
X215474441Y-124523572D02*
X215474441Y-122809287D01*
X218474441Y-123666429D02*
X215474441Y-123666429D01*
X218474441Y-121380715D02*
X218331584Y-121666430D01*
X218331584Y-121666430D02*
X218188726Y-121809287D01*
X218188726Y-121809287D02*
X217903012Y-121952144D01*
X217903012Y-121952144D02*
X217045869Y-121952144D01*
X217045869Y-121952144D02*
X216760155Y-121809287D01*
X216760155Y-121809287D02*
X216617298Y-121666430D01*
X216617298Y-121666430D02*
X216474441Y-121380715D01*
X216474441Y-121380715D02*
X216474441Y-120952144D01*
X216474441Y-120952144D02*
X216617298Y-120666430D01*
X216617298Y-120666430D02*
X216760155Y-120523573D01*
X216760155Y-120523573D02*
X217045869Y-120380715D01*
X217045869Y-120380715D02*
X217903012Y-120380715D01*
X217903012Y-120380715D02*
X218188726Y-120523573D01*
X218188726Y-120523573D02*
X218331584Y-120666430D01*
X218331584Y-120666430D02*
X218474441Y-120952144D01*
X218474441Y-120952144D02*
X218474441Y-121380715D01*
X216474441Y-117809287D02*
X218474441Y-117809287D01*
X216474441Y-119095001D02*
X218045869Y-119095001D01*
X218045869Y-119095001D02*
X218331584Y-118952144D01*
X218331584Y-118952144D02*
X218474441Y-118666429D01*
X218474441Y-118666429D02*
X218474441Y-118237858D01*
X218474441Y-118237858D02*
X218331584Y-117952144D01*
X218331584Y-117952144D02*
X218188726Y-117809287D01*
X218331584Y-115095001D02*
X218474441Y-115380715D01*
X218474441Y-115380715D02*
X218474441Y-115952143D01*
X218474441Y-115952143D02*
X218331584Y-116237858D01*
X218331584Y-116237858D02*
X218188726Y-116380715D01*
X218188726Y-116380715D02*
X217903012Y-116523572D01*
X217903012Y-116523572D02*
X217045869Y-116523572D01*
X217045869Y-116523572D02*
X216760155Y-116380715D01*
X216760155Y-116380715D02*
X216617298Y-116237858D01*
X216617298Y-116237858D02*
X216474441Y-115952143D01*
X216474441Y-115952143D02*
X216474441Y-115380715D01*
X216474441Y-115380715D02*
X216617298Y-115095001D01*
X218474441Y-113809286D02*
X215474441Y-113809286D01*
X218474441Y-112523572D02*
X216903012Y-112523572D01*
X216903012Y-112523572D02*
X216617298Y-112666429D01*
X216617298Y-112666429D02*
X216474441Y-112952143D01*
X216474441Y-112952143D02*
X216474441Y-113380714D01*
X216474441Y-113380714D02*
X216617298Y-113666429D01*
X216617298Y-113666429D02*
X216760155Y-113809286D01*
X218331584Y-108952143D02*
X218474441Y-108523572D01*
X218474441Y-108523572D02*
X218474441Y-107809286D01*
X218474441Y-107809286D02*
X218331584Y-107523572D01*
X218331584Y-107523572D02*
X218188726Y-107380714D01*
X218188726Y-107380714D02*
X217903012Y-107237857D01*
X217903012Y-107237857D02*
X217617298Y-107237857D01*
X217617298Y-107237857D02*
X217331584Y-107380714D01*
X217331584Y-107380714D02*
X217188726Y-107523572D01*
X217188726Y-107523572D02*
X217045869Y-107809286D01*
X217045869Y-107809286D02*
X216903012Y-108380714D01*
X216903012Y-108380714D02*
X216760155Y-108666429D01*
X216760155Y-108666429D02*
X216617298Y-108809286D01*
X216617298Y-108809286D02*
X216331584Y-108952143D01*
X216331584Y-108952143D02*
X216045869Y-108952143D01*
X216045869Y-108952143D02*
X215760155Y-108809286D01*
X215760155Y-108809286D02*
X215617298Y-108666429D01*
X215617298Y-108666429D02*
X215474441Y-108380714D01*
X215474441Y-108380714D02*
X215474441Y-107666429D01*
X215474441Y-107666429D02*
X215617298Y-107237857D01*
X218331584Y-104666429D02*
X218474441Y-104952143D01*
X218474441Y-104952143D02*
X218474441Y-105523571D01*
X218474441Y-105523571D02*
X218331584Y-105809286D01*
X218331584Y-105809286D02*
X218188726Y-105952143D01*
X218188726Y-105952143D02*
X217903012Y-106095000D01*
X217903012Y-106095000D02*
X217045869Y-106095000D01*
X217045869Y-106095000D02*
X216760155Y-105952143D01*
X216760155Y-105952143D02*
X216617298Y-105809286D01*
X216617298Y-105809286D02*
X216474441Y-105523571D01*
X216474441Y-105523571D02*
X216474441Y-104952143D01*
X216474441Y-104952143D02*
X216617298Y-104666429D01*
X218474441Y-103380714D02*
X216474441Y-103380714D01*
X217045869Y-103380714D02*
X216760155Y-103237857D01*
X216760155Y-103237857D02*
X216617298Y-103095000D01*
X216617298Y-103095000D02*
X216474441Y-102809285D01*
X216474441Y-102809285D02*
X216474441Y-102523571D01*
X218331584Y-100380714D02*
X218474441Y-100666428D01*
X218474441Y-100666428D02*
X218474441Y-101237857D01*
X218474441Y-101237857D02*
X218331584Y-101523571D01*
X218331584Y-101523571D02*
X218045869Y-101666428D01*
X218045869Y-101666428D02*
X216903012Y-101666428D01*
X216903012Y-101666428D02*
X216617298Y-101523571D01*
X216617298Y-101523571D02*
X216474441Y-101237857D01*
X216474441Y-101237857D02*
X216474441Y-100666428D01*
X216474441Y-100666428D02*
X216617298Y-100380714D01*
X216617298Y-100380714D02*
X216903012Y-100237857D01*
X216903012Y-100237857D02*
X217188726Y-100237857D01*
X217188726Y-100237857D02*
X217474441Y-101666428D01*
X218331584Y-97809285D02*
X218474441Y-98094999D01*
X218474441Y-98094999D02*
X218474441Y-98666428D01*
X218474441Y-98666428D02*
X218331584Y-98952142D01*
X218331584Y-98952142D02*
X218045869Y-99094999D01*
X218045869Y-99094999D02*
X216903012Y-99094999D01*
X216903012Y-99094999D02*
X216617298Y-98952142D01*
X216617298Y-98952142D02*
X216474441Y-98666428D01*
X216474441Y-98666428D02*
X216474441Y-98094999D01*
X216474441Y-98094999D02*
X216617298Y-97809285D01*
X216617298Y-97809285D02*
X216903012Y-97666428D01*
X216903012Y-97666428D02*
X217188726Y-97666428D01*
X217188726Y-97666428D02*
X217474441Y-99094999D01*
X216474441Y-96380713D02*
X218474441Y-96380713D01*
X216760155Y-96380713D02*
X216617298Y-96237856D01*
X216617298Y-96237856D02*
X216474441Y-95952141D01*
X216474441Y-95952141D02*
X216474441Y-95523570D01*
X216474441Y-95523570D02*
X216617298Y-95237856D01*
X216617298Y-95237856D02*
X216903012Y-95094999D01*
X216903012Y-95094999D02*
X218474441Y-95094999D01*
X218474441Y-89952141D02*
X218474441Y-91380713D01*
X218474441Y-91380713D02*
X215474441Y-91380713D01*
X218188726Y-87237856D02*
X218331584Y-87380713D01*
X218331584Y-87380713D02*
X218474441Y-87809285D01*
X218474441Y-87809285D02*
X218474441Y-88094999D01*
X218474441Y-88094999D02*
X218331584Y-88523570D01*
X218331584Y-88523570D02*
X218045869Y-88809285D01*
X218045869Y-88809285D02*
X217760155Y-88952142D01*
X217760155Y-88952142D02*
X217188726Y-89094999D01*
X217188726Y-89094999D02*
X216760155Y-89094999D01*
X216760155Y-89094999D02*
X216188726Y-88952142D01*
X216188726Y-88952142D02*
X215903012Y-88809285D01*
X215903012Y-88809285D02*
X215617298Y-88523570D01*
X215617298Y-88523570D02*
X215474441Y-88094999D01*
X215474441Y-88094999D02*
X215474441Y-87809285D01*
X215474441Y-87809285D02*
X215617298Y-87380713D01*
X215617298Y-87380713D02*
X215760155Y-87237856D01*
X218474441Y-85952142D02*
X215474441Y-85952142D01*
X215474441Y-85952142D02*
X215474441Y-85237856D01*
X215474441Y-85237856D02*
X215617298Y-84809285D01*
X215617298Y-84809285D02*
X215903012Y-84523570D01*
X215903012Y-84523570D02*
X216188726Y-84380713D01*
X216188726Y-84380713D02*
X216760155Y-84237856D01*
X216760155Y-84237856D02*
X217188726Y-84237856D01*
X217188726Y-84237856D02*
X217760155Y-84380713D01*
X217760155Y-84380713D02*
X218045869Y-84523570D01*
X218045869Y-84523570D02*
X218331584Y-84809285D01*
X218331584Y-84809285D02*
X218474441Y-85237856D01*
X218474441Y-85237856D02*
X218474441Y-85952142D01*
X220304273Y-133523571D02*
X223304273Y-132809285D01*
X223304273Y-132809285D02*
X221161416Y-132237857D01*
X221161416Y-132237857D02*
X223304273Y-131666428D01*
X223304273Y-131666428D02*
X220304273Y-130952143D01*
X223304273Y-129809286D02*
X221304273Y-129809286D01*
X220304273Y-129809286D02*
X220447130Y-129952143D01*
X220447130Y-129952143D02*
X220589987Y-129809286D01*
X220589987Y-129809286D02*
X220447130Y-129666429D01*
X220447130Y-129666429D02*
X220304273Y-129809286D01*
X220304273Y-129809286D02*
X220589987Y-129809286D01*
X221304273Y-128809286D02*
X221304273Y-127666429D01*
X220304273Y-128380715D02*
X222875701Y-128380715D01*
X222875701Y-128380715D02*
X223161416Y-128237858D01*
X223161416Y-128237858D02*
X223304273Y-127952143D01*
X223304273Y-127952143D02*
X223304273Y-127666429D01*
X223304273Y-126666429D02*
X220304273Y-126666429D01*
X223304273Y-125380715D02*
X221732844Y-125380715D01*
X221732844Y-125380715D02*
X221447130Y-125523572D01*
X221447130Y-125523572D02*
X221304273Y-125809286D01*
X221304273Y-125809286D02*
X221304273Y-126237857D01*
X221304273Y-126237857D02*
X221447130Y-126523572D01*
X221447130Y-126523572D02*
X221589987Y-126666429D01*
X223161416Y-121809286D02*
X223304273Y-121380715D01*
X223304273Y-121380715D02*
X223304273Y-120666429D01*
X223304273Y-120666429D02*
X223161416Y-120380715D01*
X223161416Y-120380715D02*
X223018558Y-120237857D01*
X223018558Y-120237857D02*
X222732844Y-120095000D01*
X222732844Y-120095000D02*
X222447130Y-120095000D01*
X222447130Y-120095000D02*
X222161416Y-120237857D01*
X222161416Y-120237857D02*
X222018558Y-120380715D01*
X222018558Y-120380715D02*
X221875701Y-120666429D01*
X221875701Y-120666429D02*
X221732844Y-121237857D01*
X221732844Y-121237857D02*
X221589987Y-121523572D01*
X221589987Y-121523572D02*
X221447130Y-121666429D01*
X221447130Y-121666429D02*
X221161416Y-121809286D01*
X221161416Y-121809286D02*
X220875701Y-121809286D01*
X220875701Y-121809286D02*
X220589987Y-121666429D01*
X220589987Y-121666429D02*
X220447130Y-121523572D01*
X220447130Y-121523572D02*
X220304273Y-121237857D01*
X220304273Y-121237857D02*
X220304273Y-120523572D01*
X220304273Y-120523572D02*
X220447130Y-120095000D01*
X223304273Y-118809286D02*
X220304273Y-118809286D01*
X220304273Y-118809286D02*
X220304273Y-118095000D01*
X220304273Y-118095000D02*
X220447130Y-117666429D01*
X220447130Y-117666429D02*
X220732844Y-117380714D01*
X220732844Y-117380714D02*
X221018558Y-117237857D01*
X221018558Y-117237857D02*
X221589987Y-117095000D01*
X221589987Y-117095000D02*
X222018558Y-117095000D01*
X222018558Y-117095000D02*
X222589987Y-117237857D01*
X222589987Y-117237857D02*
X222875701Y-117380714D01*
X222875701Y-117380714D02*
X223161416Y-117666429D01*
X223161416Y-117666429D02*
X223304273Y-118095000D01*
X223304273Y-118095000D02*
X223304273Y-118809286D01*
X223018558Y-111809286D02*
X223161416Y-111952143D01*
X223161416Y-111952143D02*
X223304273Y-112380715D01*
X223304273Y-112380715D02*
X223304273Y-112666429D01*
X223304273Y-112666429D02*
X223161416Y-113095000D01*
X223161416Y-113095000D02*
X222875701Y-113380715D01*
X222875701Y-113380715D02*
X222589987Y-113523572D01*
X222589987Y-113523572D02*
X222018558Y-113666429D01*
X222018558Y-113666429D02*
X221589987Y-113666429D01*
X221589987Y-113666429D02*
X221018558Y-113523572D01*
X221018558Y-113523572D02*
X220732844Y-113380715D01*
X220732844Y-113380715D02*
X220447130Y-113095000D01*
X220447130Y-113095000D02*
X220304273Y-112666429D01*
X220304273Y-112666429D02*
X220304273Y-112380715D01*
X220304273Y-112380715D02*
X220447130Y-111952143D01*
X220447130Y-111952143D02*
X220589987Y-111809286D01*
X223304273Y-109237858D02*
X221732844Y-109237858D01*
X221732844Y-109237858D02*
X221447130Y-109380715D01*
X221447130Y-109380715D02*
X221304273Y-109666429D01*
X221304273Y-109666429D02*
X221304273Y-110237858D01*
X221304273Y-110237858D02*
X221447130Y-110523572D01*
X223161416Y-109237858D02*
X223304273Y-109523572D01*
X223304273Y-109523572D02*
X223304273Y-110237858D01*
X223304273Y-110237858D02*
X223161416Y-110523572D01*
X223161416Y-110523572D02*
X222875701Y-110666429D01*
X222875701Y-110666429D02*
X222589987Y-110666429D01*
X222589987Y-110666429D02*
X222304273Y-110523572D01*
X222304273Y-110523572D02*
X222161416Y-110237858D01*
X222161416Y-110237858D02*
X222161416Y-109523572D01*
X222161416Y-109523572D02*
X222018558Y-109237858D01*
X223304273Y-107809286D02*
X221304273Y-107809286D01*
X221875701Y-107809286D02*
X221589987Y-107666429D01*
X221589987Y-107666429D02*
X221447130Y-107523572D01*
X221447130Y-107523572D02*
X221304273Y-107237857D01*
X221304273Y-107237857D02*
X221304273Y-106952143D01*
X223304273Y-104666429D02*
X220304273Y-104666429D01*
X223161416Y-104666429D02*
X223304273Y-104952143D01*
X223304273Y-104952143D02*
X223304273Y-105523571D01*
X223304273Y-105523571D02*
X223161416Y-105809286D01*
X223161416Y-105809286D02*
X223018558Y-105952143D01*
X223018558Y-105952143D02*
X222732844Y-106095000D01*
X222732844Y-106095000D02*
X221875701Y-106095000D01*
X221875701Y-106095000D02*
X221589987Y-105952143D01*
X221589987Y-105952143D02*
X221447130Y-105809286D01*
X221447130Y-105809286D02*
X221304273Y-105523571D01*
X221304273Y-105523571D02*
X221304273Y-104952143D01*
X221304273Y-104952143D02*
X221447130Y-104666429D01*
X223304273Y-99237857D02*
X221875701Y-100237857D01*
X223304273Y-100952143D02*
X220304273Y-100952143D01*
X220304273Y-100952143D02*
X220304273Y-99809286D01*
X220304273Y-99809286D02*
X220447130Y-99523571D01*
X220447130Y-99523571D02*
X220589987Y-99380714D01*
X220589987Y-99380714D02*
X220875701Y-99237857D01*
X220875701Y-99237857D02*
X221304273Y-99237857D01*
X221304273Y-99237857D02*
X221589987Y-99380714D01*
X221589987Y-99380714D02*
X221732844Y-99523571D01*
X221732844Y-99523571D02*
X221875701Y-99809286D01*
X221875701Y-99809286D02*
X221875701Y-100952143D01*
X223161416Y-96809286D02*
X223304273Y-97095000D01*
X223304273Y-97095000D02*
X223304273Y-97666429D01*
X223304273Y-97666429D02*
X223161416Y-97952143D01*
X223161416Y-97952143D02*
X222875701Y-98095000D01*
X222875701Y-98095000D02*
X221732844Y-98095000D01*
X221732844Y-98095000D02*
X221447130Y-97952143D01*
X221447130Y-97952143D02*
X221304273Y-97666429D01*
X221304273Y-97666429D02*
X221304273Y-97095000D01*
X221304273Y-97095000D02*
X221447130Y-96809286D01*
X221447130Y-96809286D02*
X221732844Y-96666429D01*
X221732844Y-96666429D02*
X222018558Y-96666429D01*
X222018558Y-96666429D02*
X222304273Y-98095000D01*
X223304273Y-94095000D02*
X221732844Y-94095000D01*
X221732844Y-94095000D02*
X221447130Y-94237857D01*
X221447130Y-94237857D02*
X221304273Y-94523571D01*
X221304273Y-94523571D02*
X221304273Y-95095000D01*
X221304273Y-95095000D02*
X221447130Y-95380714D01*
X223161416Y-94095000D02*
X223304273Y-94380714D01*
X223304273Y-94380714D02*
X223304273Y-95095000D01*
X223304273Y-95095000D02*
X223161416Y-95380714D01*
X223161416Y-95380714D02*
X222875701Y-95523571D01*
X222875701Y-95523571D02*
X222589987Y-95523571D01*
X222589987Y-95523571D02*
X222304273Y-95380714D01*
X222304273Y-95380714D02*
X222161416Y-95095000D01*
X222161416Y-95095000D02*
X222161416Y-94380714D01*
X222161416Y-94380714D02*
X222018558Y-94095000D01*
X223304273Y-91380714D02*
X220304273Y-91380714D01*
X223161416Y-91380714D02*
X223304273Y-91666428D01*
X223304273Y-91666428D02*
X223304273Y-92237856D01*
X223304273Y-92237856D02*
X223161416Y-92523571D01*
X223161416Y-92523571D02*
X223018558Y-92666428D01*
X223018558Y-92666428D02*
X222732844Y-92809285D01*
X222732844Y-92809285D02*
X221875701Y-92809285D01*
X221875701Y-92809285D02*
X221589987Y-92666428D01*
X221589987Y-92666428D02*
X221447130Y-92523571D01*
X221447130Y-92523571D02*
X221304273Y-92237856D01*
X221304273Y-92237856D02*
X221304273Y-91666428D01*
X221304273Y-91666428D02*
X221447130Y-91380714D01*
X223161416Y-88809285D02*
X223304273Y-89094999D01*
X223304273Y-89094999D02*
X223304273Y-89666428D01*
X223304273Y-89666428D02*
X223161416Y-89952142D01*
X223161416Y-89952142D02*
X222875701Y-90094999D01*
X222875701Y-90094999D02*
X221732844Y-90094999D01*
X221732844Y-90094999D02*
X221447130Y-89952142D01*
X221447130Y-89952142D02*
X221304273Y-89666428D01*
X221304273Y-89666428D02*
X221304273Y-89094999D01*
X221304273Y-89094999D02*
X221447130Y-88809285D01*
X221447130Y-88809285D02*
X221732844Y-88666428D01*
X221732844Y-88666428D02*
X222018558Y-88666428D01*
X222018558Y-88666428D02*
X222304273Y-90094999D01*
X223304273Y-87380713D02*
X221304273Y-87380713D01*
X221875701Y-87380713D02*
X221589987Y-87237856D01*
X221589987Y-87237856D02*
X221447130Y-87094999D01*
X221447130Y-87094999D02*
X221304273Y-86809284D01*
X221304273Y-86809284D02*
X221304273Y-86523570D01*
D12*
X209399999Y-69114733D02*
X208999999Y-69114733D01*
X209199999Y-69114733D02*
X209199999Y-68414733D01*
X209199999Y-68414733D02*
X209133332Y-68514733D01*
X209133332Y-68514733D02*
X209066666Y-68581400D01*
X209066666Y-68581400D02*
X208999999Y-68614733D01*
X209699999Y-69114733D02*
X209699999Y-68414733D01*
X209699999Y-68414733D02*
X210099999Y-69114733D01*
X210099999Y-69114733D02*
X210099999Y-68414733D01*
X210733332Y-68648066D02*
X210733332Y-69114733D01*
X210566666Y-68381400D02*
X210399999Y-68881400D01*
X210399999Y-68881400D02*
X210833332Y-68881400D01*
X211033333Y-68414733D02*
X211499999Y-68414733D01*
X211499999Y-68414733D02*
X211199999Y-69114733D01*
X211733333Y-68481400D02*
X211766666Y-68448066D01*
X211766666Y-68448066D02*
X211833333Y-68414733D01*
X211833333Y-68414733D02*
X212000000Y-68414733D01*
X212000000Y-68414733D02*
X212066666Y-68448066D01*
X212066666Y-68448066D02*
X212100000Y-68481400D01*
X212100000Y-68481400D02*
X212133333Y-68548066D01*
X212133333Y-68548066D02*
X212133333Y-68614733D01*
X212133333Y-68614733D02*
X212100000Y-68714733D01*
X212100000Y-68714733D02*
X211700000Y-69114733D01*
X211700000Y-69114733D02*
X212133333Y-69114733D01*
X212533333Y-68714733D02*
X212466667Y-68681400D01*
X212466667Y-68681400D02*
X212433333Y-68648066D01*
X212433333Y-68648066D02*
X212400000Y-68581400D01*
X212400000Y-68581400D02*
X212400000Y-68548066D01*
X212400000Y-68548066D02*
X212433333Y-68481400D01*
X212433333Y-68481400D02*
X212466667Y-68448066D01*
X212466667Y-68448066D02*
X212533333Y-68414733D01*
X212533333Y-68414733D02*
X212666667Y-68414733D01*
X212666667Y-68414733D02*
X212733333Y-68448066D01*
X212733333Y-68448066D02*
X212766667Y-68481400D01*
X212766667Y-68481400D02*
X212800000Y-68548066D01*
X212800000Y-68548066D02*
X212800000Y-68581400D01*
X212800000Y-68581400D02*
X212766667Y-68648066D01*
X212766667Y-68648066D02*
X212733333Y-68681400D01*
X212733333Y-68681400D02*
X212666667Y-68714733D01*
X212666667Y-68714733D02*
X212533333Y-68714733D01*
X212533333Y-68714733D02*
X212466667Y-68748066D01*
X212466667Y-68748066D02*
X212433333Y-68781400D01*
X212433333Y-68781400D02*
X212400000Y-68848066D01*
X212400000Y-68848066D02*
X212400000Y-68981400D01*
X212400000Y-68981400D02*
X212433333Y-69048066D01*
X212433333Y-69048066D02*
X212466667Y-69081400D01*
X212466667Y-69081400D02*
X212533333Y-69114733D01*
X212533333Y-69114733D02*
X212666667Y-69114733D01*
X212666667Y-69114733D02*
X212733333Y-69081400D01*
X212733333Y-69081400D02*
X212766667Y-69048066D01*
X212766667Y-69048066D02*
X212800000Y-68981400D01*
X212800000Y-68981400D02*
X212800000Y-68848066D01*
X212800000Y-68848066D02*
X212766667Y-68781400D01*
X212766667Y-68781400D02*
X212733333Y-68748066D01*
X212733333Y-68748066D02*
X212666667Y-68714733D01*
X213066667Y-68914733D02*
X213400000Y-68914733D01*
X213000000Y-69114733D02*
X213233334Y-68414733D01*
X213233334Y-68414733D02*
X213466667Y-69114733D01*
X236348066Y-54233332D02*
X236314733Y-54299999D01*
X236314733Y-54299999D02*
X236314733Y-54399999D01*
X236314733Y-54399999D02*
X236348066Y-54499999D01*
X236348066Y-54499999D02*
X236414733Y-54566666D01*
X236414733Y-54566666D02*
X236481400Y-54599999D01*
X236481400Y-54599999D02*
X236614733Y-54633332D01*
X236614733Y-54633332D02*
X236714733Y-54633332D01*
X236714733Y-54633332D02*
X236848066Y-54599999D01*
X236848066Y-54599999D02*
X236914733Y-54566666D01*
X236914733Y-54566666D02*
X236981400Y-54499999D01*
X236981400Y-54499999D02*
X237014733Y-54399999D01*
X237014733Y-54399999D02*
X237014733Y-54333332D01*
X237014733Y-54333332D02*
X236981400Y-54233332D01*
X236981400Y-54233332D02*
X236948066Y-54199999D01*
X236948066Y-54199999D02*
X236714733Y-54199999D01*
X236714733Y-54199999D02*
X236714733Y-54333332D01*
X237014733Y-53899999D02*
X236314733Y-53899999D01*
X236314733Y-53899999D02*
X237014733Y-53499999D01*
X237014733Y-53499999D02*
X236314733Y-53499999D01*
X237014733Y-53166666D02*
X236314733Y-53166666D01*
X236314733Y-53166666D02*
X236314733Y-52999999D01*
X236314733Y-52999999D02*
X236348066Y-52899999D01*
X236348066Y-52899999D02*
X236414733Y-52833333D01*
X236414733Y-52833333D02*
X236481400Y-52799999D01*
X236481400Y-52799999D02*
X236614733Y-52766666D01*
X236614733Y-52766666D02*
X236714733Y-52766666D01*
X236714733Y-52766666D02*
X236848066Y-52799999D01*
X236848066Y-52799999D02*
X236914733Y-52833333D01*
X236914733Y-52833333D02*
X236981400Y-52899999D01*
X236981400Y-52899999D02*
X237014733Y-52999999D01*
X237014733Y-52999999D02*
X237014733Y-53166666D01*
D11*
X82353642Y-127523571D02*
X82496500Y-127666428D01*
X82496500Y-127666428D02*
X82639357Y-128095000D01*
X82639357Y-128095000D02*
X82639357Y-128380714D01*
X82639357Y-128380714D02*
X82496500Y-128809285D01*
X82496500Y-128809285D02*
X82210785Y-129095000D01*
X82210785Y-129095000D02*
X81925071Y-129237857D01*
X81925071Y-129237857D02*
X81353642Y-129380714D01*
X81353642Y-129380714D02*
X80925071Y-129380714D01*
X80925071Y-129380714D02*
X80353642Y-129237857D01*
X80353642Y-129237857D02*
X80067928Y-129095000D01*
X80067928Y-129095000D02*
X79782214Y-128809285D01*
X79782214Y-128809285D02*
X79639357Y-128380714D01*
X79639357Y-128380714D02*
X79639357Y-128095000D01*
X79639357Y-128095000D02*
X79782214Y-127666428D01*
X79782214Y-127666428D02*
X79925071Y-127523571D01*
X82639357Y-125809285D02*
X82496500Y-126095000D01*
X82496500Y-126095000D02*
X82353642Y-126237857D01*
X82353642Y-126237857D02*
X82067928Y-126380714D01*
X82067928Y-126380714D02*
X81210785Y-126380714D01*
X81210785Y-126380714D02*
X80925071Y-126237857D01*
X80925071Y-126237857D02*
X80782214Y-126095000D01*
X80782214Y-126095000D02*
X80639357Y-125809285D01*
X80639357Y-125809285D02*
X80639357Y-125380714D01*
X80639357Y-125380714D02*
X80782214Y-125095000D01*
X80782214Y-125095000D02*
X80925071Y-124952143D01*
X80925071Y-124952143D02*
X81210785Y-124809285D01*
X81210785Y-124809285D02*
X82067928Y-124809285D01*
X82067928Y-124809285D02*
X82353642Y-124952143D01*
X82353642Y-124952143D02*
X82496500Y-125095000D01*
X82496500Y-125095000D02*
X82639357Y-125380714D01*
X82639357Y-125380714D02*
X82639357Y-125809285D01*
X82639357Y-123094999D02*
X82496500Y-123380714D01*
X82496500Y-123380714D02*
X82210785Y-123523571D01*
X82210785Y-123523571D02*
X79639357Y-123523571D01*
X82639357Y-121523570D02*
X82496500Y-121809285D01*
X82496500Y-121809285D02*
X82353642Y-121952142D01*
X82353642Y-121952142D02*
X82067928Y-122094999D01*
X82067928Y-122094999D02*
X81210785Y-122094999D01*
X81210785Y-122094999D02*
X80925071Y-121952142D01*
X80925071Y-121952142D02*
X80782214Y-121809285D01*
X80782214Y-121809285D02*
X80639357Y-121523570D01*
X80639357Y-121523570D02*
X80639357Y-121094999D01*
X80639357Y-121094999D02*
X80782214Y-120809285D01*
X80782214Y-120809285D02*
X80925071Y-120666428D01*
X80925071Y-120666428D02*
X81210785Y-120523570D01*
X81210785Y-120523570D02*
X82067928Y-120523570D01*
X82067928Y-120523570D02*
X82353642Y-120666428D01*
X82353642Y-120666428D02*
X82496500Y-120809285D01*
X82496500Y-120809285D02*
X82639357Y-121094999D01*
X82639357Y-121094999D02*
X82639357Y-121523570D01*
X82639357Y-119237856D02*
X80639357Y-119237856D01*
X81210785Y-119237856D02*
X80925071Y-119094999D01*
X80925071Y-119094999D02*
X80782214Y-118952142D01*
X80782214Y-118952142D02*
X80639357Y-118666427D01*
X80639357Y-118666427D02*
X80639357Y-118380713D01*
X82496500Y-115237856D02*
X82639357Y-114809285D01*
X82639357Y-114809285D02*
X82639357Y-114094999D01*
X82639357Y-114094999D02*
X82496500Y-113809285D01*
X82496500Y-113809285D02*
X82353642Y-113666427D01*
X82353642Y-113666427D02*
X82067928Y-113523570D01*
X82067928Y-113523570D02*
X81782214Y-113523570D01*
X81782214Y-113523570D02*
X81496500Y-113666427D01*
X81496500Y-113666427D02*
X81353642Y-113809285D01*
X81353642Y-113809285D02*
X81210785Y-114094999D01*
X81210785Y-114094999D02*
X81067928Y-114666427D01*
X81067928Y-114666427D02*
X80925071Y-114952142D01*
X80925071Y-114952142D02*
X80782214Y-115094999D01*
X80782214Y-115094999D02*
X80496500Y-115237856D01*
X80496500Y-115237856D02*
X80210785Y-115237856D01*
X80210785Y-115237856D02*
X79925071Y-115094999D01*
X79925071Y-115094999D02*
X79782214Y-114952142D01*
X79782214Y-114952142D02*
X79639357Y-114666427D01*
X79639357Y-114666427D02*
X79639357Y-113952142D01*
X79639357Y-113952142D02*
X79782214Y-113523570D01*
X82639357Y-112237856D02*
X79639357Y-112237856D01*
X82639357Y-110952142D02*
X81067928Y-110952142D01*
X81067928Y-110952142D02*
X80782214Y-111094999D01*
X80782214Y-111094999D02*
X80639357Y-111380713D01*
X80639357Y-111380713D02*
X80639357Y-111809284D01*
X80639357Y-111809284D02*
X80782214Y-112094999D01*
X80782214Y-112094999D02*
X80925071Y-112237856D01*
X82639357Y-109523570D02*
X80639357Y-109523570D01*
X79639357Y-109523570D02*
X79782214Y-109666427D01*
X79782214Y-109666427D02*
X79925071Y-109523570D01*
X79925071Y-109523570D02*
X79782214Y-109380713D01*
X79782214Y-109380713D02*
X79639357Y-109523570D01*
X79639357Y-109523570D02*
X79925071Y-109523570D01*
X82496500Y-106952142D02*
X82639357Y-107237856D01*
X82639357Y-107237856D02*
X82639357Y-107809285D01*
X82639357Y-107809285D02*
X82496500Y-108094999D01*
X82496500Y-108094999D02*
X82210785Y-108237856D01*
X82210785Y-108237856D02*
X81067928Y-108237856D01*
X81067928Y-108237856D02*
X80782214Y-108094999D01*
X80782214Y-108094999D02*
X80639357Y-107809285D01*
X80639357Y-107809285D02*
X80639357Y-107237856D01*
X80639357Y-107237856D02*
X80782214Y-106952142D01*
X80782214Y-106952142D02*
X81067928Y-106809285D01*
X81067928Y-106809285D02*
X81353642Y-106809285D01*
X81353642Y-106809285D02*
X81639357Y-108237856D01*
X82639357Y-105094998D02*
X82496500Y-105380713D01*
X82496500Y-105380713D02*
X82210785Y-105523570D01*
X82210785Y-105523570D02*
X79639357Y-105523570D01*
X82639357Y-102666427D02*
X79639357Y-102666427D01*
X82496500Y-102666427D02*
X82639357Y-102952141D01*
X82639357Y-102952141D02*
X82639357Y-103523569D01*
X82639357Y-103523569D02*
X82496500Y-103809284D01*
X82496500Y-103809284D02*
X82353642Y-103952141D01*
X82353642Y-103952141D02*
X82067928Y-104094998D01*
X82067928Y-104094998D02*
X81210785Y-104094998D01*
X81210785Y-104094998D02*
X80925071Y-103952141D01*
X80925071Y-103952141D02*
X80782214Y-103809284D01*
X80782214Y-103809284D02*
X80639357Y-103523569D01*
X80639357Y-103523569D02*
X80639357Y-102952141D01*
X80639357Y-102952141D02*
X80782214Y-102666427D01*
X80639357Y-99237855D02*
X82639357Y-98523569D01*
X82639357Y-98523569D02*
X80639357Y-97809284D01*
X82639357Y-95094998D02*
X82639357Y-96809284D01*
X82639357Y-95952141D02*
X79639357Y-95952141D01*
X79639357Y-95952141D02*
X80067928Y-96237855D01*
X80067928Y-96237855D02*
X80353642Y-96523570D01*
X80353642Y-96523570D02*
X80496500Y-96809284D01*
X82353642Y-93809284D02*
X82496500Y-93666427D01*
X82496500Y-93666427D02*
X82639357Y-93809284D01*
X82639357Y-93809284D02*
X82496500Y-93952141D01*
X82496500Y-93952141D02*
X82353642Y-93809284D01*
X82353642Y-93809284D02*
X82639357Y-93809284D01*
X82639357Y-90809284D02*
X82639357Y-92523570D01*
X82639357Y-91666427D02*
X79639357Y-91666427D01*
X79639357Y-91666427D02*
X80067928Y-91952141D01*
X80067928Y-91952141D02*
X80353642Y-92237856D01*
X80353642Y-92237856D02*
X80496500Y-92523570D01*
D10*
X170691072Y-57095857D02*
X171405358Y-57095857D01*
X170548215Y-57524428D02*
X171048215Y-56024428D01*
X171048215Y-56024428D02*
X171548215Y-57524428D01*
X172262500Y-57524428D02*
X172119643Y-57453000D01*
X172119643Y-57453000D02*
X172048214Y-57310142D01*
X172048214Y-57310142D02*
X172048214Y-56024428D01*
X172833928Y-56524428D02*
X172833928Y-58024428D01*
X172833928Y-56595857D02*
X172976786Y-56524428D01*
X172976786Y-56524428D02*
X173262500Y-56524428D01*
X173262500Y-56524428D02*
X173405357Y-56595857D01*
X173405357Y-56595857D02*
X173476786Y-56667285D01*
X173476786Y-56667285D02*
X173548214Y-56810142D01*
X173548214Y-56810142D02*
X173548214Y-57238714D01*
X173548214Y-57238714D02*
X173476786Y-57381571D01*
X173476786Y-57381571D02*
X173405357Y-57453000D01*
X173405357Y-57453000D02*
X173262500Y-57524428D01*
X173262500Y-57524428D02*
X172976786Y-57524428D01*
X172976786Y-57524428D02*
X172833928Y-57453000D01*
X174191071Y-57524428D02*
X174191071Y-56024428D01*
X174833929Y-57524428D02*
X174833929Y-56738714D01*
X174833929Y-56738714D02*
X174762500Y-56595857D01*
X174762500Y-56595857D02*
X174619643Y-56524428D01*
X174619643Y-56524428D02*
X174405357Y-56524428D01*
X174405357Y-56524428D02*
X174262500Y-56595857D01*
X174262500Y-56595857D02*
X174191071Y-56667285D01*
X176191072Y-57524428D02*
X176191072Y-56738714D01*
X176191072Y-56738714D02*
X176119643Y-56595857D01*
X176119643Y-56595857D02*
X175976786Y-56524428D01*
X175976786Y-56524428D02*
X175691072Y-56524428D01*
X175691072Y-56524428D02*
X175548214Y-56595857D01*
X176191072Y-57453000D02*
X176048214Y-57524428D01*
X176048214Y-57524428D02*
X175691072Y-57524428D01*
X175691072Y-57524428D02*
X175548214Y-57453000D01*
X175548214Y-57453000D02*
X175476786Y-57310142D01*
X175476786Y-57310142D02*
X175476786Y-57167285D01*
X175476786Y-57167285D02*
X175548214Y-57024428D01*
X175548214Y-57024428D02*
X175691072Y-56953000D01*
X175691072Y-56953000D02*
X176048214Y-56953000D01*
X176048214Y-56953000D02*
X176191072Y-56881571D01*
X178048214Y-56738714D02*
X178548214Y-56738714D01*
X178762500Y-57524428D02*
X178048214Y-57524428D01*
X178048214Y-57524428D02*
X178048214Y-56024428D01*
X178048214Y-56024428D02*
X178762500Y-56024428D01*
X179405357Y-56524428D02*
X179405357Y-57524428D01*
X179405357Y-56667285D02*
X179476786Y-56595857D01*
X179476786Y-56595857D02*
X179619643Y-56524428D01*
X179619643Y-56524428D02*
X179833929Y-56524428D01*
X179833929Y-56524428D02*
X179976786Y-56595857D01*
X179976786Y-56595857D02*
X180048215Y-56738714D01*
X180048215Y-56738714D02*
X180048215Y-57524428D01*
X181405358Y-57453000D02*
X181262500Y-57524428D01*
X181262500Y-57524428D02*
X180976786Y-57524428D01*
X180976786Y-57524428D02*
X180833929Y-57453000D01*
X180833929Y-57453000D02*
X180762500Y-57381571D01*
X180762500Y-57381571D02*
X180691072Y-57238714D01*
X180691072Y-57238714D02*
X180691072Y-56810142D01*
X180691072Y-56810142D02*
X180762500Y-56667285D01*
X180762500Y-56667285D02*
X180833929Y-56595857D01*
X180833929Y-56595857D02*
X180976786Y-56524428D01*
X180976786Y-56524428D02*
X181262500Y-56524428D01*
X181262500Y-56524428D02*
X181405358Y-56595857D01*
X182262500Y-57524428D02*
X182119643Y-57453000D01*
X182119643Y-57453000D02*
X182048214Y-57381571D01*
X182048214Y-57381571D02*
X181976786Y-57238714D01*
X181976786Y-57238714D02*
X181976786Y-56810142D01*
X181976786Y-56810142D02*
X182048214Y-56667285D01*
X182048214Y-56667285D02*
X182119643Y-56595857D01*
X182119643Y-56595857D02*
X182262500Y-56524428D01*
X182262500Y-56524428D02*
X182476786Y-56524428D01*
X182476786Y-56524428D02*
X182619643Y-56595857D01*
X182619643Y-56595857D02*
X182691072Y-56667285D01*
X182691072Y-56667285D02*
X182762500Y-56810142D01*
X182762500Y-56810142D02*
X182762500Y-57238714D01*
X182762500Y-57238714D02*
X182691072Y-57381571D01*
X182691072Y-57381571D02*
X182619643Y-57453000D01*
X182619643Y-57453000D02*
X182476786Y-57524428D01*
X182476786Y-57524428D02*
X182262500Y-57524428D01*
X184048215Y-57524428D02*
X184048215Y-56024428D01*
X184048215Y-57453000D02*
X183905357Y-57524428D01*
X183905357Y-57524428D02*
X183619643Y-57524428D01*
X183619643Y-57524428D02*
X183476786Y-57453000D01*
X183476786Y-57453000D02*
X183405357Y-57381571D01*
X183405357Y-57381571D02*
X183333929Y-57238714D01*
X183333929Y-57238714D02*
X183333929Y-56810142D01*
X183333929Y-56810142D02*
X183405357Y-56667285D01*
X183405357Y-56667285D02*
X183476786Y-56595857D01*
X183476786Y-56595857D02*
X183619643Y-56524428D01*
X183619643Y-56524428D02*
X183905357Y-56524428D01*
X183905357Y-56524428D02*
X184048215Y-56595857D01*
X185333929Y-57453000D02*
X185191072Y-57524428D01*
X185191072Y-57524428D02*
X184905358Y-57524428D01*
X184905358Y-57524428D02*
X184762500Y-57453000D01*
X184762500Y-57453000D02*
X184691072Y-57310142D01*
X184691072Y-57310142D02*
X184691072Y-56738714D01*
X184691072Y-56738714D02*
X184762500Y-56595857D01*
X184762500Y-56595857D02*
X184905358Y-56524428D01*
X184905358Y-56524428D02*
X185191072Y-56524428D01*
X185191072Y-56524428D02*
X185333929Y-56595857D01*
X185333929Y-56595857D02*
X185405358Y-56738714D01*
X185405358Y-56738714D02*
X185405358Y-56881571D01*
X185405358Y-56881571D02*
X184691072Y-57024428D01*
X186048214Y-57524428D02*
X186048214Y-56524428D01*
X186048214Y-56810142D02*
X186119643Y-56667285D01*
X186119643Y-56667285D02*
X186191072Y-56595857D01*
X186191072Y-56595857D02*
X186333929Y-56524428D01*
X186333929Y-56524428D02*
X186476786Y-56524428D01*
X79914286Y-49791928D02*
X79200000Y-49791928D01*
X79200000Y-49791928D02*
X79128572Y-50506214D01*
X79128572Y-50506214D02*
X79200000Y-50434785D01*
X79200000Y-50434785D02*
X79342858Y-50363357D01*
X79342858Y-50363357D02*
X79700000Y-50363357D01*
X79700000Y-50363357D02*
X79842858Y-50434785D01*
X79842858Y-50434785D02*
X79914286Y-50506214D01*
X79914286Y-50506214D02*
X79985715Y-50649071D01*
X79985715Y-50649071D02*
X79985715Y-51006214D01*
X79985715Y-51006214D02*
X79914286Y-51149071D01*
X79914286Y-51149071D02*
X79842858Y-51220500D01*
X79842858Y-51220500D02*
X79700000Y-51291928D01*
X79700000Y-51291928D02*
X79342858Y-51291928D01*
X79342858Y-51291928D02*
X79200000Y-51220500D01*
X79200000Y-51220500D02*
X79128572Y-51149071D01*
X80414286Y-49791928D02*
X80914286Y-51291928D01*
X80914286Y-51291928D02*
X81414286Y-49791928D01*
D11*
X135188214Y-107529000D02*
X135616786Y-107671857D01*
X135616786Y-107671857D02*
X136331071Y-107671857D01*
X136331071Y-107671857D02*
X136616786Y-107529000D01*
X136616786Y-107529000D02*
X136759643Y-107386142D01*
X136759643Y-107386142D02*
X136902500Y-107100428D01*
X136902500Y-107100428D02*
X136902500Y-106814714D01*
X136902500Y-106814714D02*
X136759643Y-106529000D01*
X136759643Y-106529000D02*
X136616786Y-106386142D01*
X136616786Y-106386142D02*
X136331071Y-106243285D01*
X136331071Y-106243285D02*
X135759643Y-106100428D01*
X135759643Y-106100428D02*
X135473928Y-105957571D01*
X135473928Y-105957571D02*
X135331071Y-105814714D01*
X135331071Y-105814714D02*
X135188214Y-105529000D01*
X135188214Y-105529000D02*
X135188214Y-105243285D01*
X135188214Y-105243285D02*
X135331071Y-104957571D01*
X135331071Y-104957571D02*
X135473928Y-104814714D01*
X135473928Y-104814714D02*
X135759643Y-104671857D01*
X135759643Y-104671857D02*
X136473928Y-104671857D01*
X136473928Y-104671857D02*
X136902500Y-104814714D01*
X137759643Y-104671857D02*
X139473929Y-104671857D01*
X138616786Y-107671857D02*
X138616786Y-104671857D01*
X140473928Y-107671857D02*
X140473928Y-104671857D01*
X140473928Y-104671857D02*
X141473928Y-106814714D01*
X141473928Y-106814714D02*
X142473928Y-104671857D01*
X142473928Y-104671857D02*
X142473928Y-107671857D01*
X143616785Y-104671857D02*
X145473928Y-104671857D01*
X145473928Y-104671857D02*
X144473928Y-105814714D01*
X144473928Y-105814714D02*
X144902499Y-105814714D01*
X144902499Y-105814714D02*
X145188214Y-105957571D01*
X145188214Y-105957571D02*
X145331071Y-106100428D01*
X145331071Y-106100428D02*
X145473928Y-106386142D01*
X145473928Y-106386142D02*
X145473928Y-107100428D01*
X145473928Y-107100428D02*
X145331071Y-107386142D01*
X145331071Y-107386142D02*
X145188214Y-107529000D01*
X145188214Y-107529000D02*
X144902499Y-107671857D01*
X144902499Y-107671857D02*
X144045356Y-107671857D01*
X144045356Y-107671857D02*
X143759642Y-107529000D01*
X143759642Y-107529000D02*
X143616785Y-107386142D01*
X146616785Y-104957571D02*
X146759642Y-104814714D01*
X146759642Y-104814714D02*
X147045357Y-104671857D01*
X147045357Y-104671857D02*
X147759642Y-104671857D01*
X147759642Y-104671857D02*
X148045357Y-104814714D01*
X148045357Y-104814714D02*
X148188214Y-104957571D01*
X148188214Y-104957571D02*
X148331071Y-105243285D01*
X148331071Y-105243285D02*
X148331071Y-105529000D01*
X148331071Y-105529000D02*
X148188214Y-105957571D01*
X148188214Y-105957571D02*
X146473928Y-107671857D01*
X146473928Y-107671857D02*
X148331071Y-107671857D01*
X151188214Y-104814714D02*
X150902500Y-104671857D01*
X150902500Y-104671857D02*
X150473928Y-104671857D01*
X150473928Y-104671857D02*
X150045357Y-104814714D01*
X150045357Y-104814714D02*
X149759642Y-105100428D01*
X149759642Y-105100428D02*
X149616785Y-105386142D01*
X149616785Y-105386142D02*
X149473928Y-105957571D01*
X149473928Y-105957571D02*
X149473928Y-106386142D01*
X149473928Y-106386142D02*
X149616785Y-106957571D01*
X149616785Y-106957571D02*
X149759642Y-107243285D01*
X149759642Y-107243285D02*
X150045357Y-107529000D01*
X150045357Y-107529000D02*
X150473928Y-107671857D01*
X150473928Y-107671857D02*
X150759642Y-107671857D01*
X150759642Y-107671857D02*
X151188214Y-107529000D01*
X151188214Y-107529000D02*
X151331071Y-107386142D01*
X151331071Y-107386142D02*
X151331071Y-106386142D01*
X151331071Y-106386142D02*
X150759642Y-106386142D01*
X153902500Y-105671857D02*
X153902500Y-107671857D01*
X153188214Y-104529000D02*
X152473928Y-106671857D01*
X152473928Y-106671857D02*
X154331071Y-106671857D01*
X155188214Y-104671857D02*
X157188214Y-104671857D01*
X157188214Y-104671857D02*
X155902500Y-107671857D01*
X159616786Y-105671857D02*
X159616786Y-107671857D01*
X158902500Y-104529000D02*
X158188214Y-106671857D01*
X158188214Y-106671857D02*
X160045357Y-106671857D01*
X162902500Y-107671857D02*
X161902500Y-106243285D01*
X161188214Y-107671857D02*
X161188214Y-104671857D01*
X161188214Y-104671857D02*
X162331071Y-104671857D01*
X162331071Y-104671857D02*
X162616786Y-104814714D01*
X162616786Y-104814714D02*
X162759643Y-104957571D01*
X162759643Y-104957571D02*
X162902500Y-105243285D01*
X162902500Y-105243285D02*
X162902500Y-105671857D01*
X162902500Y-105671857D02*
X162759643Y-105957571D01*
X162759643Y-105957571D02*
X162616786Y-106100428D01*
X162616786Y-106100428D02*
X162331071Y-106243285D01*
X162331071Y-106243285D02*
X161188214Y-106243285D01*
X164188214Y-106100428D02*
X165188214Y-106100428D01*
X165616786Y-107671857D02*
X164188214Y-107671857D01*
X164188214Y-107671857D02*
X164188214Y-104671857D01*
X164188214Y-104671857D02*
X165616786Y-104671857D01*
D12*
X225234166Y-63551400D02*
X225267499Y-63518066D01*
X225267499Y-63518066D02*
X225334166Y-63484733D01*
X225334166Y-63484733D02*
X225500833Y-63484733D01*
X225500833Y-63484733D02*
X225567499Y-63518066D01*
X225567499Y-63518066D02*
X225600833Y-63551400D01*
X225600833Y-63551400D02*
X225634166Y-63618066D01*
X225634166Y-63618066D02*
X225634166Y-63684733D01*
X225634166Y-63684733D02*
X225600833Y-63784733D01*
X225600833Y-63784733D02*
X225200833Y-64184733D01*
X225200833Y-64184733D02*
X225634166Y-64184733D01*
X226067500Y-63484733D02*
X226134166Y-63484733D01*
X226134166Y-63484733D02*
X226200833Y-63518066D01*
X226200833Y-63518066D02*
X226234166Y-63551400D01*
X226234166Y-63551400D02*
X226267500Y-63618066D01*
X226267500Y-63618066D02*
X226300833Y-63751400D01*
X226300833Y-63751400D02*
X226300833Y-63918066D01*
X226300833Y-63918066D02*
X226267500Y-64051400D01*
X226267500Y-64051400D02*
X226234166Y-64118066D01*
X226234166Y-64118066D02*
X226200833Y-64151400D01*
X226200833Y-64151400D02*
X226134166Y-64184733D01*
X226134166Y-64184733D02*
X226067500Y-64184733D01*
X226067500Y-64184733D02*
X226000833Y-64151400D01*
X226000833Y-64151400D02*
X225967500Y-64118066D01*
X225967500Y-64118066D02*
X225934166Y-64051400D01*
X225934166Y-64051400D02*
X225900833Y-63918066D01*
X225900833Y-63918066D02*
X225900833Y-63751400D01*
X225900833Y-63751400D02*
X225934166Y-63618066D01*
X225934166Y-63618066D02*
X225967500Y-63551400D01*
X225967500Y-63551400D02*
X226000833Y-63518066D01*
X226000833Y-63518066D02*
X226067500Y-63484733D01*
D10*
X76517856Y-57574428D02*
X76517856Y-56074428D01*
X76517856Y-56074428D02*
X77089285Y-56074428D01*
X77089285Y-56074428D02*
X77232142Y-56145857D01*
X77232142Y-56145857D02*
X77303571Y-56217285D01*
X77303571Y-56217285D02*
X77374999Y-56360142D01*
X77374999Y-56360142D02*
X77374999Y-56574428D01*
X77374999Y-56574428D02*
X77303571Y-56717285D01*
X77303571Y-56717285D02*
X77232142Y-56788714D01*
X77232142Y-56788714D02*
X77089285Y-56860142D01*
X77089285Y-56860142D02*
X76517856Y-56860142D01*
X78232142Y-57574428D02*
X78089285Y-57503000D01*
X78089285Y-57503000D02*
X78017856Y-57431571D01*
X78017856Y-57431571D02*
X77946428Y-57288714D01*
X77946428Y-57288714D02*
X77946428Y-56860142D01*
X77946428Y-56860142D02*
X78017856Y-56717285D01*
X78017856Y-56717285D02*
X78089285Y-56645857D01*
X78089285Y-56645857D02*
X78232142Y-56574428D01*
X78232142Y-56574428D02*
X78446428Y-56574428D01*
X78446428Y-56574428D02*
X78589285Y-56645857D01*
X78589285Y-56645857D02*
X78660714Y-56717285D01*
X78660714Y-56717285D02*
X78732142Y-56860142D01*
X78732142Y-56860142D02*
X78732142Y-57288714D01*
X78732142Y-57288714D02*
X78660714Y-57431571D01*
X78660714Y-57431571D02*
X78589285Y-57503000D01*
X78589285Y-57503000D02*
X78446428Y-57574428D01*
X78446428Y-57574428D02*
X78232142Y-57574428D01*
X79232142Y-56574428D02*
X79517857Y-57574428D01*
X79517857Y-57574428D02*
X79803571Y-56860142D01*
X79803571Y-56860142D02*
X80089285Y-57574428D01*
X80089285Y-57574428D02*
X80374999Y-56574428D01*
X81517857Y-57503000D02*
X81375000Y-57574428D01*
X81375000Y-57574428D02*
X81089286Y-57574428D01*
X81089286Y-57574428D02*
X80946428Y-57503000D01*
X80946428Y-57503000D02*
X80875000Y-57360142D01*
X80875000Y-57360142D02*
X80875000Y-56788714D01*
X80875000Y-56788714D02*
X80946428Y-56645857D01*
X80946428Y-56645857D02*
X81089286Y-56574428D01*
X81089286Y-56574428D02*
X81375000Y-56574428D01*
X81375000Y-56574428D02*
X81517857Y-56645857D01*
X81517857Y-56645857D02*
X81589286Y-56788714D01*
X81589286Y-56788714D02*
X81589286Y-56931571D01*
X81589286Y-56931571D02*
X80875000Y-57074428D01*
X82232142Y-57574428D02*
X82232142Y-56574428D01*
X82232142Y-56860142D02*
X82303571Y-56717285D01*
X82303571Y-56717285D02*
X82375000Y-56645857D01*
X82375000Y-56645857D02*
X82517857Y-56574428D01*
X82517857Y-56574428D02*
X82660714Y-56574428D01*
X84303570Y-57574428D02*
X84303570Y-56074428D01*
X85017856Y-56574428D02*
X85017856Y-57574428D01*
X85017856Y-56717285D02*
X85089285Y-56645857D01*
X85089285Y-56645857D02*
X85232142Y-56574428D01*
X85232142Y-56574428D02*
X85446428Y-56574428D01*
X85446428Y-56574428D02*
X85589285Y-56645857D01*
X85589285Y-56645857D02*
X85660714Y-56788714D01*
X85660714Y-56788714D02*
X85660714Y-57574428D01*
X86374999Y-56574428D02*
X86374999Y-58074428D01*
X86374999Y-56645857D02*
X86517857Y-56574428D01*
X86517857Y-56574428D02*
X86803571Y-56574428D01*
X86803571Y-56574428D02*
X86946428Y-56645857D01*
X86946428Y-56645857D02*
X87017857Y-56717285D01*
X87017857Y-56717285D02*
X87089285Y-56860142D01*
X87089285Y-56860142D02*
X87089285Y-57288714D01*
X87089285Y-57288714D02*
X87017857Y-57431571D01*
X87017857Y-57431571D02*
X86946428Y-57503000D01*
X86946428Y-57503000D02*
X86803571Y-57574428D01*
X86803571Y-57574428D02*
X86517857Y-57574428D01*
X86517857Y-57574428D02*
X86374999Y-57503000D01*
X88375000Y-56574428D02*
X88375000Y-57574428D01*
X87732142Y-56574428D02*
X87732142Y-57360142D01*
X87732142Y-57360142D02*
X87803571Y-57503000D01*
X87803571Y-57503000D02*
X87946428Y-57574428D01*
X87946428Y-57574428D02*
X88160714Y-57574428D01*
X88160714Y-57574428D02*
X88303571Y-57503000D01*
X88303571Y-57503000D02*
X88375000Y-57431571D01*
X88875000Y-56574428D02*
X89446428Y-56574428D01*
X89089285Y-56074428D02*
X89089285Y-57360142D01*
X89089285Y-57360142D02*
X89160714Y-57503000D01*
X89160714Y-57503000D02*
X89303571Y-57574428D01*
X89303571Y-57574428D02*
X89446428Y-57574428D01*
X100960714Y-49774428D02*
X101889286Y-49774428D01*
X101889286Y-49774428D02*
X101389286Y-50345857D01*
X101389286Y-50345857D02*
X101603571Y-50345857D01*
X101603571Y-50345857D02*
X101746429Y-50417285D01*
X101746429Y-50417285D02*
X101817857Y-50488714D01*
X101817857Y-50488714D02*
X101889286Y-50631571D01*
X101889286Y-50631571D02*
X101889286Y-50988714D01*
X101889286Y-50988714D02*
X101817857Y-51131571D01*
X101817857Y-51131571D02*
X101746429Y-51203000D01*
X101746429Y-51203000D02*
X101603571Y-51274428D01*
X101603571Y-51274428D02*
X101175000Y-51274428D01*
X101175000Y-51274428D02*
X101032143Y-51203000D01*
X101032143Y-51203000D02*
X100960714Y-51131571D01*
X102532142Y-51131571D02*
X102603571Y-51203000D01*
X102603571Y-51203000D02*
X102532142Y-51274428D01*
X102532142Y-51274428D02*
X102460714Y-51203000D01*
X102460714Y-51203000D02*
X102532142Y-51131571D01*
X102532142Y-51131571D02*
X102532142Y-51274428D01*
X103103571Y-49774428D02*
X104032143Y-49774428D01*
X104032143Y-49774428D02*
X103532143Y-50345857D01*
X103532143Y-50345857D02*
X103746428Y-50345857D01*
X103746428Y-50345857D02*
X103889286Y-50417285D01*
X103889286Y-50417285D02*
X103960714Y-50488714D01*
X103960714Y-50488714D02*
X104032143Y-50631571D01*
X104032143Y-50631571D02*
X104032143Y-50988714D01*
X104032143Y-50988714D02*
X103960714Y-51131571D01*
X103960714Y-51131571D02*
X103889286Y-51203000D01*
X103889286Y-51203000D02*
X103746428Y-51274428D01*
X103746428Y-51274428D02*
X103317857Y-51274428D01*
X103317857Y-51274428D02*
X103175000Y-51203000D01*
X103175000Y-51203000D02*
X103103571Y-51131571D01*
X104460714Y-49774428D02*
X104960714Y-51274428D01*
X104960714Y-51274428D02*
X105460714Y-49774428D01*
X194315357Y-53411214D02*
X194815357Y-53411214D01*
X195029643Y-54196928D02*
X194315357Y-54196928D01*
X194315357Y-54196928D02*
X194315357Y-52696928D01*
X194315357Y-52696928D02*
X195029643Y-52696928D01*
X195672500Y-54196928D02*
X195672500Y-53196928D01*
X195672500Y-53339785D02*
X195743929Y-53268357D01*
X195743929Y-53268357D02*
X195886786Y-53196928D01*
X195886786Y-53196928D02*
X196101072Y-53196928D01*
X196101072Y-53196928D02*
X196243929Y-53268357D01*
X196243929Y-53268357D02*
X196315358Y-53411214D01*
X196315358Y-53411214D02*
X196315358Y-54196928D01*
X196315358Y-53411214D02*
X196386786Y-53268357D01*
X196386786Y-53268357D02*
X196529643Y-53196928D01*
X196529643Y-53196928D02*
X196743929Y-53196928D01*
X196743929Y-53196928D02*
X196886786Y-53268357D01*
X196886786Y-53268357D02*
X196958215Y-53411214D01*
X196958215Y-53411214D02*
X196958215Y-54196928D01*
X198243929Y-54125500D02*
X198101072Y-54196928D01*
X198101072Y-54196928D02*
X197815358Y-54196928D01*
X197815358Y-54196928D02*
X197672500Y-54125500D01*
X197672500Y-54125500D02*
X197601072Y-53982642D01*
X197601072Y-53982642D02*
X197601072Y-53411214D01*
X197601072Y-53411214D02*
X197672500Y-53268357D01*
X197672500Y-53268357D02*
X197815358Y-53196928D01*
X197815358Y-53196928D02*
X198101072Y-53196928D01*
X198101072Y-53196928D02*
X198243929Y-53268357D01*
X198243929Y-53268357D02*
X198315358Y-53411214D01*
X198315358Y-53411214D02*
X198315358Y-53554071D01*
X198315358Y-53554071D02*
X197601072Y-53696928D01*
X198958214Y-54196928D02*
X198958214Y-53196928D01*
X198958214Y-53482642D02*
X199029643Y-53339785D01*
X199029643Y-53339785D02*
X199101072Y-53268357D01*
X199101072Y-53268357D02*
X199243929Y-53196928D01*
X199243929Y-53196928D02*
X199386786Y-53196928D01*
X201743928Y-52696928D02*
X201029642Y-52696928D01*
X201029642Y-52696928D02*
X200958214Y-53411214D01*
X200958214Y-53411214D02*
X201029642Y-53339785D01*
X201029642Y-53339785D02*
X201172500Y-53268357D01*
X201172500Y-53268357D02*
X201529642Y-53268357D01*
X201529642Y-53268357D02*
X201672500Y-53339785D01*
X201672500Y-53339785D02*
X201743928Y-53411214D01*
X201743928Y-53411214D02*
X201815357Y-53554071D01*
X201815357Y-53554071D02*
X201815357Y-53911214D01*
X201815357Y-53911214D02*
X201743928Y-54054071D01*
X201743928Y-54054071D02*
X201672500Y-54125500D01*
X201672500Y-54125500D02*
X201529642Y-54196928D01*
X201529642Y-54196928D02*
X201172500Y-54196928D01*
X201172500Y-54196928D02*
X201029642Y-54125500D01*
X201029642Y-54125500D02*
X200958214Y-54054071D01*
X202243928Y-52696928D02*
X202743928Y-54196928D01*
X202743928Y-54196928D02*
X203243928Y-52696928D01*
D12*
X236314733Y-51333333D02*
X236314733Y-51666666D01*
X236314733Y-51666666D02*
X236648066Y-51699999D01*
X236648066Y-51699999D02*
X236614733Y-51666666D01*
X236614733Y-51666666D02*
X236581400Y-51599999D01*
X236581400Y-51599999D02*
X236581400Y-51433333D01*
X236581400Y-51433333D02*
X236614733Y-51366666D01*
X236614733Y-51366666D02*
X236648066Y-51333333D01*
X236648066Y-51333333D02*
X236714733Y-51299999D01*
X236714733Y-51299999D02*
X236881400Y-51299999D01*
X236881400Y-51299999D02*
X236948066Y-51333333D01*
X236948066Y-51333333D02*
X236981400Y-51366666D01*
X236981400Y-51366666D02*
X237014733Y-51433333D01*
X237014733Y-51433333D02*
X237014733Y-51599999D01*
X237014733Y-51599999D02*
X236981400Y-51666666D01*
X236981400Y-51666666D02*
X236948066Y-51699999D01*
X236314733Y-51099999D02*
X237014733Y-50866666D01*
X237014733Y-50866666D02*
X236314733Y-50633332D01*
D10*
X175692857Y-50863357D02*
X176407143Y-50863357D01*
X175550000Y-51291928D02*
X176050000Y-49791928D01*
X176050000Y-49791928D02*
X176550000Y-51291928D01*
X107717857Y-50863357D02*
X108432143Y-50863357D01*
X107575000Y-51291928D02*
X108075000Y-49791928D01*
X108075000Y-49791928D02*
X108575000Y-51291928D01*
D12*
X237114733Y-58916666D02*
X236781400Y-59149999D01*
X237114733Y-59316666D02*
X236414733Y-59316666D01*
X236414733Y-59316666D02*
X236414733Y-59049999D01*
X236414733Y-59049999D02*
X236448066Y-58983333D01*
X236448066Y-58983333D02*
X236481400Y-58949999D01*
X236481400Y-58949999D02*
X236548066Y-58916666D01*
X236548066Y-58916666D02*
X236648066Y-58916666D01*
X236648066Y-58916666D02*
X236714733Y-58949999D01*
X236714733Y-58949999D02*
X236748066Y-58983333D01*
X236748066Y-58983333D02*
X236781400Y-59049999D01*
X236781400Y-59049999D02*
X236781400Y-59316666D01*
X236414733Y-58683333D02*
X237114733Y-58216666D01*
X236414733Y-58216666D02*
X237114733Y-58683333D01*
D10*
X223714285Y-53488714D02*
X224214285Y-53488714D01*
X224428571Y-54274428D02*
X223714285Y-54274428D01*
X223714285Y-54274428D02*
X223714285Y-52774428D01*
X223714285Y-52774428D02*
X224428571Y-52774428D01*
X225071428Y-54274428D02*
X225071428Y-53274428D01*
X225071428Y-53417285D02*
X225142857Y-53345857D01*
X225142857Y-53345857D02*
X225285714Y-53274428D01*
X225285714Y-53274428D02*
X225500000Y-53274428D01*
X225500000Y-53274428D02*
X225642857Y-53345857D01*
X225642857Y-53345857D02*
X225714286Y-53488714D01*
X225714286Y-53488714D02*
X225714286Y-54274428D01*
X225714286Y-53488714D02*
X225785714Y-53345857D01*
X225785714Y-53345857D02*
X225928571Y-53274428D01*
X225928571Y-53274428D02*
X226142857Y-53274428D01*
X226142857Y-53274428D02*
X226285714Y-53345857D01*
X226285714Y-53345857D02*
X226357143Y-53488714D01*
X226357143Y-53488714D02*
X226357143Y-54274428D01*
X227642857Y-54203000D02*
X227500000Y-54274428D01*
X227500000Y-54274428D02*
X227214286Y-54274428D01*
X227214286Y-54274428D02*
X227071428Y-54203000D01*
X227071428Y-54203000D02*
X227000000Y-54060142D01*
X227000000Y-54060142D02*
X227000000Y-53488714D01*
X227000000Y-53488714D02*
X227071428Y-53345857D01*
X227071428Y-53345857D02*
X227214286Y-53274428D01*
X227214286Y-53274428D02*
X227500000Y-53274428D01*
X227500000Y-53274428D02*
X227642857Y-53345857D01*
X227642857Y-53345857D02*
X227714286Y-53488714D01*
X227714286Y-53488714D02*
X227714286Y-53631571D01*
X227714286Y-53631571D02*
X227000000Y-53774428D01*
X228357142Y-54274428D02*
X228357142Y-53274428D01*
X228357142Y-53560142D02*
X228428571Y-53417285D01*
X228428571Y-53417285D02*
X228500000Y-53345857D01*
X228500000Y-53345857D02*
X228642857Y-53274428D01*
X228642857Y-53274428D02*
X228785714Y-53274428D01*
X230428570Y-54274428D02*
X230428570Y-52774428D01*
X231142856Y-53274428D02*
X231142856Y-54274428D01*
X231142856Y-53417285D02*
X231214285Y-53345857D01*
X231214285Y-53345857D02*
X231357142Y-53274428D01*
X231357142Y-53274428D02*
X231571428Y-53274428D01*
X231571428Y-53274428D02*
X231714285Y-53345857D01*
X231714285Y-53345857D02*
X231785714Y-53488714D01*
X231785714Y-53488714D02*
X231785714Y-54274428D01*
X84132143Y-49863357D02*
X83989286Y-49791928D01*
X83989286Y-49791928D02*
X83775000Y-49791928D01*
X83775000Y-49791928D02*
X83560714Y-49863357D01*
X83560714Y-49863357D02*
X83417857Y-50006214D01*
X83417857Y-50006214D02*
X83346428Y-50149071D01*
X83346428Y-50149071D02*
X83275000Y-50434785D01*
X83275000Y-50434785D02*
X83275000Y-50649071D01*
X83275000Y-50649071D02*
X83346428Y-50934785D01*
X83346428Y-50934785D02*
X83417857Y-51077642D01*
X83417857Y-51077642D02*
X83560714Y-51220500D01*
X83560714Y-51220500D02*
X83775000Y-51291928D01*
X83775000Y-51291928D02*
X83917857Y-51291928D01*
X83917857Y-51291928D02*
X84132143Y-51220500D01*
X84132143Y-51220500D02*
X84203571Y-51149071D01*
X84203571Y-51149071D02*
X84203571Y-50649071D01*
X84203571Y-50649071D02*
X83917857Y-50649071D01*
X84846428Y-51291928D02*
X84846428Y-49791928D01*
X84846428Y-49791928D02*
X85703571Y-51291928D01*
X85703571Y-51291928D02*
X85703571Y-49791928D01*
X86417857Y-51291928D02*
X86417857Y-49791928D01*
X86417857Y-49791928D02*
X86775000Y-49791928D01*
X86775000Y-49791928D02*
X86989286Y-49863357D01*
X86989286Y-49863357D02*
X87132143Y-50006214D01*
X87132143Y-50006214D02*
X87203572Y-50149071D01*
X87203572Y-50149071D02*
X87275000Y-50434785D01*
X87275000Y-50434785D02*
X87275000Y-50649071D01*
X87275000Y-50649071D02*
X87203572Y-50934785D01*
X87203572Y-50934785D02*
X87132143Y-51077642D01*
X87132143Y-51077642D02*
X86989286Y-51220500D01*
X86989286Y-51220500D02*
X86775000Y-51291928D01*
X86775000Y-51291928D02*
X86417857Y-51291928D01*
D12*
X62284867Y-52939733D02*
X61951533Y-52939733D01*
X61951533Y-52939733D02*
X61951533Y-52239733D01*
X62518200Y-52939733D02*
X62518200Y-52239733D01*
X62518200Y-52239733D02*
X62751534Y-52739733D01*
X62751534Y-52739733D02*
X62984867Y-52239733D01*
X62984867Y-52239733D02*
X62984867Y-52939733D01*
X63684867Y-52939733D02*
X63284867Y-52939733D01*
X63484867Y-52939733D02*
X63484867Y-52239733D01*
X63484867Y-52239733D02*
X63418200Y-52339733D01*
X63418200Y-52339733D02*
X63351534Y-52406400D01*
X63351534Y-52406400D02*
X63284867Y-52439733D01*
X64351534Y-52939733D02*
X63951534Y-52939733D01*
X64151534Y-52939733D02*
X64151534Y-52239733D01*
X64151534Y-52239733D02*
X64084867Y-52339733D01*
X64084867Y-52339733D02*
X64018201Y-52406400D01*
X64018201Y-52406400D02*
X63951534Y-52439733D01*
X65018201Y-52939733D02*
X64618201Y-52939733D01*
X64818201Y-52939733D02*
X64818201Y-52239733D01*
X64818201Y-52239733D02*
X64751534Y-52339733D01*
X64751534Y-52339733D02*
X64684868Y-52406400D01*
X64684868Y-52406400D02*
X64618201Y-52439733D01*
X65251535Y-52239733D02*
X65718201Y-52239733D01*
X65718201Y-52239733D02*
X65418201Y-52939733D01*
X65884868Y-52239733D02*
X66284868Y-52239733D01*
X66084868Y-52939733D02*
X66084868Y-52239733D01*
X66518201Y-52673066D02*
X67051535Y-52673066D01*
X67318202Y-52239733D02*
X67751535Y-52239733D01*
X67751535Y-52239733D02*
X67518202Y-52506400D01*
X67518202Y-52506400D02*
X67618202Y-52506400D01*
X67618202Y-52506400D02*
X67684868Y-52539733D01*
X67684868Y-52539733D02*
X67718202Y-52573066D01*
X67718202Y-52573066D02*
X67751535Y-52639733D01*
X67751535Y-52639733D02*
X67751535Y-52806400D01*
X67751535Y-52806400D02*
X67718202Y-52873066D01*
X67718202Y-52873066D02*
X67684868Y-52906400D01*
X67684868Y-52906400D02*
X67618202Y-52939733D01*
X67618202Y-52939733D02*
X67418202Y-52939733D01*
X67418202Y-52939733D02*
X67351535Y-52906400D01*
X67351535Y-52906400D02*
X67318202Y-52873066D01*
X68051535Y-52873066D02*
X68084869Y-52906400D01*
X68084869Y-52906400D02*
X68051535Y-52939733D01*
X68051535Y-52939733D02*
X68018202Y-52906400D01*
X68018202Y-52906400D02*
X68051535Y-52873066D01*
X68051535Y-52873066D02*
X68051535Y-52939733D01*
X68318202Y-52239733D02*
X68751535Y-52239733D01*
X68751535Y-52239733D02*
X68518202Y-52506400D01*
X68518202Y-52506400D02*
X68618202Y-52506400D01*
X68618202Y-52506400D02*
X68684868Y-52539733D01*
X68684868Y-52539733D02*
X68718202Y-52573066D01*
X68718202Y-52573066D02*
X68751535Y-52639733D01*
X68751535Y-52639733D02*
X68751535Y-52806400D01*
X68751535Y-52806400D02*
X68718202Y-52873066D01*
X68718202Y-52873066D02*
X68684868Y-52906400D01*
X68684868Y-52906400D02*
X68618202Y-52939733D01*
X68618202Y-52939733D02*
X68418202Y-52939733D01*
X68418202Y-52939733D02*
X68351535Y-52906400D01*
X68351535Y-52906400D02*
X68318202Y-52873066D01*
D10*
X149757143Y-49863357D02*
X149614286Y-49791928D01*
X149614286Y-49791928D02*
X149400000Y-49791928D01*
X149400000Y-49791928D02*
X149185714Y-49863357D01*
X149185714Y-49863357D02*
X149042857Y-50006214D01*
X149042857Y-50006214D02*
X148971428Y-50149071D01*
X148971428Y-50149071D02*
X148900000Y-50434785D01*
X148900000Y-50434785D02*
X148900000Y-50649071D01*
X148900000Y-50649071D02*
X148971428Y-50934785D01*
X148971428Y-50934785D02*
X149042857Y-51077642D01*
X149042857Y-51077642D02*
X149185714Y-51220500D01*
X149185714Y-51220500D02*
X149400000Y-51291928D01*
X149400000Y-51291928D02*
X149542857Y-51291928D01*
X149542857Y-51291928D02*
X149757143Y-51220500D01*
X149757143Y-51220500D02*
X149828571Y-51149071D01*
X149828571Y-51149071D02*
X149828571Y-50649071D01*
X149828571Y-50649071D02*
X149542857Y-50649071D01*
X150471428Y-51291928D02*
X150471428Y-49791928D01*
X150471428Y-49791928D02*
X151328571Y-51291928D01*
X151328571Y-51291928D02*
X151328571Y-49791928D01*
X152042857Y-51291928D02*
X152042857Y-49791928D01*
X152042857Y-49791928D02*
X152400000Y-49791928D01*
X152400000Y-49791928D02*
X152614286Y-49863357D01*
X152614286Y-49863357D02*
X152757143Y-50006214D01*
X152757143Y-50006214D02*
X152828572Y-50149071D01*
X152828572Y-50149071D02*
X152900000Y-50434785D01*
X152900000Y-50434785D02*
X152900000Y-50649071D01*
X152900000Y-50649071D02*
X152828572Y-50934785D01*
X152828572Y-50934785D02*
X152757143Y-51077642D01*
X152757143Y-51077642D02*
X152614286Y-51220500D01*
X152614286Y-51220500D02*
X152400000Y-51291928D01*
X152400000Y-51291928D02*
X152042857Y-51291928D01*
D12*
X65514733Y-58170000D02*
X65514733Y-58103333D01*
X65514733Y-58103333D02*
X65548066Y-58036666D01*
X65548066Y-58036666D02*
X65581400Y-58003333D01*
X65581400Y-58003333D02*
X65648066Y-57970000D01*
X65648066Y-57970000D02*
X65781400Y-57936666D01*
X65781400Y-57936666D02*
X65948066Y-57936666D01*
X65948066Y-57936666D02*
X66081400Y-57970000D01*
X66081400Y-57970000D02*
X66148066Y-58003333D01*
X66148066Y-58003333D02*
X66181400Y-58036666D01*
X66181400Y-58036666D02*
X66214733Y-58103333D01*
X66214733Y-58103333D02*
X66214733Y-58170000D01*
X66214733Y-58170000D02*
X66181400Y-58236666D01*
X66181400Y-58236666D02*
X66148066Y-58270000D01*
X66148066Y-58270000D02*
X66081400Y-58303333D01*
X66081400Y-58303333D02*
X65948066Y-58336666D01*
X65948066Y-58336666D02*
X65781400Y-58336666D01*
X65781400Y-58336666D02*
X65648066Y-58303333D01*
X65648066Y-58303333D02*
X65581400Y-58270000D01*
X65581400Y-58270000D02*
X65548066Y-58236666D01*
X65548066Y-58236666D02*
X65514733Y-58170000D01*
X66148066Y-57636666D02*
X66181400Y-57603333D01*
X66181400Y-57603333D02*
X66214733Y-57636666D01*
X66214733Y-57636666D02*
X66181400Y-57669999D01*
X66181400Y-57669999D02*
X66148066Y-57636666D01*
X66148066Y-57636666D02*
X66214733Y-57636666D01*
X66214733Y-56936666D02*
X66214733Y-57336666D01*
X66214733Y-57136666D02*
X65514733Y-57136666D01*
X65514733Y-57136666D02*
X65614733Y-57203333D01*
X65614733Y-57203333D02*
X65681400Y-57270000D01*
X65681400Y-57270000D02*
X65714733Y-57336666D01*
X65748066Y-56336666D02*
X66214733Y-56336666D01*
X65748066Y-56636666D02*
X66114733Y-56636666D01*
X66114733Y-56636666D02*
X66181400Y-56603333D01*
X66181400Y-56603333D02*
X66214733Y-56536666D01*
X66214733Y-56536666D02*
X66214733Y-56436666D01*
X66214733Y-56436666D02*
X66181400Y-56369999D01*
X66181400Y-56369999D02*
X66148066Y-56336666D01*
X65748066Y-56103333D02*
X65748066Y-55836666D01*
X66214733Y-56003333D02*
X65614733Y-56003333D01*
X65614733Y-56003333D02*
X65548066Y-55970000D01*
X65548066Y-55970000D02*
X65514733Y-55903333D01*
X65514733Y-55903333D02*
X65514733Y-55836666D01*
X68408333Y-68239733D02*
X68008333Y-68239733D01*
X68208333Y-68239733D02*
X68208333Y-67539733D01*
X68208333Y-67539733D02*
X68141666Y-67639733D01*
X68141666Y-67639733D02*
X68075000Y-67706400D01*
X68075000Y-67706400D02*
X68008333Y-67739733D01*
X68841667Y-67539733D02*
X68908333Y-67539733D01*
X68908333Y-67539733D02*
X68975000Y-67573066D01*
X68975000Y-67573066D02*
X69008333Y-67606400D01*
X69008333Y-67606400D02*
X69041667Y-67673066D01*
X69041667Y-67673066D02*
X69075000Y-67806400D01*
X69075000Y-67806400D02*
X69075000Y-67973066D01*
X69075000Y-67973066D02*
X69041667Y-68106400D01*
X69041667Y-68106400D02*
X69008333Y-68173066D01*
X69008333Y-68173066D02*
X68975000Y-68206400D01*
X68975000Y-68206400D02*
X68908333Y-68239733D01*
X68908333Y-68239733D02*
X68841667Y-68239733D01*
X68841667Y-68239733D02*
X68775000Y-68206400D01*
X68775000Y-68206400D02*
X68741667Y-68173066D01*
X68741667Y-68173066D02*
X68708333Y-68106400D01*
X68708333Y-68106400D02*
X68675000Y-67973066D01*
X68675000Y-67973066D02*
X68675000Y-67806400D01*
X68675000Y-67806400D02*
X68708333Y-67673066D01*
X68708333Y-67673066D02*
X68741667Y-67606400D01*
X68741667Y-67606400D02*
X68775000Y-67573066D01*
X68775000Y-67573066D02*
X68841667Y-67539733D01*
X69508334Y-67539733D02*
X69575000Y-67539733D01*
X69575000Y-67539733D02*
X69641667Y-67573066D01*
X69641667Y-67573066D02*
X69675000Y-67606400D01*
X69675000Y-67606400D02*
X69708334Y-67673066D01*
X69708334Y-67673066D02*
X69741667Y-67806400D01*
X69741667Y-67806400D02*
X69741667Y-67973066D01*
X69741667Y-67973066D02*
X69708334Y-68106400D01*
X69708334Y-68106400D02*
X69675000Y-68173066D01*
X69675000Y-68173066D02*
X69641667Y-68206400D01*
X69641667Y-68206400D02*
X69575000Y-68239733D01*
X69575000Y-68239733D02*
X69508334Y-68239733D01*
X69508334Y-68239733D02*
X69441667Y-68206400D01*
X69441667Y-68206400D02*
X69408334Y-68173066D01*
X69408334Y-68173066D02*
X69375000Y-68106400D01*
X69375000Y-68106400D02*
X69341667Y-67973066D01*
X69341667Y-67973066D02*
X69341667Y-67806400D01*
X69341667Y-67806400D02*
X69375000Y-67673066D01*
X69375000Y-67673066D02*
X69408334Y-67606400D01*
X69408334Y-67606400D02*
X69441667Y-67573066D01*
X69441667Y-67573066D02*
X69508334Y-67539733D01*
D10*
X181157142Y-50506214D02*
X181371428Y-50577642D01*
X181371428Y-50577642D02*
X181442857Y-50649071D01*
X181442857Y-50649071D02*
X181514285Y-50791928D01*
X181514285Y-50791928D02*
X181514285Y-51006214D01*
X181514285Y-51006214D02*
X181442857Y-51149071D01*
X181442857Y-51149071D02*
X181371428Y-51220500D01*
X181371428Y-51220500D02*
X181228571Y-51291928D01*
X181228571Y-51291928D02*
X180657142Y-51291928D01*
X180657142Y-51291928D02*
X180657142Y-49791928D01*
X180657142Y-49791928D02*
X181157142Y-49791928D01*
X181157142Y-49791928D02*
X181300000Y-49863357D01*
X181300000Y-49863357D02*
X181371428Y-49934785D01*
X181371428Y-49934785D02*
X181442857Y-50077642D01*
X181442857Y-50077642D02*
X181442857Y-50220500D01*
X181442857Y-50220500D02*
X181371428Y-50363357D01*
X181371428Y-50363357D02*
X181300000Y-50434785D01*
X181300000Y-50434785D02*
X181157142Y-50506214D01*
X181157142Y-50506214D02*
X180657142Y-50506214D01*
X138692856Y-51291928D02*
X138692856Y-49791928D01*
X138692856Y-49791928D02*
X139264285Y-49791928D01*
X139264285Y-49791928D02*
X139407142Y-49863357D01*
X139407142Y-49863357D02*
X139478571Y-49934785D01*
X139478571Y-49934785D02*
X139549999Y-50077642D01*
X139549999Y-50077642D02*
X139549999Y-50291928D01*
X139549999Y-50291928D02*
X139478571Y-50434785D01*
X139478571Y-50434785D02*
X139407142Y-50506214D01*
X139407142Y-50506214D02*
X139264285Y-50577642D01*
X139264285Y-50577642D02*
X138692856Y-50577642D01*
X140049999Y-49791928D02*
X140407142Y-51291928D01*
X140407142Y-51291928D02*
X140692856Y-50220500D01*
X140692856Y-50220500D02*
X140978571Y-51291928D01*
X140978571Y-51291928D02*
X141335714Y-49791928D01*
X141907142Y-51291928D02*
X141907142Y-49791928D01*
X141907142Y-49791928D02*
X142407142Y-50863357D01*
X142407142Y-50863357D02*
X142907142Y-49791928D01*
X142907142Y-49791928D02*
X142907142Y-51291928D01*
D12*
X225537500Y-68934733D02*
X225137500Y-68934733D01*
X225337500Y-68934733D02*
X225337500Y-68234733D01*
X225337500Y-68234733D02*
X225270833Y-68334733D01*
X225270833Y-68334733D02*
X225204167Y-68401400D01*
X225204167Y-68401400D02*
X225137500Y-68434733D01*
X225837500Y-68934733D02*
X225837500Y-68234733D01*
X226237500Y-68934733D02*
X225937500Y-68534733D01*
X226237500Y-68234733D02*
X225837500Y-68634733D01*
D10*
X142463571Y-57574428D02*
X142463571Y-56074428D01*
X142463571Y-56074428D02*
X142963571Y-57145857D01*
X142963571Y-57145857D02*
X143463571Y-56074428D01*
X143463571Y-56074428D02*
X143463571Y-57574428D01*
X144177857Y-57574428D02*
X144177857Y-56074428D01*
X144177857Y-56074428D02*
X144535000Y-56074428D01*
X144535000Y-56074428D02*
X144749286Y-56145857D01*
X144749286Y-56145857D02*
X144892143Y-56288714D01*
X144892143Y-56288714D02*
X144963572Y-56431571D01*
X144963572Y-56431571D02*
X145035000Y-56717285D01*
X145035000Y-56717285D02*
X145035000Y-56931571D01*
X145035000Y-56931571D02*
X144963572Y-57217285D01*
X144963572Y-57217285D02*
X144892143Y-57360142D01*
X144892143Y-57360142D02*
X144749286Y-57503000D01*
X144749286Y-57503000D02*
X144535000Y-57574428D01*
X144535000Y-57574428D02*
X144177857Y-57574428D01*
X145606429Y-56217285D02*
X145677857Y-56145857D01*
X145677857Y-56145857D02*
X145820715Y-56074428D01*
X145820715Y-56074428D02*
X146177857Y-56074428D01*
X146177857Y-56074428D02*
X146320715Y-56145857D01*
X146320715Y-56145857D02*
X146392143Y-56217285D01*
X146392143Y-56217285D02*
X146463572Y-56360142D01*
X146463572Y-56360142D02*
X146463572Y-56503000D01*
X146463572Y-56503000D02*
X146392143Y-56717285D01*
X146392143Y-56717285D02*
X145535000Y-57574428D01*
X145535000Y-57574428D02*
X146463572Y-57574428D01*
X147392143Y-56074428D02*
X147535000Y-56074428D01*
X147535000Y-56074428D02*
X147677857Y-56145857D01*
X147677857Y-56145857D02*
X147749286Y-56217285D01*
X147749286Y-56217285D02*
X147820714Y-56360142D01*
X147820714Y-56360142D02*
X147892143Y-56645857D01*
X147892143Y-56645857D02*
X147892143Y-57003000D01*
X147892143Y-57003000D02*
X147820714Y-57288714D01*
X147820714Y-57288714D02*
X147749286Y-57431571D01*
X147749286Y-57431571D02*
X147677857Y-57503000D01*
X147677857Y-57503000D02*
X147535000Y-57574428D01*
X147535000Y-57574428D02*
X147392143Y-57574428D01*
X147392143Y-57574428D02*
X147249286Y-57503000D01*
X147249286Y-57503000D02*
X147177857Y-57431571D01*
X147177857Y-57431571D02*
X147106428Y-57288714D01*
X147106428Y-57288714D02*
X147035000Y-57003000D01*
X147035000Y-57003000D02*
X147035000Y-56645857D01*
X147035000Y-56645857D02*
X147106428Y-56360142D01*
X147106428Y-56360142D02*
X147177857Y-56217285D01*
X147177857Y-56217285D02*
X147249286Y-56145857D01*
X147249286Y-56145857D02*
X147392143Y-56074428D01*
X148463571Y-57145857D02*
X149177857Y-57145857D01*
X148320714Y-57574428D02*
X148820714Y-56074428D01*
X148820714Y-56074428D02*
X149320714Y-57574428D01*
X207162143Y-51264428D02*
X206662143Y-50550142D01*
X206305000Y-51264428D02*
X206305000Y-49764428D01*
X206305000Y-49764428D02*
X206876429Y-49764428D01*
X206876429Y-49764428D02*
X207019286Y-49835857D01*
X207019286Y-49835857D02*
X207090715Y-49907285D01*
X207090715Y-49907285D02*
X207162143Y-50050142D01*
X207162143Y-50050142D02*
X207162143Y-50264428D01*
X207162143Y-50264428D02*
X207090715Y-50407285D01*
X207090715Y-50407285D02*
X207019286Y-50478714D01*
X207019286Y-50478714D02*
X206876429Y-50550142D01*
X206876429Y-50550142D02*
X206305000Y-50550142D01*
X208376429Y-51193000D02*
X208233572Y-51264428D01*
X208233572Y-51264428D02*
X207947858Y-51264428D01*
X207947858Y-51264428D02*
X207805000Y-51193000D01*
X207805000Y-51193000D02*
X207733572Y-51050142D01*
X207733572Y-51050142D02*
X207733572Y-50478714D01*
X207733572Y-50478714D02*
X207805000Y-50335857D01*
X207805000Y-50335857D02*
X207947858Y-50264428D01*
X207947858Y-50264428D02*
X208233572Y-50264428D01*
X208233572Y-50264428D02*
X208376429Y-50335857D01*
X208376429Y-50335857D02*
X208447858Y-50478714D01*
X208447858Y-50478714D02*
X208447858Y-50621571D01*
X208447858Y-50621571D02*
X207733572Y-50764428D01*
X209305000Y-51264428D02*
X209162143Y-51193000D01*
X209162143Y-51193000D02*
X209090714Y-51050142D01*
X209090714Y-51050142D02*
X209090714Y-49764428D01*
X210519286Y-51264428D02*
X210519286Y-50478714D01*
X210519286Y-50478714D02*
X210447857Y-50335857D01*
X210447857Y-50335857D02*
X210305000Y-50264428D01*
X210305000Y-50264428D02*
X210019286Y-50264428D01*
X210019286Y-50264428D02*
X209876428Y-50335857D01*
X210519286Y-51193000D02*
X210376428Y-51264428D01*
X210376428Y-51264428D02*
X210019286Y-51264428D01*
X210019286Y-51264428D02*
X209876428Y-51193000D01*
X209876428Y-51193000D02*
X209805000Y-51050142D01*
X209805000Y-51050142D02*
X209805000Y-50907285D01*
X209805000Y-50907285D02*
X209876428Y-50764428D01*
X209876428Y-50764428D02*
X210019286Y-50693000D01*
X210019286Y-50693000D02*
X210376428Y-50693000D01*
X210376428Y-50693000D02*
X210519286Y-50621571D01*
X211090714Y-50264428D02*
X211447857Y-51264428D01*
X211805000Y-50264428D02*
X211447857Y-51264428D01*
X211447857Y-51264428D02*
X211305000Y-51621571D01*
X211305000Y-51621571D02*
X211233571Y-51693000D01*
X211233571Y-51693000D02*
X211090714Y-51764428D01*
X213447857Y-51193000D02*
X213662143Y-51264428D01*
X213662143Y-51264428D02*
X214019285Y-51264428D01*
X214019285Y-51264428D02*
X214162143Y-51193000D01*
X214162143Y-51193000D02*
X214233571Y-51121571D01*
X214233571Y-51121571D02*
X214305000Y-50978714D01*
X214305000Y-50978714D02*
X214305000Y-50835857D01*
X214305000Y-50835857D02*
X214233571Y-50693000D01*
X214233571Y-50693000D02*
X214162143Y-50621571D01*
X214162143Y-50621571D02*
X214019285Y-50550142D01*
X214019285Y-50550142D02*
X213733571Y-50478714D01*
X213733571Y-50478714D02*
X213590714Y-50407285D01*
X213590714Y-50407285D02*
X213519285Y-50335857D01*
X213519285Y-50335857D02*
X213447857Y-50193000D01*
X213447857Y-50193000D02*
X213447857Y-50050142D01*
X213447857Y-50050142D02*
X213519285Y-49907285D01*
X213519285Y-49907285D02*
X213590714Y-49835857D01*
X213590714Y-49835857D02*
X213733571Y-49764428D01*
X213733571Y-49764428D02*
X214090714Y-49764428D01*
X214090714Y-49764428D02*
X214305000Y-49835857D01*
X214947856Y-51264428D02*
X214947856Y-50264428D01*
X214947856Y-49764428D02*
X214876428Y-49835857D01*
X214876428Y-49835857D02*
X214947856Y-49907285D01*
X214947856Y-49907285D02*
X215019285Y-49835857D01*
X215019285Y-49835857D02*
X214947856Y-49764428D01*
X214947856Y-49764428D02*
X214947856Y-49907285D01*
X216305000Y-50264428D02*
X216305000Y-51478714D01*
X216305000Y-51478714D02*
X216233571Y-51621571D01*
X216233571Y-51621571D02*
X216162142Y-51693000D01*
X216162142Y-51693000D02*
X216019285Y-51764428D01*
X216019285Y-51764428D02*
X215805000Y-51764428D01*
X215805000Y-51764428D02*
X215662142Y-51693000D01*
X216305000Y-51193000D02*
X216162142Y-51264428D01*
X216162142Y-51264428D02*
X215876428Y-51264428D01*
X215876428Y-51264428D02*
X215733571Y-51193000D01*
X215733571Y-51193000D02*
X215662142Y-51121571D01*
X215662142Y-51121571D02*
X215590714Y-50978714D01*
X215590714Y-50978714D02*
X215590714Y-50550142D01*
X215590714Y-50550142D02*
X215662142Y-50407285D01*
X215662142Y-50407285D02*
X215733571Y-50335857D01*
X215733571Y-50335857D02*
X215876428Y-50264428D01*
X215876428Y-50264428D02*
X216162142Y-50264428D01*
X216162142Y-50264428D02*
X216305000Y-50335857D01*
X217019285Y-50264428D02*
X217019285Y-51264428D01*
X217019285Y-50407285D02*
X217090714Y-50335857D01*
X217090714Y-50335857D02*
X217233571Y-50264428D01*
X217233571Y-50264428D02*
X217447857Y-50264428D01*
X217447857Y-50264428D02*
X217590714Y-50335857D01*
X217590714Y-50335857D02*
X217662143Y-50478714D01*
X217662143Y-50478714D02*
X217662143Y-51264428D01*
X219019286Y-51264428D02*
X219019286Y-50478714D01*
X219019286Y-50478714D02*
X218947857Y-50335857D01*
X218947857Y-50335857D02*
X218805000Y-50264428D01*
X218805000Y-50264428D02*
X218519286Y-50264428D01*
X218519286Y-50264428D02*
X218376428Y-50335857D01*
X219019286Y-51193000D02*
X218876428Y-51264428D01*
X218876428Y-51264428D02*
X218519286Y-51264428D01*
X218519286Y-51264428D02*
X218376428Y-51193000D01*
X218376428Y-51193000D02*
X218305000Y-51050142D01*
X218305000Y-51050142D02*
X218305000Y-50907285D01*
X218305000Y-50907285D02*
X218376428Y-50764428D01*
X218376428Y-50764428D02*
X218519286Y-50693000D01*
X218519286Y-50693000D02*
X218876428Y-50693000D01*
X218876428Y-50693000D02*
X219019286Y-50621571D01*
X219947857Y-51264428D02*
X219805000Y-51193000D01*
X219805000Y-51193000D02*
X219733571Y-51050142D01*
X219733571Y-51050142D02*
X219733571Y-49764428D01*
D13*
X64877080Y-57286666D02*
X64924700Y-57334285D01*
X64924700Y-57334285D02*
X64972319Y-57477142D01*
X64972319Y-57477142D02*
X64972319Y-57572380D01*
X64972319Y-57572380D02*
X64924700Y-57715237D01*
X64924700Y-57715237D02*
X64829461Y-57810475D01*
X64829461Y-57810475D02*
X64734223Y-57858094D01*
X64734223Y-57858094D02*
X64543747Y-57905713D01*
X64543747Y-57905713D02*
X64400890Y-57905713D01*
X64400890Y-57905713D02*
X64210414Y-57858094D01*
X64210414Y-57858094D02*
X64115176Y-57810475D01*
X64115176Y-57810475D02*
X64019938Y-57715237D01*
X64019938Y-57715237D02*
X63972319Y-57572380D01*
X63972319Y-57572380D02*
X63972319Y-57477142D01*
X63972319Y-57477142D02*
X64019938Y-57334285D01*
X64019938Y-57334285D02*
X64067557Y-57286666D01*
X64067557Y-56905713D02*
X64019938Y-56858094D01*
X64019938Y-56858094D02*
X63972319Y-56762856D01*
X63972319Y-56762856D02*
X63972319Y-56524761D01*
X63972319Y-56524761D02*
X64019938Y-56429523D01*
X64019938Y-56429523D02*
X64067557Y-56381904D01*
X64067557Y-56381904D02*
X64162795Y-56334285D01*
X64162795Y-56334285D02*
X64258033Y-56334285D01*
X64258033Y-56334285D02*
X64400890Y-56381904D01*
X64400890Y-56381904D02*
X64972319Y-56953332D01*
X64972319Y-56953332D02*
X64972319Y-56334285D01*
X247005595Y-145374819D02*
X247005595Y-144374819D01*
X247005595Y-144851009D02*
X247577023Y-144851009D01*
X247577023Y-145374819D02*
X247577023Y-144374819D01*
X248481785Y-144708152D02*
X248481785Y-145374819D01*
X248243690Y-144327200D02*
X248005595Y-145041485D01*
X248005595Y-145041485D02*
X248624642Y-145041485D01*
X64755595Y-45674819D02*
X64755595Y-46484342D01*
X64755595Y-46484342D02*
X64803214Y-46579580D01*
X64803214Y-46579580D02*
X64850833Y-46627200D01*
X64850833Y-46627200D02*
X64946071Y-46674819D01*
X64946071Y-46674819D02*
X65136547Y-46674819D01*
X65136547Y-46674819D02*
X65231785Y-46627200D01*
X65231785Y-46627200D02*
X65279404Y-46579580D01*
X65279404Y-46579580D02*
X65327023Y-46484342D01*
X65327023Y-46484342D02*
X65327023Y-45674819D01*
X65755595Y-45770057D02*
X65803214Y-45722438D01*
X65803214Y-45722438D02*
X65898452Y-45674819D01*
X65898452Y-45674819D02*
X66136547Y-45674819D01*
X66136547Y-45674819D02*
X66231785Y-45722438D01*
X66231785Y-45722438D02*
X66279404Y-45770057D01*
X66279404Y-45770057D02*
X66327023Y-45865295D01*
X66327023Y-45865295D02*
X66327023Y-45960533D01*
X66327023Y-45960533D02*
X66279404Y-46103390D01*
X66279404Y-46103390D02*
X65707976Y-46674819D01*
X65707976Y-46674819D02*
X66327023Y-46674819D01*
X53755595Y-145374819D02*
X53755595Y-144374819D01*
X53755595Y-144851009D02*
X54327023Y-144851009D01*
X54327023Y-145374819D02*
X54327023Y-144374819D01*
X54707976Y-144374819D02*
X55327023Y-144374819D01*
X55327023Y-144374819D02*
X54993690Y-144755771D01*
X54993690Y-144755771D02*
X55136547Y-144755771D01*
X55136547Y-144755771D02*
X55231785Y-144803390D01*
X55231785Y-144803390D02*
X55279404Y-144851009D01*
X55279404Y-144851009D02*
X55327023Y-144946247D01*
X55327023Y-144946247D02*
X55327023Y-145184342D01*
X55327023Y-145184342D02*
X55279404Y-145279580D01*
X55279404Y-145279580D02*
X55231785Y-145327200D01*
X55231785Y-145327200D02*
X55136547Y-145374819D01*
X55136547Y-145374819D02*
X54850833Y-145374819D01*
X54850833Y-145374819D02*
X54755595Y-145327200D01*
X54755595Y-145327200D02*
X54707976Y-145279580D01*
X56866905Y-65419819D02*
X56866905Y-64419819D01*
X56866905Y-64419819D02*
X57105000Y-64419819D01*
X57105000Y-64419819D02*
X57247857Y-64467438D01*
X57247857Y-64467438D02*
X57343095Y-64562676D01*
X57343095Y-64562676D02*
X57390714Y-64657914D01*
X57390714Y-64657914D02*
X57438333Y-64848390D01*
X57438333Y-64848390D02*
X57438333Y-64991247D01*
X57438333Y-64991247D02*
X57390714Y-65181723D01*
X57390714Y-65181723D02*
X57343095Y-65276961D01*
X57343095Y-65276961D02*
X57247857Y-65372200D01*
X57247857Y-65372200D02*
X57105000Y-65419819D01*
X57105000Y-65419819D02*
X56866905Y-65419819D01*
X58390714Y-65419819D02*
X57819286Y-65419819D01*
X58105000Y-65419819D02*
X58105000Y-64419819D01*
X58105000Y-64419819D02*
X58009762Y-64562676D01*
X58009762Y-64562676D02*
X57914524Y-64657914D01*
X57914524Y-64657914D02*
X57819286Y-64705533D01*
X119095845Y-63425819D02*
X119095845Y-64235342D01*
X119095845Y-64235342D02*
X119143464Y-64330580D01*
X119143464Y-64330580D02*
X119191083Y-64378200D01*
X119191083Y-64378200D02*
X119286321Y-64425819D01*
X119286321Y-64425819D02*
X119476797Y-64425819D01*
X119476797Y-64425819D02*
X119572035Y-64378200D01*
X119572035Y-64378200D02*
X119619654Y-64330580D01*
X119619654Y-64330580D02*
X119667273Y-64235342D01*
X119667273Y-64235342D02*
X119667273Y-63425819D01*
X120667273Y-64425819D02*
X120095845Y-64425819D01*
X120381559Y-64425819D02*
X120381559Y-63425819D01*
X120381559Y-63425819D02*
X120286321Y-63568676D01*
X120286321Y-63568676D02*
X120191083Y-63663914D01*
X120191083Y-63663914D02*
X120095845Y-63711533D01*
X68708333Y-71099819D02*
X68375000Y-70623628D01*
X68136905Y-71099819D02*
X68136905Y-70099819D01*
X68136905Y-70099819D02*
X68517857Y-70099819D01*
X68517857Y-70099819D02*
X68613095Y-70147438D01*
X68613095Y-70147438D02*
X68660714Y-70195057D01*
X68660714Y-70195057D02*
X68708333Y-70290295D01*
X68708333Y-70290295D02*
X68708333Y-70433152D01*
X68708333Y-70433152D02*
X68660714Y-70528390D01*
X68660714Y-70528390D02*
X68613095Y-70576009D01*
X68613095Y-70576009D02*
X68517857Y-70623628D01*
X68517857Y-70623628D02*
X68136905Y-70623628D01*
X69565476Y-70433152D02*
X69565476Y-71099819D01*
X69327381Y-70052200D02*
X69089286Y-70766485D01*
X69089286Y-70766485D02*
X69708333Y-70766485D01*
X239066666Y-63524819D02*
X239066666Y-64239104D01*
X239066666Y-64239104D02*
X239019047Y-64381961D01*
X239019047Y-64381961D02*
X238923809Y-64477200D01*
X238923809Y-64477200D02*
X238780952Y-64524819D01*
X238780952Y-64524819D02*
X238685714Y-64524819D01*
X239447619Y-63524819D02*
X240114285Y-63524819D01*
X240114285Y-63524819D02*
X239685714Y-64524819D01*
X210449405Y-64354819D02*
X210449405Y-63354819D01*
X210449405Y-63354819D02*
X210687500Y-63354819D01*
X210687500Y-63354819D02*
X210830357Y-63402438D01*
X210830357Y-63402438D02*
X210925595Y-63497676D01*
X210925595Y-63497676D02*
X210973214Y-63592914D01*
X210973214Y-63592914D02*
X211020833Y-63783390D01*
X211020833Y-63783390D02*
X211020833Y-63926247D01*
X211020833Y-63926247D02*
X210973214Y-64116723D01*
X210973214Y-64116723D02*
X210925595Y-64211961D01*
X210925595Y-64211961D02*
X210830357Y-64307200D01*
X210830357Y-64307200D02*
X210687500Y-64354819D01*
X210687500Y-64354819D02*
X210449405Y-64354819D01*
X211401786Y-63450057D02*
X211449405Y-63402438D01*
X211449405Y-63402438D02*
X211544643Y-63354819D01*
X211544643Y-63354819D02*
X211782738Y-63354819D01*
X211782738Y-63354819D02*
X211877976Y-63402438D01*
X211877976Y-63402438D02*
X211925595Y-63450057D01*
X211925595Y-63450057D02*
X211973214Y-63545295D01*
X211973214Y-63545295D02*
X211973214Y-63640533D01*
X211973214Y-63640533D02*
X211925595Y-63783390D01*
X211925595Y-63783390D02*
X211354167Y-64354819D01*
X211354167Y-64354819D02*
X211973214Y-64354819D01*
X205845595Y-64724819D02*
X205845595Y-63724819D01*
X206417023Y-64724819D02*
X205988452Y-64153390D01*
X206417023Y-63724819D02*
X205845595Y-64296247D01*
X225520833Y-71794819D02*
X225187500Y-71318628D01*
X224949405Y-71794819D02*
X224949405Y-70794819D01*
X224949405Y-70794819D02*
X225330357Y-70794819D01*
X225330357Y-70794819D02*
X225425595Y-70842438D01*
X225425595Y-70842438D02*
X225473214Y-70890057D01*
X225473214Y-70890057D02*
X225520833Y-70985295D01*
X225520833Y-70985295D02*
X225520833Y-71128152D01*
X225520833Y-71128152D02*
X225473214Y-71223390D01*
X225473214Y-71223390D02*
X225425595Y-71271009D01*
X225425595Y-71271009D02*
X225330357Y-71318628D01*
X225330357Y-71318628D02*
X224949405Y-71318628D01*
X226425595Y-70794819D02*
X225949405Y-70794819D01*
X225949405Y-70794819D02*
X225901786Y-71271009D01*
X225901786Y-71271009D02*
X225949405Y-71223390D01*
X225949405Y-71223390D02*
X226044643Y-71175771D01*
X226044643Y-71175771D02*
X226282738Y-71175771D01*
X226282738Y-71175771D02*
X226377976Y-71223390D01*
X226377976Y-71223390D02*
X226425595Y-71271009D01*
X226425595Y-71271009D02*
X226473214Y-71366247D01*
X226473214Y-71366247D02*
X226473214Y-71604342D01*
X226473214Y-71604342D02*
X226425595Y-71699580D01*
X226425595Y-71699580D02*
X226377976Y-71747200D01*
X226377976Y-71747200D02*
X226282738Y-71794819D01*
X226282738Y-71794819D02*
X226044643Y-71794819D01*
X226044643Y-71794819D02*
X225949405Y-71747200D01*
X225949405Y-71747200D02*
X225901786Y-71699580D01*
X225600833Y-61604819D02*
X225267500Y-61128628D01*
X225029405Y-61604819D02*
X225029405Y-60604819D01*
X225029405Y-60604819D02*
X225410357Y-60604819D01*
X225410357Y-60604819D02*
X225505595Y-60652438D01*
X225505595Y-60652438D02*
X225553214Y-60700057D01*
X225553214Y-60700057D02*
X225600833Y-60795295D01*
X225600833Y-60795295D02*
X225600833Y-60938152D01*
X225600833Y-60938152D02*
X225553214Y-61033390D01*
X225553214Y-61033390D02*
X225505595Y-61081009D01*
X225505595Y-61081009D02*
X225410357Y-61128628D01*
X225410357Y-61128628D02*
X225029405Y-61128628D01*
X226457976Y-60604819D02*
X226267500Y-60604819D01*
X226267500Y-60604819D02*
X226172262Y-60652438D01*
X226172262Y-60652438D02*
X226124643Y-60700057D01*
X226124643Y-60700057D02*
X226029405Y-60842914D01*
X226029405Y-60842914D02*
X225981786Y-61033390D01*
X225981786Y-61033390D02*
X225981786Y-61414342D01*
X225981786Y-61414342D02*
X226029405Y-61509580D01*
X226029405Y-61509580D02*
X226077024Y-61557200D01*
X226077024Y-61557200D02*
X226172262Y-61604819D01*
X226172262Y-61604819D02*
X226362738Y-61604819D01*
X226362738Y-61604819D02*
X226457976Y-61557200D01*
X226457976Y-61557200D02*
X226505595Y-61509580D01*
X226505595Y-61509580D02*
X226553214Y-61414342D01*
X226553214Y-61414342D02*
X226553214Y-61176247D01*
X226553214Y-61176247D02*
X226505595Y-61081009D01*
X226505595Y-61081009D02*
X226457976Y-61033390D01*
X226457976Y-61033390D02*
X226362738Y-60985771D01*
X226362738Y-60985771D02*
X226172262Y-60985771D01*
X226172262Y-60985771D02*
X226077024Y-61033390D01*
X226077024Y-61033390D02*
X226029405Y-61081009D01*
X226029405Y-61081009D02*
X225981786Y-61176247D01*
X247005595Y-51774819D02*
X247005595Y-50774819D01*
X247005595Y-51251009D02*
X247577023Y-51251009D01*
X247577023Y-51774819D02*
X247577023Y-50774819D01*
X248005595Y-50870057D02*
X248053214Y-50822438D01*
X248053214Y-50822438D02*
X248148452Y-50774819D01*
X248148452Y-50774819D02*
X248386547Y-50774819D01*
X248386547Y-50774819D02*
X248481785Y-50822438D01*
X248481785Y-50822438D02*
X248529404Y-50870057D01*
X248529404Y-50870057D02*
X248577023Y-50965295D01*
X248577023Y-50965295D02*
X248577023Y-51060533D01*
X248577023Y-51060533D02*
X248529404Y-51203390D01*
X248529404Y-51203390D02*
X247957976Y-51774819D01*
X247957976Y-51774819D02*
X248577023Y-51774819D01*
X53505595Y-51774819D02*
X53505595Y-50774819D01*
X53505595Y-51251009D02*
X54077023Y-51251009D01*
X54077023Y-51774819D02*
X54077023Y-50774819D01*
X55077023Y-51774819D02*
X54505595Y-51774819D01*
X54791309Y-51774819D02*
X54791309Y-50774819D01*
X54791309Y-50774819D02*
X54696071Y-50917676D01*
X54696071Y-50917676D02*
X54600833Y-51012914D01*
X54600833Y-51012914D02*
X54505595Y-51060533D01*
X71127080Y-57286666D02*
X71174700Y-57334285D01*
X71174700Y-57334285D02*
X71222319Y-57477142D01*
X71222319Y-57477142D02*
X71222319Y-57572380D01*
X71222319Y-57572380D02*
X71174700Y-57715237D01*
X71174700Y-57715237D02*
X71079461Y-57810475D01*
X71079461Y-57810475D02*
X70984223Y-57858094D01*
X70984223Y-57858094D02*
X70793747Y-57905713D01*
X70793747Y-57905713D02*
X70650890Y-57905713D01*
X70650890Y-57905713D02*
X70460414Y-57858094D01*
X70460414Y-57858094D02*
X70365176Y-57810475D01*
X70365176Y-57810475D02*
X70269938Y-57715237D01*
X70269938Y-57715237D02*
X70222319Y-57572380D01*
X70222319Y-57572380D02*
X70222319Y-57477142D01*
X70222319Y-57477142D02*
X70269938Y-57334285D01*
X70269938Y-57334285D02*
X70317557Y-57286666D01*
X71222319Y-56334285D02*
X71222319Y-56905713D01*
X71222319Y-56619999D02*
X70222319Y-56619999D01*
X70222319Y-56619999D02*
X70365176Y-56715237D01*
X70365176Y-56715237D02*
X70460414Y-56810475D01*
X70460414Y-56810475D02*
X70508033Y-56905713D01*
D14*
%TO.C,C2*%
X60647500Y-54500000D02*
X63387500Y-54500000D01*
X60647500Y-59740000D02*
X60647500Y-54500000D01*
X63387500Y-54500000D02*
X63387500Y-59740000D01*
X63387500Y-59740000D02*
X60647500Y-59740000D01*
%TO.C,U2*%
X60407500Y-47060000D02*
X70627500Y-47060000D01*
X60407500Y-48440000D02*
X70627500Y-48440000D01*
X60407500Y-51680000D02*
X60407500Y-47060000D01*
X63667500Y-47060000D02*
X63667500Y-48440000D01*
X67367500Y-47060000D02*
X67367500Y-48440000D01*
X70627500Y-47060000D02*
X70627500Y-51680000D01*
X70627500Y-51680000D02*
X60407500Y-51680000D01*
%TO.C,D1*%
X56045000Y-66689000D02*
X56045000Y-66845000D01*
X56045000Y-69005000D02*
X56045000Y-69161000D01*
X56045000Y-66689484D02*
G75*
G02*
X59276437Y-66845000I1560000J-1235516D01*
G01*
X56564039Y-66845000D02*
G75*
G02*
X58645961Y-66845000I1040961J-1080000D01*
G01*
X58645961Y-69005000D02*
G75*
G02*
X56564039Y-69005000I-1040961J1080000D01*
G01*
X59276437Y-69005000D02*
G75*
G02*
X56045000Y-69160516I-1671437J1080000D01*
G01*
D15*
%TO.C,U1*%
X115657350Y-67060000D02*
X115657350Y-143560000D01*
X117657350Y-65060000D02*
X183657350Y-65060000D01*
X117657350Y-145560000D02*
X127157350Y-145560000D01*
X127157350Y-145560000D02*
X129157350Y-147560000D01*
X129157350Y-147560000D02*
X162157350Y-147560000D01*
X162157350Y-147560000D02*
X164157350Y-145560000D01*
X164157350Y-145560000D02*
X183657350Y-145560000D01*
X185657350Y-143560000D02*
X185657350Y-67060000D01*
X115657350Y-67060000D02*
G75*
G02*
X117657350Y-65060000I1999999J1D01*
G01*
X117657350Y-145560000D02*
G75*
G02*
X115657350Y-143560000I-1J1999999D01*
G01*
X183657350Y-65060000D02*
G75*
G02*
X185657350Y-67060000I0J-2000000D01*
G01*
X185657350Y-143560000D02*
G75*
G02*
X183657350Y-145560000I-2000000J0D01*
G01*
D16*
X115172650Y-96800000D02*
G75*
G02*
X114972650Y-96800000I-100000J0D01*
G01*
X114972650Y-96800000D02*
G75*
G02*
X115172650Y-96800000I100000J0D01*
G01*
D14*
%TO.C,R4*%
X63565000Y-67925000D02*
X64255000Y-67925000D01*
X74185000Y-67925000D02*
X73495000Y-67925000D01*
X73495000Y-69645000D02*
X64255000Y-69645000D01*
X64255000Y-66205000D01*
X73495000Y-66205000D01*
X73495000Y-69645000D01*
%TO.C,J7*%
X238070000Y-60030000D02*
X238070000Y-47270000D01*
X238070000Y-62630000D02*
X238070000Y-61300000D01*
X239400000Y-62630000D02*
X238070000Y-62630000D01*
X240730000Y-47270000D02*
X238070000Y-47270000D01*
X240730000Y-60030000D02*
X238070000Y-60030000D01*
X240730000Y-60030000D02*
X240730000Y-47270000D01*
D17*
%TO.C,G\u002A\u002A\u002A*%
G36*
X88851511Y-68395372D02*
G01*
X88851511Y-73692822D01*
X84099999Y-73692822D01*
X79348488Y-73692822D01*
X79348488Y-73489252D01*
X79626083Y-73489252D01*
X84118506Y-73489252D01*
X88610928Y-73489252D01*
X88610928Y-68404626D01*
X88610928Y-63319999D01*
X84118506Y-63319999D01*
X79626083Y-63319999D01*
X79626083Y-68404626D01*
X79626083Y-73489252D01*
X79348488Y-73489252D01*
X79348488Y-68404626D01*
X79348488Y-68395372D01*
X79348488Y-63097923D01*
X84099999Y-63097923D01*
X88851511Y-63097923D01*
X88851511Y-68395372D01*
G37*
G36*
X83577194Y-71780772D02*
G01*
X83577194Y-71821145D01*
X83515936Y-71826062D01*
X83465921Y-71834045D01*
X83430427Y-71849893D01*
X83406463Y-71875488D01*
X83394087Y-71902718D01*
X83391371Y-71920184D01*
X83389071Y-71953720D01*
X83387175Y-72001281D01*
X83385673Y-72060823D01*
X83384555Y-72130299D01*
X83383810Y-72207664D01*
X83383428Y-72290874D01*
X83383397Y-72377883D01*
X83383707Y-72466646D01*
X83384348Y-72555117D01*
X83385309Y-72641252D01*
X83386579Y-72723005D01*
X83388147Y-72798331D01*
X83390004Y-72865185D01*
X83392139Y-72921521D01*
X83394540Y-72965294D01*
X83397197Y-72994459D01*
X83399815Y-73006557D01*
X83423388Y-73030211D01*
X83461275Y-73046397D01*
X83510390Y-73053946D01*
X83526005Y-73054352D01*
X83577194Y-73054352D01*
X83577194Y-73100618D01*
X83577194Y-73146884D01*
X83206508Y-73146884D01*
X82835822Y-73146884D01*
X82838694Y-73112263D01*
X82841127Y-73092425D01*
X82847370Y-73081359D01*
X82862170Y-73075373D01*
X82890274Y-73070776D01*
X82892458Y-73070468D01*
X82927652Y-73064459D01*
X82960409Y-73057172D01*
X82973585Y-73053426D01*
X82985296Y-73049569D01*
X82995304Y-73045302D01*
X83003743Y-73039235D01*
X83010747Y-73029977D01*
X83016449Y-73016138D01*
X83020983Y-72996329D01*
X83024483Y-72969159D01*
X83027083Y-72933238D01*
X83028916Y-72887177D01*
X83030115Y-72829585D01*
X83030816Y-72759072D01*
X83031150Y-72674248D01*
X83031252Y-72573724D01*
X83031256Y-72456108D01*
X83031256Y-72453790D01*
X83031146Y-72330726D01*
X83030802Y-72225170D01*
X83030204Y-72136126D01*
X83029334Y-72062598D01*
X83028171Y-72003589D01*
X83026695Y-71958102D01*
X83024888Y-71925142D01*
X83022729Y-71903711D01*
X83020202Y-71892819D01*
X83005007Y-71871201D01*
X82979815Y-71854505D01*
X82941611Y-71841221D01*
X82898489Y-71831821D01*
X82836939Y-71820480D01*
X82836939Y-71780440D01*
X82836939Y-71740400D01*
X83207067Y-71740400D01*
X83577194Y-71740400D01*
X83577194Y-71780772D01*
G37*
G36*
X82624116Y-71976356D02*
G01*
X82624116Y-72193806D01*
X82583602Y-72193806D01*
X82543087Y-72193806D01*
X82527473Y-72131646D01*
X82508250Y-72065903D01*
X82486453Y-72014408D01*
X82459911Y-71972909D01*
X82429780Y-71940221D01*
X82397687Y-71913782D01*
X82363604Y-71894133D01*
X82324192Y-71880389D01*
X82276112Y-71871663D01*
X82216025Y-71867069D01*
X82149133Y-71865735D01*
X82021145Y-71865318D01*
X81998769Y-71891280D01*
X81976393Y-71917242D01*
X81976393Y-72152683D01*
X81976393Y-72388123D01*
X81999070Y-72388123D01*
X82046603Y-72382877D01*
X82096454Y-72368949D01*
X82139713Y-72349057D01*
X82150725Y-72341864D01*
X82186001Y-72306167D01*
X82215886Y-72255304D01*
X82238850Y-72192211D01*
X82247297Y-72156793D01*
X82259361Y-72096648D01*
X82302941Y-72093827D01*
X82346520Y-72091007D01*
X82346520Y-72452895D01*
X82346520Y-72814784D01*
X82302568Y-72811963D01*
X82258615Y-72809143D01*
X82252090Y-72749974D01*
X82237549Y-72671327D01*
X82212808Y-72607959D01*
X82177607Y-72559540D01*
X82131686Y-72525737D01*
X82074783Y-72506219D01*
X82058207Y-72503450D01*
X82027931Y-72499021D01*
X82002228Y-72494737D01*
X81997213Y-72493776D01*
X81976393Y-72489555D01*
X81976529Y-72737254D01*
X81976873Y-72820904D01*
X81977840Y-72887428D01*
X81979490Y-72938199D01*
X81981882Y-72974590D01*
X81985074Y-72997974D01*
X81988169Y-73008087D01*
X82011342Y-73034192D01*
X82051286Y-73053677D01*
X82107399Y-73066291D01*
X82136686Y-73069570D01*
X82207723Y-73075574D01*
X82207723Y-73120483D01*
X82207723Y-73165391D01*
X81828342Y-73165391D01*
X81448961Y-73165391D01*
X81448961Y-73119125D01*
X81449692Y-73091681D01*
X81453501Y-73077990D01*
X81462814Y-73073312D01*
X81472623Y-73072859D01*
X81513413Y-73068302D01*
X81553942Y-73056294D01*
X81586958Y-73039329D01*
X81598564Y-73029572D01*
X81620145Y-73006606D01*
X81622680Y-72479750D01*
X81623019Y-72381838D01*
X81623083Y-72288816D01*
X81622891Y-72202449D01*
X81622457Y-72124503D01*
X81621798Y-72056742D01*
X81620930Y-72000932D01*
X81619868Y-71958839D01*
X81618629Y-71932227D01*
X81617645Y-71923680D01*
X81603000Y-71893665D01*
X81575485Y-71871383D01*
X81533032Y-71855456D01*
X81506701Y-71849656D01*
X81448961Y-71838918D01*
X81448961Y-71798912D01*
X81448961Y-71758906D01*
X82036539Y-71758906D01*
X82624116Y-71758906D01*
X82624116Y-71976356D01*
G37*
G36*
X86163243Y-71729098D02*
G01*
X86262746Y-71748639D01*
X86338175Y-71774272D01*
X86423814Y-71818652D01*
X86505887Y-71876939D01*
X86580113Y-71945434D01*
X86642206Y-72020438D01*
X86666512Y-72057780D01*
X86712732Y-72152985D01*
X86745362Y-72258474D01*
X86763737Y-72371289D01*
X86767196Y-72488471D01*
X86766519Y-72503788D01*
X86759164Y-72588449D01*
X86745742Y-72662044D01*
X86724604Y-72731478D01*
X86695870Y-72799890D01*
X86640343Y-72898087D01*
X86571844Y-72983456D01*
X86491288Y-73055398D01*
X86399592Y-73113314D01*
X86297672Y-73156606D01*
X86186445Y-73184676D01*
X86089435Y-73195887D01*
X86042547Y-73197304D01*
X85993871Y-73196637D01*
X85952592Y-73194051D01*
X85946010Y-73193315D01*
X85828985Y-73170357D01*
X85721420Y-73131753D01*
X85623757Y-73077719D01*
X85536440Y-73008471D01*
X85505142Y-72977235D01*
X85448846Y-72911633D01*
X85405483Y-72846717D01*
X85370996Y-72775836D01*
X85352890Y-72727718D01*
X85323478Y-72618201D01*
X85310097Y-72505171D01*
X85310356Y-72454034D01*
X85697367Y-72454034D01*
X85698630Y-72536127D01*
X85704437Y-72636940D01*
X85714770Y-72723409D01*
X85730273Y-72799287D01*
X85751589Y-72868323D01*
X85758795Y-72887213D01*
X85785459Y-72938538D01*
X85822112Y-72987454D01*
X85864769Y-73029855D01*
X85909447Y-73061634D01*
X85942092Y-73076093D01*
X85997929Y-73087355D01*
X86058487Y-73089979D01*
X86115539Y-73083938D01*
X86142792Y-73076790D01*
X86201324Y-73047257D01*
X86251751Y-73001276D01*
X86294108Y-72938790D01*
X86328426Y-72859743D01*
X86354738Y-72764079D01*
X86367964Y-72690259D01*
X86375398Y-72619602D01*
X86379194Y-72537573D01*
X86379493Y-72449492D01*
X86376436Y-72360681D01*
X86370162Y-72276459D01*
X86360812Y-72202148D01*
X86354113Y-72166046D01*
X86328908Y-72076496D01*
X86294825Y-71998239D01*
X86252927Y-71932940D01*
X86204277Y-71882260D01*
X86151027Y-71848359D01*
X86104232Y-71833859D01*
X86049623Y-71827624D01*
X85994006Y-71829615D01*
X85944182Y-71839795D01*
X85920182Y-71849668D01*
X85862685Y-71890525D01*
X85813442Y-71947476D01*
X85772635Y-72019959D01*
X85740443Y-72107416D01*
X85717047Y-72209288D01*
X85702628Y-72325014D01*
X85697367Y-72454034D01*
X85310356Y-72454034D01*
X85310582Y-72409390D01*
X85325094Y-72289041D01*
X85354701Y-72177775D01*
X85398800Y-72076472D01*
X85456788Y-71986013D01*
X85528059Y-71907277D01*
X85612012Y-71841145D01*
X85708041Y-71788497D01*
X85747794Y-71772126D01*
X85845613Y-71743159D01*
X85950347Y-71726342D01*
X86057667Y-71721660D01*
X86163243Y-71729098D01*
G37*
G36*
X84264689Y-71759043D02*
G01*
X84356854Y-71759568D01*
X84434294Y-71760656D01*
X84498899Y-71762481D01*
X84552559Y-71765216D01*
X84597164Y-71769036D01*
X84634604Y-71774113D01*
X84666769Y-71780623D01*
X84695549Y-71788738D01*
X84722834Y-71798633D01*
X84750514Y-71810481D01*
X84759042Y-71814380D01*
X84817757Y-71848360D01*
X84869223Y-71891374D01*
X84909284Y-71939503D01*
X84928157Y-71973773D01*
X84942777Y-72020630D01*
X84951914Y-72076479D01*
X84954977Y-72133926D01*
X84951370Y-72185578D01*
X84946871Y-72206955D01*
X84921963Y-72261689D01*
X84879636Y-72310251D01*
X84819934Y-72352603D01*
X84754713Y-72384033D01*
X84704187Y-72404568D01*
X84739835Y-72416124D01*
X84816256Y-72447803D01*
X84883898Y-72489566D01*
X84940157Y-72539237D01*
X84982431Y-72594641D01*
X85002136Y-72635213D01*
X85017654Y-72698731D01*
X85021046Y-72769011D01*
X85012644Y-72839203D01*
X84992779Y-72902455D01*
X84988827Y-72910928D01*
X84946807Y-72975911D01*
X84888984Y-73032953D01*
X84816688Y-73081110D01*
X84731249Y-73119436D01*
X84668029Y-73138958D01*
X84648655Y-73143761D01*
X84629547Y-73147767D01*
X84608802Y-73151067D01*
X84584513Y-73153755D01*
X84554777Y-73155921D01*
X84517689Y-73157659D01*
X84471343Y-73159060D01*
X84413836Y-73160217D01*
X84343263Y-73161221D01*
X84257718Y-73162165D01*
X84171174Y-73162995D01*
X83751930Y-73166872D01*
X83754781Y-73122391D01*
X83757631Y-73077911D01*
X83799271Y-73070882D01*
X83850016Y-73058933D01*
X83886222Y-73041958D01*
X83910623Y-73019466D01*
X83914440Y-73014068D01*
X83917682Y-73007381D01*
X83920397Y-72997948D01*
X83922631Y-72984314D01*
X83924431Y-72965024D01*
X83925843Y-72938622D01*
X83926915Y-72903654D01*
X83927693Y-72858662D01*
X83928224Y-72802193D01*
X83928555Y-72732790D01*
X83928733Y-72648998D01*
X83928804Y-72549362D01*
X83928814Y-72459828D01*
X84317449Y-72459828D01*
X84317501Y-72708511D01*
X84317796Y-72793558D01*
X84318800Y-72862085D01*
X84320747Y-72916070D01*
X84323872Y-72957493D01*
X84328410Y-72988333D01*
X84334597Y-73010570D01*
X84342667Y-73026183D01*
X84352855Y-73037151D01*
X84356881Y-73040200D01*
X84381765Y-73049589D01*
X84417865Y-73053819D01*
X84458628Y-73052896D01*
X84497500Y-73046827D01*
X84518877Y-73040031D01*
X84568126Y-73010198D01*
X84605920Y-72966496D01*
X84632391Y-72908652D01*
X84647667Y-72836395D01*
X84651952Y-72762524D01*
X84646036Y-72679700D01*
X84627686Y-72610544D01*
X84596749Y-72554878D01*
X84553071Y-72512523D01*
X84496497Y-72483303D01*
X84426876Y-72467040D01*
X84393788Y-72464035D01*
X84317449Y-72459828D01*
X83928814Y-72459828D01*
X83928815Y-72453706D01*
X83928787Y-72372375D01*
X84316557Y-72372375D01*
X84381482Y-72366932D01*
X84421704Y-72361378D01*
X84461053Y-72352403D01*
X84486887Y-72343583D01*
X84529412Y-72319117D01*
X84560822Y-72287041D01*
X84582208Y-72245047D01*
X84594662Y-72190827D01*
X84599278Y-72122071D01*
X84599354Y-72105901D01*
X84594736Y-72029282D01*
X84580997Y-71967095D01*
X84557347Y-71917247D01*
X84522994Y-71877643D01*
X84508774Y-71866169D01*
X84478693Y-71852257D01*
X84440388Y-71845748D01*
X84400368Y-71846573D01*
X84365142Y-71854668D01*
X84343153Y-71867872D01*
X84336775Y-71874759D01*
X84331803Y-71882647D01*
X84328031Y-71893814D01*
X84325251Y-71910538D01*
X84323257Y-71935094D01*
X84321843Y-71969759D01*
X84320803Y-72016811D01*
X84319928Y-72078526D01*
X84319317Y-72130654D01*
X84316557Y-72372375D01*
X83928787Y-72372375D01*
X83928775Y-72338851D01*
X83928630Y-72241074D01*
X83928341Y-72158948D01*
X83927871Y-72091045D01*
X83927180Y-72035938D01*
X83926232Y-71992198D01*
X83924987Y-71958397D01*
X83923407Y-71933109D01*
X83921455Y-71914905D01*
X83919092Y-71902357D01*
X83916280Y-71894039D01*
X83913726Y-71889532D01*
X83886203Y-71864979D01*
X83846020Y-71848571D01*
X83797939Y-71842206D01*
X83794941Y-71842185D01*
X83753005Y-71842185D01*
X83753005Y-71800546D01*
X83753005Y-71758906D01*
X84155909Y-71758906D01*
X84264689Y-71759043D01*
G37*
G36*
X84175440Y-63667617D02*
G01*
X84267997Y-63669803D01*
X84353281Y-63673829D01*
X84427021Y-63679695D01*
X84464461Y-63684171D01*
X84689294Y-63723699D01*
X84904179Y-63777389D01*
X85108592Y-63844978D01*
X85302011Y-63926203D01*
X85483913Y-64020800D01*
X85653775Y-64128505D01*
X85811077Y-64249054D01*
X85955294Y-64382184D01*
X86049073Y-64483753D01*
X86188021Y-64655592D01*
X86313400Y-64833107D01*
X86424399Y-65014772D01*
X86520206Y-65199056D01*
X86600009Y-65384432D01*
X86662998Y-65569370D01*
X86699039Y-65708305D01*
X86709640Y-65756946D01*
X86718705Y-65802003D01*
X86726352Y-65845390D01*
X86732701Y-65889021D01*
X86737870Y-65934811D01*
X86741979Y-65984672D01*
X86745145Y-66040521D01*
X86747489Y-66104269D01*
X86749128Y-66177833D01*
X86750182Y-66263125D01*
X86750770Y-66362060D01*
X86751011Y-66476553D01*
X86751038Y-66545577D01*
X86751038Y-67059024D01*
X86991087Y-67528979D01*
X87035752Y-67616799D01*
X87078097Y-67700788D01*
X87117320Y-67779306D01*
X87152620Y-67850715D01*
X87183195Y-67913374D01*
X87208243Y-67965644D01*
X87226963Y-68005886D01*
X87238553Y-68032461D01*
X87241982Y-68042006D01*
X87248541Y-68076323D01*
X87248951Y-68106931D01*
X87241923Y-68134982D01*
X87226172Y-68161624D01*
X87200408Y-68188010D01*
X87163346Y-68215290D01*
X87113697Y-68244614D01*
X87050174Y-68277133D01*
X86971491Y-68313997D01*
X86903766Y-68344301D01*
X86857782Y-68364920D01*
X86817259Y-68383674D01*
X86785499Y-68398990D01*
X86765807Y-68409293D01*
X86761575Y-68412026D01*
X86758736Y-68417004D01*
X86756385Y-68427726D01*
X86754497Y-68445574D01*
X86753047Y-68471931D01*
X86752007Y-68508177D01*
X86751354Y-68555695D01*
X86751060Y-68615867D01*
X86751101Y-68690074D01*
X86751451Y-68779697D01*
X86752085Y-68886120D01*
X86752271Y-68913661D01*
X86752987Y-69021959D01*
X86753487Y-69113289D01*
X86753733Y-69189188D01*
X86753686Y-69251193D01*
X86753307Y-69300841D01*
X86752557Y-69339670D01*
X86751398Y-69369217D01*
X86749790Y-69391019D01*
X86747696Y-69406613D01*
X86745076Y-69417536D01*
X86741891Y-69425326D01*
X86739246Y-69429828D01*
X86711785Y-69460169D01*
X86671298Y-69485923D01*
X86615840Y-69508112D01*
X86561179Y-69523545D01*
X86518942Y-69533424D01*
X86461441Y-69546070D01*
X86391610Y-69560895D01*
X86312385Y-69577312D01*
X86226702Y-69594735D01*
X86137495Y-69612574D01*
X86047700Y-69630243D01*
X85960252Y-69647155D01*
X85878086Y-69662721D01*
X85804137Y-69676355D01*
X85747067Y-69686482D01*
X85668612Y-69701062D01*
X85606749Y-69715440D01*
X85559626Y-69730901D01*
X85525387Y-69748730D01*
X85502179Y-69770208D01*
X85488147Y-69796622D01*
X85481438Y-69829254D01*
X85480198Y-69869388D01*
X85480238Y-69871256D01*
X85482461Y-69897416D01*
X85488281Y-69941188D01*
X85497607Y-70002046D01*
X85510348Y-70079468D01*
X85526412Y-70172928D01*
X85545708Y-70281904D01*
X85568147Y-70405870D01*
X85593636Y-70544302D01*
X85622084Y-70696678D01*
X85641231Y-70798253D01*
X85655904Y-70877034D01*
X85669390Y-70951762D01*
X85681298Y-71020086D01*
X85691234Y-71079651D01*
X85698807Y-71128106D01*
X85703623Y-71163099D01*
X85705291Y-71182260D01*
X85700730Y-71227474D01*
X85685871Y-71260114D01*
X85658468Y-71284269D01*
X85645209Y-71291620D01*
X85640077Y-71294056D01*
X85634282Y-71296269D01*
X85626954Y-71298271D01*
X85617220Y-71300074D01*
X85604208Y-71301688D01*
X85587047Y-71303126D01*
X85564866Y-71304400D01*
X85536791Y-71305520D01*
X85501953Y-71306498D01*
X85459478Y-71307346D01*
X85408496Y-71308075D01*
X85348134Y-71308697D01*
X85277521Y-71309223D01*
X85195786Y-71309665D01*
X85102055Y-71310035D01*
X84995459Y-71310344D01*
X84875124Y-71310603D01*
X84740180Y-71310824D01*
X84589754Y-71311018D01*
X84422975Y-71311198D01*
X84238971Y-71311375D01*
X84146265Y-71311460D01*
X83982715Y-71311568D01*
X83823900Y-71311592D01*
X83670836Y-71311536D01*
X83524537Y-71311404D01*
X83386019Y-71311199D01*
X83256296Y-71310924D01*
X83136383Y-71310583D01*
X83027295Y-71310180D01*
X82930047Y-71309718D01*
X82845654Y-71309201D01*
X82775130Y-71308632D01*
X82719490Y-71308015D01*
X82679750Y-71307353D01*
X82656925Y-71306650D01*
X82651876Y-71306233D01*
X82616905Y-71296883D01*
X82589742Y-71283440D01*
X82584363Y-71278167D01*
X84123078Y-71278167D01*
X84867313Y-71275640D01*
X85002017Y-71275176D01*
X85119449Y-71274737D01*
X85220842Y-71274288D01*
X85307429Y-71273792D01*
X85380443Y-71273216D01*
X85441119Y-71272524D01*
X85490690Y-71271681D01*
X85530389Y-71270651D01*
X85561449Y-71269400D01*
X85585106Y-71267893D01*
X85602590Y-71266093D01*
X85615138Y-71263966D01*
X85623981Y-71261477D01*
X85630354Y-71258591D01*
X85635489Y-71255272D01*
X85637668Y-71253671D01*
X85649113Y-71243352D01*
X85657649Y-71230373D01*
X85663174Y-71212968D01*
X85665584Y-71189373D01*
X85664775Y-71157822D01*
X85660646Y-71116551D01*
X85653092Y-71063795D01*
X85642011Y-70997790D01*
X85627299Y-70916769D01*
X85613747Y-70844707D01*
X85598131Y-70762043D01*
X85581835Y-70675121D01*
X85565672Y-70588322D01*
X85550454Y-70506026D01*
X85536995Y-70432615D01*
X85526107Y-70372469D01*
X85525003Y-70366301D01*
X85512958Y-70298936D01*
X85500167Y-70227428D01*
X85487677Y-70157628D01*
X85476534Y-70095390D01*
X85469131Y-70054071D01*
X85455496Y-69968971D01*
X85448204Y-69899289D01*
X85447408Y-69843004D01*
X85453259Y-69798092D01*
X85465910Y-69762533D01*
X85485513Y-69734304D01*
X85493851Y-69725960D01*
X85514729Y-69709747D01*
X85540471Y-69696316D01*
X85574216Y-69684643D01*
X85619107Y-69673708D01*
X85678284Y-69662490D01*
X85700801Y-69658665D01*
X85753547Y-69649516D01*
X85817845Y-69637764D01*
X85891229Y-69623912D01*
X85971230Y-69608458D01*
X86055385Y-69591905D01*
X86141224Y-69574751D01*
X86226283Y-69557499D01*
X86308095Y-69540647D01*
X86384193Y-69524697D01*
X86452111Y-69510150D01*
X86509383Y-69497505D01*
X86553541Y-69487263D01*
X86582120Y-69479925D01*
X86583218Y-69479607D01*
X86635183Y-69461933D01*
X86673913Y-69441605D01*
X86700890Y-69415964D01*
X86717595Y-69382349D01*
X86725509Y-69338102D01*
X86726113Y-69280561D01*
X86722810Y-69228894D01*
X86720888Y-69196214D01*
X86719111Y-69147801D01*
X86717529Y-69086430D01*
X86716194Y-69014875D01*
X86715157Y-68935910D01*
X86714468Y-68852309D01*
X86714180Y-68766845D01*
X86714175Y-68759944D01*
X86714025Y-68393515D01*
X86771857Y-68364625D01*
X86803165Y-68349473D01*
X86845849Y-68329479D01*
X86894335Y-68307225D01*
X86943049Y-68285295D01*
X86943800Y-68284961D01*
X87027102Y-68246660D01*
X87093457Y-68213371D01*
X87143611Y-68184676D01*
X87178309Y-68160152D01*
X87195574Y-68143085D01*
X87203401Y-68132303D01*
X87209129Y-68121116D01*
X87212248Y-68108238D01*
X87212249Y-68092386D01*
X87208622Y-68072273D01*
X87200858Y-68046616D01*
X87188445Y-68014129D01*
X87170876Y-67973527D01*
X87147640Y-67923526D01*
X87118227Y-67862841D01*
X87082128Y-67790187D01*
X87038832Y-67704279D01*
X86987830Y-67603832D01*
X86959741Y-67548660D01*
X86714025Y-67066251D01*
X86714025Y-66533712D01*
X86713958Y-66411428D01*
X86713678Y-66305794D01*
X86713071Y-66214955D01*
X86712019Y-66137054D01*
X86710408Y-66070237D01*
X86708119Y-66012647D01*
X86705038Y-65962428D01*
X86701049Y-65917724D01*
X86696035Y-65876681D01*
X86689880Y-65837441D01*
X86682467Y-65798150D01*
X86673682Y-65756951D01*
X86663408Y-65711989D01*
X86662319Y-65707321D01*
X86609040Y-65517706D01*
X86537755Y-65327431D01*
X86448893Y-65137460D01*
X86342881Y-64948758D01*
X86284134Y-64856028D01*
X86160075Y-64679903D01*
X86030361Y-64520749D01*
X85893772Y-64377571D01*
X85749090Y-64249372D01*
X85595094Y-64135158D01*
X85430565Y-64033933D01*
X85254285Y-63944701D01*
X85078459Y-63871503D01*
X84963212Y-63831920D01*
X84837876Y-63795941D01*
X84706752Y-63764405D01*
X84574141Y-63738150D01*
X84444342Y-63718015D01*
X84321655Y-63704840D01*
X84210381Y-63699463D01*
X84196177Y-63699380D01*
X84123132Y-63699380D01*
X84123132Y-64069507D01*
X84123132Y-64439635D01*
X84165136Y-64439635D01*
X84193341Y-64440646D01*
X84233116Y-64443351D01*
X84277659Y-64447254D01*
X84296994Y-64449221D01*
X84483038Y-64478056D01*
X84662319Y-64523815D01*
X84834010Y-64585923D01*
X84997289Y-64663802D01*
X85151332Y-64756876D01*
X85295314Y-64864569D01*
X85428410Y-64986303D01*
X85549797Y-65121503D01*
X85658651Y-65269592D01*
X85754147Y-65429993D01*
X85784789Y-65490010D01*
X85855932Y-65653830D01*
X85909926Y-65820200D01*
X85947228Y-65991128D01*
X85968292Y-66168621D01*
X85973770Y-66324255D01*
X85964810Y-66512760D01*
X85938039Y-66696418D01*
X85893618Y-66874753D01*
X85831709Y-67047285D01*
X85752473Y-67213536D01*
X85656073Y-67373028D01*
X85586424Y-67470054D01*
X85551333Y-67512822D01*
X85506038Y-67563406D01*
X85454515Y-67617726D01*
X85400738Y-67671703D01*
X85348682Y-67721260D01*
X85302323Y-67762318D01*
X85298287Y-67765688D01*
X85158644Y-67870284D01*
X85008591Y-67961621D01*
X84850395Y-68038800D01*
X84686323Y-68100921D01*
X84518642Y-68147085D01*
X84349620Y-68176392D01*
X84238797Y-68186044D01*
X84127759Y-68191802D01*
X84125419Y-69734985D01*
X84123078Y-71278167D01*
X82584363Y-71278167D01*
X82570029Y-71264117D01*
X82557409Y-71237129D01*
X82551524Y-71200688D01*
X82552018Y-71153010D01*
X82558533Y-71092308D01*
X82570711Y-71016796D01*
X82581932Y-70956657D01*
X82615020Y-70784140D01*
X82645017Y-70624920D01*
X82671834Y-70479525D01*
X82695381Y-70348489D01*
X82715566Y-70232342D01*
X82732300Y-70131616D01*
X82745492Y-70046842D01*
X82755052Y-69978552D01*
X82760889Y-69927276D01*
X82762913Y-69893547D01*
X82762914Y-69892998D01*
X82757913Y-69834623D01*
X82741947Y-69788392D01*
X82713566Y-69752866D01*
X82671322Y-69726605D01*
X82613767Y-69708170D01*
X82568597Y-69699867D01*
X82519324Y-69692076D01*
X82458202Y-69681500D01*
X82387417Y-69668590D01*
X82309153Y-69653795D01*
X82225594Y-69637566D01*
X82138926Y-69620353D01*
X82051332Y-69602606D01*
X81964998Y-69584775D01*
X81882108Y-69567311D01*
X81804847Y-69550662D01*
X81735398Y-69535280D01*
X81675948Y-69521615D01*
X81628680Y-69510116D01*
X81595779Y-69501234D01*
X81581843Y-69496559D01*
X81532127Y-69467923D01*
X81498276Y-69429883D01*
X81479853Y-69381804D01*
X81475903Y-69341467D01*
X81475973Y-69322409D01*
X81476290Y-69286925D01*
X81476828Y-69237094D01*
X81477562Y-69174992D01*
X81478468Y-69102699D01*
X81479519Y-69022293D01*
X81480691Y-68935852D01*
X81481813Y-68855663D01*
X81488019Y-68418395D01*
X81378271Y-68366658D01*
X81326475Y-68342242D01*
X81270681Y-68315941D01*
X81218232Y-68291217D01*
X81182708Y-68274472D01*
X81115818Y-68241503D01*
X81063453Y-68211230D01*
X81025078Y-68181496D01*
X81000158Y-68150144D01*
X80988156Y-68115019D01*
X80988538Y-68073962D01*
X81000769Y-68024818D01*
X81024312Y-67965429D01*
X81058632Y-67893639D01*
X81078493Y-67854692D01*
X81102662Y-67807652D01*
X81133504Y-67747267D01*
X81169397Y-67676735D01*
X81208716Y-67599255D01*
X81249840Y-67518023D01*
X81291145Y-67436238D01*
X81324198Y-67370633D01*
X81485974Y-67049136D01*
X81485974Y-66526754D01*
X81486076Y-66402359D01*
X81486320Y-66332887D01*
X82276495Y-66332887D01*
X82287924Y-66510865D01*
X82317094Y-66688427D01*
X82361439Y-66855433D01*
X82425353Y-67027144D01*
X82505244Y-67190289D01*
X82600218Y-67343912D01*
X82709383Y-67487057D01*
X82831846Y-67618768D01*
X82966714Y-67738088D01*
X83113094Y-67844061D01*
X83270092Y-67935730D01*
X83436816Y-68012140D01*
X83444317Y-68015119D01*
X83559669Y-68054967D01*
X83686257Y-68088736D01*
X83817419Y-68115052D01*
X83946493Y-68132541D01*
X84046794Y-68139354D01*
X84095373Y-68140910D01*
X84095373Y-66299525D01*
X84095373Y-64458141D01*
X84054207Y-64458141D01*
X84009890Y-64460264D01*
X83952533Y-64466141D01*
X83887052Y-64475031D01*
X83818360Y-64486197D01*
X83751371Y-64498897D01*
X83691000Y-64512394D01*
X83686972Y-64513394D01*
X83511247Y-64566174D01*
X83345015Y-64634389D01*
X83187525Y-64718481D01*
X83038024Y-64818889D01*
X82895759Y-64936055D01*
X82789608Y-65039074D01*
X82669353Y-65176881D01*
X82564562Y-65323939D01*
X82475519Y-65479040D01*
X82402508Y-65640975D01*
X82345816Y-65808536D01*
X82305727Y-65980514D01*
X82282525Y-66155700D01*
X82276495Y-66332887D01*
X81486320Y-66332887D01*
X81486454Y-66294599D01*
X81487214Y-66201603D01*
X81488464Y-66121500D01*
X81490311Y-66052419D01*
X81492861Y-65992490D01*
X81496222Y-65939841D01*
X81500501Y-65892603D01*
X81505805Y-65848904D01*
X81512240Y-65806873D01*
X81519915Y-65764640D01*
X81528935Y-65720333D01*
X81533265Y-65700128D01*
X81583414Y-65509927D01*
X81651126Y-65319612D01*
X81735538Y-65130792D01*
X81835786Y-64945073D01*
X81951007Y-64764065D01*
X82080338Y-64589374D01*
X82213682Y-64432717D01*
X82314419Y-64331375D01*
X82429859Y-64231753D01*
X82556232Y-64136618D01*
X82689762Y-64048741D01*
X82826679Y-63970891D01*
X82878579Y-63944627D01*
X83055627Y-63865577D01*
X83236436Y-63799937D01*
X83424286Y-63746728D01*
X83622461Y-63704974D01*
X83753005Y-63684263D01*
X83817878Y-63677259D01*
X83896829Y-63672091D01*
X83985586Y-63668762D01*
X84079880Y-63667270D01*
X84175440Y-63667617D01*
G37*
D14*
%TO.C,D2*%
X207447500Y-66370000D02*
X208467500Y-66370000D01*
X209247500Y-64900000D02*
X209247500Y-67840000D01*
X209367500Y-64900000D02*
X209367500Y-67840000D01*
X209487500Y-64900000D02*
X209487500Y-67840000D01*
X214927500Y-66370000D02*
X213907500Y-66370000D01*
X208467500Y-64900000D02*
X213907500Y-64900000D01*
X213907500Y-67840000D01*
X208467500Y-67840000D01*
X208467500Y-64900000D01*
%TO.C,R5*%
X220377500Y-68620000D02*
X221067500Y-68620000D01*
X230997500Y-68620000D02*
X230307500Y-68620000D01*
X230307500Y-70340000D02*
X221067500Y-70340000D01*
X221067500Y-66900000D01*
X230307500Y-66900000D01*
X230307500Y-70340000D01*
%TO.C,R6*%
X220457500Y-63870000D02*
X221147500Y-63870000D01*
X231077500Y-63870000D02*
X230387500Y-63870000D01*
X221147500Y-62150000D02*
X230387500Y-62150000D01*
X230387500Y-65590000D01*
X221147500Y-65590000D01*
X221147500Y-62150000D01*
%TO.C,C1*%
X66897500Y-54500000D02*
X69637500Y-54500000D01*
X66897500Y-59740000D02*
X66897500Y-54500000D01*
X69637500Y-54500000D02*
X69637500Y-59740000D01*
X69637500Y-59740000D02*
X66897500Y-59740000D01*
%TD*%
M02*
