%TF.GenerationSoftware,KiCad,Pcbnew,9.0.4*%
%TF.CreationDate,2025-11-06T18:53:41+07:00*%
%TF.ProjectId,RIP_ExtensionBoard,5249505f-4578-4746-956e-73696f6e426f,1*%
%TF.SameCoordinates,Original*%
%TF.FileFunction,Drillmap*%
%TF.FilePolarity,Positive*%
%FSLAX45Y45*%
G04 Gerber Fmt 4.5, Leading zero omitted, Abs format (unit mm)*
G04 Created by KiCad (PCBNEW 9.0.4) date 2025-11-06 18:53:41*
%MOMM*%
%LPD*%
G01*
G04 APERTURE LIST*
%ADD10C,0.050000*%
%ADD11C,0.200000*%
%ADD12C,0.300000*%
%ADD13C,0.320000*%
G04 APERTURE END LIST*
D10*
X5101750Y-4412000D02*
X25101750Y-4412000D01*
X25101750Y-15212000D01*
X5101750Y-15212000D01*
X5101750Y-4412000D01*
D11*
D12*
X5276750Y-4587000D02*
X5576750Y-4887000D01*
X5576750Y-4587000D02*
X5276750Y-4887000D01*
X5301750Y-14737000D02*
X5601750Y-15037000D01*
X5601750Y-14737000D02*
X5301750Y-15037000D01*
X24626750Y-4587000D02*
X24926750Y-4887000D01*
X24926750Y-4587000D02*
X24626750Y-4887000D01*
X24626750Y-14737000D02*
X24926750Y-15037000D01*
X24926750Y-14737000D02*
X24626750Y-15037000D01*
D13*
X12812735Y-9299000D02*
G75*
G02*
X12492735Y-9299000I-160000J0D01*
G01*
X12492735Y-9299000D02*
G75*
G02*
X12812735Y-9299000I160000J0D01*
G01*
X16114735Y-14506000D02*
G75*
G02*
X15794735Y-14506000I-160000J0D01*
G01*
X15794735Y-14506000D02*
G75*
G02*
X16114735Y-14506000I160000J0D01*
G01*
X17638735Y-9426000D02*
G75*
G02*
X17318735Y-9426000I-160000J0D01*
G01*
X17318735Y-9426000D02*
G75*
G02*
X17638735Y-9426000I160000J0D01*
G01*
D11*
X5360027Y-15525984D02*
X5360027Y-15325984D01*
X5360027Y-15325984D02*
X5407646Y-15325984D01*
X5407646Y-15325984D02*
X5436217Y-15335508D01*
X5436217Y-15335508D02*
X5455265Y-15354555D01*
X5455265Y-15354555D02*
X5464789Y-15373603D01*
X5464789Y-15373603D02*
X5474313Y-15411698D01*
X5474313Y-15411698D02*
X5474313Y-15440269D01*
X5474313Y-15440269D02*
X5464789Y-15478365D01*
X5464789Y-15478365D02*
X5455265Y-15497412D01*
X5455265Y-15497412D02*
X5436217Y-15516460D01*
X5436217Y-15516460D02*
X5407646Y-15525984D01*
X5407646Y-15525984D02*
X5360027Y-15525984D01*
X5560027Y-15525984D02*
X5560027Y-15392650D01*
X5560027Y-15430746D02*
X5569551Y-15411698D01*
X5569551Y-15411698D02*
X5579074Y-15402174D01*
X5579074Y-15402174D02*
X5598122Y-15392650D01*
X5598122Y-15392650D02*
X5617170Y-15392650D01*
X5683836Y-15525984D02*
X5683836Y-15392650D01*
X5683836Y-15325984D02*
X5674312Y-15335508D01*
X5674312Y-15335508D02*
X5683836Y-15345031D01*
X5683836Y-15345031D02*
X5693360Y-15335508D01*
X5693360Y-15335508D02*
X5683836Y-15325984D01*
X5683836Y-15325984D02*
X5683836Y-15345031D01*
X5807646Y-15525984D02*
X5788598Y-15516460D01*
X5788598Y-15516460D02*
X5779074Y-15497412D01*
X5779074Y-15497412D02*
X5779074Y-15325984D01*
X5912408Y-15525984D02*
X5893360Y-15516460D01*
X5893360Y-15516460D02*
X5883836Y-15497412D01*
X5883836Y-15497412D02*
X5883836Y-15325984D01*
X6140979Y-15525984D02*
X6140979Y-15325984D01*
X6140979Y-15325984D02*
X6207646Y-15468841D01*
X6207646Y-15468841D02*
X6274312Y-15325984D01*
X6274312Y-15325984D02*
X6274312Y-15525984D01*
X6455265Y-15525984D02*
X6455265Y-15421222D01*
X6455265Y-15421222D02*
X6445741Y-15402174D01*
X6445741Y-15402174D02*
X6426693Y-15392650D01*
X6426693Y-15392650D02*
X6388598Y-15392650D01*
X6388598Y-15392650D02*
X6369551Y-15402174D01*
X6455265Y-15516460D02*
X6436217Y-15525984D01*
X6436217Y-15525984D02*
X6388598Y-15525984D01*
X6388598Y-15525984D02*
X6369551Y-15516460D01*
X6369551Y-15516460D02*
X6360027Y-15497412D01*
X6360027Y-15497412D02*
X6360027Y-15478365D01*
X6360027Y-15478365D02*
X6369551Y-15459317D01*
X6369551Y-15459317D02*
X6388598Y-15449793D01*
X6388598Y-15449793D02*
X6436217Y-15449793D01*
X6436217Y-15449793D02*
X6455265Y-15440269D01*
X6550503Y-15392650D02*
X6550503Y-15592650D01*
X6550503Y-15402174D02*
X6569551Y-15392650D01*
X6569551Y-15392650D02*
X6607646Y-15392650D01*
X6607646Y-15392650D02*
X6626693Y-15402174D01*
X6626693Y-15402174D02*
X6636217Y-15411698D01*
X6636217Y-15411698D02*
X6645741Y-15430746D01*
X6645741Y-15430746D02*
X6645741Y-15487888D01*
X6645741Y-15487888D02*
X6636217Y-15506936D01*
X6636217Y-15506936D02*
X6626693Y-15516460D01*
X6626693Y-15516460D02*
X6607646Y-15525984D01*
X6607646Y-15525984D02*
X6569551Y-15525984D01*
X6569551Y-15525984D02*
X6550503Y-15516460D01*
X6731455Y-15506936D02*
X6740979Y-15516460D01*
X6740979Y-15516460D02*
X6731455Y-15525984D01*
X6731455Y-15525984D02*
X6721932Y-15516460D01*
X6721932Y-15516460D02*
X6731455Y-15506936D01*
X6731455Y-15506936D02*
X6731455Y-15525984D01*
X6731455Y-15402174D02*
X6740979Y-15411698D01*
X6740979Y-15411698D02*
X6731455Y-15421222D01*
X6731455Y-15421222D02*
X6721932Y-15411698D01*
X6721932Y-15411698D02*
X6731455Y-15402174D01*
X6731455Y-15402174D02*
X6731455Y-15421222D01*
X4899250Y-15754500D02*
X5099250Y-15954500D01*
X5099250Y-15754500D02*
X4899250Y-15954500D01*
X5340979Y-15745984D02*
X5464789Y-15745984D01*
X5464789Y-15745984D02*
X5398122Y-15822174D01*
X5398122Y-15822174D02*
X5426694Y-15822174D01*
X5426694Y-15822174D02*
X5445741Y-15831698D01*
X5445741Y-15831698D02*
X5455265Y-15841222D01*
X5455265Y-15841222D02*
X5464789Y-15860269D01*
X5464789Y-15860269D02*
X5464789Y-15907888D01*
X5464789Y-15907888D02*
X5455265Y-15926936D01*
X5455265Y-15926936D02*
X5445741Y-15936460D01*
X5445741Y-15936460D02*
X5426694Y-15945984D01*
X5426694Y-15945984D02*
X5369551Y-15945984D01*
X5369551Y-15945984D02*
X5350503Y-15936460D01*
X5350503Y-15936460D02*
X5340979Y-15926936D01*
X5550503Y-15926936D02*
X5560027Y-15936460D01*
X5560027Y-15936460D02*
X5550503Y-15945984D01*
X5550503Y-15945984D02*
X5540979Y-15936460D01*
X5540979Y-15936460D02*
X5550503Y-15926936D01*
X5550503Y-15926936D02*
X5550503Y-15945984D01*
X5683836Y-15745984D02*
X5702884Y-15745984D01*
X5702884Y-15745984D02*
X5721932Y-15755508D01*
X5721932Y-15755508D02*
X5731455Y-15765031D01*
X5731455Y-15765031D02*
X5740979Y-15784079D01*
X5740979Y-15784079D02*
X5750503Y-15822174D01*
X5750503Y-15822174D02*
X5750503Y-15869793D01*
X5750503Y-15869793D02*
X5740979Y-15907888D01*
X5740979Y-15907888D02*
X5731455Y-15926936D01*
X5731455Y-15926936D02*
X5721932Y-15936460D01*
X5721932Y-15936460D02*
X5702884Y-15945984D01*
X5702884Y-15945984D02*
X5683836Y-15945984D01*
X5683836Y-15945984D02*
X5664789Y-15936460D01*
X5664789Y-15936460D02*
X5655265Y-15926936D01*
X5655265Y-15926936D02*
X5645741Y-15907888D01*
X5645741Y-15907888D02*
X5636217Y-15869793D01*
X5636217Y-15869793D02*
X5636217Y-15822174D01*
X5636217Y-15822174D02*
X5645741Y-15784079D01*
X5645741Y-15784079D02*
X5655265Y-15765031D01*
X5655265Y-15765031D02*
X5664789Y-15755508D01*
X5664789Y-15755508D02*
X5683836Y-15745984D01*
X5874312Y-15745984D02*
X5893360Y-15745984D01*
X5893360Y-15745984D02*
X5912408Y-15755508D01*
X5912408Y-15755508D02*
X5921932Y-15765031D01*
X5921932Y-15765031D02*
X5931455Y-15784079D01*
X5931455Y-15784079D02*
X5940979Y-15822174D01*
X5940979Y-15822174D02*
X5940979Y-15869793D01*
X5940979Y-15869793D02*
X5931455Y-15907888D01*
X5931455Y-15907888D02*
X5921932Y-15926936D01*
X5921932Y-15926936D02*
X5912408Y-15936460D01*
X5912408Y-15936460D02*
X5893360Y-15945984D01*
X5893360Y-15945984D02*
X5874312Y-15945984D01*
X5874312Y-15945984D02*
X5855265Y-15936460D01*
X5855265Y-15936460D02*
X5845741Y-15926936D01*
X5845741Y-15926936D02*
X5836217Y-15907888D01*
X5836217Y-15907888D02*
X5826693Y-15869793D01*
X5826693Y-15869793D02*
X5826693Y-15822174D01*
X5826693Y-15822174D02*
X5836217Y-15784079D01*
X5836217Y-15784079D02*
X5845741Y-15765031D01*
X5845741Y-15765031D02*
X5855265Y-15755508D01*
X5855265Y-15755508D02*
X5874312Y-15745984D01*
X6064789Y-15745984D02*
X6083836Y-15745984D01*
X6083836Y-15745984D02*
X6102884Y-15755508D01*
X6102884Y-15755508D02*
X6112408Y-15765031D01*
X6112408Y-15765031D02*
X6121932Y-15784079D01*
X6121932Y-15784079D02*
X6131455Y-15822174D01*
X6131455Y-15822174D02*
X6131455Y-15869793D01*
X6131455Y-15869793D02*
X6121932Y-15907888D01*
X6121932Y-15907888D02*
X6112408Y-15926936D01*
X6112408Y-15926936D02*
X6102884Y-15936460D01*
X6102884Y-15936460D02*
X6083836Y-15945984D01*
X6083836Y-15945984D02*
X6064789Y-15945984D01*
X6064789Y-15945984D02*
X6045741Y-15936460D01*
X6045741Y-15936460D02*
X6036217Y-15926936D01*
X6036217Y-15926936D02*
X6026693Y-15907888D01*
X6026693Y-15907888D02*
X6017170Y-15869793D01*
X6017170Y-15869793D02*
X6017170Y-15822174D01*
X6017170Y-15822174D02*
X6026693Y-15784079D01*
X6026693Y-15784079D02*
X6036217Y-15765031D01*
X6036217Y-15765031D02*
X6045741Y-15755508D01*
X6045741Y-15755508D02*
X6064789Y-15745984D01*
X6217170Y-15945984D02*
X6217170Y-15812650D01*
X6217170Y-15831698D02*
X6226693Y-15822174D01*
X6226693Y-15822174D02*
X6245741Y-15812650D01*
X6245741Y-15812650D02*
X6274313Y-15812650D01*
X6274313Y-15812650D02*
X6293360Y-15822174D01*
X6293360Y-15822174D02*
X6302884Y-15841222D01*
X6302884Y-15841222D02*
X6302884Y-15945984D01*
X6302884Y-15841222D02*
X6312408Y-15822174D01*
X6312408Y-15822174D02*
X6331455Y-15812650D01*
X6331455Y-15812650D02*
X6360027Y-15812650D01*
X6360027Y-15812650D02*
X6379074Y-15822174D01*
X6379074Y-15822174D02*
X6388598Y-15841222D01*
X6388598Y-15841222D02*
X6388598Y-15945984D01*
X6483836Y-15945984D02*
X6483836Y-15812650D01*
X6483836Y-15831698D02*
X6493360Y-15822174D01*
X6493360Y-15822174D02*
X6512408Y-15812650D01*
X6512408Y-15812650D02*
X6540979Y-15812650D01*
X6540979Y-15812650D02*
X6560027Y-15822174D01*
X6560027Y-15822174D02*
X6569551Y-15841222D01*
X6569551Y-15841222D02*
X6569551Y-15945984D01*
X6569551Y-15841222D02*
X6579074Y-15822174D01*
X6579074Y-15822174D02*
X6598122Y-15812650D01*
X6598122Y-15812650D02*
X6626693Y-15812650D01*
X6626693Y-15812650D02*
X6645741Y-15822174D01*
X6645741Y-15822174D02*
X6655265Y-15841222D01*
X6655265Y-15841222D02*
X6655265Y-15945984D01*
X7045741Y-15736460D02*
X6874313Y-15993603D01*
X7302884Y-15745984D02*
X7321932Y-15745984D01*
X7321932Y-15745984D02*
X7340979Y-15755508D01*
X7340979Y-15755508D02*
X7350503Y-15765031D01*
X7350503Y-15765031D02*
X7360027Y-15784079D01*
X7360027Y-15784079D02*
X7369551Y-15822174D01*
X7369551Y-15822174D02*
X7369551Y-15869793D01*
X7369551Y-15869793D02*
X7360027Y-15907888D01*
X7360027Y-15907888D02*
X7350503Y-15926936D01*
X7350503Y-15926936D02*
X7340979Y-15936460D01*
X7340979Y-15936460D02*
X7321932Y-15945984D01*
X7321932Y-15945984D02*
X7302884Y-15945984D01*
X7302884Y-15945984D02*
X7283836Y-15936460D01*
X7283836Y-15936460D02*
X7274313Y-15926936D01*
X7274313Y-15926936D02*
X7264789Y-15907888D01*
X7264789Y-15907888D02*
X7255265Y-15869793D01*
X7255265Y-15869793D02*
X7255265Y-15822174D01*
X7255265Y-15822174D02*
X7264789Y-15784079D01*
X7264789Y-15784079D02*
X7274313Y-15765031D01*
X7274313Y-15765031D02*
X7283836Y-15755508D01*
X7283836Y-15755508D02*
X7302884Y-15745984D01*
X7455265Y-15926936D02*
X7464789Y-15936460D01*
X7464789Y-15936460D02*
X7455265Y-15945984D01*
X7455265Y-15945984D02*
X7445741Y-15936460D01*
X7445741Y-15936460D02*
X7455265Y-15926936D01*
X7455265Y-15926936D02*
X7455265Y-15945984D01*
X7655265Y-15945984D02*
X7540979Y-15945984D01*
X7598122Y-15945984D02*
X7598122Y-15745984D01*
X7598122Y-15745984D02*
X7579075Y-15774555D01*
X7579075Y-15774555D02*
X7560027Y-15793603D01*
X7560027Y-15793603D02*
X7540979Y-15803127D01*
X7845741Y-15945984D02*
X7731456Y-15945984D01*
X7788598Y-15945984D02*
X7788598Y-15745984D01*
X7788598Y-15745984D02*
X7769551Y-15774555D01*
X7769551Y-15774555D02*
X7750503Y-15793603D01*
X7750503Y-15793603D02*
X7731456Y-15803127D01*
X7960027Y-15831698D02*
X7940979Y-15822174D01*
X7940979Y-15822174D02*
X7931456Y-15812650D01*
X7931456Y-15812650D02*
X7921932Y-15793603D01*
X7921932Y-15793603D02*
X7921932Y-15784079D01*
X7921932Y-15784079D02*
X7931456Y-15765031D01*
X7931456Y-15765031D02*
X7940979Y-15755508D01*
X7940979Y-15755508D02*
X7960027Y-15745984D01*
X7960027Y-15745984D02*
X7998122Y-15745984D01*
X7998122Y-15745984D02*
X8017170Y-15755508D01*
X8017170Y-15755508D02*
X8026694Y-15765031D01*
X8026694Y-15765031D02*
X8036217Y-15784079D01*
X8036217Y-15784079D02*
X8036217Y-15793603D01*
X8036217Y-15793603D02*
X8026694Y-15812650D01*
X8026694Y-15812650D02*
X8017170Y-15822174D01*
X8017170Y-15822174D02*
X7998122Y-15831698D01*
X7998122Y-15831698D02*
X7960027Y-15831698D01*
X7960027Y-15831698D02*
X7940979Y-15841222D01*
X7940979Y-15841222D02*
X7931456Y-15850746D01*
X7931456Y-15850746D02*
X7921932Y-15869793D01*
X7921932Y-15869793D02*
X7921932Y-15907888D01*
X7921932Y-15907888D02*
X7931456Y-15926936D01*
X7931456Y-15926936D02*
X7940979Y-15936460D01*
X7940979Y-15936460D02*
X7960027Y-15945984D01*
X7960027Y-15945984D02*
X7998122Y-15945984D01*
X7998122Y-15945984D02*
X8017170Y-15936460D01*
X8017170Y-15936460D02*
X8026694Y-15926936D01*
X8026694Y-15926936D02*
X8036217Y-15907888D01*
X8036217Y-15907888D02*
X8036217Y-15869793D01*
X8036217Y-15869793D02*
X8026694Y-15850746D01*
X8026694Y-15850746D02*
X8017170Y-15841222D01*
X8017170Y-15841222D02*
X7998122Y-15831698D01*
X8226694Y-15945984D02*
X8112408Y-15945984D01*
X8169551Y-15945984D02*
X8169551Y-15745984D01*
X8169551Y-15745984D02*
X8150503Y-15774555D01*
X8150503Y-15774555D02*
X8131456Y-15793603D01*
X8131456Y-15793603D02*
X8112408Y-15803127D01*
X8302884Y-15745984D02*
X8302884Y-15784079D01*
X8379075Y-15745984D02*
X8379075Y-15784079D01*
X8674313Y-16022174D02*
X8664789Y-16012650D01*
X8664789Y-16012650D02*
X8645741Y-15984079D01*
X8645741Y-15984079D02*
X8636218Y-15965031D01*
X8636218Y-15965031D02*
X8626694Y-15936460D01*
X8626694Y-15936460D02*
X8617170Y-15888841D01*
X8617170Y-15888841D02*
X8617170Y-15850746D01*
X8617170Y-15850746D02*
X8626694Y-15803127D01*
X8626694Y-15803127D02*
X8636218Y-15774555D01*
X8636218Y-15774555D02*
X8645741Y-15755508D01*
X8645741Y-15755508D02*
X8664789Y-15726936D01*
X8664789Y-15726936D02*
X8674313Y-15717412D01*
X8836218Y-15812650D02*
X8836218Y-15945984D01*
X8788599Y-15736460D02*
X8740980Y-15879317D01*
X8740980Y-15879317D02*
X8864789Y-15879317D01*
X9093361Y-15945984D02*
X9093361Y-15745984D01*
X9179075Y-15945984D02*
X9179075Y-15841222D01*
X9179075Y-15841222D02*
X9169551Y-15822174D01*
X9169551Y-15822174D02*
X9150503Y-15812650D01*
X9150503Y-15812650D02*
X9121932Y-15812650D01*
X9121932Y-15812650D02*
X9102884Y-15822174D01*
X9102884Y-15822174D02*
X9093361Y-15831698D01*
X9302884Y-15945984D02*
X9283837Y-15936460D01*
X9283837Y-15936460D02*
X9274313Y-15926936D01*
X9274313Y-15926936D02*
X9264789Y-15907888D01*
X9264789Y-15907888D02*
X9264789Y-15850746D01*
X9264789Y-15850746D02*
X9274313Y-15831698D01*
X9274313Y-15831698D02*
X9283837Y-15822174D01*
X9283837Y-15822174D02*
X9302884Y-15812650D01*
X9302884Y-15812650D02*
X9331456Y-15812650D01*
X9331456Y-15812650D02*
X9350503Y-15822174D01*
X9350503Y-15822174D02*
X9360027Y-15831698D01*
X9360027Y-15831698D02*
X9369551Y-15850746D01*
X9369551Y-15850746D02*
X9369551Y-15907888D01*
X9369551Y-15907888D02*
X9360027Y-15926936D01*
X9360027Y-15926936D02*
X9350503Y-15936460D01*
X9350503Y-15936460D02*
X9331456Y-15945984D01*
X9331456Y-15945984D02*
X9302884Y-15945984D01*
X9483837Y-15945984D02*
X9464789Y-15936460D01*
X9464789Y-15936460D02*
X9455265Y-15917412D01*
X9455265Y-15917412D02*
X9455265Y-15745984D01*
X9636218Y-15936460D02*
X9617170Y-15945984D01*
X9617170Y-15945984D02*
X9579075Y-15945984D01*
X9579075Y-15945984D02*
X9560027Y-15936460D01*
X9560027Y-15936460D02*
X9550503Y-15917412D01*
X9550503Y-15917412D02*
X9550503Y-15841222D01*
X9550503Y-15841222D02*
X9560027Y-15822174D01*
X9560027Y-15822174D02*
X9579075Y-15812650D01*
X9579075Y-15812650D02*
X9617170Y-15812650D01*
X9617170Y-15812650D02*
X9636218Y-15822174D01*
X9636218Y-15822174D02*
X9645742Y-15841222D01*
X9645742Y-15841222D02*
X9645742Y-15860269D01*
X9645742Y-15860269D02*
X9550503Y-15879317D01*
X9721932Y-15936460D02*
X9740980Y-15945984D01*
X9740980Y-15945984D02*
X9779075Y-15945984D01*
X9779075Y-15945984D02*
X9798123Y-15936460D01*
X9798123Y-15936460D02*
X9807646Y-15917412D01*
X9807646Y-15917412D02*
X9807646Y-15907888D01*
X9807646Y-15907888D02*
X9798123Y-15888841D01*
X9798123Y-15888841D02*
X9779075Y-15879317D01*
X9779075Y-15879317D02*
X9750503Y-15879317D01*
X9750503Y-15879317D02*
X9731456Y-15869793D01*
X9731456Y-15869793D02*
X9721932Y-15850746D01*
X9721932Y-15850746D02*
X9721932Y-15841222D01*
X9721932Y-15841222D02*
X9731456Y-15822174D01*
X9731456Y-15822174D02*
X9750503Y-15812650D01*
X9750503Y-15812650D02*
X9779075Y-15812650D01*
X9779075Y-15812650D02*
X9798123Y-15822174D01*
X9874313Y-16022174D02*
X9883837Y-16012650D01*
X9883837Y-16012650D02*
X9902884Y-15984079D01*
X9902884Y-15984079D02*
X9912408Y-15965031D01*
X9912408Y-15965031D02*
X9921932Y-15936460D01*
X9921932Y-15936460D02*
X9931456Y-15888841D01*
X9931456Y-15888841D02*
X9931456Y-15850746D01*
X9931456Y-15850746D02*
X9921932Y-15803127D01*
X9921932Y-15803127D02*
X9912408Y-15774555D01*
X9912408Y-15774555D02*
X9902884Y-15755508D01*
X9902884Y-15755508D02*
X9883837Y-15726936D01*
X9883837Y-15726936D02*
X9874313Y-15717412D01*
X10236218Y-16022174D02*
X10226694Y-16012650D01*
X10226694Y-16012650D02*
X10207646Y-15984079D01*
X10207646Y-15984079D02*
X10198123Y-15965031D01*
X10198123Y-15965031D02*
X10188599Y-15936460D01*
X10188599Y-15936460D02*
X10179075Y-15888841D01*
X10179075Y-15888841D02*
X10179075Y-15850746D01*
X10179075Y-15850746D02*
X10188599Y-15803127D01*
X10188599Y-15803127D02*
X10198123Y-15774555D01*
X10198123Y-15774555D02*
X10207646Y-15755508D01*
X10207646Y-15755508D02*
X10226694Y-15726936D01*
X10226694Y-15726936D02*
X10236218Y-15717412D01*
X10312408Y-15812650D02*
X10312408Y-15945984D01*
X10312408Y-15831698D02*
X10321932Y-15822174D01*
X10321932Y-15822174D02*
X10340980Y-15812650D01*
X10340980Y-15812650D02*
X10369551Y-15812650D01*
X10369551Y-15812650D02*
X10388599Y-15822174D01*
X10388599Y-15822174D02*
X10398123Y-15841222D01*
X10398123Y-15841222D02*
X10398123Y-15945984D01*
X10521932Y-15945984D02*
X10502884Y-15936460D01*
X10502884Y-15936460D02*
X10493361Y-15926936D01*
X10493361Y-15926936D02*
X10483837Y-15907888D01*
X10483837Y-15907888D02*
X10483837Y-15850746D01*
X10483837Y-15850746D02*
X10493361Y-15831698D01*
X10493361Y-15831698D02*
X10502884Y-15822174D01*
X10502884Y-15822174D02*
X10521932Y-15812650D01*
X10521932Y-15812650D02*
X10550504Y-15812650D01*
X10550504Y-15812650D02*
X10569551Y-15822174D01*
X10569551Y-15822174D02*
X10579075Y-15831698D01*
X10579075Y-15831698D02*
X10588599Y-15850746D01*
X10588599Y-15850746D02*
X10588599Y-15907888D01*
X10588599Y-15907888D02*
X10579075Y-15926936D01*
X10579075Y-15926936D02*
X10569551Y-15936460D01*
X10569551Y-15936460D02*
X10550504Y-15945984D01*
X10550504Y-15945984D02*
X10521932Y-15945984D01*
X10645742Y-15812650D02*
X10721932Y-15812650D01*
X10674313Y-15745984D02*
X10674313Y-15917412D01*
X10674313Y-15917412D02*
X10683837Y-15936460D01*
X10683837Y-15936460D02*
X10702884Y-15945984D01*
X10702884Y-15945984D02*
X10721932Y-15945984D01*
X10940980Y-15812650D02*
X10940980Y-16012650D01*
X10940980Y-15822174D02*
X10960027Y-15812650D01*
X10960027Y-15812650D02*
X10998123Y-15812650D01*
X10998123Y-15812650D02*
X11017170Y-15822174D01*
X11017170Y-15822174D02*
X11026694Y-15831698D01*
X11026694Y-15831698D02*
X11036218Y-15850746D01*
X11036218Y-15850746D02*
X11036218Y-15907888D01*
X11036218Y-15907888D02*
X11026694Y-15926936D01*
X11026694Y-15926936D02*
X11017170Y-15936460D01*
X11017170Y-15936460D02*
X10998123Y-15945984D01*
X10998123Y-15945984D02*
X10960027Y-15945984D01*
X10960027Y-15945984D02*
X10940980Y-15936460D01*
X11150504Y-15945984D02*
X11131456Y-15936460D01*
X11131456Y-15936460D02*
X11121932Y-15917412D01*
X11121932Y-15917412D02*
X11121932Y-15745984D01*
X11312408Y-15945984D02*
X11312408Y-15841222D01*
X11312408Y-15841222D02*
X11302884Y-15822174D01*
X11302884Y-15822174D02*
X11283837Y-15812650D01*
X11283837Y-15812650D02*
X11245742Y-15812650D01*
X11245742Y-15812650D02*
X11226694Y-15822174D01*
X11312408Y-15936460D02*
X11293361Y-15945984D01*
X11293361Y-15945984D02*
X11245742Y-15945984D01*
X11245742Y-15945984D02*
X11226694Y-15936460D01*
X11226694Y-15936460D02*
X11217170Y-15917412D01*
X11217170Y-15917412D02*
X11217170Y-15898365D01*
X11217170Y-15898365D02*
X11226694Y-15879317D01*
X11226694Y-15879317D02*
X11245742Y-15869793D01*
X11245742Y-15869793D02*
X11293361Y-15869793D01*
X11293361Y-15869793D02*
X11312408Y-15860269D01*
X11379075Y-15812650D02*
X11455265Y-15812650D01*
X11407646Y-15745984D02*
X11407646Y-15917412D01*
X11407646Y-15917412D02*
X11417170Y-15936460D01*
X11417170Y-15936460D02*
X11436218Y-15945984D01*
X11436218Y-15945984D02*
X11455265Y-15945984D01*
X11598123Y-15936460D02*
X11579075Y-15945984D01*
X11579075Y-15945984D02*
X11540980Y-15945984D01*
X11540980Y-15945984D02*
X11521932Y-15936460D01*
X11521932Y-15936460D02*
X11512408Y-15917412D01*
X11512408Y-15917412D02*
X11512408Y-15841222D01*
X11512408Y-15841222D02*
X11521932Y-15822174D01*
X11521932Y-15822174D02*
X11540980Y-15812650D01*
X11540980Y-15812650D02*
X11579075Y-15812650D01*
X11579075Y-15812650D02*
X11598123Y-15822174D01*
X11598123Y-15822174D02*
X11607646Y-15841222D01*
X11607646Y-15841222D02*
X11607646Y-15860269D01*
X11607646Y-15860269D02*
X11512408Y-15879317D01*
X11779075Y-15945984D02*
X11779075Y-15745984D01*
X11779075Y-15936460D02*
X11760027Y-15945984D01*
X11760027Y-15945984D02*
X11721932Y-15945984D01*
X11721932Y-15945984D02*
X11702884Y-15936460D01*
X11702884Y-15936460D02*
X11693361Y-15926936D01*
X11693361Y-15926936D02*
X11683837Y-15907888D01*
X11683837Y-15907888D02*
X11683837Y-15850746D01*
X11683837Y-15850746D02*
X11693361Y-15831698D01*
X11693361Y-15831698D02*
X11702884Y-15822174D01*
X11702884Y-15822174D02*
X11721932Y-15812650D01*
X11721932Y-15812650D02*
X11760027Y-15812650D01*
X11760027Y-15812650D02*
X11779075Y-15822174D01*
X11855265Y-16022174D02*
X11864789Y-16012650D01*
X11864789Y-16012650D02*
X11883837Y-15984079D01*
X11883837Y-15984079D02*
X11893361Y-15965031D01*
X11893361Y-15965031D02*
X11902884Y-15936460D01*
X11902884Y-15936460D02*
X11912408Y-15888841D01*
X11912408Y-15888841D02*
X11912408Y-15850746D01*
X11912408Y-15850746D02*
X11902884Y-15803127D01*
X11902884Y-15803127D02*
X11893361Y-15774555D01*
X11893361Y-15774555D02*
X11883837Y-15755508D01*
X11883837Y-15755508D02*
X11864789Y-15726936D01*
X11864789Y-15726936D02*
X11855265Y-15717412D01*
X5099250Y-16174500D02*
G75*
G02*
X4899250Y-16174500I-100000J0D01*
G01*
X4899250Y-16174500D02*
G75*
G02*
X5099250Y-16174500I100000J0D01*
G01*
X5340979Y-16065984D02*
X5464789Y-16065984D01*
X5464789Y-16065984D02*
X5398122Y-16142174D01*
X5398122Y-16142174D02*
X5426694Y-16142174D01*
X5426694Y-16142174D02*
X5445741Y-16151698D01*
X5445741Y-16151698D02*
X5455265Y-16161222D01*
X5455265Y-16161222D02*
X5464789Y-16180269D01*
X5464789Y-16180269D02*
X5464789Y-16227888D01*
X5464789Y-16227888D02*
X5455265Y-16246936D01*
X5455265Y-16246936D02*
X5445741Y-16256460D01*
X5445741Y-16256460D02*
X5426694Y-16265984D01*
X5426694Y-16265984D02*
X5369551Y-16265984D01*
X5369551Y-16265984D02*
X5350503Y-16256460D01*
X5350503Y-16256460D02*
X5340979Y-16246936D01*
X5550503Y-16246936D02*
X5560027Y-16256460D01*
X5560027Y-16256460D02*
X5550503Y-16265984D01*
X5550503Y-16265984D02*
X5540979Y-16256460D01*
X5540979Y-16256460D02*
X5550503Y-16246936D01*
X5550503Y-16246936D02*
X5550503Y-16265984D01*
X5636217Y-16085031D02*
X5645741Y-16075508D01*
X5645741Y-16075508D02*
X5664789Y-16065984D01*
X5664789Y-16065984D02*
X5712408Y-16065984D01*
X5712408Y-16065984D02*
X5731455Y-16075508D01*
X5731455Y-16075508D02*
X5740979Y-16085031D01*
X5740979Y-16085031D02*
X5750503Y-16104079D01*
X5750503Y-16104079D02*
X5750503Y-16123127D01*
X5750503Y-16123127D02*
X5740979Y-16151698D01*
X5740979Y-16151698D02*
X5626693Y-16265984D01*
X5626693Y-16265984D02*
X5750503Y-16265984D01*
X5874312Y-16065984D02*
X5893360Y-16065984D01*
X5893360Y-16065984D02*
X5912408Y-16075508D01*
X5912408Y-16075508D02*
X5921932Y-16085031D01*
X5921932Y-16085031D02*
X5931455Y-16104079D01*
X5931455Y-16104079D02*
X5940979Y-16142174D01*
X5940979Y-16142174D02*
X5940979Y-16189793D01*
X5940979Y-16189793D02*
X5931455Y-16227888D01*
X5931455Y-16227888D02*
X5921932Y-16246936D01*
X5921932Y-16246936D02*
X5912408Y-16256460D01*
X5912408Y-16256460D02*
X5893360Y-16265984D01*
X5893360Y-16265984D02*
X5874312Y-16265984D01*
X5874312Y-16265984D02*
X5855265Y-16256460D01*
X5855265Y-16256460D02*
X5845741Y-16246936D01*
X5845741Y-16246936D02*
X5836217Y-16227888D01*
X5836217Y-16227888D02*
X5826693Y-16189793D01*
X5826693Y-16189793D02*
X5826693Y-16142174D01*
X5826693Y-16142174D02*
X5836217Y-16104079D01*
X5836217Y-16104079D02*
X5845741Y-16085031D01*
X5845741Y-16085031D02*
X5855265Y-16075508D01*
X5855265Y-16075508D02*
X5874312Y-16065984D01*
X6064789Y-16065984D02*
X6083836Y-16065984D01*
X6083836Y-16065984D02*
X6102884Y-16075508D01*
X6102884Y-16075508D02*
X6112408Y-16085031D01*
X6112408Y-16085031D02*
X6121932Y-16104079D01*
X6121932Y-16104079D02*
X6131455Y-16142174D01*
X6131455Y-16142174D02*
X6131455Y-16189793D01*
X6131455Y-16189793D02*
X6121932Y-16227888D01*
X6121932Y-16227888D02*
X6112408Y-16246936D01*
X6112408Y-16246936D02*
X6102884Y-16256460D01*
X6102884Y-16256460D02*
X6083836Y-16265984D01*
X6083836Y-16265984D02*
X6064789Y-16265984D01*
X6064789Y-16265984D02*
X6045741Y-16256460D01*
X6045741Y-16256460D02*
X6036217Y-16246936D01*
X6036217Y-16246936D02*
X6026693Y-16227888D01*
X6026693Y-16227888D02*
X6017170Y-16189793D01*
X6017170Y-16189793D02*
X6017170Y-16142174D01*
X6017170Y-16142174D02*
X6026693Y-16104079D01*
X6026693Y-16104079D02*
X6036217Y-16085031D01*
X6036217Y-16085031D02*
X6045741Y-16075508D01*
X6045741Y-16075508D02*
X6064789Y-16065984D01*
X6217170Y-16265984D02*
X6217170Y-16132650D01*
X6217170Y-16151698D02*
X6226693Y-16142174D01*
X6226693Y-16142174D02*
X6245741Y-16132650D01*
X6245741Y-16132650D02*
X6274313Y-16132650D01*
X6274313Y-16132650D02*
X6293360Y-16142174D01*
X6293360Y-16142174D02*
X6302884Y-16161222D01*
X6302884Y-16161222D02*
X6302884Y-16265984D01*
X6302884Y-16161222D02*
X6312408Y-16142174D01*
X6312408Y-16142174D02*
X6331455Y-16132650D01*
X6331455Y-16132650D02*
X6360027Y-16132650D01*
X6360027Y-16132650D02*
X6379074Y-16142174D01*
X6379074Y-16142174D02*
X6388598Y-16161222D01*
X6388598Y-16161222D02*
X6388598Y-16265984D01*
X6483836Y-16265984D02*
X6483836Y-16132650D01*
X6483836Y-16151698D02*
X6493360Y-16142174D01*
X6493360Y-16142174D02*
X6512408Y-16132650D01*
X6512408Y-16132650D02*
X6540979Y-16132650D01*
X6540979Y-16132650D02*
X6560027Y-16142174D01*
X6560027Y-16142174D02*
X6569551Y-16161222D01*
X6569551Y-16161222D02*
X6569551Y-16265984D01*
X6569551Y-16161222D02*
X6579074Y-16142174D01*
X6579074Y-16142174D02*
X6598122Y-16132650D01*
X6598122Y-16132650D02*
X6626693Y-16132650D01*
X6626693Y-16132650D02*
X6645741Y-16142174D01*
X6645741Y-16142174D02*
X6655265Y-16161222D01*
X6655265Y-16161222D02*
X6655265Y-16265984D01*
X7045741Y-16056460D02*
X6874313Y-16313603D01*
X7302884Y-16065984D02*
X7321932Y-16065984D01*
X7321932Y-16065984D02*
X7340979Y-16075508D01*
X7340979Y-16075508D02*
X7350503Y-16085031D01*
X7350503Y-16085031D02*
X7360027Y-16104079D01*
X7360027Y-16104079D02*
X7369551Y-16142174D01*
X7369551Y-16142174D02*
X7369551Y-16189793D01*
X7369551Y-16189793D02*
X7360027Y-16227888D01*
X7360027Y-16227888D02*
X7350503Y-16246936D01*
X7350503Y-16246936D02*
X7340979Y-16256460D01*
X7340979Y-16256460D02*
X7321932Y-16265984D01*
X7321932Y-16265984D02*
X7302884Y-16265984D01*
X7302884Y-16265984D02*
X7283836Y-16256460D01*
X7283836Y-16256460D02*
X7274313Y-16246936D01*
X7274313Y-16246936D02*
X7264789Y-16227888D01*
X7264789Y-16227888D02*
X7255265Y-16189793D01*
X7255265Y-16189793D02*
X7255265Y-16142174D01*
X7255265Y-16142174D02*
X7264789Y-16104079D01*
X7264789Y-16104079D02*
X7274313Y-16085031D01*
X7274313Y-16085031D02*
X7283836Y-16075508D01*
X7283836Y-16075508D02*
X7302884Y-16065984D01*
X7455265Y-16246936D02*
X7464789Y-16256460D01*
X7464789Y-16256460D02*
X7455265Y-16265984D01*
X7455265Y-16265984D02*
X7445741Y-16256460D01*
X7445741Y-16256460D02*
X7455265Y-16246936D01*
X7455265Y-16246936D02*
X7455265Y-16265984D01*
X7655265Y-16265984D02*
X7540979Y-16265984D01*
X7598122Y-16265984D02*
X7598122Y-16065984D01*
X7598122Y-16065984D02*
X7579075Y-16094555D01*
X7579075Y-16094555D02*
X7560027Y-16113603D01*
X7560027Y-16113603D02*
X7540979Y-16123127D01*
X7731456Y-16085031D02*
X7740979Y-16075508D01*
X7740979Y-16075508D02*
X7760027Y-16065984D01*
X7760027Y-16065984D02*
X7807646Y-16065984D01*
X7807646Y-16065984D02*
X7826694Y-16075508D01*
X7826694Y-16075508D02*
X7836217Y-16085031D01*
X7836217Y-16085031D02*
X7845741Y-16104079D01*
X7845741Y-16104079D02*
X7845741Y-16123127D01*
X7845741Y-16123127D02*
X7836217Y-16151698D01*
X7836217Y-16151698D02*
X7721932Y-16265984D01*
X7721932Y-16265984D02*
X7845741Y-16265984D01*
X8017170Y-16065984D02*
X7979075Y-16065984D01*
X7979075Y-16065984D02*
X7960027Y-16075508D01*
X7960027Y-16075508D02*
X7950503Y-16085031D01*
X7950503Y-16085031D02*
X7931456Y-16113603D01*
X7931456Y-16113603D02*
X7921932Y-16151698D01*
X7921932Y-16151698D02*
X7921932Y-16227888D01*
X7921932Y-16227888D02*
X7931456Y-16246936D01*
X7931456Y-16246936D02*
X7940979Y-16256460D01*
X7940979Y-16256460D02*
X7960027Y-16265984D01*
X7960027Y-16265984D02*
X7998122Y-16265984D01*
X7998122Y-16265984D02*
X8017170Y-16256460D01*
X8017170Y-16256460D02*
X8026694Y-16246936D01*
X8026694Y-16246936D02*
X8036217Y-16227888D01*
X8036217Y-16227888D02*
X8036217Y-16180269D01*
X8036217Y-16180269D02*
X8026694Y-16161222D01*
X8026694Y-16161222D02*
X8017170Y-16151698D01*
X8017170Y-16151698D02*
X7998122Y-16142174D01*
X7998122Y-16142174D02*
X7960027Y-16142174D01*
X7960027Y-16142174D02*
X7940979Y-16151698D01*
X7940979Y-16151698D02*
X7931456Y-16161222D01*
X7931456Y-16161222D02*
X7921932Y-16180269D01*
X8160027Y-16065984D02*
X8179075Y-16065984D01*
X8179075Y-16065984D02*
X8198122Y-16075508D01*
X8198122Y-16075508D02*
X8207646Y-16085031D01*
X8207646Y-16085031D02*
X8217170Y-16104079D01*
X8217170Y-16104079D02*
X8226694Y-16142174D01*
X8226694Y-16142174D02*
X8226694Y-16189793D01*
X8226694Y-16189793D02*
X8217170Y-16227888D01*
X8217170Y-16227888D02*
X8207646Y-16246936D01*
X8207646Y-16246936D02*
X8198122Y-16256460D01*
X8198122Y-16256460D02*
X8179075Y-16265984D01*
X8179075Y-16265984D02*
X8160027Y-16265984D01*
X8160027Y-16265984D02*
X8140979Y-16256460D01*
X8140979Y-16256460D02*
X8131456Y-16246936D01*
X8131456Y-16246936D02*
X8121932Y-16227888D01*
X8121932Y-16227888D02*
X8112408Y-16189793D01*
X8112408Y-16189793D02*
X8112408Y-16142174D01*
X8112408Y-16142174D02*
X8121932Y-16104079D01*
X8121932Y-16104079D02*
X8131456Y-16085031D01*
X8131456Y-16085031D02*
X8140979Y-16075508D01*
X8140979Y-16075508D02*
X8160027Y-16065984D01*
X8302884Y-16065984D02*
X8302884Y-16104079D01*
X8379075Y-16065984D02*
X8379075Y-16104079D01*
X8674313Y-16342174D02*
X8664789Y-16332650D01*
X8664789Y-16332650D02*
X8645741Y-16304079D01*
X8645741Y-16304079D02*
X8636218Y-16285031D01*
X8636218Y-16285031D02*
X8626694Y-16256460D01*
X8626694Y-16256460D02*
X8617170Y-16208841D01*
X8617170Y-16208841D02*
X8617170Y-16170746D01*
X8617170Y-16170746D02*
X8626694Y-16123127D01*
X8626694Y-16123127D02*
X8636218Y-16094555D01*
X8636218Y-16094555D02*
X8645741Y-16075508D01*
X8645741Y-16075508D02*
X8664789Y-16046936D01*
X8664789Y-16046936D02*
X8674313Y-16037412D01*
X8731456Y-16065984D02*
X8855265Y-16065984D01*
X8855265Y-16065984D02*
X8788599Y-16142174D01*
X8788599Y-16142174D02*
X8817170Y-16142174D01*
X8817170Y-16142174D02*
X8836218Y-16151698D01*
X8836218Y-16151698D02*
X8845741Y-16161222D01*
X8845741Y-16161222D02*
X8855265Y-16180269D01*
X8855265Y-16180269D02*
X8855265Y-16227888D01*
X8855265Y-16227888D02*
X8845741Y-16246936D01*
X8845741Y-16246936D02*
X8836218Y-16256460D01*
X8836218Y-16256460D02*
X8817170Y-16265984D01*
X8817170Y-16265984D02*
X8760027Y-16265984D01*
X8760027Y-16265984D02*
X8740980Y-16256460D01*
X8740980Y-16256460D02*
X8731456Y-16246936D01*
X9093361Y-16265984D02*
X9093361Y-16065984D01*
X9179075Y-16265984D02*
X9179075Y-16161222D01*
X9179075Y-16161222D02*
X9169551Y-16142174D01*
X9169551Y-16142174D02*
X9150503Y-16132650D01*
X9150503Y-16132650D02*
X9121932Y-16132650D01*
X9121932Y-16132650D02*
X9102884Y-16142174D01*
X9102884Y-16142174D02*
X9093361Y-16151698D01*
X9302884Y-16265984D02*
X9283837Y-16256460D01*
X9283837Y-16256460D02*
X9274313Y-16246936D01*
X9274313Y-16246936D02*
X9264789Y-16227888D01*
X9264789Y-16227888D02*
X9264789Y-16170746D01*
X9264789Y-16170746D02*
X9274313Y-16151698D01*
X9274313Y-16151698D02*
X9283837Y-16142174D01*
X9283837Y-16142174D02*
X9302884Y-16132650D01*
X9302884Y-16132650D02*
X9331456Y-16132650D01*
X9331456Y-16132650D02*
X9350503Y-16142174D01*
X9350503Y-16142174D02*
X9360027Y-16151698D01*
X9360027Y-16151698D02*
X9369551Y-16170746D01*
X9369551Y-16170746D02*
X9369551Y-16227888D01*
X9369551Y-16227888D02*
X9360027Y-16246936D01*
X9360027Y-16246936D02*
X9350503Y-16256460D01*
X9350503Y-16256460D02*
X9331456Y-16265984D01*
X9331456Y-16265984D02*
X9302884Y-16265984D01*
X9483837Y-16265984D02*
X9464789Y-16256460D01*
X9464789Y-16256460D02*
X9455265Y-16237412D01*
X9455265Y-16237412D02*
X9455265Y-16065984D01*
X9636218Y-16256460D02*
X9617170Y-16265984D01*
X9617170Y-16265984D02*
X9579075Y-16265984D01*
X9579075Y-16265984D02*
X9560027Y-16256460D01*
X9560027Y-16256460D02*
X9550503Y-16237412D01*
X9550503Y-16237412D02*
X9550503Y-16161222D01*
X9550503Y-16161222D02*
X9560027Y-16142174D01*
X9560027Y-16142174D02*
X9579075Y-16132650D01*
X9579075Y-16132650D02*
X9617170Y-16132650D01*
X9617170Y-16132650D02*
X9636218Y-16142174D01*
X9636218Y-16142174D02*
X9645742Y-16161222D01*
X9645742Y-16161222D02*
X9645742Y-16180269D01*
X9645742Y-16180269D02*
X9550503Y-16199317D01*
X9721932Y-16256460D02*
X9740980Y-16265984D01*
X9740980Y-16265984D02*
X9779075Y-16265984D01*
X9779075Y-16265984D02*
X9798123Y-16256460D01*
X9798123Y-16256460D02*
X9807646Y-16237412D01*
X9807646Y-16237412D02*
X9807646Y-16227888D01*
X9807646Y-16227888D02*
X9798123Y-16208841D01*
X9798123Y-16208841D02*
X9779075Y-16199317D01*
X9779075Y-16199317D02*
X9750503Y-16199317D01*
X9750503Y-16199317D02*
X9731456Y-16189793D01*
X9731456Y-16189793D02*
X9721932Y-16170746D01*
X9721932Y-16170746D02*
X9721932Y-16161222D01*
X9721932Y-16161222D02*
X9731456Y-16142174D01*
X9731456Y-16142174D02*
X9750503Y-16132650D01*
X9750503Y-16132650D02*
X9779075Y-16132650D01*
X9779075Y-16132650D02*
X9798123Y-16142174D01*
X9874313Y-16342174D02*
X9883837Y-16332650D01*
X9883837Y-16332650D02*
X9902884Y-16304079D01*
X9902884Y-16304079D02*
X9912408Y-16285031D01*
X9912408Y-16285031D02*
X9921932Y-16256460D01*
X9921932Y-16256460D02*
X9931456Y-16208841D01*
X9931456Y-16208841D02*
X9931456Y-16170746D01*
X9931456Y-16170746D02*
X9921932Y-16123127D01*
X9921932Y-16123127D02*
X9912408Y-16094555D01*
X9912408Y-16094555D02*
X9902884Y-16075508D01*
X9902884Y-16075508D02*
X9883837Y-16046936D01*
X9883837Y-16046936D02*
X9874313Y-16037412D01*
X10236218Y-16342174D02*
X10226694Y-16332650D01*
X10226694Y-16332650D02*
X10207646Y-16304079D01*
X10207646Y-16304079D02*
X10198123Y-16285031D01*
X10198123Y-16285031D02*
X10188599Y-16256460D01*
X10188599Y-16256460D02*
X10179075Y-16208841D01*
X10179075Y-16208841D02*
X10179075Y-16170746D01*
X10179075Y-16170746D02*
X10188599Y-16123127D01*
X10188599Y-16123127D02*
X10198123Y-16094555D01*
X10198123Y-16094555D02*
X10207646Y-16075508D01*
X10207646Y-16075508D02*
X10226694Y-16046936D01*
X10226694Y-16046936D02*
X10236218Y-16037412D01*
X10312408Y-16132650D02*
X10312408Y-16265984D01*
X10312408Y-16151698D02*
X10321932Y-16142174D01*
X10321932Y-16142174D02*
X10340980Y-16132650D01*
X10340980Y-16132650D02*
X10369551Y-16132650D01*
X10369551Y-16132650D02*
X10388599Y-16142174D01*
X10388599Y-16142174D02*
X10398123Y-16161222D01*
X10398123Y-16161222D02*
X10398123Y-16265984D01*
X10521932Y-16265984D02*
X10502884Y-16256460D01*
X10502884Y-16256460D02*
X10493361Y-16246936D01*
X10493361Y-16246936D02*
X10483837Y-16227888D01*
X10483837Y-16227888D02*
X10483837Y-16170746D01*
X10483837Y-16170746D02*
X10493361Y-16151698D01*
X10493361Y-16151698D02*
X10502884Y-16142174D01*
X10502884Y-16142174D02*
X10521932Y-16132650D01*
X10521932Y-16132650D02*
X10550504Y-16132650D01*
X10550504Y-16132650D02*
X10569551Y-16142174D01*
X10569551Y-16142174D02*
X10579075Y-16151698D01*
X10579075Y-16151698D02*
X10588599Y-16170746D01*
X10588599Y-16170746D02*
X10588599Y-16227888D01*
X10588599Y-16227888D02*
X10579075Y-16246936D01*
X10579075Y-16246936D02*
X10569551Y-16256460D01*
X10569551Y-16256460D02*
X10550504Y-16265984D01*
X10550504Y-16265984D02*
X10521932Y-16265984D01*
X10645742Y-16132650D02*
X10721932Y-16132650D01*
X10674313Y-16065984D02*
X10674313Y-16237412D01*
X10674313Y-16237412D02*
X10683837Y-16256460D01*
X10683837Y-16256460D02*
X10702884Y-16265984D01*
X10702884Y-16265984D02*
X10721932Y-16265984D01*
X10940980Y-16132650D02*
X10940980Y-16332650D01*
X10940980Y-16142174D02*
X10960027Y-16132650D01*
X10960027Y-16132650D02*
X10998123Y-16132650D01*
X10998123Y-16132650D02*
X11017170Y-16142174D01*
X11017170Y-16142174D02*
X11026694Y-16151698D01*
X11026694Y-16151698D02*
X11036218Y-16170746D01*
X11036218Y-16170746D02*
X11036218Y-16227888D01*
X11036218Y-16227888D02*
X11026694Y-16246936D01*
X11026694Y-16246936D02*
X11017170Y-16256460D01*
X11017170Y-16256460D02*
X10998123Y-16265984D01*
X10998123Y-16265984D02*
X10960027Y-16265984D01*
X10960027Y-16265984D02*
X10940980Y-16256460D01*
X11150504Y-16265984D02*
X11131456Y-16256460D01*
X11131456Y-16256460D02*
X11121932Y-16237412D01*
X11121932Y-16237412D02*
X11121932Y-16065984D01*
X11312408Y-16265984D02*
X11312408Y-16161222D01*
X11312408Y-16161222D02*
X11302884Y-16142174D01*
X11302884Y-16142174D02*
X11283837Y-16132650D01*
X11283837Y-16132650D02*
X11245742Y-16132650D01*
X11245742Y-16132650D02*
X11226694Y-16142174D01*
X11312408Y-16256460D02*
X11293361Y-16265984D01*
X11293361Y-16265984D02*
X11245742Y-16265984D01*
X11245742Y-16265984D02*
X11226694Y-16256460D01*
X11226694Y-16256460D02*
X11217170Y-16237412D01*
X11217170Y-16237412D02*
X11217170Y-16218365D01*
X11217170Y-16218365D02*
X11226694Y-16199317D01*
X11226694Y-16199317D02*
X11245742Y-16189793D01*
X11245742Y-16189793D02*
X11293361Y-16189793D01*
X11293361Y-16189793D02*
X11312408Y-16180269D01*
X11379075Y-16132650D02*
X11455265Y-16132650D01*
X11407646Y-16065984D02*
X11407646Y-16237412D01*
X11407646Y-16237412D02*
X11417170Y-16256460D01*
X11417170Y-16256460D02*
X11436218Y-16265984D01*
X11436218Y-16265984D02*
X11455265Y-16265984D01*
X11598123Y-16256460D02*
X11579075Y-16265984D01*
X11579075Y-16265984D02*
X11540980Y-16265984D01*
X11540980Y-16265984D02*
X11521932Y-16256460D01*
X11521932Y-16256460D02*
X11512408Y-16237412D01*
X11512408Y-16237412D02*
X11512408Y-16161222D01*
X11512408Y-16161222D02*
X11521932Y-16142174D01*
X11521932Y-16142174D02*
X11540980Y-16132650D01*
X11540980Y-16132650D02*
X11579075Y-16132650D01*
X11579075Y-16132650D02*
X11598123Y-16142174D01*
X11598123Y-16142174D02*
X11607646Y-16161222D01*
X11607646Y-16161222D02*
X11607646Y-16180269D01*
X11607646Y-16180269D02*
X11512408Y-16199317D01*
X11779075Y-16265984D02*
X11779075Y-16065984D01*
X11779075Y-16256460D02*
X11760027Y-16265984D01*
X11760027Y-16265984D02*
X11721932Y-16265984D01*
X11721932Y-16265984D02*
X11702884Y-16256460D01*
X11702884Y-16256460D02*
X11693361Y-16246936D01*
X11693361Y-16246936D02*
X11683837Y-16227888D01*
X11683837Y-16227888D02*
X11683837Y-16170746D01*
X11683837Y-16170746D02*
X11693361Y-16151698D01*
X11693361Y-16151698D02*
X11702884Y-16142174D01*
X11702884Y-16142174D02*
X11721932Y-16132650D01*
X11721932Y-16132650D02*
X11760027Y-16132650D01*
X11760027Y-16132650D02*
X11779075Y-16142174D01*
X11855265Y-16342174D02*
X11864789Y-16332650D01*
X11864789Y-16332650D02*
X11883837Y-16304079D01*
X11883837Y-16304079D02*
X11893361Y-16285031D01*
X11893361Y-16285031D02*
X11902884Y-16256460D01*
X11902884Y-16256460D02*
X11912408Y-16208841D01*
X11912408Y-16208841D02*
X11912408Y-16170746D01*
X11912408Y-16170746D02*
X11902884Y-16123127D01*
X11902884Y-16123127D02*
X11893361Y-16094555D01*
X11893361Y-16094555D02*
X11883837Y-16075508D01*
X11883837Y-16075508D02*
X11864789Y-16046936D01*
X11864789Y-16046936D02*
X11855265Y-16037412D01*
M02*
